<?xml version="1.0" encoding="utf-8"?>
<!-- Generator: Adobe Illustrator 24.2.3, SVG Export Plug-In . SVG Version: 6.00 Build 0)  -->
<svg version="1.1" id="Layer_1" xmlns="http://www.w3.org/2000/svg" xmlns:xlink="http://www.w3.org/1999/xlink" x="0px" y="0px"
	 viewBox="0 0 160 160" style="enable-background:new 0 0 160 160;" xml:space="preserve">
<style type="text/css">
	.st0{fill:#CBE0FF;}
	.st1{fill:url(#SVGID_1_);}
	.st2{fill:url(#SVGID_2_);}
	.st3{fill:url(#SVGID_3_);}
	.st4{fill:url(#SVGID_4_);}
	.st5{fill:#ACD4F7;}
	.st6{fill:url(#SVGID_5_);}
	.st7{fill:url(#SVGID_6_);}
	.st8{fill:url(#SVGID_7_);}
	.st9{fill:url(#SVGID_8_);}
	.st10{fill:#FFFFFF;}
	.st11{fill:none;}
	.st12{fill:#30343A;}
	.st13{fill:#255299;}
	.st14{fill:#2A60B7;}
	.st15{fill:#FEC6BD;}
	.st16{fill:#6DB3FA;}
	.st17{fill:url(#SVGID_9_);}
	.st18{fill:#37475E;}
	.st19{fill:url(#SVGID_10_);}
	.st20{fill:url(#SVGID_11_);}
	.st21{fill:url(#SVGID_12_);}
	.st22{fill:url(#SVGID_13_);}
	.st23{fill:url(#SVGID_14_);}
	.st24{fill:url(#SVGID_15_);}
	.st25{fill:url(#SVGID_16_);}
	.st26{fill:#FFD215;}
	.st27{fill:#FFE63E;}
	.st28{fill:url(#SVGID_17_);}
	.st29{fill:url(#SVGID_18_);}
	.st30{fill:url(#SVGID_19_);}
	.st31{fill:url(#SVGID_20_);}
	.st32{fill:url(#SVGID_21_);}
	.st33{fill:url(#SVGID_22_);}
	.st34{fill:url(#SVGID_23_);}
	.st35{fill:url(#SVGID_24_);}
	.st36{fill:url(#SVGID_25_);}
	.st37{fill:url(#SVGID_26_);}
</style>
<g>
	<g id="Common-Certification">
		<path class="st0" d="M131.7,64.7c0-0.2,3.1-15.4-6.2-25.6c-7.3-8.1-12.9-17.5-14.3-24l-0.2,0c1.5,6.5,7.1,16,14.4,24.1
			c9.1,10.2,6.2,25.3,6.1,25.4L131.7,64.7z"/>
		<path class="st0" d="M109.8,13.5c0.3,0.7,0.8,1.4,1.4,1.8c0.3-0.7,0.4-1.5,0.3-2.3c-0.2-0.9-0.7-1.2-1.2-1.1
			C109.9,12.1,109.6,12.6,109.8,13.5z"/>
		<path class="st0" d="M112.3,16.8c-0.4,0.9,0.1,2.4,0.1,2.4s1.3-0.8,1.7-1.7s0.1-1.4-0.4-1.6C113.2,15.7,112.7,15.9,112.3,16.8z"/>
		<path class="st0" d="M114,20.4c-0.4,1,0.1,2.5,0.1,2.5s1.4-0.8,1.8-1.8c0.4-1,0.1-1.5-0.4-1.7C115,19.2,114.4,19.4,114,20.4z"/>
		<path class="st0" d="M116,23.3c-0.5,0.9-0.3,2.4-0.3,2.4s1.4-0.6,1.9-1.5s0.3-1.4-0.1-1.7C117,22.3,116.5,22.4,116,23.3z"/>
		<path class="st0" d="M117.4,26.5c-0.3,1,0.3,2.4,0.3,2.4s1.2-0.9,1.5-1.9s0-1.5-0.5-1.6S117.7,25.6,117.4,26.5z"/>
		<path class="st0" d="M119.2,29.8c-0.1,1,0.7,2.3,0.7,2.3s1.1-1.1,1.1-2.1s-0.3-1.5-0.8-1.5C119.7,28.5,119.3,28.8,119.2,29.8z"/>
		<path class="st0" d="M121.5,32.9c-0.1,1,0.7,2.3,0.7,2.3s1.1-1.1,1.1-2.1c0.1-1-0.3-1.5-0.8-1.5C122.1,31.5,121.6,31.9,121.5,32.9
			z"/>
		<path class="st0" d="M124,35.8c-0.1,1,0.7,2.3,0.7,2.3s1.1-1.1,1.1-2.1c0.1-1-0.3-1.5-0.8-1.5C124.5,34.4,124.1,34.8,124,35.8z"/>
		<path class="st0" d="M126.3,38.6c-0.1,1,0.7,2.3,0.7,2.3s1.1-1.1,1.1-2.1c0.1-1-0.3-1.5-0.8-1.5C126.8,37.2,126.4,37.6,126.3,38.6
			z"/>
		<path class="st0" d="M129.1,42.4c-0.3,1,0.1,2.4,0.1,2.4s1.3-0.8,1.6-1.8c0.3-1,0.1-1.5-0.4-1.7S129.4,41.4,129.1,42.4z"/>
		<path class="st0" d="M130.6,46.2c-0.3,1,0.1,2.4,0.1,2.4s1.3-0.8,1.6-1.8s0.1-1.5-0.4-1.7C131.5,45,130.9,45.3,130.6,46.2z"/>
		<path class="st0" d="M109.5,17.9c1,0.4,2.5-0.1,2.5-0.1s-0.8-1.3-1.8-1.7c-1-0.4-1.5-0.1-1.7,0.4C108.2,17,108.5,17.5,109.5,17.9z
			"/>
		<path class="st0" d="M111.3,22c0.8,0.1,1.5,0,2.2-0.3c-0.5-0.6-1.1-1.1-1.8-1.4c-0.9-0.3-1.4,0-1.5,0.5
			C110.1,21.3,110.4,21.8,111.3,22z"/>
		<path class="st0" d="M112.9,25.8c1-0.1,2.2-1.1,2.2-1.1s-1.3-0.9-2.3-0.8c-1,0.1-1.4,0.5-1.4,1C111.5,25.5,111.9,25.9,112.9,25.8z
			"/>
		<path class="st0" d="M114.6,28.6c1-0.1,2.2-1.1,2.2-1.1s-1.3-0.9-2.3-0.8c-1,0.1-1.4,0.5-1.4,1C113.1,28.3,113.6,28.7,114.6,28.6z
			"/>
		<path class="st0" d="M116.5,31.5c1,0,2.3-0.9,2.3-0.9s-1.2-1-2.2-1c-1,0-1.4,0.4-1.4,0.9C115.1,31,115.5,31.5,116.5,31.5z"/>
		<path class="st0" d="M118.6,34.5c1,0,2.3-0.9,2.3-0.9s-1.2-1-2.3-1c-1,0-1.4,0.4-1.4,0.9C117.2,34,117.6,34.4,118.6,34.5z"/>
		<path class="st0" d="M120.9,37.4c1,0,2.3-0.9,2.3-0.9s-1.2-1-2.2-1s-1.4,0.4-1.4,0.9C119.5,36.9,119.9,37.4,120.9,37.4z"/>
		<path class="st0" d="M123.3,40.3c1-0.3,1.9-1.6,1.9-1.6s-1.5-0.5-2.4-0.2s-1.2,0.9-1,1.4C121.8,40.4,122.3,40.6,123.3,40.3z"/>
		<path class="st0" d="M125.5,42.9c1,0.1,2.3-0.8,2.3-0.8s-1.1-1-2.2-1.1c-1-0.1-1.5,0.3-1.5,0.8C124.1,42.3,124.5,42.8,125.5,42.9z
			"/>
		<path class="st0" d="M127.4,46.6c1,0.1,2.3-0.8,2.3-0.8s-1.1-1-2.2-1.1s-1.5,0.3-1.5,0.8C126,46,126.4,46.5,127.4,46.6z"/>
		<path class="st0" d="M128.8,50.2c0.9,0.4,2.5,0,2.5,0s-0.8-1.4-1.7-1.7c-0.9-0.4-1.5-0.1-1.7,0.3
			C127.6,49.3,127.8,49.8,128.8,50.2z"/>
		
			<linearGradient id="SVGID_1_" gradientUnits="userSpaceOnUse" x1="-4651.4194" y1="1566.447" x2="-4635.8936" y2="1566.447" gradientTransform="matrix(-0.98 -0.19 0.19 -0.98 -4726.1792 679.132)">
			<stop  offset="0" style="stop-color:#CFECFF"/>
			<stop  offset="1" style="stop-color:#F6FCFF"/>
		</linearGradient>
		<path class="st1" d="M121.3,42c0,0,4.5-3.1,5.3-5.5c1.2-3.6,1.8-4.2,3.9-5.7c2-1.6,1.8-5.5-1.3-5.5c-3.1,0-1.7-4.6-1.1-7.6
			s-3.3-8.9-5.6-6c-2.3,2.9,0,4.4-2.1,6.3s-4,3-2.9,6.9s1.4,12.6,1.4,12.6L121.3,42z"/>
		<path class="st0" d="M129.5,27.8c-1.6,1.4-3.5,2.6-5.5,3.4c0.6-5.3,0.7-10.7,0.5-16.1c0-0.1,0-0.2-0.1-0.2c-0.1,0-0.2,0-0.2,0.1
			c0,0,0,0,0,0.1c0,0.1,0.6,10.7-0.9,18.7c-2-1.8-3.6-4-4.3-6.6c0-0.1-0.1-0.1-0.2-0.1c-0.1,0-0.1,0.1-0.1,0.2c0,0,0,0,0,0
			c0.8,2.7,2.4,5.1,4.6,6.9c-0.3,1.4-0.6,2.8-1.1,4.2c0,0.1,0,0.2,0.1,0.2c0,0,0.1,0,0.1,0c0,0,0.1,0,0.1-0.1
			c0.8-2.2,1.3-4.5,1.6-6.9c2.1-0.9,4-2.1,5.7-3.6c0.1-0.1,0.1-0.2,0-0.2c0,0,0,0,0,0C129.7,27.7,129.6,27.7,129.5,27.8z"/>
		<path class="st0" d="M130.7,42.7c3.9-11.8,10.1-22.9,15.7-28l0.2,0.2C141,20,134.9,30.9,131,42.7L130.7,42.7z"/>
		<path class="st0" d="M147.4,12.6c-0.8,0.8-1,2.4-1,2.4s1.7-0.2,2.5-0.9s0.8-1.4,0.4-1.8C148.8,11.8,148.2,11.8,147.4,12.6z"/>
		<path class="st0" d="M145.5,16.9c-1.1,0.2-2.3,1.4-2.3,1.4s1.5,0.8,2.6,0.7c1.1-0.2,1.5-0.7,1.4-1.3S146.6,16.8,145.5,16.9z"/>
		<path class="st0" d="M142.9,20.7c-1.2,0.2-2.5,1.5-2.5,1.5s1.6,0.9,2.9,0.7c1.2-0.2,1.6-0.8,1.5-1.4
			C144.7,20.9,144.1,20.5,142.9,20.7z"/>
		<path class="st0" d="M141.1,24.3c-1.1,0-2.6,1.1-2.6,1.1s1.4,1.1,2.6,1s1.6-0.5,1.6-1.1C142.8,24.7,142.3,24.3,141.1,24.3z"/>
		<path class="st0" d="M138.7,27.5c-1.1,0.3-2.2,1.7-2.2,1.7s1.6,0.7,2.8,0.4s1.5-0.9,1.3-1.5S139.9,27.2,138.7,27.5z"/>
		<path class="st0" d="M136.5,31.2c-1.1,0.5-1.9,2-1.9,2s1.7,0.4,2.8-0.1c1.1-0.5,1.3-1.1,1-1.7C138.2,31,137.6,30.7,136.5,31.2z"/>
		<path class="st0" d="M134.8,35.2c-1.1,0.5-1.9,2-1.9,2s1.7,0.4,2.8-0.1c1.1-0.5,1.3-1.1,1-1.7C136.4,35,135.8,34.8,134.8,35.2z"/>
		<path class="st0" d="M133.3,39.3c-1.1,0.5-1.9,2-1.9,2s1.7,0.4,2.8-0.1c1.1-0.5,1.3-1.1,1-1.7C134.9,39.1,134.3,38.9,133.3,39.3z"
			/>
		<path class="st0" d="M142.9,14.7c0.2,1.1,1.5,2.4,1.5,2.4s0.9-1.6,0.7-2.7c-0.2-1.2-0.7-1.6-1.3-1.5
			C143.1,13,142.7,13.5,142.9,14.7z"/>
		<path class="st0" d="M139.8,18.9c0.3,1,1.6,2.1,1.6,2.1s0.7-1.5,0.4-2.6c-0.3-1-0.8-1.4-1.4-1.2C139.8,17.3,139.5,17.8,139.8,18.9
			z"/>
		<path class="st0" d="M136.9,22.7c0.6,1,2.3,1.6,2.3,1.6s0.1-1.8-0.5-2.8s-1.3-1.1-1.8-0.8C136.4,21,136.2,21.7,136.9,22.7z"/>
		<path class="st0" d="M135.1,25.9c0.6,1,2.3,1.6,2.3,1.6s0.1-1.8-0.5-2.8c-0.6-1-1.3-1.1-1.8-0.8C134.6,24.3,134.4,24.9,135.1,25.9
			z"/>
		<path class="st0" d="M133.3,29.5c0.6,1,2.2,1.7,2.2,1.7s0.3-1.8-0.3-2.8s-1.2-1.2-1.7-0.9S132.8,28.4,133.3,29.5z"/>
		<path class="st0" d="M131.5,33.2c0.6,1,2.2,1.7,2.2,1.7s0.3-1.8-0.3-2.8c-0.6-1-1.2-1.2-1.7-0.9C131.2,31.5,131,32.2,131.5,33.2z"
			/>
		
			<linearGradient id="SVGID_2_" gradientUnits="userSpaceOnUse" x1="398.7494" y1="598.3444" x2="423.7608" y2="598.7672" gradientTransform="matrix(-3.000000e-02 1 1 3.000000e-02 -444.9398 -392.4267)">
			<stop  offset="0" style="stop-color:#CFECFF"/>
			<stop  offset="1" style="stop-color:#F6FCFF"/>
		</linearGradient>
		<path class="st2" d="M135.1,47.4c0,0,6.2-0.1,8.1-2.7c1.9-2.7-0.6-4.9,2.6-4.9s6-0.3,5.8-3.9c-0.2-3.6-0.4-4.5,2-5.4
			s5.4-1.9,3.2-4.3c-2.1-2.4-8.5-1.8-12.3-0.1c-3.8,1.8-5.6,5.4-7.7,5.9c-2.1,0.5-2.6,0.4-3.8-1.6c-1.2-2.1-5-1.2-6.7,4.3
			c-1.8,5.5-0.3,12.7-0.3,12.7L135.1,47.4z"/>
		<path class="st0" d="M130.2,47.2c0,0,1.4-4.3,5.8-9.9h0c2.3-1,9.3-1.1,9.4-1.1c0.1,0,0.1-0.1,0.1-0.1c0-0.1-0.1-0.1-0.1-0.1
			c-0.3,0-6.6,0.1-9.1,1l0.1-0.1c4.7-5.8,14.1-8.7,14.2-8.7c0.1,0,0.1-0.1,0.1-0.1c0,0,0,0,0,0c0-0.1-0.1-0.1-0.1-0.1c0,0,0,0,0,0
			c-0.1,0-9.6,2.9-14.3,8.8c-1.1,1.4-2.2,2.8-3.1,4.3c-1.6-1.8-1-5-0.9-5.1c0-0.1,0-0.1-0.1-0.1c-0.1,0-0.1,0-0.1,0.1
			c-0.1,0.4-0.1,0.9-0.1,1.3c0,1.1,0.1,2.9,1.2,4c-1.2,1.8-2.2,3.8-3,5.9c0,0,0,0,0,0c0,0.1,0,0.1,0.1,0.1
			C130.2,47.3,130.2,47.3,130.2,47.2z"/>
	</g>
	<g id="Signup-Done">
		
			<linearGradient id="SVGID_3_" gradientUnits="userSpaceOnUse" x1="74.171" y1="271.878" x2="164.6224" y2="153.7637" gradientTransform="matrix(1 0 0 -1 0 279.8898)">
			<stop  offset="0" style="stop-color:#D6E9FF"/>
			<stop  offset="1" style="stop-color:#DAEBFF"/>
			<stop  offset="1" style="stop-color:#E8F2FF"/>
		</linearGradient>
		<path class="st3" d="M149.6,47.6L42.4,3.9c-1-0.5-2.1-0.5-3.1-0.1l-5.6,2.3v9.6l113.2,111l5.7-2.3l0,0c1.5-0.5,2.6-2.1,2.6-4.4
			V56.3C155.1,52.7,152.6,48.9,149.6,47.6z"/>
		
			<linearGradient id="SVGID_4_" gradientUnits="userSpaceOnUse" x1="74.171" y1="271.878" x2="164.6224" y2="153.7637" gradientTransform="matrix(1 0 0 -1 0 279.8898)">
			<stop  offset="0" style="stop-color:#93C3FF;stop-opacity:0"/>
			<stop  offset="0.37" style="stop-color:#93C3FF;stop-opacity:0"/>
			<stop  offset="0.59" style="stop-color:#93C3FF"/>
			<stop  offset="1" style="stop-color:#DAEBFF"/>
			<stop  offset="1" style="stop-color:#DCEBFF"/>
		</linearGradient>
		<path class="st4" d="M149.6,47.6L42.4,3.9c-1-0.5-2.1-0.5-3.1-0.1l-5.6,2.3v9.6l113.2,111l5.7-2.3l0,0c1.5-0.5,2.6-2.1,2.6-4.4
			V56.3C155.1,52.7,152.6,48.9,149.6,47.6z"/>
		<polygon class="st5" points="39.1,9.6 38,81.1 143.8,123.3 144.3,52.3 		"/>
		
			<linearGradient id="SVGID_5_" gradientUnits="userSpaceOnUse" x1="146.8901" y1="161.734" x2="54.0101" y2="247.5054" gradientTransform="matrix(1 0 0 -1 0 279.8898)">
			<stop  offset="0" style="stop-color:#FFFFFF;stop-opacity:0.4"/>
			<stop  offset="1" style="stop-color:#FFFFFF;stop-opacity:0"/>
		</linearGradient>
		<polygon class="st6" points="39.1,9.6 38,81.1 143.8,123.3 144.3,52.3 		"/>
		
			<linearGradient id="SVGID_6_" gradientUnits="userSpaceOnUse" x1="37.7272" y1="267.0513" x2="142.7101" y2="160.297" gradientTransform="matrix(1 0 0 -1 0 279.8898)">
			<stop  offset="0" style="stop-color:#E5F2FF"/>
			<stop  offset="1" style="stop-color:#F2F9FF"/>
		</linearGradient>
		<path class="st7" d="M144,49.9L36.7,6.2c-3-1.2-5.4,0.7-5.4,4.2v63.7c0,3.6,2.4,7.4,5.4,8.7L144,126.5c3,1.2,5.4-0.7,5.4-4.2V58.6
			C149.4,55,147,51.1,144,49.9z M141.7,115.4c0,3.6-2.4,5.5-5.4,4.2L46.3,83c-3-1.2-5.4-5.1-5.4-8.7V18c0-3.6,2.4-5.5,5.4-4.2
			l90,36.7c3,1.2,5.4,5.1,5.4,8.7L141.7,115.4z"/>
		
			<linearGradient id="SVGID_7_" gradientUnits="userSpaceOnUse" x1="35.6379" y1="234.0369" x2="36.8722" y2="228.3569" gradientTransform="matrix(1 0 0 -1 -1.095420e-02 279.884)">
			<stop  offset="0" style="stop-color:#70AEFB"/>
			<stop  offset="1" style="stop-color:#C1DFFF"/>
		</linearGradient>
		<path class="st8" d="M34.7,45.5c1-0.5,2.5,0.3,3.3,1.8c0.8,1.5,0.6,3.2-0.4,3.8c-1,0.5-2.5-0.3-3.3-1.8
			C33.5,47.7,33.7,46.1,34.7,45.5z"/>
		
			<linearGradient id="SVGID_8_" gradientUnits="userSpaceOnUse" x1="144.7571" y1="177.8098" x2="144.7571" y2="200.5183" gradientTransform="matrix(1 0 0 -1 0 279.8898)">
			<stop  offset="0" style="stop-color:#6DB2F9"/>
			<stop  offset="1" style="stop-color:#2F82E7"/>
		</linearGradient>
		<path class="st9" d="M144.8,98.8L144.8,98.8c-0.3-0.2-0.5-0.5-0.5-0.8V78.7c0-0.3,0.2-0.5,0.5-0.4l0,0c0.3,0.2,0.5,0.5,0.5,0.8
			v19.3C145.3,98.7,145,98.9,144.8,98.8z"/>
		<path class="st10" d="M65.6,51.4l0.1,4.4l-1.2,0.7L64,56l-0.1-6.7L65.6,51.4z M64.1,63.9L64,57.2l0.4-0.3l1.3,1.7l0.1,4.5
			L64.1,63.9z M72.8,52.7l-1.3,0.7L66,51.3L64.3,49l8.2,3.1L72.8,52.7z M72.6,67.7l-8.1-3.2l1.7-0.9l5.5,2.2l1.3,1.7L72.6,67.7z
			 M72,59.7l-0.8,0.5l-5.3-2.1L65,57l0.9-0.5l5.3,2.1L72,59.7z"/>
		<path class="st10" d="M75.4,54l1.3,1.7l0.1,4.5l-1.2,0.7L75,60.3l-0.1-6L75.4,54z M75.1,68.3L75,61.5l0.4-0.3l1.3,1.7l0.1,5.2
			l-1.2,0.7L75.1,68.3z M83.1,56.6l-1.3,0.7l-4.8-1.8l-1.3-1.7l0.4-0.2l6.5,2.5L83.1,56.6z M83,64l-0.8,0.5l-5.3-2.1L76,61.3
			l0.9-0.5l5.3,2.1L83,64z M84.1,72.2l-1.7-1.1L79,64.2l1.1-0.1l0.6,0.5l3.6,7.1L84.1,72.2z M83.9,57.7l0.1,6.1l-0.5,0.3l-1.3-1.8
			l-0.1-4.5l1.2-0.7L83.9,57.7z"/>
		<path class="st10" d="M86.6,58.3l1.3,1.7l0.1,4.5l-1.2,0.7l-0.5-0.6l-0.1-6.1L86.6,58.3z M86.4,72.7l-0.1-6.9l0.5-0.3l1.3,1.7
			l0.1,5.3l-1.2,0.7L86.4,72.7z M94.4,61l-1.3,0.7l-4.8-1.8L87,58.2l0.4-0.2l6.5,2.5L94.4,61z M94.3,68.4l-0.8,0.5l-5.3-2.1
			l-0.9-1.1l0.9-0.5l5.3,2L94.3,68.4z M95.4,76.7l-1.7-1.1l-3.4-7l1.1-0.1L92,69l3.6,7.2L95.4,76.7z M95.2,62l0.1,6.1l-0.4,0.3
			l-1.3-1.7l-0.1-4.5l1.2-0.7L95.2,62z"/>
		<path class="st10" d="M97.9,62.7l1.3,1.7l0.1,4.5L98,69.7L97.6,69l-0.1-6.1L97.9,62.7z M97.7,76.5l-0.1-6.2L98,70l1.3,1.8l0.1,4.6
			L98.1,77L97.7,76.5z M105.7,65.3l-1.3,0.7l-4.8-1.8l-1.3-1.7l0.4-0.2l6.5,2.5L105.7,65.3z M105.5,80.6l-6.5-2.6l-0.4-0.6l1.3-0.7
			l4.8,1.9l1.3,1.7L105.5,80.6z M106.5,66.4l0.1,6.2l-0.5,0.3l-1.3-1.7l-0.1-4.5l1.2-0.7L106.5,66.4z M106.2,80.2l-1.3-1.7l-0.1-4.6
			l1.2-0.8l0.5,0.6l0.1,6.2L106.2,80.2z"/>
		<path class="st10" d="M109,66.9l1.3,1.7l0.1,4.6l-1.2,0.8l-0.5-0.6l-0.1-6.2L109,66.9z M108.7,81.6l-0.1-7l0.5-0.3l1.3,1.8
			l0.1,5.3l-1.2,0.7L108.7,81.6z M116.7,69.6l-1.3,0.7l-4.8-1.8l-1.3-1.7l0.4-0.2l6.5,2.5L116.7,69.6z M116.7,77.1l-0.8,0.5
			l-5.3-2.1l-0.9-1.1l0.9-0.5l5.3,2L116.7,77.1z M117.8,85.5l-1.7-1.1l-3.4-7l1.1-0.1l0.6,0.5L118,85L117.8,85.5z M117.6,70.6
			l0.1,6.2l-0.4,0.3l-1.3-1.7l-0.1-4.6l1.2-0.7L117.6,70.6z"/>
	</g>
	<g id="Layer_17">
		<rect y="0" class="st11" width="160" height="160"/>
		<g id="person">
			<path class="st12" d="M39.9,140.7c1,0.6,2.1,1,3.2,1.3c1.5,0.3,1.3,1.2,0.2,1.3c-1.2,0.1-6.2,0.4-6.2-0.9c0-0.7,0.3-1.4,0.8-1.9
				L39.9,140.7z"/>
			<path class="st12" d="M26.7,140.3c1.1,0.6,2.2,1,3.4,1.3c1.5,0.3,1.4,1.3,0.2,1.3c-1.2,0.1-6.4,0.5-6.4-0.9c0-0.7,0.3-1.5,0.8-2
				L26.7,140.3z"/>
			<path class="st13" d="M25.1,102.2l-1,38.1c1,0.3,2,0.3,3,0l8.9-36.8L25.1,102.2"/>
			<path class="st14" d="M38.6,102.4c0,0,1.6,17.1,1.8,38.3c0,0-1.8,0.9-3.3,0.6c0,0-9.7-39.1-8.2-39.6L38.6,102.4z"/>
			<path class="st15" d="M35.4,72.7c0.1,0,3.8,5.1-0.8,6.8v1.7L30.6,81l0.6-2.3l0.4-4.4L35.4,72.7z"/>
			<path class="st16" d="M29.7,80.8c-1.3,0-2.5,0.4-3.6,1.1c-1.5,1.3-8.1,8.3-8.1,10.1c-0.1,1.8,7.1,10.1,7.1,10.1l1.7-3.1
				c0,0-4-5.6-4-6.6c0-1,4-4.1,4.9-4.2C28.7,88.1,29.7,80.8,29.7,80.8"/>
			
				<linearGradient id="SVGID_9_" gradientUnits="userSpaceOnUse" x1="26.84" y1="182.7212" x2="23.0971" y2="182.7212" gradientTransform="matrix(1 0 0 -1 0 279.8898)">
				<stop  offset="0" style="stop-color:#133E90;stop-opacity:0.4"/>
				<stop  offset="1" style="stop-color:#133E90;stop-opacity:0"/>
			</linearGradient>
			<path class="st17" d="M18,92.1c-0.1,1.8,7.1,10.1,7.1,10.1l1.7-3.1c0,0-4-5.6-4-6.6c0-0.1,0.1-0.3,0.2-0.4L18,92.1z"/>
			<path class="st18" d="M30.9,79.1c0,0-4.2-2.5-2.3-6s3.9-3.2,4.5-3.2s0.6,0.3,1.9-0.3c1.2-0.5,2.1,0,2.3,0.5
				c0.2,0.5,0.3,2.1-1.3,2.3c-0.3,0.4-0.5,1-0.5,1.5c0,1-1.1,1.2-1.8,1c-0.4-0.1-1-0.4-1.3-0.1c-0.4,0.4-0.5,1.2,0.6,2.3
				c0.1,0.1,0.1,0.3,0,0.4C32.6,78.1,31.3,79.4,30.9,79.1z"/>
			<path class="st15" d="M34.9,72.2c0,0-0.9-0.9-1.7-0.4C32.4,72.3,34,73,34.6,73L34.9,72.2z"/>
			<path class="st16" d="M29.7,80.8l-3.1,8.1l-1.5,13.3c0,0.2,0.1,0.4,0.3,0.5c1.6,0.4,8,1.7,12.9,0.5c0.2,0,0.3-0.2,0.3-0.4v-15
				c0,0,9.9-6.6,9.9-9.8c0-1.2-1.6-3.2-13.7-5.9c0,0,0,0-0.1,0l-0.7,1c0,0,0,0,0,0c0,0,0,0,0,0c0.6,0.2,7.9,3,8.1,4
				c0.1,0.8-4.3,2.7-6.1,3.4c-0.5,0.2-1,0.3-1.5,0.3L29.7,80.8z"/>
			<path class="st18" d="M34.7,82.7c-0.3,1.3-0.9,1.3-1.7,2.9s-3.8,2.4-5.1,2.2c-1.3-0.2-2-1.2-3.3-1.7s-1.5-1-2-2.1
				c-0.9-1.9,1.3-2.2,0.9-4.3c-0.4-2.1,1.2-2.5,2.2-3.3c1-0.8,1-2.2,0.9-3.4c0-1.4,0.9-2.7,2.2-3.3c1.7-0.5,3.4-0.5,5.1,0
				c-0.4,0.1-2.4,5.7-2.4,5.7c0.4,0.3,1,2.5,1.3,2c0-0.1,0.1-0.1,0-0.2c0.1,0.3,0.1,0.5,0.1,0.8c-0.1,0.8-0.3,1.1,0.3,1.8
				S35,81.3,34.7,82.7z"/>
			
				<linearGradient id="SVGID_10_" gradientUnits="userSpaceOnUse" x1="42.7827" y1="191.804" x2="40.1599" y2="196.8497" gradientTransform="matrix(1 0 0 -1 0 279.8898)">
				<stop  offset="0" style="stop-color:#133E90;stop-opacity:0.4"/>
				<stop  offset="1" style="stop-color:#133E90;stop-opacity:0"/>
			</linearGradient>
			<path class="st19" d="M48.5,77.9c0-1.2-1.6-3.2-13.8-5.9l-0.7,1.1c0,0,8,3,8.1,4c0.1,0.8-4.3,2.7-6.1,3.4c-0.5,0.2-1,0.3-1.5,0.3
				h-4.9l-0.8,2.1l9.7,4.8C39.3,87.2,48.5,81,48.5,77.9z"/>
			
				<linearGradient id="SVGID_11_" gradientUnits="userSpaceOnUse" x1="42.1886" y1="187.1976" x2="35.16" y2="186.8318" gradientTransform="matrix(1 0 0 -1 0 279.8898)">
				<stop  offset="0" style="stop-color:#133E90;stop-opacity:0.4"/>
				<stop  offset="1" style="stop-color:#133E90;stop-opacity:0"/>
			</linearGradient>
			<path class="st20" d="M26.5,88.9l-1.5,13.3c0,0.2,0.1,0.4,0.3,0.5c1.6,0.4,8,1.7,12.9,0.5c0.2,0,0.3-0.2,0.3-0.4v-15l0,0
				l-9.7-4.8L26.5,88.9z"/>
		</g>
		
			<linearGradient id="SVGID_12_" gradientUnits="userSpaceOnUse" x1="-1612.9564" y1="177.5609" x2="-1633.1849" y2="182.0009" gradientTransform="matrix(1 0 0 -1 1682.83 279.8898)">
			<stop  offset="0" style="stop-color:#6DB2F9"/>
			<stop  offset="1" style="stop-color:#2F82E7"/>
		</linearGradient>
		<path class="st21" d="M60.2,90.7l-11.6,6.5c-0.7,0.4-0.9,1.2-0.5,1.9c0,0,0,0.1,0.1,0.1l5.9,9.1c0.4,0.6,1.2,0.8,1.8,0.4
			c0,0,0,0,0,0l13.1-8.6l-7.5-9.1C61.1,90.5,60.6,90.4,60.2,90.7z"/>
		
			<linearGradient id="SVGID_13_" gradientUnits="userSpaceOnUse" x1="-1634.9944" y1="180.4356" x2="-1613.9099" y2="180.4356" gradientTransform="matrix(1 0 0 -1 1682.83 279.8898)">
			<stop  offset="0" style="stop-color:#70AEFB"/>
			<stop  offset="1" style="stop-color:#C1DFFF"/>
		</linearGradient>
		<path class="st22" d="M60.2,90.4l-11.6,6.5c-0.7,0.4-0.9,1.2-0.5,1.9c0,0,0,0,0,0.1L54,108c0.4,0.6,1.2,0.8,1.8,0.4c0,0,0,0,0,0
			l13.1-8.6l-7.5-9.1C61.1,90.3,60.6,90.2,60.2,90.4z"/>
		
			<linearGradient id="SVGID_14_" gradientUnits="userSpaceOnUse" x1="-1634.3671" y1="180.4351" x2="-1614.7271" y2="180.4351" gradientTransform="matrix(1 0 0 -1 1682.83 279.8898)">
			<stop  offset="0" style="stop-color:#E5F2FF"/>
			<stop  offset="1" style="stop-color:#F2F9FF"/>
		</linearGradient>
		<path class="st23" d="M60.3,90.9l-11.4,6.4c-0.4,0.2-0.6,0.8-0.3,1.2c0,0,0,0,0,0.1l5.9,9.1c0.3,0.4,0.8,0.5,1.1,0.2l12.4-8.2
			L61,91.1C60.8,90.9,60.5,90.8,60.3,90.9z"/>
		<path class="st15" d="M67.2,85.7c-0.2,1.6-0.3,3.2-0.3,4.8c0.1,1.9,1.3,2.2,2.5,2.4l0.4,4l3.7-1c0,0,0.4-7.5,0.2-9
			C73.4,85.5,67.2,85.7,67.2,85.7z"/>
		<path class="st18" d="M67.8,87.3c-0.3-0.6-0.7-1.1-1.3-1.6c-0.8-0.6-0.5-1.4,0.9-2c2-0.7,4.2-0.8,6.3-0.2c2,0.7,2.5,2.8,2.6,3.7
			s-1,1.7-1.3,2.5s-0.4,2.5-1.1,2.7s-2.7,0.5-3.2,0c-0.4-0.6-0.7-1.2-0.9-1.9c0,0,0.6-0.9,0.3-1.3c-0.4-0.4-1.4-0.3-1.5,0.2
			c-0.1,0.5,0.9,2.8,0.4,3.7c-0.5,0.9-2.1-0.1-2.1-0.6c0-0.5,0.8-0.6,1-1.4C68.1,90.5,68.3,88.4,67.8,87.3z"/>
		<path class="st15" d="M68.6,97.1c0,0-1.1-2.1-2.2-2.7c-1.1-0.6-2.2-0.3-2.3,0.1c-0.1,0.4,3.6,3,3.6,3L68.6,97.1z"/>
		<path class="st15" d="M60.3,106.1l-0.5,1.4l-6.4-3.8c0,0-0.6-2.7-1.1-2.6c-0.5,0.1-0.3,1.4-0.3,1.4s-2-0.8-2.6-1.1
			c0,0-0.4,2.2,1,3c1.4,0.8,1.9,0.2,2.8,0.8c0.9,0.6,4.9,5.6,6.6,6c1.7,0.4,3.5-3.7,3.5-3.7L60.3,106.1z"/>
		<path class="st14" d="M62.8,121.1c0.1,5.1,0.5,10.1,1.1,15.1c1,7,2,12.3,2.1,13.8h4.6c0,0,1.5-12.3,1.6-18c0,0,6.5-6.2,7.1-13.6
			L64.4,113L62.8,121.1z"/>
		<path class="st13" d="M72.2,132.1c0,0,2.1,4.7,2.8,8.4c0.7,3.7,1,6.5,1,6.5h3.6c0.5-4.5,0.8-9,0.6-13.5
			c-0.3-6.6-0.9-15.1-0.9-15.1L72.2,132.1z"/>
		
			<linearGradient id="SVGID_15_" gradientUnits="userSpaceOnUse" x1="-67.2922" y1="148.6635" x2="-71.4522" y2="147.3378" gradientTransform="matrix(-1 0 0 -1 5.48 279.8898)">
			<stop  offset="0" style="stop-color:#133E91;stop-opacity:0.4"/>
			<stop  offset="1" style="stop-color:#133E91;stop-opacity:0"/>
		</linearGradient>
		<path class="st24" d="M72.2,132.1c0,0,2.1,4.7,2.8,8.4c0.7,3.7,1,6.5,1,6.5h3.6c0.5-4.5,0.8-9,0.6-13.5
			c-0.3-6.6-0.9-15.1-0.9-15.1L72.2,132.1z"/>
		<polygon class="st15" points="67.1,150 67.4,155.1 69.2,155.1 69.7,150 		"/>
		<path class="st12" d="M67.4,155.1c-1,0.4-2.1,0.8-3.2,1c-1.4,0.2-1.4,1-0.3,1.2c1.1,0.1,5.8,0.9,5.9-0.4c0.1-0.7-0.2-1.4-0.6-1.9
			L67.4,155.1z"/>
		<polygon class="st15" points="76.7,146.8 77,151.1 78.6,151.1 79,146.8 		"/>
		<path class="st12" d="M77,151.1c-0.9,0.4-1.8,0.7-2.7,0.8c-1.2,0.2-1.1,0.9-0.2,1c0.9,0.1,4.9,0.7,5-0.3c0.1-0.6-0.1-1.1-0.5-1.6
			L77,151.1z"/>
		<path class="st16" d="M71.1,94.6c1.4-0.3,5.5-0.9,7.4-0.3c1.9,0.6,4,2.4,3.5,5.9s-2.8,4.9-3.5,7.7c-0.8,2.8-0.5,3.2,0.3,5.4
			c0.8,2.2,1,4.9,0.5,5.2c-0.4,0.3-8,3.7-11.2,3.1c-3.2-0.6-3.1-4.9-3.7-4.9s-1.1,4.3-1.6,4.3c-0.4,0,0.6-9.6,1-11.9l-4-3.2
			c0,0,1.1-5.9,5-8.4C68.7,95.1,69,95.1,71.1,94.6z"/>
		
			<linearGradient id="SVGID_16_" gradientUnits="userSpaceOnUse" x1="-56.5938" y1="168.9231" x2="-59.5881" y2="167.5059" gradientTransform="matrix(-1 0 0 -1 5.48 279.8898)">
			<stop  offset="0" style="stop-color:#133E91;stop-opacity:0.4"/>
			<stop  offset="1" style="stop-color:#133E91;stop-opacity:0"/>
		</linearGradient>
		<path class="st25" d="M68.1,121.6c-3.2-0.6-3.1-4.9-3.7-4.9c-0.6,0-1.1,4.3-1.6,4.3c-0.4,0,0.6-9.6,1-11.9l4.9-4.8
			C68.7,104.4,71.3,122.2,68.1,121.6z"/>
		<path class="st26" d="M14.1,43.1c6.7,0,12.1,5.4,12.1,12.1c0,3.7-1.7,7.2-4.5,9.5L23,70c0,0.2-0.1,0.4-0.3,0.5
			c-0.1,0-0.2,0-0.3-0.1l-4-3.7C12.1,69,5.1,65.8,2.8,59.5s0.8-13.3,7.1-15.6C11.3,43.4,12.7,43.1,14.1,43.1L14.1,43.1z"/>
		<path class="st10" d="M14.6,56.9c-0.1,0.2-0.3,0.3-0.5,0.3c-0.2,0-0.4-0.1-0.5-0.3c-0.1-0.3-0.2-0.6-0.2-0.8L13.2,53
			c0-0.3-0.1-0.6-0.1-0.8c0-0.4,0-0.7,0.2-1.1c0.1-0.3,0.4-0.4,0.7-0.4c0.3,0,0.5,0.1,0.7,0.3c0.2,0.2,0.3,0.5,0.3,0.8
			c0,0.3,0,0.7-0.1,1.3l-0.2,3C14.8,56.4,14.7,56.6,14.6,56.9z M13.5,59.9c-0.2-0.2-0.3-0.4-0.3-0.7c0-0.2,0.1-0.5,0.3-0.7
			c0.2-0.2,0.4-0.3,0.7-0.3c0.2,0,0.5,0.1,0.7,0.3c0.2,0.2,0.3,0.4,0.3,0.7c0,0.3-0.1,0.5-0.3,0.7c-0.2,0.2-0.4,0.2-0.7,0.2
			C13.9,60.2,13.6,60.1,13.5,59.9L13.5,59.9z"/>
		<path class="st26" d="M128.8,130.1H99.5v1l0,0c0.1,0.4,0.4,0.8,0.8,1l13,6.9c1,0.5,2.3,0.5,3.3-0.1l11.6-7.3
			c0.2-0.1,0.4-0.3,0.5-0.6h0.1L128.8,130.1z"/>
		<path class="st27" d="M113.4,138l-13-6.9c-1-0.5-1.1-1.4-0.2-1.9l11.6-7.3c1-0.5,2.3-0.6,3.3-0.1l13,6.9c1,0.5,1,1.4,0.2,1.9
			l-11.6,7.3C115.6,138.5,114.4,138.5,113.4,138z"/>
		
			<linearGradient id="SVGID_17_" gradientUnits="userSpaceOnUse" x1="105.9814" y1="159.2691" x2="122.3598" y2="159.2691" gradientTransform="matrix(1 0 0 -1 0 279.8898)">
			<stop  offset="0" style="stop-color:#FFD215"/>
			<stop  offset="0.55" style="stop-color:#FFDF00"/>
			<stop  offset="1" style="stop-color:#FFD215"/>
		</linearGradient>
		<path class="st28" d="M122.3,129l-6.2-19.4c-0.3-1.1-1.5-1.7-2.6-1.3c-0.6,0.2-1.1,0.7-1.3,1.3l-6.2,19.4
			c-0.7,2.1,3.6,4.1,8.1,4.1S123,131.2,122.3,129z"/>
		
			<linearGradient id="SVGID_18_" gradientUnits="userSpaceOnUse" x1="105.9814" y1="150.0755" x2="122.3598" y2="150.0755" gradientTransform="matrix(1 0 0 -1 0 279.8898)">
			<stop  offset="0" style="stop-color:#37475E;stop-opacity:0.8"/>
			<stop  offset="1" style="stop-color:#37475E"/>
		</linearGradient>
		<path class="st29" d="M122.3,129l-0.8-2.5c0.6,1.9-3.3,3.6-7.3,3.6s-7.9-1.7-7.3-3.6l-0.8,2.5c-0.7,2.1,3.6,4.1,8.1,4.1
			S123,131.2,122.3,129z"/>
		
			<linearGradient id="SVGID_19_" gradientUnits="userSpaceOnUse" x1="107.7333" y1="155.9041" x2="120.6277" y2="155.9041" gradientTransform="matrix(1 0 0 -1 0 279.8898)">
			<stop  offset="0" style="stop-color:#37475E;stop-opacity:0.8"/>
			<stop  offset="1" style="stop-color:#37475E"/>
		</linearGradient>
		<path class="st30" d="M120.6,123.6l-0.7-2.4c0.4,1.5-2.5,2.9-5.7,2.9s-6.1-1.3-5.7-2.9l-0.7,2.3c-0.5,1.7,2.9,3.2,6.4,3.2
			S121.1,125.3,120.6,123.6z"/>
		
			<linearGradient id="SVGID_20_" gradientUnits="userSpaceOnUse" x1="109.365" y1="161.2212" x2="119.0074" y2="161.2212" gradientTransform="matrix(1 0 0 -1 0 279.8898)">
			<stop  offset="0" style="stop-color:#37475E;stop-opacity:0.8"/>
			<stop  offset="1" style="stop-color:#37475E"/>
		</linearGradient>
		<path class="st31" d="M119,118.5l-0.6-2.1c0.3,1.1-1.8,2.1-4.1,2.1s-4.4-1-4.1-2.1l-0.7,2.1c-0.4,1.3,2.1,2.4,4.8,2.4
			S119.4,119.8,119,118.5z"/>
		
			<linearGradient id="SVGID_21_" gradientUnits="userSpaceOnUse" x1="110.8629" y1="166.0641" x2="117.5085" y2="166.0641" gradientTransform="matrix(1 0 0 -1 0 279.8898)">
			<stop  offset="0" style="stop-color:#37475E;stop-opacity:0.8"/>
			<stop  offset="1" style="stop-color:#37475E"/>
		</linearGradient>
		<path class="st32" d="M117.5,113.8l-0.5-1.7c0.2,0.8-1.1,1.5-2.8,1.5c-1.6,0-3-0.7-2.8-1.5l-0.5,1.7c-0.3,0.9,1.5,1.7,3.3,1.7
			S117.8,114.7,117.5,113.8z"/>
		<path class="st26" d="M154.3,145.1h-27.1v0.9l0,0c0.1,0.4,0.3,0.8,0.7,0.9l12.1,6.4c1,0.5,2.1,0.5,3.1,0l10.7-6.7
			c0.2-0.1,0.4-0.3,0.5-0.5h0.1V145.1z"/>
		<path class="st27" d="M140,152.5l-12.1-6.4c-0.9-0.5-1-1.3-0.2-1.8l10.7-6.7c0.9-0.5,2.1-0.5,3,0l12.1,6.4c0.9,0.5,1,1.3,0.2,1.8
			l-10.7,6.7C142.1,153,140.9,153,140,152.5z"/>
		
			<linearGradient id="SVGID_22_" gradientUnits="userSpaceOnUse" x1="133.1657" y1="143.4538" x2="148.3086" y2="143.4538" gradientTransform="matrix(1 0 0 -1 0 279.8898)">
			<stop  offset="0" style="stop-color:#FFD215"/>
			<stop  offset="0.55" style="stop-color:#FFDF00"/>
			<stop  offset="1" style="stop-color:#FFD215"/>
		</linearGradient>
		<path class="st33" d="M148.2,144.2l-5.7-17.9c-0.3-1-1.4-1.6-2.4-1.2c-0.6,0.2-1.1,0.7-1.2,1.2l-5.7,17.9c-0.6,2,3.4,3.8,7.5,3.8
			C144.9,148,148.9,146.2,148.2,144.2z"/>
		
			<linearGradient id="SVGID_23_" gradientUnits="userSpaceOnUse" x1="133.164" y1="134.9555" x2="148.3114" y2="134.9555" gradientTransform="matrix(1 0 0 -1 0 279.8898)">
			<stop  offset="0" style="stop-color:#37475E;stop-opacity:0.8"/>
			<stop  offset="1" style="stop-color:#37475E"/>
		</linearGradient>
		<path class="st34" d="M148.2,144.2l-0.7-2.3c0.5,1.8-3.1,3.4-6.8,3.4c-3.7,0-7.3-1.6-6.8-3.4l-0.7,2.3c-0.6,2,3.4,3.8,7.5,3.8
			C144.9,148,148.9,146.2,148.2,144.2z"/>
		
			<linearGradient id="SVGID_24_" gradientUnits="userSpaceOnUse" x1="134.7771" y1="140.3298" x2="146.6971" y2="140.3298" gradientTransform="matrix(1 0 0 -1 0 279.8898)">
			<stop  offset="0" style="stop-color:#37475E;stop-opacity:0.8"/>
			<stop  offset="1" style="stop-color:#37475E"/>
		</linearGradient>
		<path class="st35" d="M146.6,139.2L146,137c0.4,1.4-2.3,2.7-5.2,2.7c-2.9,0-5.6-1.2-5.2-2.6l-0.6,2.2c-0.5,1.6,2.6,3,5.9,3
			C144,142.1,147.1,140.7,146.6,139.2z"/>
		
			<linearGradient id="SVGID_25_" gradientUnits="userSpaceOnUse" x1="136.2765" y1="145.2412" x2="145.1841" y2="145.2412" gradientTransform="matrix(1 0 0 -1 0 279.8898)">
			<stop  offset="0" style="stop-color:#37475E;stop-opacity:0.8"/>
			<stop  offset="1" style="stop-color:#37475E"/>
		</linearGradient>
		<path class="st36" d="M145.1,134.5l-0.6-1.9c0.3,1-1.6,2-3.8,2s-4.1-0.9-3.8-2l-0.6,1.9c-0.4,1.1,2,2.2,4.4,2.2
			S145.5,135.7,145.1,134.5z"/>
		
			<linearGradient id="SVGID_26_" gradientUnits="userSpaceOnUse" x1="137.6644" y1="149.7412" x2="143.8099" y2="149.7412" gradientTransform="matrix(1 0 0 -1 0 279.8898)">
			<stop  offset="0" style="stop-color:#37475E;stop-opacity:0.8"/>
			<stop  offset="1" style="stop-color:#37475E"/>
		</linearGradient>
		<path class="st37" d="M143.8,130.2l-0.5-1.5c0.2,0.7-1.1,1.4-2.6,1.4s-2.8-0.6-2.6-1.4l-0.5,1.6c-0.3,0.8,1.4,1.5,3,1.5
			S144,131,143.8,130.2z"/>
	</g>
</g>
</svg>
