<?xml version="1.0" encoding="utf-8"?>
<!-- Generator: Adobe Illustrator 24.2.3, SVG Export Plug-In . SVG Version: 6.00 Build 0)  -->
<svg version="1.1" id="Layer_1" xmlns="http://www.w3.org/2000/svg" xmlns:xlink="http://www.w3.org/1999/xlink" x="0px" y="0px"
	 viewBox="0 0 160 160" style="enable-background:new 0 0 160 160;" xml:space="preserve">
<style type="text/css">
	.st0{fill:none;}
	.st1{fill:url(#SVGID_1_);}
	.st2{fill:#6DB3FA;}
	.st3{fill:url(#SVGID_2_);}
	.st4{fill:#FEC6BD;}
	.st5{fill:url(#SVGID_3_);}
	.st6{fill:#37475E;}
	.st7{fill:#FFE100;}
	.st8{fill:#ECCF00;}
	.st9{fill:url(#SVGID_4_);}
	.st10{fill:url(#SVGID_5_);}
	.st11{fill:url(#SVGID_6_);}
	.st12{fill:url(#SVGID_7_);}
	.st13{fill:#EEA19D;}
	.st14{fill:#669CE9;}
	.st15{fill:#ACD4F7;}
	.st16{fill:#D4E7FF;}
	.st17{fill:#255299;}
	.st18{fill:#FFFFFF;}
</style>
<g id="Wallet-Send-Fail">
	<rect y="0" class="st0" width="160" height="160"/>
	
		<linearGradient id="SVGID_1_" gradientUnits="userSpaceOnUse" x1="52.679" y1="258.8036" x2="102.1818" y2="156.4893" gradientTransform="matrix(1 0 0 -1 0 279.8898)">
		<stop  offset="0" style="stop-color:#EFF9FF"/>
		<stop  offset="1" style="stop-color:#ECF9FF;stop-opacity:0.2"/>
	</linearGradient>
	<circle class="st1" cx="80" cy="77.6" r="76.5"/>
	<path class="st2" d="M95.4,79.8c0,0,8.6,30.8,11.9,35.9s11.9,13,11.9,13l-6.3,8.6c0,0-14.9-7.5-24.3-20.5S95.4,79.8,95.4,79.8z"/>
	
		<linearGradient id="SVGID_2_" gradientUnits="userSpaceOnUse" x1="92.6072" y1="170.4601" x2="98.2072" y2="170.9058" gradientTransform="matrix(1 0 0 -1 0 279.8898)">
		<stop  offset="0" style="stop-color:#133E91;stop-opacity:0.4"/>
		<stop  offset="1" style="stop-color:#133E91;stop-opacity:0"/>
	</linearGradient>
	<path class="st3" d="M95.4,79.8c0,0,8.6,30.8,11.9,35.9s11.9,13,11.9,13l-6.3,8.6c0,0-14.9-7.5-24.3-20.5S95.4,79.8,95.4,79.8z"/>
	<path class="st2" d="M74.3,72.1c-8.7-1.1-24.4-3.3-34.5,2.3c-9.8,5.5-5.3,20.9-7.2,37.6c-0.7,6.5-1.1,15.7-1.3,24.5
		C44.9,147.8,62.2,154,80,154c3.7,0,7.5-0.3,11.2-0.8c0-8.5-0.8-19.6,0.6-24.2c2.6-8.5,2.6-28.2,2.6-28.2s2.4-18.3,1-21.1
		C94.3,77.7,91.7,74.3,74.3,72.1z"/>
	<path class="st4" d="M88.7,50c0.2,3.4,0,6.9-0.4,10.3c-0.7,5.1-2.1,10.3-8.5,10.3c0,0-0.4,2.5-0.9,4.5c-0.4,1.9-5.8,3.1-8.5,0.6
		c-2.2-2.1-1.1-4.4-0.7-7.5c0.4-2.8,1-5.7,1-5.7s-3.6-3.3-1.9-8c1.6-4.8,5.7-7.7,11.5-7.4C86,47.2,88.4,49.1,88.7,50z"/>
	
		<linearGradient id="SVGID_3_" gradientUnits="userSpaceOnUse" x1="78.6436" y1="211.0804" x2="72.3636" y2="210.0804" gradientTransform="matrix(1 0 0 -1 0 279.8898)">
		<stop  offset="0" style="stop-color:#F6AFA8"/>
		<stop  offset="1" style="stop-color:#F6AFA8;stop-opacity:0"/>
	</linearGradient>
	<path class="st5" d="M79.8,70.6c0,0-0.4,2.5-0.9,4.5c-0.4,1.9-5.8,3.1-8.5,0.6c-2.2-2.1-0.9-4.7-0.5-7.9c0.4-2.8,0.8-5.4,0.8-5.4
		s0.9,4.6,3.9,6.5C77.9,71.1,79.8,70.6,79.8,70.6z"/>
	<path class="st6" d="M73.5,57c0,0-1.3-3.1-3-1.8c-1.6,1.3-0.6,4,0.7,5.2l-0.8,3.6c0,0-2.5-1.2-4.7-9.1c-2.3-8.3,4.2-14,9.5-15
		c5.4-1,8.9-0.1,12,4.7c2.6,4,2.1,5.1-3,5.9s-4.1,0.1-7,0.3c-3,0.1-1.8,3.4-1.8,5.4C75.5,58.1,73.5,57,73.5,57z"/>
	<path class="st7" d="M26.3,99.2l57,14.3c1.2,0.3,2,1.6,1.7,2.8l-10.2,40.9c-0.3,1.2-1.6,2-2.8,1.7l-57-14.3c-1.2-0.3-2-1.6-1.7-2.8
		l10.2-40.9C23.8,99.6,25.1,98.9,26.3,99.2z"/>
	<path class="st8" d="M70.3,158.4L16.6,145c-1-0.3-1.9-0.9-2.5-1.8l36.7-21l22.6,35.7C72.5,158.5,71.3,158.7,70.3,158.4z"/>
	
		<linearGradient id="SVGID_4_" gradientUnits="userSpaceOnUse" x1="20.3853" y1="429.6429" x2="22.9225" y2="427.0029" gradientTransform="matrix(0.9701 0.2426 0.2426 -0.9701 -91.5816 544.4921)">
		<stop  offset="0" style="stop-color:#E1BC00"/>
		<stop  offset="1" style="stop-color:#E1BC00;stop-opacity:0"/>
	</linearGradient>
	<path class="st9" d="M43.4,151.7L16.6,145c-1-0.3-1.9-0.9-2.5-1.8l36.7-21L43.4,151.7z"/>
	
		<linearGradient id="SVGID_5_" gradientUnits="userSpaceOnUse" x1="-2488.3032" y1="424.8235" x2="-2485.7717" y2="422.1835" gradientTransform="matrix(-0.97 -0.24 0.24 -0.97 -2452.0435 -45.8969)">
		<stop  offset="0" style="stop-color:#E1BC00"/>
		<stop  offset="1" style="stop-color:#E1BC00;stop-opacity:0"/>
	</linearGradient>
	<path class="st10" d="M43.6,151.7l26.8,6.7c1,0.3,2.1,0.1,3-0.5l-22.5-35.7L43.6,151.7z"/>
	
		<linearGradient id="SVGID_6_" gradientUnits="userSpaceOnUse" x1="25.7657" y1="447.0338" x2="18.5429" y2="438.8395" gradientTransform="matrix(0.9701 0.2426 0.2426 -0.9701 -91.5816 544.4921)">
		<stop  offset="0" style="stop-color:#E1BC00"/>
		<stop  offset="1" style="stop-color:#E1BC00;stop-opacity:0"/>
	</linearGradient>
	<path class="st11" d="M14.8,135.5l8.3-33c0.5-2.1,2.7-3.5,4.8-2.9c0,0,0,0,0.1,0l26.9,6.7l-9.3,36.9L14.8,135.5z"/>
	
		<linearGradient id="SVGID_7_" gradientUnits="userSpaceOnUse" x1="-2457.2656" y1="443.3433" x2="-2464.4883" y2="435.149" gradientTransform="matrix(-0.97 -0.24 0.24 -0.97 -2430.1836 -40.4269)">
		<stop  offset="0" style="stop-color:#E1BC00"/>
		<stop  offset="1" style="stop-color:#E1BC00;stop-opacity:0"/>
	</linearGradient>
	<path class="st12" d="M76.3,150.9l8.3-33c0.6-2.1-0.7-4.3-2.9-4.9c0,0,0,0-0.1,0l-26.8-6.7l-9.2,36.9L76.3,150.9z"/>
	<path class="st7" d="M47.4,135.5l-22.5-35.5c0.9-0.6,2-0.7,3.1-0.5L81.7,113c1,0.3,1.9,0.9,2.5,1.8L47.4,135.5z"/>
	<path class="st13" d="M40,146.1c0,0,3.8,1.2,4.1,1.8c0.3,0.6-0.8,0.5-2.1,0.2c-1.3-0.3-0.5,2,1.5,4c2,1.9,0.7,3-1.6,2.1
		c-2.2-0.9-4.7-3.1-5.4-5.9l0.2-3.8L40,146.1z"/>
	<path class="st2" d="M39.8,74.4c0,0-13.5,11.4-23.3,35.3c-3.5,8.5,3.9,27.9,20,39.8l3.8-4c0,0-10.4-21.7-7.2-26.3
		C44,103.7,52.9,94,52.9,94l6.5-18.2L39.8,74.4z"/>
	<path class="st14" d="M90,49.5c0,0-0.4-5.7-4.6-8.7c-4.2-3-12.1-1.7-16.6,1.1C62.1,46.3,66,56.2,66,56.2l9.4-3.2L90,49.5z"/>
	<path class="st2" d="M75.4,53c0,0,3.6,4.2,5.7,4.4c2.1,0.1,4-1.9,7.9-2.5c3.9-0.6,5,1,6,0.9c1-0.1-5-6.2-5-6.2S82.9,46.9,75.4,53z"
		/>
	<path class="st15" d="M114.3,145.8L90.4,154c-1,0.3-2.1-0.3-2.4-1.3c-0.1-0.3-0.1-0.7,0-1l8.8-32.3c0.6-1.5,1.8-2.7,3.3-3.3
		l24.3-7.6c1.5-0.5,3,0.6,2.6,2l-9.4,32C117,144,115.8,145.2,114.3,145.8z"/>
	<path class="st16" d="M114.9,146.4L90.6,154c-1.5,0.5-2.3-0.3-2-1.6l8.8-32.3c0.6-1.5,1.8-2.7,3.3-3.3l24.3-7.6
		c1.5-0.5,2.3,0.3,2,1.6l-8.8,32.3C117.7,144.7,116.5,145.9,114.9,146.4z"/>
	<path class="st2" d="M118.3,109.5l-11.5,3.6c-0.3,0.1-0.6,0.4-0.7,0.7l-0.2,0.6l12.6-3.9l0.2-0.6
		C118.8,109.5,118.6,109.4,118.3,109.5z"/>
	<path class="st4" d="M121.8,130.3c-0.7,0-3.4,0.4-4.3,1.1c-0.9,0.7,0.2,1.1,1.3,1c1.1-0.1,2.2-0.4,1.6-0.1c-0.6,0.3-4,0.3-4.2,1.5
		c-0.2,1.2,3.8-0.2,4,0.1s-3.1,0.2-3.4,0.8c-0.3,0.6,0,0.9,0.8,0.9c0.8,0,2-0.4,1.9,0s-1.9,0.1-2.2,0.5s-0.1,1,1,1s1.7,0.5,2.4-0.8
		C121.6,135.1,123.3,130.2,121.8,130.3z"/>
	<path class="st17" d="M113.4,24.2c-7.6,0-13.8,6.2-13.8,13.8c0,4.2,1.9,8.1,5.2,10.8l-1.4,6c-0.1,0.2,0.1,0.5,0.3,0.5
		c0.1,0,0.3,0,0.4-0.1l4.5-4.2c1.5,0.6,3.2,0.9,4.8,0.9c7.6,0,13.8-6.2,13.8-13.8S121,24.2,113.4,24.2L113.4,24.2z"/>
	<path class="st18" d="M117.6,43c-0.3,0-0.5-0.1-0.7-0.3l-7.9-7.9c-0.4-0.4-0.4-1,0-1.4c0,0,0,0,0,0c0.4-0.4,1-0.4,1.4,0l7.9,7.9
		c0.4,0.4,0.4,1.1-0.1,1.4C118.1,42.8,117.9,42.9,117.6,43L117.6,43z"/>
	<path class="st18" d="M109.7,43c-0.6,0-1-0.5-1-1.1c0-0.2,0.1-0.5,0.3-0.7l7.9-7.9c0.4-0.4,1-0.4,1.4,0c0.4,0.4,0.4,1,0,1.4
		c0,0,0,0,0,0l-7.9,7.9C110.2,42.8,110,43,109.7,43z"/>
</g>
</svg>
