<?xml version="1.0" encoding="utf-8"?>
<!-- Generator: Adobe Illustrator 24.2.3, SVG Export Plug-In . SVG Version: 6.00 Build 0)  -->
<svg version="1.1" id="Layer_1" xmlns="http://www.w3.org/2000/svg" xmlns:xlink="http://www.w3.org/1999/xlink" x="0px" y="0px"
	 viewBox="0 0 160 160" style="enable-background:new 0 0 160 160;" xml:space="preserve">
<style type="text/css">
	.st0{fill:none;}
	.st1{fill:#ACD4F7;}
	.st2{fill:#FFE600;}
	.st3{fill:#508FEA;}
	.st4{fill:#D1DEEE;}
	.st5{fill:#6DB3FA;}
	.st6{fill:#669CE9;}
	.st7{fill:#FFD215;}
	.st8{fill:#C9DEFF;}
	.st9{fill:url(#SVGID_1_);}
	.st10{fill:#CADFFF;}
	.st11{fill:url(#SVGID_2_);}
	.st12{fill:url(#SVGID_3_);}
	.st13{fill:#CBE0FF;}
	.st14{fill:url(#SVGID_4_);}
	.st15{fill:url(#SVGID_5_);}
	.st16{fill:#FEC6BD;}
	.st17{fill:url(#SVGID_6_);}
	.st18{fill:#30343A;}
	.st19{fill:url(#SVGID_7_);}
	.st20{fill:url(#SVGID_8_);}
	.st21{fill:#37475E;}
	.st22{fill:url(#SVGID_9_);}
	.st23{fill:#2A60B7;}
	.st24{fill:url(#SVGID_10_);}
	.st25{fill:url(#SVGID_11_);}
	.st26{fill:#2A60B4;}
	.st27{fill:#255299;}
	.st28{fill:url(#SVGID_12_);}
	.st29{fill:url(#SVGID_13_);}
	.st30{fill:url(#SVGID_14_);}
	.st31{fill:url(#SVGID_15_);}
	.st32{fill:url(#SVGID_16_);}
	.st33{fill:url(#SVGID_17_);}
	.st34{fill:url(#SVGID_18_);}
	.st35{fill:url(#SVGID_19_);}
	.st36{fill:url(#SVGID_20_);}
	.st37{fill:url(#SVGID_21_);}
	.st38{fill:url(#SVGID_22_);}
	.st39{fill:url(#SVGID_23_);}
	.st40{fill:url(#SVGID_24_);}
	.st41{fill:url(#SVGID_25_);}
	.st42{fill:url(#SVGID_26_);}
	.st43{fill:url(#SVGID_27_);}
	.st44{fill:#FFDA00;}
	.st45{fill:#FFFFFF;}
</style>
<g id="A2A-Success">
	<rect y="0" class="st0" width="160" height="160"/>
	<path class="st1" d="M22.8,23.2c0,0,1-2.4,4.2-2.7l1.6,3.8c0,0-3,0.4-3.8,1.7L22.8,23.2z"/>
	<path class="st2" d="M42.7,53.2h-3.4c0,0-0.8,2.7,0.5,4.4l3-1.1C42.7,56.4,41.7,54.4,42.7,53.2z"/>
	<path class="st2" d="M138.6,59.5h-3.4c0,0-0.8,2.7,0.5,4.3l3-1.1C138.6,62.7,137.6,60.7,138.6,59.5z"/>
	<path class="st3" d="M46.3,14.5c-1.4,0.4-2.3,1.8-2.2,3.2l2.2,2.1c0,0,0.2-2.6,1.7-2.6L46.3,14.5z"/>
	<path class="st4" d="M15.1,59.8c0,0,2.3-2.2,0.3-4.2l-3-0.7c0,0,1.5,2.8,0.2,3.1L15.1,59.8z"/>
	<path class="st5" d="M62.9,81.9c0,0-1.2,2.3,1.3,4.5l2.5-2.2c-1.4-0.9-2.1-2.5-1.9-4.2L62.9,81.9z"/>
	<path class="st5" d="M146.3,47c0,0-1.2,2.3,1.3,4.5l2.5-2.2c-1.4-0.9-2.1-2.5-1.9-4.2L146.3,47z"/>
	<path class="st4" d="M117.3,51.3c0,0-2.7-0.2-2.5,1.1l1.2,2.9c0,0,1.1-1.5,1.8-1.4L117.3,51.3z"/>
	<path class="st2" d="M108.2,8.8c0,0-2.3-1.2-3.2,0.9v2.8c0,0,1.1-2.1,2.5-1.1L108.2,8.8z"/>
	<path class="st4" d="M155.1,32c0,0-0.9-2.4-3-1.4l-1.8,2.1c0,0,2.2-0.9,2.5,0.8L155.1,32z"/>
	<path class="st1" d="M121.9,5h2.4c0,0-0.5,5.3,3.3,6.2l-2.9,1.8C122.3,11.2,121.2,8,121.9,5z"/>
	<path class="st2" d="M132.8,23.7c0,0,2.4-1.6,3.7,0v3.2c-1-0.5-2.2-0.7-3.4-0.4L132.8,23.7z"/>
	<path class="st5" d="M26,65c0,0,2.7,0.2,2.9,1.3l-0.8,2.2c0,0-1.3-1.2-2.2-0.7V65z"/>
	<path class="st1" d="M62.2,7.2c0,0,2.4,0.5,2.1,2.2h2.8c0,0,0.3-2.5-1.5-2.8L62.2,7.2z"/>
	<path class="st3" d="M125.2,35.3l2.1,2.4c0,0-2,3.2,0.1,6.2l-2.4-1C123.8,40.5,123.9,37.7,125.2,35.3z"/>
	<path class="st6" d="M148.1,10.9c0,0,0.7-2.1,2.8-2.3l1.3,2.7c0,0-2.1,0.4-2.4,1.7L148.1,10.9z"/>
	<path class="st6" d="M31.4,4.8c0,0,1.7-0.4,1.9,0.3l1.1-2c0,0-0.8-1.6-3.1-1.1V4.8z"/>
	<path class="st2" d="M9.6,77.5c-0.3,0.8-0.5,1.6-0.4,2.5l1.8,1c0,0-0.2-1.9,0.7-2.2L9.6,77.5z"/>
	<path class="st4" d="M148.3,83c0,0,2.6-0.1,2.3-2.4l-1.5-2.3c0,0,0.2,2.4-1.5,2.2L148.3,83z"/>
	<path class="st5" d="M31.2,42c0,0,2.5-0.8,1.6-2.9l-2-1.9c0,0,0.8,2.2-0.9,2.5L31.2,42z"/>
	<path class="st7" d="M15.2,7.3c0,0,0.5,2.6-2.1,4.5L9.7,9.5c0,0,2.3-2,2.3-3.5L15.2,7.3z"/>
	<path class="st1" d="M11,42c0,0-2-2.7,2.1-5.1l-2.3-1.3c0,0-2.6,2-2.9,5.1L11,42z"/>
	<path class="st1" d="M116.1,67.1c0,0,2.3-2.3,5.3,1.4l0.8-2.4c0,0-2.4-2.2-5.4-2.2L116.1,67.1z"/>
	<path class="st6" d="M117.6,24.5c-0.1-0.8-0.5-1.6-1-2.3l-2.1,0.2c0,0,1.2,1.5,0.6,2.2L117.6,24.5z"/>
	<path class="st6" d="M154.2,70.5c-0.1-0.8-0.5-1.6-1-2.3l-2.1,0.2c0,0,1.2,1.5,0.6,2.2L154.2,70.5z"/>
	<path class="st8" d="M62.3,126.9c7.1-7.9,15.6-14.4,21.8-16.5l0.1,0.2c-6.1,2.1-14.6,8.6-21.7,16.4L62.3,126.9z"/>
	<path class="st8" d="M85.5,109.1c-0.7,0.4-1.2,0.9-1.6,1.5c0.7,0.2,1.5,0.3,2.2,0.1c0.9-0.3,1.1-0.8,0.9-1.3S86.4,108.8,85.5,109.1
		z"/>
	<path class="st8" d="M82.6,111.9c-0.8-0.1-1.6,0-2.3,0.3c0.5,0.6,1.1,1.1,1.8,1.4c0.9,0.3,1.4,0,1.5-0.5
		C83.8,112.6,83.5,112.1,82.6,111.9z"/>
	<path class="st8" d="M79.3,113.9c-1-0.3-2.5,0.3-2.5,0.3s1,1.3,2,1.5c1,0.3,1.5,0,1.6-0.6C80.6,114.6,80.3,114.2,79.3,113.9z"/>
	<path class="st8" d="M76.7,116.1c-0.9-0.4-2.4,0-2.4,0c0.4,0.7,1,1.3,1.7,1.7c0.9,0.4,1.4,0.1,1.6-0.3S77.6,116.5,76.7,116.1z"/>
	<path class="st8" d="M73.7,117.8c-1-0.2-2.3,0.6-2.3,0.6s1,1.1,2,1.3c1,0.2,1.4-0.2,1.5-0.7C75,118.4,74.7,117.9,73.7,117.8z"/>
	<path class="st8" d="M70.7,119.9c-1,0-2.2,0.9-2.2,0.9s1.2,0.9,2.2,0.9c1,0,1.4-0.4,1.4-0.9C72.1,120.3,71.7,119.9,70.7,119.9z"/>
	<path class="st8" d="M68,122.4c-1,0-2.2,0.9-2.2,0.9s1.2,0.9,2.2,0.9s1.4-0.4,1.4-0.9C69.4,122.8,69,122.4,68,122.4z"/>
	<path class="st8" d="M65.4,125.1c-1,0-2.2,0.9-2.2,0.9s1.2,0.9,2.2,0.9s1.4-0.4,1.4-0.9C66.8,125.5,66.4,125.1,65.4,125.1z"/>
	<path class="st8" d="M81.3,109.2c-0.3,1,0.3,2.4,0.3,2.4s1.2-0.9,1.5-1.9c0.3-1,0-1.5-0.5-1.6C82,107.9,81.5,108.2,81.3,109.2z"/>
	<path class="st8" d="M77.5,111.4c0,0.7,0.2,1.5,0.5,2.1c0.5-0.5,0.9-1.2,1.1-1.9c0.1-0.9-0.2-1.3-0.6-1.4
		C78,110.2,77.6,110.5,77.5,111.4z"/>
	<path class="st8" d="M73.9,113.4c0.2,1,1.3,2,1.3,2s0.7-1.3,0.6-2.3c-0.1-1-0.6-1.3-1.1-1.2C74.1,111.9,73.8,112.4,73.9,113.4z"/>
	<path class="st8" d="M71.4,115.3c0.2,1,1.3,2,1.3,2s0.7-1.3,0.6-2.3c-0.1-1-0.6-1.3-1.1-1.2S71.2,114.3,71.4,115.3z"/>
	<path class="st8" d="M68.8,117.4c0.1,1,1.1,2.1,1.1,2.1s0.8-1.3,0.7-2.3c-0.1-1-0.5-1.3-1.1-1.3S68.7,116.5,68.8,117.4z"/>
	<path class="st8" d="M66.2,119.8c0.1,1,1.1,2.1,1.1,2.1s0.8-1.3,0.7-2.3s-0.5-1.3-1.1-1.3S66.1,118.8,66.2,119.8z"/>
	<path class="st8" d="M58,125.2h-0.2c0.6-10.5-0.9-21.1-3.7-26.9l0.2-0.1C57.1,104,58.6,114.6,58,125.2z"/>
	<path class="st8" d="M54.2,96.2c0.2,0.7,0.2,1.5,0.1,2.2c-0.7-0.4-1.2-0.9-1.7-1.5c-0.4-0.8-0.2-1.3,0.2-1.6
		C53.3,95.2,53.8,95.4,54.2,96.2z"/>
	<path class="st8" d="M54.3,100.3c0.6,0.5,1.1,1.1,1.4,1.8c-0.8,0.1-1.6,0-2.3-0.3c-0.8-0.5-1-1-0.7-1.5
		C52.9,100,53.5,99.8,54.3,100.3z"/>
	<path class="st8" d="M55.2,104c0.9,0.5,1.5,2,1.5,2s-1.6,0.2-2.5-0.3c-0.9-0.5-1-1.1-0.8-1.6C53.7,103.7,54.3,103.5,55.2,104z"/>
	<path class="st8" d="M55.5,107.4c0.7,0.4,1.3,1,1.7,1.7c0,0-1.5,0.4-2.4,0s-1.1-0.9-0.9-1.4C54.1,107.3,54.6,107.1,55.5,107.4z"/>
	<path class="st8" d="M56.4,110.7c0.6,0.6,1,1.3,1.2,2c-0.8,0-1.6-0.2-2.3-0.5c-0.8-0.6-0.9-1.1-0.6-1.5
		C55.1,110.3,55.6,110.2,56.4,110.7z"/>
	<path class="st8" d="M57,114.3c0.7,0.7,0.9,2.2,0.9,2.2c-0.8-0.1-1.6-0.4-2.2-0.9c-0.7-0.7-0.7-1.3-0.3-1.6
		C55.8,113.6,56.3,113.6,57,114.3z"/>
	<path class="st8" d="M57.1,118.1c0.7,0.7,0.9,2.2,0.9,2.2s-1.5-0.2-2.2-0.9c-0.7-0.7-0.7-1.3-0.3-1.6
		C55.9,117.4,56.4,117.4,57.1,118.1z"/>
	<path class="st8" d="M57.1,99.3c-0.5,0.9-1.9,1.5-1.9,1.5s-0.2-1.5,0.3-2.4c0.5-0.9,1.1-1,1.5-0.7C57.5,97.9,57.6,98.4,57.1,99.3z"
		/>
	<path class="st8" d="M58.2,103.6c-0.5,0.5-1.2,0.9-1.9,1.1c0-0.7,0.1-1.5,0.5-2.1c0.5-0.7,1.1-0.8,1.4-0.5
		C58.7,102.3,58.8,102.9,58.2,103.6z"/>
	<path class="st8" d="M59.4,107.5C58.6,108,57,108,57,108s0.4-1.5,1.3-2c0.8-0.6,1.4-0.5,1.7-0.1C60.3,106.3,60.2,106.9,59.4,107.5z
		"/>
	<path class="st8" d="M59.8,110.6c-0.8,0.6-2.3,0.5-2.3,0.5s0.4-1.5,1.3-2c0.8-0.6,1.4-0.5,1.7-0.1C60.7,109.5,60.6,110,59.8,110.6z
		"/>
	<path class="st8" d="M60.1,114c-0.8,0.6-2.3,0.7-2.3,0.7s0.3-1.5,1.1-2.1c0.8-0.6,1.3-0.6,1.7-0.2C60.9,112.7,60.8,113.3,60.1,114z
		"/>
	<path class="st8" d="M60.3,117.5c-0.8,0.6-2.3,0.7-2.3,0.7s0.3-1.5,1.1-2.1s1.3-0.6,1.7-0.2C61.1,116.3,61.1,116.8,60.3,117.5z"/>
	<path class="st8" d="M60.3,121.1c-0.8,0.6-2.3,0.7-2.3,0.7s0.3-1.5,1.1-2.1c0.8-0.6,1.3-0.6,1.7-0.2S61.1,120.5,60.3,121.1z"/>
	
		<linearGradient id="SVGID_1_" gradientUnits="userSpaceOnUse" x1="-256.371" y1="265.1614" x2="-235.1253" y2="265.5214" gradientTransform="matrix(0.4291 0.9033 0.9033 -0.4291 -67.7719 448.0857)">
		<stop  offset="0" style="stop-color:#CDEAFF"/>
		<stop  offset="1" style="stop-color:#F4FAFF"/>
	</linearGradient>
	<path class="st9" d="M65.9,122.8c0,0,4.7-2.4,5.1-5.2s-2.3-3.5,0-4.7s4.4-2.5,2.8-5.2c-1.6-2.7-2.1-3.3-0.6-4.8
		c1.5-1.6,3.3-3.5,0.8-4.5c-2.5-1-7.1,1.9-9.3,4.7c-2.2,2.8-2.2,6.3-3.5,7.4c-1.4,1.1-1.8,1.4-3.5,0.3c-1.7-1.1-4.2,1.1-3.4,5.9
		s4.7,9.7,4.7,9.7L65.9,122.8z"/>
	<path class="st8" d="M62.2,124.5c0,0-0.6-3.8,0.6-9.7c0,0,0,0,0,0c1.3-1.6,6.6-4.5,6.7-4.5c0.1,0,0.1-0.1,0-0.1
		c0-0.1-0.1-0.1-0.1,0c-0.2,0.1-4.9,2.6-6.5,4.3c0,0,0-0.1,0-0.1c1.3-6.2,7.3-12,7.3-12.1c0,0,0-0.1,0-0.1c0,0,0,0,0,0
		c0,0-0.1,0-0.1,0c-0.1,0.1-6.1,5.9-7.4,12.2c-0.3,1.5-0.5,3-0.7,4.5c-1.9-0.7-2.7-3.4-2.7-3.4c0-0.1-0.1-0.1-0.1-0.1
		c-0.1,0-0.1,0.1-0.1,0.1c0.1,0.4,0.2,0.7,0.4,1c0.4,0.9,1.2,2.1,2.5,2.6c-0.2,1.9-0.2,3.7,0,5.6c0,0,0,0,0,0c0,0,0.1,0.1,0.1,0.1
		c0.1,0,0.1,0,0.1,0C62.2,124.6,62.2,124.5,62.2,124.5z"/>
	<path class="st10" d="M26.3,120.2h-0.2c-0.3-10.9-2.8-21.7-6.3-27.4l0.2-0.1C23.4,98.5,25.9,109.3,26.3,120.2z"/>
	<path class="st10" d="M19.8,90.8c0.3,0.7,0.4,1.5,0.3,2.3c-0.7-0.3-1.4-0.8-1.8-1.4c-0.5-0.8-0.3-1.4,0.1-1.6
		C18.7,89.8,19.3,89.9,19.8,90.8z"/>
	<path class="st10" d="M20.2,94.9c0.9,0.4,1.6,1.8,1.6,1.8s-1.5,0.3-2.4-0.1c-0.9-0.4-1.1-1-0.9-1.4C18.8,94.7,19.3,94.5,20.2,94.9z
		"/>
	<path class="st10" d="M21.5,98.7c1,0.4,1.7,1.9,1.7,1.9s-1.6,0.4-2.6-0.1s-1.1-1-0.9-1.5C19.9,98.5,20.5,98.3,21.5,98.7z"/>
	<path class="st10" d="M22.1,102.2c1,0.3,1.9,1.6,1.9,1.6s-1.5,0.5-2.4,0.2c-1-0.3-1.2-0.8-1.1-1.3
		C20.6,102.2,21.1,101.9,22.1,102.2z"/>
	<path class="st10" d="M23.3,105.5c0.9,0.5,1.5,2,1.5,2s-1.6,0.2-2.4-0.3s-1-1.1-0.7-1.5C21.8,105.1,22.4,105,23.3,105.5z"/>
	<path class="st10" d="M24.3,109.1c0.8,0.7,1.1,2.2,1.1,2.2s-1.6-0.1-2.3-0.7c-0.8-0.7-0.8-1.3-0.5-1.6S23.5,108.5,24.3,109.1z"/>
	<path class="st10" d="M24.7,113c0.8,0.7,1.1,2.2,1.1,2.2s-1.6-0.1-2.3-0.7c-0.8-0.7-0.8-1.3-0.5-1.6S24,112.3,24.7,113z"/>
	<path class="st10" d="M23,93.7c-0.4,0.9-1.8,1.7-1.8,1.7s-0.3-1.5,0.1-2.5c0.4-0.9,1-1.1,1.5-0.9C23.3,92.2,23.5,92.7,23,93.7z"/>
	<path class="st10" d="M24.6,98c-0.5,0.6-1.1,1.1-1.8,1.3c-0.1-0.8,0-1.5,0.3-2.3c0.5-0.8,1-0.9,1.4-0.7S25.1,97.1,24.6,98z"/>
	<path class="st10" d="M26.1,101.9c-0.8,0.7-2.4,0.7-2.4,0.7s0.3-1.5,1.1-2.2c0.8-0.7,1.4-0.6,1.7-0.2
		C26.9,100.6,26.9,101.2,26.1,101.9z"/>
	<path class="st10" d="M26.8,105.1c-0.8,0.7-2.4,0.7-2.4,0.7s0.3-1.5,1.1-2.2c0.8-0.7,1.4-0.6,1.7-0.2
		C27.6,103.8,27.6,104.4,26.8,105.1z"/>
	<path class="st10" d="M27.4,108.5c-0.7,0.7-2.3,0.9-2.3,0.9s0.2-1.6,0.9-2.3c0.7-0.7,1.3-0.7,1.7-0.3
		C28.1,107.2,28.1,107.8,27.4,108.5z"/>
	<path class="st10" d="M27.9,112.1c-0.7,0.7-2.3,0.9-2.3,0.9s0.2-1.6,0.9-2.3c0.7-0.7,1.3-0.7,1.7-0.3
		C28.7,110.8,28.7,111.4,27.9,112.1z"/>
	<path class="st10" d="M28.3,115.8c-0.7,0.7-2.3,0.9-2.3,0.9s0.2-1.6,0.9-2.3c0.7-0.7,1.3-0.7,1.7-0.3
		C29.1,114.5,29,115.1,28.3,115.8z"/>
	
		<linearGradient id="SVGID_2_" gradientUnits="userSpaceOnUse" x1="-1485.0432" y1="1414.5449" x2="-1463.089" y2="1414.9163" gradientTransform="matrix(0.9999 -1.221700e-02 -1.221700e-02 -0.9999 1510.4607 1512.4998)">
		<stop  offset="0" style="stop-color:#CEEBFF"/>
		<stop  offset="1" style="stop-color:#F5FBFF"/>
	</linearGradient>
	<path class="st11" d="M28.8,120.9c0,0-0.3-5.4-2.7-7s-4.3,0.7-4.4-2.1c-0.1-2.8-0.5-5.2-3.7-4.9s-4,0.6-4.8-1.5
		c-0.8-2.1-1.9-4.6-3.9-2.7s-1.3,7.5,0.4,10.8s5,4.7,5.4,6.5c0.5,1.8,0.5,2.3-1.3,3.4c-1.8,1.1-0.8,4.4,4,5.7
		c4.9,1.3,11.1-0.2,11.1-0.2L28.8,120.9z"/>
	<path class="st10" d="M28.8,125.2c0,0-3.8-1.1-8.9-4.7c0,0,0,0,0,0c-1-1.9-1.3-8.1-1.3-8.2c0-0.1-0.1-0.1-0.1-0.1
		c-0.1,0-0.1,0.1-0.1,0.1c0,0,0,0,0,0c0,0.2,0.3,5.8,1.2,8l-0.1-0.1c-5.3-3.9-8.1-12-8.2-12.1c0-0.1-0.1-0.1-0.1-0.1
		c-0.1,0-0.1,0.1-0.1,0.1c0,0.1,2.9,8.3,8.2,12.2c1.3,0.9,2.6,1.8,3.9,2.5c-1.5,1.4-4.4,1-4.4,1c-0.1,0-0.1,0-0.1,0.1
		c0,0.1,0,0.1,0.1,0.1c0.4,0,0.8,0.1,1.1,0.1c1,0,2.5-0.2,3.5-1.2c1.7,1,3.4,1.8,5.3,2.4h0c0,0,0.1,0,0.1-0.1
		C28.9,125.2,28.9,125.2,28.8,125.2z"/>
	
		<linearGradient id="SVGID_3_" gradientUnits="userSpaceOnUse" x1="-2590.6523" y1="407.8009" x2="-2580.2212" y2="407.8009" gradientTransform="matrix(0.9963 8.646025e-02 8.646025e-02 -0.9963 2681.4875 741.5637)">
		<stop  offset="0" style="stop-color:#CFECFF"/>
		<stop  offset="1" style="stop-color:#F6FCFF"/>
	</linearGradient>
	<path class="st12" d="M140.1,122.1c0,0-2.3-2.8-2.4-4.5c-0.2-2.5-0.4-3-1.5-4.4c-1-1.4-0.2-3.9,1.8-3.3s1.9-2.6,2.1-4.7
		c0.2-2,3.7-5.1,4.7-2.9c1,2.3-0.8,2.9,0.2,4.5c1,1.6,2,2.7,0.6,5s-3.2,7.9-3.2,7.9L140.1,122.1z"/>
	<path class="st13" d="M137.4,111.5c0.8,1.2,1.8,2.3,2.9,3.2c0.6-3.6,1.5-7.1,2.6-10.5c0-0.1,0.1-0.1,0.1-0.1c0.1,0,0.1,0.1,0.1,0.1
		l0,0c0,0.1-2.4,6.8-2.9,12.3c1.6-0.8,3-2,4-3.5c0,0,0.1-0.1,0.1,0c0,0,0.1,0.1,0,0.1c-1,1.6-2.5,2.8-4.2,3.6c-0.1,1-0.1,1.9,0,2.9
		c0,0.1,0,0.1-0.1,0.1c0,0,0,0-0.1,0c0,0,0,0,0-0.1c-0.1-1.6,0-3.2,0.2-4.8c-1.2-0.9-2.2-2.1-3-3.3c0,0,0-0.1,0-0.1
		C137.3,111.4,137.3,111.5,137.4,111.5C137.4,111.5,137.4,111.5,137.4,111.5z"/>
	<path class="st13" d="M143.8,120.7c2-9.8,5.9-19.2,10-23.9l0.1,0.1c-4,4.6-7.9,14-9.9,23.8L143.8,120.7z"/>
	<path class="st13" d="M154.3,95c-0.4,0.6-0.6,1.3-0.6,2c0.7-0.2,1.4-0.5,1.9-1c0.6-0.7,0.5-1.2,0.2-1.5
		C155.4,94.3,154.9,94.4,154.3,95z"/>
	<path class="st13" d="M153.2,98.7c-0.7,0.3-1.3,0.8-1.7,1.4c0.7,0.3,1.4,0.4,2.2,0.3c0.9-0.2,1.1-0.7,1-1.1
		C154.5,98.8,154.1,98.5,153.2,98.7z"/>
	<path class="st13" d="M151.5,101.9c-0.7,0.3-1.4,0.8-1.9,1.4c0.7,0.3,1.5,0.4,2.3,0.3c0.9-0.3,1.2-0.8,1.1-1.2
		C152.9,102,152.4,101.7,151.5,101.9z"/>
	<path class="st13" d="M150.4,105c-0.7,0.2-1.4,0.6-1.9,1.1c0.7,0.4,1.4,0.6,2.2,0.6c0.9-0.1,1.2-0.6,1.2-1
		C151.7,105.2,151.3,104.9,150.4,105z"/>
	<path class="st13" d="M148.8,107.8c-0.7,0.4-1.2,0.9-1.6,1.6c0.7,0.2,1.5,0.3,2.2,0.1c0.9-0.3,1.1-0.8,0.9-1.3
		C150.1,107.7,149.6,107.5,148.8,107.8z"/>
	<path class="st13" d="M147.3,111c-0.6,0.5-1.1,1.1-1.3,1.8c0.8,0.1,1.5,0,2.2-0.3c0.8-0.5,0.9-1,0.7-1.4S148.1,110.5,147.3,111z"/>
	<path class="st13" d="M146.3,114.4c-0.6,0.5-1.1,1.1-1.3,1.8c0.8,0.1,1.5,0,2.2-0.3c0.8-0.5,0.9-1,0.7-1.4S147.1,113.9,146.3,114.4
		z"/>
	<path class="st13" d="M145.5,117.8c-0.6,0.5-1.1,1.1-1.3,1.8c0.8,0.1,1.5,0,2.2-0.3c0.8-0.5,0.9-1,0.7-1.4
		C146.8,117.4,146.3,117.3,145.5,117.8z"/>
	<path class="st13" d="M150.9,97.1c0.3,0.7,0.8,1.3,1.4,1.8c0.3-0.7,0.4-1.5,0.3-2.3c-0.2-0.9-0.7-1.2-1.2-1.1
		C150.9,95.8,150.6,96.2,150.9,97.1z"/>
	<path class="st13" d="M148.8,100.8c0.3,0.6,0.8,1.1,1.5,1.5c0.2-0.7,0.2-1.4,0.1-2.1c-0.3-0.8-0.8-1-1.2-0.8
		C148.7,99.5,148.5,100,148.8,100.8z"/>
	<path class="st13" d="M146.8,104.1c0.6,0.5,1.3,0.9,2,1c0-0.8-0.2-1.5-0.7-2.2c-0.6-0.7-1.1-0.8-1.5-0.5
		C146.3,102.8,146.2,103.4,146.8,104.1z"/>
	<path class="st13" d="M145.7,106.9c0.6,0.5,1.3,0.9,2,1c0-0.8-0.2-1.5-0.7-2.2c-0.6-0.7-1.1-0.8-1.5-0.5
		C145.1,105.6,145.1,106.1,145.7,106.9z"/>
	<path class="st13" d="M144.6,109.9c0.5,0.6,1.2,1,1.9,1.2c0-0.8-0.1-1.5-0.5-2.2c-0.6-0.8-1.1-0.8-1.5-0.6S144,109.1,144.6,109.9z"
		/>
	<path class="st13" d="M143.5,113c0.5,0.6,1.2,1,1.9,1.2c0-0.8-0.1-1.5-0.5-2.2c-0.6-0.8-1.1-0.8-1.5-0.6S143,112.3,143.5,113z"/>
	
		<linearGradient id="SVGID_4_" gradientUnits="userSpaceOnUse" x1="-1379.5237" y1="-520.0873" x2="-1359.3751" y2="-519.7445" gradientTransform="matrix(-0.99 0.1 -0.1 -0.99 -1265.3711 -257.3391)">
		<stop  offset="0" style="stop-color:#CFECFF"/>
		<stop  offset="1" style="stop-color:#F6FCFF"/>
	</linearGradient>
	<path class="st14" d="M137.9,125.7c0,0-0.3-5,1.7-6.7c2-1.7,4,0.2,3.8-2.3c-0.2-2.5-0.1-4.8,2.9-4.8c3,0,3.7,0.1,4.2-1.9
		s1.2-4.4,3.3-2.9c2,1.6,1.9,6.7,0.7,9.9c-1.2,3.2-4,4.8-4.3,6.5c-0.3,1.7-0.2,2.1,1.5,3c1.7,0.8,1.2,3.9-3.1,5.7
		c-4.3,1.7-10.2,0.9-10.2,0.9L137.9,125.7z"/>
	<path class="st13" d="M138.3,129.6c0,0,3.4-1.4,7.6-5.3c0,0,0,0,0,0c0.7-1.9,0.4-7.6,0.4-7.6c0-0.1,0-0.1,0.1-0.1
		c0.1,0,0.1,0,0.1,0.1c0,0,0,0,0,0c0,0.2,0.3,5.3-0.3,7.4l0.1-0.1c4.4-4.1,6.2-11.8,6.2-11.9c0-0.1,0.1-0.1,0.1-0.1c0,0,0,0,0,0
		c0.1,0,0.1,0.1,0.1,0.1c0,0.1-1.8,7.9-6.2,12c-1,1-2.2,1.9-3.3,2.7c1.5,1.1,4.1,0.5,4.1,0.5c0.1,0,0.1,0,0.1,0.1c0,0,0,0,0,0
		c0,0.1,0,0.1-0.1,0.1c-0.3,0.1-0.7,0.1-1,0.2c-1.1,0.2-2.3-0.1-3.3-0.7c-1.4,1.1-3,2-4.6,2.7l0,0c0,0-0.1,0-0.1-0.1c0,0,0,0,0,0
		C138.3,129.7,138.3,129.6,138.3,129.6C138.3,129.6,138.3,129.6,138.3,129.6z"/>
	
		<linearGradient id="SVGID_5_" gradientUnits="userSpaceOnUse" x1="80.5399" y1="98.364" x2="80.1741" y2="163.564" gradientTransform="matrix(1 0 0 -1 0 279.8898)">
		<stop  offset="0" style="stop-color:#CDEAFF"/>
		<stop  offset="1" style="stop-color:#F4FAFF"/>
	</linearGradient>
	<path class="st15" d="M36.7,117.7c0,0,7.2-9.1,18.4-6.4c11.2,2.7,10.4,12.9,19.9,13.7c9.5,0.8,16.2-15.3,31.2-10.9
		s15.2,13.9,19.9,14.5c4.7,0.6,17.9-7.9,24.8-3.6c7,4.3,8.6,10.9,2.9,20.8L6.5,145.3c0,0-10.2-12.3,5.9-16.9S21.9,132.2,36.7,117.7z
		"/>
	<path class="st16" d="M91.6,120.3c0,0,0,7.8,0.3,9.5c0.2,1.7,2.6,20.4,2.8,22l1.6-0.3c0,0,1.9-11.1,1.7-16.6
		c-0.2-5.6,1.3-14.6,1.3-14.6L91.6,120.3z"/>
	
		<linearGradient id="SVGID_6_" gradientUnits="userSpaceOnUse" x1="101.0107" y1="146.5946" x2="93.6107" y2="143.8575" gradientTransform="matrix(1 0 0 -1 0 279.8898)">
		<stop  offset="0" style="stop-color:#F6AFA8"/>
		<stop  offset="1" style="stop-color:#F6AFA8;stop-opacity:0"/>
	</linearGradient>
	<path class="st17" d="M91.6,120.3c0,0,0,7.8,0.3,9.5c0.2,1.7,2.6,20.4,2.8,22l1.6-0.3c0,0,1.9-11.1,1.7-16.6
		c-0.2-5.6,1.3-14.6,1.3-14.6L91.6,120.3z"/>
	<path class="st16" d="M96,121.1c0,0,1.2,7.7,1.7,9.3c0.5,1.7,5.6,19.8,6,21.4l1.5-0.5c0,0,0.3-11.2-0.8-16.7
		c-1.1-5.5-0.9-14.6-0.9-14.6L96,121.1z"/>
	<path class="st18" d="M103.5,151.7c-0.6,0.2-1.1,0.5-1.6,0.9c-1,0.8-3.1,0.7-3.4,1.6s0.4,0.9,2,0.8c2.1-0.2,4.1-0.5,6.1-0.9
		c0.5-0.2,0.2-2.5-1.4-3L103.5,151.7z"/>
	<path class="st16" d="M89,94c0,0-6.5-8.1-6.8-9.1c-0.3-1-0.4-1.8,0.3-1.9c0,0,0.7-0.1,0.9,0.8c0,0,0.2,0.9,0.5,0.7
		c0,0,0.4-0.6,0.6-0.3c0.2,0.3-0.1,1.5,0.5,2.1c0,0,5.3,5.9,5.7,6.3L89,94z"/>
	<path class="st5" d="M83.2,86.7l1.7-1.2c0,0,5.8,7.1,6.3,7.4s5.1,0.1,7,1.6c0,0,2.8,0.6,2.9,1.3c0,0,0.8,2-0.2,2.6
		c0,0-3.5,2.7-11.7-1.4C89.1,97,86,96.2,83.2,86.7z"/>
	
		<linearGradient id="SVGID_7_" gradientUnits="userSpaceOnUse" x1="-24.5966" y1="440.2363" x2="-24.9566" y2="446.0878" gradientTransform="matrix(0.9965 8.333000e-02 8.333000e-02 -0.9965 79.975 540.4418)">
		<stop  offset="0" style="stop-color:#133E91;stop-opacity:0.4"/>
		<stop  offset="1" style="stop-color:#133E91;stop-opacity:0"/>
	</linearGradient>
	<path class="st19" d="M83.2,86.7l1.7-1.2c0,0,5.8,7.1,6.3,7.4s5.1,0.1,7,1.6c0,0,2.8,0.6,2.9,1.3c0,0,0.8,2-0.2,2.6
		c0,0-3.5,2.7-11.7-1.4C89.1,97,86,96.2,83.2,86.7z"/>
	
		<linearGradient id="SVGID_8_" gradientUnits="userSpaceOnUse" x1="82.383" y1="177.8609" x2="90.5944" y2="185.8952" gradientTransform="matrix(1 0 0 -1 0 279.8898)">
		<stop  offset="0" style="stop-color:#133E91;stop-opacity:0.4"/>
		<stop  offset="1" style="stop-color:#133E91;stop-opacity:0"/>
	</linearGradient>
	<path class="st20" d="M83.2,86.7l1.7-1.2c0,0,5.8,7.1,6.3,7.4s5.1,0.1,7,1.6c0,0,2.8,0.6,2.9,1.3c0,0,0.8,2-0.2,2.6
		c0,0-3.5,2.7-11.7-1.4C89.1,97,86,96.2,83.2,86.7z"/>
	<path class="st5" d="M92.4,103.4c0,1.9,0.5,5.1,0.6,7.1l8.7,0.6c0,0,4-12.9-1.1-16.3l-4.2-0.3c0,0-2.3,1.2-3.5,5.5
		C92.9,99.9,92.4,100.9,92.4,103.4z"/>
	<path class="st16" d="M85.9,96.3c0,0-5.7-9.4-5.9-10.5c-0.2-1.1-0.1-1.9,0.6-2c0,0,0.8,0,0.9,1c0,0,0.1,1,0.4,0.8
		c0,0,0.5-0.6,0.6-0.2c0.1,0.4-0.4,1.5,0.2,2.3c0,0,4.8,7,5.1,7.4L85.9,96.3z"/>
	<path class="st5" d="M80.9,88.2l2-1.4c0,0,5.5,7.3,6,7.6s5.1,0.1,7,1.6c0,0,2.8,0.6,2.9,1.3c0,0,0.8,2.1-0.2,2.6
		c0,0-3.5,2.7-11.7-1.4C86.8,98.5,83.7,97.7,80.9,88.2z"/>
	<path class="st16" d="M95.6,87.8c-0.4,0.6-0.8,1.2-1.1,1.9c-0.6,1.6,0,3.1,0.5,3.3c0.5,0.1,1,0.2,1,0.2l0.5,1.3l2,0.3l-0.4-3
		c0,0,1.3-2.2,0.6-2.7C97.7,88.5,96.7,88.1,95.6,87.8z"/>
	<path class="st21" d="M101.9,87.7c-0.6-1-1.8-2.6-4.8-2.3c-2.7,0.2-2.6,2.2-1.4,2.8c1.2,0.6,1.5,0.9,1.7,1.8
		c0.2,0.9,1.4,5.2,0.1,6.3c1.6-0.3,3-1,4.2-2.1C103.6,92.4,102.9,89.6,101.9,87.7z"/>
	
		<linearGradient id="SVGID_9_" gradientUnits="userSpaceOnUse" x1="82.4274" y1="176.6827" x2="88.3074" y2="184.0085" gradientTransform="matrix(1 0 0 -1 0 279.8898)">
		<stop  offset="0" style="stop-color:#133E91;stop-opacity:0.4"/>
		<stop  offset="1" style="stop-color:#133E91;stop-opacity:0"/>
	</linearGradient>
	<path class="st22" d="M80.9,88.2l2-1.4c0,0,5.5,7.3,6,7.6s5.1,0.1,7,1.6c0,0,2.8,0.6,2.9,1.3c0,0,0.8,2.1-0.2,2.6
		c0,0-3.5,2.7-11.7-1.4C86.8,98.5,83.7,97.7,80.9,88.2z"/>
	<path class="st5" d="M99.1,98.9v6.7h-6.6c-0.1-0.8-0.1-1.5-0.1-2.3c0-0.9,0.1-1.9,0.3-2.8c4.1,0.7,5.9-0.7,5.9-0.7
		C98.9,99.7,99.1,99.4,99.1,98.9z"/>
	<path class="st18" d="M94.4,151.6c-0.6,0.1-1.2,0.3-1.7,0.7c-1.1,0.6-3.1,0.2-3.6,1c-0.5,0.8,0.2,0.9,1.9,1.1
		c2.1,0.2,4.1,0.2,6.2,0c0.5-0.1,0.6-2.5-0.9-3.2L94.4,151.6z"/>
	<path class="st23" d="M102.1,109.7c1,2.6,2.8,15.4,2.8,15.4c-6.6,4.6-15,0.6-15,0.6c0.9-13.1,2.9-17.1,2.9-17.1L102.1,109.7z"/>
	
		<linearGradient id="SVGID_10_" gradientUnits="userSpaceOnUse" x1="91.575" y1="182.8995" x2="95.6779" y2="177.7109" gradientTransform="matrix(1 0 0 -1 0 279.8898)">
		<stop  offset="0" style="stop-color:#133E91;stop-opacity:0.4"/>
		<stop  offset="1" style="stop-color:#133E91;stop-opacity:0"/>
	</linearGradient>
	<path class="st24" d="M99.1,98.9v6.7h-6.6c-0.1-0.8-0.1-1.5-0.1-2.3c0-0.9,0.1-1.9,0.3-2.8c4.1,0.7,5.9-0.7,5.9-0.7
		C98.9,99.7,99.1,99.4,99.1,98.9z"/>
	<path class="st16" d="M117,87.9c-0.3-0.5-0.5-1.1-0.7-1.6c-0.1-0.5-0.7-1.9-1.1-1.3c-0.1,0.3-0.1,0.6-0.2,0.9c0,0.3-0.3,0.3-0.8,0
		c-0.5-0.3-2.2-1.2-2.2-1.2s-0.4-0.2-0.4,0.3c0.2,1.2,1,2.2,2.2,2.8l1.8,1.1L117,87.9z"/>
	
		<linearGradient id="SVGID_11_" gradientUnits="userSpaceOnUse" x1="-7106.105" y1="-971.0648" x2="-7107.9277" y2="-969.7105" gradientTransform="matrix(-0.97 0.23 -0.23 -0.97 -7004.1553 781.5831)">
		<stop  offset="0" style="stop-color:#F6AFA8"/>
		<stop  offset="1" style="stop-color:#F6AFA8;stop-opacity:0"/>
	</linearGradient>
	<path class="st25" d="M117,87.9c-0.3-0.5-0.5-1.1-0.7-1.6c-0.1-0.5-0.7-1.9-1.1-1.3c-0.1,0.3-0.1,0.6-0.2,0.9c0,0.3-0.3,0.3-0.8,0
		c-0.5-0.3-2.2-1.2-2.2-1.2s-0.4-0.2-0.4,0.3c0.2,1.2,1,2.2,2.2,2.8l1.8,1.1L117,87.9z"/>
	<polygon class="st16" points="139.7,142.3 141.5,145.1 143.1,144.1 141,141.3 	"/>
	<path class="st18" d="M141,144.8c-0.5,0.5-0.9,1.2-1.1,1.8c-0.6,1.4-2.9,2.5-2.7,3.6c0.1,1.1,0.9,0.7,2.6-0.3
		c2.1-1.3,4-2.8,5.9-4.5c0.4-0.5-1.2-2.8-3.2-2.4L141,144.8z"/>
	<polygon class="st16" points="126.9,143.7 126.7,147 128.6,147.1 128.6,143.6 	"/>
	<path class="st18" d="M126.5,146.5c-0.7,0.1-1.4,0.4-2,0.9c-1.3,0.8-3.7,0.4-4.3,1.4s0.3,1.1,2.3,1.2c2.5,0.1,4.9,0,7.4-0.3
		c0.6-0.2,0.6-3-1.3-3.8L126.5,146.5z"/>
	<path class="st26" d="M128.8,108.9c0,0-2.2,9.4-1.5,14.6c0.5,3.7,2.1,7.2,4.5,10.1l7.8,9.5l2.2-1.7c0,0-6.4-15-6.9-16.3
		c0,0,6.6-9.6,5.8-16.4L128.8,108.9z"/>
	<path class="st27" d="M131.8,133.6l0.3,0.4c-1.4,4.8-3,10.6-3,10.6l-2.7,0c0,0-1-12,1.1-19.8C128.2,128,129.7,131.1,131.8,133.6z"
		/>
	
		<linearGradient id="SVGID_12_" gradientUnits="userSpaceOnUse" x1="173.5546" y1="54.579" x2="169.3775" y2="45.6132" gradientTransform="matrix(0.9999 -1.012274e-02 -1.012274e-02 -0.9999 -41.0103 183.0117)">
		<stop  offset="0" style="stop-color:#133E91;stop-opacity:0.4"/>
		<stop  offset="1" style="stop-color:#133E91;stop-opacity:0"/>
	</linearGradient>
	<path class="st28" d="M131.8,133.6l0.3,0.4c-1.4,4.8-3,10.6-3,10.6l-2.7,0c0,0-1-12,1.1-19.8C128.2,128,129.7,131.1,131.8,133.6z"
		/>
	<path class="st5" d="M116.8,86.8l-2.1,2.2c0,0,2.9,5.4,7.7,8.5c4.8,3.1,6,2.6,6,2.6s2-0.2,6.8-4.9l-3.7-4.1c-1.4,1-2.7,2.3-3.8,3.7
		C127.6,94.8,120.3,87.5,116.8,86.8z"/>
	
		<linearGradient id="SVGID_13_" gradientUnits="userSpaceOnUse" x1="178.8694" y1="91.48" x2="180.9894" y2="94.1543" gradientTransform="matrix(0.9984 5.582150e-02 5.582150e-02 -0.9984 -61.1745 176.1292)">
		<stop  offset="0" style="stop-color:#133E91;stop-opacity:0.4"/>
		<stop  offset="1" style="stop-color:#133E91;stop-opacity:0"/>
	</linearGradient>
	<path class="st29" d="M116.8,86.8l-2.1,2.2c0,0,2.9,5.4,7.7,8.5c4.8,3.1,6,2.6,6,2.6s2-0.2,6.8-4.9l-3.7-4.1
		c-1.4,1-2.7,2.3-3.8,3.7C127.6,94.8,120.3,87.5,116.8,86.8z"/>
	
		<linearGradient id="SVGID_14_" gradientUnits="userSpaceOnUse" x1="186.07" y1="89.1431" x2="183.59" y2="91.4516" gradientTransform="matrix(0.9984 5.582150e-02 5.582150e-02 -0.9984 -61.1745 176.1292)">
		<stop  offset="0" style="stop-color:#133E91;stop-opacity:0.4"/>
		<stop  offset="1" style="stop-color:#133E91;stop-opacity:0"/>
	</linearGradient>
	<path class="st30" d="M116.8,86.8l-2.1,2.2c0,0,2.9,5.4,7.7,8.5c4.8,3.1,6,2.6,6,2.6s2-0.2,6.8-4.9l-3.7-4.1
		c-1.4,1-2.7,2.3-3.8,3.7C127.6,94.8,120.3,87.5,116.8,86.8z"/>
	<path class="st2" d="M106.1,73.4l-2.1,1.4l11.1,15.5l1.2-1c0.4-0.3,0.5-1,0.2-1.4L106.1,73.4z"/>
	
		<linearGradient id="SVGID_15_" gradientUnits="userSpaceOnUse" x1="-190.2575" y1="189.9753" x2="-189.5489" y2="193.9239" gradientTransform="matrix(-0.99 -0.1 0.1 -0.99 -96.379 257.8209)">
		<stop  offset="0" style="stop-color:#FFD215"/>
		<stop  offset="0.52" style="stop-color:#FFE600"/>
		<stop  offset="1" style="stop-color:#FFE600"/>
	</linearGradient>
	<path class="st31" d="M106.1,73.4l-2.1,1.4l11.1,15.5l1.2-1c0.4-0.3,0.5-1,0.2-1.4L106.1,73.4z"/>
	<polygon class="st7" points="109.3,82.1 110.9,84.4 111.4,80.7 109.7,78.4 	"/>
	<polygon class="st7" points="105.9,77.4 107.6,79.7 108,76 106.4,73.7 	"/>
	<path class="st16" d="M131,78.5c0,0-0.5,1.8-0.6,2.9c-0.3,2.2,0.9,4,1.5,4s1.4,0,1.4,0l1,1.5l2.6-0.2l-1.5-3.7c0,0,1-3.3-0.1-3.7
		C134.3,78.7,131,78.5,131,78.5z"/>
	<path class="st5" d="M137.3,86.2c0,0-2.6-0.4-3.3,0.1c-0.7,0.5-2.9,2.7-4,7.3c-0.5,2-1.6,15.9-1.6,15.9s12.2,15.6,16.8,15.2
		c0,0-2.6-24.1-4-30.5S137.3,86.2,137.3,86.2z"/>
	<path class="st21" d="M132,76.9c-0.8,0.4-1.8,3-1.5,3c0.4,0,1.9,0.1,2.3,0.2l0.2,1c0,0,0.1-0.7,0.7-0.5c0.6,0.2,0.3,1.4-0.4,1.6
		c-0.2,1.9,0.8,3.8,2.5,4.6c3.1,1.6,1.8,8.9,6.7,7.4c4.9-1.5,2.8-4.1-0.5-8.4s-2.7-5.5-4.3-7.5C136.4,76.6,134,76,132,76.9z"/>
	<path class="st16" d="M117,89.8c-0.3-0.5-0.5-1.1-0.7-1.6c-0.1-0.5-0.7-1.9-1.1-1.3c-0.1,0.3-0.1,0.6-0.2,0.9c0,0.3-0.3,0.3-0.8,0
		c-0.5-0.3-2.2-1.2-2.2-1.2s-0.4-0.2-0.4,0.3c0.2,1.2,1,2.2,2.1,2.8l1.8,1.1L117,89.8z"/>
	
		<linearGradient id="SVGID_16_" gradientUnits="userSpaceOnUse" x1="-7105.5977" y1="-972.9182" x2="-7107.4204" y2="-971.5639" gradientTransform="matrix(-0.97 0.23 -0.23 -0.97 -7004.1553 781.5831)">
		<stop  offset="0" style="stop-color:#F6AFA8"/>
		<stop  offset="1" style="stop-color:#F6AFA8;stop-opacity:0"/>
	</linearGradient>
	<path class="st32" d="M117,89.8c-0.3-0.5-0.5-1.1-0.7-1.6c-0.1-0.5-0.7-1.9-1.1-1.3c-0.1,0.3-0.1,0.6-0.2,0.9c0,0.3-0.3,0.3-0.8,0
		c-0.5-0.3-2.2-1.2-2.2-1.2s-0.4-0.2-0.4,0.3c0.2,1.2,1,2.2,2.1,2.8l1.8,1.1L117,89.8z"/>
	
		<linearGradient id="SVGID_17_" gradientUnits="userSpaceOnUse" x1="127.5357" y1="182.239" x2="132.5872" y2="178.8047" gradientTransform="matrix(1 0 0 -1 0 279.8898)">
		<stop  offset="0" style="stop-color:#133E91;stop-opacity:0.4"/>
		<stop  offset="1" style="stop-color:#133E91;stop-opacity:0"/>
	</linearGradient>
	<path class="st33" d="M136.5,95.7l0.1,10.7l-8,0.1c0.1-1.4,0.7-7.7,0.8-9.5L136.5,95.7z"/>
	<path class="st5" d="M116.7,88.7l-1.9,2.4c0,0,3.3,5.1,8.4,7.8c5,2.7,6.3,2.1,6.3,2.1s2-0.4,6.3-5.5l-4.1-3.8
		c-1.3,1.1-2.5,2.5-3.4,4C128.2,95.7,120.2,89.1,116.7,88.7z"/>
	
		<linearGradient id="SVGID_18_" gradientUnits="userSpaceOnUse" x1="136.2221" y1="181.1223" x2="140.5879" y2="189.3623" gradientTransform="matrix(0.9964 8.472133e-02 8.472133e-02 -0.9964 -33.3438 273.8145)">
		<stop  offset="0" style="stop-color:#133E91;stop-opacity:0.4"/>
		<stop  offset="1" style="stop-color:#133E91;stop-opacity:0"/>
	</linearGradient>
	<path class="st34" d="M116.7,88.7l-1.9,2.4c0,0,3.3,5.1,8.4,7.8c5,2.7,6.3,2.1,6.3,2.1s2-0.4,6.3-5.5l-4.1-3.8
		c-1.3,1.1-2.5,2.5-3.4,4C128.2,95.7,120.2,89.1,116.7,88.7z"/>
	<path class="st18" d="M13.1,127.4c-0.4,0.6-0.9,1.2-1.5,1.6c-1.2,1-1.6,3.5-2.8,3.7S7.9,132,8.4,130c0.7-2.4,1.7-4.8,2.8-7
		c0.4-0.6,3.1,0.4,3.2,2.5L13.1,127.4z"/>
	<path class="st18" d="M25.8,150c0.4,0.6,0.8,1.3,0.9,2c0.4,1.5,2.6,2.8,2.4,3.9s-1,0.6-2.6-0.6c-2-1.6-3.8-3.3-5.5-5.1
		c-0.4-0.6,1.5-2.7,3.5-2.1L25.8,150z"/>
	<path class="st27" d="M27.9,134c0,0-4,8.3-4.9,14l3.4,3.2c0,0,9.7-15.8,9.4-19.8L27.9,134z"/>
	
		<linearGradient id="SVGID_19_" gradientUnits="userSpaceOnUse" x1="-22.818" y1="127.7881" x2="-29.8923" y2="115.9481" gradientTransform="matrix(0.9718 -0.2357 -0.2357 -0.9718 85.1028 247.6766)">
		<stop  offset="0" style="stop-color:#133E91;stop-opacity:0.4"/>
		<stop  offset="1" style="stop-color:#133E91;stop-opacity:0"/>
	</linearGradient>
	<path class="st35" d="M27.9,134c0,0-4,8.3-4.9,14l3.4,3.2c0,0,9.7-15.8,9.4-19.8L27.9,134z"/>
	<path class="st23" d="M23.2,111.1c0,0,1.2,10.5,5.8,16.3c0,0-13.8-3.2-14.8-3.1l-1.7,4c0,0,12.8,6.4,17,7.4s7.5-3.5,7.4-6.9
		s-0.5-18.3-1.9-19.2C33.6,108.6,23.2,111.1,23.2,111.1z"/>
	<path class="st16" d="M31,82.1c0.4,0.8,0.7,1.6,0.9,2.4c0.5,2-0.5,3.7-1,3.8s-1.3,0.1-1.3,0.1l-0.8,1.4l-2.3,0l0.9-3.4
		c0,0-1.2-2.8-0.3-3.3C28.1,82.7,31,82.1,31,82.1z"/>
	<path class="st21" d="M32.2,81.5c-0.2,1-2.4,1.7-2.4,1.7c0.3,0.4,0.2,1.1-0.2,1.4c0,0-0.1,0.1-0.1,0.1l-0.2-0.4
		c-0.1-0.2-0.2-0.3-0.4-0.4c-0.1-0.1-0.3-0.1-0.4-0.1c-0.1,0-0.3,0-0.4,0.1l0,0c-0.1,0-0.2,0.1-0.2,0.1c-0.6,0.3-0.1,1.1,0.2,1.5
		c0.1,0.1,0.2,0.3,0.2,0.5c0,0,0,0.1,0,0.1l0,0c-0.1,0.5-0.3,0.9-0.7,1.1c-0.7,0.4-1.4-1.7-2.7-2.2s-1.4-1.6-0.7-2
		c0.7-0.4-0.6-1.1,0.4-1.9c1-0.7,1.4-1.4,2.6-1.1c0.9,0.2,1.2,0.5,1.6,0.5c0.3,0,0.6-0.1,0.8-0.3c0.3-0.4,0.7-0.7,1.1-0.9
		C31.5,79,32.4,80.5,32.2,81.5z"/>
	<path class="st16" d="M42.6,79.4c0,0,0.7-1.5,0.6-2s0.2-1.2,0.4-1.2c0.2,0,0.5,0.1,0.6,0.8c0.1,0.7,0.7,0.2,0.7,0.2l0.3,2.3
		l-0.7,0.8L42.6,79.4z"/>
	
		<linearGradient id="SVGID_20_" gradientUnits="userSpaceOnUse" x1="26.6805" y1="183.1183" x2="25.9376" y2="183.2726" gradientTransform="matrix(0.9914 -0.1309 -0.1309 -0.9914 42.4746 263.3787)">
		<stop  offset="0" style="stop-color:#F6AFA8"/>
		<stop  offset="1" style="stop-color:#F6AFA8;stop-opacity:0"/>
	</linearGradient>
	<path class="st36" d="M42.6,79.4c0,0,0.7-1.5,0.6-2s0.2-1.2,0.4-1.2c0.2,0,0.5,0.1,0.6,0.8c0.1,0.7,0.7,0.2,0.7,0.2l0.3,2.3
		l-0.7,0.8L42.6,79.4z"/>
	<path class="st5" d="M28.9,90.2c0,0,4.7-2,7.5-2.3c0,0,3.1-7.8,6.2-8.6l2.4,0.6c0,0-1.1,7.1-3.2,9c-1.5,1.2-3.3,2.1-5.1,2.6
		l-7.3,0.7L28.9,90.2z"/>
	
		<linearGradient id="SVGID_21_" gradientUnits="userSpaceOnUse" x1="18.6316" y1="171.7016" x2="18.1859" y2="174.6159" gradientTransform="matrix(0.9914 -0.1309 -0.1309 -0.9914 42.4746 263.3787)">
		<stop  offset="0" style="stop-color:#133E91;stop-opacity:0.4"/>
		<stop  offset="1" style="stop-color:#133E91;stop-opacity:0"/>
	</linearGradient>
	<path class="st37" d="M28.9,90.2c0,0,4.7-2,7.5-2.3c0,0,3.1-7.8,6.2-8.6l2.4,0.6c0,0-1.1,7.1-3.2,9c-1.5,1.2-3.3,2.1-5.1,2.6
		l-7.3,0.7L28.9,90.2z"/>
	
		<linearGradient id="SVGID_22_" gradientUnits="userSpaceOnUse" x1="22.615" y1="172.1791" x2="18.2379" y2="176.2191" gradientTransform="matrix(0.9914 -0.1309 -0.1309 -0.9914 42.4746 263.3787)">
		<stop  offset="0" style="stop-color:#133E91;stop-opacity:0.4"/>
		<stop  offset="1" style="stop-color:#133E91;stop-opacity:0"/>
	</linearGradient>
	<path class="st38" d="M28.9,90.2c0,0,4.7-2,7.5-2.3c0,0,3.1-7.8,6.2-8.6l2.4,0.6c0,0-1.1,7.1-3.2,9c-1.5,1.2-3.3,2.1-5.1,2.6
		l-7.3,0.7L28.9,90.2z"/>
	<path class="st5" d="M27,89.1c0,0-2.7-0.1-3.9,3.9c-1.1,3.6-1,16.6-0.9,19c0,0.2,0.2,0.4,0.4,0.5c1.3,0.2,5.8,0.8,13.5-0.2
		c0.3,0,0.5-0.3,0.4-0.5c0,0,0,0,0,0c-0.4-2.8-2.6-16.6-4.9-20.9c0,0,0,0,0-0.1c-0.6-0.7-1.3-1.3-2.2-1.6C28.6,89.1,27.8,89,27,89.1
		z"/>
	
		<linearGradient id="SVGID_23_" gradientUnits="userSpaceOnUse" x1="-11.1066" y1="163.3745" x2="-18.1237" y2="158.6317" gradientTransform="matrix(0.9718 -0.2357 -0.2357 -0.9718 85.1028 247.6766)">
		<stop  offset="0" style="stop-color:#133E91;stop-opacity:0.4"/>
		<stop  offset="1" style="stop-color:#133E91;stop-opacity:0"/>
	</linearGradient>
	<path class="st39" d="M34.6,101.1l-6.1,1.5l-2.1-8.7l6-1.4C33.2,95.2,34,98.1,34.6,101.1z"/>
	<path class="st2" d="M52.7,64.9l2.1,1.4L44.1,82.1l-1.3-0.9c-0.4-0.3-0.6-1-0.2-1.4L52.7,64.9z"/>
	
		<linearGradient id="SVGID_24_" gradientUnits="userSpaceOnUse" x1="29.6383" y1="180.3743" x2="30.3469" y2="184.3229" gradientTransform="matrix(0.9914 -0.1309 -0.1309 -0.9914 42.4746 263.3787)">
		<stop  offset="0" style="stop-color:#FFD215"/>
		<stop  offset="0.52" style="stop-color:#FFE600"/>
		<stop  offset="1" style="stop-color:#FFE600"/>
	</linearGradient>
	<path class="st40" d="M52.7,64.9l2.1,1.4L44.1,82.1l-1.3-0.9c-0.4-0.3-0.6-1-0.2-1.4L52.7,64.9z"/>
	<polygon class="st7" points="49.8,73.7 48.2,76.1 47.6,72.4 49.2,70 	"/>
	<polygon class="st7" points="53,69 51.4,71.3 50.8,67.7 52.4,65.3 	"/>
	<path class="st16" d="M44.6,80.9c0.1-0.6,0.1-1.2,0.1-1.8c-0.1-0.5,0-2.1,0.6-1.6c0.2,0.3,0.3,0.5,0.5,0.8c0.1,0.3,0.4,0.2,0.8-0.3
		c0.4-0.4,1.6-1.9,1.6-1.9s0.3-0.3,0.4,0.1c0.2,1.2-0.2,2.5-1.1,3.4l-1.4,1.7L44.6,80.9z"/>
	
		<linearGradient id="SVGID_25_" gradientUnits="userSpaceOnUse" x1="30.0257" y1="181.4332" x2="28.1686" y2="182.8161" gradientTransform="matrix(0.9914 -0.1309 -0.1309 -0.9914 42.4746 263.3787)">
		<stop  offset="0" style="stop-color:#F6AFA8"/>
		<stop  offset="1" style="stop-color:#F6AFA8;stop-opacity:0"/>
	</linearGradient>
	<path class="st41" d="M44.6,80.9c0.1-0.6,0.1-1.2,0.1-1.8c-0.1-0.5,0-2.1,0.6-1.6c0.2,0.3,0.3,0.5,0.5,0.8c0.1,0.3,0.4,0.2,0.8-0.3
		c0.4-0.4,1.6-1.9,1.6-1.9s0.3-0.3,0.4,0.1c0.2,1.2-0.2,2.5-1.1,3.4l-1.4,1.7L44.6,80.9z"/>
	<path class="st5" d="M30.6,91.3c0,0,4.3-2.1,6.9-2.6c0,0,3.7-6.7,6.6-7.9c0,0,0.7-0.6,2.6,0.7c0,0,1.2,1.2-3.6,10.3
		c-0.6,1.1-1.5,2-2.7,2.5c-2.7,1.1-5.5,1.8-8.4,2c-4.2,0.1-5.8-0.2-6.7-2C24.3,92.3,30.6,91.3,30.6,91.3z"/>
	
		<linearGradient id="SVGID_26_" gradientUnits="userSpaceOnUse" x1="19.406" y1="163.2002" x2="17.886" y2="169.2802" gradientTransform="matrix(0.9914 -0.1309 -0.1309 -0.9914 42.4746 263.3787)">
		<stop  offset="0" style="stop-color:#133E91;stop-opacity:0.4"/>
		<stop  offset="1" style="stop-color:#133E91;stop-opacity:0"/>
	</linearGradient>
	<path class="st42" d="M30.6,91.3c0,0,4.3-2.1,6.9-2.6c0,0,3.7-6.7,6.6-7.9c0,0,0.7-0.6,2.6,0.7c0,0,1.2,1.2-3.6,10.3
		c-0.6,1.1-1.5,2-2.7,2.5c-2.7,1.1-5.5,1.8-8.4,2c-4.2,0.1-5.8-0.2-6.7-2C24.3,92.3,30.6,91.3,30.6,91.3z"/>
	<circle class="st2" cx="81.6" cy="43.8" r="28.6"/>
	
		<linearGradient id="SVGID_27_" gradientUnits="userSpaceOnUse" x1="105.6929" y1="210.034" x2="87.0072" y2="230.2797" gradientTransform="matrix(1 0 0 -1 0 279.8898)">
		<stop  offset="0" style="stop-color:#FFD215"/>
		<stop  offset="1" style="stop-color:#FFDA00;stop-opacity:0"/>
	</linearGradient>
	<circle class="st43" cx="81.6" cy="43.8" r="28.6"/>
	<path class="st44" d="M75.6,58.1l-9.5-8.7c-0.3-0.3-0.3-0.7,0-1.1l2.9-3.1c0.3-0.3,0.8-0.3,1.1,0l6.1,5.6l17.6-16.7
		c0.3-0.3,0.8-0.3,1,0c0,0,0,0,0,0l2.9,3.1c0.3,0.3,0.3,0.8,0,1c0,0,0,0,0,0l-21,19.9C76.4,58.4,76,58.4,75.6,58.1
		C75.7,58.1,75.6,58.1,75.6,58.1z"/>
	<path class="st45" d="M75.6,56.1l-9.5-8.7c-0.3-0.3-0.3-0.7,0-1.1l2.9-3.1c0.3-0.3,0.7-0.3,1-0.1c0,0,0,0,0,0l6.1,5.6l17.6-16.7
		c0.3-0.3,0.8-0.3,1,0c0,0,0,0,0,0l2.9,3.1c0.3,0.3,0.3,0.8,0,1c0,0,0,0,0,0L76.7,56.1C76.4,56.4,75.9,56.4,75.6,56.1z"/>
</g>
</svg>
