<svg width="280" height="280" viewBox="0 0 280 280" fill="none" xmlns="http://www.w3.org/2000/svg">
<path d="M140 277.96C216.215 277.96 278 216.184 278 139.98C278 63.7757 216.215 2 140 2C63.7847 2 2 63.7757 2 139.98C2 216.184 63.7847 277.96 140 277.96Z" fill="url(#paint0_linear_3042_1843)"/>
<path d="M114 217.199L114.37 216.459C76.6799 197.652 42.9299 171.715 28.3699 150.378L27.6899 150.848C42.3499 172.285 76.2199 198.331 114 217.199Z" fill="#C9DEFF"/>
<path d="M21.26 146.869C23.42 149.868 28.88 151.548 28.88 151.548C28.88 151.548 29.07 145.839 26.88 142.819C24.69 139.8 22.58 139.49 21.02 140.61C19.46 141.73 19.1 143.849 21.26 146.869Z" fill="#C9DEFF"/>
<path d="M35 155.218C35 159.047 38.61 163.707 38.61 163.707C38.61 163.707 42.18 159.017 42.16 155.188C42.14 151.358 40.54 149.819 38.56 149.829C36.58 149.839 35 151.388 35 155.218Z" fill="#C9DEFF"/>
<path d="M46.3 165.646C46.3 169.756 50.17 174.745 50.17 174.745C50.17 174.745 53.99 169.746 53.98 165.616C53.97 161.487 52.23 159.867 50.11 159.877C47.99 159.887 46.28 161.547 46.3 165.646Z" fill="#C9DEFF"/>
<path d="M57.48 173.435C56.98 177.324 60.01 182.544 60.01 182.544C60.01 182.544 64.26 178.264 64.76 174.375C65.26 170.485 63.83 168.706 61.82 168.446C59.81 168.186 58 169.545 57.48 173.435Z" fill="#C9DEFF"/>
<path d="M67.1899 183.054C67.5899 186.953 71.7399 191.333 71.7399 191.333C71.7399 191.333 74.8899 186.203 74.4899 182.334C74.0899 178.464 72.2799 177.035 70.2699 177.245C68.2599 177.455 66.7799 179.154 67.1899 183.054Z" fill="#C9DEFF"/>
<path d="M78.35 192.342C79.43 196.122 84.27 199.711 84.27 199.711C84.27 199.711 86.48 194.112 85.41 190.343C84.34 186.573 82.32 185.493 80.41 186.053C78.5 186.613 77.28 188.573 78.35 192.342Z" fill="#C9DEFF"/>
<path d="M91.1001 200.151C92.1701 203.971 97.0001 207.52 97.0001 207.52C97.0001 207.52 99.2201 201.921 98.1401 198.141C97.0601 194.362 95.0601 193.302 93.1401 193.852C91.2201 194.402 90.0001 196.382 91.1001 200.151Z" fill="#C9DEFF"/>
<path d="M26.11 163.077C30.11 163.077 34.93 159.327 34.93 159.327C34.93 159.327 30.06 155.628 26.08 155.638C22.1 155.648 20.51 157.328 20.51 159.377C20.51 161.427 22.13 163.097 26.11 163.077Z" fill="#C9DEFF"/>
<path d="M38.7101 175.385C42.3401 174.995 46.4001 171.115 46.4001 171.115C46.4001 171.115 41.6001 168.206 37.9701 168.596C34.3401 168.986 33.0501 170.675 33.2501 172.545C33.4501 174.415 35.0801 175.785 38.7101 175.385Z" fill="#C9DEFF"/>
<path d="M50 186.913C53.59 185.263 56.42 179.914 56.42 179.914C56.42 179.914 50.49 178.574 46.9 180.234C43.31 181.894 42.56 184.064 43.41 185.913C44.26 187.763 46.38 188.573 50 186.913Z" fill="#C9DEFF"/>
<path d="M59.9401 194.592C63.5301 192.932 66.3601 187.593 66.3601 187.593C66.3601 187.593 60.4401 186.263 56.8401 187.913C53.2401 189.563 52.5001 191.742 53.3601 193.592C54.2201 195.442 56.3501 196.242 59.9401 194.592Z" fill="#C9DEFF"/>
<path d="M71.0001 202.171C74.7001 200.791 77.9201 195.632 77.9201 195.632C77.9201 195.632 72.1101 193.862 68.4001 195.252C64.6901 196.642 63.7901 198.742 64.5101 200.651C65.2301 202.561 67.3101 203.561 71.0001 202.171Z" fill="#C9DEFF"/>
<path d="M82.7399 209.97C86.4399 208.59 89.6599 203.431 89.6599 203.431C89.6599 203.431 83.8499 201.661 80.1399 203.051C76.4299 204.441 75.5299 206.54 76.2399 208.46C76.9499 210.38 78.9999 211.31 82.7399 209.97Z" fill="#C9DEFF"/>
<path d="M95.29 217.229C99 215.839 102.22 210.69 102.22 210.69C102.22 210.69 96.41 208.91 92.7 210.3C88.99 211.689 88.09 213.789 88.8 215.709C89.51 217.629 91.59 218.608 95.29 217.229Z" fill="#C9DEFF"/>
<path d="M151.79 169.435L150.98 169.595C142.64 128.311 126.39 88.9872 109.59 69.39L110.21 68.8501C127.11 88.5372 143.43 127.982 151.79 169.435Z" fill="#C9DEFF"/>
<path d="M108.06 61.5515C110.41 64.4311 110.59 70.1302 110.59 70.1302C110.59 70.1302 105 68.8204 102.68 65.9909C100.36 63.1613 100.59 60.9916 102.08 59.7518C103.57 58.5119 105.71 58.6719 108.06 61.5515Z" fill="#C9DEFF"/>
<path d="M112.54 76.9892C116.23 77.9891 119.79 82.6884 119.79 82.6884C119.79 82.6884 114.34 84.9081 110.64 83.8982C106.94 82.8884 105.89 80.8986 106.41 79.0189C106.93 77.1392 108.84 75.9894 112.54 76.9892Z" fill="#C9DEFF"/>
<path d="M119.67 90.6172C123.67 91.697 127.44 96.7263 127.44 96.7263C127.44 96.7263 121.6 99.106 117.64 98.0161C113.68 96.9263 112.54 94.8366 113.1 92.7969C113.66 90.7572 115.71 89.5274 119.67 90.6172Z" fill="#C9DEFF"/>
<path d="M124.27 103.445C128.16 103.975 132.4 108.255 132.4 108.255C132.4 108.255 127.17 111.254 123.28 110.704C119.39 110.154 118.05 108.335 118.28 106.335C118.51 104.335 120.39 102.906 124.27 103.445Z" fill="#C9DEFF"/>
<path d="M131 115.323C134.66 116.723 137.81 121.872 137.81 121.872C137.81 121.872 132.03 123.572 128.36 122.162C124.69 120.753 123.82 118.653 124.55 116.763C125.28 114.873 127.37 113.914 131 115.323Z" fill="#C9DEFF"/>
<path d="M137.09 128.521C140.45 130.521 142.66 136.15 142.66 136.15C142.66 136.15 136.66 136.83 133.31 134.81C129.96 132.791 129.44 130.561 130.48 128.811C131.52 127.062 133.73 126.502 137.09 128.521Z" fill="#C9DEFF"/>
<path d="M141.3 142.849C144.67 144.849 146.88 150.478 146.88 150.478C146.88 150.478 140.88 151.158 137.52 149.138C134.16 147.119 133.65 144.899 134.7 143.139C135.75 141.38 137.94 140.83 141.3 142.849Z" fill="#C9DEFF"/>
<path d="M122.45 70.46C121.45 74.2995 116.53 77.9889 116.53 77.9889C116.53 77.9889 114.22 72.3298 115.27 68.4903C116.32 64.6509 118.36 63.551 120.34 64.091C122.32 64.6309 123.5 66.6206 122.45 70.46Z" fill="#C9DEFF"/>
<path d="M131.05 85.8378C129.72 89.2374 124.92 92.1369 124.92 92.1369C124.92 92.1369 123.36 86.7477 124.69 83.3482C126.02 79.9487 127.98 79.1388 129.69 79.8187C131.4 80.4986 132.38 82.4283 131.05 85.8378Z" fill="#C9DEFF"/>
<path d="M139.25 99.7058C136.71 102.705 130.78 104.065 130.78 104.065C130.78 104.065 131 97.986 133.57 94.9864C136.14 91.9869 138.4 91.7869 139.96 93.0967C141.52 94.4065 141.78 96.6662 139.25 99.7058Z" fill="#C9DEFF"/>
<path d="M144.06 111.334C141.52 114.334 135.59 115.693 135.59 115.693C135.59 115.693 135.84 109.624 138.38 106.585C140.92 103.545 143.21 103.395 144.77 104.705C146.33 106.015 146.59 108.294 144.06 111.334Z" fill="#C9DEFF"/>
<path d="M148.49 123.982C146.19 127.192 140.37 128.981 140.37 128.981C140.37 128.981 140.18 122.902 142.48 119.693C144.78 116.483 147.06 116.143 148.72 117.333C150.38 118.523 150.8 120.783 148.49 123.982Z" fill="#C9DEFF"/>
<path d="M152.92 137.331C150.62 140.55 144.8 142.33 144.8 142.33C144.8 142.33 144.6 136.261 146.91 133.041C149.22 129.822 151.48 129.502 153.14 130.692C154.8 131.881 155.22 134.121 152.92 137.331Z" fill="#C9DEFF"/>
<path d="M156.69 151.358C154.39 154.568 148.58 156.358 148.58 156.358C148.58 156.358 148.38 150.278 150.68 147.069C152.98 143.859 155.26 143.519 156.92 144.709C158.58 145.899 159 148.139 156.69 151.358Z" fill="#C9DEFF"/>
<path d="M244.74 157.767C227.35 165.976 219.12 182.764 209.74 185.023C200.36 187.283 197.74 187.183 192.14 177.715C186.54 168.246 169.26 172.525 161.4 197.772C153.54 223.018 160.47 255.893 160.47 255.893H203.1C207.843 255.732 212.566 255.211 217.23 254.333C234.487 242.696 248.886 227.305 259.346 209.311C269.807 191.318 276.057 171.191 277.63 150.438C266.283 150.629 255.094 153.122 244.74 157.767Z" fill="url(#paint1_linear_3042_1843)"/>
<path d="M125.87 207.1C110.87 206.261 108.8 217.559 101.11 205.381C93.4201 193.203 82.8201 187.973 69.1701 197.602C55.5201 207.23 52.5201 210.26 43.5301 202.971C34.5401 195.682 23.1101 186.723 18.9401 200.791C18.5355 202.219 18.3302 203.697 18.3301 205.181C32.6347 231.821 55.284 253.035 82.805 265.569C110.326 278.103 141.199 281.265 170.69 274.571C174.17 271.721 176.19 269.821 176.19 269.821L154 233.367C154 233.367 140.84 207.97 125.87 207.1Z" fill="url(#paint2_linear_3042_1843)"/>
<path d="M238.37 102.835H177.26V134.371H238.37V102.835Z" fill="#E99E9C"/>
<path d="M220.84 251.814C208.69 237.316 196.51 222.818 194.18 220.069C189.28 214.349 193.69 201.281 189.93 191.153C186.17 181.024 182.74 179.224 182.74 179.224C182.74 179.224 122.61 179.714 112.15 176.775C101.69 173.835 99.57 166.156 95.48 155.368C93.5343 168.391 96.5074 181.672 103.82 192.623C111.595 203.865 120.582 214.219 130.62 223.498L156.76 276.96C179.909 274.155 201.962 265.501 220.84 251.814Z" fill="#FEC6BD"/>
<path d="M212.91 156.078L24.22 115.733V121.653C24.22 124.152 25.95 126.742 29.33 128.732L142.6 195.352C148.84 199.021 158.32 199.241 163.78 195.842L209.19 167.646C211.71 166.076 212.93 164.016 212.91 161.887V156.078Z" fill="url(#paint3_linear_3042_1843)"/>
<path d="M209.19 161.677L163.78 189.883C158.32 193.272 148.84 193.052 142.6 189.393L29.3399 122.763C23.0999 119.103 22.4799 113.374 27.9399 109.984L73.3499 81.7785C78.8099 78.389 88.3499 78.609 94.5299 82.2785L207.79 148.899C214 152.568 214.65 158.287 209.19 161.677Z" fill="url(#paint4_linear_3042_1843)"/>
<path d="M78.0001 84.3181L71.1001 88.5975C69.8401 89.3774 69.9801 90.7072 71.4201 91.5971C73.5301 92.8469 73.7501 94.7766 71.9001 95.9265L51.3001 108.715C50.1834 109.277 48.9454 109.557 47.6951 109.529C46.4448 109.502 45.2206 109.167 44.1301 108.555C43.3871 108.136 42.5526 107.906 41.7 107.885C40.8474 107.864 40.0027 108.053 39.2401 108.435L32.3401 112.724C29.1901 114.724 29.5501 117.983 33.1501 120.093L146.79 186.943C150.38 189.053 155.86 189.183 159.01 187.223L204.66 158.867C207.82 156.868 207.46 153.608 203.86 151.488L90.2001 84.5981C86.6001 82.4884 81.1301 82.3584 78.0001 84.3181Z" fill="#0055DA"/>
<path d="M51.4701 104.22C51.5072 103.84 51.016 103.482 50.3729 103.419C49.7298 103.356 49.1783 103.612 49.1412 103.992C49.1041 104.371 49.5953 104.729 50.2384 104.792C50.8815 104.855 51.4329 104.599 51.4701 104.22Z" fill="#37475E"/>
<path d="M64.43 96.2762L54 102.755C53.7477 102.89 53.4661 102.961 53.18 102.961C52.894 102.961 52.6123 102.89 52.36 102.755C51.88 102.475 51.83 102.025 52.25 101.755L62.68 95.2763C62.9331 95.144 63.2144 95.075 63.5 95.075C63.7856 95.075 64.0669 95.144 64.32 95.2763C64.8 95.5763 64.85 95.9862 64.43 96.2762Z" fill="#37475E"/>
<path d="M115.46 130.611C115.51 130.589 115.565 130.577 115.62 130.577C115.675 130.577 115.73 130.589 115.78 130.611H115.89L116.74 131.051L116.82 131.111C116.88 131.171 116.87 131.241 116.82 131.291L116.11 131.711C115.997 131.753 115.873 131.753 115.76 131.711H115.67L114.82 131.271C114.69 131.201 114.67 131.091 114.82 131.031L115.46 130.611Z" fill="white"/>
<path d="M122.56 128.511C123.129 128.204 123.762 128.031 124.409 128.007C125.055 127.982 125.699 128.107 126.29 128.371C126.724 128.55 127.139 128.771 127.53 129.031C128.38 129.661 128.33 130.401 127.38 130.971L126.75 131.341L125.59 132.041C125.521 132.074 125.446 132.09 125.37 132.09C125.294 132.09 125.219 132.074 125.15 132.041L124.29 131.601V131.541V131.491L125.46 130.801L125.94 130.511C126.59 130.121 126.56 129.731 125.84 129.361C125.528 129.173 125.17 129.073 124.805 129.073C124.44 129.073 124.082 129.173 123.77 129.361L123.29 129.651L122.13 130.341H122.04H121.8H121.69L120.83 129.891L120.72 129.771L120.79 129.651L121.95 128.951L122.56 128.511Z" fill="white"/>
<path d="M117.87 131.851C117.939 131.819 118.014 131.802 118.09 131.802C118.166 131.802 118.241 131.819 118.31 131.851L121.95 133.741L122.3 133.531L122.51 133.481H122.62H122.74L123.5 133.871C123.63 133.941 123.65 134.051 123.5 134.111L123.21 134.291C122.79 134.492 122.328 134.587 121.863 134.57C121.398 134.552 120.944 134.422 120.54 134.191L117.17 132.451C117.03 132.381 117.01 132.271 117.17 132.211L117.87 131.851Z" fill="white"/>
<path d="M113 132.081C113.069 132.049 113.144 132.032 113.22 132.032C113.296 132.032 113.371 132.049 113.44 132.081L119.44 135.221L119.8 135.001H120.01H120.24L121 135.391C121.13 135.461 121.15 135.571 121 135.641L120.7 135.821C120.277 136.019 119.814 136.113 119.348 136.096C118.882 136.079 118.426 135.95 118.02 135.721L112.24 132.721C112.11 132.661 112.09 132.551 112.24 132.491L113 132.081Z" fill="white"/>
<path d="M111.05 133.231H111.14H111.32H111.42H111.51V133.291L111.77 136.401L118.26 136.751L118.44 136.811V136.871V136.921L117.6 137.421H117.51H117.36L111.36 137.131C110.75 137.131 110.24 136.791 110.17 136.461L110.03 133.591V133.531L111.05 133.231Z" fill="white"/>
<path d="M106.64 135.861C106.706 135.827 106.78 135.809 106.855 135.809C106.93 135.809 107.003 135.827 107.07 135.861L114.13 139.511C114.26 139.581 114.28 139.691 114.13 139.761L113.43 140.181C113.324 140.222 113.206 140.222 113.1 140.181H112.98L105.98 136.531L105.91 136.471V136.391L106.64 135.861Z" fill="white"/>
<path d="M118.87 124.352C119.902 123.787 121.043 123.449 122.216 123.363C123.389 123.277 124.567 123.444 125.67 123.852L125.89 123.932C126.394 124.12 126.885 124.34 127.36 124.592L132.9 127.462C133.288 127.659 133.665 127.876 134.03 128.112C136.1 129.431 136.11 130.951 134.03 132.191L133.4 132.561L133.21 132.681L132.86 132.891L132.72 132.981C132.653 133.013 132.58 133.029 132.505 133.029C132.431 133.029 132.357 133.013 132.29 132.981L131.43 132.531C131.29 132.461 131.27 132.361 131.37 132.291L131.59 132.161L132.03 131.891L132.4 131.661C134.25 130.561 133.9 129.221 131.85 128.152L126.25 125.262C125.287 124.726 124.203 124.445 123.1 124.445C121.998 124.445 120.914 124.726 119.95 125.262L118.17 126.332L103.45 135.111C101.6 136.2 101.88 137.53 103.96 138.61L109.55 141.5C110.519 142.041 111.609 142.33 112.719 142.338C113.829 142.347 114.923 142.076 115.9 141.55L127.05 134.901L119.19 130.841C119.06 130.771 119.04 130.661 119.19 130.591L119.9 130.171C119.969 130.139 120.044 130.122 120.12 130.122C120.196 130.122 120.271 130.139 120.34 130.171L129.34 134.811C129.48 134.881 129.49 134.981 129.39 135.051L128.71 135.45L117 142.359C115.89 142.975 114.651 143.324 113.383 143.38C112.114 143.435 110.85 143.196 109.69 142.679C109.69 142.679 109.11 142.439 108.41 142.089L102.87 139.22C102.423 138.993 101.992 138.736 101.58 138.45L101.42 138.34C99.7801 137.11 99.9401 135.65 101.84 134.511L114.84 126.772L118.87 124.352Z" fill="white"/>
<path d="M130.62 223.498C130.62 223.498 104.62 218.759 92.3801 200.791C80.1401 182.824 80.2701 175.795 74.7101 166.466C69.1501 157.138 60.0001 153.268 59.0001 147.219C58.0001 141.17 69.1501 138.22 77.0001 141.83C83.8601 145.019 89.2201 148.329 93.3001 159.107C96.5801 167.776 105.53 173.495 111.62 177.305C113.15 178.235 130.62 223.498 130.62 223.498Z" fill="#FEC6BD"/>
<path d="M234 62.3113C221.41 60.0216 216.51 66.8906 211 72.6098C205.49 78.329 185.1 84.0381 171.05 85.8379C157 87.6376 128.56 100.546 121.7 102.505C114.84 104.465 113.86 108.505 118.1 111.164C122.34 113.824 129.54 115.084 137.71 113.944C145.88 112.804 159.94 108.875 166.47 108.225C173 107.575 218.11 111.814 220.07 119.823C222.03 127.832 221.07 128.972 212.22 128.322C203.37 127.672 199.64 127.502 192.45 123.252C185.26 119.003 179.71 116.253 169.58 115.414C159.45 114.574 155.03 115.084 152.09 118.683C149.15 122.283 152.91 125.382 156.34 127.992C159.77 130.601 175.46 143.51 180.69 145.469C185.92 147.429 210.1 154.128 220.56 158.707C231.02 163.287 246.66 167.606 266.15 167.246C269.4 167.186 272.47 166.966 275.41 166.686C277.133 157.888 278 148.945 278 139.98C278.03 117.282 272.437 94.9295 261.72 74.9195C258.96 73.7196 256.37 72.6198 254.01 71.6699C240.88 66.3607 238 63.0412 234 62.3113Z" fill="#FEC6BD"/>
<path d="M165.774 129.865C167.244 127.296 172.154 124.106 168.104 121.287C159.764 115.478 155.034 115.078 152.104 118.677C149.174 122.277 152.924 125.376 156.354 127.986C157.774 129.075 161.354 131.985 165.354 135.064C164.759 133.349 164.911 131.463 165.774 129.865Z" fill="url(#paint5_linear_3042_1843)"/>
<path d="M165.779 129.866C167.249 127.297 172.149 124.107 168.109 121.288C159.769 115.479 155.029 115.079 152.109 118.678C149.189 122.278 152.929 125.377 156.359 127.986C157.789 129.076 161.359 131.986 165.359 135.055C165.066 134.208 164.952 133.31 165.025 132.417C165.097 131.523 165.354 130.655 165.779 129.866Z" fill="url(#paint6_linear_3042_1843)"/>
<path d="M220.069 119.818C222.069 127.817 221.069 128.967 212.219 128.317C203.369 127.667 199.639 127.497 192.449 123.248C185.259 118.998 179.709 116.249 169.579 115.409C159.449 114.569 155.029 115.079 152.089 118.679C149.149 122.278 152.909 125.377 156.339 127.987C159.769 130.596 175.459 143.504 180.689 145.463C185.919 147.423 210.099 154.122 220.559 158.701C231.019 163.28 246.659 167.599 266.149 167.239C269.399 167.179 272.469 166.959 275.409 166.679C279.023 148.227 278.853 129.234 274.909 110.85C246.239 112.43 219.079 115.789 220.069 119.818Z" fill="url(#paint7_linear_3042_1843)"/>
<path d="M220.84 251.846C208.693 237.343 196.505 222.841 194.174 220.09C189.261 214.379 193.684 201.297 189.921 191.165C188.834 188.052 187.376 185.08 185.579 182.314L163.806 195.866C158.342 199.257 148.847 199.037 142.613 195.366L109.293 175.773L109.073 175.683C107.312 174.543 105.431 173.262 103.59 171.822C100.139 169.214 97.1869 166.005 94.8744 162.35C94.2658 161.317 93.7469 160.232 93.3235 159.11C89.231 148.328 83.8778 145.018 77.0137 141.827C69.149 138.176 58.0023 141.177 59.0029 147.228C60.0035 153.279 69.139 157.15 74.7023 166.471C80.2656 175.793 80.1155 182.834 92.3829 200.807C104.65 218.78 130.636 223.531 130.636 223.531L156.731 276.96C179.888 274.165 201.95 265.522 220.84 251.846Z" fill="url(#paint8_linear_3042_1843)"/>
<defs>
<linearGradient id="paint0_linear_3042_1843" x1="75.33" y1="16.8878" x2="202.411" y2="258.848" gradientUnits="userSpaceOnUse">
<stop stop-color="#EDF7FF"/>
<stop offset="1" stop-color="#EAF7FF" stop-opacity="0.2"/>
</linearGradient>
<linearGradient id="paint1_linear_3042_1843" x1="156.13" y1="204.611" x2="287.12" y2="202.39" gradientUnits="userSpaceOnUse">
<stop stop-color="#CDEAFF"/>
<stop offset="1" stop-color="#F4FAFF"/>
</linearGradient>
<linearGradient id="paint2_linear_3042_1843" x1="2771.41" y1="20412.8" x2="29478.6" y2="19575.9" gradientUnits="userSpaceOnUse">
<stop stop-color="#CDEAFF"/>
<stop offset="1" stop-color="#F4FAFF"/>
</linearGradient>
<linearGradient id="paint3_linear_3042_1843" x1="24.22" y1="156.997" x2="212.91" y2="156.997" gradientUnits="userSpaceOnUse">
<stop stop-color="#80B8EC"/>
<stop offset="0.24" stop-color="#7DB4ED"/>
<stop offset="0.47" stop-color="#72A9F2"/>
<stop offset="0.68" stop-color="#6097F9"/>
<stop offset="1" stop-color="#AFD6FB"/>
</linearGradient>
<linearGradient id="paint4_linear_3042_1843" x1="24.2199" y1="135.831" x2="212.91" y2="135.831" gradientUnits="userSpaceOnUse">
<stop stop-color="#C0DCFF"/>
<stop offset="1" stop-color="#D2E5FF"/>
</linearGradient>
<linearGradient id="paint5_linear_3042_1843" x1="172.415" y1="129.765" x2="147.481" y2="120.159" gradientUnits="userSpaceOnUse">
<stop stop-color="#F5AEA7"/>
<stop offset="1" stop-color="#F5AEA7" stop-opacity="0"/>
</linearGradient>
<linearGradient id="paint6_linear_3042_1843" x1="3362.12" y1="2542.28" x2="2894.07" y2="2362.67" gradientUnits="userSpaceOnUse">
<stop stop-color="#F4ADA6"/>
<stop offset="1" stop-color="#F4ADA6" stop-opacity="0"/>
</linearGradient>
<linearGradient id="paint7_linear_3042_1843" x1="210.069" y1="161.53" x2="216.216" y2="127.107" gradientUnits="userSpaceOnUse">
<stop stop-color="#F4ADA6"/>
<stop offset="1" stop-color="#F4ADA6" stop-opacity="0"/>
</linearGradient>
<linearGradient id="paint8_linear_3042_1843" x1="162.335" y1="182.75" x2="143.266" y2="204.805" gradientUnits="userSpaceOnUse">
<stop stop-color="#F5AEA7"/>
<stop offset="1" stop-color="#F5AEA7" stop-opacity="0"/>
</linearGradient>
</defs>
</svg>
