<svg width="24" height="24" viewBox="0 0 24 24" fill="none" xmlns="http://www.w3.org/2000/svg">
<path d="M22.156 15.164C21.9213 15.484 21.6227 15.7933 21.26 16.092C20.8973 16.3907 20.4813 16.6467 20.012 16.86C19.564 17.0733 19.0733 17.244 18.54 17.372C18.028 17.5 17.5053 17.564 16.972 17.564C16.0973 17.564 15.244 17.5 14.412 17.372C13.58 17.244 12.7907 17.0307 12.044 16.732C11.7453 16.604 11.372 16.476 10.924 16.348C10.4973 16.22 10.0493 16.1027 9.57999 15.996C9.11066 15.8893 8.65199 15.804 8.20399 15.74C7.77733 15.6547 7.40399 15.612 7.08399 15.612C6.65733 15.612 6.21999 15.6547 5.77199 15.74C5.34533 15.804 4.92933 15.9107 4.52399 16.06C4.13999 16.188 3.77733 16.3587 3.43599 16.572C3.09466 16.764 2.81733 16.988 2.60399 17.244L1.89999 16.636C2.13466 16.316 2.43333 16.0067 2.79599 15.708C3.15866 15.4093 3.56399 15.1533 4.01199 14.94C4.48133 14.7267 4.97199 14.556 5.48399 14.428C5.99599 14.3 6.52933 14.236 7.08399 14.236C7.95866 14.236 8.81199 14.3107 9.64399 14.46C10.4973 14.588 11.2973 14.8013 12.044 15.1C12.8973 15.4413 13.772 15.708 14.668 15.9C15.564 16.092 16.332 16.188 16.972 16.188C17.3773 16.188 17.804 16.156 18.252 16.092C18.7 16.0067 19.116 15.9 19.5 15.772C19.9053 15.6227 20.2787 15.452 20.62 15.26C20.9613 15.0467 21.2387 14.812 21.452 14.556L22.156 15.164ZM22.156 7.228C21.9213 7.548 21.6227 7.85734 21.26 8.156C20.8973 8.45467 20.4813 8.71067 20.012 8.924C19.564 9.13734 19.0733 9.308 18.54 9.436C18.028 9.564 17.5053 9.628 16.972 9.628C16.0973 9.628 15.244 9.564 14.412 9.436C13.58 9.308 12.7907 9.09467 12.044 8.796C11.7453 8.668 11.372 8.54 10.924 8.412C10.4973 8.284 10.0493 8.16667 9.57999 8.06C9.11066 7.95334 8.65199 7.868 8.20399 7.804C7.77733 7.71867 7.40399 7.676 7.08399 7.676C6.65733 7.676 6.21999 7.71867 5.77199 7.804C5.34533 7.868 4.92933 7.97467 4.52399 8.124C4.13999 8.252 3.77733 8.42267 3.43599 8.636C3.09466 8.828 2.81733 9.052 2.60399 9.308L1.89999 8.7C2.13466 8.38 2.43333 8.07067 2.79599 7.772C3.15866 7.47334 3.56399 7.21734 4.01199 7.004C4.48133 6.79067 4.97199 6.62 5.48399 6.492C5.99599 6.364 6.52933 6.3 7.08399 6.3C7.95866 6.3 8.81199 6.37467 9.64399 6.524C10.4973 6.652 11.2973 6.86534 12.044 7.164C12.8973 7.50534 13.772 7.772 14.668 7.964C15.564 8.156 16.332 8.252 16.972 8.252C17.3773 8.252 17.804 8.22 18.252 8.156C18.7 8.07067 19.116 7.964 19.5 7.836C19.9053 7.68667 20.2787 7.516 20.62 7.324C20.9613 7.11067 21.2387 6.876 21.452 6.62L22.156 7.228Z" fill="#171B1D" fill-opacity="0.5"/>
</svg>
