<svg width="12" height="6" viewBox="0 0 12 6" fill="none" xmlns="http://www.w3.org/2000/svg">
<path d="M11.078 4.5819C10.9607 4.7419 10.8113 4.89657 10.63 5.0459C10.4487 5.19524 10.2407 5.32324 10.006 5.4299C9.78201 5.53657 9.53668 5.6219 9.27001 5.6859C9.01401 5.7499 8.75268 5.7819 8.48601 5.7819C8.04868 5.7819 7.62201 5.7499 7.20601 5.6859C6.79001 5.6219 6.39535 5.51524 6.02201 5.3659C5.87268 5.3019 5.68601 5.2379 5.46201 5.1739C5.24868 5.1099 5.02468 5.05124 4.79001 4.9979C4.55535 4.94457 4.32601 4.9019 4.10201 4.8699C3.88868 4.82724 3.70201 4.8059 3.54201 4.8059C3.32868 4.8059 3.11001 4.82724 2.88601 4.8699C2.67268 4.9019 2.46468 4.95524 2.26201 5.0299C2.07001 5.0939 1.88868 5.17924 1.71801 5.2859C1.54735 5.3819 1.40868 5.4939 1.30201 5.6219L0.950012 5.3179C1.06735 5.1579 1.21668 5.00324 1.39801 4.8539C1.57935 4.70457 1.78201 4.57657 2.00601 4.4699C2.24068 4.36324 2.48601 4.2779 2.74201 4.2139C2.99801 4.1499 3.26468 4.1179 3.54201 4.1179C3.97935 4.1179 4.40601 4.15524 4.82201 4.2299C5.24868 4.2939 5.64868 4.40057 6.02201 4.5499C6.44868 4.72057 6.88601 4.8539 7.33401 4.9499C7.78201 5.0459 8.16601 5.0939 8.48601 5.0939C8.68868 5.0939 8.90201 5.0779 9.12601 5.0459C9.35001 5.00324 9.55801 4.9499 9.75001 4.8859C9.95268 4.81124 10.1393 4.7259 10.31 4.6299C10.4807 4.52324 10.6193 4.4059 10.726 4.2779L11.078 4.5819ZM11.078 0.613903C10.9607 0.773902 10.8113 0.928569 10.63 1.0779C10.4487 1.22724 10.2407 1.35524 10.006 1.4619C9.78201 1.56857 9.53668 1.6539 9.27001 1.7179C9.01401 1.7819 8.75268 1.8139 8.48601 1.8139C8.04868 1.8139 7.62201 1.7819 7.20601 1.7179C6.79001 1.6539 6.39535 1.54724 6.02201 1.3979C5.87268 1.3339 5.68601 1.2699 5.46201 1.2059C5.24868 1.1419 5.02468 1.08324 4.79001 1.0299C4.55535 0.976569 4.32601 0.933903 4.10201 0.901903C3.88868 0.859236 3.70201 0.837903 3.54201 0.837903C3.32868 0.837903 3.11001 0.859236 2.88601 0.901903C2.67268 0.933903 2.46468 0.987236 2.26201 1.0619C2.07001 1.1259 1.88868 1.21124 1.71801 1.3179C1.54735 1.4139 1.40868 1.5259 1.30201 1.6539L0.950012 1.3499C1.06735 1.1899 1.21668 1.03524 1.39801 0.885902C1.57935 0.736569 1.78201 0.608569 2.00601 0.501903C2.24068 0.395236 2.48601 0.309902 2.74201 0.245903C2.99801 0.181902 3.26468 0.149902 3.54201 0.149902C3.97935 0.149902 4.40601 0.187236 4.82201 0.261902C5.24868 0.325902 5.64868 0.432569 6.02201 0.581903C6.44868 0.752569 6.88601 0.885903 7.33401 0.981903C7.78201 1.0779 8.16601 1.1259 8.48601 1.1259C8.68868 1.1259 8.90201 1.1099 9.12601 1.0779C9.35001 1.03524 9.55801 0.981903 9.75001 0.917903C9.95268 0.843236 10.1393 0.757903 10.31 0.661902C10.4807 0.555236 10.6193 0.437903 10.726 0.309903L11.078 0.613903Z" fill="#216FEA"/>
</svg>
