<svg width="14" height="16" viewBox="0 0 14 16" fill="none" xmlns="http://www.w3.org/2000/svg">
<path d="M7.18328 3.69231C7.88394 3.69231 8.76223 3.20407 9.28526 2.55308C9.75894 1.96313 10.1043 1.13922 10.1043 0.31532C10.1043 0.203432 10.0945 0.0915448 10.0747 0C9.29512 0.0305149 8.35762 0.539097 7.79512 1.2206C7.35105 1.73935 6.94644 2.55308 6.94644 3.38716C6.94644 3.50922 6.96618 3.63128 6.97605 3.67196C7.02539 3.68214 7.10433 3.69231 7.18328 3.69231ZM4.71618 16C5.67341 16 6.09776 15.3388 7.29183 15.3388C8.50565 15.3388 8.7721 15.9797 9.83789 15.9797C10.8839 15.9797 11.5846 14.9828 12.2458 14.0064C12.9859 12.8875 13.2918 11.7889 13.3116 11.7381C13.2425 11.7177 11.2392 10.8735 11.2392 8.5035C11.2392 6.44882 12.8182 5.5232 12.907 5.452C11.8609 3.90591 10.2721 3.86523 9.83789 3.86523C8.66355 3.86523 7.70631 4.59758 7.10433 4.59758C6.45302 4.59758 5.59447 3.90591 4.57802 3.90591C2.64381 3.90591 0.679993 5.55372 0.679993 8.66624C0.679993 10.5989 1.41026 12.6434 2.30828 13.9657C3.07802 15.0846 3.74907 16 4.71618 16Z" fill="white"/>
</svg>
