<svg width="27" height="18" viewBox="0 0 27 18" fill="none" xmlns="http://www.w3.org/2000/svg">
<path fill-rule="evenodd" clip-rule="evenodd" d="M7.96163 0H7.6001L7.3749 0.282823L1.29666 7.91644C1.04426 8.23344 0.917969 8.61728 0.917969 9C0.917969 9.38272 1.04426 9.76656 1.29666 10.0836L7.3749 17.7172L7.6001 18H7.96163H25.2605C25.7406 18 26.1765 17.8045 26.4905 17.4905C26.8045 17.1765 27 16.7406 27 16.2605V1.73953C27 1.25938 26.8045 0.823467 26.4905 0.509495C26.1765 0.195524 25.7406 0 25.2605 0H7.96163ZM2.47011 8.8508L8.32315 1.5H25.2605C25.3268 1.5 25.3857 1.52599 25.4298 1.57016C25.474 1.61432 25.5 1.67318 25.5 1.73953V16.2605C25.5 16.3268 25.474 16.3857 25.4298 16.4298C25.3857 16.474 25.3268 16.5 25.2605 16.5H8.32315L2.47011 9.1492C2.43529 9.10547 2.41797 9.0533 2.41797 9C2.41797 8.9467 2.43529 8.89453 2.47011 8.8508ZM12.881 13.1797L16 10.0608L19.1189 13.1797L20.1796 12.1191L17.0606 9.00012L20.1796 5.88116L19.1189 4.8205L16 7.93946L12.881 4.8205L11.8204 5.88116L14.9393 9.00012L11.8204 12.1191L12.881 13.1797Z" fill="white"/>
</svg>
