<svg width="44" height="44" viewBox="0 0 44 44" fill="none" xmlns="http://www.w3.org/2000/svg">
<path d="M37.2778 6.11111H6.72228C5.37225 6.11111 4.27783 7.20553 4.27783 8.55556V37.8889C4.27783 39.2389 5.37225 40.3333 6.72228 40.3333H37.2778C38.6279 40.3333 39.7223 39.2389 39.7223 37.8889V8.55556C39.7223 7.20553 38.6279 6.11111 37.2778 6.11111Z" fill="#E6EEF1"/>
<path d="M37.2778 6.11111H6.72228C5.37225 6.11111 4.27783 7.20553 4.27783 8.55556V37.8889C4.27783 39.2389 5.37225 40.3333 6.72228 40.3333H37.2778C38.6279 40.3333 39.7223 39.2389 39.7223 37.8889V8.55556C39.7223 7.20553 38.6279 6.11111 37.2778 6.11111Z" fill="url(#paint0_linear_3994_26939)"/>
<path fill-rule="evenodd" clip-rule="evenodd" d="M6.72228 6.11111H37.2778C38.6279 6.11111 39.7223 7.20553 39.7223 8.55556V13.4444H4.27783V8.55556C4.27783 7.20553 5.37225 6.11111 6.72228 6.11111Z" fill="#508FEA"/>
<path fill-rule="evenodd" clip-rule="evenodd" d="M13.4444 3.66666C14.1194 3.66666 14.6666 4.21386 14.6666 4.88888V8.55554C14.6666 9.23056 14.1194 9.77777 13.4444 9.77777C12.7694 9.77777 12.2222 9.23056 12.2222 8.55554V4.88888C12.2222 4.21386 12.7694 3.66666 13.4444 3.66666Z" fill="#255299"/>
<path d="M14.2391 29.4311L16.0847 29.0767C16.1783 29.0609 16.2685 29.1193 16.2925 29.2111C16.483 29.8699 17.0983 30.3137 17.7836 30.2867C18.1728 30.2984 18.5487 30.1437 18.8169 29.8614C19.0852 29.5791 19.2206 29.1959 19.1891 28.8078C19.2269 28.3727 19.0703 27.9431 18.7615 27.6343C18.4527 27.3255 18.0231 27.1689 17.588 27.2067H17.1113C17.0168 27.2067 16.9402 27.1301 16.9402 27.0356V25.41C16.9402 25.3155 17.0168 25.2389 17.1113 25.2389H17.5636C17.9459 25.2648 18.3206 25.1234 18.5904 24.8513C18.8602 24.5791 18.9984 24.2032 18.9691 23.8211C19.0059 23.4632 18.883 23.1073 18.6334 22.8482C18.3837 22.5891 18.0326 22.4532 17.6736 22.4767C17.0371 22.4387 16.4784 22.8963 16.3902 23.5278C16.3902 23.6378 16.2925 23.6622 16.1825 23.65L14.3613 23.2956C14.3173 23.2933 14.2767 23.2714 14.2506 23.2358C14.2245 23.2003 14.2158 23.1549 14.2269 23.1122C14.5793 21.4603 16.1145 20.3353 17.7958 20.4967C18.6944 20.3874 19.5965 20.6712 20.2708 21.2752C20.945 21.8792 21.3259 22.7448 21.3158 23.65C21.3408 24.5908 20.8788 25.4779 20.0936 25.9967C21.0738 26.5592 21.6477 27.6312 21.5725 28.7589C21.5815 29.7157 21.1909 30.6329 20.4949 31.2895C19.7988 31.9461 18.8604 32.2825 17.9058 32.2178C16.2064 32.382 14.6444 31.273 14.2391 29.6144C14.2087 29.5571 14.2087 29.4884 14.2391 29.4311Z" fill="#37475E"/>
<path d="M22.8311 26.3755C22.724 25.188 22.8107 23.9909 23.0878 22.8311C23.5381 21.3399 24.9699 20.3667 26.5222 20.4967C28.072 20.3761 29.4984 21.3457 29.9567 22.8311C30.218 23.9933 30.3004 25.1885 30.2011 26.3755C30.3009 27.5666 30.2185 28.766 29.9567 29.9322C29.4977 31.4156 28.0699 32.3811 26.5222 32.2544C24.9734 32.3858 23.5428 31.4186 23.0878 29.9322C22.8106 28.7683 22.724 27.5672 22.8311 26.3755ZM26.4978 30.2867C27.0156 30.3378 27.4972 30.0151 27.6467 29.5167C27.8315 28.4803 27.8767 27.4239 27.7811 26.3755C27.8866 25.3243 27.8496 24.2636 27.6711 23.2222C27.5007 22.7299 27.0371 22.3997 26.5161 22.3997C25.9952 22.3997 25.5315 22.7299 25.3611 23.2222C25.185 24.2554 25.1398 25.3066 25.2267 26.3511C25.1395 27.3996 25.1847 28.455 25.3611 29.4922C25.5018 30.0054 25.993 30.3415 26.5222 30.2867H26.4978Z" fill="#37475E"/>
<path fill-rule="evenodd" clip-rule="evenodd" d="M30.5557 3.66666C31.2307 3.66666 31.7779 4.21386 31.7779 4.88888V8.55554C31.7779 9.23056 31.2307 9.77777 30.5557 9.77777C29.8807 9.77777 29.3335 9.23056 29.3335 8.55554V4.88888C29.3335 4.21386 29.8807 3.66666 30.5557 3.66666Z" fill="#255299"/>
<defs>
<linearGradient id="paint0_linear_3994_26939" x1="42.5823" y1="43.7767" x2="23.7822" y2="23.6338" gradientUnits="userSpaceOnUse">
<stop stop-color="#D1DEEE"/>
<stop offset="1" stop-color="#D1DEEE" stop-opacity="0"/>
</linearGradient>
</defs>
</svg>
