<svg xmlns="http://www.w3.org/2000/svg" width="36" height="36" viewBox="0 0 36 36">
    <defs>
        <linearGradient id="prefix__a" x1="108.069%" x2="53.034%" y1="110.062%" y2="53.13%">
            <stop offset="0%" stop-color="#D1DEEE"/>
            <stop offset="100%" stop-color="#D1DEEE" stop-opacity="0"/>
        </linearGradient>
    </defs>
    <g fill="none" fill-rule="evenodd">
        <path d="M0 0H36V36H0z"/>
        <rect width="29" height="28" x="3.5" y="5" fill="#E6EEF1" fill-rule="nonzero" rx="2"/>
        <rect width="29" height="28" x="3.5" y="5" fill="url(#prefix__a)" fill-rule="nonzero" rx="2"/>
        <path fill="#508FEA" d="M5.5 5h25c1.105 0 2 .895 2 2v4h-29V7c0-1.105.895-2 2-2z"/>
        <path fill="#255299" d="M11 3c.552 0 1 .448 1 1v3c0 .552-.448 1-1 1s-1-.448-1-1V4c0-.552.448-1 1-1z"/>
        <g fill="#37475E" fill-rule="nonzero">
            <path d="M.65 8.08l1.51-.29c.077-.013.15.035.17.11.156.539.66.902 1.22.88.318.01.626-.117.845-.348.22-.23.33-.544.305-.862.03-.356-.097-.707-.35-.96s-.604-.38-.96-.35H3c-.077 0-.14-.063-.14-.14V4.79c0-.077.063-.14.14-.14h.37c.313.021.62-.095.84-.317.22-.223.334-.53.31-.843.03-.293-.07-.584-.275-.796-.204-.212-.491-.323-.785-.304-.52-.031-.978.343-1.05.86 0 .09-.08.11-.17.1L.75 3.06c-.036-.002-.07-.02-.09-.049-.022-.029-.03-.066-.02-.101C.928 1.558 2.184.638 3.56.77c.735-.09 1.473.143 2.025.637.552.494.863 1.202.855 1.943.02.77-.358 1.496-1 1.92.802.46 1.272 1.337 1.21 2.26.007.783-.312 1.533-.882 2.07-.57.538-1.337.813-2.118.76-1.39.134-2.668-.773-3-2.13-.025-.047-.025-.103 0-.15zM7.68 5.58c-.088-.972-.017-1.951.21-2.9C8.258 1.46 9.43.664 10.7.77c1.268-.099 2.435.695 2.81 1.91.214.95.281 1.929.2 2.9.082.975.014 1.956-.2 2.91-.376 1.214-1.544 2.004-2.81 1.9-1.267.108-2.438-.684-2.81-1.9-.227-.952-.298-1.935-.21-2.91zm3 3.2c.424.042.818-.222.94-.63.151-.848.188-1.712.11-2.57.086-.86.056-1.728-.09-2.58-.14-.403-.519-.673-.945-.673-.426 0-.806.27-.945.673-.144.845-.181 1.705-.11 2.56-.071.858-.034 1.721.11 2.57.115.42.517.695.95.65h-.02z" transform="translate(11 16)"/>
        </g>
        <path fill="#255299" d="M25 3c.552 0 1 .448 1 1v3c0 .552-.448 1-1 1s-1-.448-1-1V4c0-.552.448-1 1-1z"/>
    </g>
</svg>
