<svg width="280" height="280" viewBox="0 0 280 280" fill="none" xmlns="http://www.w3.org/2000/svg">
<path d="M57.7308 114.668L57.2603 114.843C47.3442 93.5718 32.915 74.26 20.544 65.6483L20.8543 65.2818C33.2877 73.9402 47.7705 93.3191 57.7308 114.668Z" fill="#C9DEFF"/>
<path d="M18.6899 61.6072C20.4368 62.8842 21.2385 65.9315 21.2385 65.9315C21.2385 65.9315 17.777 65.8656 16.0301 64.5885C14.2832 63.3115 14.1702 62.1276 14.8564 61.3111C15.5425 60.4946 16.9435 60.3401 18.6899 61.6072Z" fill="#C9DEFF"/>
<path d="M23.2219 69.4058C25.5468 69.5221 28.2279 71.6394 28.2279 71.6394C28.2279 71.6394 25.2569 73.4674 22.9315 73.341C20.6062 73.2147 19.748 72.3004 19.8198 71.2066C19.8915 70.1129 20.9071 69.2889 23.2219 69.4058Z" fill="#C9DEFF"/>
<path d="M29.1153 75.9219C31.6007 76.0497 34.4696 78.3171 34.4696 78.3171C34.4696 78.3171 31.2852 80.2663 28.7999 80.1385C26.3145 80.0107 25.3824 79.0203 25.4698 77.8457C25.5573 76.6711 26.6814 75.8214 29.1153 75.9219Z" fill="#C9DEFF"/>
<path d="M33.4016 82.294C35.7834 82.1674 38.8163 83.946 38.8163 83.946C38.8163 83.946 36.0659 86.1622 33.6961 86.3282C31.3263 86.4942 30.2919 85.6493 30.2116 84.5136C30.1312 83.3779 31.0318 82.4601 33.4016 82.294Z" fill="#C9DEFF"/>
<path d="M38.8575 87.9134C41.204 88.2486 43.7006 90.6558 43.7006 90.6558C43.7006 90.6558 40.4667 92.2377 38.1229 91.9524C35.7791 91.667 34.9921 90.5889 35.2034 89.4877C35.4147 88.3865 36.511 87.5783 38.8575 87.9134Z" fill="#C9DEFF"/>
<path d="M44.0656 94.3261C46.3016 95.0271 48.2975 97.7909 48.2975 97.7909C48.2975 97.7909 44.8157 98.846 42.5771 98.0951C40.3384 97.3442 39.7603 96.245 40.1657 95.2235C40.5711 94.2019 41.8197 93.6256 44.0656 94.3261Z" fill="#C9DEFF"/>
<path d="M48.3083 101.56C50.5443 102.261 52.4903 105.028 52.4903 105.028C52.4903 105.028 49.0085 106.083 46.7599 105.332C44.5113 104.582 43.9531 103.482 44.3585 102.46C44.7639 101.439 46.0623 100.86 48.3083 101.56Z" fill="#C9DEFF"/>
<path d="M28.3305 64.7342C28.1671 66.9228 25.7142 69.4732 25.7142 69.4732C25.7142 69.4732 23.6569 66.6827 23.8204 64.4941C23.9838 62.3055 25.0565 61.4285 26.3018 61.5422C27.5471 61.656 28.4945 62.5556 28.3305 64.7342Z" fill="#C9DEFF"/>
<path d="M35.3046 72.0331C34.9223 74.0533 32.4272 76.1859 32.4272 76.1859C32.4272 76.1859 30.8431 73.4603 31.1772 71.4726C31.5112 69.4849 32.6255 68.8257 33.7538 68.9957C34.8822 69.1656 35.6785 70.0433 35.3046 72.0331Z" fill="#C9DEFF"/>
<path d="M41.8176 78.5562C40.681 80.4866 37.3074 81.8859 37.3074 81.8859C37.3074 81.8859 36.7222 78.5872 37.8688 76.6563C39.0154 74.7254 40.3459 74.3746 41.4436 74.9062C42.5412 75.4378 42.994 76.6237 41.8176 78.5562Z" fill="#C9DEFF"/>
<path d="M46.1187 84.2573C44.9722 86.1882 41.6086 87.5871 41.6086 87.5871C41.6086 87.5871 41.0234 84.2883 42.16 82.3579C43.2966 80.4276 44.6476 80.0857 45.7348 80.6079C46.8219 81.13 47.2658 82.3364 46.1187 84.2573Z" fill="#C9DEFF"/>
<path d="M50.292 90.565C49.3186 92.5567 46.0669 94.1796 46.0669 94.1796C46.0669 94.1796 45.2147 90.935 46.1976 88.9328C47.1805 86.9306 48.4968 86.5006 49.6201 86.9509C50.7434 87.4011 51.2754 88.5728 50.292 90.565Z" fill="#C9DEFF"/>
<path d="M54.5448 97.2385C53.5619 99.2407 50.3202 100.863 50.3202 100.863C50.3202 100.863 49.4675 97.6086 50.4509 95.6163C51.4343 93.6241 52.7396 93.1747 53.8729 93.6244C55.0061 94.0741 55.5303 95.2862 54.5448 97.2385Z" fill="#C9DEFF"/>
<path d="M58.4813 104.359C57.5111 106.41 54.2561 107.973 54.2561 107.973C54.2561 107.973 53.404 104.729 54.3874 102.737C55.3708 100.744 56.6861 100.295 57.8094 100.745C58.9327 101.195 59.4647 102.367 58.4813 104.359Z" fill="#C9DEFF"/>
<path d="M195.984 205.789C195.934 205.443 195.852 170.338 220.837 151.493C240.453 136.702 257.052 118.234 263.119 104.451L263.56 104.639C257.513 118.489 240.804 137.034 221.125 151.875C196.33 170.571 196.467 205.436 196.467 205.779L195.984 205.789Z" fill="#C9DEFF"/>
<path d="M266.859 101.675C265.945 103.635 262.991 105.166 262.991 105.166C262.991 105.166 262.274 101.91 263.237 99.9433C264.201 97.9762 265.349 97.6169 266.361 98.0545C267.372 98.492 267.781 99.7039 266.859 101.675Z" fill="#C9DEFF"/>
<path d="M259.864 107.924C260.264 110.115 258.689 113.141 258.689 113.141C258.689 113.141 256.144 110.838 255.752 108.635C255.359 106.432 256.114 105.383 257.264 105.175C258.413 104.967 259.471 105.72 259.864 107.924Z" fill="#C9DEFF"/>
<path d="M254.497 115.105C254.922 117.465 253.241 120.737 253.241 120.737C253.241 120.737 250.519 118.259 250.094 115.899C249.669 113.539 250.473 112.412 251.692 112.194C252.91 111.976 254.072 112.745 254.497 115.105Z" fill="#C9DEFF"/>
<path d="M248.908 120.764C249.61 122.943 248.429 126.254 248.429 126.254C248.429 126.254 245.535 124.254 244.793 122.072C244.05 119.889 244.727 118.721 245.855 118.364C246.983 118.008 248.206 118.576 248.908 120.764Z" fill="#C9DEFF"/>
<path d="M244.367 127.31C244.549 129.595 242.629 132.539 242.629 132.539C242.629 132.539 240.282 129.935 240.1 127.651C239.918 125.366 240.801 124.37 241.978 124.279C243.155 124.188 244.185 125.026 244.367 127.31Z" fill="#C9DEFF"/>
<path d="M238.949 133.863C238.738 136.144 236.341 138.724 236.341 138.724C236.341 138.724 234.473 135.738 234.696 133.465C234.919 131.192 235.946 130.356 237.122 130.467C238.298 130.578 239.205 131.535 238.949 133.863Z" fill="#C9DEFF"/>
<path d="M232.462 139.654C232.25 141.936 229.863 144.514 229.863 144.514C229.863 144.514 227.995 141.528 228.208 139.256C228.421 136.985 229.459 136.147 230.635 136.258C231.811 136.369 232.685 137.382 232.462 139.654Z" fill="#C9DEFF"/>
<path d="M225.745 145.044C225.524 147.327 223.137 149.906 223.137 149.906C223.137 149.906 221.269 146.919 221.482 144.648C221.695 142.376 222.742 141.537 223.918 141.648C225.094 141.759 225.966 142.822 225.745 145.044Z" fill="#C9DEFF"/>
<path d="M219.457 150.191C219.245 152.472 216.848 155.052 216.848 155.052C216.848 155.052 214.981 152.075 215.203 149.792C215.424 147.51 216.454 146.683 217.63 146.794C218.806 146.905 219.68 147.918 219.457 150.191Z" fill="#C9DEFF"/>
<path d="M211.479 157.38C211.81 159.643 210.089 162.709 210.089 162.709C210.089 162.709 207.573 160.261 207.241 157.989C206.91 155.716 207.766 154.673 208.902 154.507C210.037 154.341 211.143 155.078 211.479 157.38Z" fill="#C9DEFF"/>
<path d="M206.472 165.296C206.803 167.559 205.092 170.624 205.092 170.624C205.092 170.624 202.566 168.177 202.244 165.903C201.922 163.629 202.769 162.587 203.895 162.423C205.02 162.258 206.151 163.022 206.472 165.296Z" fill="#C9DEFF"/>
<path d="M265.799 111.487C263.52 111.901 260.346 110.265 260.346 110.265C260.346 110.265 262.744 107.624 265.024 107.211C267.303 106.797 268.408 107.594 268.621 108.774C268.833 109.954 268.089 111.072 265.799 111.487Z" fill="#C9DEFF"/>
<path d="M259.875 119.89C257.76 120.048 255.016 118.248 255.016 118.248C255.016 118.248 257.462 116.075 259.587 115.916C261.713 115.757 262.63 116.582 262.709 117.68C262.789 118.779 262 119.731 259.875 119.89Z" fill="#C9DEFF"/>
<path d="M254.65 127.697C252.408 127.126 250.212 124.308 250.212 124.308C250.212 124.308 253.466 122.905 255.712 123.505C257.958 124.106 258.608 125.242 258.313 126.395C258.017 127.548 256.882 128.269 254.65 127.697Z" fill="#C9DEFF"/>
<path d="M249.739 133.156C247.509 132.594 245.311 129.766 245.311 129.766C245.311 129.766 248.567 128.373 250.801 128.965C253.036 129.557 253.707 130.7 253.412 131.853C253.116 133.007 251.981 133.727 249.739 133.156Z" fill="#C9DEFF"/>
<path d="M244.193 138.689C241.925 138.283 239.535 135.665 239.535 135.665C239.535 135.665 242.676 134.036 244.954 134.44C247.232 134.844 247.969 135.958 247.757 137.129C247.545 138.3 246.47 139.093 244.193 138.689Z" fill="#C9DEFF"/>
<path d="M238.297 144.383C236.029 143.978 233.64 141.359 233.64 141.359C233.64 141.359 236.781 139.73 239.047 140.126C241.314 140.522 242.073 141.642 241.86 142.813C241.648 143.985 240.574 144.777 238.297 144.383Z" fill="#C9DEFF"/>
<path d="M231.871 149.903C229.603 149.497 227.203 146.88 227.203 146.88C227.203 146.88 230.354 145.25 232.621 145.646C234.887 146.041 235.636 147.163 235.435 148.343C235.234 149.523 234.147 150.297 231.871 149.903Z" fill="#C9DEFF"/>
<path d="M225.292 155.343C223.298 154.191 221.933 150.919 221.933 150.919C221.933 150.919 225.446 150.457 227.438 151.599C229.431 152.741 229.813 154.048 229.177 155.079C228.541 156.11 227.296 156.494 225.292 155.343Z" fill="#C9DEFF"/>
<path d="M219.284 160.136C216.995 159.865 214.446 157.391 214.446 157.391C214.446 157.391 217.489 155.574 219.787 155.844C222.086 156.114 222.887 157.178 222.746 158.359C222.606 159.54 221.571 160.397 219.284 160.136Z" fill="#C9DEFF"/>
<path d="M213.421 167.501C211.132 167.229 208.584 164.766 208.584 164.766C208.584 164.766 211.627 162.949 213.924 163.209C216.221 163.469 217.025 164.553 216.884 165.734C216.744 166.915 215.709 167.772 213.421 167.501Z" fill="#C9DEFF"/>
<path d="M208.78 174.96C206.528 175.42 203.344 173.856 203.344 173.856C203.344 173.856 205.677 171.184 207.931 170.734C210.185 170.284 211.284 171.042 211.528 172.227C211.772 173.413 211.044 174.508 208.78 174.96Z" fill="#C9DEFF"/>
<path d="M79.7346 104.188C79.7346 104.188 85.1168 94.2387 82.4978 88.8746C79.8787 83.5106 74.1359 85.4819 76.867 80.4402C79.5982 75.3984 81.608 70.6329 75.6375 67.7805C69.6669 64.9281 68.0105 64.4631 68.8029 59.9164C69.5952 55.3697 70.4645 49.6672 64.7726 50.9614C59.0806 52.2556 54.3825 62.9573 53.8386 70.5869C53.2948 78.2165 57.5164 84.362 56.4577 88.0575C55.3991 91.7531 54.8617 92.6439 50.492 92.7258C46.1222 92.8077 44.2261 99.6546 51.4469 107.307C58.6677 114.96 71.4165 118.973 71.4165 118.973L79.7346 104.188Z" fill="url(#paint0_linear_3256_2225)"/>
<path d="M75.1143 111.721C75.0491 111.656 69.5641 105.676 64.4617 93.6763C64.4617 93.6763 64.4617 93.6763 64.4662 93.6166C64.8063 89.0959 70.8971 77.7079 70.9559 77.5921C70.984 77.5397 70.9906 77.4783 70.9744 77.4211C70.9581 77.3638 70.9203 77.3151 70.8689 77.2852C70.8426 77.2702 70.8135 77.2607 70.7834 77.2575C70.7532 77.2543 70.7228 77.2573 70.6939 77.2664C70.665 77.2755 70.6383 77.2905 70.6155 77.3105C70.5927 77.3304 70.5743 77.3548 70.5613 77.3822C70.3279 77.8253 64.9406 87.9745 64.1084 92.9187L64.0315 92.7427C58.834 80.1451 62.5863 62.593 62.6167 62.4551C62.6228 62.4266 62.6232 62.3972 62.6179 62.3686C62.6126 62.3399 62.6018 62.3126 62.586 62.2882C62.5701 62.2637 62.5497 62.2427 62.5257 62.2262C62.5017 62.2096 62.4748 62.198 62.4463 62.1919C62.4179 62.1858 62.3885 62.1854 62.3599 62.1907C62.3312 62.196 62.3039 62.2068 62.2795 62.2226C62.2551 62.2385 62.234 62.259 62.2175 62.2829C62.201 62.3069 62.1894 62.3339 62.1833 62.3624C62.1698 62.5416 58.371 80.1804 63.6284 92.9127C64.8754 95.9096 66.2894 98.8342 67.8635 101.673C63.6192 102.615 59.0134 98.784 58.9666 98.7405C58.9444 98.7217 58.9186 98.7075 58.8909 98.6987C58.8632 98.6899 58.834 98.6866 58.805 98.6891C58.776 98.6915 58.7478 98.6997 58.7219 98.7131C58.6961 98.7265 58.6731 98.7448 58.6544 98.7671C58.6356 98.7893 58.6214 98.8151 58.6126 98.8428C58.6038 98.8705 58.6005 98.8998 58.603 98.9288C58.6054 98.9578 58.6136 98.986 58.6269 99.0119C58.6403 99.0377 58.6586 99.0607 58.6809 99.0795C59.2985 99.5892 59.957 100.047 60.6496 100.449C62.48 101.528 65.3165 102.803 68.0923 102.091C69.9788 105.631 72.2381 108.96 74.8316 112.02L74.8913 112.025C74.9268 112.055 74.971 112.073 75.0175 112.077C75.064 112.08 75.1104 112.069 75.15 112.044C75.1703 112.021 75.1855 111.994 75.1947 111.965C75.2039 111.936 75.207 111.905 75.2036 111.875C75.2002 111.844 75.1906 111.815 75.1752 111.789C75.1598 111.762 75.1391 111.739 75.1143 111.721Z" fill="#C9DEFF"/>
<path d="M107.98 48.9905L107.541 48.7508L109.207 47.7523C109.345 47.6647 109.492 47.5943 109.647 47.5426L156.842 30.038C157.49 29.8254 158.188 29.8219 158.839 30.028C159.489 30.234 160.058 30.6393 160.465 31.1864L213.259 108.324C214.08 109.652 214.547 111.168 214.617 112.728V117.85L212.98 118.799L107.391 55.8904V50.8178C107.407 50.1646 107.612 49.53 107.98 48.9905Z" fill="#D0E7FF"/>
<path d="M158.828 32.185L211.623 109.323C212.443 110.651 212.911 112.167 212.98 113.726V118.849L105.754 56.939V51.7665C105.787 51.068 106.016 50.3929 106.415 49.8188C106.814 49.2447 107.367 48.7949 108.01 48.5212L155.205 31.0267C155.854 30.812 156.554 30.8085 157.205 31.0166C157.856 31.2247 158.424 31.6337 158.828 32.185Z" fill="url(#paint1_linear_3256_2225)"/>
<path d="M214.238 110.561C214.121 110.167 213.981 109.78 213.819 109.403C213.749 109.243 213.679 109.093 213.599 108.943C213.595 108.917 213.595 108.89 213.599 108.863C213.515 108.703 213.418 108.549 213.31 108.404L160.465 31.1863C160.387 31.0735 160.3 30.9667 160.206 30.8668L159.916 30.6071C159.493 30.2616 158.99 30.0276 158.453 29.9264C157.916 29.8253 157.362 29.8602 156.842 30.028L109.647 47.5625C109.494 47.6215 109.347 47.6951 109.208 47.7822L107.561 48.7807C107.704 48.6936 107.854 48.62 108.01 48.561L155.206 31.0565C155.725 30.8868 156.28 30.851 156.817 30.9522C157.354 31.0534 157.857 31.2885 158.28 31.6356C158.488 31.8033 158.672 31.9981 158.828 32.2148L211.623 109.353C212.061 110.032 212.397 110.772 212.621 111.549C212.847 112.264 212.974 113.007 213 113.756V118.869L214.637 117.87V112.748C214.608 112.003 214.474 111.267 214.238 110.561Z" fill="url(#paint2_linear_3256_2225)"/>
<path d="M270 198.399L10 142.77V150.928C10 154.373 12.3952 157.918 17.0459 160.684L173.124 252.55C181.707 257.603 194.78 257.912 202.305 253.229L264.87 214.346C268.353 212.189 270.03 209.353 270 206.357V198.399Z" fill="url(#paint3_linear_3256_2225)"/>
<path d="M264.87 206.128L202.305 245.011C194.78 249.694 181.707 249.385 173.124 244.332L17.0458 152.466C8.46299 147.403 7.59472 139.484 15.1297 134.831L77.6945 95.9478C85.2195 91.2646 98.2933 91.5742 106.876 96.6268L262.954 188.493C271.537 193.556 272.405 201.444 264.87 206.128Z" fill="url(#paint4_linear_3256_2225)"/>
<path d="M84.1117 99.4426L74.6107 105.344C72.8642 106.432 73.0638 108.25 75.0498 109.418C77.964 111.136 78.2534 113.802 75.6985 115.409L47.2953 133.034C44.7404 134.621 40.3093 134.512 37.4051 132.804C36.3811 132.228 35.2313 131.912 34.0568 131.884C32.8822 131.856 31.7187 132.117 30.6686 132.644L21.1576 138.556C16.8163 141.252 17.3153 145.805 22.2754 148.721L178.862 240.877C183.852 243.793 191.357 243.972 195.699 241.266L258.573 202.173C262.914 199.467 262.415 194.914 257.455 191.998L100.868 99.8221C95.958 96.9163 88.4131 96.7466 84.1117 99.4426Z" fill="#E8F3FF"/>
<path d="M47.5426 126.883C47.5941 126.356 46.9199 125.858 46.0368 125.772C45.1536 125.685 44.3958 126.042 44.3443 126.569C44.2928 127.096 44.9669 127.594 45.8501 127.68C46.7333 127.767 47.491 127.409 47.5426 126.883Z" fill="#37475E"/>
<path d="M65.3993 115.939L51.038 124.926C50.6838 125.1 50.2925 125.186 49.8979 125.175C49.5032 125.165 49.117 125.059 48.7725 124.866C48.1039 124.476 48.044 123.867 48.6228 123.498L62.9841 114.571C63.3335 114.387 63.7222 114.291 64.1168 114.291C64.5115 114.291 64.9002 114.387 65.2496 114.571C65.9182 114.97 65.9781 115.579 65.3993 115.939Z" fill="#37475E"/>
<path d="M142.725 135.101L84.4212 171.208C82.9177 172.023 81.2381 172.458 79.5284 172.475C77.8187 172.493 76.1306 172.092 74.6108 171.308L48.0639 156.33C45.3094 154.742 45.2296 152.116 47.8942 150.469L106.198 114.361C107.701 113.546 109.381 113.111 111.09 113.094C112.8 113.077 114.488 113.477 116.008 114.261L142.555 129.239C145.309 130.827 145.389 133.453 142.725 135.101Z" fill="#F6F8FB"/>
<path d="M190.998 162.391L132.684 198.499C131.182 199.311 129.504 199.744 127.797 199.762C126.089 199.779 124.403 199.38 122.884 198.598L96.3272 183.62C93.5727 182.023 93.5028 179.396 96.1575 177.749L154.461 141.651C155.964 140.838 157.643 140.402 159.353 140.383C161.062 140.364 162.75 140.762 164.271 141.541L190.818 156.57C193.573 158.117 193.653 160.744 190.998 162.391Z" fill="#F6F8FB"/>
<path d="M240.359 192.108L182.056 228.206C180.553 229.02 178.873 229.455 177.163 229.473C175.454 229.49 173.765 229.089 172.246 228.305L145.699 213.327C142.934 211.739 142.864 209.113 145.519 207.466L203.872 171.318C205.374 170.504 207.052 170.069 208.76 170.051C210.468 170.034 212.155 170.435 213.673 171.218L240.23 186.197C242.944 187.834 243.014 190.46 240.359 192.108Z" fill="#F6F8FB"/>
<path d="M157.87 144.941L100.326 159.999C97.3315 160.878 98.1199 163.474 102.102 165.791L181.573 212.063C185.565 214.38 191.204 215.548 194.208 214.67L234.817 188.108L157.87 144.941Z" fill="url(#paint5_radial_3256_2225)"/>
<path d="M214.617 117.89L107.391 55.9802L103.08 58.4267C102.496 58.8115 102.012 59.3284 101.665 59.9356C101.318 60.5428 101.119 61.2231 101.084 61.9216V141.027C101.12 141.725 101.319 142.405 101.666 143.012C102.013 143.619 102.497 144.136 103.08 144.521L206.274 204.135C206.894 204.443 207.577 204.604 208.27 204.604C208.962 204.604 209.645 204.443 210.266 204.135L212.541 202.817C213.123 202.43 213.607 201.913 213.953 201.306C214.3 200.699 214.5 200.02 214.537 199.322L214.617 117.89Z" fill="url(#paint6_linear_3256_2225)"/>
<path d="M199.158 79.1667L113.06 29.4191C111.433 28.4804 110.066 29.2393 110.066 31.1266V138.351C110.126 139.38 110.429 140.381 110.949 141.271C111.469 142.161 112.193 142.916 113.06 143.473L199.188 193.221C200.824 194.169 202.182 193.401 202.182 191.513V84.2892C202.119 83.2568 201.812 82.254 201.287 81.3634C200.761 80.4728 200.031 79.7199 199.158 79.1667Z" fill="url(#paint7_linear_3256_2225)"/>
<path d="M204.657 79.1965C204.162 78.3795 203.477 77.6943 202.661 77.1994L116.533 27.3919C116.233 27.1743 115.88 27.0418 115.511 27.0084C115.142 26.975 114.771 27.0419 114.437 27.2021L111.064 29.1892C111.394 29.0638 111.75 29.0245 112.099 29.0752C112.449 29.1259 112.779 29.2648 113.06 29.4788L199.198 79.2165C200.021 79.7031 200.707 80.3901 201.194 81.2136C201.799 82.129 202.145 83.1922 202.192 84.2891V191.523C202.225 191.879 202.169 192.237 202.028 192.565C201.886 192.893 201.665 193.181 201.383 193.4L204.816 191.403C205.103 191.187 205.328 190.901 205.472 190.572C205.615 190.243 205.671 189.883 205.635 189.526V82.2621C205.582 81.1723 205.245 80.1155 204.657 79.1965Z" fill="url(#paint8_linear_3256_2225)"/>
<path d="M192.441 92.2974L120.814 50.9275C119.816 50.3684 119.078 50.7578 119.078 51.8063C119.12 52.39 119.3 52.9554 119.601 53.4568C119.903 53.9582 120.318 54.3814 120.814 54.6921L192.441 96.0919C193.439 96.651 194.187 96.2516 194.187 95.2131C194.147 94.6237 193.967 94.0523 193.664 93.5455C193.36 93.0388 192.941 92.6111 192.441 92.2974Z" fill="white"/>
<path d="M192.441 99.8266L120.814 58.4468C119.816 57.8876 119.078 58.287 119.078 59.3255C119.121 59.9104 119.301 60.4769 119.602 60.9798C119.904 61.4827 120.319 61.9079 120.814 62.2213L192.441 103.591C193.439 104.15 194.187 103.751 194.187 102.712C194.145 102.127 193.965 101.561 193.662 101.059C193.358 100.557 192.94 100.135 192.441 99.8266Z" fill="white"/>
<path d="M192.441 107.346L120.814 65.9659C119.816 65.4067 119.078 65.8061 119.078 66.8446C119.121 67.4294 119.301 67.996 119.602 68.4988C119.904 69.0017 120.319 69.4269 120.814 69.7404L192.441 111.07C193.439 111.629 194.187 111.24 194.187 110.192C194.139 109.613 193.956 109.055 193.653 108.561C193.349 108.066 192.934 107.65 192.441 107.346Z" fill="white"/>
<path d="M192.441 114.865L120.814 73.4849C119.816 72.9257 119.078 73.3251 119.078 74.3636C119.12 74.9487 119.299 75.5155 119.601 76.0185C119.903 76.5215 120.318 76.9466 120.814 77.2594L192.441 118.639C193.439 119.188 194.187 118.799 194.187 117.751C194.145 117.166 193.965 116.599 193.662 116.097C193.358 115.595 192.94 115.173 192.441 114.865Z" fill="white"/>
<path d="M192.441 122.384L120.814 81.0039C119.816 80.4448 119.078 80.8442 119.078 81.8827C119.12 82.4677 119.299 83.0346 119.601 83.5376C119.903 84.0405 120.318 84.4656 120.814 84.7785L192.441 126.158C193.439 126.707 194.187 126.318 194.187 125.27C194.145 124.685 193.965 124.118 193.662 123.616C193.358 123.115 192.94 122.692 192.441 122.384Z" fill="white"/>
<path d="M192.441 129.903L120.814 88.523C119.816 87.9738 119.078 88.3632 119.078 89.4017C119.12 89.9867 119.299 90.5536 119.601 91.0566C119.903 91.5596 120.318 91.9846 120.814 92.2975L192.441 133.677C193.439 134.226 194.187 133.837 194.187 132.799C194.145 132.212 193.965 131.644 193.662 131.141C193.358 130.638 192.94 130.213 192.441 129.903Z" fill="white"/>
<path d="M192.441 137.422L120.814 96.092C119.816 95.5428 119.078 95.9322 119.078 96.9807C119.12 97.5644 119.3 98.1299 119.601 98.6313C119.903 99.1326 120.318 99.5558 120.814 99.8665L192.441 141.246C193.439 141.806 194.187 141.406 194.187 140.368C194.153 139.773 193.977 139.195 193.673 138.682C193.369 138.169 192.946 137.737 192.441 137.422Z" fill="white"/>
<path opacity="0.4" d="M162.651 132.399L162.541 132.299L206.024 202.118L207.791 203.116C207.988 203.252 208.216 203.337 208.454 203.365C208.693 203.393 208.934 203.362 209.158 203.276L164.357 131.381L162.651 132.399Z" fill="white"/>
<path d="M101.084 61.4125C101.184 60.8333 101.483 60.6736 101.882 60.9432C102.079 61.092 102.25 61.2706 102.391 61.4724L102.621 61.7919L146.713 123.213L153.3 132.389C153.722 132.924 154.283 133.334 154.922 133.573C155.56 133.812 156.252 133.873 156.922 133.747L162.611 132.399L206.034 122.054C206.327 121.996 206.629 121.996 206.922 122.054C207.035 122.08 207.146 122.117 207.252 122.164L206.054 121.475L164.228 131.461L158.539 132.809C157.869 132.936 157.176 132.877 156.538 132.637C155.899 132.398 155.338 131.987 154.916 131.451L148.329 122.284L104.018 60.5437C103.882 60.3603 103.713 60.2044 103.519 60.0844L107.351 57.8776L105.745 56.949L103.08 58.4168C102.564 58.7576 102.122 59.1983 101.779 59.7127C101.436 60.2272 101.2 60.8052 101.084 61.4125Z" fill="#D0E7FF"/>
<path opacity="0.4" d="M146.763 123.212L153.34 132.389C153.764 132.925 154.327 133.335 154.967 133.574C155.607 133.813 156.301 133.873 156.972 133.747L162.651 132.399L162.541 132.299L162.272 131.86L158.549 132.749C157.877 132.875 157.184 132.815 156.544 132.575C155.904 132.336 155.341 131.926 154.916 131.391L148.399 122.314L146.763 123.212Z" fill="white"/>
<path d="M103.08 58.4167L105.734 56.8889L107.341 57.8176L103.499 60.0244C103.688 60.1506 103.856 60.3055 103.998 60.4837L148.319 122.224L148.379 122.304L146.742 123.202L102.66 61.7918L102.441 61.4723C102.297 61.2697 102.122 61.0911 101.922 60.943C101.533 60.6734 101.223 60.8332 101.124 61.4123C101.232 60.8071 101.461 60.2299 101.797 59.7152C102.133 59.2004 102.569 58.7588 103.08 58.4167Z" fill="#D0E7FF"/>
<path d="M205.156 123.352L214.617 117.89V199.362C214.579 200.06 214.379 200.739 214.033 201.346C213.686 201.953 213.203 202.47 212.621 202.857L210.345 204.175C209.725 204.483 209.042 204.644 208.349 204.644C207.657 204.644 206.974 204.483 206.353 204.175L205.216 203.516L205.156 123.352Z" fill="#00DABF"/>
<path d="M205.156 123.352L214.617 117.89V199.362C214.579 200.06 214.379 200.739 214.033 201.346C213.686 201.953 213.203 202.47 212.621 202.857L210.345 204.175C209.725 204.483 209.042 204.644 208.349 204.644C207.657 204.644 206.974 204.483 206.353 204.175L205.216 203.516L205.156 123.352Z" fill="url(#paint9_linear_3256_2225)"/>
<path d="M101.084 61.9217V141.027C101.116 141.736 101.333 142.424 101.713 143.024C102.013 143.541 102.413 143.992 102.89 144.352H102.98C103.018 144.385 103.058 144.415 103.1 144.442L206.294 204.045C206.491 204.185 206.721 204.273 206.962 204.301C207.202 204.329 207.446 204.296 207.671 204.205C207.846 204.102 207.993 203.956 208.097 203.782C208.202 203.607 208.261 203.409 208.27 203.206C208.28 203.087 208.28 202.966 208.27 202.847V123.852C208.286 123.568 208.233 123.285 208.116 123.027C207.998 122.768 207.82 122.542 207.597 122.367C207.373 122.192 207.111 122.074 206.831 122.023C206.552 121.972 206.265 121.99 205.994 122.074L162.611 132.399L156.922 133.747C156.252 133.872 155.56 133.812 154.922 133.573C154.283 133.334 153.723 132.924 153.3 132.389L146.713 123.213L102.661 61.7919L102.431 61.4723C101.683 60.4438 101.084 60.6335 101.084 61.9217Z" fill="url(#paint10_linear_3256_2225)"/>
<path d="M103.08 144.561C103.029 144.539 102.982 144.508 102.94 144.472H102.87C102.39 144.116 101.986 143.668 101.683 143.154C101.307 142.553 101.094 141.865 101.064 141.156L146.733 123.272L116.164 152.111L103.08 144.561Z" fill="#00DABF"/>
<path d="M103.08 144.561C103.029 144.539 102.982 144.508 102.94 144.472H102.87C102.39 144.116 101.986 143.668 101.683 143.154C101.307 142.553 101.094 141.865 101.064 141.156L146.733 123.272L116.164 152.111L103.08 144.561Z" fill="#D0E7FF"/>
<path d="M150.375 121.435L103.798 142.125C103.83 142.181 103.867 142.235 103.908 142.285L148.599 122.444C150.299 121.693 152.214 121.583 153.989 122.133C155.764 122.684 157.281 123.858 158.259 125.439L160.026 124.441C159.047 122.863 157.532 121.691 155.76 121.14C153.988 120.588 152.076 120.693 150.375 121.435Z" fill="#D0E7FF"/>
<path d="M101.703 143.113C102.006 143.628 102.41 144.076 102.89 144.432H102.96L206.293 204.125C206.491 204.265 206.721 204.352 206.962 204.38C207.202 204.408 207.446 204.375 207.671 204.285L158.25 125.349C157.261 123.766 155.735 122.592 153.952 122.041C152.169 121.491 150.247 121.602 148.539 122.354L101.703 143.113Z" fill="url(#paint11_linear_3256_2225)"/>
<path d="M204.547 121.815L206.054 121.445L207.251 122.144L208.908 121.185L214.617 117.88L213.04 116.942L204.547 121.815Z" fill="#D0E7FF"/>
<path d="M42.0205 216.56L42.1278 219.215L40.8792 219.615L40.7427 216.677L42.0205 216.56Z" fill="#FEC6BD"/>
<path d="M41.9916 218.902C42.4054 218.987 42.7972 219.157 43.1426 219.4C43.884 219.869 45.3277 219.625 45.6593 220.21C45.991 220.796 45.474 220.854 44.3035 220.932C42.8609 220.997 41.4155 220.941 39.9821 220.767C39.6115 220.659 39.6212 219.02 40.7137 218.551L41.9916 218.902Z" fill="#30343A"/>
<path d="M45.2491 199.587L42.4886 217.428L40.3816 217.35L39.3476 198.543C38.983 195.6 38.9242 192.627 39.172 189.671L45.2491 199.587Z" fill="#255299"/>
<path d="M45.2491 199.587L42.4886 217.428L40.3816 217.35L39.3476 198.543C38.983 195.6 38.9242 192.627 39.172 189.671L45.2491 199.587Z" fill="url(#paint12_linear_3256_2225)"/>
<path d="M50.1367 217.263L50.244 219.908L48.9954 220.308L48.8491 217.37L50.1367 217.263Z" fill="#FEC6BD"/>
<path d="M50.0975 219.595C50.5147 219.679 50.91 219.848 51.2583 220.093C51.9996 220.561 53.4336 220.317 53.775 220.903C54.1164 221.489 53.5799 221.537 52.4191 221.625C50.9765 221.685 49.5315 221.63 48.0978 221.459C47.7173 221.352 47.7369 219.712 48.8294 219.244L50.0975 219.595Z" fill="#30343A"/>
<path d="M50.4388 189.066C50.4388 189.066 50.7314 199.177 50.5266 206.8C50.3217 214.422 50.4388 217.848 50.4388 217.848L48.6244 218.053C48.6244 218.053 46.8198 213.339 45.3176 208.527C44.3615 205.258 43.763 201.893 43.5325 198.494C43.5325 198.494 38.2162 193.692 39.1722 187.68L50.4388 189.066Z" fill="#2A60B4"/>
<path d="M49.4729 160.538C49.4729 160.538 49.7948 162.246 49.8631 163.212C49.9899 165.271 48.8876 166.833 48.3219 166.803C47.7561 166.774 47.0245 166.696 47.0245 166.696L46.0003 168.033L43.6201 167.682L45.1516 164.373C45.1516 164.373 44.3907 161.328 45.3955 160.967C46.7376 160.693 48.1031 160.549 49.4729 160.538Z" fill="#FEC6BD"/>
<path d="M43.3473 167.311C43.3473 167.311 45.7762 167.048 46.42 167.585C47.0638 168.121 48.9659 170.21 49.7366 174.417C50.078 176.3 50.4584 189.056 50.4584 189.056C50.4584 189.056 38.5675 202.818 34.3047 202.271C34.3047 202.271 37.8066 180.214 39.4161 174.426C41.0256 168.639 43.3473 167.311 43.3473 167.311Z" fill="#6DB3FA"/>
<path d="M57.3354 176.486L56.3599 176.085C56.2428 176.085 56.2233 175.861 56.3599 175.705L57.8719 173.245C57.9694 173.079 58.1547 172.992 58.2718 173.05L59.2473 173.45C59.3643 173.499 59.3838 173.675 59.2473 173.831L57.7353 176.29C57.7 176.363 57.6415 176.422 57.569 176.457C57.4965 176.492 57.4142 176.503 57.3354 176.486Z" fill="#30343A"/>
<path d="M57.1694 177.51C57.1694 177.51 58.5253 176.671 58.5253 176.124C58.5253 175.578 59.0325 174.553 58.5253 174.699C58.0181 174.846 56.4866 176.749 56.4866 176.749L57.1694 177.51Z" fill="#FEC6BD"/>
<path d="M50.2926 183.63L50.4194 186.704C50.4194 186.704 48.049 188.656 45.3177 183.835C43.835 181.239 42.7717 174.563 42.7717 174.563L50.2926 183.63Z" fill="url(#paint13_linear_3256_2225)"/>
<path d="M48.3421 172.748C48.9198 174.926 49.63 177.068 50.4686 179.16C50.5954 179.501 56.3214 176.652 56.3214 176.652L57.4529 177.686C57.4529 177.686 49.4054 187.446 46.5375 182.752C44.9236 180.212 43.6479 177.472 42.7429 174.602L48.3421 172.748Z" fill="#6DB0F7"/>
<path d="M48.6343 159.005C49.3659 159.396 50.1755 161.807 49.8341 161.807C49.4927 161.807 48.088 161.807 47.7174 161.855L47.4735 162.831C47.4735 162.831 47.4735 162.168 46.8394 162.334C46.2054 162.5 46.5175 163.612 47.1028 163.788C47.1697 164.648 46.9608 165.508 46.5065 166.241C46.0522 166.975 45.3761 167.544 44.5764 167.868C41.65 169.195 42.5084 176.007 38.109 174.416C33.7097 172.826 35.7484 170.512 38.9479 166.735C42.1474 162.958 41.6792 161.855 43.201 160.069C43.8733 159.333 44.7641 158.832 45.7423 158.641C46.7204 158.449 47.7342 158.577 48.6343 159.005Z" fill="#37475E"/>
<path d="M133.184 246.08L134.302 247.892L134.987 247.441L134.189 245.46L133.184 246.08Z" fill="#FEC6BD"/>
<path d="M134.696 246.943L134.292 247.883C133.876 248.208 133.49 248.569 133.137 248.963C132.686 249.498 131.86 249.15 131.362 249.817C130.864 250.484 133.109 250.24 133.898 250.052C134.733 249.736 135.498 249.261 136.152 248.653C136.621 248.258 135.353 246.511 134.696 246.943Z" fill="#30343A"/>
<path d="M122.844 229.316C122.844 229.316 123.783 235.496 126.864 238.914C129.944 242.332 133.174 246.07 133.174 246.07L134.377 245.479C134.377 245.479 132.827 240.285 131.803 236.688C130.358 231.121 129.344 225.451 128.77 219.728L122.844 229.316Z" fill="#255296"/>
<path d="M122.844 229.316C122.844 229.316 123.783 235.496 126.864 238.914C129.944 242.332 133.174 246.07 133.174 246.07L134.377 245.479C134.377 245.479 132.827 240.285 131.803 236.688C130.358 231.121 129.344 225.451 128.77 219.728L122.844 229.316Z" fill="url(#paint14_linear_3256_2225)"/>
<path d="M113.228 246.549L112.336 248.953L113.369 249.695L114.374 247.028L113.228 246.549Z" fill="#FEC6BD"/>
<path d="M112.467 248.549C112.075 248.429 111.662 248.393 111.256 248.446C110.411 248.502 109.293 247.629 108.739 247.967C108.185 248.305 108.607 248.606 109.556 249.216C110.756 249.941 112.012 250.57 113.312 251.094C113.688 251.17 114.43 249.77 113.716 248.869L112.467 248.549Z" fill="#30343A"/>
<path d="M117.801 219.193C117.801 219.193 115.857 228.791 114.796 236.097C113.735 243.403 113.078 246.653 113.078 246.653L114.768 247.141C114.768 247.141 117.266 242.943 119.464 238.604C120.909 235.64 122.033 232.53 122.816 229.326C122.816 229.326 128.667 225.626 128.742 219.738L117.801 219.193Z" fill="#2A60B7"/>
<path d="M112.223 205.125C112.223 205.125 110.918 204.308 110.918 203.782C110.918 203.256 110.42 202.26 110.918 202.401C111.415 202.542 112.89 204.383 112.89 204.383L112.223 205.125Z" fill="#FEC6BD"/>
<path d="M119.952 198.617C119.952 198.617 116.881 205.848 116.562 207.069C116.243 208.29 115.294 207.069 114.449 206.083C113.604 205.097 112.928 204.392 112.928 204.392L112.223 205.134C112.223 205.134 114.59 211.586 116.177 212.365C117.764 213.145 119.933 211.727 119.933 211.727L119.952 198.617Z" fill="#508FEA"/>
<path d="M115.153 192.24C115.081 193.099 115.081 193.963 115.153 194.823C115.444 196.804 116.956 198.072 117.491 197.931C118.027 197.79 118.694 197.574 118.694 197.574L119.933 198.626L122.121 197.818L119.999 195.001C119.999 195.001 120.102 191.968 119.06 191.817C117.747 191.832 116.439 191.974 115.153 192.24Z" fill="#FEC6BD"/>
<path d="M116.703 192.766C116.703 192.766 114.43 192.916 113.829 192.071C113.228 191.226 113.528 189.554 114.346 189.545C115.163 189.536 115.801 190.39 117.003 190.287C118.205 190.184 119.069 189.62 119.961 190.137C120.451 190.402 120.838 190.823 121.061 191.334C121.284 191.844 121.33 192.414 121.192 192.954C120.788 193.987 120.356 195.086 119.783 195.086C119.21 195.086 118.928 194.663 119.107 194.241C119.285 193.818 119.398 192.898 118.741 192.794C118.61 192.766 118.474 192.764 118.343 192.789C118.211 192.814 118.086 192.865 117.974 192.94C117.863 193.014 117.768 193.11 117.694 193.223C117.621 193.335 117.571 193.461 117.548 193.593V194.025C117.4 194.019 117.256 193.978 117.127 193.906C116.998 193.834 116.888 193.732 116.806 193.61C116.724 193.487 116.671 193.347 116.653 193.2C116.635 193.054 116.652 192.905 116.703 192.766Z" fill="#30343A"/>
<path d="M121.539 197.114C121.539 197.114 121.539 197.959 119.952 198.626C118.793 201.361 118.037 204.249 117.708 207.2C117.464 211.154 117.802 219.193 117.802 219.193C117.802 219.193 124.638 220.254 128.77 219.728C128.77 219.728 130.245 208.224 127.324 203.247C124.404 198.269 121.539 197.114 121.539 197.114Z" fill="#6DB0F7"/>
<path d="M109.293 200.786L112.327 204.73L112.777 204.129C112.819 204.069 112.841 203.997 112.841 203.923C112.841 203.849 112.819 203.777 112.777 203.716L110.617 200.805C110.581 200.753 110.531 200.712 110.473 200.688C110.415 200.663 110.351 200.654 110.289 200.664L109.293 200.786Z" fill="#30343A"/>
<path d="M126.31 204.251L121.615 204.148C122.036 207.049 122.224 209.979 122.178 212.91C122.123 215.768 122.503 218.618 123.305 221.362C123.274 222.038 123.416 222.71 123.718 223.315C124.037 224.02 124.948 223.917 125.446 223.315C125.944 222.714 125.502 221.644 125.446 221.503C125.906 222.339 128.714 217.812 128.902 213.051C129.072 209.907 128.157 206.801 126.31 204.251Z" fill="url(#paint15_linear_3256_2225)"/>
<path d="M124.535 221.381C124.241 221.984 124.155 222.668 124.291 223.325C124.601 224.029 125.521 223.926 126.019 223.325C126.516 222.724 126.019 221.447 126.019 221.447L124.535 221.381Z" fill="#FEC6BD"/>
<path d="M121.154 203.989C122.217 206.853 122.976 209.821 123.417 212.844C124.084 217.681 124.507 221.381 124.507 221.381C124.969 221.609 125.501 221.646 125.99 221.484C127.505 218.591 128.37 215.402 128.526 212.14C128.656 208.965 128.052 205.803 126.761 202.899L121.154 203.989Z" fill="#6DB0F7"/>
<path d="M103.798 142.115C103.829 142.172 103.866 142.226 103.908 142.275L148.599 122.444C150.298 121.694 152.211 121.584 153.984 122.134C155.758 122.685 157.273 123.859 158.249 125.439L207.681 204.325H208.748L209.178 204.025C209.717 204.325 208.818 203.476 209.178 203.286L160.046 124.401C159.064 122.82 157.546 121.647 155.769 121.097C153.993 120.547 152.078 120.656 150.375 121.405L103.798 142.115Z" fill="url(#paint16_linear_3256_2225)"/>
<path d="M76.7166 114.414L85.4351 109.362H85.5148C89.31 107.207 94.5297 107.538 100.331 110.867C111.955 117.584 121.38 133.913 121.38 147.357C121.38 154.062 119.033 158.76 115.238 160.983L107.26 165.544L105.402 162.397C103.286 161.923 101.253 161.131 99.3733 160.048C87.7486 153.332 78.3235 136.991 78.3121 123.559C78.3175 121.749 78.5395 119.945 78.9731 118.188L76.7166 114.414Z" fill="#F8D14B"/>
<path d="M76.7166 114.414L85.4351 109.362H85.5148C89.31 107.207 94.5297 107.538 100.331 110.867C111.955 117.584 121.38 133.913 121.38 147.357C121.38 154.062 119.033 158.76 115.238 160.983L107.26 165.544L105.402 162.397C103.286 161.923 101.253 161.131 99.3733 160.048C87.7486 153.332 78.3235 136.991 78.3121 123.559C78.3175 121.749 78.5395 119.945 78.9731 118.188L76.7166 114.414Z" fill="url(#paint17_linear_3256_2225)" fill-opacity="0.2"/>
<path d="M92.0451 115.645C103.67 122.362 113.095 138.691 113.095 152.135C113.095 165.579 103.67 171.018 92.0451 164.302C80.4204 157.585 70.9953 141.245 70.9839 127.812C70.9725 114.379 80.409 108.895 92.0451 115.645Z" fill="#FFDE05"/>
<path fill-rule="evenodd" clip-rule="evenodd" d="M83.8284 130.994V135.555C83.8284 138.018 82.8711 139.66 81.3781 140.298C81.1892 140.471 81.0434 140.686 80.9523 140.926C80.8613 141.166 80.8276 141.423 80.8539 141.678C80.8609 142.348 81.0255 143.007 81.3344 143.601C81.6433 144.195 82.0877 144.709 82.6318 145.099L99.1229 154.62C100.103 155.191 100.901 154.586 100.901 153.275C100.88 152.546 100.68 151.833 100.32 151.2C98.8469 148.791 98.0297 146.04 97.949 143.217V139.147C97.949 133.947 94.7921 127.926 90.883 125.646C86.9853 123.399 83.8284 125.782 83.8284 130.994ZM88.4358 152.969C87.842 151.842 87.5207 150.592 87.4979 149.318L94.3359 153.241C94.3359 155.738 92.7974 156.89 90.9169 155.806C89.8794 155.068 89.0296 154.096 88.4358 152.969Z" fill="#FFF7B6"/>
<defs>
<linearGradient id="paint0_linear_3256_2225" x1="48.1774" y1="73.6569" x2="87.7886" y2="96.2266" gradientUnits="userSpaceOnUse">
<stop stop-color="#CDEAFF"/>
<stop offset="1" stop-color="#F4FAFF"/>
</linearGradient>
<linearGradient id="paint1_linear_3256_2225" x1="105.754" y1="74.8429" x2="212.98" y2="74.8429" gradientUnits="userSpaceOnUse">
<stop stop-color="#A8CDFF"/>
<stop offset="1" stop-color="#80BDFF"/>
</linearGradient>
<linearGradient id="paint2_linear_3256_2225" x1="137.85" y1="45.126" x2="195.528" y2="130.513" gradientUnits="userSpaceOnUse">
<stop stop-color="#D0E7FF"/>
<stop offset="0.14" stop-color="#CBE4FE"/>
<stop offset="0.29" stop-color="#BEDAFC"/>
<stop offset="0.45" stop-color="#A7CAF8"/>
<stop offset="0.62" stop-color="#87B4F3"/>
<stop offset="0.67" stop-color="#7EAEF2"/>
<stop offset="1" stop-color="#6799F2"/>
</linearGradient>
<linearGradient id="paint3_linear_3256_2225" x1="10" y1="199.657" x2="270" y2="199.657" gradientUnits="userSpaceOnUse">
<stop stop-color="#80B8EC"/>
<stop offset="0.24" stop-color="#7DB4ED"/>
<stop offset="0.47" stop-color="#72A9F2"/>
<stop offset="0.68" stop-color="#6097F9"/>
<stop offset="1" stop-color="#AFD6FB"/>
</linearGradient>
<linearGradient id="paint4_linear_3256_2225" x1="9.99991" y1="170.479" x2="270" y2="170.479" gradientUnits="userSpaceOnUse">
<stop stop-color="#C0DCFF"/>
<stop offset="1" stop-color="#D2E5FF"/>
</linearGradient>
<radialGradient id="paint5_radial_3256_2225" cx="0" cy="0" r="1" gradientUnits="userSpaceOnUse" gradientTransform="translate(168.037 178.648) rotate(25.5721) scale(86.9135 23.5683)">
<stop stop-color="#243477" stop-opacity="0.2"/>
<stop offset="1" stop-color="#243470" stop-opacity="0"/>
</radialGradient>
<linearGradient id="paint6_linear_3256_2225" x1="157.85" y1="55.9802" x2="210.5" y2="127.554" gradientUnits="userSpaceOnUse">
<stop stop-color="#A8CDFF"/>
<stop offset="1" stop-color="#80BDFF"/>
</linearGradient>
<linearGradient id="paint7_linear_3256_2225" x1="110.076" y1="111.32" x2="202.112" y2="111.32" gradientUnits="userSpaceOnUse">
<stop stop-color="#E5F2FF"/>
<stop offset="1" stop-color="#F2F9FF"/>
</linearGradient>
<linearGradient id="paint8_linear_3256_2225" x1="13060.2" y1="13136" x2="26879" y2="22509.7" gradientUnits="userSpaceOnUse">
<stop stop-color="#CDEAFF"/>
<stop offset="1" stop-color="#F4FAFF"/>
</linearGradient>
<linearGradient id="paint9_linear_3256_2225" x1="209.886" y1="203.206" x2="209.886" y2="120.047" gradientUnits="userSpaceOnUse">
<stop stop-color="#6799F2"/>
<stop offset="1" stop-color="#7EAEF2"/>
</linearGradient>
<linearGradient id="paint10_linear_3256_2225" x1="207.95" y1="130.212" x2="57.2413" y2="137.005" gradientUnits="userSpaceOnUse">
<stop stop-color="#93C2F8"/>
<stop offset="0.18" stop-color="#97C4F9"/>
<stop offset="0.36" stop-color="#A3CBFB"/>
<stop offset="0.54" stop-color="#B8D5FE"/>
<stop offset="0.59" stop-color="#BFD9FF"/>
<stop offset="0.82" stop-color="#B6D5FC"/>
<stop offset="1" stop-color="#ABCFF8"/>
</linearGradient>
<linearGradient id="paint11_linear_3256_2225" x1="209.367" y1="161.746" x2="58.6584" y2="168.539" gradientUnits="userSpaceOnUse">
<stop stop-color="#93C2F8"/>
<stop offset="0.17" stop-color="#96C4F9"/>
<stop offset="0.3" stop-color="#A0C9FA"/>
<stop offset="0.43" stop-color="#B1D2FD"/>
<stop offset="0.5" stop-color="#BFD9FF"/>
<stop offset="0.78" stop-color="#B6D5FC"/>
<stop offset="1" stop-color="#ABCFF8"/>
</linearGradient>
<linearGradient id="paint12_linear_3256_2225" x1="44.2834" y1="199.636" x2="40.9551" y2="203.353" gradientUnits="userSpaceOnUse">
<stop stop-color="#133E8F" stop-opacity="0.8"/>
<stop offset="1" stop-color="#133E8F" stop-opacity="0"/>
</linearGradient>
<linearGradient id="paint13_linear_3256_2225" x1="44.43" y1="179.355" x2="50.0917" y2="186.896" gradientUnits="userSpaceOnUse">
<stop stop-color="#133E8F" stop-opacity="0.4"/>
<stop offset="1" stop-color="#133E8F" stop-opacity="0"/>
</linearGradient>
<linearGradient id="paint14_linear_3256_2225" x1="122.234" y1="230.828" x2="127.465" y2="232.068" gradientUnits="userSpaceOnUse">
<stop stop-color="#133E8F" stop-opacity="0.8"/>
<stop offset="1" stop-color="#133E8F" stop-opacity="0"/>
</linearGradient>
<linearGradient id="paint15_linear_3256_2225" x1="125.324" y1="209.125" x2="125.502" y2="219.418" gradientUnits="userSpaceOnUse">
<stop stop-color="#133E8F" stop-opacity="0.4"/>
<stop offset="1" stop-color="#133E8F" stop-opacity="0"/>
</linearGradient>
<linearGradient id="paint16_linear_3256_2225" x1="10735.4" y1="15210.7" x2="21900.1" y2="15210.7" gradientUnits="userSpaceOnUse">
<stop stop-color="#D0E7FF"/>
<stop offset="0.14" stop-color="#CBE4FE"/>
<stop offset="0.29" stop-color="#BEDAFC"/>
<stop offset="0.45" stop-color="#A7CAF8"/>
<stop offset="0.62" stop-color="#87B4F3"/>
<stop offset="0.67" stop-color="#7EAEF2"/>
<stop offset="1" stop-color="#6799F2"/>
</linearGradient>
<linearGradient id="paint17_linear_3256_2225" x1="109.083" y1="162.329" x2="101.822" y2="123.583" gradientUnits="userSpaceOnUse">
<stop stop-opacity="0.4"/>
<stop offset="1" stop-opacity="0"/>
</linearGradient>
</defs>
</svg>
