<svg xmlns="http://www.w3.org/2000/svg" width="104" height="104" viewBox="0 0 104 104">
    <g fill="none" fill-rule="evenodd">
        <path fill="#E3EAEE" d="M52 98.8v5.2h-5.2v-5.2H52zm5.2-10.4v5.2H52v-5.2h5.2zm-36.4-5.2v10.4H10.4V83.2h10.4zM57.2 78v5.2H52V78h5.2zM104 62.4v5.2h-5.2v-5.2h5.2zm-98.8 0v5.2H0v-5.2h5.2zm81-7.4v5.2H81V55h5.2zM41.6 44v10.4H26v-5.2h10.4V44h5.2zM5.2 36.4v5.2H0v-5.2h5.2zM54.4 21v10.4H44V21h10.4zm-39-13v10.4H5V8h10.4zm.2 59.6v5.2h15.6v-5.2h5.2V78h-5.2v20.8h10.4v5.2H0V72.8h5.2v-5.2h10.4zm78 20.8v5.2H104V104h-5.2v-5.2H88.4v5.2h-5.2v-5.2H72.8v-5.2h15.6v-5.2h5.2zm-26 10.4v5.2H57.2v-5.2h10.4zM26 78H5.2v20.8H26V78zm20.8-5.2v10.4H52v5.2h-5.2v5.2H36.4v-5.2h5.2v-5.2h-5.2V78h5.2v-5.2h5.2zM83.6 68v15.6H68V68h15.6zm20.4 4.8v10.4H93.6V78h5.2v-5.2h5.2zM26 62.4v5.2h-5.2v-5.2H26zM70.6 52v5.2h-5.2v5.2h-5.2v5.2H55V57.2h5.2V52h10.4zm17.8-10.4v5.2h-5.2v-5.2h5.2zm5.2-5.2v5.2h-5.2v-5.2h5.2zm-57.2-5.2v5.2h-5.2v-5.2h5.2zM104.2 13v5.2H99V13h5.2zM46.8 5.2v5.2h-5.2V5.2h5.2zM57.2 0v5.2H52V0h5.2z"/>
        <g transform="translate(32 32)">
            <circle cx="20" cy="20" r="20" fill="#F03465"/>
            <path fill="#FFF" fill-rule="nonzero" d="M20.016 24.274c.448 0 .77-.198.964-.596.195-.398.322-.97.381-1.714l.546-6.259c.06-.575.09-1.143.09-1.701 0-.948-.124-1.674-.37-2.177-.245-.504-.731-.756-1.459-.756-.6 0-1.085.197-1.454.59-.368.394-.552.942-.552 1.645 0 .516.038 1.367.114 2.551l.407 6.081c.076.788.203 1.374.38 1.759.178.385.496.577.953.577zm.076 6.018c.508 0 .952-.17 1.333-.508.38-.338.571-.804.571-1.396 0-.525-.188-.971-.565-1.34-.376-.368-.831-.552-1.365-.552-.533 0-.983.184-1.352.552-.368.369-.552.815-.552 1.34 0 .6.193 1.068.578 1.403.385.334.836.501 1.352.501z"/>
        </g>
    </g>
</svg>
