<svg xmlns="http://www.w3.org/2000/svg" width="280" height="280" viewBox="0 0 280 280">
    <defs>
        <linearGradient id="a" x1="50.739%" x2="49.268%" y1="95.616%" y2="4.65%">
            <stop offset="0%" stop-color="#F0FAFF"/>
            <stop offset="100%" stop-color="#EDFAFF" stop-opacity=".2"/>
        </linearGradient>
        <linearGradient id="b" x1=".002%" y1="49.995%" y2="49.995%">
            <stop offset="0%" stop-color="#FFE200"/>
            <stop offset="100%" stop-color="#FFD200"/>
        </linearGradient>
        <linearGradient id="c" x1="22.354%" x2="80.812%" y1="50.517%" y2="49.175%">
            <stop offset="0%" stop-color="#D0EDFF"/>
            <stop offset="100%" stop-color="#F7FDFF"/>
        </linearGradient>
        <linearGradient id="d" x1="23.336%" x2="50.775%" y1="27.705%" y2="-2.176%">
            <stop offset="0%" stop-color="#D0EDFF"/>
            <stop offset="100%" stop-color="#F7FDFF"/>
        </linearGradient>
        <linearGradient id="e" x1=".011%" x2="99.99%" y1="49.989%" y2="49.989%">
            <stop offset="0%" stop-color="#133E92"/>
            <stop offset="100%" stop-color="#1372B6"/>
        </linearGradient>
        <linearGradient id="f" x1="49.422%" x2="52.548%" y1="17.893%" y2="98.771%">
            <stop offset="0%" stop-color="#6DB3FA"/>
            <stop offset="100%" stop-color="#2F83E8"/>
        </linearGradient>
        <linearGradient id="g" x1="49.328%" x2="50.594%" y1="12.927%" y2="111.823%">
            <stop offset="0%" stop-color="#6DB3FA"/>
            <stop offset="100%" stop-color="#2F83E8"/>
        </linearGradient>
        <linearGradient id="h" x1="-297.76%" x2="99.96%" y1="49.995%" y2="49.995%">
            <stop offset="0%" stop-color="#6DB3FA"/>
            <stop offset="100%" stop-color="#2F83E8"/>
        </linearGradient>
        <linearGradient id="i" x1="46.361%" x2="61.534%" y1="91.842%" y2="10.429%">
            <stop offset="0%" stop-color="#82BBEF"/>
            <stop offset="51%" stop-color="#609AFC"/>
            <stop offset="100%" stop-color="#B2D9FE"/>
        </linearGradient>
        <linearGradient id="j" x1="86.288%" x2="-13.224%" y1="50.383%" y2="49.34%">
            <stop offset="0%" stop-color="#C3DFFF"/>
            <stop offset="100%" stop-color="#D5E8FF"/>
        </linearGradient>
        <linearGradient id="k" x1="48.702%" x2="52.1%" y1="111.473%" y2="-43.273%">
            <stop offset="0%" stop-color="#133E92"/>
            <stop offset="100%" stop-color="#1372B6"/>
        </linearGradient>
        <linearGradient id="l" x1="48.749%" x2="52.183%" y1="107.459%" y2="-47.192%">
            <stop offset="0%" stop-color="#133E92"/>
            <stop offset="100%" stop-color="#1372B6"/>
        </linearGradient>
        <linearGradient id="m" x1="49.293%" x2="50.273%" y1="11.523%" y2="85.202%">
            <stop offset="0%" stop-color="#6DB3FA"/>
            <stop offset="100%" stop-color="#2F83E8"/>
        </linearGradient>
        <linearGradient id="n" x1="53.43%" x2="46.835%" y1="10.622%" y2="114.92%">
            <stop offset="0%" stop-color="#133E92"/>
            <stop offset="100%" stop-color="#1372B6"/>
        </linearGradient>
        <linearGradient id="o" x1="50.509%" x2="49.056%" y1="16.618%" y2="100.872%">
            <stop offset="0%" stop-color="#6DB3FA"/>
            <stop offset="100%" stop-color="#2F83E8"/>
        </linearGradient>
        <linearGradient id="p" x1="30.723%" x2="53.207%" y1="81.301%" y2="20.551%">
            <stop offset="0%" stop-color="#FFC313"/>
            <stop offset="24%" stop-color="#E8B612"/>
            <stop offset="100%" stop-color="#FFD200"/>
        </linearGradient>
        <linearGradient id="q" x1="83.802%" x2="12.779%" y1="48.384%" y2="51.769%">
            <stop offset="0%" stop-color="#FFE200"/>
            <stop offset="100%" stop-color="#FFD200"/>
        </linearGradient>
        <linearGradient id="r" x1="-11.455%" x2="54.554%" y1="49.28%" y2="50.081%">
            <stop offset="0%"/>
            <stop offset="100%" stop-opacity="0"/>
        </linearGradient>
        <linearGradient id="s" x1="-11.52%" x2="54.505%" y1="49.282%" y2="50.09%">
            <stop offset="0%"/>
            <stop offset="100%" stop-opacity="0"/>
        </linearGradient>
        <linearGradient id="t" x1="53.182%" x2="36.534%" y1="1.185%" y2="141.095%">
            <stop offset="0%" stop-color="#6DB3FA"/>
            <stop offset="100%" stop-color="#2F83E8"/>
        </linearGradient>
        <linearGradient id="u" x1="49.769%" x2="50.302%" y1="52.839%" y2="46.75%">
            <stop offset="0%" stop-color="#F0EFA8"/>
            <stop offset="28%" stop-color="#DBD9A9"/>
            <stop offset="100%" stop-color="#F6F2DB"/>
        </linearGradient>
        <linearGradient id="v" x1="50.285%" x2="49.823%" y1="52.464%" y2="47.53%">
            <stop offset="0%" stop-color="#F0EFA8"/>
            <stop offset="28%" stop-color="#DBD9A9"/>
            <stop offset="100%" stop-color="#F6F2DB"/>
        </linearGradient>
        <linearGradient id="w" x1="51.575%" x2="46.666%" y1="18.483%" y2="103.857%">
            <stop offset="0%" stop-color="#6DB3FA"/>
            <stop offset="100%" stop-color="#2F83E8"/>
        </linearGradient>
    </defs>
    <g fill="none" fill-rule="evenodd">
        <path d="M0 0h280v280H0z"/>
        <circle cx="140" cy="137.26" r="135.26" fill="url(#a)" fill-rule="nonzero"/>
        <path fill="url(#b)" fill-rule="nonzero" d="M62.15 231.19c-13.25 12.17-23.58 15.32-30.7 9.34-9.67-8.11-8.27-30.63-7.21-39.94 2-17.41 7.34-35.08 13.68-45 16-25.13 25.21-26.83 26.2-26.93l.56 5h.11c-.08 0-8 1.83-22.59 24.64-12.74 20-19.17 68.52-7.49 78.31 6 5.08 16.39-2.19 24-9.18 4.48-4.11 6.77.7 3.44 3.76z"/>
        <path fill="#CCE1FF" fill-rule="nonzero" d="M60.9 222.47l-.61.11C55 191.39 43.68 161.49 31.52 146.4l.48-.4c12.23 15.17 23.57 45.19 28.9 76.47z"/>
        <path fill="#CCE1FF" fill-rule="nonzero" d="M30.55 140.48c1.7 2.21 1.71 6.5 1.71 6.5s-4.14-1.11-5.84-3.33c-1.7-2.22-1.42-3.81-.32-4.65 1.1-.84 2.76-.74 4.45 1.48zM33.56 152.17c2.75.85 5.31 4.45 5.31 4.45s-4.14 1.54-6.89.7c-2.75-.84-3.5-2.34-3.07-3.76.43-1.42 1.9-2.23 4.65-1.39zM38.6 162.56c2.94.91 5.69 4.77 5.69 4.77s-4.44 1.65-7.39.74c-2.95-.91-3.75-2.5-3.28-4 .47-1.5 2.03-2.41 4.98-1.51zM41.76 172.3c2.91.48 6 3.8 6 3.8s-4 2.12-6.9 1.63c-2.9-.49-3.87-1.9-3.62-3.4s1.61-2.52 4.52-2.03zM46.56 181.37c2.72 1.14 5 5.07 5 5.07s-4.38 1.15-7.1 0c-2.72-1.15-3.33-2.74-2.74-4.14.59-1.4 2.12-2.07 4.84-.93zM50.8 191.42c2.48 1.59 4 5.85 4 5.85s-4.51.38-7-1.22-2.8-3.27-2-4.55c.8-1.28 2.53-1.68 5-.08zM53.64 202.28c2.48 1.59 4 5.85 4 5.85s-4.51.37-7-1.22c-2.49-1.59-2.81-3.27-2-4.55.81-1.28 2.52-1.68 5-.08zM41.15 147.49c-.88 2.86-4.62 5.52-4.62 5.52s-1.6-4.3-.72-7.16c.88-2.86 2.43-3.64 3.9-3.18 1.47.46 2.29 1.97 1.44 4.82zM47.25 159.23c-1.07 2.53-4.75 4.6-4.75 4.6s-1-4.08 0-6.61c1-2.53 2.57-3.09 3.87-2.53 1.3.56 1.96 2.02.88 4.54zM53.09 169.84c-2 2.22-6.46 3.08-6.46 3.08s.33-4.55 2.3-6.77c1.97-2.22 3.7-2.29 4.85-1.27 1.15 1.02 1.28 2.74-.69 4.96zM56.43 178.67c-2 2.22-6.46 3.09-6.46 3.09s.33-4.55 2.31-6.78c1.98-2.23 3.69-2.28 4.84-1.26 1.15 1.02 1.28 2.73-.69 4.95zM59.47 188.29c-1.81 2.36-6.21 3.55-6.21 3.55s0-4.57 1.79-6.93c1.79-2.36 3.52-2.55 4.74-1.62 1.22.93 1.48 2.64-.32 5zM62.48 198.4c-1.8 2.36-6.2 3.55-6.2 3.55s0-4.56 1.79-6.92c1.79-2.36 3.52-2.56 4.74-1.63 1.22.93 1.48 2.6-.33 5zM65 209c-1.81 2.36-6.21 3.55-6.21 3.55s0-4.56 1.79-6.92c1.79-2.36 3.52-2.55 4.74-1.62 1.22.93 1.48 2.64-.32 4.99zM176.2 139.23c-10.51-24.47-16.2-50.79-14.5-67l.51.06c-1.69 16.18 4 42.4 14.47 66.79l-.48.15z"/>
        <path fill="#CCE1FF" fill-rule="nonzero" d="M160.19 67.63C160 70 162 73 162 73s2.41-2.67 2.6-5c.19-2.33-.71-3.35-1.92-3.45-1.21-.1-2.3.74-2.49 3.08zM163.41 77.24c-1.55 1.85-1.71 5.55-1.71 5.55s3.62-.8 5.17-2.65c1.55-1.85 1.4-3.24.45-4-.95-.76-2.32-.75-3.91 1.1zM164.6 86.85c-1.67 2-1.84 6-1.84 6s3.88-.85 5.54-2.85c1.66-2 1.51-3.48.48-4.34-1.03-.86-2.52-.79-4.18 1.19zM166.81 95.15c-1.83 1.67-2.49 5.41-2.49 5.41s3.78-.32 5.61-2c1.83-1.68 1.86-3.11 1-4-.86-.89-2.3-1.07-4.12.59zM167.56 103.74c-1.39 2-1.18 5.83-1.18 5.83s3.61-1.19 5-3.23c1.39-2.04 1.1-3.45.05-4.17-1.05-.72-2.43-.48-3.87 1.57zM169.15 112.75c-1 2.25-.15 6-.15 6s3.35-1.79 4.37-4 .48-3.59-.68-4.12c-1.16-.53-2.52-.13-3.54 2.12zM172.11 121.69c-1 2.26-.16 6-.16 6s3.35-1.8 4.37-4.05.49-3.59-.68-4.11c-1.17-.52-2.51-.09-3.53 2.16zM175.53 130.35c-1 2.26-.16 6-.16 6s3.35-1.8 4.37-4.05.49-3.59-.68-4.11c-1.17-.52-2.51-.09-3.53 2.16zM155.93 77.4c1.92 1.61 5.77 1.78 5.77 1.78s-.83-3.76-2.76-5.37c-1.93-1.61-3.36-1.46-4.2-.47-.84.99-.74 2.45 1.19 4.06zM157 88.46c1.91 1.28 5.44 1.07 5.44 1.07s-1.12-3.36-3-4.64c-1.88-1.28-3.21-1-3.88 0-.67 1-.48 2.28 1.44 3.57zM157.71 98.59c2.4.66 5.95-.78 5.95-.78s-2.31-3-4.71-3.72c-2.4-.72-3.65.08-4 1.32-.35 1.24.35 2.51 2.76 3.18zM159.38 106.34c2.4.66 6-.78 6-.78s-2.3-3-4.71-3.72c-2.41-.72-3.64.08-4 1.32-.36 1.24.33 2.51 2.71 3.18zM161.62 114.49c2.35.84 6-.32 6-.32s-2.08-3.22-4.42-4.06c-2.34-.84-3.65-.2-4.08 1-.43 1.2.16 2.54 2.5 3.38zM164.11 123c2.34.84 6-.33 6-.33s-2.07-3.21-4.42-4.06c-2.35-.85-3.64-.19-4.08 1-.44 1.19.15 2.54 2.5 3.39z"/>
        <path fill="url(#c)" fill-rule="nonzero" d="M177.24 135s-.53-13.23-6.36-17.06c-5.83-3.83-10.45 1.57-10.71-5.14-.26-6.71-1-12.7-8.79-12-7.79.7-9.66 1.2-11.58-3.8s-4.44-11.32-9.4-6.61-3.31 18.28.7 26.29c4.01 8.01 11.92 11.66 13.06 16 1.14 4.34 1.13 5.57-3.23 8.27-4.36 2.7-2.17 10.71 9.67 14.11 11.84 3.4 27.07-.18 27.07-.18l-.43-19.88z"/>
        <path fill="#CCE1FF" fill-rule="nonzero" d="M177.13 145.4c-.09 0-9.21-2.76-21.51-11.79v-.08c-2.3-4.77-3-19.86-3-20a.27.27 0 0 0-.27-.25.26.26 0 0 0-.25.27c0 .6.66 14 2.77 19.5l-.18-.13c-12.75-9.59-19.43-29.45-19.5-29.65a.25.25 0 0 0-.32-.16.26.26 0 0 0-.17.33c.07.2 6.79 20.21 19.68 29.9a103.5 103.5 0 0 0 9.43 6.32c-3.72 3.48-10.64 2.36-10.71 2.35a.25.25 0 0 0-.3.22.24.24 0 0 0 .21.29c.926.15 1.862.22 2.8.21 2.49 0 6.09-.47 8.47-2.79a64.83 64.83 0 0 0 12.73 6h.07a.26.26 0 0 0 .25-.18.27.27 0 0 0-.2-.36z"/>
        <path fill="url(#d)" fill-rule="nonzero" d="M64.87 253.13s-11.23-2.59-14.76-6.67c-5.25-6.06-6.89-6.83-12.13-8.29-5.24-1.46-7.92-9.47-1.82-11.92 6.1-2.45-.17-10.34-3.65-15.8-3.48-5.46-.53-20 6.23-16.18 6.76 3.82 3.47 8.62 9.15 10.75 5.68 2.13 10.23 2.78 11.11 11.32.88 8.54 7.16 25.88 7.16 25.88l-1.29 10.91z"/>
        <path fill="#CCE1FF" fill-rule="nonzero" d="M37.67 231.63a44.26 44.26 0 0 0 13.44 2.49C43.3 220 37.67 203 37.59 202.81a.31.31 0 0 1 .2-.39.3.3 0 0 1 .39.2c.09.26 7.15 21.56 16.41 36.17A30.27 30.27 0 0 0 58 222.36a.31.31 0 0 1 .27-.35.3.3 0 0 1 .35.27A30.86 30.86 0 0 1 55 239.4a53.48 53.48 0 0 0 5.54 7.31.31.31 0 0 1 0 .44.291.291 0 0 1-.21.08.29.29 0 0 1-.23-.1 65.83 65.83 0 0 1-8.6-12.38 45.3 45.3 0 0 1-14-2.54.3.3 0 0 1-.17-.4.31.31 0 0 1 .34-.18zM211.1 235.23c-.17-.34-16.68-34.47-1.12-64.5 12.21-23.57 19.77-49.31 19.25-65.57h.52c.52 16.35-7.06 42.19-19.31 65.83-15.44 29.79 1 63.69 1.13 64l-.47.24z"/>
        <path fill="#CCE1FF" fill-rule="nonzero" d="M231.58 100.71c0 2.34-2.15 5.21-2.15 5.21s-2.21-2.84-2.23-5.18c-.02-2.34 1-3.29 2.16-3.3 1.16-.01 2.2.93 2.22 3.27zM227.68 110.06c1.41 2 1.31 5.67 1.31 5.67s-3.56-1.06-5-3-1.17-3.34-.16-4.07c1.01-.73 2.43-.55 3.85 1.4zM225.8 119.57c1.51 2.1 1.4 6.07 1.4 6.07s-3.81-1.14-5.32-3.24c-1.51-2.1-1.25-3.57-.17-4.36 1.08-.79 2.57-.57 4.09 1.53zM223 127.69c1.7 1.79 2.1 5.57 2.1 5.57s-3.76-.6-5.45-2.4c-1.69-1.8-1.64-3.23-.71-4.1.93-.87 2.35-.87 4.06.93zM221.62 136.19c1.24 2.14.76 5.91.76 5.91s-3.52-1.45-4.76-3.59c-1.24-2.14-.84-3.52.26-4.16 1.1-.64 2.5-.3 3.74 1.84zM219.38 145.07c.86 2.32-.27 5.94-.27 5.94s-3.21-2-4.07-4.35c-.86-2.35-.22-3.61 1-4 1.22-.39 2.49.09 3.34 2.41zM215.79 153.77c.85 2.32-.28 5.95-.28 5.95s-3.21-2-4.06-4.35c-.85-2.35-.23-3.61 1-4.05 1.23-.44 2.49.13 3.34 2.45zM211.75 162.16c.86 2.33-.27 6-.27 6s-3.21-2-4.07-4.35c-.86-2.35-.22-3.61 1-4 1.22-.39 2.49.03 3.34 2.35zM208 170.11c.86 2.32-.27 5.95-.27 5.95s-3.21-2-4.07-4.35c-.86-2.35-.22-3.61 1-4.05 1.22-.44 2.52.13 3.34 2.45zM203.61 180.84c1.37 2 1.13 5.84 1.13 5.84s-3.6-1.21-5-3.27-1.08-3.45 0-4.16 2.49-.46 3.87 1.59zM202.43 190.88c1.37 2.06 1.13 5.85 1.13 5.85s-3.6-1.22-5-3.27-1.08-3.46 0-4.17 2.49-.46 3.87 1.59zM235.13 110.77c-2 1.47-5.89 1.36-5.89 1.36s1.11-3.69 3.14-5.16c2.03-1.47 3.46-1.21 4.22-.16.76 1.05.56 2.49-1.47 3.96zM233.28 121.71c-2 1.15-5.5.68-5.5.68s1.36-3.26 3.35-4.41c1.99-1.15 3.28-.77 3.88.26.6 1.03.26 2.33-1.73 3.47zM231.82 131.77c-2.44.49-5.88-1.2-5.88-1.2s2.52-2.89 5-3.37 3.63.33 3.88 1.59-.55 2.49-3 2.98zM229.59 139.38c-2.44.48-5.88-1.2-5.88-1.2s2.52-2.89 5-3.37 3.63.33 3.88 1.59-.59 2.49-3 2.98zM226.77 147.35c-2.4.67-6-.76-6-.76s2.31-3.06 4.71-3.73c2.4-.67 3.65.07 4 1.31.35 1.24-.31 2.51-2.71 3.18zM223.68 155.65c-2.41.67-6-.76-6-.76s2.3-3.06 4.71-3.73c2.41-.67 3.64.06 4 1.3.36 1.24-.31 2.54-2.71 3.19zM220 164c-2.4.67-6-.76-6-.76s2.3-3.06 4.7-3.73c2.4-.67 3.65.06 4 1.3.35 1.24-.31 2.55-2.7 3.19zM216.12 172.4c-2.48-.18-5.34-2.73-5.34-2.73s3.2-2.1 5.69-1.92c2.49.18 3.41 1.3 3.31 2.59-.1 1.29-1.17 2.25-3.66 2.06zM212.5 179.87c-2.36.81-6-.41-6-.41s2.12-3.19 4.48-4c2.36-.81 3.64-.14 4.06 1.07.42 1.21-.18 2.53-2.54 3.34zM210.22 189.79c-2.35.81-6-.41-6-.41s2.11-3.19 4.47-4 3.65-.15 4.06 1.07c.41 1.22-.17 2.55-2.53 3.34zM209.19 199.22c-2 1.5-5.82 1.46-5.82 1.46s1-3.69 3-5.18c2-1.49 3.42-1.27 4.19-.24.77 1.03.62 2.46-1.37 3.96z"/>
        <path fill="#FEC6BD" fill-rule="nonzero" d="M215.36 214.29l.11 10.8s6.6 9.59 6.81 45.16c0 2.49-2.71 4.14-3.37.45-.66-3.69-14.4-35.66-15.67-41.92-1.27-6.26-2-14.38-2-14.38l14.12-.11zM180 212.13s.34 6.86 1.09 11.18c2.38 13.65 8.26 41.41 8.61 44 .74 5.46.86 4.84 2.71 4.58 1.85-.26 1.3-.93 1.45-2.11 4.35-34.53-.59-48.88-.59-48.88s1-7.08 1-8.11l-14.27-.66z"/>
        <path fill="url(#e)" fill-rule="nonzero" d="M212.73 152.27s6.38 13.73 4.66 27.51c-1.72 13.78-.84 35.74-.84 35.74s-17.79 6.32-36.85.12c0 0-9.41-31-4.08-61.48l37.11-1.89z"/>
        <path fill="#30343A" fill-rule="nonzero" d="M193.34 269.72a33.26 33.26 0 0 0-7.63 1.49c-3.28 1.19-5.46 1.33-5.16 2.82.3 1.49 2.24 1.65 4.36 1.74a43.14 43.14 0 0 0 7.84-.3c1-.29.89-.69 1.09-2.18.2-1.49.69-3.77-.5-3.57zM218.31 270.3c-1.28 1.29-2.34 3.66-3.13 4.26-.79.6-4.09 1.19-4.55 2.24-.46 1.05 1.58 1.25 3.43 1.19 1.85-.06 6.07-.13 7.65-1.72 1.58-1.59 3.7-3.49 2.44-5.34a16.43 16.43 0 0 0-1.91-2.18 7.72 7.72 0 0 0-3.93 1.55z"/>
        <path fill="#37475E" fill-rule="nonzero" d="M173.59 72.82s-4.15 4.05-.79 12.36c3.36 8.31.3 9-.89 11.68a12.93 12.93 0 0 0-.79 9.4l41.56-5.34s1.78-12.27-10-13.36c0 0-.79-8.81-9.79-9.9a10.33 10.33 0 0 0-8.41-8.7c-9.07-1.86-10.89 3.86-10.89 3.86z"/>
        <path fill="#FEC6BD" fill-rule="nonzero" d="M178.18 76.15c2.27 1.18 3.53 3.79 7.09 3.39 0 0 .39-1.58 2.77-1.48 2.38.1 1.48 4.06 0 5a6.83 6.83 0 0 0 1.28 5.14c1.88 2.67 5 6.33 5 6.33l-4.1 6.47-5.84-3.46-1.38-7.21s-3.16 1.68-5.54-.6-4.12-7.75-4-9.53a2.21 2.21 0 0 1 1.48-2.14s.96-3.06 3.24-1.91z"/>
        <path fill="url(#f)" fill-rule="nonzero" d="M183.69 94.58s1.28 1.09 4.35.5a5.15 5.15 0 0 0 3.86-3.47s16 .63 20.18 5.84c7.75 9.57 2.78 41.51 1.79 57.44 0 0-2.88 4.3-17.12 4.4-14.24.1-20.88-4.85-20.88-4.85s1.19-10.88.2-17.41c-.88-5.8-2.58-9.5-4-15.34s-2-18.69 2.47-22.85c3.21-2.97 9.15-4.26 9.15-4.26z"/>
        <path fill="url(#g)" fill-rule="nonzero" d="M174.58 98.84s-4.68 3.76-7.75 18.6c-3.07 14.84-9.76 37.89-9.76 37.89l6.43.6s10.09-20 12.37-29.69c2.28-9.69-1.29-27.4-1.29-27.4z"/>
        <path fill="#000" fill-rule="nonzero" d="M173.69 108.14s-.2 9-.2 12.27a87.14 87.14 0 0 0 1.16 10.09s-1.15 3.13-1.85 4.95c-1.81 4.71-6 13.45-6 13.45s3.4-12 4.49-16c1.09-4 2.4-24.76 2.4-24.76zM190.41 170.08s-4.71 4.09-5.24 4.75c-.53.66.69.79 1.88.19 1.19-.6 1.55.56.82 1.28-.73.72-2.24 1.26-3.13 2.25-.89.99 4.3 1.58 5.95 1.12 1.65-.46 3-7.12 3-7.12l-3.28-2.47z" opacity=".1"/>
        <path fill="url(#h)" fill-rule="nonzero" d="M215.92 199.44a106 106 0 0 0-20-14.11 2.433 2.433 0 0 0-2.24 4.32c.39.2 38.4 20.2 34.73 45.38-1 7.19-3.24 12.58-6.94 16.63.17 2 .33 4 .45 6.27 6.08-4.87 9.8-11.93 11.3-22.2 1.78-11.95-4.22-24.5-17.3-36.29z"/>
        <path fill="url(#i)" fill-rule="nonzero" d="M180.55 151.65L165 146.53 147.72 199l15.54 5.12c10.58 3.49 26.53 3.52 33.39-16.13 7.08-20.27-5.51-32.85-16.1-36.34z"/>
        <ellipse cx="156.362" cy="172.789" fill="url(#j)" fill-rule="nonzero" rx="27.64" ry="20.18" transform="rotate(-71.77 156.362 172.79)"/>
        <ellipse cx="158.277" cy="162.529" fill="url(#k)" fill-rule="nonzero" rx="4.4" ry="3.86" transform="rotate(-71.77 158.277 162.529)"/>
        <ellipse cx="152.156" cy="181.143" fill="url(#l)" fill-rule="nonzero" rx="4.4" ry="3.86" transform="rotate(-71.77 152.156 181.143)"/>
        <path fill="#000" fill-rule="nonzero" d="M213.66 145.44c-4.74 13.46-20 27.21-20 27.21l-3.27-2.57s8.48-25.86 10.06-34.17c1.58-8.31 2.9-28.37 2.9-28.37l10.31 37.9z" opacity=".1"/>
        <path fill="#FEC6BD" fill-rule="nonzero" d="M190.41 170.08s-4.71 4.09-5.24 4.75c-.53.66.46.39 1.65-.2 1.19-.59 1.78-.27 1.05.46s-2.24 2.47-3.13 3.46c-.89.99 3.53 1 5.18.5s4.09-7.52 4.09-7.52l-3.6-1.45z"/>
        <path fill="url(#m)" fill-rule="nonzero" d="M209.51 95.41s7.26 3.36 7.85 14.11c.69 12.57 1.85 28.8-5.28 38.39-7.13 9.59-18.4 24.74-18.4 24.74l-3.27-2.57s11.65-27.05 13.23-35.36c1.58-8.31-.53-29.55-.53-29.55l6.4-9.76z"/>
        <path fill="#FEC6BD" fill-rule="nonzero" d="M54.29 265.21L53.1 271l2.82.99 2.13-6.43zM105.44 266.59l1.64 5.59 2.82-.64-.65-6.04z"/>
        <path fill="url(#n)" fill-rule="nonzero" d="M59.64 173s-1.19 28 1.84 45c0 0-5.67 8.31-6.86 25.73-1.19 17.42-.92 23.61-.92 23.61l3.82.66s16.89-30 22.3-42.91c5.41-12.91 7.12-34.7 7.12-34.7s5.41 22.69 6.86 27.31c1.45 4.62-.8 13.06 2.38 25.3a172.76 172.76 0 0 0 9.23 25.33l4.22-.93s3.17-44.45 3.17-53.69c0-9.24-3.3-39.71-3.3-39.71s-45.25-11.31-49.86-1z"/>
        <path fill="#EFA29E" fill-rule="nonzero" d="M114.25 85.65s.79-9.5-1.19-11.75-6.72 2.64-6.72 2.64 2.11 7.39 5.4 11.35l2.91 1.45-.4-3.69z"/>
        <path fill="#FEC6BD" fill-rule="nonzero" d="M109.77 74c.135 3.04 0 6.084-.4 9.1-.66 4.48-1.85 9.1-7.52 9.1 0 0-.4 2.24-.79 4-.39 1.76-5.15 2.77-7.52.53-2.37-2.24.26-11.73.26-11.73a7 7 0 0 1-1.71-7.13c1.45-4.22 5-6.86 10.16-6.59 5.16.27 7.25 1.96 7.52 2.72z"/>
        <path fill="#37475E" fill-rule="nonzero" d="M96.31 80.24s-1.19-2.77-2.64-1.59c-1.45 1.18-.53 3.57.66 4.62L93.54 86s-5.15-1.19-4.62-8.84c.53-7.65 4.22-11.21 9-12.13 4.78-.92 6.47 2.77 11.48 2.77 5.01 0 5.94 2.11 6.33 4.61.39 2.5-1.45 5.15-5.93 5.81-4.48.66-7.52-3.7-10.16-3.56C97 74.8 98 77.73 98 79.44c0 1.71-1.69.8-1.69.8z"/>
        <path fill="url(#o)" fill-rule="nonzero" d="M97 93.56c-7.69-.77-17-2.3-25.92 2.71-8.71 4.88-9.3 17.87-11 32.65-1.59 13.75-.39 44.06-.39 44.06s4-1.58 11.6 3 24.81 5.28 38.79 2.11c0 0 1.19-42.87 1.32-49.73.13-6.86.43-10.46.43-10.46s19.75 6.24 25.82 3.86c6.07-2.38 1.85-10.29-1.45-14.64-3.3-4.35-21.9-21.5-21.9-21.5l-2.51 2.24 6.6 14.11s-5.72-6.83-21.39-8.41z"/>
        <path fill="#30343A" fill-rule="nonzero" d="M53.31 268.84s-.76-.13-2 2.37-.13 2.75.81 3.19A20.4 20.4 0 0 0 57 276c2.34.48 7.56 1.06 7.63.19.08-1.11-2.77-3.19-5.55-4.19a38.64 38.64 0 0 1-5.77-3.16zM106.42 271s-.5.26-.5 2.52.19 2.46 3.17 2.4c2.98-.06 9 0 10.17 0s.31-2.85-1.86-3.56-7.13-2.07-7.13-2.07l-3.85.71z"/>
        <path fill="url(#p)" fill-rule="nonzero" d="M90 115.16c6.7 2.48 17.41 8.23 17.41 8.23l-25.48 49.05-14.51-7.54c-9.9-5.14-21.06-16.53-11.78-35.17 9.57-19.24 27.67-17.05 34.36-14.57z"/>
        <ellipse cx="94.684" cy="147.918" fill="url(#q)" fill-rule="nonzero" rx="27.64" ry="20.18" transform="rotate(-62.54 94.684 147.918)"/>
        <path fill="#000" fill-rule="nonzero" d="M53 124.56c-4.31 17.53-1.31 32.59 10.2 36.77.49 2 7.79 4.57 8.2 4.06.41-.51-1.51-4.28-1.75-4.68-.24-.4-7.4-8.25-6.1-23.61A31.62 31.62 0 0 1 78 113l5.8-16.1s-25.32 5.5-30.8 27.66z" opacity=".1"/>
        <path fill="#FEC6BD" fill-rule="nonzero" d="M65.7 159.92s3.5.06 3.9.46c.4.4-.53.66-1.72.73-1.19.07.13 1.84 2.31 3s1.32 2.38-.79 2.18a8.25 8.25 0 0 1-6.14-3.63l-.79-3.23 3.23.49z"/>
        <rect width="28.34" height="6.73" x="79.279" y="164.648" fill="url(#r)" fill-rule="nonzero" opacity=".1" rx="3.31" transform="rotate(82.38 93.449 168.013)"/>
        <rect width="28.297" height="6.72" x="89.109" y="146.963" fill="url(#s)" fill-rule="nonzero" opacity=".1" rx="3.31" transform="rotate(82.519 103.257 150.323)"/>
        <path fill="url(#t)" fill-rule="nonzero" d="M74.81 94.55s-21.7 7.85-27.15 30c-4.35 17.75 3.33 34.37 15.21 38.33l2.77-3.17s-6-7.13-4.72-22.49C62.34 120.47 78 113 78 113l5.8-16.1-8.99-2.35z"/>
        <path fill="#000" fill-rule="nonzero" d="M111.78 117.93L112 113s6.65 5.86 11.39 8c0 0-3.85-.87-5.62-1.32-1.77-.45-5.99-1.75-5.99-1.75z" opacity=".1"/>
        <rect width="28.34" height="6.73" x="97.148" y="141.795" fill="url(#u)" fill-rule="nonzero" rx="3.31" transform="rotate(28.23 111.318 145.16)"/>
        <rect width="28.34" height="6.73" x="87.25" y="159.004" fill="url(#v)" fill-rule="nonzero" rx="3.31" transform="rotate(28.23 101.42 162.37)"/>
        <path fill="url(#w)" fill-rule="nonzero" d="M133.49 17.47a20.3 20.3 0 0 0-12.7 36.15l-2.1 8.83a.63.63 0 0 0 1 .61l6.64-6.27a20.3 20.3 0 1 0 7.11-39.32h.05z"/>
        <path fill="#FFF" fill-rule="nonzero" d="M132.39 39.12l-.34-5A68.757 68.757 0 0 1 132 32a1.91 1.91 0 0 1 .45-1.35c.313-.325.75-.5 1.2-.48a1.19 1.19 0 0 1 1.2.62 4.22 4.22 0 0 1 .3 1.79c-.025.476-.075.95-.15 1.42l-.45 5.14a3.86 3.86 0 0 1-.32 1.41.81.81 0 0 1-.79.49.79.79 0 0 1-.78-.47 4.59 4.59 0 0 1-.27-1.45zm1.15 6.88a1.68 1.68 0 0 1-1.11-.41 1.48 1.48 0 0 1-.47-1.16 1.54 1.54 0 0 1 1.56-1.55 1.57 1.57 0 0 1 1.13.45c.296.29.462.686.46 1.1a1.47 1.47 0 0 1-.47 1.15 1.59 1.59 0 0 1-1.1.42z"/>
    </g>
</svg>
