<svg width="16" height="16" viewBox="0 0 16 16" fill="none" xmlns="http://www.w3.org/2000/svg">
<path fill-rule="evenodd" clip-rule="evenodd" d="M13.25 3.25C13.8023 3.25 14.25 3.69772 14.25 4.25V14.25C14.25 14.8023 13.8023 15.25 13.25 15.25H5.25C4.69772 15.25 4.25 14.8023 4.25 14.25V4.25C4.25 3.69772 4.69772 3.25 5.25 3.25H13.25ZM13.25 4.25H5.25V14.25H13.25V4.25ZM10.75 0.75V1.75H3.25C3.00454 1.75 2.80039 1.92688 2.75806 2.16012L2.75 2.25V11.75H1.75V2.25C1.75 1.42157 2.42157 0.75 3.25 0.75H10.75Z" fill="#216FEA"/>
</svg>
