<svg xmlns="http://www.w3.org/2000/svg" width="36" height="36" viewBox="0 0 36 36">
    <defs>
        <linearGradient id="prefix__a" x1="50.063%" x2="49.063%" y1="51.938%" y2=".375%">
            <stop offset="0%" stop-color="#E5B527" stop-opacity=".8"/>
            <stop offset="66%" stop-color="#FFD215" stop-opacity="0"/>
        </linearGradient>
        <linearGradient id="prefix__b" x1="108.057%" x2="37.607%" y1="84.304%" y2="40.391%">
            <stop offset="0%" stop-color="#133E92" stop-opacity=".4"/>
            <stop offset="100%" stop-color="#133E92" stop-opacity="0"/>
        </linearGradient>
    </defs>
    <g fill="none" fill-rule="evenodd">
        <circle cx="18" cy="9" r="8" fill="#FFDE00" fill-rule="nonzero"/>
        <circle cx="18" cy="9" r="8" fill="url(#prefix__a)" fill-rule="nonzero"/>
        <path fill="#FFF" fill-rule="nonzero" d="M18 15.88c-3.8 0-6.88-3.08-6.88-6.88S14.2 2.12 18 2.12 24.88 5.2 24.88 9c-.006 3.797-3.083 6.874-6.88 6.88zm0-13.44c-3.623 0-6.56 2.937-6.56 6.56 0 3.623 2.937 6.56 6.56 6.56 3.623 0 6.56-2.937 6.56-6.56 0-1.74-.691-3.408-1.921-4.639-1.23-1.23-2.9-1.921-4.639-1.921z" opacity=".4"/>
        <path d="M0 0H36V36H0z"/>
        <path fill="#508FEA" d="M7 12h22v21c0 1.105-.895 2-2 2H9c-1.105 0-2-.895-2-2V12z"/>
        <path fill="url(#prefix__b)" d="M7 12h22v21c0 1.105-.895 2-2 2H9c-1.105 0-2-.895-2-2V12z"/>
        <path fill="#FFDA00" d="M12.5 17.5c.276 0 .5.224.5.5v11c0 .276-.224.5-.5.5s-.5-.224-.5-.5V18c0-.276.224-.5.5-.5zM23.5 17.5c.276 0 .5.224.5.5v11c0 .276-.224.5-.5.5s-.5-.224-.5-.5V18c0-.276.224-.5.5-.5zM18 17.5c.276 0 .5.224.5.5v11c0 .276-.224.5-.5.5s-.5-.224-.5-.5V18c0-.276.224-.5.5-.5z"/>
        <path fill="#37475E" d="M6 10h24c.552 0 1 .448 1 1s-.448 1-1 1H6c-.552 0-1-.448-1-1s.448-1 1-1z"/>
    </g>
</svg>
