<svg xmlns="http://www.w3.org/2000/svg" width="36" height="36" viewBox="0 0 36 36">
    <g fill="none" fill-rule="evenodd">
        <path d="M0 0H36V36H0z"/>
        <path fill="#508FEA" d="M13.43 17.43L8.86 14l4.57-3.43v2.29h8c3.063.128 5.48 2.649 5.48 5.715s-2.417 5.587-5.48 5.715h-9.14V22h9.14c1.834-.03 3.32-1.496 3.373-3.33.053-1.832-1.344-3.383-3.173-3.52h-8.2v2.28z"/>
        <path fill="#F03465" d="M18 3c8.284 0 15 6.716 15 15 0 8.284-6.716 15-15 15-8.284 0-15-6.716-15-15C3 9.716 9.716 3 18 3zm9.57 6.41L9.41 27.57c5.085 4.561 12.85 4.35 17.68-.48s5.041-12.595.48-17.68zM18 5.14c-4.934.003-9.431 2.83-11.575 7.274C4.282 16.858 4.871 22.137 7.94 26L26 7.94c-2.272-1.813-5.093-2.8-8-2.8z"/>
    </g>
</svg>
