<svg xmlns="http://www.w3.org/2000/svg" xmlns:xlink="http://www.w3.org/1999/xlink" width="280" height="280" viewBox="0 0 280 280">
    <defs>
        <path id="a" d="M0 .26h111.442v72.92H0z"/>
        <path id="c" d="M.173.07h62.376v86.452H.173z"/>
    </defs>
    <g fill="none" fill-rule="evenodd">
        <path fill="#EFEFEF" d="M77.276 152.68c3.493-3.75 5.647-8.766 5.647-14.295 0-11.599-9.401-21-21-21-11.597 0-21 9.401-21 21 0 10.234 7.326 18.749 17.019 20.61l-.009.004c2.101.506 5.527 1.605 5.527 4.101s-3.217 2.875-2.853 5.884c.714 5.885 10.698 4.012 8.73 8.58-1.088 2.526 1.255 9.16 1.255 9.16s-.212-4.518.803-8.112c.423-1.5 2.48-1.158 2.584-2.941.174-2.93-3.476-3.21-4.189-5.974-.714-2.764 6.957-5.499 6.686-8.023-.237-2.209-1.72-4.78.8-8.994"/>
        <path fill="#666" d="M62.038 146.229c-.386 0-.723-.124-1.01-.375-.288-.249-.431-.598-.431-1.047 0-.393.137-.726.411-1.001a1.378 1.378 0 0 1 1.01-.413c.4 0 .74.138 1.02.413.281.275.422.608.422 1.001 0 .443-.142.79-.426 1.043a1.45 1.45 0 0 1-.996.379m-1.053-6.24l-.303-4.544a33.581 33.581 0 0 1-.085-1.906c0-.525.137-.933.411-1.227.276-.294.638-.442 1.087-.442.544 0 .908.189 1.09.564.184.377.275.919.275 1.627 0 .417-.022.84-.066 1.271l-.407 4.676c-.045.556-.14.984-.285 1.28-.146.297-.386.446-.721.446-.342 0-.579-.145-.711-.431-.132-.289-.227-.726-.285-1.314"/>
        <g>
            <path fill="#F5C30F" d="M173.935 146.582V266.5h73.036l18.942-106.4c1.254-7.05-4.165-13.518-11.324-13.518h-80.654z"/>
            <path d="M173.935 146.582V266.5h73.036l18.942-106.4c1.254-7.05-4.165-13.518-11.324-13.518h-80.654z"/>
            <g>
                <path fill="#FECC17" d="M231.277 266.499h-73.038V146.582h80.655c7.158 0 12.577 6.47 11.322 13.517l-18.94 106.4z"/>
                <path fill="#472F23" d="M154.785 86.623s-8.998-8.475-25.533-.522c-15.207 7.313-13.08 19.776-8.894 31.915 4.14 12.004-9.21 18.416-13.917 27.834-4.708 9.417-1.721 23.555 5.338 32.437 6.068 7.64 45.62 18.312 69.062-3.768 10.98-10.342 14.126-28.251 8.894-39.97-5.232-11.72-13.08-16.953-13.5-28.672-.37-10.354-10.046-22.393-21.45-19.254"/>
                <path fill="#1C100A" d="M171.318 112.574s.628 7.535 4.707 15.592c4.082 8.055 9.21 20.09 3.246 29.194-5.965 9.104-69.587 18.103-69.587 18.103s-6.068-20.718 7.535-35.264c13.604-14.546 7.273-24.12 9.601-32.36 2.328-8.239 26.08 13.628 31.94 13.316 5.86-.314 12.558-8.581 12.558-8.581"/>
                <path fill="#1C100A" d="M122.974 136.202a.24.24 0 0 1-.233-.299c3.676-14.577.786-19.528-1.128-22.804-.36-.618-.672-1.152-.9-1.686-5.616-13.1-.904-18.753 4.037-21.187 10.51-5.176 20.995.574 21.1.634a.243.243 0 0 1 .093.33.245.245 0 0 1-.328.09c-.104-.057-10.375-5.685-20.65-.622-4.757 2.343-9.276 7.812-3.81 20.566.217.507.522 1.027.874 1.632 1.833 3.142 4.903 8.397 1.178 23.163a.24.24 0 0 1-.233.183"/>
                <path fill="#EAB093" d="M127.578 119.586s-1.465-1.675-2.615 1.358c-1.153 3.036 2.3 6.489 3.975 6.907 1.675.418.419-7.01-1.36-8.265"/>
                <path fill="#FCC8AB" d="M144.32 142.055c-5.655-.012-10.182-3.93-12.635-7.14-4.421-5.788-4.735-23.178-4.735-23.178s-.837-9.104 7.013-13.812c0 0-1.806 5.547 10.123 7.664 5.363.952 14.008 2.918 16.637 8.686 0 0 1.1-4.238 6.043-4.943 4.943-.71 6.12 5.727 3.689 9.102-2.434 3.374-5.495 5.964-5.495 5.964s-.079 12.164.55 17.737c.628 5.574 4.866 9.968 4.866 9.968s11.772 9.261-3.53 13.89c-15.304 4.63-23.703-4.945-22.446-12.95 1.254-8.003-.08-10.988-.08-10.988"/>
                <path fill="#EAB093" d="M144.32 142.055s9.253-2.246 14.44-8.79c0 0-2.824 11.302-7.611 14.207-4.787 2.902-6.279-.158-6.279-.158s-.079-3.93-.55-5.26"/>
                <path fill="#006AFF" d="M200.827 233.433l-5.757-32.437c9.104 15.172 14.024 31.076 14.024 31.076l-8.267 1.361zm21.45-39.03c-10.672-27.101-19.568-31.185-28.775-35.683-9.21-4.5-23.126-6.617-23.126-6.617s-1.256 1.803-5.546 4.002c-4.29 2.197-9.208 3.976-14.962 2.93-5.757-1.047-5.47-5.992-5.47-5.992s-11.901 1.388-26.866 13.526c-14.962 12.14-23.961 47.61-23.961 47.61l9.836 23.546L123.6 211.25s2.931 10.568 4.396 19.15c1.464 8.58-.629 36.099-.629 36.099h80.364l-1.987-7.952s5.126-.42 13.185-1.568c8.055-1.153 14.126-1.675 19.044-9.21 4.918-7.535-5.024-26.263-15.697-53.366z"/>
                <path fill="#0054FF" d="M123.601 211.25s-.732-4.291.839-10.046c1.568-5.754 2.407-13.601 2.407-13.601s-1.99 7.114-5.757 14.125c-3.767 7.01-20.196 30.659-20.196 30.659l2.513 5.336 20.194-26.473zM195.07 200.995s1.78 24.799-2.196 28.252c-3.978 3.454-48.03 7.64-53.052 9.104-5.024 1.466-11.197 12.347-11.197 12.347l-1.256 15.8h80.363l-6.905-33.065-5.756-32.438z"/>
                <path fill="#FCC8AB" d="M149.345 240.827s-13.29 1.606-17.267 4.43c-3.976 2.826-7.535 14.755-7.535 14.755h7.535l5.022-6.383s4.395 1.989 8.581 2.197c4.186.21 9.418-2.511 9.418-2.511l-5.754-12.488z"/>
                <path fill="#006AFF" d="M206.123 258.508l-51.535 1.008-5.244-18.69 53.09-7.629z"/>
                <path fill="#131B1E" d="M174.492 266.448h-61.878v-7.535h61.878a2.631 2.631 0 0 1 2.633 2.633v2.27a2.632 2.632 0 0 1-2.633 2.632"/>
                <g transform="translate(11.846 193.269)">
                    <mask id="b" fill="#fff">
                        <use xlink:href="#a"/>
                    </mask>
                    <path fill="#273237" d="M111.442 73.18H21.37a5.212 5.212 0 0 1-5.045-3.907L.168 6.776C-.684 3.477 1.806.261 5.213.261h79.89a9.668 9.668 0 0 1 9.36 7.248l16.979 65.67z" mask="url(#b)"/>
                </g>
                <path fill="#4C3D38" d="M132.914 118.253a.97.97 0 1 1 0 0M147.738 117.54a.957.957 0 1 1-1.914.001.957.957 0 0 1 1.914 0M144.53 131.022a.257.257 0 0 1-.054-.005c-3.571-.82-7.92-.11-7.963-.104a.242.242 0 0 1-.278-.197.24.24 0 0 1 .199-.277c.18-.03 4.482-.729 8.15.107a.242.242 0 1 1-.054.476M129.505 114.8a.244.244 0 0 1-.164-.064.243.243 0 0 1-.013-.34c.06-.064 1.488-1.598 3.02-1.957a.251.251 0 0 1 .289.181.243.243 0 0 1-.182.291c-1.387.324-2.76 1.796-2.773 1.812a.246.246 0 0 1-.177.077M148.816 113.06a.258.258 0 0 1-.112-.026c-2.15-1.116-4.193-.782-4.215-.777-.138.014-.254-.065-.277-.196a.24.24 0 0 1 .195-.278c.09-.013 2.218-.368 4.52.823a.242.242 0 0 1-.111.455"/>
                <path fill="#8BD6EA" d="M147.974 121.6s-1.802 3.322-.393 4.503c1.406 1.181 1.97-.788 1.576-2.197-.395-1.407-1.183-2.307-1.183-2.307"/>
                <path fill="#FFF" d="M61.664 230.96l6.144 6.123a8.914 8.914 0 0 0 2.428-6.123 8.91 8.91 0 0 0-2.428-6.12l-6.144 6.12zM61.236 231.387l-6.06 6.038 6.06 2.501 6.06-2.501zM61.022 230.747l6.275-6.25-5.781-2.385-5.782 13.902zM52.238 230.96c0 2.359.913 4.502 2.407 6.101l6.031-14.507-8.438 8.406z"/>
                <path fill="#4C3D38" d="M137.571 126.101c-.728 0-1.466-.156-1.885-.588-.225-.235-.449-.655-.227-1.32.538-1.613 1.316-6.275 1.324-6.323a.242.242 0 0 1 .277-.196.238.238 0 0 1 .199.277c-.033.193-.794 4.745-1.343 6.392-.118.357-.08.63.117.835.486.501 1.864.55 2.804.27a.246.246 0 0 1 .299.164.238.238 0 0 1-.162.298c-.387.114-.892.191-1.403.191"/>
                <path fill="#3E454C" d="M128.467 236.657a.242.242 0 0 1-.24-.233c-.136-4.903-.874-10.062-2.19-15.333-1.085-4.34-2.652-9.72-2.667-9.772-.04-.195-.835-4.332.838-10.181 1.648-5.772 2.39-13.482 2.398-13.56.013-.132.132-.252.262-.215a.24.24 0 0 1 .217.262c-.007.077-.753 7.832-2.414 13.646-1.636 5.727-.842 9.892-.833 9.932.01.035 1.578 5.421 2.665 9.77 1.326 5.306 2.068 10.5 2.205 15.435a.243.243 0 0 1-.235.249h-.006z"/>
                <path fill="#3E454C" d="M124.962 199.247a.241.241 0 0 1-.227-.16c-1.15-3.191-1.265-9.036-1.268-9.285a.24.24 0 0 1 .237-.244h.004a.24.24 0 0 1 .24.237c0 .06.116 6.012 1.241 9.13a.24.24 0 0 1-.146.307.201.201 0 0 1-.08.015M214.638 233.883a.242.242 0 0 1-.12-.033c-3.121-1.811-5.374-1.536-5.393-1.538a.246.246 0 0 1-.262-.166c-2.656-8.425-6.792-17.773-12.644-28.577-4.041-7.464-6.27-13.314-6.29-13.372a.24.24 0 1 1 .449-.17c.023.056 2.239 5.882 6.265 13.31 5.823 10.754 9.953 20.072 12.622 28.48.632-.035 2.73.013 5.493 1.617a.239.239 0 0 1 .088.33.24.24 0 0 1-.208.119"/>
                <path fill="#3E454C" d="M195.07 201.236c-.011 0-.023 0-.036-.002-2.15-.323-5.745-4.203-5.895-4.366a.239.239 0 0 1 .013-.34.242.242 0 0 1 .34.012c.038.04 3.63 3.92 5.615 4.216a.243.243 0 0 1 .202.276.244.244 0 0 1-.238.204M154.588 259.758a.239.239 0 0 1-.231-.176l-5.244-18.689a.248.248 0 0 1 .029-.198.25.25 0 0 1 .167-.106l59.749-8.755a.244.244 0 0 1 .274.202.243.243 0 0 1-.205.276l-59.477 8.714 5.169 18.425a.24.24 0 0 1-.231.307"/>
                <path fill="#3E454C" d="M160.644 253.295a.241.241 0 0 1-.231-.171l-3.924-13.186a.242.242 0 0 1 .162-.3c.13-.03.262.036.299.161l3.925 13.186a.241.241 0 0 1-.231.31M125.172 258.16a.241.241 0 0 1-.222-.335c.69-1.62 1.039-2.382 1.482-3.35.418-.911.939-2.044 1.92-4.291 2.293-5.25 3.823-5.728 7.916-7.01l.76-.238c5.153-1.633 12.223-2.342 12.293-2.348.13-.044.25.083.264.214a.24.24 0 0 1-.216.264c-.072.008-7.092.711-12.195 2.328l-.761.24c-4.051 1.267-5.416 1.695-7.62 6.742a226.132 226.132 0 0 1-1.922 4.3c-.443.963-.792 1.726-1.478 3.338a.24.24 0 0 1-.221.146"/>
                <path fill="#1C100A" d="M194.966 153.416a.242.242 0 0 1-.227-.322c.04-.114 3.937-11.422-3.273-17.311-.458-.376-.919-.748-1.383-1.122-7.121-5.768-14.486-11.728-15.97-24.887-1.532-13.576-11.75-16.3-11.852-16.324a.242.242 0 0 1-.176-.293.238.238 0 0 1 .291-.174c.108.025 10.646 2.818 12.215 16.74 1.462 12.96 8.749 18.858 15.796 24.562l1.384 1.124c7.473 6.105 3.463 17.73 3.422 17.847a.242.242 0 0 1-.227.16M147.773 90.37a.246.246 0 0 1-.192-.096c-.01-.014-1.066-1.393-3.236-2.473-2-.996-5.388-1.93-10.17-.736a.235.235 0 0 1-.29-.175.24.24 0 0 1 .175-.291c4.937-1.232 8.448-.255 10.526.782 2.26 1.131 3.336 2.546 3.38 2.604a.24.24 0 0 1-.193.385"/>
                <path fill="#1C100A" d="M179.95 142.01a.238.238 0 0 1-.227-.163c-1.852-5.401-6.124-22.275-7.232-30.024-1.064-7.447-4.086-9.223-4.114-9.24a.24.24 0 1 1 .231-.422c.133.072 3.259 1.874 4.359 9.594 1.106 7.726 5.365 24.55 7.211 29.934a.24.24 0 0 1-.227.32"/>
                <path fill="#4C3D38" d="M221.545 168.85c-.012 0-.023 0-.035-.002a.242.242 0 0 1-.204-.274l1.362-9.364a.235.235 0 0 1 .272-.204.24.24 0 0 1 .204.272l-1.36 9.366a.242.242 0 0 1-.239.206"/>
                <path fill="#4C3D38" d="M226.881 163.827h-.003l-9.104-.156a.241.241 0 0 1 .004-.482h.003l9.104.156a.241.241 0 0 1-.004.482"/>
                <g transform="translate(203.709 146.168)">
                    <mask id="d" fill="#fff">
                        <use xlink:href="#c"/>
                    </mask>
                    <path fill="#4C3D38" d="M49.623 86.522l-.474-.083s8.946-50.699 10.986-62.314c.245-1.385.474-2.647.684-3.806 1.571-8.612 2.043-11.212-.797-14.998C56.798 1.019 54.319.55 45.932.55H.414a.241.241 0 0 1 0-.482h45.518c8.578 0 11.12.488 14.477 4.962 2.966 3.957 2.442 6.834.885 15.375-.21 1.156-.44 2.419-.685 3.802-2.038 11.615-10.986 62.314-10.986 62.314" mask="url(#d)"/>
                </g>
                <path fill="#4C3D38" d="M241.95 207.306a.24.24 0 0 1-.237-.281c.07-.39 6.92-38.865 8.266-46.967 1.314-7.914-4.439-10.888-4.683-11.01a.242.242 0 0 1 .214-.433c.065.035 1.61.815 3 2.63 1.284 1.673 2.661 4.574 1.945 8.892-1.346 8.104-8.198 46.58-8.268 46.968a.241.241 0 0 1-.237.2"/>
            </g>
        </g>
    </g>
</svg>
