<svg xmlns="http://www.w3.org/2000/svg" width="166" height="166" viewBox="0 0 166 166">
    <g fill="none" fill-rule="evenodd">
        <rect width="166" height="166" fill="#EEF3F5" rx="15.81"/>
        <path fill="#F8FAFB" d="M133.838 9.338c0 12.605 10.219 22.825 22.825 22.825v101.675c-12.606 0-22.826 10.219-22.826 22.825H32.163c0-12.606-10.22-22.826-22.825-22.826V32.163c12.605 0 22.825-10.22 22.825-22.825h101.675z"/>
        <circle cx="82" cy="83" r="20" fill="#E3EAEE"/>
        <path fill="#FFF" fill-rule="nonzero" d="M82.016 87.274c.448 0 .77-.198.964-.596.195-.398.322-.97.381-1.714l.546-6.259c.06-.575.09-1.142.09-1.701 0-.948-.124-1.674-.37-2.177-.245-.504-.731-.756-1.459-.756-.6 0-1.085.197-1.454.59-.368.394-.552.942-.552 1.645 0 .516.038 1.367.114 2.551l.407 6.081c.076.788.203 1.374.38 1.759.178.385.496.577.953.577zm.076 6.018c.508 0 .952-.17 1.333-.508.38-.338.571-.804.571-1.396 0-.525-.188-.971-.565-1.34-.376-.368-.831-.552-1.365-.552-.533 0-.983.184-1.352.552-.368.369-.552.815-.552 1.34 0 .6.193 1.068.578 1.403.385.334.836.501 1.352.501z"/>
    </g>
</svg>
