<svg xmlns="http://www.w3.org/2000/svg" width="12" height="13" viewBox="0 0 12 13">
    <g fill="none" fill-rule="evenodd" transform="translate(0 .5)">
        <circle cx="6" cy="6" r="6" fill="#F03465"/>
        <path fill="#FFF" fill-rule="nonzero" d="M6.14 7.298c.173 0 .297-.077.372-.23.075-.153.123-.372.146-.659l.21-2.407c.023-.221.034-.44.034-.654 0-.365-.047-.644-.141-.838-.095-.193-.282-.29-.562-.29-.23 0-.417.075-.559.227-.141.151-.212.362-.212.632 0 .199.014.526.044.982l.156 2.338c.03.303.078.529.146.677.069.148.19.222.367.222zm.03 2.314c.195 0 .366-.065.513-.195.146-.13.22-.31.22-.537 0-.202-.073-.374-.218-.515-.145-.142-.32-.213-.525-.213-.205 0-.378.071-.52.213-.141.141-.212.313-.212.515 0 .231.074.41.222.54.148.128.321.192.52.192z"/>
    </g>
</svg>
