<svg width="120" height="125" viewBox="0 0 120 125" fill="none" xmlns="http://www.w3.org/2000/svg">
<g opacity="0.8" clip-path="url(#clip0_3031_1865)">
<path d="M65.3 1.30012L76.1 6.90012C77.2 7.50012 78.4 7.90012 79.7 8.10012L91.7 9.90012C95.4 10.5001 98.6 12.8001 100.2 16.1001L105.7 27.0001C106.3 28.1001 107 29.1001 107.9 30.0001L116.6 38.6001C119.3 41.2001 120.5 45.0001 119.9 48.6001L117.9 60.6001C117.7 61.8001 117.7 63.1001 117.9 64.3001L119.9 76.3001C120.5 80.0001 119.3 83.7001 116.6 86.3001L107.9 94.9001C107 95.8001 106.3 96.8001 105.7 97.9001L100.2 108.8C98.5 112.1 95.3 114.4 91.7 115L79.7 116.8C78.5 117 77.3 117.4 76.1 118L65.3 123.6C62 125.3 58.1 125.3 54.7 123.6L43.9 118C42.8 117.4 41.6 117 40.3 116.8L28.3 115C24.6 114.4 21.4 112.1 19.8 108.8L14.3 98.0001C13.7 96.9001 13 95.9001 12.1 95.0001L3.40003 86.4001C0.700027 83.8001 -0.499973 80.0001 0.100027 76.4001L2.10003 64.4001C2.30003 63.2001 2.30003 61.9001 2.10003 60.7001L0.100027 48.7001C-0.499973 45.0001 0.700027 41.3001 3.40003 38.7001L12.1 30.1001C13 29.2001 13.7 28.2001 14.3 27.1001L19.8 16.2001C21.5 12.9001 24.7 10.6001 28.3 10.0001L40.3 8.20012C41.5 8.00012 42.7 7.60012 43.9 7.00012L54.7 1.40012C58 -0.399879 62 -0.399879 65.3 1.30012Z" fill="#171B1D"/>
<path d="M64.5 10.1001L73.8 14.9001C74.8 15.4001 75.8 15.7001 76.8 15.9001L87.1 17.5001C90.3 18.0001 93 20.0001 94.4 22.8001L99.1 32.1001C99.6 33.1001 100.2 33.9001 101 34.7001L108.4 42.0001C110.7 44.2001 111.7 47.4001 111.2 50.6001L109.5 60.9001C109.3 62.0001 109.3 63.0001 109.5 64.1001L111.2 74.4001C111.7 77.5001 110.7 80.8001 108.4 83.0001L101 90.3001C100.2 91.1001 99.6 91.9001 99.1 92.9001L94.4 102.2C93 105.1 90.2 107 87.1 107.5L76.8 109.1C75.7 109.3 74.7 109.6 73.8 110.1L64.5 114.9C61.7 116.4 58.3 116.4 55.5 114.9L46.2 110.1C45.2 109.6 44.2 109.3 43.2 109.1L32.9 107.5C29.7 107 27 105 25.6 102.2L20.9 92.9001C20.4 91.9001 19.8 91.1001 19 90.3001L11.6 83.0001C9.30001 80.8001 8.30001 77.6001 8.80001 74.4001L10.5 64.1001C10.7 63.0001 10.7 62.0001 10.5 60.9001L8.80001 50.6001C8.30001 47.5001 9.30001 44.2001 11.6 42.0001L19 34.7001C19.8 33.9001 20.4 33.1001 20.9 32.1001L25.6 22.8001C27 19.9001 29.8 18.0001 32.9 17.5001L43.2 15.9001C44.3 15.7001 45.3 15.4001 46.2 14.9001L55.5 10.1001C58.3 8.6001 61.7 8.6001 64.5 10.1001Z" stroke="white" stroke-miterlimit="10"/>
<path fill-rule="evenodd" clip-rule="evenodd" d="M27 54H30.3158V71.9122H27V54ZM38.3509 61.5088C36.4912 61.5088 36.1405 62.4561 36.1405 63.7193V71.8947H33.0527V58.5263H36.1405V58.8596C36.7672 58.6435 37.4249 58.531 38.0878 58.5263H39.4562C40.0745 58.4925 40.6933 58.5864 41.2738 58.8023C41.8543 59.0181 42.3841 59.3512 42.8302 59.7808C43.2763 60.2104 43.629 60.7273 43.8665 61.2993C44.104 61.8712 44.2211 62.486 44.2106 63.1052V71.8771H41.1228V63.7017C41.1228 62.4386 40.8246 61.4912 38.9825 61.4912L38.3509 61.5088ZM49.4385 71.9121H52.3858L56.2455 58.5262H53.3157L50.8771 67.0174L48.2982 58.5262H45.3859L49.4385 71.9121ZM57.6491 62.7543C57.6663 62.1634 57.8034 61.5821 58.0519 61.0457C58.3004 60.5093 58.6552 60.0288 59.0948 59.6336C59.5343 59.2383 60.0496 58.9363 60.6093 58.746C61.169 58.5556 61.7615 58.4809 62.3509 58.5263H63.9298C64.5444 58.4945 65.1589 58.5904 65.7346 58.8079C66.3103 59.0253 66.8347 59.3597 67.2747 59.7899C67.7148 60.2201 68.0609 60.7367 68.2914 61.3073C68.5219 61.8779 68.6317 62.49 68.614 63.1052V71.8771H61.1404C60.6299 71.875 60.1254 71.7659 59.6597 71.5567C59.194 71.3475 58.7774 71.0429 58.4368 70.6626C58.0961 70.2823 57.8391 69.8347 57.6823 69.3489C57.5255 68.863 57.4724 68.3497 57.5264 67.842C57.4745 67.3512 57.5267 66.855 57.6797 66.3859C57.8327 65.9167 58.0829 65.485 58.4141 65.1191C58.7452 64.7532 59.1498 64.4613 59.6015 64.2624C60.0531 64.0635 60.5416 63.9621 61.0351 63.9648H65.5965V63.7017C65.5965 62.4385 65.3508 61.4912 63.4736 61.4912H62.8245C61.4035 61.4912 60.9299 61.8771 60.7018 62.7192L57.6491 62.7543ZM61.2456 69.1929H65.5965V66.5262H61.2632C60.8246 66.5262 60.3685 66.9648 60.3685 67.8771C60.3685 68.7894 60.8071 69.1929 61.2456 69.1929ZM70.7543 57.0877H73.842V54H70.7543V57.0877ZM70.7543 71.9122H73.842V58.5263H70.7543V71.9122ZM76.2455 54H79.3333V71.9122H76.2455V54ZM84.4673 71.6474C85.0859 71.8745 85.7464 71.9649 86.4034 71.9123L92.4209 72V54.0878H89.456V58.9299C88.8239 58.713 88.1593 58.6062 87.4911 58.6141H86.4034C85.7464 58.5615 85.0859 58.6518 84.4673 58.879C83.8486 59.1061 83.2865 59.4646 82.8197 59.9298C82.3528 60.3949 81.9922 60.9558 81.7629 61.5736C81.5336 62.1915 81.4409 62.8517 81.4911 63.5088V67.0176C81.4409 67.6747 81.5336 68.3349 81.7629 68.9528C81.9922 69.5706 82.3528 70.1314 82.8197 70.5966C83.2865 71.0618 83.8486 71.4203 84.4673 71.6474ZM89.456 63.4913V68.8772L86.4034 68.9474C86.1418 68.9568 85.881 68.9134 85.6366 68.8198C85.3922 68.7262 85.1692 68.5842 84.9808 68.4024C84.7925 68.2207 84.6427 68.0028 84.5405 67.7618C84.4383 67.5209 84.3857 67.2618 84.3859 67V63.4913C84.3881 63.2302 84.4423 62.9722 84.5453 62.7324C84.6484 62.4925 84.7982 62.2756 84.9861 62.0943C85.1739 61.913 85.396 61.771 85.6394 61.6765C85.8827 61.582 86.1424 61.5369 86.4034 61.5439H87.4911C87.7496 61.5368 88.0069 61.5821 88.2474 61.6772C88.4879 61.7723 88.7065 61.9152 88.8902 62.0972C89.0738 62.2793 89.2187 62.4967 89.3159 62.7363C89.4132 62.9759 89.4608 63.2327 89.456 63.4913Z" fill="white"/>
</g>
<defs>
<clipPath id="clip0_3031_1865">
<rect width="120" height="125" fill="white"/>
</clipPath>
</defs>
</svg>
