<svg width="16" height="16" viewBox="0 0 16 16" fill="none" xmlns="http://www.w3.org/2000/svg">
<path fill-rule="evenodd" clip-rule="evenodd" d="M15.68 8.18177C15.68 7.6145 15.6291 7.06905 15.5345 6.54541H8V9.63996H12.3055C12.12 10.64 11.5564 11.4872 10.7091 12.0545V14.0618H13.2945C14.8073 12.669 15.68 10.6181 15.68 8.18177Z" fill="white"/>
<path fill-rule="evenodd" clip-rule="evenodd" d="M7.99995 15.9995C10.16 15.9995 11.9709 15.2832 13.2945 14.0613L10.709 12.0541C9.99268 12.5341 9.07632 12.8177 7.99995 12.8177C5.91632 12.8177 4.15268 11.4104 3.52359 9.51953H0.850861V11.5923C2.16722 14.2068 4.87268 15.9995 7.99995 15.9995Z" fill="white"/>
<path fill-rule="evenodd" clip-rule="evenodd" d="M3.52364 9.51995C3.36364 9.03995 3.27273 8.52723 3.27273 7.99995C3.27273 7.47268 3.36364 6.95995 3.52364 6.47995V4.40723H0.850909C0.309091 5.48723 0 6.70904 0 7.99995C0 9.29086 0.309091 10.5127 0.850909 11.5927L3.52364 9.51995Z" fill="white"/>
<path fill-rule="evenodd" clip-rule="evenodd" d="M7.99995 3.18182C9.1745 3.18182 10.229 3.58545 11.0581 4.37818L13.3527 2.08364C11.9672 0.792727 10.1563 0 7.99995 0C4.87268 0 2.16722 1.79273 0.850861 4.40727L3.52359 6.48C4.15268 4.58909 5.91632 3.18182 7.99995 3.18182Z" fill="white"/>
</svg>
