<svg xmlns="http://www.w3.org/2000/svg" width="280" height="280" viewBox="0 0 280 280">
    <defs>
        <linearGradient id="a" x1="36.603%" x2="67.436%" y1="31.038%" y2="65.488%">
            <stop offset="0%" stop-color="#CFECFF"/>
            <stop offset="100%" stop-color="#F6FCFF"/>
        </linearGradient>
        <linearGradient id="b" x1="77.662%" x2="19.204%" y1="50.517%" y2="49.192%">
            <stop offset="0%" stop-color="#CFECFF"/>
            <stop offset="100%" stop-color="#F6FCFF"/>
        </linearGradient>
        <linearGradient id="c" x1="-.035%" x2="99.978%" y1="50.01%" y2="50.01%">
            <stop offset="0%" stop-color="#8CC3F9"/>
            <stop offset="32%" stop-color="#8AC1F9"/>
            <stop offset="45%" stop-color="#83BBF7"/>
            <stop offset="54%" stop-color="#77B0F5"/>
            <stop offset="62%" stop-color="#65A1F1"/>
            <stop offset="64%" stop-color="#5F9BF0"/>
            <stop offset="70%" stop-color="#6EA8F3"/>
            <stop offset="79%" stop-color="#7FB7F6"/>
            <stop offset="88%" stop-color="#89C0F8"/>
            <stop offset="100%" stop-color="#8CC3F9"/>
        </linearGradient>
        <linearGradient id="d" x1="0%" y1="50%" y2="50%">
            <stop offset="0%" stop-color="#96C7F9"/>
            <stop offset="36%" stop-color="#92C4F9"/>
            <stop offset="72%" stop-color="#86BAF9"/>
            <stop offset="100%" stop-color="#77AEF9"/>
        </linearGradient>
        <linearGradient id="e" x1=".047%" y1="49.969%" y2="49.969%">
            <stop offset="0%" stop-color="#94C3F9"/>
            <stop offset="13%" stop-color="#98C5FA"/>
            <stop offset="26%" stop-color="#A4CCFB"/>
            <stop offset="39%" stop-color="#B9D6FE"/>
            <stop offset="43%" stop-color="#C0DAFF"/>
            <stop offset="53%" stop-color="#B8D6FD"/>
            <stop offset="72%" stop-color="#AFD1FA"/>
            <stop offset="100%" stop-color="#ACD0F9"/>
        </linearGradient>
        <linearGradient id="f" x1=".001%" y1="50.002%" y2="50.002%">
            <stop offset="0%" stop-color="#AACFF9"/>
            <stop offset="18%" stop-color="#AED1FA"/>
            <stop offset="37%" stop-color="#BAD7FD"/>
            <stop offset="43%" stop-color="#C0DAFF"/>
            <stop offset="53%" stop-color="#B8D6FD"/>
            <stop offset="72%" stop-color="#AFD1FA"/>
            <stop offset="100%" stop-color="#ACD0F9"/>
        </linearGradient>
        <linearGradient id="g" x1="57.167%" x2="48.141%" y1="55.392%" y2="46.954%">
            <stop offset="0%" stop-color="#133E91" stop-opacity=".4"/>
            <stop offset="100%" stop-color="#133E91" stop-opacity="0"/>
        </linearGradient>
        <radialGradient id="h" cx="54.157%" cy="73.042%" r="29.36%" fx="54.157%" fy="73.042%" gradientTransform="matrix(1 0 0 .89856 0 .074)">
            <stop offset="0%" stop-color="#133E91" stop-opacity=".4"/>
            <stop offset="100%" stop-color="#133E91" stop-opacity="0"/>
        </radialGradient>
        <linearGradient id="i" x1="67.501%" x2="49.412%" y1="53.869%" y2="51%">
            <stop offset="0%" stop-color="#133E91" stop-opacity=".4"/>
            <stop offset="100%" stop-color="#133E91" stop-opacity="0"/>
        </linearGradient>
        <linearGradient id="j" x1="-.907%" x2="91.846%" y1="91.552%" y2="18.762%">
            <stop offset="0%" stop-color="#609CF0"/>
            <stop offset="100%" stop-color="#8CC3F9"/>
        </linearGradient>
        <linearGradient id="k" x1="50.231%" x2="50.231%" y1="-100.933%" y2="-100.817%">
            <stop offset="0%" stop-color="#133E91" stop-opacity=".4"/>
            <stop offset="100%" stop-color="#133E91" stop-opacity="0"/>
        </linearGradient>
        <linearGradient id="l" x1="53.806%" x2="49.211%" y1="46.3%" y2="48.94%">
            <stop offset="0%" stop-color="#133E91" stop-opacity=".4"/>
            <stop offset="100%" stop-color="#133E91" stop-opacity="0"/>
        </linearGradient>
        <linearGradient id="m" x1=".125%" x2="99.9%" y1="49.995%" y2="49.995%">
            <stop offset="0%" stop-color="#FFD215"/>
            <stop offset="55%" stop-color="#FFE000"/>
            <stop offset="100%" stop-color="#FFD215"/>
        </linearGradient>
        <linearGradient id="n" x1="-.177%" x2="99.896%" y1="50.377%" y2="50.377%">
            <stop offset="0%" stop-color="#37475E" stop-opacity=".8"/>
            <stop offset="100%" stop-color="#37475E"/>
        </linearGradient>
        <linearGradient id="o" x1="-.012%" x2="100.03%" y1="50.055%" y2="50.055%">
            <stop offset="0%" stop-color="#37475E" stop-opacity=".8"/>
            <stop offset="100%" stop-color="#37475E"/>
        </linearGradient>
        <linearGradient id="p" x1="-.216%" x2="100.01%" y1="50.069%" y2="50.069%">
            <stop offset="0%" stop-color="#37475E" stop-opacity=".8"/>
            <stop offset="100%" stop-color="#37475E"/>
        </linearGradient>
        <linearGradient id="q" x1=".05%" x2="100.024%" y1="50.093%" y2="50.093%">
            <stop offset="0%" stop-color="#37475E" stop-opacity=".8"/>
            <stop offset="100%" stop-color="#37475E"/>
        </linearGradient>
        <linearGradient id="r" x1=".275%" x2="100.024%" y1="49.995%" y2="49.995%">
            <stop offset="0%" stop-color="#FFD215"/>
            <stop offset="55%" stop-color="#FFE000"/>
            <stop offset="100%" stop-color="#FFD215"/>
        </linearGradient>
        <linearGradient id="s" x1="-.026%" x2="100.02%" y1="50%" y2="50%">
            <stop offset="0%" stop-color="#37475E" stop-opacity=".8"/>
            <stop offset="100%" stop-color="#37475E"/>
        </linearGradient>
        <linearGradient id="t" x1="-.012%" x2="100.004%" y1="50%" y2="50%">
            <stop offset="0%" stop-color="#37475E" stop-opacity=".8"/>
            <stop offset="100%" stop-color="#37475E"/>
        </linearGradient>
        <linearGradient id="u" x1="-.216%" x2="100.01%" y1="49.931%" y2="49.931%">
            <stop offset="0%" stop-color="#37475E" stop-opacity=".8"/>
            <stop offset="100%" stop-color="#37475E"/>
        </linearGradient>
        <linearGradient id="v" x1=".05%" x2="99.993%" y1="49.351%" y2="49.351%">
            <stop offset="0%" stop-color="#37475E" stop-opacity=".8"/>
            <stop offset="100%" stop-color="#37475E"/>
        </linearGradient>
    </defs>
    <g fill="none" fill-rule="evenodd">
        <path d="M0 0h280v280H0z"/>
        <path fill="#CBE0FF" fill-rule="nonzero" d="M46.12 124.35c0-.36-5.08-35.88 17.61-58.45C81.54 48.19 95.78 27.17 100 12.37l.47.13c-4.25 14.88-18.54 36-36.4 53.75-22.51 22.39-17.52 57.67-17.47 58l-.48.1z"/>
        <path fill="#CBE0FF" fill-rule="nonzero" d="M103.41 9c-.66 2.11-3.44 4.07-3.44 4.07s-1.17-3.15-.51-5.27c.66-2.12 1.81-2.69 2.9-2.35 1.09.34 1.71 1.47 1.05 3.55zM97.19 16.34c.71 2.17-.45 5.48-.45 5.48s-2.9-2-3.61-4.15c-.71-2.15-.08-3.35 1-3.71 1.08-.36 2.35.21 3.06 2.38zM92.76 24.36c.76 2.33-.49 5.88-.49 5.88s-3.1-2.13-3.87-4.45c-.77-2.32-.09-3.59 1.11-4 1.2-.41 2.49.21 3.25 2.57zM87.89 30.87c1 2.11.27 5.63.27 5.63s-3.2-1.63-4.22-3.74c-1.02-2.11-.54-3.38.55-3.9s2.38-.1 3.4 2.01zM84.19 38.14c.51 2.28-1 5.54-1 5.54s-2.75-2.32-3.25-4.61c-.5-2.29.25-3.41 1.43-3.67 1.18-.26 2.32.45 2.82 2.74zM79.61 45.49c.1 2.34-2 5.28-2 5.28s-2.31-2.76-2.41-5.1c-.1-2.34.84-3.32 2.05-3.37 1.21-.05 2.27.85 2.36 3.19zM73.86 52.3c.1 2.34-2 5.28-2 5.28s-2.31-2.76-2.41-5.1c-.1-2.34.84-3.32 2.05-3.37 1.21-.05 2.26.89 2.36 3.19zM67.8 58.69c.1 2.34-2 5.28-2 5.28s-2.31-2.75-2.41-5.09c-.1-2.34.84-3.32 2.05-3.37 1.21-.05 2.27.85 2.36 3.18zM62.16 64.78c.1 2.34-2 5.28-2 5.28s-2.31-2.75-2.4-5.09c-.09-2.34.83-3.32 2-3.37 1.17-.05 2.3.85 2.4 3.18zM55.07 73.17c.65 2.25-.66 5.6-.66 5.6s-2.89-2.14-3.54-4.39c-.65-2.25 0-3.42 1.19-3.76 1.19-.34 2.36.3 3.01 2.55zM51.11 81.88c.65 2.25-.66 5.6-.66 5.6s-2.9-2.14-3.55-4.39c-.65-2.25 0-3.42 1.2-3.76 1.2-.34 2.36.3 3.01 2.55zM103.7 19.12c-2.25.74-5.69-.47-5.69-.47s2.06-3 4.32-3.74c2.26-.74 3.47-.09 3.85 1.07.38 1.16-.18 2.41-2.48 3.14zM98.88 28.46c-2.13.45-5.16-1-5.16-1s2.17-2.55 4.3-3c2.13-.45 3.18.25 3.42 1.35.24 1.1-.44 2.19-2.56 2.65zM94.67 37.09c-2.35-.26-5-2.77-5-2.77s3.11-1.87 5.45-1.61c2.34.26 3.18 1.35 3 2.56-.18 1.21-1.12 2.09-3.45 1.82zM90.46 43.31c-2.34-.27-4.95-2.78-4.95-2.78s3.1-1.87 5.44-1.6c2.34.27 3.18 1.35 3 2.56-.18 1.21-1.15 2.08-3.49 1.82zM85.61 49.68c-2.36-.09-5.14-2.41-5.14-2.41s3-2.09 5.31-2c2.31.09 3.27 1.11 3.22 2.33-.05 1.22-1 2.17-3.39 2.08zM80.43 56.26c-2.36-.09-5.15-2.4-5.15-2.4s3-2.09 5.32-2c2.32.09 3.27 1.11 3.22 2.33-.05 1.22-1.03 2.16-3.39 2.07zM74.69 62.75c-2.36-.09-5.15-2.4-5.15-2.4s3-2.1 5.32-2c2.32.1 3.27 1.12 3.22 2.33-.05 1.21-1.03 2.16-3.39 2.07zM68.79 69.18c-2.19-.88-4-4-4-4s3.49-1 5.68-.09c2.19.91 2.7 2.16 2.24 3.29-.46 1.13-1.71 1.69-3.92.8zM63.36 74.87c-2.36 0-5.28-2.1-5.28-2.1s2.83-2.26 5.19-2.31c2.36-.05 3.33.92 3.36 2.13.03 1.21-.91 2.23-3.27 2.28zM58.45 83.15c-2.36 0-5.28-2.1-5.28-2.1s2.83-2.26 5.19-2.31c2.36-.05 3.33.92 3.35 2.13.02 1.21-.9 2.23-3.26 2.28zM54.8 91.35c-2.23.77-5.67-.37-5.67-.37s2-3 4.22-3.8c2.22-.8 3.45-.15 3.85 1 .4 1.15-.2 2.39-2.4 3.17zM34.39 89.44l-.39-.25c12.83-21.6 21.39-45.5 21.8-60.89h.49c-.44 15.49-9.02 39.48-21.9 61.14z"/>
        <path fill="#CBE0FF" fill-rule="nonzero" d="M58.23 24.23c-.11 2.21-2.32 4.77-2.32 4.77s-1.91-2.77-1.82-5c.09-2.23 1.08-3.06 2.23-3 1.15.06 2.02 1 1.91 3.23zM54 32.85c1.23 1.93.92 5.43.92 5.43s-3.3-1.2-4.52-3.13c-1.22-1.93-.92-3.22.07-3.85.99-.63 2.33-.38 3.53 1.55zM51.73 41.73c1.32 2.06 1 5.81 1 5.81s-3.53-1.29-4.85-3.35c-1.32-2.06-1-3.45.08-4.13 1.08-.68 2.45-.4 3.77 1.67zM48.63 49.24c1.51 1.79 1.67 5.38 1.67 5.38s-3.51-.77-5-2.56c-1.49-1.79-1.37-3.14-.44-3.92.93-.78 2.27-.69 3.77 1.1zM46.87 57.2c1.05 2.09.39 5.62.39 5.62S44 61.26 43 59.17s-.6-3.37.48-3.91 2.33-.15 3.39 1.94zM44.27 65.46c.67 2.24-.59 5.61-.59 5.61s-2.92-2.1-3.6-4.34c-.68-2.24 0-3.42 1.14-3.77 1.14-.35 2.37.26 3.05 2.5zM40.39 73.49c.68 2.24-.58 5.6-.58 5.6s-2.93-2.09-3.6-4.33c-.67-2.24 0-3.43 1.14-3.78 1.14-.35 2.36.27 3.04 2.51zM61 33.93c-2 1.27-5.64 1-5.64 1s1.25-3.43 3.25-4.71c2-1.28 3.34-.95 4 .09.66 1.04.39 2.34-1.61 3.62zM58.68 44.17c-2 1-5.24.33-5.24.33s1.47-3 3.42-4S60 40 60.5 41s.13 2.19-1.82 3.17zM56.75 53.58c-2.33.33-5.49-1.46-5.49-1.46s2.54-2.58 4.88-2.91c2.34-.33 3.41.52 3.58 1.73.17 1.21-.63 2.31-2.97 2.64zM54.23 60.65c-2.34.32-5.49-1.46-5.49-1.46s2.54-2.58 4.87-2.91c2.33-.33 3.39.52 3.59 1.72.2 1.2-.64 2.32-2.97 2.65zM51.12 68c-2.31.5-5.58-1-5.58-1s2.34-2.77 4.64-3.27 3.45.27 3.7 1.46-.46 2.33-2.76 2.81zM47.74 75.69c-2.3.5-5.58-1-5.58-1s2.34-2.77 4.65-3.27c2.31-.5 3.44.27 3.7 1.46.26 1.19-.46 2.31-2.77 2.81zM43.8 83.41c-2.31.5-5.59-1-5.59-1s2.35-2.76 4.65-3.26c2.3-.5 3.45.26 3.7 1.45s-.46 2.31-2.76 2.81z"/>
        <path fill="url(#a)" fill-rule="nonzero" d="M38.54 93.91S44.73 83 42 77c-2.73-6-9.18-4-6-9.47 3.18-5.47 5.5-10.74-1.07-14s-8.38-3.84-7.4-8.86c.98-5.02 2.08-11.31-4.25-10-6.33 1.31-11.79 13-12.57 21.48-.78 8.48 3.77 15.33 2.5 19.4-1.27 4.07-1.87 5-6.71 5s-7.1 7.52.73 16.16S29 110.08 29 110.08l9.54-16.17z"/>
        <path fill="#CBE0FF" fill-rule="nonzero" d="M33.29 102.2c-.06-.07-6-6.83-11.41-20.22v-.07c.53-5 7.49-17.47 7.56-17.59a.26.26 0 0 0-.1-.34.24.24 0 0 0-.33.1c-.28.49-6.48 11.63-7.51 17 0-.06-.05-.12-.08-.19-5.46-14.07-.92-33.37-.87-33.56a.25.25 0 0 0-.18-.3.25.25 0 0 0-.3.18c-.05.2-4.63 19.64.89 33.86a100.73 100.73 0 0 0 4.43 9.79c-4.72.94-9.73-3.41-9.78-3.46a.24.24 0 0 0-.35 0 .24.24 0 0 0 0 .34 16.67 16.67 0 0 0 2.15 1.56c2 1.24 5.13 2.67 8.21 2a61.4 61.4 0 0 0 7.24 11.16.24.24 0 0 0 .3 0 .24.24 0 0 0 .13-.26zM237.66 90.87c11.11-22.61 17.77-47.21 17-62.66h-.49c.81 15.37-5.82 39.87-16.91 62.42l.4.24z"/>
        <path fill="#CBE0FF" fill-rule="nonzero" d="M256.25 24c.07 2.21-1.93 5-1.93 5s-2.14-2.63-2.21-4.85c-.07-2.22.84-3.13 2-3.17 1.16-.04 2.08.79 2.14 3.02zM252.75 32.91c1.37 1.82 1.35 5.33 1.35 5.33s-3.39-.93-4.76-2.76c-1.37-1.83-1.17-3.13-.23-3.84s2.26-.56 3.64 1.27zM251.16 41.94c1.47 2 1.45 5.71 1.45 5.71s-3.63-1-5.1-2.95c-1.47-1.95-1.26-3.36-.25-4.12 1.01-.76 2.42-.58 3.9 1.36zM248.67 49.67c1.64 1.67 2.09 5.24 2.09 5.24s-3.56-.5-5.21-2.16c-1.65-1.66-1.6-3-.74-3.87.86-.87 2.19-.88 3.86.79zM247.54 57.75c1.22 2 .83 5.57.83 5.57S245 62 243.8 60c-1.2-2-.87-3.31.16-3.94 1.03-.63 2.36-.31 3.58 1.69zM245.6 66.19c.85 2.18-.14 5.63-.14 5.63s-3.08-1.86-3.94-4c-.86-2.14-.28-3.42.84-3.86 1.12-.44 2.38.04 3.24 2.23zM242.37 74.5c.86 2.18-.14 5.63-.14 5.63s-3.08-1.86-3.93-4c-.85-2.14-.29-3.41.84-3.85 1.13-.44 2.38.04 3.23 2.22zM238.72 82.52c.86 2.18-.14 5.63-.14 5.63s-3.08-1.86-3.93-4c-.85-2.14-.29-3.41.84-3.85 1.13-.44 2.38.04 3.23 2.22zM259.81 33.42c-1.9 1.44-5.54 1.41-5.54 1.41s1-3.52 2.86-4.95c1.86-1.43 3.26-1.21 4-.23.74.98.57 2.35-1.32 3.77zM258.28 43.82c-1.87 1.12-5.19.75-5.19.75s1.22-3.12 3.09-4.24c1.87-1.12 3.08-.8 3.66.17.58.97.3 2.2-1.56 3.32zM257.1 53.36c-2.3.51-5.59-1-5.59-1s2.33-2.78 4.64-3.29c2.31-.51 3.44.25 3.7 1.44.26 1.19-.44 2.34-2.75 2.85zM255.14 60.6c-2.3.51-5.58-1-5.58-1s2.33-2.77 4.63-3.28c2.3-.51 3.44.24 3.71 1.43s-.45 2.34-2.76 2.85zM252.63 68.2c-2.26.68-5.65-.6-5.65-.6s2.12-2.94 4.38-3.62c2.26-.68 3.45 0 3.8 1.16.35 1.16-.27 2.38-2.53 3.06zM249.87 76.11c-2.26.68-5.65-.6-5.65-.6s2.12-2.94 4.38-3.62c2.26-.68 3.45 0 3.8 1.16.35 1.16-.27 2.38-2.53 3.06z"/>
        <path fill="url(#b)" fill-rule="nonzero" d="M230.78 102.57s.49-12.52 6-16.14c5.51-3.62 9.89 1.48 10.14-4.86s1-12 8.32-11.37c7.32.63 9.14 1.15 10.95-3.62 1.81-4.77 4.2-10.71 8.9-6.26 4.7 4.45 3.13 17.3-.66 24.87s-11.29 11-12.36 15.16c-1.07 4.16-1.07 5.27 3.05 7.83 4.12 2.56 2.06 10.13-9.14 13.34-11.2 3.21-25.62-.16-25.62-.16l.42-18.79z"/>
        <path fill="#CBE0FF" fill-rule="nonzero" d="M230.88 112.39c.08 0 8.72-2.62 20.35-11.17v-.07c2.18-4.52 2.86-18.79 2.86-18.93a.26.26 0 0 1 .26-.24.25.25 0 0 1 .24.26c0 .56-.64 13.3-2.62 18.45a1.67 1.67 0 0 1 .16-.12c12.07-9.08 18.39-27.87 18.45-28.06a.24.24 0 0 1 .31-.15c.129.043.2.18.16.31-.06.19-6.43 19.12-18.62 28.29a96.54 96.54 0 0 1-8.93 6c3.52 3.29 10.07 2.24 10.14 2.23a.24.24 0 0 1 .28.2.23.23 0 0 1-.2.28 17 17 0 0 1-2.65.19c-2.35 0-5.76-.43-8-2.64a61.24 61.24 0 0 1-12 5.66H231a.242.242 0 0 1-.06-.48l-.06-.01z"/>
        <path fill="url(#c)" fill-rule="nonzero" d="M240.31 61.8l-83-38.9-146 85.91v58s228.94-41.73 229.05-47l-.05-58.01z"/>
        <path fill="url(#d)" fill-rule="nonzero" d="M179.42 93.68l-52.94-25.85.01 58.28z"/>
        <path fill="url(#e)" fill-rule="nonzero" d="M240.31 61L198 76.55v57.51c0 1.57 1.06 3.15 3.23 4.32l5.2 2.81c4 2.14 10 2.07 13.54-.15l10.51-6.65c7-4.43 10.21-10.18 9.75-15.92h.05l.03-57.47z"/>
        <path fill="url(#f)" fill-rule="nonzero" d="M201.15 93.34L89.37 148.26 11.23 109v57.52c-.12 6.39 4.31 12.88 13.13 17.64l39.49 21.3c16.11 8.68 41 8.41 55.26-.62l75.38-47.68 1.18-.75 3-1.88a4.65 4.65 0 0 0 2.48-3.68V93.34z"/>
        <path fill="#D1E8FF" fill-rule="nonzero" d="M132.42 23.78L21 94.23c-14.28 9-12.78 23.53 3.34 32.22l39.49 21.3c16.11 8.69 41 8.41 55.26-.62l75.41-47.68 1.18-.75 3-1.88c3.62-2.29 3.24-6-.85-8.18l-50.68-27.32c-4.09-2.2-10.4-2.13-14 .16L129 64.11c-3.63 2.29-3.25 6 .85 8.18l38.53 20.77-68.8 43.52c-4.74 3-13 3.09-18.35.2L41.7 115.49c-5.35-2.89-5.85-7.71-1.11-10.71L152 34.33c4.75-3 13-3.09 18.36-.21l39.49 21.3c5.36 2.89 5.86 7.7 1.11 10.7l-10.5 6.65c-3.52 2.22-3.15 5.76.82 7.89l5.2 2.81c4 2.14 10 2.07 13.54-.15l10.51-6.65c14.28-9 12.77-23.53-3.34-32.21l-39.49-21.3c-16.14-8.69-41-8.41-55.28.62z"/>
        <path fill="#37475E" fill-rule="nonzero" d="M95.14 162.25a20.29 20.29 0 0 1-2.41-1.15 2.8 2.8 0 0 1 2.55-4.82c1.62.36 1.65-1.12 3.81-1 2.16.12 2.3.92 2.92 1.76.62.84 1.54.34 2.27 1.57a3.19 3.19 0 0 1 .28 2.5s1 .25.89 1.82c-.11 1.57-.89 1.07-1.57 2.41s-.39 3.12-3.33 3l-5.41-6.09zM106.17 251.74s-.83 3.35-1.65 3.74c-.82.39-2 1.35-1.42 1.74.58.39 3.34.33 4.68-.42 1.34-.75 3.83-3.1 3.24-4.28-.59-1.18-1.49-2.2-2.58-1.92a8 8 0 0 0-2.27 1.14zM96.65 263.87s-5.65 4.31-3.52 5.74c2.13 1.43 6.57-2.13 7.27-3.19.7-1.06.5-2.91-.83-2.95a11.83 11.83 0 0 0-2.92.4z"/>
        <path fill="#FEC6BD" fill-rule="nonzero" d="M103 247.78s2.3 3.18 3.17 4.28c.87 1.1 3.44-.46 2.19-2.1-1.25-1.64-3-4.43-3-4.43l-2.36 2.25zM96.94 257.73s-.32 5.47-.3 6.46c.02.99 2.87 1.77 3.19.1.32-1.67.92-7.52.92-7.52l-3.81.96z"/>
        <path fill="#255299" fill-rule="nonzero" d="M84.92 212.86s-.57 17.62 2.24 21.27c2.81 3.65 15.84 14.76 15.84 14.76s1 .49 2.67-.68 1.41-1.72-.07-6.69c-1.48-4.97-5.37-7.52-7.19-9.52-1.82-2-.11-18.09-.11-18.09l-13.38-1.05z"/>
        <path fill="#2A60B7" fill-rule="nonzero" d="M93.77 215.94s-1 20.39 0 26.05 2 17.21 2 17.21 2.25 1.78 5.61-.09c0 0 1.74-10.32 1.44-16.91-.3-6.59 4.57-14.23 6.29-20.2a17.54 17.54 0 0 0-.07-10.59l-15.27 4.53z"/>
        <path fill="#6DB3FA" fill-rule="nonzero" d="M86.64 172s-3.58 5.21-6.13 20.27a3.7 3.7 0 0 0-1.23 2.19c0 1.12 1 4 5.62 4.2 4.62.2 4.1-6.6 3.68-10.3-.42-3.7-1.94-16.36-1.94-16.36z"/>
        <path fill="url(#g)" fill-rule="nonzero" d="M86.64 172s-3.58 5.21-6.13 20.27a3.7 3.7 0 0 0-1.23 2.19c0 1.12 1 4 5.62 4.2 4.62.2 4.1-6.6 3.68-10.3-.42-3.7-1.94-16.36-1.94-16.36z"/>
        <path fill="#6DB3FA" fill-rule="nonzero" d="M98.34 169.81c4.8.51 17.52 1.51 17 9.53-.63 10.52-5.57 33.59-5.57 33.59s-3.93 3.71-14.2 3.21-11-3.82-11-3.82l.2-14.47s.76-23.69 1.52-25.34c1.77-3.65 7.86-3.14 12.05-2.7z"/>
        <path fill="#F6B2AD" fill-rule="nonzero" d="M96.68 167.26l-.11 3.1c0 1.31 1.48 1.76 2.37 1.56.89-.2 2-.4 2.12-2.52l.19-4.54-4.57 2.4z"/>
        <path fill="#FEC6BD" fill-rule="nonzero" d="M93.49 162.24c-.55 3-.25 6.63 3.78 7.07 4.03.44 4.77-3.1 4.81-5 .04-1.9-.35-5.54-3.59-5.68-2.7-.12-4.49.54-5 3.61z"/>
        <path fill="#FEC6BD" fill-rule="nonzero" d="M101.67 164.21s.68-.9 1.29-.45 0 1.87-1 2.14-.29-1.69-.29-1.69z"/>
        <path fill="url(#h)" fill-rule="nonzero" d="M115.26 177.53s.76 3.34.91 12.89c.2 13.32-10.36 18.42-17.33 17.6-4-.47-7.51-3.37-9.38-6.17-9-13.53 15.29-25.7 15.29-25.7l10.51 1.38z"/>
        <path fill="url(#i)" fill-rule="nonzero" d="M115.26 177.53l-13.85 25.11-11.95-.79 15.29-25.7z"/>
        <path fill="#6DB3FA" fill-rule="nonzero" d="M115.26 177.53s.76 3.34.91 12.89c.2 13.32-2.49 13.63-16 13.53 0 0-2.46.14-3.51-3-1.05-3.14 1.83-3.48 3.78-4 1.95-.52 3.52-.91 3.52-.91l.82-19.88 10.48 1.37z"/>
        <path fill="#FEC6BD" fill-rule="nonzero" d="M77.6 197.29s1.88-1.68 2.94-2.45c1.06-.77 3.68 1.19 1.64 3.22a34.88 34.88 0 0 1-2.86 2.64l-1.72-3.41z"/>
        <path fill="#263344" fill-rule="nonzero" d="M79.92 209.14l-12.57-7.5a1.33 1.33 0 0 1 0-2.33l5.7-3.26a1.54 1.54 0 0 1 1.54 0l12.59 7.6a1.32 1.32 0 0 1-.09 2.32l-5.67 3.16a1.55 1.55 0 0 1-1.5.01z"/>
        <path fill="#37475E" fill-rule="nonzero" d="M80 209.22l-14.17-8.45a.69.69 0 0 1-.35-.6v-9.79a.76.76 0 0 1 1.17-.61l12.91 7.8a2.88 2.88 0 0 1 1.44 2.49l-.17 8.76a.53.53 0 0 1-.83.4z"/>
        <path fill="#FEC6BD" fill-rule="nonzero" d="M69.66 203.4c-.31-1.55.57-3.14 1.63-1.8s2.67 2.75 2.61 3.72c-.09 1.23-4.03-.82-4.24-1.92zM97.56 199.59c-.26.06-8.8 1.51-11.77 1.74a3.92 3.92 0 0 0-3.44 2.55c-.72 1.44 3 .48 6-.48s8-1 10.54-1c2.54 0 1.73-3.4-1.33-2.81z"/>
        <path fill="#37475E" fill-rule="nonzero" d="M93.62 161.58a6 6 0 0 0 1.12.25 1.78 1.78 0 0 0 1.66-.93 1.52 1.52 0 0 0 1.51 0c.79-.48 1.07-.9 1.82-.28a.87.87 0 0 1 1.18.44c.39.82 0 2.11 1.18 2.78l1.71-1.4a4 4 0 0 0-2.58-4.54c-3.28-1.27-5.52-1.8-6.76-.68-1.24 1.12-.84 4.36-.84 4.36z"/>
        <path fill="#86C4F3" fill-rule="nonzero" d="M157.27 151.81s25.18-16.29 27.27-17.76c2.09-1.47-3.66 4.6-2.2 4.18 1.46-.42 9.2-5.12 8.47-3.76-.73 1.36-6.9 6.17-4.7 5.64 2.2-.53 10.55-2.71 7.41-.73-3.14 1.98-10.13 6-7.41 5.12 2.72-.88 7.1-1.25 1.25 1.36-5.85 2.61-26 17-29.57 18.91-3.57 1.91 2.62-3.55 4.91-5.64s-4.91 2.09-5.64 1.36c-.73-.73 9.2-5.75 5.75-5-3.45.75-9.82 2.3-6.37-.1s1.46-2.2-.74-1.47c-2.2.73-.52-.64 1.57-2.11z"/>
        <path fill="#EFF7FF" fill-rule="nonzero" d="M190.83 138c-1.38-.86-5.05-.62-8 1.47a9.27 9.27 0 0 0-3.08 4.15l5 4c4.21 0 7.27-2.3 7.75-4.24.48-1.94.17-4.19-1.67-5.38z"/>
        <path fill="#255299" fill-rule="nonzero" d="M211.06 135.45c5.55-2.28 12.14-5.14 19.37-8.56 20.13-9.51 33.73-17.88 35.12-19 1.39-1.12 2.65-1.89 1.89-3.49-.75-1.59-2.18-1.15-3.89-.75-1.71.4-16.82 5.59-36.94 15.09-7.09 3.35-13.36 6.56-18.58 9.36l3.03 7.35z"/>
        <path fill="#37475E" fill-rule="nonzero" d="M211.46 130.92c-.87-1.85-.66-3.84.42-4.79a231.87 231.87 0 0 0-20.37 11.63c-1.39 1.07-2.64 1.89-1.89 3.48.75 1.59 2.18 1.14 3.89.74a233.18 233.18 0 0 0 21.91-8.35c-1.42.23-3.09-.87-3.96-2.71z"/>
        <path fill="#181F3D" fill-rule="nonzero" d="M238.63 202.32s3.29 3.05 4.5 3.43c1.21.38 2.5.47 3-.44.5-.91.32-2.89-.18-3.16-1.16-.61-5-2.37-5.63-2.3-.74.09-3.02 1.08-1.69 2.47zM220.68 207.7s2.78 3.52 3.92 4.09c1.14.57 2.4.85 3.07 0 .67-.85.76-2.8.3-3.15-1-.78-4.56-3.11-5.2-3.14-.77 0-3.19.62-2.09 2.2z"/>
        <path fill="#FEC6BD" fill-rule="nonzero" d="M218.28 127.64s.69-2.63-.3-3.73a1.39 1.39 0 0 0-2.44.53c-.56 1.58 1 4.32 1 4.32l1.74-1.12zM227.33 114.84s-1.07 5 .06 7.43a3.31 3.31 0 0 0 3.25 2.14l1 5.15 6.36-1s-2.75-12.69-4.18-14.77c-1.43-2.08-5.99-1.03-6.49 1.05z"/>
        <rect width="3.01" height="6.18" x="225.244" y="203.893" fill="#FEC6BD" fill-rule="nonzero" rx=".92" transform="rotate(8.82 226.749 206.983)"/>
        <path fill="#FEC6BD" fill-rule="nonzero" d="M244.46 203.89a1.76 1.76 0 0 1-1.62-1.83l-.2-2.33a1.75 1.75 0 0 1 1.39-2 1.76 1.76 0 0 1 1.62 1.83l.2 2.33a1.76 1.76 0 0 1-1.39 2z"/>
        <path fill="#255299" fill-rule="nonzero" d="M248.92 160.75l-2.75 18a98.74 98.74 0 0 1-.19 21 2.41 2.41 0 0 1-3.64.16l-11-34 17.58-5.16z"/>
        <path fill="#2A60B7" fill-rule="nonzero" d="M245.42 149.2a14.15 14.15 0 0 1 3.34 12.57c-.49 2.26-2.29 5.8-4.45 9.48-4.19 7.13-9.73 14.78-9.73 14.78s-2.22 14.86-6 21.54c0 0-2.54 1.24-3.89-.87 0 0 .33-23.51 1.41-34.8a60.23 60.23 0 0 1 4.84-19l14.48-3.7z"/>
        <path fill="#6DB3FA" fill-rule="nonzero" d="M231 126.22s4.85-.77 5.89-2.48l16.34-8.48a13.06 13.06 0 0 1 .36 5.71c-.51 3.22-7.15 11-7.15 11l-.51 17.83a10.4 10.4 0 0 1-7.05 3.76 35.62 35.62 0 0 1-8.15.08l-6.66-10.76s-6.73 2-9-.91c-2.27-2.91.63-14.33.63-14.33l2.75-.23 1.81 7.73s1.88-5.24 10.74-8.92z"/>
        <path fill="#FFD215" fill-rule="nonzero" d="M231 126.22s4.85-.77 5.89-2.48l2.77-1.44s3.76 1.5 5.43 4.29a14.06 14.06 0 0 1 1.35 5.36l-.51 17.83a10.4 10.4 0 0 1-7.05 3.76 91 91 0 0 1-12.43.08l-2.38-10.76a7.56 7.56 0 0 0 3.24-7.42c-.55-5.25-2.55-5.67-2.55-5.67a26.48 26.48 0 0 1 6.24-3.55z"/>
        <path fill="#FFF1B8" fill-rule="nonzero" d="M241.68 128.41c-1-2.87-4.78-4.67-4.78-4.67l2-1s4.5 1.78 5.07 5.14c1 5.85 1.61 22.37 1.61 22.37-.24.21-.5.58-.81.81-.31.23-2.09-19.77-3.09-22.65zM231 126.22s3.15 2.45 3.57 5.38c.42 2.93 2.14 22.11 2.14 22.11-.78 0-1.59.07-2.4.08 0 0-1.7-14-2.25-19.26-.55-5.26-3.75-7-3.75-7a27.11 27.11 0 0 1 2.69-1.31z"/>
        <path fill="url(#j)" fill-rule="nonzero" d="M188.5 147c-1.2.448-2.47.675-3.75.67-4.11 0-5.81 2-5.81 2-.56-3.39.86-8.08 3.85-10.18 0 0 .48.15.21.72s-1.21 1.39-1.09 1.61c.25.49 2.43-1.29 3-.33.57.96-3.23 2.25-2.6 2.88.63.63 2.8-1 3.15-.1.35.9-1.88 1.18-1.57 1.73.31.55.93.29 2.14.33 1.21.04 2.1.17 2.47.67z"/>
        <path fill="#30343A" fill-rule="nonzero" d="M229.57 120.16a2.39 2.39 0 0 0 .64-2.14c-.17-1.22-1.15-.58-1.31-.33-.16.25-.37.69-.37.69l-.47-1.47-2.49-.77c-.16-1 1.24-5.82 4.53-6.54a5.67 5.67 0 0 1 5.8 2c5 1 3.5 4.65 3.67 7.18 0 0 .15 3.08-1.62 4.7-1.09 1-2.8 1.68-8.91 1.2a7 7 0 0 0 .53-4.52z"/>
        <path fill="#FFF1B8" fill-rule="nonzero" d="M235.41 148.21s6.38-.21 9.09-3.24v-2.24a25.87 25.87 0 0 1-9.14 2.92l.05 2.56z"/>
        <path fill="#FFE600" fill-rule="nonzero" d="M226.06 110.9c-1.1 2.76 2 6.43 5.82 7.94 3.82 1.51 7.65.42 8.56-1.81 1.12-2.76-.8-6.69-4.59-8.2-3.79-1.51-8.7-.69-9.79 2.07z"/>
        <path fill="#FFDA00" fill-rule="nonzero" d="M227.8 113.38c.52 3.3 6.36 6.18 9.72 4.93a5.24 5.24 0 0 0 2.91-6.83c-1.28-3.1-4.28-4.51-7.58-4.29a5.37 5.37 0 0 0-5.05 6.19z"/>
        <path fill="#FFE600" fill-rule="nonzero" d="M238.27 111.12s-1.33-3-4.32-3.25a4.16 4.16 0 0 1 2.86.66 3.47 3.47 0 0 1 1.46 2.59zM235.68 111.09a7.69 7.69 0 0 0-2.61-1.85 2.88 2.88 0 0 1 2.61 1.85z"/>
        <path fill="#FFF" fill-rule="nonzero" d="M36.332 162.68L67.12 180.39l-12.805 22.26-30.79-17.712z"/>
        <path fill="#ACD4F7" fill-rule="nonzero" d="M44 184.55l.2.12a.16.16 0 0 0 .21 0l.27-.47a.17.17 0 0 0 0-.12.16.16 0 0 0-.07-.09l-.23-.13 2-3.45a.15.15 0 0 0 0-.2l-.46-.27a.15.15 0 0 0-.2.06l-1.93 3.36a.85.85 0 0 0 .21 1.19zM45.37 184.24a.87.87 0 0 0 .29 1.26l.2.11a.15.15 0 0 0 .2-.05l.27-.47a.14.14 0 0 0 0-.06V185a.16.16 0 0 0-.07-.09l-.23-.13 1.16-2a.16.16 0 0 0-.06-.21l-.47-.27a.15.15 0 0 0-.2.06l-1.09 1.88zM47.09 181.54l.46.27a.14.14 0 0 0 .16 0l.26-.46v-.05a.15.15 0 0 0-.07-.15l-.47-.27a.16.16 0 0 0-.21 0l-.26.46a.15.15 0 0 0 .13.2zM42.2 177.94a.14.14 0 0 0-.06-.2l-.47-.27H41.55l-2.33 4a.14.14 0 0 0 0 .06.15.15 0 0 0 .07.15l.47.27a.15.15 0 0 0 .21-.06l2.33-4.05-.1.1zM51.23 186.73a1.61 1.61 0 0 0-.6-2.19l-.88-.51-.35-.2a.15.15 0 0 0-.2 0l-.27.46a.15.15 0 0 0 .06.2l.34.19.89.52a.76.76 0 0 1 .27 1.05.86.86 0 0 1-1.09.38l-1.23-.63a.15.15 0 0 0-.2.05l-.27.48a.15.15 0 0 0 .05.2l.35.2.89.51a1.71 1.71 0 0 0 2.24-.71zM46.17 188.35l.2-.34-.2.34zM46.11 188.46l.06-.11z"/>
        <path fill="#ACD4F7" fill-rule="nonzero" d="M52.72 181l-9.06-5.22a5.26 5.26 0 0 0-6.95 1.73 4.89 4.89 0 0 0 1.59 6.67l7.41 4.26.19.11a.16.16 0 0 0 .21 0l.06-.11.2-.34v.07l2.47-4.3.06-.1a.15.15 0 0 0-.06-.2l-.47-.27a.14.14 0 0 0-.2 0l-1.19 2.07-1.21 2.11-.35-.21-6.65-3.82a4 4 0 0 1-1.28-5.52 4.43 4.43 0 0 1 5.8-1.42l9.06 5.22a4.42 4.42 0 0 1 1.65 5.69 4 4 0 0 1-5.18 1.78.15.15 0 0 0-.2.06l-.27.47a.14.14 0 0 0 0 .19 4.77 4.77 0 0 0 2.56.43 4.94 4.94 0 0 0 3.78-2.53 5.26 5.26 0 0 0-1.97-6.82z"/>
        <path fill="#ACD4F7" fill-rule="nonzero" d="M42.8 183.6l-.65-3 2.88-.91v-.06l-.54-.31h-.09l-2.68.82a.66.66 0 0 0-.34.25.6.6 0 0 0 0 .42l.63 2.73a.08.08 0 0 0 0 .05l.53.31h.09l.17-.3zM44.735 171.792l.498-.867.867.498-.498.867zM36 187l.16-.28-.16.28zm.33-.56l.16-.29-.16.29zm.32-.57l.16-.28-.16.28zm.33-.56l.16-.29-.16.29zm.32-.57l.16-.28-.16.28zm.33-.56l.17-.29-.17.29zm.32-.57l.16-.28-.16.28zm.33-.56l.17-.29-.17.29zm.32-.57l.16-.28-.16.28zm.33-.56l.17-.29-.17.29zm.32-.57l.16-.28-.16.28zm.33-.56l.17-.29-.17.29zm.32-.57l.16-.28-.16.28zm.33-.56l.17-.29-.17.29zm.32-.56l.16-.28-.16.28zm.33-.57l.17-.29-.17.29zm.32-.56l.16-.28-.16.28zm.33-.57l.17-.29-.17.29zm.32-.56l.16-.28-.16.28zm.33-.57l.17-.29-.17.29zm.32-.56l.16-.28-.16.28zm.33-.57l.17-.29-.17.29zm.32-.56l.16-.28-.16.28zm.33-.57l.17-.29-.17.29zm.32-.56l.16-.28-.16.28zm.33-.57l.17-.29-.17.29zm.32-.56l.16-.28-.16.28zM35.719 187.469l.498-.867.867.499-.499.866zM32.84 185.804l9.1-15.819.866.499-9.1 15.82z"/>
        <path fill="#ACD4F7" fill-rule="nonzero" d="M32.115 185.395l9.1-15.82.867.5-9.1 15.818zM50.125 195.749l9.1-15.82.867.5-9.1 15.818z"/>
        <path fill="#ACD4F7" fill-rule="nonzero" d="M35.604 171.13l.499-.867 25.215 14.505-.498.867zM30.643 179.748l.499-.867 25.215 14.505-.499.867z"/>
        <path fill="#ACD4F7" fill-rule="nonzero" d="M31.053 179.032l.499-.866 25.215 14.505-.498.867zM35.189 171.853l.498-.867 25.216 14.506-.499.866zM45.45 172.201l.498-.866.867.498-.499.867zM36.73 187.46l.16-.29-.16.29zm.33-.57l.16-.28-.16.28zm.32-.56l.16-.29-.16.29zm.33-.57l.16-.28-.16.28zm.32-.56l.16-.29-.16.29zm.33-.57l.16-.28-.16.28zm.32-.56l.16-.29-.16.29zm.33-.57l.16-.28-.16.28zm.32-.56l.16-.29-.16.29zm.33-.57l.16-.28-.16.28zm.32-.56l.16-.29-.16.29zm.33-.56l.16-.28-.16.28zm.32-.57l.16-.29-.16.29zm.33-.56l.16-.28-.16.28zm.32-.57l.16-.29-.16.29zm.33-.56l.16-.28-.16.28zm.32-.57l.16-.29-.16.29zm.33-.56l.16-.28-.16.28zm.32-.57l.16-.29-.16.29zm.33-.56l.16-.28-.16.28zm.32-.57l.16-.29-.16.29zm.33-.56l.16-.28-.16.28zm.32-.57l.16-.29-.16.29zm.33-.56l.16-.28-.16.28zm.32-.57l.16-.28-.16.28zm.33-.56L45 173l-.14.34zm.32-.57l.16-.28-.16.28zM36.434 187.879l.498-.867.867.499-.498.866z"/>
        <path fill="#ACD4F7" fill-rule="nonzero" d="M49.41 195.34l9.101-15.82.867.499-9.1 15.819z"/>
        <path fill="#ACD4F7" fill-rule="nonzero" d="M31.053 179.032l.499-.866 25.215 14.505-.498.867z"/>
        <path fill="#ACD4F7" fill-rule="nonzero" d="M53.77 197.84l-25.23-14.52 9.11-15.84L62.89 182l-9.12 15.84zm-25.2-14.53l25.19 14.5L62.85 182l-25.19-14.48-9.09 15.79zM32.19 186v-.23l.13.07v.16l.12-.06.12.07-.21.1v.26l-.13-.08v-.15l-.14.06-.13-.07zM35.77 188.08v-.22l.13.07v.13l.1-.06.12.07-.21.09v.26l-.13-.07v-.16l-.15.07-.13-.07zM49.47 196v-.23l.12.07v.13l.11-.06.12.07-.21.09v.27l-.12-.08v-.16l-.15.07-.12-.07zM30.39 179v-.23l.13.08v.15l.12-.06.11.07-.2.1v.26l-.13-.07v-.16l-.15.07-.12-.07z"/>
        <path fill="#ACD4F7" fill-rule="nonzero" d="M41.263 169.575l3.598 2.069-9.1 15.82-3.598-2.07zM59.279 179.935l3.597 2.069-9.1 15.82-3.598-2.07z" opacity=".19"/>
        <path fill="#ACD4F7" fill-rule="nonzero" d="M33.106 175.428l.499-.867 25.241 14.52-.498.867z"/>
        <path fill="#FEC6BD" fill-rule="nonzero" d="M41.33 263.4l-.42 7.56-2.75-.1-.74-7.51z"/>
        <path fill="#30343A" fill-rule="nonzero" d="M40.91 271a20 20 0 0 0 4.65 1.43c2.06.27 2 1.53.37 1.75-1.63.22-8.57 1.27-8.67-.53-.1-1.002.228-2 .9-2.75l2.75.1z"/>
        <path fill="#FEC6BD" fill-rule="nonzero" d="M27.11 258.69l-.36 6.39-2.32-.09-.63-6.35z"/>
        <path fill="#30343A" fill-rule="nonzero" d="M26.75 265.08a16.86 16.86 0 0 0 3.94 1.21c1.74.22 1.7 1.3.31 1.48-1.39.18-7.25 1.07-7.34-.45a3.1 3.1 0 0 1 .77-2.33l2.32.09z"/>
        <path fill="#FEC6BD" fill-rule="nonzero" d="M51.43 198l1.29 2.55s7.17-8.86 8.15-10.42c0 0-.35-3.13.09-3.76.44-.63.47 1.64.7 1.29a14.32 14.32 0 0 1 2.47-2.35c.35-.08-.63 4-1.69 5.13 0 0-6.14 16.79-10.43 16.37-2.09-.21-5.91-4.5-5.91-4.5l5.33-4.31zM41.17 168.84a56 56 0 0 1 .43 7.08c-.11 2.86-1.91 3.18-3.71 3.6l-.53 5.92L32 184s-.63-11-.32-13.22c.31-2.22 9.49-1.94 9.49-1.94z"/>
        <path fill="#2A60B7" fill-rule="nonzero" d="M45.72 223.69c.05 3.54 1 13.15.27 19.4-1.17 10.4-3 18.14-3 20.36a5.68 5.68 0 0 1-3.39.87 5.63 5.63 0 0 1-3.38-.87S34 245.31 33.82 237c0 0-9.62-9.15-10.42-19.94l20.12-6.58s2.15 9.68 2.2 13.21z"/>
        <path fill="#255299" fill-rule="nonzero" d="M33.82 237a65.41 65.41 0 0 0-4.07 12.37c-.95 5.4-1.43 9.63-1.43 9.63a3.69 3.69 0 0 1-2.74.92A3 3 0 0 1 23 259a135.4 135.4 0 0 1-1-19.78c.37-9.73 1.32-22.16 1.32-22.16L33.82 237z"/>
        <path fill="url(#k)" fill-rule="nonzero" d="M33.82 237a65.41 65.41 0 0 0-4.07 12.37c-.95 5.4-1.43 9.63-1.43 9.63s-.49.92-2.74.92S23 259 23 259a135.4 135.4 0 0 1-1-19.78c.37-9.73 1.32-22.16 1.32-22.16L33.82 237z"/>
        <path fill="#6DB3FA" fill-rule="nonzero" d="M24.57 181.48c-2.81 1-3.54 2.39-2.86 7.46.68 5.07 2.25 8.73 2.86 12.53.67 4.22.74 4.76-.37 8-1.11 3.24-1.43 7.14-.8 7.62.63.48 9.6 5.53 14.36 4.63 4.76-.9 4.49-7.14 5.39-7.14.9 0 1.7 6.3 2.33 6.35.63.05-1.47-8.75-2.19-14.1-.08-.55.31-6 .31-6l2.12 1.83a.63.63 0 0 0 .94.17l4.84-4a.62.62 0 0 0 .15-.79c-.8-1.42-3.32-5.85-5.23-9a11.09 11.09 0 0 0-4.7-4.7c-6.13-2.65-14.35-3.82-17.15-2.86z"/>
        <path fill="#30343A" fill-rule="nonzero" d="M37.36 176s-1-1.32-.37-2c.63-.68 2-.37 2.17.32.17.69.43-1.64 1.06-3.17a7.6 7.6 0 0 1 1.85-2.33c1.11-.85.74-2-1.32-3a14.73 14.73 0 0 0-9.26-.27 5.76 5.76 0 0 0-3.75 5.45c.19 1.85.19 4.3-1.53 5.61-1.72 1.31-4.44 2-3.76 5.49.68 3.49-3 4-1.47 7.15.84 1.78 1.15 2.72 3.35 3.5 2.2.78 3.34 2.51 5.53 2.77 2.19.26 7.16-1 8.52-3.76 1.36-2.76 2.35-2.56 2.87-4.81.52-2.25-1.2-3.34-2.25-4.54-1.05-1.2-.73-1.67-.52-3 .21-1.33-1.12-3.41-1.12-3.41z"/>
        <path fill="url(#l)" fill-rule="nonzero" d="M37.76 221.7c4.76-.89 4.49-7.14 5.39-7.14.9 0 1.7 6.3 2.33 6.35.63.05-1.47-8.75-2.19-14.1-.08-.55.31-6 .31-6l-5.75-6-.09 26.89z"/>
        <path fill="#FFE600" fill-rule="nonzero" d="M42.81 167c.72 3-3 6.26-7.06 7.24-4.06.98-7.85-.67-8.45-3.07-.74-3 1.78-6.69 5.85-7.68 4.07-.99 8.95.51 9.66 3.51z"/>
        <path fill="#FFDA00" fill-rule="nonzero" d="M40.69 169.23c-1 3.29-7.36 5.38-10.6 3.63a5.39 5.39 0 0 1-2-7.37c1.75-3 5-4 8.32-3.27a5.51 5.51 0 0 1 4.28 7.01z"/>
        <path fill="#FFE600" fill-rule="nonzero" d="M30.36 165.44s1.78-2.85 4.86-2.69a4.25 4.25 0 0 0-3 .26 3.6 3.6 0 0 0-1.86 2.43zM33 165.78a8 8 0 0 1 2.92-1.52 3 3 0 0 0-2.92 1.52z"/>
        <path fill="#FFD215" fill-rule="nonzero" d="M170.54 238.73h-47.43v1.66a2.05 2.05 0 0 0 1.26 1.58l21.1 11.16a5.9 5.9 0 0 0 5.34-.08l18.76-11.79a2.1 2.1 0 0 0 .82-.87h.14l.01-1.66z"/>
        <path fill="#FFE73E" fill-rule="nonzero" d="M145.48 251.59l-21.1-11.16c-1.56-.83-1.7-2.2-.31-3.07l18.76-11.79a5.93 5.93 0 0 1 5.34-.09l21.1 11.17c1.56.83 1.7 2.2.31 3.07l-18.76 11.79a5.9 5.9 0 0 1-5.34.08z"/>
        <path fill="url(#m)" fill-rule="nonzero" d="M160 237.05l-10-31.41a3.33 3.33 0 0 0-6.35 0l-10 31.41c-1.09 3.48 5.88 6.6 13.13 6.6 7.25 0 14.28-3.13 13.22-6.6z"/>
        <path fill="url(#n)" fill-rule="nonzero" d="M160 237.05l-1.27-4c.89 3.11-5.36 5.89-11.87 5.89-6.51 0-12.78-2.79-11.86-5.94l-1.27 4c-1.09 3.48 5.88 6.6 13.13 6.6 7.25 0 14.2-3.08 13.14-6.55z"/>
        <path fill="url(#o)" fill-rule="nonzero" d="M157.17 228.26l-1.2-3.82c.69 2.44-4 4.65-9.15 4.65s-9.85-2.15-9.16-4.6l-1.18 3.77c-.85 2.74 4.63 5.19 10.34 5.19s11.18-2.45 10.35-5.19z"/>
        <path fill="url(#p)" fill-rule="nonzero" d="M154.56 220.06l-1-3.38c.52 1.83-2.88 3.46-6.7 3.46-3.82 0-7.19-1.63-6.68-3.47l-1.06 3.39c-.64 2.05 3.46 3.88 7.73 3.88 4.27 0 8.36-1.83 7.71-3.88z"/>
        <path fill="url(#q)" fill-rule="nonzero" d="M152.16 212.49l-.83-2.71c.36 1.26-1.86 2.39-4.5 2.39-2.64 0-4.85-1.13-4.49-2.39l-.85 2.71c-.44 1.42 2.39 2.68 5.34 2.68 2.95 0 5.78-1.27 5.33-2.68z"/>
        <path fill="#FFD215" fill-rule="nonzero" d="M211.91 214.91h-47.43v1.66a2 2 0 0 0 1.26 1.58l21.1 11.16a5.9 5.9 0 0 0 5.34-.08L211 217.44a2 2 0 0 0 .82-.87h.14l-.05-1.66z"/>
        <path fill="#FFE73E" fill-rule="nonzero" d="M186.85 227.78l-21.1-11.17c-1.56-.83-1.7-2.2-.31-3.07l18.76-11.79a5.9 5.9 0 0 1 5.34-.08l21.1 11.16c1.56.83 1.7 2.2.31 3.07l-18.76 11.79a5.93 5.93 0 0 1-5.34.09z"/>
        <path fill="url(#r)" fill-rule="nonzero" d="M201.33 213.23l-10-31.41a3.33 3.33 0 0 0-6.35 0l-10 31.41c-1.09 3.48 5.88 6.6 13.13 6.6 7.25 0 14.32-3.13 13.22-6.6z"/>
        <path fill="url(#s)" fill-rule="nonzero" d="M201.33 213.23l-1.27-4c.89 3.1-5.36 5.88-11.87 5.88-6.51 0-12.74-2.78-11.86-5.89l-1.27 4c-1.09 3.48 5.88 6.6 13.13 6.6 7.25 0 14.24-3.12 13.14-6.59z"/>
        <path fill="url(#t)" fill-rule="nonzero" d="M198.54 204.44l-1.2-3.82c.69 2.44-4 4.65-9.15 4.65s-9.85-2.15-9.16-4.6l-1.18 3.77c-.85 2.74 4.63 5.2 10.34 5.2s11.21-2.46 10.35-5.2z"/>
        <path fill="url(#u)" fill-rule="nonzero" d="M195.93 196.24l-1-3.38c.52 1.83-2.88 3.46-6.71 3.46s-7.18-1.63-6.67-3.46l-1.06 3.38c-.64 2 3.46 3.89 7.73 3.89 4.27 0 8.36-1.84 7.71-3.89z"/>
        <path fill="url(#v)" fill-rule="nonzero" d="M193.53 188.68l-.83-2.68c.36 1.26-1.87 2.39-4.51 2.39-2.64 0-4.84-1.13-4.49-2.39l-.84 2.72c-.44 1.41 2.39 2.67 5.33 2.67s5.81-1.3 5.34-2.71z"/>
    </g>
</svg>
