<svg xmlns="http://www.w3.org/2000/svg" width="280" height="280" viewBox="0 0 280 280">
    <defs>
        <linearGradient id="prefix__a" x1="28.507%" x2="73.128%" y1="45.286%" y2="55.878%">
            <stop offset="0%" stop-color="#CEEBFF"/>
            <stop offset="100%" stop-color="#F5FBFF"/>
        </linearGradient>
        <linearGradient id="prefix__b" x1="60.297%" x2="37.038%" y1="57.533%" y2="38.451%">
            <stop offset="0%" stop-color="#CEEBFF"/>
            <stop offset="100%" stop-color="#F5FBFF"/>
        </linearGradient>
        <linearGradient id="prefix__c" x1="0%" x2="100%" y1="49.999%" y2="49.999%">
            <stop offset="0%" stop-color="#80B9ED"/>
            <stop offset="15%" stop-color="#60A2FA"/>
            <stop offset="100%" stop-color="#68A4F1"/>
        </linearGradient>
        <linearGradient id="prefix__d" x1="63.144%" x2="26.628%" y1="-6.067%" y2="96.499%">
            <stop offset="0%" stop-color="#A9CEF8"/>
            <stop offset="48%" stop-color="#BFD9FF"/>
            <stop offset="97%" stop-color="#ACD0F8"/>
            <stop offset="100%" stop-color="#ABCFF8"/>
        </linearGradient>
        <linearGradient id="prefix__e" x1="0%" x2="100%" y1="49.958%" y2="49.958%">
            <stop offset="0%" stop-color="#A9CEF8"/>
            <stop offset="48%" stop-color="#BFD9FF"/>
            <stop offset="97%" stop-color="#ACD0F8"/>
            <stop offset="100%" stop-color="#ABCFF8"/>
        </linearGradient>
        <linearGradient id="prefix__f" x1="0%" x2="100%" y1="50.002%" y2="50.002%">
            <stop offset="0%" stop-color="#A9CEF8"/>
            <stop offset="48%" stop-color="#BFD9FF"/>
            <stop offset="97%" stop-color="#ACD0F8"/>
            <stop offset="100%" stop-color="#ABCFF8"/>
        </linearGradient>
        <linearGradient id="prefix__g" x1="23.001%" x2="42.627%" y1="55.411%" y2="51.538%">
            <stop offset="0%" stop-color="#80C4FF"/>
            <stop offset="100%" stop-color="#80C4FF" stop-opacity="0"/>
        </linearGradient>
        <linearGradient id="prefix__h" x1="35.528%" x2="48.245%" y1="64.052%" y2="52.378%">
            <stop offset="0%" stop-color="#80C4FF"/>
            <stop offset="100%" stop-color="#80C4FF" stop-opacity="0"/>
        </linearGradient>
        <linearGradient id="prefix__i" x1=".025%" x2="100.005%" y1="50.012%" y2="50.012%">
            <stop offset="0%" stop-color="#FFD215"/>
            <stop offset="55%" stop-color="#FFDF00"/>
            <stop offset="100%" stop-color="#FFD215"/>
        </linearGradient>
        <linearGradient id="prefix__j" x1=".025%" x2="100.005%" y1="49.955%" y2="49.955%">
            <stop offset="0%" stop-color="#37475E" stop-opacity=".8"/>
            <stop offset="100%" stop-color="#37475E"/>
        </linearGradient>
        <linearGradient id="prefix__k" x1=".01%" x2="100.028%" y1="50.267%" y2="50.267%">
            <stop offset="0%" stop-color="#37475E" stop-opacity=".8"/>
            <stop offset="100%" stop-color="#37475E"/>
        </linearGradient>
        <linearGradient id="prefix__l" x1=".172%" x2="100%" y1="50.266%" y2="50.266%">
            <stop offset="0%" stop-color="#37475E" stop-opacity=".8"/>
            <stop offset="100%" stop-color="#37475E"/>
        </linearGradient>
        <linearGradient id="prefix__m" x1="-.379%" x2="100.016%" y1="49.911%" y2="49.911%">
            <stop offset="0%" stop-color="#37475E" stop-opacity=".8"/>
            <stop offset="100%" stop-color="#37475E"/>
        </linearGradient>
        <linearGradient id="prefix__n" x1="46.728%" x2="50.687%" y1="44.03%" y2="48.587%">
            <stop offset="0%" stop-color="#133E90" stop-opacity=".4"/>
            <stop offset="100%" stop-color="#133E90" stop-opacity="0"/>
        </linearGradient>
    </defs>
    <g fill="none" fill-rule="evenodd">
        <path d="M0 0H280V280H0z"/>
        <path fill="#CADFFF" fill-rule="nonzero" d="M67 204.63C43.92 192.25 23.4 175.5 14.73 162l.43-.27c8.62 13.48 29.07 30.16 52.09 42.5l-.25.4z"/>
        <path fill="#CADFFF" fill-rule="nonzero" d="M10.78 159.37c1.29 1.91 4.64 3 4.64 3s.22-3.54-1.07-5.45c-1.29-1.91-2.6-2.14-3.59-1.47-.99.67-1.26 2.01.02 3.92zM19.15 164.79c-.06 2.38 2.09 5.33 2.09 5.33s2.29-2.84 2.35-5.22c.06-2.38-.91-3.35-2.14-3.38-1.23-.03-2.24.9-2.3 3.27zM26 171.46c-.06 2.54 2.24 5.7 2.24 5.7s2.45-3 2.52-5.58c.07-2.58-1-3.6-2.29-3.63-1.29-.03-2.47.96-2.47 3.51zM32.75 176.49c-.38 2.4 1.4 5.68 1.4 5.68s2.71-2.57 3.09-5c.38-2.43-.47-3.53-1.71-3.73-1.24-.2-2.4.64-2.78 3.05zM38.59 182.62c.18 2.43 2.67 5.22 2.67 5.22s2.05-3.13 1.87-5.56c-.18-2.43-1.27-3.32-2.52-3.23-1.25.09-2.2 1.15-2.02 3.57zM45.35 188.58c.59 2.36 3.53 4.67 3.53 4.67s1.47-3.43.87-5.79-1.82-3.05-3-2.74c-1.18.31-2 1.5-1.4 3.86zM53.1 193.65c.6 2.35 3.53 4.67 3.53 4.67s1.48-3.43.88-5.79-1.83-3.06-3-2.75c-1.17.31-2.01 1.51-1.41 3.87zM61 198.21c.6 2.36 3.53 4.67 3.53 4.67s1.48-3.43.88-5.79-1.82-3.05-3-2.74c-1.18.31-1.97 1.5-1.41 3.86zM13.5 169.5c2.46.07 5.53-2.16 5.53-2.16s-3-2.39-5.42-2.45c-2.42-.06-3.48 1-3.51 2.22-.03 1.22.9 2.33 3.4 2.39zM21.09 177.36c2.25-.18 4.84-2.51 4.84-2.51S23 173 20.75 173.14c-2.25.14-3.09 1.2-3 2.36.09 1.16 1.08 2.04 3.34 1.86zM27.85 184.71c2.26-1 4.11-4.25 4.11-4.25s-3.65-.93-5.91 0c-2.26.93-2.76 2.29-2.26 3.46s1.81 1.75 4.06.79zM33.89 189.64c2.26-1 4.11-4.24 4.11-4.24s-3.65-.94-5.9 0c-2.25.94-2.76 2.3-2.27 3.46.49 1.16 1.81 1.74 4.06.78zM40.62 194.54c2.32-.79 4.41-3.93 4.41-3.93s-3.57-1.2-5.89-.41-2.92 2.08-2.51 3.28c.41 1.2 1.67 1.85 3.99 1.06zM47.74 199.55c2.32-.79 4.41-3.92 4.41-3.92s-3.57-1.21-5.89-.42-2.92 2.09-2.51 3.29c.41 1.2 1.67 1.85 3.99 1.05z"/>
        <path fill="url(#prefix__a)" fill-rule="nonzero" d="M75.8 193.69s1.58-12.93-3.48-17.57c-5.06-4.64-10.39-.13-9.58-6.68.81-6.55 1-12.51-6.64-13.05-7.64-.54-9.58-.35-10.64-5.55-1.06-5.2-2.52-11.69-8.08-7.91-5.56 3.78-6.1 17.23-3.48 25.64 2.62 8.41 9.74 13.2 10.15 17.61.41 4.41.22 5.59-4.43 7.52-4.65 1.93-3.81 10.05 7.15 15.22S73.08 213 73.08 213l2.72-19.31z"/>
        <path fill="#CADFFF" fill-rule="nonzero" d="M74.06 203.74c-.09 0-8.51-4.14-19-14.85v-.08c-1.48-5 .21-19.75.23-19.9a.28.28 0 00-.23-.29.26.26 0 00-.28.23c-.07.58-1.58 13.75-.39 19.36l-.15-.15C43.36 176.74 40 156.4 40 156.2a.25.25 0 00-.29-.21.26.26 0 00-.22.29c0 .2 3.4 20.7 14.39 32.14A101.72 101.72 0 0062 196c-4.16 2.79-10.7.62-10.77.6a.253.253 0 00-.16.48 17.87 17.87 0 002.68.64c2.42.39 6 .51 8.67-1.37a64.52 64.52 0 0011.41 7.81h.07a.25.25 0 00.27-.14.25.25 0 00-.11-.28z"/>
        <path fill="url(#prefix__b)" fill-rule="nonzero" d="M191.29 152.92s8.7-3.85 10.93-7.71c3.31-5.73 4.52-6.61 8.54-8.6 4.02-1.99 5-8.92-.38-10s-1.47-8.41.5-13.38c1.97-4.97-2.68-16.23-7.57-12.1-4.89 4.13-1.47 7.53-5.74 10.14-4.27 2.61-7.86 3.85-7.25 10.91.61 7.06-1.77 22.1-1.77 22.1l2.74 8.64z"/>
        <path fill="#CADFFF" fill-rule="nonzero" d="M210 131.26a37.12 37.12 0 01-10.5 4.1 175.48 175.48 0 006.08-27.48.26.26 0 00-.22-.29.27.27 0 00-.29.22c0 .23-2.44 18.59-7.66 31.88a25 25 0 01-5.31-12.79.26.26 0 00-.27-.24.25.25 0 00-.24.27 25.53 25.53 0 005.6 13.31 44 44 0 01-3.36 6.8.26.26 0 00.08.35.32.32 0 00.19 0 .25.25 0 00.17-.11 54.9 54.9 0 005-11.38 37.16 37.16 0 0011-4.24.26.26 0 10-.28-.43l.01.03z"/>
        <path fill="url(#prefix__c)" fill-rule="nonzero" d="M194.82 73.67L63.34 119.55v102.69c0 4.26 2.21 8.35 6.74 11.53 10.71 7.53 30.47 7.24 43.92-.64l69-38.9c8.38-4.91 12.41-11.65 11.66-17.86h.1l.06-102.7z"/>
        <path fill="#80C4FF" fill-rule="nonzero" d="M183.06 91.14L114 130c-13.45 7.88-33.21 8.17-43.92.64-10.71-7.52-8.46-20.13 5-28l69-38.91c13.45-7.88 33.21-8.16 43.92-.64 10.76 7.57 8.51 20.17-4.94 28.05z"/>
        <path fill="url(#prefix__d)" fill-rule="nonzero" d="M167.83 138.2l-9.45-5.3c-3.88-2.06-8.94-1.86-14.51 1.13-12.15 6.53-22 23.79-22 38.56 0 7.77 2.74 13.26 7.09 15.81l9.38 5.41 29.49-55.61z"/>
        <ellipse cx="153.098" cy="166.068" fill="#D0E7FF" fill-rule="nonzero" rx="31.44" ry="18.71" transform="rotate(-62.74 153.098 166.068)"/>
        <path fill="#2A60B7" fill-rule="nonzero" d="M158.93 159.16c0-3.92-2.61-5.69-5.84-4-3.23 1.69-5.83 6.31-5.83 10.23 0 2.78 1.32 4.48 3.24 4.6v7.73c0 1.73 1.17 2.52 2.59 1.76a5.62 5.62 0 002.59-4.54v-7.73a13 13 0 003.25-8.05z"/>
        <path fill="url(#prefix__e)" fill-rule="nonzero" d="M117.27 107.71l-36.6 2v6.45a7.1 7.1 0 003 5.76c5.53 4.46 16.87 5.21 25.34 1.68 5.59-2.33 8.26-5.79 8.26-9.41v-6.48z"/>
        <ellipse cx="98.987" cy="108.378" fill="#D0E7FF" fill-rule="nonzero" rx="18.34" ry="10.22" transform="rotate(-4.26 98.987 108.378)"/>
        <path fill="url(#prefix__f)" fill-rule="nonzero" d="M179.42 71.78l-33.71 1.83v5.94a6.53 6.53 0 002.73 5.3c5.09 4.1 15.53 4.79 23.33 1.54 5.14-2.14 7.61-5.33 7.61-8.66l.04-5.95z"/>
        <ellipse cx="162.569" cy="72.394" fill="#D0E7FF" fill-rule="nonzero" rx="16.89" ry="9.41" transform="rotate(-4.26 162.569 72.394)"/>
        <path fill="#BFD9FF" fill-rule="nonzero" d="M169.35 33.9c0-24.17-24.24-31.63-39.58-26.7-27.22 8.8-39.58 31.44-39.58 64.72v35a.33.33 0 000 .14v.13a3.35 3.35 0 001.39 2.41c2.59 2.09 7.92 2.44 11.89.78 2.59-1.07 4-2.73 3.88-4.34V68.08c0-20.28 8.54-36.67 23.8-43.17 11.69-5 23.81.69 23.81 15.29v30.93a2.72 2.72 0 001.15 2.06c2.17 1.75 6.62 2 9.94.66 2.21-.92 3.34-2.36 3.21-3.73l.09-36.22z"/>
        <path fill="url(#prefix__g)" fill-rule="nonzero" d="M129.77 7.2C102.55 16 90.19 38.64 90.19 71.92v35a.33.33 0 000 .14v.13a3.35 3.35 0 001.39 2.41c2.59 2.09 7.92 2.44 11.89.78 2.59-1.07 4-2.73 3.88-4.34V68.08c0-20.28 8.54-36.67 23.8-43.17 11.72-4.98 13.96-22.64-1.38-17.71z"/>
        <path fill="url(#prefix__h)" fill-rule="nonzero" d="M169.35 33.9c0-24.17-14.36-8.3-14.36 6.3v30.93a2.72 2.72 0 001.15 2.06c2.17 1.75 6.62 2 9.94.66 2.21-.92 3.34-2.36 3.21-3.73l.06-36.22z"/>
        <path fill="#FFD215" fill-rule="nonzero" d="M118.15 258.65h-49.3v1.72a2.13 2.13 0 001.32 1.63l21.94 11.61a6.12 6.12 0 005.55-.09l19.5-12.25a2.13 2.13 0 00.85-.91h.14v-1.71z"/>
        <path fill="#FFE63E" fill-rule="nonzero" d="M92.11 272l-21.94-11.59c-1.62-.86-1.77-2.29-.32-3.19L89.35 245a6.16 6.16 0 015.55-.08l21.94 11.6c1.62.86 1.76 2.29.32 3.2l-19.5 12.25a6.12 6.12 0 01-5.55.03z"/>
        <path fill="url(#prefix__i)" fill-rule="nonzero" d="M107.16 256.9L96.8 224.25a3.46 3.46 0 00-6.6 0L79.84 256.9c-1.13 3.61 6.12 6.86 13.66 6.86s14.8-3.25 13.66-6.86z"/>
        <path fill="url(#prefix__j)" fill-rule="nonzero" d="M107.16 256.9l-1.32-4.16c.92 3.23-5.58 6.11-12.34 6.11s-13.25-2.85-12.33-6.12l-1.33 4.17c-1.13 3.61 6.12 6.86 13.66 6.86s14.8-3.25 13.66-6.86z"/>
        <path fill="url(#prefix__k)" fill-rule="nonzero" d="M104.25 247.77l-1.24-4c.72 2.54-4.19 4.84-9.51 4.84-5.32 0-10.24-2.24-9.52-4.78l-1.23 3.92c-.89 2.84 4.82 5.39 10.75 5.39s11.65-2.53 10.75-5.37z"/>
        <path fill="url(#prefix__l)" fill-rule="nonzero" d="M101.54 239.24l-1.07-3.52c.55 1.9-3 3.6-7 3.6s-7.47-1.7-6.93-3.6l-1.11 3.52c-.66 2.13 3.6 4 8 4s8.79-1.87 8.11-4z"/>
        <path fill="url(#prefix__m)" fill-rule="nonzero" d="M99.05 231.37l-.86-2.82c.37 1.31-1.94 2.49-4.69 2.49-2.75 0-5-1.18-4.66-2.49l-.84 2.82c-.46 1.47 2.48 2.79 5.54 2.79s5.97-1.32 5.51-2.79z"/>
        <path fill="#37475E" fill-rule="nonzero" d="M74.65 84.36s1.12 2.38.61 4c-.19.61.62.65 1.34.67.72.02 2.69 0 2.84-1.12.07-.59-2.16-3.75-3.15-4.29-.99-.54-1.64.74-1.64.74z"/>
        <path fill="#F6B2AD" fill-rule="nonzero" d="M75.75 84.79s-1.16-.32-1.07.46c.09.78.7 1 1.43 1.07.73.07-.36-1.53-.36-1.53z"/>
        <path fill="#37475E" fill-rule="nonzero" d="M60.47 150.11S57 153 58 153.86c1 .86 2.32 1.1 4.13 0s3.39-3 2.52-3.9c-.87-.9-1.74-1.96-4.18.15z"/>
        <path fill="#F6B2AD" fill-rule="nonzero" d="M56 125.23s5.27 23.51 5.36 24.55c.09 1.04.6 1.46 1.78 1 1.18-.46 1-1.68 1.11-4 .11-2.32.21-18.19.21-18.19L56 125.23z"/>
        <path fill="#37475E" fill-rule="nonzero" d="M69.81 152.64s-2.9 4.86-2.12 5.57a3.26 3.26 0 004.19-.46c1.45-1.41 3.42-5.54.82-5.87-2.6-.33-2.89.76-2.89.76z"/>
        <path fill="#FEC6BD" fill-rule="nonzero" d="M62.15 130.1s2.73 7.77 4.37 12.69c1.56 4.65 3.6 9.69 3.47 10.68-.13.99 1.31 1.05 2.13.27.82-.78 1.25-8.84.49-13.88a47.34 47.34 0 00-2.39-9.33l-8.07-.43z"/>
        <path fill="#2A60B7" fill-rule="nonzero" d="M71.81 116.28a6.88 6.88 0 01-3.45 1.72c-2.31.49-12.25 2.68-12.57 7.3-.3 4.36 14.09 7.94 16.62 7.81 2.53-.13 11.3-1.65 15.91-4.38 4.79-2.82.68-13 .68-13l-17.19.55z"/>
        <path fill="#37475E" fill-rule="nonzero" d="M69.62 130.39l-17.34-6.75c-.29-.12-.34-.31-.09-.44l12.2-6.2a1.41 1.41 0 011 0l17.45 7.32c.27.11.27.31 0 .43l-12.32 5.62a1.38 1.38 0 01-.9.02z"/>
        <path fill="#FEC6BD" fill-rule="nonzero" d="M69.39 104a27.59 27.59 0 01-1.79 5.55c-.87 1.45-3.71 7.45-3.71 7.45s-1.47.88-1.64 1.91c-.17 1.03-.45 1.71.66 2 1.11.29 2.6-2 2.77-3.18.17-1.18 5.49-6.8 6.19-8.17.7-1.37 2.13-5.1 2.13-5.1l-4.61-.46z"/>
        <path fill="#6DB3FA" fill-rule="nonzero" d="M75.58 91.61s-2.5.69-5.07 5.48a41.6 41.6 0 00-2.63 6.55.81.81 0 00.43 1c.89.43 2.58 1.22 4 1.83l3.27-14.86zM80.09 89.91s-2.34.19-3.39 1.33c-1.05 1.14-3 8.84-3.08 14.51a51.37 51.37 0 01-1.19 9.76 16.65 16.65 0 006.89 2.21c3.48.4 9.68-2 9.68-2s.41-7.22.46-10.12c.05-2.9.47-9.79-2.24-12.28s-3.22-3.71-7.13-3.41z"/>
        <path fill="#FFE63E" fill-rule="nonzero" d="M79.42 90a9.1 9.1 0 00-2.69 5.11 78.51 78.51 0 00-1.89 12.8c-.41 6.08-.64 9.59-.64 9.59a10.51 10.51 0 01-2.75-1.5 82.4 82.4 0 01-.07-9.07c.2-7.23 2.83-14.1 3.6-15 .77-.9 4.44-1.93 4.44-1.93zM84.71 91.08s-1 .79-1.82 3.68c-.82 2.89-2.14 11.78-2.56 15.09-.42 3.31-1.22 9.41-1.22 9.41s6.38.64 10.67-2.32c0 0 1-16 .87-17.59-.13-1.59-1.37-5.08-5.94-8.27z"/>
        <path fill="#FEC6BD" fill-rule="nonzero" d="M85.83 109.75s-.39 4.86-.4 5.31c-.01.45-8.13 6.9-9.75 7.4-1.62.5-3.68 1.54-3.2 2.14.61.593 1.43.92 2.28.91a13.48 13.48 0 002.66-1.39c.71-.46.79-1.19 1.19-1.51.4-.32 7.49-3.17 9.34-5.08 1.85-1.91 3-6.52 3.33-9.47l-5.45 1.69z"/>
        <path fill="#425970" fill-rule="nonzero" d="M69.54 130.42l-17.22-6.95a1.69 1.69 0 01-.73-.64l-7-12.9c-.16-.29 0-.43.25-.3l19 8.21c.3.145.547.383.7.68l5.25 11.67c.11.23-.01.33-.25.23z"/>
        <path fill="#FEC6BD" fill-rule="nonzero" d="M74.83 82.6a21.94 21.94 0 00.89 3.75c.63 1.82 1.49 3.64 3.85 3.19 0 0 .35.9.65 1.59.3.69 2.36.74 3.17-.38s-1-4.87-1-4.87a2.94 2.94 0 00.15-3.1 4 4 0 00-4.75-1.93c-2.17.52-2.92 1.4-2.96 1.75z"/>
        <path fill="#37475E" fill-rule="nonzero" d="M80.92 84.11s.27-1.25 1-.87.51 1.44.1 2c0 0 .56 2.17-.24 3.32s4.87-1.65 3.78-5.2c-1-3.11-4.43-5.41-6.48-5.41a5.39 5.39 0 00-4.19 1.32c-1.76 1.2-1.37 3.73-1.13 4.73.24 1 1.7.21 2.38 0 3.07-.88 3-2 3.59-2 .59 0 .47.93.79 1.58.32.65.4.53.4.53z"/>
        <path fill="#6DB3FA" fill-rule="nonzero" d="M89 110.13c2-.14 3.23-.6 3.29-1.4.06-.8-.73-9.73-2.5-12.33-1.77-2.6-2.58-1.76-3.55 3.09-.51 2.54-1.74 8.24-1.66 9.26.08 1.02 2.42 1.51 4.42 1.38z"/>
        <path fill="#BFD9FF" fill-rule="nonzero" d="M252.23 149.23L203.08 170.97 223.91 217.41 270.08 181.25z"/>
        <path fill="#D0E7FF" fill-rule="nonzero" d="M252.23 149.23L207.86 175.48 203.08 170.97 246.09 145.54z"/>
        <path fill="#96C4F6" fill-rule="nonzero" d="M270.08 181.25L270.08 217.41 227.25 241.85 227.25 206.77z"/>
        <path fill="#78B3EE" fill-rule="nonzero" d="M209.21 174.49L227.25 206.77 227.25 241.85 203.8 228.5 203.08 170.97z"/>
        <path fill="#FFF" fill-rule="nonzero" d="M250.87 154.01L214.08 175.39 228.6 201.36 264.58 179.9z"/>
        <path fill="#ACD4F7" fill-rule="nonzero" d="M216.599 167.542H254.119V171.422H216.599z" transform="rotate(150 235.359 169.482)"/>
        <path fill="#ACD4F7" fill-rule="nonzero" d="M221.366 178.535H239.88600000000002V182.42499999999998H221.366z" transform="rotate(150 230.626 180.48)"/>
        <path fill="#ACD4F7" fill-rule="nonzero" d="M225.704 182.97H244.22400000000002V193.37H225.704z" transform="rotate(150 234.964 188.17)"/>
        <path fill="#ACD4F7" fill-rule="nonzero" d="M247.13 187.07L261.72 178.68 254.28 164.88 239.29 173.48z"/>
        <path fill="#FEC6BD" fill-rule="nonzero" d="M250.44 241.59L250.84 248.74 253.44 248.64 254.14 241.54z"/>
        <path fill="#30343A" fill-rule="nonzero" d="M250.84 248.74a19.17 19.17 0 01-4.4 1.35c-1.95.25-1.9 1.45-.35 1.65 1.55.2 8.1 1.2 8.2-.5a3.41 3.41 0 00-.85-2.6l-2.6.1z"/>
        <path fill="#FEC6BD" fill-rule="nonzero" d="M263.89 237.13L264.23 243.18 266.43 243.09 267.02 237.08z"/>
        <path fill="#30343A" fill-rule="nonzero" d="M264.23 243.18a16.29 16.29 0 01-3.73 1.14c-1.65.21-1.61 1.23-.29 1.4 1.32.17 6.85 1 6.94-.43a2.91 2.91 0 00-.72-2.2l-2.2.09z"/>
        <path fill="#2A60B7" fill-rule="nonzero" d="M244.49 201.32c.147 7.041.65 14.07 1.51 21.06 1.35 9.8 2.8 17.16 2.85 19.26a5.88 5.88 0 003.61.9c2.54 0 2.79-.9 2.79-.9s2-17.16 2.25-25c0 0 9.1-8.66 9.86-18.86l-20.71-7.6-2.16 11.14z"/>
        <path fill="#255299" fill-rule="nonzero" d="M257.54 216.63a61.92 61.92 0 013.85 11.7c.9 5.1 1.35 9.1 1.35 9.1.79.475 1.7.711 2.62.68a3.55 3.55 0 002.39-.68 127.82 127.82 0 00.9-18.7c-.35-9.21-1.25-21-1.25-21l-9.86 18.9z"/>
        <path fill="url(#prefix__n)" fill-rule="nonzero" d="M257.54 216.63a61.92 61.92 0 013.85 11.7c.9 5.1 1.35 9.1 1.35 9.1a5.64 5.64 0 002.63.68 4.16 4.16 0 002.38-.68 127.82 127.82 0 00.9-18.7c-.35-9.21-1.25-21-1.25-21l-9.86 18.9z"/>
        <path fill="#FEC6BD" fill-rule="nonzero" d="M252.6 158.66s-1.14 1.08-1.55 4c-.41 2.92.46 4.1 2.44 4.18a4.08 4.08 0 011.19 2.09 3.78 3.78 0 01-.43 2.58l3.42 1.55 2.1-1.93-.57-9.41-6.6-3.06z"/>
        <path fill="#37475E" fill-rule="nonzero" d="M252.64 161.53a23.54 23.54 0 00-1.7-2.53c-.94-1.17-.43-4.54-.43-4.54a3.2 3.2 0 002.48 1.07c1.59-.05 4.24-.95 6.23 1.11a6.05 6.05 0 011 6.33 9.6 9.6 0 00-.82 2 4.38 4.38 0 00-2.74.14c-1.09.6-1.46.27-2.23-.5s-1.17-1.24-1.17-1.24 1.69-.64 1.06-1.84c-.63-1.2-1.68 0-1.68 0z"/>
        <path fill="#FEC6BD" fill-rule="nonzero" d="M223.74 159.31s-3.19-7-4.16-6.61c-.97.39.56 2.71.56 2.71s-.94 1.13-1.34 1.76c-.4.63.13 1.08.66 2 .53.92 2.29 3.27 2.29 3.27l1.99-3.13z"/>
        <path fill="#6DB3FA" fill-rule="nonzero" d="M242.42 173.2a8.12 8.12 0 006.21-.55c2.63-1.17 14-4.42 16-4.46 2-.04 3.93.8 4.21 3.43.28 2.63-1.42 26.15-1.42 26.15s-12.94 5.45-18.86 5c-3.71-.27-4.56-2-4.56-2s1.08-9.33.13-12.83c-.95-3.5-13.13-11.94-15.64-14.23-2.51-2.29-7.27-9.87-8.14-11.73-.87-1.86 2.48-4.38 4.44-2.27 1.96 2.11 5.66 6.29 10.21 9.29 4.55 3 5.19 3.33 7.42 4.2z"/>
        <path fill="#FFD215" fill-rule="nonzero" d="M249.79 183.59c.11-10.37-1.16-10.94-1.16-10.94 2.63-1.17 14-4.42 16-4.46a13.45 13.45 0 012.72 5.74 52.93 52.93 0 011 9.83c.14 4.94-.33 9.82-.26 12.84a2.35 2.35 0 01-1.79 2.31c-4 .93-13.15 4.21-17.74 3.88-3.71-.27-4.56-2-4.56-2 .38-3.35.543-6.72.49-10.09 0 0 5.2 3.3 5.3-7.11z"/>
        <path fill="#FFF0B7" fill-rule="nonzero" d="M261.19 168.86c.45-.12.88-.22 1.27-.3 1-.23 2.58 2.64 2.71 6.49.17 4.73-1 24.41-1 24.41l-1.33.38s1.25-20.55.8-25.4a8.82 8.82 0 00-2.45-5.58zM251.28 171.69l1.57-.5s2.43 2.85 2.27 10c-.07 2.63-.48 20.91-.48 20.91l-1.8.37s.44-15.28.52-21.51c.08-6.23-2.08-9.27-2.08-9.27z"/>
        <path fill="#FFF0B7" fill-rule="nonzero" d="M263.99 193.75L254.14 196.84 254.14 195.37 263.99 192.28z"/>
    </g>
</svg>
