<svg width="21" height="22" viewBox="0 0 21 22" fill="none" xmlns="http://www.w3.org/2000/svg">
<path fill-rule="evenodd" clip-rule="evenodd" d="M10.32 2.76C11.28 1.08 13.08 0 15.24 0C18.36 0 21 2.64 21 5.76C21 8.52 19.2 10.8 16.68 11.4V21.24C16.68 21.6 16.32 21.96 15.96 21.96H3.23999C2.39999 21.96 1.67999 21.6 1.07999 21C0.47999 20.4 0.23999 19.56 0.23999 18.72V18.6V18.48V5.76C0.23999 5.04 0.47999 4.2 1.07999 3.6C1.67999 3.12 2.39999 2.76 3.23999 2.76H10.32ZM3.23999 20.64H15.24V17.04H3.23999C2.75999 17.04 2.39999 17.28 2.15999 17.52C1.79999 17.88 1.67999 18.24 1.67999 18.6V18.72V18.84C1.67999 19.32 1.91999 19.8 2.15999 20.16C2.51999 20.52 2.87999 20.64 3.23999 20.64ZM3.23999 15.6H15.12V11.52C12 11.52 9.35999 9 9.35999 5.76C9.35999 5.28 9.47999 4.8 9.59999 4.32H3.23999C2.75999 4.32 2.39999 4.56 2.15999 4.8C1.79999 5.04 1.67999 5.4 1.79999 5.76V15.96C2.15999 15.72 2.75999 15.6 3.23999 15.6ZM15.24 10.08C15.72 10.08 16.2 9.96 16.68 9.84C18.36 9.24 19.56 7.68 19.56 5.88C19.56 3.48 17.64 1.56 15.24 1.56C14.04 1.56 12.96 2.04 12.12 2.88C11.64 3.24 11.4 3.72 11.16 4.32C11.04 4.68 10.92 5.28 10.92 5.76C10.92 8.16 12.84 10.08 15.24 10.08ZM17.28 6.48C17.64 6.48 18 6.12 18 5.76C18 5.4 17.76 5.04 17.28 5.04H15.96V3.72C15.96 3.36 15.72 3 15.24 3C14.88 3 14.52 3.24 14.52 3.72V5.16H13.2C12.84 5.16 12.48 5.52 12.48 5.88C12.48 6.24 12.84 6.6 13.2 6.6H14.52V7.8C14.52 8.16 14.88 8.52 15.24 8.52C15.6 8.52 15.96 8.28 15.96 7.8V6.48H17.28Z" fill="#ACAEB6"/>
</svg>
