<svg width="20" height="28" viewBox="0 0 20 28" fill="none" xmlns="http://www.w3.org/2000/svg">
<path d="M18.75 10.1818H16.25V6.36364C16.25 2.8 13.5 0 10 0C6.5 0 3.75 2.8 3.75 6.36364V10.1818H1.25C0.5 10.1818 0 10.6909 0 11.4545V26.7273C0 27.4909 0.5 28 1.25 28H18.75C19.5 28 20 27.4909 20 26.7273V11.4545C20 10.6909 19.5 10.1818 18.75 10.1818ZM6.25 6.36364C6.25 4.2 7.875 2.54545 10 2.54545C12.125 2.54545 13.75 4.2 13.75 6.36364V10.1818H6.25V6.36364ZM11.25 19.3455V21.6364C11.25 22.4 10.75 22.9091 10 22.9091C9.25 22.9091 8.75 22.4 8.75 21.6364V19.3455C8 18.9636 7.5 18.0727 7.5 17.1818C7.5 15.7818 8.625 14.6364 10 14.6364C11.375 14.6364 12.5 15.7818 12.5 17.1818C12.5 18.0727 12 18.9636 11.25 19.3455Z" fill="#333A3D"/>
</svg>
