<svg xmlns="http://www.w3.org/2000/svg" width="24" height="24" viewBox="0 0 24 24">
    <g fill="none" fill-rule="evenodd">
        <path fill="#171B1D" fill-opacity=".5" d="M3.429 6.857L0 12h2.572c0 5.2 4.23 9.428 9.429 9.428 2.09 0 4.09-.702 5.789-2.031.216-.17.327-.422.327-.675 0-.186-.06-.37-.181-.528-.292-.372-.832-.438-1.205-.146-1.39 1.09-3.026 1.666-4.73 1.666-4.255 0-7.714-3.46-7.714-7.714h2.572l-3.43-5.143zM12 2.571c-2.091 0-4.092.703-5.789 2.032-.374.291-.437.83-.146 1.203.292.372.83.44 1.204.146C8.66 4.862 10.296 4.286 12 4.286c4.253 0 7.715 3.46 7.715 7.714h-2.573l3.43 5.143L24.001 12h-2.572c0-5.2-4.23-9.429-9.429-9.429z"/>
    </g>
</svg>
