<svg xmlns="http://www.w3.org/2000/svg" width="14" height="14" viewBox="0 0 14 14">
    <path fill="#171B1D" fill-opacity=".5" fill-rule="evenodd" d="M3.559 1.038a.496.496 0 0 1 .545.108l3.25 3.25a.502.502 0 0 1 0 .707.499.499 0 0 1-.707 0L4.25 2.707V12.5a.5.5 0 0 1-1 0V2.707L.854 5.103a.499.499 0 0 1-.707 0 .499.499 0 0 1 0-.707l3.249-3.25a.499.499 0 0 1 .163-.108zM10.25 1a.5.5 0 0 1 .5.5v9.793l2.397-2.396A.499.499 0 0 1 14 9.25a.502.502 0 0 1-.146.354l-3.25 3.25a.505.505 0 0 1-.708 0l-3.249-3.25a.499.499 0 0 1 0-.707.499.499 0 0 1 .707 0l2.396 2.396V1.5a.5.5 0 0 1 .5-.5z"/>
</svg>
