<svg width="36" height="36" viewBox="0 0 36 36" fill="none" xmlns="http://www.w3.org/2000/svg">
<path d="M33.5812 5.75062L30.8306 3L27.0829 6.74763L29.8336 9.49825L33.5812 5.75062Z" fill="#E6EEF1"/>
<path d="M15.04 16.0816C14.47 15.5116 14.47 14.5916 15.04 14.0216L18.14 10.9216L20.2 12.9816L17.1 16.0816C16.54 16.6516 15.61 16.6516 15.04 16.0816Z" fill="#FFDA00"/>
<path d="M20.5059 21.5475C19.9359 20.9775 19.9359 20.0575 20.5059 19.4875L23.6059 16.3875L25.6659 18.4475L22.5659 21.5475C22.0059 22.1175 21.0759 22.1175 20.5059 21.5475Z" fill="#FFDA00"/>
<path d="M15.04 16.0816C14.47 15.5116 14.47 14.5916 15.04 14.0216L18.14 10.9216L20.2 12.9816L17.1 16.0816C16.54 16.6516 15.61 16.6516 15.04 16.0816Z" fill="url(#paint0_linear_2405_1700)"/>
<path d="M20.5059 21.5475C19.9359 20.9775 19.9359 20.0575 20.5059 19.4875L23.6059 16.3875L25.6659 18.4475L22.5659 21.5475C22.0059 22.1175 21.0759 22.1175 20.5059 21.5475Z" fill="url(#paint1_linear_2405_1700)"/>
<path d="M27.3759 21.5617L15.0259 9.21169C14.6359 8.82169 14.6359 8.19169 15.0259 7.80169L16.3659 6.46169C16.7559 6.07169 17.3859 6.07169 17.7759 6.46169L30.1259 18.8117C30.5159 19.2017 30.5159 19.8317 30.1259 20.2217L28.7859 21.5617C28.3959 21.9517 27.7659 21.9517 27.3759 21.5617Z" fill="#508FEA"/>
<path d="M28.9658 18.6317L17.9558 7.62173L21.8458 3.73173C22.6258 2.95173 23.8958 2.95173 24.6758 3.73173L32.8558 11.9117C33.6358 12.6917 33.6358 13.9617 32.8558 14.7417L28.9658 18.6317Z" fill="#508FEA"/>
<path d="M27.3759 21.5617L15.0259 9.21169C14.6359 8.82169 14.6359 8.19169 15.0259 7.80169L16.3659 6.46169C16.7559 6.07169 17.3859 6.07169 17.7759 6.46169L30.1259 18.8117C30.5159 19.2017 30.5159 19.8317 30.1259 20.2217L28.7859 21.5617C28.3959 21.9517 27.7659 21.9517 27.3759 21.5617Z" fill="url(#paint2_linear_2405_1700)"/>
<path d="M29.4558 18.1417L18.4458 7.13173L21.8458 3.73173C22.6258 2.95173 23.8958 2.95173 24.6758 3.73173L32.8558 11.9117C33.6358 12.6917 33.6358 13.9617 32.8558 14.7417L29.4558 18.1417Z" fill="url(#paint3_linear_2405_1700)"/>
<path d="M30.146 9.19171L27.396 6.44171L30.836 3.00171L33.586 5.75171L30.146 9.19171Z" fill="url(#paint4_linear_2405_1700)"/>
<path d="M9.74745 29.59L6.99683 26.8394L3.00171 30.8345L5.75233 33.5851L9.74745 29.59Z" fill="#E6EEF1"/>
<path d="M21.56 27.3774L9.20998 15.0274C8.81998 14.6374 8.18998 14.6374 7.79998 15.0274L6.45998 16.3674C6.06998 16.7574 6.06998 17.3874 6.45998 17.7774L18.81 30.1274C19.2 30.5174 19.83 30.5174 20.22 30.1274L21.56 28.7874C21.95 28.3974 21.95 27.7674 21.56 27.3774Z" fill="#508FEA"/>
<path d="M18.38 29.2173L7.37002 18.2073L3.73002 21.8473C2.95002 22.6273 2.95002 23.8973 3.73002 24.6773L11.91 32.8573C12.69 33.6373 13.96 33.6373 14.74 32.8573L18.38 29.2173Z" fill="#508FEA"/>
<path d="M21.56 27.3774L9.20998 15.0274C8.81998 14.6374 8.18998 14.6374 7.79998 15.0274L6.45998 16.3674C6.06998 16.7574 6.06998 17.3874 6.45998 17.7774L18.81 30.1274C19.2 30.5174 19.83 30.5174 20.22 30.1274L21.56 28.7874C21.95 28.3974 21.95 27.7674 21.56 27.3774Z" fill="url(#paint5_linear_2405_1700)"/>
<path d="M18.14 29.4573L7.13002 18.4473L3.73002 21.8473C2.95002 22.6273 2.95002 23.8973 3.73002 24.6773L11.91 32.8573C12.69 33.6373 13.96 33.6373 14.74 32.8573L18.14 29.4573Z" fill="url(#paint6_linear_2405_1700)"/>
<path d="M9.19 30.1475L6.44 27.3975L3 30.8375L5.75 33.5875L9.19 30.1475Z" fill="url(#paint7_linear_2405_1700)"/>
<defs>
<linearGradient id="paint0_linear_2405_1700" x1="16.0748" y1="12.9802" x2="18.1393" y2="15.0446" gradientUnits="userSpaceOnUse">
<stop stop-color="#E5B527" stop-opacity="0"/>
<stop offset="1" stop-color="#E5B527" stop-opacity="0.8"/>
</linearGradient>
<linearGradient id="paint1_linear_2405_1700" x1="21.5423" y1="18.4476" x2="23.6068" y2="20.5121" gradientUnits="userSpaceOnUse">
<stop stop-color="#E5B527" stop-opacity="0"/>
<stop offset="1" stop-color="#E5B527" stop-opacity="0.8"/>
</linearGradient>
<linearGradient id="paint2_linear_2405_1700" x1="15.6929" y1="7.13084" x2="29.4562" y2="20.8941" gradientUnits="userSpaceOnUse">
<stop offset="0.4" stop-color="#133E92" stop-opacity="0"/>
<stop offset="1" stop-color="#133E92" stop-opacity="0.4"/>
</linearGradient>
<linearGradient id="paint3_linear_2405_1700" x1="20.854" y1="4.72228" x2="31.8647" y2="15.733" gradientUnits="userSpaceOnUse">
<stop offset="0.4" stop-color="#133E92" stop-opacity="0"/>
<stop offset="1" stop-color="#133E92" stop-opacity="0.4"/>
</linearGradient>
<linearGradient id="paint4_linear_2405_1700" x1="29.1123" y1="4.72226" x2="31.8649" y2="7.47486" gradientUnits="userSpaceOnUse">
<stop stop-color="#243477" stop-opacity="0"/>
<stop offset="1" stop-color="#243477" stop-opacity="0.2"/>
</linearGradient>
<linearGradient id="paint5_linear_2405_1700" x1="7.12717" y1="15.6963" x2="20.8904" y2="29.4596" gradientUnits="userSpaceOnUse">
<stop offset="0.4" stop-color="#133E92" stop-opacity="0"/>
<stop offset="1" stop-color="#133E92" stop-opacity="0.4"/>
</linearGradient>
<linearGradient id="paint6_linear_2405_1700" x1="4.71861" y1="20.8574" x2="15.7293" y2="31.8681" gradientUnits="userSpaceOnUse">
<stop offset="0.4" stop-color="#133E92" stop-opacity="0"/>
<stop offset="1" stop-color="#133E92" stop-opacity="0.4"/>
</linearGradient>
<linearGradient id="paint7_linear_2405_1700" x1="4.71859" y1="29.1157" x2="7.47119" y2="31.8683" gradientUnits="userSpaceOnUse">
<stop stop-color="#243477" stop-opacity="0"/>
<stop offset="1" stop-color="#243477" stop-opacity="0.2"/>
</linearGradient>
</defs>
</svg>
