<svg xmlns="http://www.w3.org/2000/svg" width="15" height="14" viewBox="0 0 15 14">
    <path fill="#FFF" fill-rule="evenodd" d="M5.99 1a.5.5 0 0 1 0 1h-3.5v11h11V9.5a.5.5 0 0 1 1 0v4a.5.5 0 0 1-.5.5h-12a.5.5 0 0 1-.5-.5v-12a.5.5 0 0 1 .5-.5h4zm8 0H14c.021 0 .042.002.063.005L13.99 1a.501.501 0 0 1 .304.103l.031.027.019.016.019.021a.503.503 0 0 1 .02.023l-.04-.044a.505.505 0 0 1 .072.09l.014.025c.01.018.018.036.026.054l.01.03a.431.431 0 0 1 .025.136V5.5a.5.5 0 0 1-1 0V2.707L7.844 8.354a.502.502 0 0 1-.708 0 .502.502 0 0 1 0-.708L12.782 2H9.99a.5.5 0 0 1 0-1h4z"/>
</svg>
