<svg width="44" height="44" viewBox="0 0 44 44" fill="none" xmlns="http://www.w3.org/2000/svg">
<path d="M4 28.8998V32.0198C4.33 36.0198 11.48 39.0898 20.21 39.0198C28.94 38.9498 36 35.6598 36.21 31.6898V28.5698L4 28.8998Z" fill="#FFD215"/>
<path opacity="0.06" d="M5 30.7998V34.2998C5.14 34.4698 5.28001 34.6398 5.45001 34.8098L5.40002 30.8098L5 30.7998Z" fill="black"/>
<path opacity="0.06" d="M6.87 30.78L6.92999 35.94L7.37 36.2L7.31 30.77L6.87 30.78Z" fill="black"/>
<path opacity="0.06" d="M8.72998 30.76L8.79999 36.94L9.23999 37.13L9.16998 30.75L8.72998 30.76Z" fill="black"/>
<path opacity="0.06" d="M10.6 30.74L10.68 37.66L11.12 37.8L11.04 30.73L10.6 30.74Z" fill="black"/>
<path opacity="0.06" d="M12.46 30.72L12.5499 38.19L12.9899 38.28L12.9 30.71L12.46 30.72Z" fill="black"/>
<path opacity="0.06" d="M14.38 30.6999L14.47 38.5599L14.91 38.6299L14.82 30.6899L14.38 30.6999Z" fill="black"/>
<path opacity="0.06" d="M16.1899 30.6799L16.2899 38.8099L16.72 38.8599L16.6299 30.6699L16.1899 30.6799Z" fill="black"/>
<path opacity="0.06" d="M18.0599 30.6601L18.15 38.9501H18.59L18.4999 30.6201L18.0599 30.6601Z" fill="black"/>
<path opacity="0.06" d="M19.9299 30.6401L20.02 39.0001H20.46L20.3599 30.6401H19.9299Z" fill="black"/>
<path opacity="0.06" d="M21.7899 30.6201L21.8799 38.9501H22.3199L22.2299 30.6501L21.7899 30.6201Z" fill="black"/>
<path opacity="0.06" d="M23.66 30.5998L23.75 38.7798L24.18 38.7298L24.09 30.5898L23.66 30.5998Z" fill="black"/>
<path opacity="0.06" d="M25.52 30.5798L25.61 38.5098L26.05 38.4398L25.96 30.5698L25.52 30.5798Z" fill="black"/>
<path opacity="0.06" d="M27.38 30.5598L27.46 38.1298L27.9 38.0198L27.81 30.5498L27.38 30.5598Z" fill="black"/>
<path opacity="0.06" d="M29.25 30.5398L29.33 37.5998C29.48 37.5998 29.62 37.4998 29.76 37.4498L29.69 30.5298L29.25 30.5398Z" fill="black"/>
<path opacity="0.06" d="M31.12 30.5198L31.19 36.8998L31.62 36.6998L31.55 30.5098L31.12 30.5198Z" fill="black"/>
<path opacity="0.06" d="M32.98 30.4998L33.04 35.9297C33.19 35.8397 33.34 35.7497 33.48 35.6497L33.42 30.4897L32.98 30.4998Z" fill="black"/>
<path opacity="0.06" d="M34.85 30.4797V34.4797C35.0044 34.3194 35.1481 34.149 35.28 33.9697V30.4697L34.85 30.4797Z" fill="black"/>
<path d="M20.2068 36.1279C29.1147 36.0331 36.3006 32.6433 36.2571 28.5566C36.2136 24.47 28.9571 21.2339 20.0493 21.3288C11.1414 21.4236 3.95544 24.8134 3.99895 28.9001C4.04246 32.9868 11.299 36.2228 20.2068 36.1279Z" fill="#FFDE00"/>
<path opacity="0.4" d="M20.4499 22.1401V22.3401C28.4499 22.3401 35.0699 25.0801 35.0999 28.4501C35.0999 30.1001 33.5999 31.6801 30.8199 32.9001C27.4422 34.2459 23.8358 34.9251 20.1999 34.9001H19.8099C11.8099 34.9001 5.18996 32.1601 5.14996 28.7901C5.14996 27.1401 6.65994 25.5601 9.43994 24.3401C12.8177 22.9943 16.424 22.3152 20.0599 22.3401H20.4499V22.1801V22.1401ZM20.4499 22.1801H20.0599C11.6999 22.2701 4.94992 25.1801 4.98992 28.7701C5.02992 32.3601 11.6299 35.0401 19.8099 35.0401H20.1999C28.5599 34.9501 35.2999 32.0401 35.2599 28.4501C35.2199 24.8601 28.6299 22.1801 20.4499 22.1801Z" fill="white"/>
<path d="M7.71997 23.4599V26.5799C8.03997 30.5799 15.1999 33.6499 23.9299 33.5799C32.6599 33.5099 39.7199 30.2199 39.9299 26.2499V23.1299L7.71997 23.4599Z" fill="#FFD215"/>
<path opacity="0.06" d="M8.72998 25.3398V28.8398C8.86998 29.0098 9.00998 29.1798 9.16998 29.3498V25.3498L8.72998 25.3398Z" fill="black"/>
<path opacity="0.06" d="M10.59 25.3401L10.65 30.5001L11.09 30.7601L11.03 25.3301L10.59 25.3401Z" fill="black"/>
<path opacity="0.06" d="M12.46 25.3401L12.53 31.5201L12.97 31.7101L12.9 25.3301L12.46 25.3401Z" fill="black"/>
<path opacity="0.06" d="M14.3199 25.3401L14.4 32.2601L14.84 32.4001L14.7599 25.3301L14.3199 25.3401Z" fill="black"/>
<path opacity="0.06" d="M16.1899 25.28L16.27 32.75L16.71 32.84L16.6299 25.27L16.1899 25.28Z" fill="black"/>
<path opacity="0.06" d="M18.0499 25.26L18.14 33.12L18.58 33.19L18.4899 25.25L18.0499 25.26Z" fill="black"/>
<path opacity="0.06" d="M19.9199 25.24L20.0099 33.37L20.45 33.42L20.3599 25.23L19.9199 25.24Z" fill="black"/>
<path opacity="0.06" d="M21.78 25.2202L21.88 33.5102H22.31L22.22 25.1802L21.78 25.2202Z" fill="black"/>
<path opacity="0.06" d="M23.65 25.1997L23.74 33.5597H24.18L24.09 25.1997H23.65Z" fill="black"/>
<path opacity="0.06" d="M25.51 25.1802L25.61 33.5102H26.04L25.95 25.2102L25.51 25.1802Z" fill="black"/>
<path opacity="0.06" d="M27.38 25.1599L27.47 33.3399L27.91 33.2899L27.82 25.1499L27.38 25.1599Z" fill="black"/>
<path opacity="0.06" d="M29.24 25.1399L29.33 33.0699L29.77 32.9999L29.68 25.1299L29.24 25.1399Z" fill="black"/>
<path opacity="0.06" d="M31.11 25.1199L31.19 32.6899L31.63 32.5799L31.55 25.1099L31.11 25.1199Z" fill="black"/>
<path opacity="0.06" d="M32.97 25.0998L33.0499 32.1599C33.1999 32.1599 33.3399 32.0598 33.4899 32.0098L33.41 25.0898L32.97 25.0998Z" fill="black"/>
<path opacity="0.06" d="M34.84 25.0798L34.91 31.4598L35.3499 31.2598L35.28 25.0698L34.84 25.0798Z" fill="black"/>
<path opacity="0.06" d="M36.7 25.0598L36.7599 30.4898C36.9099 30.3998 37.06 30.3098 37.2 30.2098L37.14 25.0498L36.7 25.0598Z" fill="black"/>
<path opacity="0.06" d="M38.5699 25.0398V29.0398C38.7275 28.8795 38.8745 28.7092 39.0099 28.5298V25.0298L38.5699 25.0398Z" fill="black"/>
<path d="M23.9286 30.6885C32.8364 30.5936 40.0224 27.2039 39.9789 23.1172C39.9354 19.0305 32.6788 15.7945 23.771 15.8893C14.8631 15.9842 7.67724 19.3739 7.72075 23.4606C7.76426 27.5473 15.0207 30.7833 23.9286 30.6885Z" fill="#FFDE00"/>
<path opacity="0.4" d="M24.17 16.6997V16.8597C32.22 16.8597 38.79 19.5997 38.83 22.9697C38.83 24.6197 37.32 26.1997 34.54 27.4197C31.1625 28.7665 27.556 29.4457 23.92 29.4197H23.53C15.53 29.4197 8.91 26.6797 8.88 23.3097C8.88 21.6597 10.38 20.0797 13.16 18.8597C16.5378 17.5139 20.1441 16.8348 23.78 16.8597H24.17V16.6997ZM24.17 16.6997H23.78C15.42 16.7897 8.68003 19.6997 8.72003 23.2897C8.76003 26.8797 15.35 29.5597 23.53 29.5597H23.92C32.28 29.4697 39.03 26.5597 38.99 22.9697C38.95 19.3797 32.35 16.6997 24.17 16.6997Z" fill="white"/>
<path d="M4 18.0199V21.1399C4.33 25.1399 11.48 28.2099 20.21 28.1399C28.94 28.0699 36 24.7799 36.21 20.8099V17.6899L4 18.0199Z" fill="#FFD215"/>
<path opacity="0.06" d="M5 19.9199V23.4199C5.14 23.5899 5.28001 23.7599 5.45001 23.9299L5.40002 19.9299L5 19.9199Z" fill="black"/>
<path opacity="0.06" d="M6.87 19.9001L6.92999 25.0601L7.37 25.3201L7.31 19.8901L6.87 19.9001Z" fill="black"/>
<path opacity="0.06" d="M8.72998 19.8801L8.79999 26.0601L9.23999 26.2501L9.16998 19.8701L8.72998 19.8801Z" fill="black"/>
<path opacity="0.06" d="M10.6 19.8601L10.68 26.7801L11.12 26.9201L11.04 19.8501L10.6 19.8601Z" fill="black"/>
<path opacity="0.06" d="M12.46 19.8401L12.5499 27.3101L12.9899 27.4001L12.9 19.8301L12.46 19.8401Z" fill="black"/>
<path opacity="0.06" d="M14.38 19.8201L14.47 27.6801L14.91 27.7501L14.82 19.8101L14.38 19.8201Z" fill="black"/>
<path opacity="0.06" d="M16.1899 19.7998L16.2899 27.9297H16.72L16.6299 19.7397L16.1899 19.7998Z" fill="black"/>
<path opacity="0.06" d="M18.0599 19.7798L18.15 28.0697H18.59L18.4999 19.7397L18.0599 19.7798Z" fill="black"/>
<path opacity="0.06" d="M19.9299 19.7598L20.02 28.1198H20.46L20.3599 19.7598H19.9299Z" fill="black"/>
<path opacity="0.06" d="M21.7899 19.7397L21.8799 28.0697H22.3199L22.2299 19.7697L21.7899 19.7397Z" fill="black"/>
<path opacity="0.06" d="M23.66 19.72L23.75 27.9L24.18 27.85L24.09 19.71L23.66 19.72Z" fill="black"/>
<path opacity="0.06" d="M25.52 19.6999L25.61 27.6299L26.05 27.5599L25.96 19.6899L25.52 19.6999Z" fill="black"/>
<path opacity="0.06" d="M27.38 19.6799L27.46 27.2499L27.9 27.1399L27.81 19.6699L27.38 19.6799Z" fill="black"/>
<path opacity="0.06" d="M29.25 19.6599L29.33 26.7199C29.48 26.7199 29.62 26.6199 29.76 26.5699L29.69 19.6499L29.25 19.6599Z" fill="black"/>
<path opacity="0.06" d="M31.12 19.6399L31.19 26.0199L31.62 25.8199L31.55 19.6299L31.12 19.6399Z" fill="black"/>
<path opacity="0.06" d="M32.98 19.6199L33.04 25.0499C33.19 24.9599 33.34 24.8699 33.48 24.7699L33.42 19.6099L32.98 19.6199Z" fill="black"/>
<path opacity="0.06" d="M34.85 19.5998V23.5998C35.0044 23.4395 35.1481 23.2691 35.28 23.0898V19.5898L34.85 19.5998Z" fill="black"/>
<path d="M20.211 25.2485C29.1188 25.1537 36.3048 21.7639 36.2613 17.6772C36.2178 13.5905 28.9613 10.3545 20.0534 10.4494C11.1456 10.5442 3.95959 13.934 4.0031 18.0207C4.04661 22.1073 11.3031 25.3434 20.211 25.2485Z" fill="#FFDE00"/>
<path opacity="0.4" d="M20.4499 11.2598V11.4198C28.4499 11.4198 35.0699 14.1598 35.0999 17.5298C35.0999 19.1798 33.5999 20.7598 30.8199 21.9798C27.4422 23.3256 23.8358 24.0047 20.1999 23.9798H19.8099C11.8099 23.9798 5.18996 21.2398 5.14996 17.8698C5.14996 16.2198 6.65994 14.6398 9.43994 13.4198C12.8177 12.074 16.424 11.3948 20.0599 11.4198H20.4499V11.2598ZM20.4499 11.2598H20.0599C11.6999 11.3498 4.94992 14.2598 4.98992 17.8498C5.02992 21.4398 11.6299 24.1198 19.8099 24.1198H20.1999C28.5599 24.0298 35.2999 21.1198 35.2599 17.5298C35.2199 13.9398 28.6299 11.2598 20.4499 11.2598Z" fill="white"/>
<path d="M7.71997 12.58V15.7C8.03997 19.7 15.1999 22.77 23.9299 22.7C32.6599 22.63 39.7199 19.34 39.9299 15.37V12.25L7.71997 12.58Z" fill="#FFD215"/>
<path opacity="0.06" d="M8.72998 14.48V17.98C8.86998 18.15 9.00998 18.32 9.16998 18.49V14.49L8.72998 14.48Z" fill="black"/>
<path opacity="0.06" d="M10.59 14.4597L10.65 19.6197L11.09 19.8797L11.03 14.4497L10.59 14.4597Z" fill="black"/>
<path opacity="0.06" d="M12.46 14.4402L12.53 20.6202L12.97 20.8102L12.9 14.4302L12.46 14.4402Z" fill="black"/>
<path opacity="0.06" d="M14.3199 14.4202L14.3799 21.3401L14.8199 21.4801L14.7399 14.4102L14.3199 14.4202Z" fill="black"/>
<path opacity="0.06" d="M16.1899 14.4001L16.27 21.8701L16.71 21.9601L16.6299 14.3901L16.1899 14.4001Z" fill="black"/>
<path opacity="0.06" d="M18.0499 14.3401L18.14 22.2001L18.58 22.2701L18.4899 14.3301L18.0499 14.3401Z" fill="black"/>
<path opacity="0.06" d="M19.9199 14.3398L20.0099 22.4698H20.45L20.3799 14.3398H19.9199Z" fill="black"/>
<path opacity="0.06" d="M21.78 14.3398L21.88 22.6298H22.31L22.22 14.2998L21.78 14.3398Z" fill="black"/>
<path opacity="0.06" d="M23.65 14.3398L23.74 22.6998H24.18L24.09 14.3398H23.65Z" fill="black"/>
<path opacity="0.06" d="M25.51 14.3398L25.61 22.6698H26.04L25.95 14.3698L25.51 14.3398Z" fill="black"/>
<path opacity="0.06" d="M27.38 14.28L27.47 22.46L27.91 22.41L27.82 14.27L27.38 14.28Z" fill="black"/>
<path opacity="0.06" d="M29.24 14.26L29.33 22.19L29.77 22.12L29.68 14.25L29.24 14.26Z" fill="black"/>
<path opacity="0.06" d="M31.11 14.24L31.19 21.81L31.63 21.7L31.55 14.23L31.11 14.24Z" fill="black"/>
<path opacity="0.06" d="M32.97 14.22L33.0499 21.28C33.1999 21.28 33.3399 21.18 33.4899 21.13L33.41 14.21L32.97 14.22Z" fill="black"/>
<path opacity="0.06" d="M34.84 14.1999L34.91 20.5799L35.3499 20.3799L35.28 14.1899L34.84 14.1999Z" fill="black"/>
<path opacity="0.06" d="M36.7 14.1799L36.7599 19.6099C36.9099 19.5199 37.06 19.4299 37.2 19.3299L37.14 14.1699L36.7 14.1799Z" fill="black"/>
<path opacity="0.06" d="M38.5699 14.1599V18.1599C38.7275 17.9996 38.8745 17.8293 39.0099 17.6499V14.1499L38.5699 14.1599Z" fill="black"/>
<path d="M23.9328 19.8091C32.8407 19.7142 40.0267 16.3244 39.9831 12.2378C39.9396 8.15109 32.6831 4.91508 23.7753 5.00992C14.8674 5.10476 7.68151 8.49454 7.72502 12.5812C7.76853 16.6679 15.025 19.9039 23.9328 19.8091Z" fill="#FFDE00"/>
<path opacity="0.4" d="M24.17 5.81982V5.97983C32.22 5.97983 38.79 8.71983 38.83 12.0898C38.83 13.7398 37.32 15.3198 34.54 16.5398C31.1625 17.8866 27.556 18.5658 23.92 18.5398H23.53C15.53 18.5398 8.91 15.7998 8.88 12.4298C8.88 10.7798 10.38 9.19983 13.16 7.97983C16.5378 6.63403 20.1441 5.95487 23.78 5.97983H24.17V5.81982ZM24.17 5.81982H23.78C15.42 5.90982 8.68003 8.81984 8.72003 12.4098C8.76003 15.9998 15.35 18.6798 23.53 18.6798H23.92C32.28 18.5898 39.03 15.6798 38.99 12.0898C38.95 8.49983 32.35 5.81982 24.17 5.81982Z" fill="white"/>
<path d="M34 43C39.5228 43 44 38.5228 44 33C44 27.4772 39.5228 23 34 23C28.4772 23 24 27.4772 24 33C24 38.5228 28.4772 43 34 43Z" fill="#508FEA"/>
<path fill-rule="evenodd" clip-rule="evenodd" d="M29.8779 32.3327H38.1021L38.0922 32.3423C38.3268 32.3423 38.5517 32.2511 38.7176 32.0887C38.8834 31.9263 38.9766 31.7061 38.9766 31.4764C38.9766 31.2468 38.8834 31.0265 38.7176 30.8641C38.5517 30.7017 38.3268 30.6105 38.0922 30.6105H32.0003L33.9655 28.6863C34.1133 28.521 34.1914 28.3068 34.1839 28.0872C34.1765 27.8676 34.0841 27.659 33.9254 27.5036C33.7667 27.3482 33.5537 27.2578 33.3294 27.2505C33.1051 27.2432 32.8864 27.3197 32.7176 27.4644L29.2491 30.8511C29.1286 30.9739 29.0474 31.1285 29.0153 31.2958C28.9833 31.4632 29.0017 31.6361 29.0685 31.7933C29.1352 31.9506 29.2474 32.0853 29.3911 32.1811C29.5349 32.2769 29.704 32.3296 29.8779 32.3327ZM34.0146 38.5C34.1836 38.6593 34.4088 38.7489 34.6435 38.7501C34.8815 38.7514 35.1106 38.6616 35.2821 38.5L38.7408 35.1133C38.8663 34.9894 38.9511 34.8317 38.9843 34.6602C39.0176 34.4888 38.9978 34.3116 38.9275 34.1512C38.8613 33.9924 38.7485 33.8565 38.6033 33.7606C38.4581 33.6646 38.2871 33.6131 38.1119 33.6125H29.8878C29.6532 33.6125 29.4283 33.7037 29.2624 33.8661C29.0966 34.0284 29.0034 34.2487 29.0034 34.4783C29.0034 34.708 29.0966 34.9282 29.2624 35.0906C29.4283 35.253 29.6532 35.3442 29.8878 35.3442H35.9798L34.0146 37.2685C33.849 37.4324 33.7561 37.6536 33.7561 37.8842C33.7561 38.1148 33.849 38.336 34.0146 38.5Z" fill="white"/>
</svg>
