<svg width="14" height="14" viewBox="0 0 14 14" fill="none" xmlns="http://www.w3.org/2000/svg">
<path opacity="0.5" fill-rule="evenodd" clip-rule="evenodd" d="M2.5 9.5C1.122 9.5 0 8.379 0 7C0 5.621 1.122 4.5 2.5 4.5C3.29673 4.5 4.00789 4.87474 4.46608 5.45743L9.08505 3.14768C9.02959 2.94105 9 2.72393 9 2.5C9 1.121 10.122 0 11.5 0C12.878 0 14 1.121 14 2.5C14 3.879 12.878 5 11.5 5C10.7033 5 9.99211 4.62526 9.53392 4.04257L4.91468 6.35131C4.97032 6.55824 5 6.77571 5 7C5 7.29906 4.94723 7.586 4.85052 7.85199L9.40907 10.1309C9.85632 9.45017 10.6268 9 11.5 9C12.878 9 14 10.121 14 11.5C14 12.879 12.878 14 11.5 14C10.122 14 9 12.879 9 11.5C9 11.3513 9.01305 11.2056 9.03806 11.0639L4.3239 8.70809L4.2116 8.82061C3.7639 9.24172 3.16144 9.5 2.5 9.5ZM11.5 10C10.673 10 10 10.673 10 11.5C10 12.327 10.673 13 11.5 13C12.327 13 13 12.327 13 11.5C13 10.673 12.327 10 11.5 10ZM2.5 5.5C1.673 5.5 1 6.173 1 7C1 7.827 1.673 8.5 2.5 8.5C3.327 8.5 4 7.827 4 7C4 6.173 3.327 5.5 2.5 5.5ZM11.5 1C10.673 1 10 1.673 10 2.5C10 3.327 10.673 4 11.5 4C12.327 4 13 3.327 13 2.5C13 1.673 12.327 1 11.5 1Z" fill="#171B1D"/>
</svg>
