<svg xmlns="http://www.w3.org/2000/svg" width="14" height="14" viewBox="0 0 14 14">
    <g fill="none" fill-rule="evenodd">
        <path fill="#171B1D" fill-opacity=".5" d="M7.875 9.625v2.625h1.75v.875h-1.75V14H5.25v-.875H7V10.5H5.25v-.875h2.625zm-3.5 0V14H0V9.625h4.375zm8.75 1.75v.876h-1.75V14H10.5v-2.625h2.624zm.876 1.75V14H12.25v-.875h1.751zM3.5 10.5H.875v2.625H3.5V10.5zm-.874.874v.876H1.75v-.876h.876zm3.5 0v.876H5.25v-.876h.876zm3.499-1.749v1.75H8.75v-1.75h.875zm4.376 0v.875h-.876v-.875h.876zm-2.626-1.75V10.5H10.5V8.75h-.875v-.875h1.75zM.875 5.25V7h.875v.874H.875v.876H0v-3.5h.875zM8.75 7V8.75h-.875V6.999h.875zM4.375 5.25V7h1.75v.875H7v.875H5.25v-.875H3.5v.875h-.875V7H3.5V5.25h.875zm9.626 2.624v.876H12.25v-.876h1.751zM11.375 5.25v.875h.875V5.25H14v.875h-.875V7h-3.5v-.875h.875V5.25h.875zM8.75 4.375v1.75h-3.5V5.25h2.625v-.875h.875zm-6.124.875v.875H1.75V5.25h.876zM4.375-.001v4.376H0V-.001h4.375zm9.626 0v4.376H9.625V-.001h4.376zm-7.875 3.5v.876H5.25v-.876h.876zM3.5.875H.875v2.624H3.5V.875zm9.624 0H10.5v2.624h2.624V.875zm-6.998 0v.875H8.75v.875h-.875V3.5H7v-.874H5.25V.875h.876zm-3.5.875v.875H1.75V1.75h.876zm9.624 0v.875h-.875V1.75h.875zM8.75-.001v.876H7v-.876h1.75z"/>
    </g>
</svg>
