<svg width="15" height="14" viewBox="0 0 15 14" fill="none" xmlns="http://www.w3.org/2000/svg">
<path fill-rule="evenodd" clip-rule="evenodd" d="M8.3747 9.62512V12.2501H10.1247V13.1251H8.3747V14.0001H5.7497V13.1251H7.5007V10.5001H5.7497V9.62512H8.3747ZM4.875 9.62502V14H0.5V9.62502H4.875ZM13.6243 11.3747V12.2507H11.8753V13.9997H11.0003V11.3747H13.6243ZM14.501 13.125V14H12.75V13.125H14.501ZM4 10.5H1.375V13.125H4V10.5ZM3.126 11.374V12.25H2.25V11.374H3.126ZM6.626 11.374V12.25H5.75V11.374H6.626ZM10.125 9.62502V11.375H9.25V9.62502H10.125ZM14.501 9.62502V10.5H13.625V9.62502H14.501ZM11.875 7.87502V10.5H11V8.75002H10.125V7.87502H11.875ZM1.375 5.25022V7.00022H2.25V7.87422H1.375V8.75022H0.5V5.25022H1.375ZM9.25 6.99902V8.75002H8.375V6.99902H9.25ZM4.875 5.25002V7.00002H6.625V7.87502H7.5V8.75002H5.75V7.87502H4V8.75002H3.125V7.00002H4V5.25002H4.875ZM14.501 7.87402V8.75002H12.75V7.87402H14.501ZM11.8749 5.25022V6.12522H12.7499V5.25022H14.5009V6.12522H13.6249V7.00022H10.1249V6.12522H10.9999V5.25022H11.8749ZM9.25 4.37502V6.12502H5.75V5.25002H8.375V4.37502H9.25ZM3.126 5.25002V6.12502H2.25V5.25002H3.126ZM4.875 -0.000976562V4.37502H0.5V-0.000976562H4.875ZM14.501 -0.000976562V4.37502H10.125V-0.000976562H14.501ZM6.626 3.49902V4.37502H5.75V3.49902H6.626ZM4 0.875023H1.375V3.49902H4V0.875023ZM13.624 0.875023H11V3.49902H13.624V0.875023ZM6.6257 0.875323V1.75032H9.2497V2.62532H8.3747V3.49932H7.5007V2.62532H5.7497V0.875323H6.6257ZM3.126 1.75002V2.62502H2.25V1.75002H3.126ZM12.75 1.75002V2.62502H11.875V1.75002H12.75ZM9.25 -0.000976562V0.875023H7.5V-0.000976562H9.25Z" fill="white"/>
</svg>
