<svg xmlns="http://www.w3.org/2000/svg" xmlns:xlink="http://www.w3.org/1999/xlink" width="16" height="16" viewBox="0 0 16 16">
    <defs>
        <path id="prefix__a" d="M0 0L16 0 16 16 0 16z"/>
    </defs>
    <g fill="none" fill-rule="evenodd">
        <mask id="prefix__b" fill="#fff">
            <use xlink:href="#prefix__a"/>
        </mask>
        <path fill="#231916" d="M12.651 9.716h-.997V7.449c0-.522-.3-.803-.764-.803-.518 0-.85.32-.85.966v2.104h-.997V4.17h.997v2.086c.24-.366.626-.545 1.151-.545.425 0 .772.14 1.043.428.278.289.417.678.417 1.185v2.392zM5.486 8.77c.735 0 1.364-.444 1.553-1.13h1.088C7.86 8.96 6.842 9.825 5.486 9.825c-1.576 0-2.826-1.186-2.826-2.836s1.25-2.836 2.826-2.836c1.37 0 2.395.882 2.649 2.225H7.05c-.165-.73-.815-1.185-1.564-1.185-1.06 0-1.765.762-1.765 1.796 0 1.033.802 1.78 1.765 1.78zM8 0C3.858 0 .5 3.133.5 6.997c0 2.853 1.185 4.216 2.808 5.458l.008.003v3.35c0 .157.179.248.305.154l2.844-2.131.06.027c.478.088.97.135 1.475.135 4.142 0 7.5-3.132 7.5-6.996C15.5 3.133 12.142 0 8 0z" mask="url(#prefix__b)"/>
    </g>
</svg>
