<svg xmlns="http://www.w3.org/2000/svg" width="15" height="14" viewBox="0 0 15 14">
    <path fill="#FFF" fill-rule="evenodd" d="M13.07 3.518l-.93.931-2.35-2.353.93-.932c.11-.12.27-.169.43-.169.15 0 .3.05.42.17l1.5 1.501c.12.111.18.261.18.421 0 .17-.06.321-.18.431zm-8.05 8.07L2.67 9.233l6.42-6.438 2.35 2.354-6.42 6.437zm-2.94 1.09l-.56-.56.66-1.962 1.9 1.901-2 .621zm11.7-10.722L12.28.454c-.61-.6-1.66-.61-2.27 0l-.93.931-.7.701-6.42 6.437-.35.341c-.06.06-.1.13-.12.2l-.1.301-.65 1.971-.43 1.283a1.013 1.013 0 0 0 .25 1.071c.19.19.46.3.72.31h.02c.11 0 .22-.02.33-.05l1.29-.43 1.96-.66.3-.102a.448.448 0 0 0 .2-.12l.35-.34 6.42-6.437.7-.7.93-.933a1.606 1.606 0 0 0 0-2.272z"/>
</svg>
