<svg width="17" height="16" viewBox="0 0 17 16" fill="none" xmlns="http://www.w3.org/2000/svg">
<path fill-rule="evenodd" clip-rule="evenodd" d="M3.35714 10.8571C1.78229 10.8571 0.5 9.576 0.5 8C0.5 6.424 1.78229 5.14286 3.35714 5.14286C4.2677 5.14286 5.08045 5.57114 5.60409 6.23706L10.8829 3.59735C10.8195 3.3612 10.7857 3.11306 10.7857 2.85714C10.7857 1.28114 12.068 0 13.6429 0C15.2177 0 16.5 1.28114 16.5 2.85714C16.5 4.43314 15.2177 5.71429 13.6429 5.71429C12.7323 5.71429 11.9196 5.28601 11.3959 4.62008L6.11678 7.25864C6.18036 7.49513 6.21429 7.74367 6.21429 8C6.21429 8.34179 6.15398 8.66971 6.04345 8.9737L11.2532 11.5782C11.7644 10.8002 12.6449 10.2857 13.6429 10.2857C15.2177 10.2857 16.5 11.5669 16.5 13.1429C16.5 14.7189 15.2177 16 13.6429 16C12.068 16 10.7857 14.7189 10.7857 13.1429C10.7857 12.9729 10.8006 12.8063 10.8292 12.6445L5.44161 9.95211L5.31326 10.0807C4.8016 10.562 4.11307 10.8571 3.35714 10.8571ZM13.6429 11.4286C12.6977 11.4286 11.9286 12.1977 11.9286 13.1429C11.9286 14.088 12.6977 14.8571 13.6429 14.8571C14.588 14.8571 15.3571 14.088 15.3571 13.1429C15.3571 12.1977 14.588 11.4286 13.6429 11.4286ZM3.35714 6.28571C2.412 6.28571 1.64286 7.05486 1.64286 8C1.64286 8.94514 2.412 9.71429 3.35714 9.71429C4.30229 9.71429 5.07143 8.94514 5.07143 8C5.07143 7.05486 4.30229 6.28571 3.35714 6.28571ZM13.6429 1.14286C12.6977 1.14286 11.9286 1.912 11.9286 2.85714C11.9286 3.80229 12.6977 4.57143 13.6429 4.57143C14.588 4.57143 15.3571 3.80229 15.3571 2.85714C15.3571 1.912 14.588 1.14286 13.6429 1.14286Z" fill="white"/>
</svg>
