<svg xmlns="http://www.w3.org/2000/svg" width="24" height="24" viewBox="0 0 24 24">
    <path fill="#171B1D" fill-rule="evenodd" d="M12.016 9.385A2.638 2.638 0 0 0 9.38 12.02a2.639 2.639 0 0 0 2.635 2.636 2.639 2.639 0 0 0 2.636-2.636 2.638 2.638 0 0 0-2.636-2.635zm0 6.671A4.041 4.041 0 0 1 7.98 12.02a4.04 4.04 0 0 1 4.036-4.035 4.04 4.04 0 0 1 4.036 4.035 4.04 4.04 0 0 1-4.036 4.036zm-.967 5.195a8.893 8.893 0 0 0 1.83.004 2.923 2.923 0 0 1 1.805-2.67c1.05-.43 2.359-.156 3.166.643.48-.387.923-.825 1.319-1.304a2.917 2.917 0 0 1-.636-3.19 2.948 2.948 0 0 1 2.69-1.785l.029.001a9.267 9.267 0 0 0 .004-1.847c-1.188-.025-2.235-.729-2.68-1.812a2.927 2.927 0 0 1 .637-3.16 9.226 9.226 0 0 0-1.288-1.303c-.812.811-2.131 1.081-3.19.638a2.923 2.923 0 0 1-1.783-2.72 9.423 9.423 0 0 0-1.832-.004 2.923 2.923 0 0 1-1.805 2.67c-1.053.432-2.36.158-3.165-.642a9.234 9.234 0 0 0-1.32 1.303 2.916 2.916 0 0 1 .636 3.19c-.442 1.053-1.501 1.742-2.717 1.78a9.256 9.256 0 0 0-.005 1.845 2.931 2.931 0 0 1 2.68 1.818 2.926 2.926 0 0 1-.636 3.16c.385.477.817.914 1.287 1.303.813-.81 2.132-1.08 3.189-.638a2.924 2.924 0 0 1 1.785 2.72zm.939 1.448a10.6 10.6 0 0 1-1.234-.072 1.253 1.253 0 0 1-1.107-1.32 1.518 1.518 0 0 0-.925-1.484c-.551-.23-1.3-.063-1.703.385a1.26 1.26 0 0 1-1.72.136 10.645 10.645 0 0 1-1.693-1.714 1.26 1.26 0 0 1 .138-1.7c.469-.43.623-1.11.385-1.692-.237-.576-.81-.978-1.393-.937h-.001c-.607 0-1.292-.427-1.368-1.114-.09-.813-.09-1.63.005-2.433a1.235 1.235 0 0 1 1.294-1.109c.673 0 1.274-.364 1.509-.923a1.515 1.515 0 0 0-.384-1.706A1.257 1.257 0 0 1 3.657 5.3a10.657 10.657 0 0 1 1.73-1.712 1.266 1.266 0 0 1 1.704.142c.402.442 1.145.613 1.694.387a1.52 1.52 0 0 0 .935-1.46 1.26 1.26 0 0 1 1.119-1.292c.8-.087 1.61-.086 2.406.006.66.078 1.147.657 1.109 1.321a1.52 1.52 0 0 0 .923 1.484c.552.231 1.3.061 1.703-.384a1.26 1.26 0 0 1 1.718-.138 10.69 10.69 0 0 1 1.696 1.712 1.262 1.262 0 0 1-.138 1.705 1.522 1.522 0 0 0-.384 1.691c.233.567.79.935 1.423.935.583 0 1.26.426 1.339 1.115.09.812.089 1.632-.006 2.433-.078.664-.692 1.162-1.337 1.106h-.083c-.59 0-1.151.372-1.384.926a1.516 1.516 0 0 0 .385 1.706c.492.444.552 1.2.135 1.716a10.7 10.7 0 0 1-1.731 1.712 1.255 1.255 0 0 1-1.702-.14c-.405-.444-1.15-.615-1.697-.389a1.518 1.518 0 0 0-.933 1.46 1.263 1.263 0 0 1-1.12 1.293c-.39.043-.781.065-1.173.065z"/>
</svg>
