<svg width="20" height="20" viewBox="0 0 20 20" fill="none" xmlns="http://www.w3.org/2000/svg">
<path fill-rule="evenodd" clip-rule="evenodd" d="M10.321 0.90918C12.339 0.976993 14.2763 1.7179 15.8249 3.01403L5.68391 13.1574L10.321 0.90918ZM11.1579 9.99795L16.9816 4.17223C18.3433 5.80775 19.0889 7.86902 19.0887 9.99753C19.0884 12.126 18.3424 14.1872 16.9803 15.8224L11.1579 9.99795ZM8.04276 2.30788L0.927281 9.4246C0.780442 11.7126 1.50478 13.9714 2.9547 15.747L8.04276 2.30788ZM4.17634 16.9808L9.99999 11.1551L15.8236 16.9808C14.1887 18.3436 12.128 19.0898 9.99999 19.0898C7.87194 19.0898 5.81123 18.3436 4.17634 16.9808Z" fill="white"/>
</svg>
