<svg xmlns="http://www.w3.org/2000/svg" width="24" height="24" viewBox="0 0 24 24">
    <g fill="none" fill-rule="nonzero">
        <circle cx="12" cy="1.161" r="1.161" fill="#383A39"/>
        <circle cx="12" cy="22.839" r="1.161" fill="#ECEEEE"/>
        <circle cx="6.581" cy="2.594" r="1.161" fill="#77807F"/>
        <path fill="#F2F4F4" d="M18.426 20.826c.31.542.116 1.239-.426 1.587-.542.31-1.239.116-1.587-.426-.31-.542-.116-1.239.426-1.587.542-.31 1.277-.116 1.587.426z"/>
        <path fill="#9FAAA9" d="M3.174 5.574c.542.31.736 1.007.426 1.587-.31.542-1.006.736-1.587.426-.542-.31-.736-1.006-.426-1.587.31-.58 1.045-.735 1.587-.426z"/>
        <path fill="#F2F7F7" d="M21.987 16.413c.542.31.736 1.006.426 1.587-.31.542-1.007.735-1.587.426-.542-.31-.736-1.007-.426-1.587.31-.542 1.006-.736 1.587-.426z"/>
        <circle cx="1.161" cy="12" r="1.161" fill="#B2BBBA"/>
        <circle cx="22.839" cy="12" r="1.161" fill="#FFF"/>
        <path fill="#C5CCCB" d="M2.013 16.413c.542-.31 1.239-.116 1.587.426.31.542.116 1.238-.426 1.587-.542.31-1.239.116-1.587-.426-.348-.542-.116-1.239.426-1.587z"/>
        <path fill="#000" d="M20.826 5.574c.542-.31 1.239-.116 1.587.426.31.542.116 1.239-.426 1.587-.542.31-1.239.116-1.587-.426-.31-.542-.116-1.277.426-1.587z"/>
        <path fill="#D9DDDD" d="M5.574 20.826c.31-.542 1.007-.736 1.587-.426.542.31.736 1.006.426 1.587-.31.542-1.006.736-1.587.426-.542-.348-.735-1.045-.426-1.587z"/>
        <path fill="#111" d="M16.413 2.013c.31-.542 1.006-.736 1.587-.426.542.31.735 1.007.426 1.587-.31.542-1.007.736-1.587.426-.542-.31-.736-1.006-.426-1.587z"/>
    </g>
</svg>
