<svg width="44" height="44" viewBox="0 0 44 44" fill="none" xmlns="http://www.w3.org/2000/svg">
<path d="M22 43C33.598 43 43 33.598 43 22C43 10.402 33.598 1 22 1C10.402 1 1 10.402 1 22C1 33.598 10.402 43 22 43Z" fill="#ACD4F7"/>
<path fill-rule="evenodd" clip-rule="evenodd" d="M17.6705 10.8993C18.9577 10.0462 20.471 9.59082 22.0191 9.59082C24.0951 9.59082 26.086 10.4088 27.5539 11.8648C29.0217 13.3207 29.8464 15.2955 29.8464 17.3545C29.8464 18.8901 29.3873 20.3911 28.5273 21.6678C27.6672 22.9446 26.4447 23.9397 25.0145 24.5273C23.5842 25.1149 22.0105 25.2686 20.4921 24.9691C18.9738 24.6695 17.5791 23.9301 16.4844 22.8443C15.3897 21.7585 14.6443 20.3752 14.3423 18.8692C14.0403 17.3632 14.1953 15.8021 14.7877 14.3835C15.3801 12.9649 16.3834 11.7523 17.6705 10.8993ZM18.8498 26.9929H25.188C28.0299 27.002 30.7617 28.0835 32.8288 30.0178C34.896 31.9521 36.1434 34.5942 36.318 37.4076C32.4306 41.0015 27.314 42.9999 21.9998 42.9999C16.6856 42.9999 11.5691 41.0015 7.68164 37.4076C7.85663 34.5877 9.10954 31.9401 11.1848 30.0049C13.2601 28.0696 16.0014 26.9924 18.8498 26.9929Z" fill="white"/>
<path d="M22 43C33.598 43 43 33.598 43 22C43 10.402 33.598 1 22 1C10.402 1 1 10.402 1 22C1 33.598 10.402 43 22 43Z" fill="url(#paint0_linear_3031_1798)"/>
<defs>
<linearGradient id="paint0_linear_3031_1798" x1="32.5191" y1="47.6868" x2="20.32" y2="17.905" gradientUnits="userSpaceOnUse">
<stop stop-color="#4A90D2" stop-opacity="0.4"/>
<stop offset="0.07" stop-color="#4A90D2" stop-opacity="0.28"/>
<stop offset="0.15" stop-color="#4A90D2" stop-opacity="0.18"/>
<stop offset="0.25" stop-color="#4A90D2" stop-opacity="0.1"/>
<stop offset="0.37" stop-color="#4A90D2" stop-opacity="0.04"/>
<stop offset="0.53" stop-color="#4A90D2" stop-opacity="0.01"/>
<stop offset="1" stop-color="#4A90D2" stop-opacity="0"/>
</linearGradient>
</defs>
</svg>
