<svg width="24" height="24" viewBox="0 0 24 24" fill="none" xmlns="http://www.w3.org/2000/svg">
<rect opacity="0.01" width="24" height="24" fill="white"/>
<path fill-rule="evenodd" clip-rule="evenodd" d="M21 18H15V19C15 20.6569 13.6569 22 12 22C10.3431 22 9 20.6569 9 19V18H3L3.74088 15.2705C4.00623 14.2928 4.16852 13.2901 4.22509 12.2787L4.39792 9.18876C4.62352 5.15518 7.96012 2 12 2C16.0399 2 19.3765 5.15518 19.6021 9.18876L19.7749 12.2787C19.8315 13.2901 19.9938 14.2928 20.2591 15.2705L21 18ZM10.5 18V19C10.5 19.8284 11.1716 20.5 12 20.5C12.8284 20.5 13.5 19.8284 13.5 19V18H10.5ZM18.8115 15.6634L19.0386 16.5H4.96142L5.1885 15.6634C5.48127 14.5847 5.66033 13.4784 5.72275 12.3625L5.89558 9.27253C6.07674 6.03359 8.756 3.5 12 3.5C15.244 3.5 17.9233 6.03359 18.1044 9.27253L18.2773 12.3625C18.3397 13.4784 18.5187 14.5847 18.8115 15.6634Z" fill="#171B1D"/>
<circle cx="21" cy="4" r="2" fill="#F03465"/>
</svg>
