<svg width="280" height="280" viewBox="0 0 280 280" fill="none" xmlns="http://www.w3.org/2000/svg">
<path d="M219.519 235.987C219.419 235.709 211.603 212.666 226.341 190.648C237.903 173.368 246.039 154.002 247.033 141.267L247.441 141.309C246.396 154.094 238.236 173.513 226.647 190.882C212.037 212.729 219.763 235.579 219.862 235.856L219.519 235.987Z" fill="#C9DEFF"/>
<path d="M249.287 138.009C249.098 139.831 247.163 141.879 247.163 141.879C247.163 141.879 245.696 139.471 245.884 137.648C246.073 135.826 246.92 135.168 247.855 135.264C248.79 135.361 249.476 136.177 249.287 138.009Z" fill="#C9DEFF"/>
<path d="M245.442 144.952C246.363 146.604 245.955 149.481 245.955 149.481C245.955 149.481 243.321 148.343 242.373 146.689C241.425 145.035 241.735 143.989 242.61 143.508C243.485 143.028 244.508 143.336 245.442 144.952Z" fill="#C9DEFF"/>
<path d="M243.135 152.192C244.127 153.952 243.689 157.038 243.689 157.038C243.689 157.038 240.834 155.822 239.843 154.053C238.851 152.284 239.224 151.162 240.103 150.645C240.982 150.128 242.122 150.457 243.135 152.192Z" fill="#C9DEFF"/>
<path d="M240.242 158.266C241.403 159.814 241.37 162.794 241.37 162.794C241.37 162.794 238.518 161.993 237.357 160.446C236.196 158.898 236.376 157.784 237.171 157.185C237.967 156.585 239.081 156.719 240.242 158.266Z" fill="#C9DEFF"/>
<path d="M238.42 164.81C239.154 166.59 238.488 169.486 238.488 169.486C238.488 169.486 235.885 168.048 235.15 166.277C234.416 164.507 234.807 163.479 235.721 163.058C236.636 162.637 237.654 162.99 238.42 164.81Z" fill="#C9DEFF"/>
<path d="M235.905 171.485C236.361 173.374 235.163 176.096 235.163 176.096C235.163 176.096 232.861 174.229 232.395 172.348C231.929 170.467 232.541 169.517 233.51 169.276C234.48 169.036 235.448 169.606 235.905 171.485Z" fill="#C9DEFF"/>
<path d="M232.344 177.997C232.8 179.886 231.611 182.609 231.611 182.609C231.611 182.609 229.3 180.74 228.843 178.86C228.386 176.98 228.979 176.028 229.949 175.788C230.918 175.547 231.888 176.108 232.344 177.997Z" fill="#C9DEFF"/>
<path d="M228.482 184.137C228.938 186.026 227.74 188.739 227.74 188.739C227.74 188.739 225.428 186.879 224.971 184.999C224.514 183.119 225.118 182.159 226.087 181.928C227.055 181.696 228.025 182.248 228.482 184.137Z" fill="#C9DEFF"/>
<path d="M224.886 190C225.351 191.89 224.154 194.603 224.154 194.603C224.154 194.603 221.842 192.743 221.385 190.864C220.928 188.984 221.531 188.024 222.491 187.791C223.45 187.559 224.475 188.116 224.886 190Z" fill="#C9DEFF"/>
<path d="M220.506 197.956C221.401 199.679 220.879 202.6 220.879 202.6C220.879 202.6 218.194 201.337 217.308 199.615C216.421 197.894 216.782 196.798 217.644 196.362C218.505 195.926 219.618 196.244 220.506 197.956Z" fill="#C9DEFF"/>
<path d="M218.709 205.682C219.595 207.403 219.073 210.324 219.073 210.324C219.073 210.324 216.388 209.061 215.502 207.34C214.616 205.618 214.977 204.522 215.837 204.096C216.697 203.669 217.823 203.96 218.709 205.682Z" fill="#C9DEFF"/>
<path d="M251.15 146.158C249.446 147.124 246.463 146.697 246.463 146.697C246.463 146.697 247.667 143.92 249.354 142.952C251.04 141.984 252.17 142.322 252.648 143.2C253.126 144.079 252.855 145.193 251.15 146.158Z" fill="#C9DEFF"/>
<path d="M248.746 154.521C247.091 155.271 244.422 154.563 244.422 154.563C244.422 154.563 245.763 152.141 247.415 151.418C249.067 150.696 250.025 151.108 250.395 151.965C250.765 152.823 250.398 153.799 248.746 154.521Z" fill="#C9DEFF"/>
<path d="M246.731 162.224C244.797 162.384 242.295 160.771 242.295 160.771C242.295 160.771 244.503 158.752 246.446 158.585C248.39 158.417 249.229 159.167 249.318 160.171C249.407 161.174 248.674 162.056 246.731 162.224Z" fill="#C9DEFF"/>
<path d="M244.332 167.953C242.389 168.121 239.897 166.501 239.897 166.501C239.897 166.501 242.104 164.482 244.048 164.314C245.991 164.146 246.831 164.896 246.92 165.9C247.009 166.904 246.267 167.785 244.332 167.953Z" fill="#C9DEFF"/>
<path d="M241.433 173.916C239.511 174.225 236.879 172.802 236.879 172.802C236.879 172.802 238.939 170.62 240.86 170.312C242.781 170.004 243.684 170.677 243.846 171.679C244.009 172.681 243.399 173.613 241.433 173.916Z" fill="#C9DEFF"/>
<path d="M238.308 180.105C236.377 180.412 233.754 178.99 233.754 178.99C233.754 178.99 235.814 176.808 237.681 176.494C239.548 176.181 240.504 176.869 240.667 177.862C240.831 178.855 240.229 179.797 238.308 180.105Z" fill="#C9DEFF"/>
<path d="M234.75 186.313C232.829 186.621 230.197 185.198 230.197 185.198C230.197 185.198 232.256 183.016 234.178 182.708C236.099 182.4 237.001 183.083 237.155 184.075C237.309 185.067 236.617 185.999 234.75 186.313Z" fill="#C9DEFF"/>
<path d="M230.965 192.498C229.049 192.134 227.061 189.893 227.061 189.893C227.061 189.893 229.732 188.539 231.639 188.902C233.546 189.265 234.173 190.213 233.988 191.207C233.802 192.201 232.872 192.86 230.965 192.498Z" fill="#C9DEFF"/>
<path d="M227.49 197.996C225.612 198.419 222.882 197.152 222.882 197.152C222.882 197.152 224.807 194.846 226.703 194.424C228.6 194.003 229.552 194.636 229.763 195.615C229.974 196.595 229.395 197.576 227.49 197.996Z" fill="#C9DEFF"/>
<path d="M224.852 205.515C222.973 205.947 220.244 204.671 220.244 204.671C220.244 204.671 222.168 202.374 224.065 201.953C225.961 201.531 226.905 202.154 227.124 203.143C227.343 204.133 226.748 205.094 224.852 205.515Z" fill="#C9DEFF"/>
<path d="M223.212 212.778C221.542 213.766 218.562 213.403 218.562 213.403C218.562 213.403 219.684 210.618 221.365 209.621C223.045 208.625 224.127 208.986 224.638 209.812C225.148 210.638 224.893 211.782 223.212 212.778Z" fill="#C9DEFF"/>
<path d="M93.3877 169.494C81.5057 157.845 71.7677 143.741 68.5718 133.559L68.8623 133.439C72.0382 143.561 81.7462 157.606 93.5881 169.215L93.3877 169.494Z" fill="#C9DEFF"/>
<path d="M66.6083 131.283C67.1255 132.367 67.9203 133.297 68.9125 133.978C69.255 132.772 69.3031 131.502 69.0528 130.275C68.5719 128.827 67.8205 128.478 67.1493 128.757C66.478 129.037 66.1173 129.835 66.6083 131.283Z" fill="#C9DEFF"/>
<path d="M70.7757 136.114C70.6298 137.395 70.7947 138.693 71.2566 139.897C72.2088 139.096 72.9399 138.065 73.3805 136.903C73.7512 135.365 73.3204 134.577 72.599 134.367C71.8777 134.158 71.1464 134.577 70.7757 136.114Z" fill="#C9DEFF"/>
<path d="M73.8614 141.515C73.7028 142.89 73.878 144.283 74.3724 145.577C75.4002 144.709 76.1868 143.592 76.6566 142.333C77.0574 140.686 76.5865 139.848 75.8151 139.618C75.0436 139.388 74.2522 139.867 73.8614 141.515Z" fill="#C9DEFF"/>
<path d="M77.1475 145.847C76.8382 147.133 76.8382 148.474 77.1475 149.76C78.2296 149.079 79.1111 148.125 79.7023 146.995C80.2633 145.497 79.9227 144.629 79.2214 144.309C78.5201 143.99 77.7186 144.339 77.1475 145.847Z" fill="#C9DEFF"/>
<path d="M79.7324 150.748C79.6971 152.064 79.9824 153.369 80.564 154.551C81.4656 153.623 82.1169 152.483 82.4575 151.237C82.6879 149.63 82.1769 148.871 81.4556 148.741C80.7343 148.612 79.9628 149.141 79.7324 150.748Z" fill="#C9DEFF"/>
<path d="M82.8784 155.679C83.0491 156.972 83.5378 158.203 84.301 159.263C85.0416 158.184 85.5028 156.939 85.6435 155.639C85.6435 154.012 85.0023 153.363 84.2309 153.373C83.4595 153.383 82.8784 154.052 82.8784 155.679Z" fill="#C9DEFF"/>
<path d="M86.7353 160.181C86.9002 161.477 87.3856 162.712 88.148 163.775C88.8878 162.691 89.3489 161.444 89.4904 160.141C89.4904 158.514 88.8493 157.875 88.0878 157.885C87.3264 157.895 86.7153 158.554 86.7353 160.181Z" fill="#C9DEFF"/>
<path d="M90.7729 164.394C90.9496 165.679 91.4379 166.902 92.1956 167.957C92.9311 166.872 93.3917 165.625 93.5381 164.324C93.5381 162.697 92.8869 162.048 92.1255 162.058C91.364 162.068 90.7529 162.766 90.7729 164.394Z" fill="#C9DEFF"/>
<path d="M66.7682 138.29C67.9877 138.459 69.2299 138.271 70.3448 137.751C70.3448 137.751 68.9423 135.755 67.4896 135.316C66.0369 134.876 65.2955 135.386 65.1052 136.204C64.9148 137.023 65.3256 137.871 66.7682 138.29Z" fill="#C9DEFF"/>
<path d="M70.1345 144.589C71.2682 144.604 72.3831 144.3 73.3505 143.711C72.6063 142.826 71.6324 142.163 70.5353 141.794C69.1727 141.554 68.5316 142.083 68.4314 142.862C68.3312 143.641 68.782 144.349 70.1345 144.589Z" fill="#C9DEFF"/>
<path d="M73.0899 150.419C74.5626 150.149 76.0955 148.302 76.0955 148.302C76.0955 148.302 74.0917 147.124 72.609 147.404C71.1263 147.683 70.6053 148.462 70.7756 149.291C70.9459 150.119 71.6172 150.698 73.0899 150.419Z" fill="#C9DEFF"/>
<path d="M75.9552 154.571C77.428 154.302 78.9608 152.455 78.9608 152.455C78.9608 152.455 76.9571 151.277 75.4744 151.557C73.9916 151.836 73.5207 152.615 73.641 153.443C73.7612 154.272 74.4925 154.851 75.9552 154.571Z" fill="#C9DEFF"/>
<path d="M79.2316 158.814C80.7144 158.664 82.3975 156.947 82.3975 156.947C81.3901 156.238 80.2026 155.826 78.9712 155.759C77.4884 155.909 76.9675 156.657 77.0276 157.496C77.0877 158.334 77.7489 158.973 79.2316 158.814Z" fill="#C9DEFF"/>
<path d="M82.7277 163.186C84.2105 163.036 85.8936 161.319 85.8936 161.319C84.8862 160.61 83.6987 160.198 82.4672 160.131C80.9845 160.281 80.4635 161.029 80.5237 161.878C80.5838 162.726 81.245 163.335 82.7277 163.186Z" fill="#C9DEFF"/>
<path d="M99.9801 168.806C99.9801 168.806 102.986 161.389 100.792 157.506C98.5975 153.623 94.6602 155.18 96.2031 151.417C97.7459 147.653 98.8279 144.13 94.3997 142.153C89.9715 140.177 88.7894 139.867 89.0098 136.513C89.2302 133.159 89.4205 128.947 85.5133 130.015C81.6061 131.083 79.1014 138.999 79.2818 144.639C79.4621 150.279 82.8884 154.681 82.4176 157.416C81.9467 160.151 81.6361 160.82 78.5705 160.97C75.5048 161.119 74.6833 166.17 80.3237 171.65C85.9641 177.131 95.2313 179.826 95.2313 179.826L99.9801 168.806Z" fill="url(#paint0_linear_3223_4712)"/>
<path d="M97.3149 174.466C97.3149 174.416 92.9569 170.133 88.4786 161.429C88.4786 161.429 88.4786 161.429 88.4786 161.379C88.4185 158.065 91.8248 149.57 91.8548 149.48C91.8671 149.439 91.8649 149.395 91.8485 149.355C91.8321 149.315 91.8025 149.282 91.7647 149.261C91.7466 149.251 91.7265 149.245 91.706 149.244C91.6854 149.243 91.6648 149.246 91.6457 149.254C91.6265 149.261 91.6093 149.273 91.5953 149.288C91.5812 149.303 91.5706 149.321 91.5643 149.341C91.424 149.67 88.3884 157.246 88.178 160.88C88.1607 160.834 88.1371 160.79 88.1079 160.75C83.5395 151.596 84.8819 138.67 84.8819 138.54C84.8854 138.497 84.8731 138.454 84.8474 138.419C84.8216 138.384 84.7841 138.36 84.7417 138.35C84.7217 138.346 84.7011 138.346 84.6811 138.35C84.6612 138.355 84.6425 138.363 84.6263 138.376C84.61 138.388 84.5967 138.404 84.5872 138.422C84.5778 138.44 84.5723 138.46 84.5714 138.48C84.5714 138.61 83.2088 151.636 87.8474 160.88C88.9286 163.058 90.1259 165.177 91.4341 167.228C88.5187 168.007 84.9921 165.232 84.9621 165.232C84.948 165.217 84.931 165.205 84.912 165.197C84.893 165.188 84.8726 165.184 84.8519 165.184C84.8312 165.184 84.8107 165.188 84.7918 165.197C84.7728 165.205 84.7557 165.217 84.7417 165.232C84.7128 165.263 84.6968 165.304 84.6968 165.347C84.6968 165.389 84.7128 165.43 84.7417 165.462C85.2107 165.83 85.7063 166.164 86.2244 166.46C87.597 167.218 89.6908 168.067 91.5843 167.518C93.1669 170.083 95.0027 172.484 97.0645 174.685C97.0913 174.707 97.125 174.719 97.1597 174.719C97.1944 174.719 97.228 174.707 97.2548 174.685C97.2734 174.675 97.2897 174.661 97.3027 174.644C97.3158 174.627 97.3255 174.608 97.331 174.588C97.3366 174.567 97.3381 174.546 97.3353 174.525C97.3326 174.504 97.3256 174.484 97.3149 174.466Z" fill="#C9DEFF"/>
<path d="M95 80L225 125.169V226.269C225 230.463 222.805 234.49 218.337 237.621C207.749 245.034 188.214 244.748 174.918 236.991L106.705 198.693C98.4205 193.859 94.4464 187.223 95.1779 181.11H95V80Z" fill="url(#paint1_linear_3223_4712)"/>
<path d="M106.627 97.2679L174.872 135.933C188.175 143.765 207.718 144.054 218.311 136.569C228.894 129.094 226.679 116.561 213.366 108.738L145.121 70.0633C131.818 62.2309 112.274 61.9526 101.681 69.4272C91.1084 76.9117 93.3239 89.4355 106.627 97.2679Z" fill="#80C1F9"/>
<path d="M121 143.526L130.46 138.334C134.334 136.316 139.41 136.512 144.976 139.441C157.139 145.837 167 162.745 167 177.213C167 184.825 164.257 190.203 159.902 192.7L150.542 198L121 143.526Z" fill="url(#paint2_linear_3223_4712)"/>
<path d="M150.765 198.477C159.849 193.813 160.837 177.703 152.972 162.493C145.106 147.284 131.366 138.734 122.282 143.398C113.197 148.062 112.209 164.172 120.075 179.382C127.94 194.591 141.68 203.141 150.765 198.477Z" fill="#CDE4FB"/>
<path d="M131 164.41C131 160.684 133.684 159.002 136.995 160.608C140.306 162.214 143 166.606 143 170.332C143 172.975 141.643 174.59 139.658 174.705V182.052C139.658 183.697 138.465 184.448 136.995 183.725C136.209 183.257 135.557 182.62 135.096 181.868C134.634 181.117 134.375 180.273 134.342 179.41V172.062C132.312 169.941 131.133 167.239 131 164.41Z" fill="#2A60B7"/>
<path d="M172 113L208 115.098V121.863C207.994 123.047 207.724 124.213 207.211 125.264C206.697 126.315 205.957 127.22 205.05 127.904C199.612 132.582 188.461 133.368 180.132 129.666C174.635 127.222 172 123.593 172 119.796V113Z" fill="url(#paint3_linear_3223_4712)"/>
<path d="M208.134 115.46C208.549 109.914 200.787 104.816 190.797 104.075C180.808 103.334 172.373 107.229 171.959 112.775C171.544 118.322 179.306 123.419 189.296 124.16C199.285 124.902 207.719 121.006 208.134 115.46Z" fill="#CDE4FB"/>
<path d="M110 78L144 79.7576V85.4624C143.997 86.4578 143.745 87.4382 143.267 88.3231C142.788 89.208 142.096 89.9721 141.247 90.5526C136.113 94.4903 125.583 95.153 117.716 92.0317C112.522 89.9764 110.04 86.9127 110.04 83.7145L110 78Z" fill="url(#paint4_linear_3223_4712)"/>
<path d="M143.811 79.8921C144.193 74.7853 137.045 70.0919 127.845 69.4091C118.646 68.7263 110.878 72.3127 110.496 77.4195C110.115 82.5264 117.263 87.2198 126.463 87.9025C135.662 88.5853 143.43 84.9989 143.811 79.8921Z" fill="#CDE4FB"/>
<path d="M120 40.6976C120 16.9066 144.191 9.56363 159.5 14.4163C186.665 23.0389 199 45.3633 199 78.1214V112.828C198.957 113.298 198.812 113.753 198.574 114.163C198.336 114.572 198.012 114.926 197.623 115.201C195.028 117.258 189.719 117.602 185.757 115.968C183.172 114.915 181.765 113.281 181.875 111.696V74.3416C181.875 54.3796 173.352 38.2466 158.113 31.8486C146.456 26.927 134.361 32.5278 134.361 46.8988V77.3437C134.336 77.745 134.22 78.1357 134.022 78.4867C133.823 78.8377 133.547 79.1401 133.213 79.3714C131.058 81.094 126.617 81.3401 123.303 80.0211C121.088 79.1155 119.97 77.6981 120.1 76.3496L120 40.6976Z" fill="#BCD6FA"/>
<path d="M159.751 14.8429C186.743 23.4296 199 45.6611 199 78.283V112.846C198.957 113.314 198.813 113.767 198.577 114.175C198.341 114.582 198.018 114.935 197.632 115.208C195.053 117.257 189.778 117.6 185.841 115.973C183.273 114.924 181.874 113.297 181.983 111.718V74.519C181.983 54.64 173.515 38.5741 158.372 32.2026C146.76 27.3211 144.539 10.0104 159.751 14.8429Z" fill="url(#paint5_linear_3223_4712)"/>
<path d="M120 40.4119C120 16.3697 135 32.1558 135 46.6786V77.4451C134.974 77.8506 134.853 78.2454 134.645 78.6001C134.437 78.9548 134.148 79.2604 133.799 79.4942C131.542 81.2349 126.894 81.4836 123.426 80.1507C121.107 79.2355 119.937 77.8032 120.073 76.4404L120 40.4119Z" fill="url(#paint6_linear_3223_4712)"/>
<path d="M217.245 90.6886C217.245 90.6886 216.245 92.7859 216.705 94.2134C216.873 94.7422 216.148 94.7862 215.52 94.8039C214.892 94.8215 213.141 94.8038 213.008 93.8169C212.946 93.297 214.919 90.5124 215.794 90.0365C216.67 89.5607 217.245 90.6886 217.245 90.6886Z" fill="#37475E"/>
<path d="M216.272 91.0675C216.272 91.0675 217.289 90.7855 217.218 91.4729C217.148 92.1602 216.599 92.3541 215.954 92.4158C215.308 92.4775 216.272 91.0675 216.272 91.0675Z" fill="#F6B2AD"/>
<path d="M229.786 148.628C229.786 148.628 232.837 151.166 232.015 151.932C231.192 152.699 229.963 152.902 228.362 151.932C226.761 150.963 225.364 149.289 226.124 148.504C226.885 147.72 227.619 146.742 229.786 148.628Z" fill="#37475E"/>
<path d="M233.721 126.703C233.721 126.703 229.052 147.42 228.981 148.337C228.91 149.253 228.441 149.623 227.398 149.218C226.354 148.813 226.513 147.738 226.425 145.693C226.337 143.649 226.239 129.673 226.239 129.673L233.721 126.703Z" fill="#F6B2AD"/>
<path d="M221.499 150.857C221.499 150.857 224.063 155.131 223.374 155.765C222.808 156.146 222.125 156.314 221.446 156.24C220.767 156.166 220.137 155.854 219.668 155.36C218.385 154.118 216.634 150.478 218.943 150.179C221.251 149.879 221.499 150.857 221.499 150.857Z" fill="#37475E"/>
<path d="M228.3 130.995C228.3 130.995 225.877 137.842 224.426 142.177C223.056 146.275 221.251 150.716 221.358 151.589C221.464 152.461 220.199 152.47 219.483 151.818C218.766 151.166 218.377 144.028 219.049 139.595C219.466 136.79 220.171 134.035 221.154 131.374L228.3 130.995Z" fill="#FEC6BD"/>
<path d="M219.73 118.808C220.58 119.594 221.639 120.12 222.781 120.324C224.833 120.755 233.615 122.685 233.898 126.756C234.164 130.598 221.446 133.753 219.199 133.639C216.953 133.524 209.214 132.185 205.128 129.779C200.901 127.285 204.536 118.323 204.536 118.323L219.73 118.808Z" fill="#2A60B7"/>
<path d="M221.693 131.242L237.02 125.293C237.286 125.197 237.321 125.02 237.109 124.915L226.31 119.46C226.025 119.354 225.711 119.354 225.425 119.46L210.001 125.901C209.762 125.998 209.754 126.166 210.001 126.272L220.897 131.233C221.154 131.324 221.434 131.327 221.693 131.242Z" fill="#37475E"/>
<path d="M221.897 107.969C222.247 109.65 222.774 111.289 223.471 112.86C224.249 114.146 226.752 119.433 226.752 119.433C226.752 119.433 228.052 120.209 228.211 121.108C228.371 122.007 228.601 122.623 227.619 122.87C226.637 123.117 225.328 121.108 225.178 120.077C225.028 119.046 220.322 114.076 219.695 112.877C219.067 111.679 217.864 108.418 217.864 108.418L221.897 107.969Z" fill="#FEC6BD"/>
<path d="M216.422 97.0774C216.422 97.0774 218.633 97.6854 220.898 101.906C221.839 103.759 222.618 105.691 223.224 107.678C223.284 107.845 223.279 108.028 223.211 108.191C223.142 108.354 223.014 108.486 222.852 108.559C222.065 108.93 220.57 109.635 219.314 110.172L216.422 97.0774Z" fill="#6DB3FA"/>
<path d="M212.434 95.5791C212.434 95.5791 214.503 95.7466 215.432 96.7511C216.36 97.7557 218.085 104.541 218.156 109.537C218.23 112.431 218.582 115.311 219.208 118.138C217.343 119.22 215.263 119.884 213.115 120.085C210.028 120.438 204.553 118.323 204.553 118.323C204.553 118.323 204.182 111.961 204.138 109.405C204.094 106.85 203.731 100.778 206.128 98.584C208.524 96.3898 208.94 95.3148 212.434 95.5791Z" fill="#6DB3FA"/>
<path d="M213.017 95.6321C214.285 96.8319 215.121 98.4144 215.396 100.135C216.269 103.842 216.831 107.615 217.077 111.414C217.43 116.772 217.643 119.865 217.643 119.865C218.516 119.545 219.335 119.097 220.075 118.535C220.241 115.873 220.259 113.205 220.128 110.542C219.951 104.171 217.634 98.1171 216.953 97.324C216.272 96.5309 213.017 95.6321 213.017 95.6321Z" fill="#FAE34D"/>
<path d="M208.348 96.6016C208.348 96.6016 209.232 97.3065 209.957 99.8532C210.683 102.4 211.85 110.234 212.222 113.151C212.593 116.067 213.301 121.443 213.301 121.443C213.301 121.443 207.649 122.007 203.864 119.398C203.864 119.398 202.979 105.299 203.086 103.898C203.192 102.497 204.297 99.4214 208.348 96.6016Z" fill="#FAE34D"/>
<path d="M207.348 113.062C207.348 113.062 207.693 117.345 207.702 117.742C207.711 118.138 214.892 123.822 216.316 124.263C217.74 124.703 219.562 125.62 219.146 126.148C218.605 126.668 217.882 126.956 217.13 126.95C216.306 126.625 215.52 126.211 214.786 125.717C214.158 125.311 214.088 124.677 213.734 124.395C213.38 124.113 207.101 121.601 205.465 119.918C203.828 118.235 202.811 114.173 202.528 111.564L207.348 113.062Z" fill="#FEC6BD"/>
<path d="M221.764 131.277L236.994 125.108C237.258 124.985 237.482 124.789 237.639 124.544L243.83 113.168C243.972 112.913 243.875 112.798 243.609 112.913L226.805 120.147C226.537 120.272 226.319 120.483 226.186 120.746L221.499 131.074C221.446 131.277 221.552 131.33 221.764 131.277Z" fill="#425970"/>
<path d="M217.077 89.1378C216.912 90.2601 216.649 91.3659 216.29 92.4423C215.733 94.046 214.963 95.6498 212.876 95.2533C212.876 95.2533 212.575 96.0464 212.31 96.6456C212.045 97.2448 210.223 97.3065 209.506 96.3195C208.79 95.3326 210.391 92.0281 210.391 92.0281C210.122 91.6273 209.969 91.1609 209.947 90.6794C209.925 90.198 210.036 89.7197 210.267 89.2964C210.655 88.5659 211.288 87.9946 212.056 87.6821C212.824 87.3696 213.678 87.3359 214.468 87.5868C216.387 88.0451 217.077 88.8293 217.077 89.1378Z" fill="#FEC6BD"/>
<path d="M211.691 90.4594C211.691 90.4594 211.452 89.3668 210.807 89.7016C210.161 90.0365 210.364 90.9705 210.727 91.464C210.727 91.464 210.232 93.3762 210.93 94.3808C211.629 95.3854 206.632 92.9356 207.596 89.8074C208.436 87.0668 211.505 85.0401 213.318 85.0401C213.99 84.9526 214.673 85.0087 215.321 85.2048C215.969 85.4008 216.568 85.7321 217.077 86.1768C218.607 87.2607 218.271 89.4637 218.059 90.389C217.847 91.3142 216.546 90.574 215.954 90.389C213.239 89.6135 213.301 88.6265 212.779 88.6265C212.257 88.6265 212.363 89.4549 212.08 90.0277C211.797 90.6004 211.691 90.4594 211.691 90.4594Z" fill="#37475E"/>
<path d="M204.589 113.397C202.82 113.274 201.723 112.869 201.67 112.155C201.617 111.441 202.289 103.607 203.855 101.29C205.42 98.972 206.128 99.7475 206.995 104.012C207.446 106.26 208.525 111.282 208.463 112.181C208.401 113.08 206.349 113.512 204.589 113.397Z" fill="#6DB3FA"/>
<path d="M40.6612 167.421L81 185.202L63.9007 223.186L26 193.61L40.6612 167.421Z" fill="#BCD6FA"/>
<path d="M40.6611 167.421L77.0843 188.891L80.9999 185.202L45.6932 164.403L40.6611 167.421Z" fill="#CDE4FB"/>
<path d="M26 193.611V223.186L61.1672 243.176V214.484L26 193.611Z" fill="#93C1F3"/>
<path d="M75.9677 188.073L61.167 214.484V243.176L80.4088 232.257L80.9998 185.202L75.9677 188.073Z" fill="#78B0EB"/>
<path d="M41.7696 171.331L71.9704 188.809L60.051 210.059L30.5151 192.498L41.7696 171.331Z" fill="white"/>
<path d="M68.6272 190.288L41.9536 174.944L40.3611 177.692L67.0347 193.036L68.6272 190.288Z" fill="#ACD4F7"/>
<path d="M65.7643 195.39L52.5981 187.816L51.0015 190.571L64.1677 198.145L65.7643 195.39Z" fill="#ACD4F7"/>
<path d="M63.5451 199.37L50.3789 191.796L46.1103 199.163L59.2764 206.737L63.5451 199.37Z" fill="#ACD4F7"/>
<path d="M44.8397 198.371L32.8628 191.508L38.9703 180.221L51.2755 187.255L44.8397 198.371Z" fill="#ACD4F7"/>
<path d="M43.7639 241.319L43.4355 247.175L41.3012 247.094L40.7266 241.278L43.7639 241.319Z" fill="#FEC6BD"/>
<path d="M43.436 247.176C44.5911 247.687 45.8038 248.058 47.0479 248.28C48.6487 248.484 48.6076 249.466 47.3352 249.629C46.0629 249.793 40.686 250.611 40.6039 249.22C40.5666 248.837 40.6093 248.45 40.7294 248.084C40.8495 247.718 41.0443 247.381 41.3017 247.094L43.436 247.176Z" fill="#30343A"/>
<path d="M32.7232 237.68L32.4523 242.628L30.6463 242.554L30.1538 237.639L32.7232 237.68Z" fill="#FEC6BD"/>
<path d="M32.4444 242.628C33.4208 243.06 34.4462 243.373 35.4981 243.56C36.8526 243.732 36.8198 244.566 35.7444 244.705C34.669 244.844 30.1213 245.523 30.0474 244.354C30.0171 244.029 30.0539 243.702 30.1556 243.393C30.2573 243.083 30.4216 242.798 30.6384 242.554L32.4444 242.628Z" fill="#30343A"/>
<path d="M48.6485 208.39C48.517 214.15 48.0923 219.899 47.3761 225.615C46.2679 233.631 45.0776 239.651 45.0366 241.368C44.152 241.927 43.1093 242.186 42.0649 242.104C39.9881 242.104 39.7828 241.368 39.7828 241.368C39.7828 241.368 38.1 227.333 37.9358 220.921C37.9358 220.921 30.4575 213.837 29.8418 205.495L46.8425 199.279L48.6485 208.39Z" fill="#2A60B7"/>
<path d="M37.9357 220.912C36.5653 223.99 35.5039 227.196 34.7671 230.482C34.0282 234.653 33.6588 237.925 33.6588 237.925C33.0116 238.315 32.2641 238.508 31.5081 238.481C30.8109 238.536 30.1172 238.339 29.5544 237.925C28.9332 232.851 28.6863 227.739 28.8156 222.63C29.1029 215.097 29.8417 205.454 29.8417 205.454L37.9357 220.912Z" fill="#255299"/>
<path d="M37.9357 220.912C36.5653 223.99 35.5039 227.196 34.7671 230.482C34.0282 234.653 33.6588 237.925 33.6588 237.925C32.9954 238.283 32.2543 238.474 31.4999 238.481C30.8095 238.498 30.1305 238.304 29.5544 237.925C28.9332 232.851 28.6863 227.739 28.8156 222.63C29.1029 215.097 29.8417 205.454 29.8417 205.454L37.9357 220.912Z" fill="url(#paint7_linear_3223_4712)"/>
<path d="M41.9912 173.498C41.9912 173.498 42.9188 174.381 43.2636 176.77C43.6084 179.158 42.8778 180.123 41.2606 180.189C40.7599 180.663 40.4187 181.28 40.2837 181.955C40.1456 182.678 40.2708 183.426 40.6367 184.065L37.8293 185.333L36.0972 183.755L36.5733 176.058L41.9912 173.498Z" fill="#FEC6BD"/>
<path d="M41.9582 175.845C42.378 175.126 42.8442 174.435 43.3537 173.776C44.1172 172.819 43.7067 170.063 43.7067 170.063C43.4519 170.348 43.1377 170.574 42.786 170.725C42.4344 170.876 42.0538 170.949 41.6709 170.938C40.3657 170.897 38.1903 170.161 36.5567 171.846C35.9313 172.541 35.5149 173.398 35.3552 174.318C35.1956 175.237 35.299 176.184 35.6537 177.048C35.9437 177.565 36.1723 178.114 36.3351 178.684C37.0778 178.481 37.8662 178.521 38.5843 178.798C39.4791 179.289 39.7746 179.019 40.4149 178.389C41.0552 177.759 41.4 177.359 41.4 177.359C41.4 177.359 40.0127 176.835 40.5299 175.854C41.047 174.872 41.9582 175.845 41.9582 175.845Z" fill="#37475E"/>
<path d="M65.6821 174.03C65.6821 174.03 68.2926 168.304 69.0971 168.623C69.9015 168.942 68.6374 170.84 68.6374 170.84C68.6374 170.84 69.409 171.764 69.7291 172.28C70.0493 172.795 69.6306 173.163 69.1956 173.915C68.7605 174.668 67.3075 176.59 67.3075 176.59L65.6821 174.03Z" fill="#FEC6BD"/>
<path d="M50.3479 185.39C49.5103 185.654 48.6288 185.75 47.754 185.672C46.8791 185.595 46.0282 185.347 45.2501 184.941C43.0912 183.984 33.7576 181.325 32.1158 181.293C30.474 181.26 28.8897 181.947 28.6598 184.098C28.43 186.249 29.8255 205.487 29.8255 205.487C29.8255 205.487 40.4479 209.944 45.2994 209.576C48.3531 209.355 49.0509 207.94 49.0509 207.94C49.0509 207.94 48.1643 200.309 48.936 197.447C49.7076 194.584 59.7061 187.681 61.783 185.808C63.8598 183.935 67.7427 177.735 68.4897 176.23C69.2367 174.725 66.4539 172.647 64.8449 174.373C63.236 176.099 60.174 179.502 56.4389 181.955C52.7039 184.409 52.1703 184.679 50.3479 185.39Z" fill="#6DB3FA"/>
<path d="M44.2895 193.889C44.1992 185.407 45.2499 184.941 45.2499 184.941C43.091 183.984 33.7574 181.325 32.1156 181.293C31.0111 182.658 30.2535 184.268 29.9074 185.988C29.3827 188.636 29.1079 191.328 29.0865 194.028C28.9633 198.068 29.3574 202.059 29.2999 204.53C29.2896 204.959 29.425 205.379 29.6843 205.722C29.9435 206.065 30.3114 206.31 30.7283 206.419C33.9708 207.18 41.523 209.862 45.2827 209.592C48.3365 209.372 49.0342 207.957 49.0342 207.957C48.7182 205.218 48.5838 202.461 48.632 199.704C48.632 199.704 44.3798 202.403 44.2895 193.889Z" fill="#FFD215"/>
<path d="M34.9397 181.841C34.5621 181.743 34.2173 181.661 33.8971 181.595C33.0762 181.407 31.7792 183.755 31.6643 186.904C31.5329 190.772 32.4852 206.869 32.4852 206.869L33.577 207.18C33.577 207.18 32.5591 190.371 32.9285 186.405C33.029 184.692 33.7427 183.073 34.9397 181.841Z" fill="#FCEDB4"/>
<path d="M43.0416 184.155L41.7528 183.746C41.7528 183.746 39.758 186.045 39.9222 191.893C39.9715 194.044 40.308 208.995 40.308 208.995L41.7856 209.298C41.7856 209.298 41.3998 196.8 41.3998 191.705C41.3998 186.609 43.0416 184.155 43.0416 184.155Z" fill="#FCEDB4"/>
<path d="M32.6411 202.19L40.7351 204.726V203.524L32.6411 200.996V202.19Z" fill="#FCEDB4"/>
<path d="M225.197 208.398L213.744 214.748C213.582 214.837 213.439 214.96 213.326 215.107C213.213 215.254 213.132 215.422 213.087 215.602C213.043 215.782 213.036 215.969 213.067 216.152C213.099 216.334 213.168 216.508 213.27 216.663L219.111 225.58C219.205 225.724 219.327 225.848 219.469 225.944C219.612 226.041 219.772 226.109 219.941 226.144C220.109 226.178 220.283 226.18 220.453 226.147C220.622 226.115 220.783 226.05 220.927 225.955L233.811 217.56L226.449 208.675C226.304 208.492 226.101 208.365 225.872 208.315C225.644 208.264 225.406 208.294 225.197 208.398Z" fill="url(#paint8_linear_3223_4712)"/>
<path d="M225.197 208.146L213.744 214.495C213.582 214.585 213.439 214.707 213.326 214.854C213.213 215.001 213.132 215.17 213.087 215.35C213.043 215.53 213.036 215.717 213.067 215.899C213.099 216.082 213.168 216.256 213.27 216.411L219.111 225.328C219.205 225.472 219.327 225.595 219.469 225.692C219.612 225.789 219.772 225.856 219.941 225.891C220.109 225.926 220.283 225.927 220.453 225.895C220.622 225.863 220.783 225.797 220.927 225.703L233.779 217.267L226.416 208.382C226.267 208.215 226.067 208.101 225.847 208.058C225.626 208.016 225.398 208.046 225.197 208.146Z" fill="url(#paint9_linear_3223_4712)"/>
<path d="M225.377 208.659L214.186 214.878C214.082 214.936 213.99 215.015 213.918 215.109C213.845 215.203 213.793 215.311 213.764 215.427C213.735 215.542 213.729 215.662 213.749 215.779C213.768 215.897 213.811 216.009 213.875 216.109L219.65 225.018C219.709 225.108 219.785 225.186 219.874 225.247C219.964 225.308 220.064 225.35 220.17 225.372C220.275 225.394 220.384 225.395 220.49 225.375C220.596 225.355 220.697 225.314 220.788 225.254L232.993 217.242L226.015 208.789C225.936 208.704 225.832 208.645 225.717 208.621C225.603 208.598 225.484 208.611 225.377 208.659Z" fill="url(#paint10_linear_3223_4712)"/>
<path d="M232.118 203.532C231.923 205.098 231.828 206.674 231.832 208.252C231.905 210.151 233.108 210.363 234.286 210.64L234.638 214.585L238.245 213.599C238.245 213.599 238.671 206.263 238.458 204.795C238.245 203.328 232.118 203.532 232.118 203.532Z" fill="#FEC6BD"/>
<path d="M232.74 205.113C232.43 204.521 232.008 203.995 231.496 203.564C230.76 203.002 231.005 202.228 232.388 201.592C234.376 200.87 236.545 200.807 238.572 201.413C240.511 202.081 241.027 204.127 241.084 205.04C241.141 205.953 240.053 206.67 239.775 207.485C239.497 208.3 239.382 209.93 238.712 210.126C238.041 210.322 236.028 210.582 235.562 210.126C235.155 209.57 234.846 208.95 234.646 208.292C234.646 208.292 235.284 207.412 234.891 206.988C234.498 206.564 233.549 206.743 233.443 207.2C233.337 207.656 234.327 209.914 233.836 210.794C233.345 211.675 231.75 210.688 231.75 210.199C231.75 209.71 232.486 209.564 232.74 208.854C233.072 207.629 233.072 206.338 232.74 205.113Z" fill="#37475E"/>
<path d="M233.558 214.658C233.558 214.658 232.429 212.612 231.398 212.017C230.368 211.422 229.28 211.732 229.141 212.155C229.002 212.579 232.634 215.114 232.634 215.114L233.558 214.658Z" fill="#FEC6BD"/>
<path d="M225.295 223.534L224.763 224.871L218.505 221.105C218.505 221.105 217.867 218.497 217.409 218.57C216.951 218.644 217.196 220.005 217.196 220.005C217.196 220.005 215.217 219.19 214.685 218.945C214.685 218.945 214.333 221.056 215.707 221.871C217.082 222.687 217.548 222.043 218.432 222.687C219.315 223.331 223.275 228.18 224.935 228.531C226.596 228.881 228.404 224.871 228.404 224.871L225.295 223.534Z" fill="#FEC6BD"/>
<path d="M227.831 238.157C227.943 243.115 228.309 248.063 228.927 252.984C229.876 259.888 230.907 265.063 230.94 266.547H235.464C235.464 266.547 236.912 254.467 237.059 248.933C237.059 248.933 243.489 242.836 244.021 235.655L229.385 230.3L227.831 238.157Z" fill="#2A60B7"/>
<path d="M237.035 248.933C238.214 251.582 239.123 254.343 239.751 257.173C240.389 260.768 240.708 263.588 240.708 263.588H244.242C244.777 259.219 244.99 254.816 244.88 250.416C244.635 243.895 243.996 235.655 243.996 235.655L237.035 248.933Z" fill="#255299"/>
<path d="M237.035 248.933C238.214 251.582 239.123 254.343 239.751 257.173C240.389 260.768 240.708 263.588 240.708 263.588H244.242C244.777 259.219 244.99 254.816 244.88 250.416C244.635 243.895 243.996 235.655 243.996 235.655L237.035 248.933Z" fill="url(#paint11_linear_3223_4712)"/>
<path d="M232.02 266.506L232.298 271.544L234.139 271.478L234.63 266.474L232.02 266.506Z" fill="#FEC6BD"/>
<path d="M232.298 271.552C231.302 271.992 230.255 272.309 229.181 272.497C227.807 272.676 227.84 273.524 228.936 273.663C230.032 273.801 234.662 274.478 234.736 273.312C234.765 272.982 234.727 272.649 234.623 272.333C234.519 272.018 234.351 271.727 234.131 271.478L232.298 271.552Z" fill="#30343A"/>
<path d="M241.526 263.368L241.763 267.631L243.317 267.574L243.735 263.335L241.526 263.368Z" fill="#FEC6BD"/>
<path d="M241.738 267.631C240.898 268.004 240.017 268.278 239.112 268.446C237.943 268.593 237.975 269.31 238.9 269.424C239.824 269.539 243.743 270.142 243.808 269.131C243.837 268.852 243.806 268.57 243.719 268.303C243.631 268.037 243.489 267.791 243.301 267.582L241.738 267.631Z" fill="#30343A"/>
<path d="M235.938 212.229C237.272 211.895 241.346 211.316 243.219 211.944C244.403 212.299 245.412 213.079 246.051 214.133C246.69 215.187 246.914 216.44 246.679 217.649C246.221 221.032 243.963 222.475 243.219 225.222C242.475 227.969 242.72 228.392 243.464 230.544C244.209 232.696 244.422 235.296 243.996 235.614C243.571 235.932 236.151 239.241 232.969 238.638C229.786 238.035 229.958 233.886 229.361 233.886C228.764 233.886 228.232 238.076 227.807 238.117C227.381 238.157 228.371 228.743 228.829 226.42L224.943 223.265C224.943 223.265 226.04 217.454 229.852 215.057C233.664 212.661 233.852 212.759 235.938 212.229Z" fill="#6DB3FA"/>
<path d="M232.969 238.679C229.787 238.084 229.958 233.927 229.361 233.927C228.764 233.927 228.232 238.117 227.807 238.157C227.382 238.198 228.371 228.784 228.83 226.461L233.648 221.807C233.648 221.807 236.151 239.282 232.969 238.679Z" fill="url(#paint12_linear_3223_4712)"/>
<path d="M113.345 107.698L115.318 106.56L115.258 131.695L113.285 132.843L113.345 107.698Z" fill="#BCD6FA"/>
<path d="M43.2446 67.8194L45.2083 66.6814L115.318 106.56L113.344 107.698L43.2446 67.8194Z" fill="#D9EEFF"/>
<path d="M113.344 107.698L113.284 132.843L43.1846 92.9643L43.2447 67.8193L113.344 107.698Z" fill="url(#paint13_linear_3223_4712)"/>
<path d="M54.3854 83.7108L52.3817 85.5375L55.5275 86.915V88.5421L52.3716 86.2961L54.3754 90.3489L53.0529 90.4387L51.8206 86.3959L50.4281 88.9713L49.1958 87.3942L51.1995 85.6373V85.5874L48.1138 84.2298V82.6027L51.1193 84.8587V84.8088L49.1958 80.7361L50.4781 80.6462L51.8206 84.7389L53.1331 82.1336L54.3854 83.7108Z" fill="#2A7CDD"/>
<path d="M63.0214 88.8017L61.0176 90.6284L64.1635 92.0858V93.7129L61.0277 91.427L63.0314 95.4198L61.7089 95.5097L60.4366 91.4969L59.0039 94.0822L57.8317 92.4851L59.8355 90.7282L56.7598 89.3607V87.6937L59.8355 89.9496L57.9119 85.8669L59.1943 85.7771L60.4466 89.8698L61.749 87.2744L63.0214 88.8017Z" fill="#2A7CDD"/>
<path d="M71.6575 93.9026L69.6538 95.7294L72.7996 97.1069V98.7739L69.6538 96.488L71.6575 100.541L70.3351 100.631L69.1228 96.5379L67.7302 99.1133L66.5581 97.5561L68.5618 95.7992L65.4761 94.4417V92.8046L68.4816 95.0706L66.5581 90.9979L67.8505 90.8381L69.1028 94.9308L70.4052 92.3255L71.6575 93.9026Z" fill="#2A7CDD"/>
<path d="M80.2935 98.9936L78.2898 100.82L81.4356 102.198V103.825L78.2998 101.539L80.3035 105.582L78.9911 105.672L77.7788 101.589L76.3863 104.164L75.2041 102.607L77.2078 100.85L74.1221 99.4927V97.8656L77.1276 100.122L75.2041 96.0488L76.4764 95.959L77.7287 100.052L79.0312 97.4563L80.2935 98.9936Z" fill="#2A7CDD"/>
<path d="M88.8893 104.064L86.8856 105.881V105.931L90.0314 107.309V108.936L86.8856 106.68L88.8893 110.733L87.5668 110.822L86.3546 106.73L84.8819 109.335L83.6997 107.768L85.7034 106.021L82.6177 104.653V103.026L85.6232 105.292V105.242L83.6997 101.17L85.0822 101.07L86.3346 105.153L87.647 102.547L88.8893 104.064Z" fill="#2A7CDD"/>
<path d="M97.5055 109.165L95.5018 110.992L98.6476 112.359V113.986L95.5118 111.711L97.5155 115.763L96.193 115.853L94.9007 111.86L93.5181 114.436L92.3359 112.878L94.3396 111.122V111.052L91.2539 109.694V108.067L94.2595 110.323V110.273L92.3359 106.2L93.6083 106.111L94.8606 110.203L96.163 107.608L97.5055 109.165Z" fill="#2A7CDD"/>
<path d="M105.981 114.196L103.977 116.023L107.133 117.4V119.027L103.997 116.742V116.791L106.001 120.844L104.678 120.934L103.466 116.841L102.074 119.417L100.901 117.86L102.905 116.103L99.8193 114.745V113.108L102.875 115.374L100.911 111.221L102.194 111.132L103.446 115.224L104.748 112.619L105.981 114.196Z" fill="#2A7CDD"/>
<path d="M153.295 243.671V247.544C153.706 252.466 162.472 256.319 173.172 256.209C183.871 256.099 192.528 252.046 192.818 247.115V243.242L153.295 243.671Z" fill="#FFD215"/>
<path opacity="0.06" d="M154.527 246.027L154.577 250.379C154.747 250.595 154.927 250.802 155.118 250.998L155.068 246.007L154.527 246.027Z" fill="black"/>
<path opacity="0.06" d="M156.822 246.007L156.892 252.406C157.062 252.526 157.243 252.625 157.433 252.735L157.353 245.997L156.822 246.007Z" fill="black"/>
<path opacity="0.06" d="M159.106 245.977L159.186 253.654L159.727 253.893L159.637 245.977H159.106Z" fill="black"/>
<path opacity="0.06" d="M161.39 245.957L161.48 254.542L162.021 254.712L161.931 245.948L161.39 245.957Z" fill="black"/>
<path opacity="0.06" d="M163.674 245.927L163.774 255.201L164.315 255.321L164.215 245.927H163.674Z" fill="black"/>
<path opacity="0.06" d="M165.958 245.907L166.069 255.66L166.61 255.74L166.499 245.897L165.958 245.907Z" fill="black"/>
<path opacity="0.06" d="M168.253 245.877L168.363 255.969L168.894 256.029L168.784 245.877H168.253Z" fill="black"/>
<path opacity="0.06" d="M170.537 245.818L170.647 256.109H171.188L171.058 245.818H170.537Z" fill="black"/>
<path opacity="0.06" d="M172.821 245.818L172.931 256.189H173.473L173.362 245.818H172.821Z" fill="black"/>
<path opacity="0.06" d="M175.065 245.818L175.186 256.149L175.717 256.099L175.647 245.818H175.065Z" fill="black"/>
<path opacity="0.06" d="M177.39 245.818L177.51 255.969L178.041 255.91L177.931 245.818H177.39Z" fill="black"/>
<path opacity="0.06" d="M179.684 245.758L179.784 255.6L180.325 255.51L180.215 245.748L179.684 245.758Z" fill="black"/>
<path opacity="0.06" d="M181.968 245.728L182.068 255.131L182.609 254.991L182.499 245.728H181.968Z" fill="black"/>
<path opacity="0.06" d="M184.252 245.708L184.353 254.472L184.884 254.282L184.793 245.698L184.252 245.708Z" fill="black"/>
<path opacity="0.06" d="M186.537 245.678L186.627 253.594L187.158 253.354L187.078 245.678H186.537Z" fill="black"/>
<path opacity="0.06" d="M188.821 245.658L188.901 252.396L189.432 252.056L189.362 245.648L188.821 245.658Z" fill="black"/>
<path opacity="0.06" d="M191.095 245.628V250.619C191.286 250.418 191.464 250.205 191.626 249.98V245.648L191.095 245.628Z" fill="black"/>
<path d="M173.197 252.625C184.119 252.505 192.927 248.297 192.871 243.226C192.815 238.154 183.916 234.14 172.995 234.259C162.073 234.379 153.265 238.587 153.321 243.659C153.377 248.73 162.276 252.745 173.197 252.625Z" fill="#FFDA00"/>
<g opacity="0.4">
<path opacity="0.4" d="M173.462 235.286V235.785C183.16 235.785 191.075 239.05 191.125 243.072C191.175 247.095 182.94 250.639 173.152 250.739H172.681C162.983 250.739 155.068 247.465 155.018 243.452C155.018 241.565 156.852 239.649 160.098 238.211C164.198 236.587 168.579 235.78 172.991 235.835H173.462V235.336V235.286ZM173.462 235.336H172.981C162.733 235.446 154.467 239.11 154.517 243.522C154.567 247.934 162.652 251.298 172.681 251.298H173.162C183.401 251.188 191.676 247.524 191.626 243.122C191.576 238.72 183.491 235.346 173.462 235.346V235.336Z" fill="white"/>
</g>
<path d="M148.546 237.363V241.226C148.947 246.147 157.723 250.01 168.423 249.89C179.123 249.77 187.819 245.728 188.09 240.826V236.963L148.546 237.363Z" fill="#FFD215"/>
<path opacity="0.06" d="M149.779 239.718L149.829 244.071C149.998 244.286 150.179 244.493 150.37 244.69V239.698L149.779 239.718Z" fill="black"/>
<path opacity="0.06" d="M152.023 239.689L152.093 246.097L152.634 246.427L152.564 239.689H152.023Z" fill="black"/>
<path opacity="0.06" d="M154.357 239.669L154.437 247.345L154.978 247.575L154.888 239.659L154.357 239.669Z" fill="black"/>
<path opacity="0.06" d="M156.641 239.639L156.731 248.223L157.272 248.403L157.172 239.639H156.641Z" fill="black"/>
<path opacity="0.06" d="M158.926 239.619L159.026 248.882L159.567 249.002L159.467 239.609L158.926 239.619Z" fill="black"/>
<path opacity="0.06" d="M161.21 239.589L161.32 249.341L161.851 249.431L161.751 239.589H161.21Z" fill="black"/>
<path opacity="0.06" d="M163.494 239.569L163.604 249.651L164.145 249.711L164.045 239.559L163.494 239.569Z" fill="black"/>
<path opacity="0.06" d="M165.788 239.539L165.898 249.831H166.429L166.319 239.499L165.788 239.539Z" fill="black"/>
<path opacity="0.06" d="M168.052 239.519L168.162 249.89H168.703L168.583 239.519H168.052Z" fill="black"/>
<path opacity="0.06" d="M170.357 239.489L170.467 249.821H171.008L170.898 239.529L170.357 239.489Z" fill="black"/>
<path opacity="0.06" d="M172.641 239.469L172.751 249.621L173.292 249.551L173.182 239.459L172.641 239.469Z" fill="black"/>
<path opacity="0.06" d="M174.925 239.439L175.035 249.291L175.576 249.192L175.466 239.439H174.925Z" fill="black"/>
<path opacity="0.06" d="M177.219 239.419L177.319 248.812L177.85 248.683L177.75 239.409L177.219 239.419Z" fill="black"/>
<path opacity="0.06" d="M179.503 239.389L179.594 248.163L180.135 247.974L180.034 239.389H179.503Z" fill="black"/>
<path opacity="0.06" d="M181.788 239.369L181.878 247.285L182.409 247.035L182.329 239.359L181.788 239.369Z" fill="black"/>
<path opacity="0.06" d="M184.082 239.349L184.162 246.077C184.333 245.967 184.523 245.858 184.693 245.738L184.623 239.339L184.082 239.349Z" fill="black"/>
<path opacity="0.06" d="M186.356 239.319L186.417 244.31C186.607 244.101 186.777 243.881 186.948 243.672L186.897 239.329L186.356 239.319Z" fill="black"/>
<path d="M168.449 246.309C179.371 246.189 188.179 241.981 188.123 236.909C188.067 231.838 179.168 227.823 168.247 227.943C157.325 228.063 148.517 232.271 148.573 237.343C148.629 242.414 157.528 246.429 168.449 246.309Z" fill="#FFDA00"/>
<g opacity="0.4">
<path opacity="0.4" d="M168.714 228.978V229.477C178.402 229.477 186.326 232.741 186.367 236.754C186.407 240.767 178.181 244.32 168.403 244.43H167.932C158.234 244.43 150.31 241.166 150.27 237.153C150.23 233.14 158.455 229.577 168.233 229.477H168.714V228.978ZM168.714 228.978H168.233C157.984 229.088 149.719 232.751 149.769 237.153C149.819 241.555 157.904 244.929 167.932 244.929H168.403C178.652 244.819 186.918 241.156 186.867 236.754C186.817 232.352 178.732 228.978 168.714 228.978Z" fill="white"/>
</g>
<path d="M160.088 229.467V233.34C160.489 238.261 169.265 242.114 179.965 242.004C190.664 241.895 199.32 237.842 199.611 232.911V229.038L160.088 229.467Z" fill="#FFD215"/>
<path opacity="0.06" d="M161.32 231.843L161.37 236.195C161.539 236.411 161.72 236.617 161.911 236.814L161.861 231.823L161.32 231.843Z" fill="black"/>
<path opacity="0.06" d="M163.604 231.843L163.674 238.241C163.844 238.361 164.035 238.461 164.215 238.571L164.145 231.843H163.604Z" fill="black"/>
<path opacity="0.06" d="M165.898 231.773L165.979 239.449L166.52 239.679L166.429 231.773H165.898Z" fill="black"/>
<path opacity="0.06" d="M168.183 231.753L168.273 240.338L168.814 240.507L168.714 231.743L168.183 231.753Z" fill="black"/>
<path opacity="0.06" d="M170.467 231.723L170.567 240.986L171.108 241.116L170.998 231.723H170.467Z" fill="black"/>
<path opacity="0.06" d="M172.751 231.703L172.861 241.455L173.392 241.535L173.292 231.693L172.751 231.703Z" fill="black"/>
<path opacity="0.06" d="M175.065 231.673L175.176 241.765L175.717 241.825L175.606 231.673H175.065Z" fill="black"/>
<path opacity="0.06" d="M177.33 231.653L177.44 241.945H177.971L177.861 231.613L177.33 231.653Z" fill="black"/>
<path opacity="0.06" d="M179.614 231.623L179.724 241.994H180.265L180.145 231.623H179.614Z" fill="black"/>
<path opacity="0.06" d="M181.898 231.603L182.008 241.934L182.549 241.885L182.429 231.593L181.898 231.603Z" fill="black"/>
<path opacity="0.06" d="M184.182 231.573L184.292 241.725L184.833 241.665L184.723 231.573H184.182Z" fill="black"/>
<path opacity="0.06" d="M186.466 231.553L186.577 241.396L187.118 241.306L187.007 231.543L186.466 231.553Z" fill="black"/>
<path opacity="0.06" d="M188.761 231.523L188.861 240.916L189.392 240.787L189.292 231.523H188.761Z" fill="black"/>
<path opacity="0.06" d="M191.095 231.503L191.185 240.267L191.726 240.078L191.626 231.493L191.095 231.503Z" fill="black"/>
<path opacity="0.06" d="M193.329 231.473L193.419 239.389L193.95 239.15L193.86 231.473H193.329Z" fill="black"/>
<path opacity="0.06" d="M195.613 231.453L195.683 238.191L196.224 237.852L196.154 231.443L195.613 231.453Z" fill="black"/>
<path opacity="0.06" d="M197.897 231.423L197.958 236.414C198.148 236.205 198.318 235.995 198.489 235.776V231.443L197.897 231.423Z" fill="black"/>
<path d="M179.983 238.427C190.905 238.307 199.713 234.099 199.657 229.027C199.601 223.956 190.702 219.941 179.78 220.061C168.859 220.181 160.05 224.389 160.106 229.461C160.162 234.532 169.061 238.547 179.983 238.427Z" fill="#FFDD00"/>
<g opacity="0.4">
<path opacity="0.4" d="M180.255 221.082V221.581C189.943 221.581 197.867 224.845 197.908 228.868C197.948 232.891 189.722 236.434 179.944 236.534H179.473C169.775 236.534 161.851 233.26 161.811 229.247C161.771 225.235 169.996 221.681 179.774 221.571H180.255V221.072V221.082ZM180.255 221.072H179.774C169.525 221.182 161.26 224.845 161.31 229.257C161.36 233.669 169.445 237.033 179.473 237.033H179.944C190.193 236.924 198.459 233.26 198.408 228.858C198.358 224.456 190.273 221.082 180.255 221.082V221.072Z" fill="white"/>
</g>
<defs>
<linearGradient id="paint0_linear_3223_4712" x1="75.5026" y1="145.239" x2="106.831" y2="160.421" gradientUnits="userSpaceOnUse">
<stop stop-color="#CDEAFF"/>
<stop offset="1" stop-color="#F4FAFF"/>
</linearGradient>
<linearGradient id="paint1_linear_3223_4712" x1="224.97" y1="161.498" x2="95" y2="161.498" gradientUnits="userSpaceOnUse">
<stop stop-color="#80B6EA"/>
<stop offset="0.15" stop-color="#609FF7"/>
<stop offset="1" stop-color="#68A1EE"/>
</linearGradient>
<linearGradient id="paint2_linear_3223_4712" x1="132.903" y1="133.299" x2="162.664" y2="196.37" gradientUnits="userSpaceOnUse">
<stop stop-color="#A6CBF5"/>
<stop offset="0.48" stop-color="#BCD6FA"/>
<stop offset="0.97" stop-color="#A9CDF5"/>
<stop offset="1" stop-color="#A8CCF5"/>
</linearGradient>
<linearGradient id="paint3_linear_3223_4712" x1="35186" y1="2331.44" x2="36503.9" y2="2331.44" gradientUnits="userSpaceOnUse">
<stop stop-color="#A6CBF5"/>
<stop offset="0.48" stop-color="#BCD6FA"/>
<stop offset="0.97" stop-color="#A9CDF5"/>
<stop offset="1" stop-color="#A8CCF5"/>
</linearGradient>
<linearGradient id="paint4_linear_3223_4712" x1="35390.4" y1="1359.76" x2="36536.2" y2="1359.76" gradientUnits="userSpaceOnUse">
<stop stop-color="#A6CBF5"/>
<stop offset="0.48" stop-color="#BCD6FA"/>
<stop offset="0.97" stop-color="#A9CDF5"/>
<stop offset="1" stop-color="#A8CCF5"/>
</linearGradient>
<linearGradient id="paint5_linear_3223_4712" x1="244.229" y1="115.865" x2="168.604" y2="85.8627" gradientUnits="userSpaceOnUse">
<stop offset="0.103686" stop-color="#80C1F9"/>
<stop offset="1" stop-color="#80C1F9" stop-opacity="0"/>
</linearGradient>
<linearGradient id="paint6_linear_3223_4712" x1="157.343" y1="61.9474" x2="131.238" y2="55.1648" gradientUnits="userSpaceOnUse">
<stop stop-color="#80C1F9"/>
<stop offset="1" stop-color="#80C1F9" stop-opacity="0"/>
</linearGradient>
<linearGradient id="paint7_linear_3223_4712" x1="37.279" y1="219.996" x2="32.5292" y2="221.511" gradientUnits="userSpaceOnUse">
<stop stop-color="#133E8D" stop-opacity="0.4"/>
<stop offset="1" stop-color="#133E8D" stop-opacity="0"/>
</linearGradient>
<linearGradient id="paint8_linear_3223_4712" x1="234.752" y1="219.801" x2="214.872" y2="215.418" gradientUnits="userSpaceOnUse">
<stop stop-color="#6CB0F8"/>
<stop offset="1" stop-color="#3380E5"/>
</linearGradient>
<linearGradient id="paint9_linear_3223_4712" x1="213.082" y1="216.965" x2="233.811" y2="216.965" gradientUnits="userSpaceOnUse">
<stop stop-color="#70ACF7"/>
<stop offset="1" stop-color="#BFDDFB"/>
</linearGradient>
<linearGradient id="paint10_linear_3223_4712" x1="-26813.9" y1="3636.61" x2="-26358.9" y2="3636.61" gradientUnits="userSpaceOnUse">
<stop stop-color="#E3F0FD"/>
<stop offset="1" stop-color="#F0F7FD"/>
</linearGradient>
<linearGradient id="paint11_linear_3223_4712" x1="237.599" y1="248.118" x2="241.687" y2="249.422" gradientUnits="userSpaceOnUse">
<stop stop-color="#133E8F" stop-opacity="0.4"/>
<stop offset="1" stop-color="#133E8F" stop-opacity="0"/>
</linearGradient>
<linearGradient id="paint12_linear_3223_4712" x1="71616.2" y1="3905.53" x2="71586.9" y2="3911.2" gradientUnits="userSpaceOnUse">
<stop stop-color="#133E8F" stop-opacity="0.4"/>
<stop offset="1" stop-color="#133E8F" stop-opacity="0"/>
</linearGradient>
<linearGradient id="paint13_linear_3223_4712" x1="43.1846" y1="100.331" x2="113.344" y2="100.331" gradientUnits="userSpaceOnUse">
<stop stop-color="#EFF9FF"/>
<stop offset="1" stop-color="white"/>
</linearGradient>
</defs>
</svg>
