<svg width="280" height="280" viewBox="0 0 280 280" fill="none" xmlns="http://www.w3.org/2000/svg">
<path d="M160.255 224.51C221.699 224.51 271.51 174.699 271.51 113.255C271.51 51.8106 221.699 2 160.255 2C98.8106 2 49 51.8106 49 113.255C49 174.699 98.8106 224.51 160.255 224.51Z" fill="url(#paint0_linear_3223_4708)"/>
<path d="M119.703 208.13C110.937 206.224 107.726 201.46 107.726 190.597V167.241L26.9302 148.841V233.439L121.266 254.088L145.489 213.685L119.703 208.13Z" fill="url(#paint1_linear_3223_4708)"/>
<path d="M203.968 229.627L209.17 183.888C205.442 183.004 201.528 183.338 198.003 184.841L118.732 215.057L126.984 268.638L203.968 229.627Z" fill="url(#paint2_linear_3223_4708)"/>
<path d="M160.973 263.531L145.822 258.785L172.103 245.502L187.263 250.257L160.973 263.531Z" fill="url(#paint3_linear_3223_4708)"/>
<path d="M240.434 134.414L120.771 107.943C117.042 107.059 113.128 107.393 109.603 108.896L30.332 139.131L163.451 173.435L180.345 195.637L175.905 259.586L169.235 275.785L249.277 245.293C258.463 242.805 265 232.905 265 219.565V171.12C264.981 153.872 253.966 137.406 240.434 134.414Z" fill="url(#paint4_linear_3223_4708)"/>
<path d="M240.434 134.414L120.771 107.943C117.042 107.059 113.128 107.393 109.603 108.896L30.332 139.131L163.451 173.435L180.345 195.637L175.905 259.586L169.235 275.785L249.277 245.293C258.463 242.805 265 232.905 265 219.565V171.12C264.981 153.872 253.966 137.406 240.434 134.414Z" fill="url(#paint5_linear_3223_4708)"/>
<path d="M159.21 165.64L39.5464 139.169C25.9773 136.168 15 147.764 15 165.04V213.561C15 230.789 25.9773 247.227 39.5464 250.219L120.409 268.104L124.735 269.057C126.917 269.534 128.689 267.676 128.689 264.903V221.594C128.689 218.993 127.031 216.515 124.992 216.067L120.151 214.99C118.112 214.543 116.454 216.286 116.454 218.888V251.658L42.2812 235.249C33.9911 233.419 27.2446 223.328 27.2446 212.761V170.977C27.2446 160.409 33.9911 153.31 42.2812 155.14L156.78 180.467C165.08 182.306 171.826 192.397 171.826 202.955V244.749C171.826 255.317 165.08 262.416 156.78 260.586L147.737 258.585C145.67 258.128 143.993 259.891 143.993 262.53V268.543C143.993 271.182 145.67 273.698 147.737 274.155L159.172 276.69C172.703 279.682 183.719 268.114 183.719 250.857V202.336C183.757 185.098 172.722 168.632 159.21 165.64Z" fill="#D3E6FF"/>
<path d="M59.3093 197.844L38.584 206.305V180.806L59.2998 172.335L59.3093 197.844Z" fill="#70A1E8"/>
<path fill-rule="evenodd" clip-rule="evenodd" d="M64.0928 175.177L83.3453 167.899V169.805L64.0928 177.083V175.177Z" fill="#5B99E7"/>
<path fill-rule="evenodd" clip-rule="evenodd" d="M64.0928 179.941L83.3453 172.663V174.569L64.0928 181.847V179.941Z" fill="#5B99E7"/>
<path fill-rule="evenodd" clip-rule="evenodd" d="M64.0928 184.706L91.2236 174.111V176.017L64.0928 186.611V184.706Z" fill="#5B99E7"/>
<path fill-rule="evenodd" clip-rule="evenodd" d="M64.0928 189.928L91.2236 179.333V181.239L64.0928 191.834V189.928Z" fill="#5B99E7"/>
<path d="M59.0138 170.839L38.8602 179.072C37.9619 179.548 37.4035 180.485 37.4117 181.502V206.277C37.4117 207.23 38.0693 207.801 38.8793 207.477L59.0328 199.235C59.9257 198.771 60.4873 197.849 60.4908 196.843V172.068C60.4812 171.077 59.8237 170.543 59.0138 170.839ZM58.2896 193.079C56.4244 194.059 55.2491 195.985 55.2308 198.091L42.6622 203.237C42.6622 201.16 41.2901 200.026 39.6034 200.721V185.275C41.4686 184.295 42.644 182.37 42.6622 180.263L55.2404 175.127C55.2404 177.214 56.6125 178.338 58.2991 177.642L58.2896 193.079Z" fill="#8CC0F9"/>
<path d="M54.7356 184.446L48.942 194.346L43.1484 189.191L45.0733 185.608L52.8107 182.445L54.7356 184.446Z" fill="#A9CEFF"/>
<path d="M45.0733 185.608L43.1484 189.191L47.0076 187.609L45.0733 185.608Z" fill="#8CC0F9"/>
<path d="M48.9419 184.027L47.0076 187.61L50.8763 186.028L48.9419 184.027Z" fill="#8CC0F9"/>
<path d="M52.8106 182.445L50.8762 186.028L54.7354 184.446L52.8106 182.445Z" fill="#8CC0F9"/>
<path d="M48.9419 194.347L50.8763 186.028L54.7355 184.446L48.9419 194.347Z" fill="#81B7F2"/>
<path d="M48.942 194.347L43.1484 189.191L47.0076 187.61L48.942 194.347Z" fill="#81B7F2"/>
<path d="M48.9419 194.346L47.0076 187.609L50.8763 186.028L48.9419 194.346Z" fill="#A9CEFF"/>
<path d="M66.6656 197.438C66.6656 197.438 68.5713 196.486 68.8953 196.19C69.2193 195.895 68.8953 195.914 68.5809 196C68.2664 196.085 67.9615 196.238 67.9234 196C67.8853 195.761 69.2955 194.265 69.0573 194.094C68.8191 193.922 68.1044 194.97 67.9901 194.932C67.8757 194.894 68.943 193.532 68.7333 193.379C68.5237 193.227 67.6566 194.713 67.5232 194.637C67.3898 194.561 68.3331 193.398 68.1235 193.293C67.9138 193.189 67.1039 194.675 66.9705 194.627C66.8371 194.58 67.466 193.398 67.2754 193.37C67.0848 193.341 66.2463 194.789 66.1034 195.59C66.0351 196.037 65.89 196.469 65.6746 196.867L66.6656 197.438Z" fill="#FEC6BD"/>
<path d="M80.2919 206.015C80.473 202.851 79.9489 198.001 75.1749 198.01C70.9727 198.01 71.0013 203.337 71.0013 203.337C71.0131 204.521 70.6568 205.68 69.9817 206.653C69.9817 206.653 80.1204 208.721 80.2919 206.015Z" fill="#181F3D"/>
<path d="M60.6434 258.147C60.6434 258.147 55.7932 259.567 55.7932 261.006C55.7932 262.445 62.7017 259.7 62.7017 259.7V258.176L60.6434 258.147Z" fill="#181F3D"/>
<path d="M58.8139 238.613C58.185 244.702 60.6434 258.147 60.6434 258.147H62.6826C62.6826 258.147 62.1776 248.313 62.311 240.604C67.2755 236.631 59.4333 232.524 58.8139 238.613Z" fill="#FEC6BD"/>
<path d="M64.1405 239.499C63.5211 245.588 67.1898 258.919 67.1898 258.919H69.2385C69.2385 258.919 68.7334 249.094 68.8573 241.386C73.8314 237.46 64.7599 233.41 64.1405 239.499Z" fill="#FEC6BD"/>
<path d="M58.2517 237.002C58.0706 238.489 57.8419 241.357 57.861 242.662C57.861 242.662 70.6392 247.131 71.049 242.186C83.8463 237.212 84.7134 233.858 83.7224 229.884C83.2459 227.762 82.4931 225.712 81.4831 223.786H70.4201C70.4201 223.786 58.69 233.515 58.2517 237.002Z" fill="#133E90"/>
<path d="M64.512 229.875L77.8239 230.504L73.8408 235.478L60.0334 234.83L64.512 229.875Z" fill="#D1DEEE"/>
<path d="M82.0167 210.455C80.7294 209.07 79.0019 208.175 77.1284 207.92C76.0475 207.768 74.9505 207.768 73.8695 207.92L62.3015 207.444L66.7229 197.439L65.77 196.781C65.77 196.781 57.8705 204.214 57.9849 208.988C58.0802 212.885 65.9129 214.257 68.7906 214.629C68.9136 217.744 69.4749 220.827 70.4582 223.786H81.4831C81.4831 223.786 81.6832 222.499 81.9024 220.718L83.5985 224.367L77.0712 229.56L78.2433 231.142C78.2433 231.142 86.2666 228.017 88.0104 226.273C88.7632 225.52 88.22 223.586 88.0104 222.728C87.5278 220.608 86.8153 218.547 85.8855 216.582C84.9475 214.338 83.6398 212.267 82.0167 210.455Z" fill="#1969E6"/>
<path d="M79.949 215.543L78.6245 223.814H81.4832C81.4832 223.814 81.6833 222.528 81.9025 220.746L79.949 215.543Z" fill="url(#paint6_linear_3223_4708)"/>
<path d="M57.356 225.167L68.9813 225.53C69.7354 225.531 70.4085 226.003 70.6679 226.711L73.841 235.478L60.0336 234.83L56.6318 226.206C56.5446 225.969 56.5786 225.705 56.7229 225.498C56.8673 225.291 57.1037 225.167 57.356 225.167Z" fill="#B2C6DA"/>
<path d="M76.7093 205.462C76.5368 206.263 76.5663 207.095 76.795 207.882C76.795 207.882 75.947 208.921 75.0036 208.835C73.8697 208.74 73.9745 207.949 73.9745 207.949C74.2838 207.083 74.4448 206.171 74.4509 205.252C74.4509 205.252 76.8046 204.633 76.7093 205.462Z" fill="#FEC6BD"/>
<path d="M76.7093 205.462C76.5368 206.263 76.5663 207.095 76.795 207.882C76.795 207.882 75.947 208.921 75.0036 208.835C73.8697 208.74 73.9745 207.949 73.9745 207.949C74.2838 207.083 74.4448 206.171 74.4509 205.252C74.4509 205.252 76.8046 204.633 76.7093 205.462Z" fill="url(#paint7_linear_3223_4708)"/>
<path d="M75.0226 199.859C73.5603 199.885 72.3915 201.083 72.4022 202.546C72.4022 204.328 73.0501 206.805 75.0226 206.71C77.281 206.605 77.7288 204.928 77.8051 202.641C77.8311 201.907 77.5556 201.194 77.0426 200.669C76.5296 200.143 75.8238 199.85 75.0893 199.859H75.0226Z" fill="#FEC6BD"/>
<path d="M67.1896 258.843C67.1896 258.843 62.3489 260.262 62.3489 261.701C62.3489 263.14 69.2573 260.329 69.2573 260.329L69.2097 258.814L67.1896 258.843Z" fill="#181F3D"/>
<path d="M76.8901 203.508C76.8901 203.987 77.2784 204.375 77.7573 204.375C78.2362 204.375 78.6244 203.987 78.6244 203.508C78.6244 203.029 78.2362 202.641 77.7573 202.641C77.2784 202.641 76.8901 203.029 76.8901 203.508Z" fill="#FEC6BD"/>
<path d="M77.0712 229.56C75.9957 229.448 74.916 229.729 74.0315 230.351C73.3168 230.961 73.879 231.218 74.2125 230.99C74.5505 230.853 74.9185 230.807 75.2797 230.856C74.8786 231.347 74.3909 231.761 73.8409 232.076C72.8308 232.695 73.3263 233.743 75.0701 233.181C76.2626 232.738 77.3451 232.043 78.2432 231.142L77.0712 229.56Z" fill="#FEC6BD"/>
<path d="M77.8049 202.641C76.372 201.962 75.099 200.988 74.0696 199.782C76.9949 198.639 78.2528 200.688 77.8049 202.641Z" fill="#181F3D"/>
<path d="M57.356 225.167L68.9812 225.53C69.7353 225.531 70.4085 226.003 70.6678 226.711L73.8409 235.478L70.5249 226.768C70.2401 226.162 69.6575 225.749 68.9907 225.682L57.356 225.167Z" fill="white"/>
<path d="M215.335 172.663C215.335 172.663 220.176 174.083 220.176 175.522C220.176 176.961 213.268 174.217 213.268 174.217V172.701L215.335 172.663Z" fill="#181F3D"/>
<path d="M209.504 173.816C209.504 173.816 214.354 175.245 214.354 176.675C214.354 178.104 207.436 175.369 207.436 175.369V173.845L209.504 173.816Z" fill="#181F3D"/>
<path d="M204.835 137.073C205.774 138.749 206.812 140.368 207.941 141.923C207.941 141.923 217.26 146.516 217.889 152.605C218.518 158.694 215.335 172.616 215.335 172.616H213.287C213.287 172.616 212.334 163.039 212.172 155.33C207.198 151.357 200.985 145.391 200.985 145.391V138.121L204.835 137.073Z" fill="#255299"/>
<path d="M204.835 137.073C205.774 138.749 206.812 140.368 207.941 141.923C207.941 141.923 217.26 146.516 217.889 152.605C218.518 158.694 215.335 172.616 215.335 172.616H213.287C213.287 172.616 212.334 163.039 212.172 155.33C207.198 151.357 200.985 145.391 200.985 145.391V138.121L204.835 137.073Z" fill="url(#paint8_linear_3223_4708)"/>
<path d="M206.883 147.631C209.157 149.915 210.648 152.86 211.143 156.045C212.096 163.992 209.523 173.816 209.523 173.816H207.484C207.484 173.816 205.425 162.753 204.93 156.664C192.123 151.69 191.256 148.336 192.247 144.353C192.73 142.236 193.482 140.189 194.486 138.264H205.321L207.941 141.904C207.941 141.904 206.15 146.84 206.883 147.631Z" fill="#2A60B7"/>
<path d="M205.33 139.036C205.33 139.036 204.425 139.827 204.377 140.303C204.329 140.779 205.33 141.942 205.721 141.494C206.015 140.911 206.224 140.288 206.34 139.645L205.33 139.036Z" fill="#E3ABA6"/>
<path d="M205.587 123.523C205.587 123.523 208.56 125.695 209.599 132.823C209.809 134.262 206.331 140.093 206.331 140.093L205.121 139.055L206.312 134.433L205.807 133.318L204.311 127.877C204.311 127.877 201.538 122.246 201.966 122.37C205.444 123.313 205.587 123.523 205.587 123.523Z" fill="#6DB3FA"/>
<path d="M207.693 133.442C208.046 135.148 206.311 134.395 206.311 134.395L205.806 133.28L205.978 127.849C205.978 127.849 206.616 128.182 207.693 133.442Z" fill="url(#paint9_linear_3223_4708)"/>
<path d="M194.486 138.264C194.486 138.264 194.658 127.306 194.438 125.524C195.147 124.254 196.251 123.25 197.583 122.665C198.986 122.158 200.499 122.033 201.966 122.303C201.966 122.303 205.959 126.115 205.978 127.858C206.007 131.335 205.787 134.809 205.32 138.254L194.486 138.264Z" fill="#6DB3FA"/>
<path d="M203.281 117.948C203.694 117.693 203.984 117.28 204.082 116.805C204.283 116.059 204.243 115.268 203.967 114.546C203.6 113.908 202.981 113.455 202.262 113.298C202.262 113.298 201.976 112.345 200.28 112.345C198.584 112.345 198.155 113.241 197.269 113.879C197.055 114.037 196.829 114.178 196.592 114.299C195.772 114.712 195.407 115.687 195.754 116.538C196.244 117.845 197.08 118.995 198.174 119.864C198.736 120.215 199.45 120.215 200.013 119.864L203.281 117.948Z" fill="#30343A"/>
<path d="M204.167 117.672C203.977 118.053 203.824 118.444 203.405 118.444C203.2 118.444 203.004 118.362 202.859 118.218C202.715 118.073 202.633 117.877 202.633 117.672C202.633 117.253 203.005 117.243 203.386 117.053C203.767 116.862 204.358 117.281 204.167 117.672Z" fill="#F2B0A9"/>
<path d="M199.403 119.578L199.165 122.351C199.589 122.706 200.126 122.898 200.68 122.894C201.166 122.939 201.647 122.769 201.995 122.427L201.509 119.73L199.403 119.578Z" fill="#FEC6BD"/>
<path d="M199.403 119.578L199.165 122.351C199.589 122.706 200.126 122.898 200.68 122.894C201.166 122.939 201.647 122.769 201.995 122.427L201.509 119.73L199.403 119.578Z" fill="url(#paint10_linear_3223_4708)"/>
<path d="M201.566 114.985C201.887 114.933 202.217 114.969 202.519 115.09C203.158 115.513 203.541 116.229 203.539 116.996C203.539 118.787 202.881 121.236 200.909 121.169C198.126 121.083 198.174 117.253 198.174 117.253C198.637 117.223 199.039 116.925 199.203 116.49C199.329 115.756 199.776 115.117 200.423 114.747C200.819 114.613 201.256 114.704 201.566 114.985Z" fill="#FEC6BD"/>
<path d="M199.089 117.987C199.089 118.465 198.701 118.854 198.222 118.854C197.736 118.854 197.335 118.129 197.335 117.653C197.335 117.177 197.593 117.262 198.069 117.262C198.546 117.262 199.089 117.501 199.089 117.987Z" fill="#FEC6BD"/>
<path d="M203.71 139.36C204.426 139.287 205.144 139.476 205.73 139.894C206.207 140.294 205.835 140.465 205.616 140.322C205.391 140.226 205.144 140.194 204.901 140.227C205.166 140.553 205.489 140.828 205.854 141.037C206.521 141.447 206.197 142.142 205.035 141.771C204.241 141.481 203.522 141.019 202.929 140.418L203.71 139.36Z" fill="#FEC6BD"/>
<path d="M193.61 134.329C194.277 135.205 202.567 138.369 202.567 138.369C202.567 138.369 197.802 134.233 195.973 133.442L196.354 127.458C196.354 127.458 192.943 133.461 193.61 134.329Z" fill="url(#paint11_linear_3223_4708)"/>
<path d="M193.61 134.329C194.277 135.205 202.567 138.369 202.567 138.369C202.567 138.369 197.802 134.233 195.973 133.442L196.354 127.458C196.354 127.458 192.943 133.461 193.61 134.329Z" fill="url(#paint12_linear_3223_4708)"/>
<path d="M199.184 122.303C199.184 122.303 193.028 122.598 191.923 127.001C190.97 130.746 190.017 135.234 190.703 136.11C191.389 136.987 198.145 140.112 203.186 140.779L203.891 139.198C203.891 139.198 196.764 134.71 194.982 133.919L196.354 127.458L199.184 122.303Z" fill="#6DB3FA"/>
<path d="M241.273 123.256V181.763" stroke="#5A6268" stroke-width="0.25" stroke-linecap="round"/>
<path d="M205.149 140.208L243.16 122.427" stroke="#31465B" stroke-width="0.5" stroke-linecap="round"/>
<path d="M133.168 134.872L134.473 136.987L135.274 136.463L134.349 134.147L133.168 134.872Z" fill="#FEC6BD"/>
<path d="M134.94 135.872L134.473 136.987C133.987 137.37 133.534 137.794 133.12 138.254C132.596 138.864 131.634 138.464 131.052 139.207C130.471 139.95 133.082 139.703 134.016 139.483C134.988 139.119 135.879 138.565 136.636 137.854C137.189 137.406 135.712 135.386 134.94 135.872Z" fill="#30343A"/>
<path d="M121.114 115.328C121.114 115.328 122.267 122.522 125.802 126.515C129.337 130.508 133.168 134.872 133.168 134.872L134.569 134.167C134.569 134.167 132.758 128.125 131.567 123.923C130.376 119.721 128.27 108.867 128.022 104.132L121.114 115.328Z" fill="#255297"/>
<path d="M121.114 115.328C121.114 115.328 122.267 122.522 125.802 126.515C129.337 130.508 133.168 134.872 133.168 134.872L134.569 134.167C134.569 134.167 132.758 128.125 131.567 123.923C130.376 119.721 128.27 108.867 128.022 104.132L121.114 115.328Z" fill="url(#paint13_linear_3223_4708)"/>
<path d="M109.898 135.415L108.869 138.216L110.07 139.083L111.242 135.977L109.898 135.415Z" fill="#FEC6BD"/>
<path d="M109.022 137.759C108.563 137.616 108.078 137.574 107.602 137.635C106.649 137.692 105.315 136.682 104.667 137.082C104.019 137.483 104.514 137.816 105.62 138.531C107.02 139.363 108.482 140.086 109.993 140.694C110.432 140.78 111.289 139.15 110.46 138.102L109.022 137.759Z" fill="#30343A"/>
<path d="M115.234 103.521C115.234 103.521 112.966 114.708 111.737 123.227C110.508 131.746 109.727 135.5 109.727 135.5L111.699 136.072C111.699 136.072 114.615 131.174 117.207 126.114C118.896 122.661 120.206 119.035 121.114 115.299C121.114 115.299 127.946 110.973 128.022 104.103L115.234 103.521Z" fill="#2A60B7"/>
<path d="M108.736 87.1033C108.736 87.1033 107.211 86.1504 107.211 85.5405C107.211 84.9307 106.63 83.7682 107.211 83.9397C107.792 84.1112 109.517 86.2362 109.517 86.2362L108.736 87.1033Z" fill="#FEC6BD"/>
<path d="M117.741 79.5374C117.741 79.5374 114.158 87.9704 113.796 89.3616C113.434 90.7529 112.309 89.3616 111.328 88.2182C110.346 87.0747 109.555 86.2362 109.555 86.2362L108.736 87.1033C108.736 87.1033 111.49 94.6311 113.338 95.5364C115.187 96.4416 117.741 94.7931 117.741 94.7931V79.5374Z" fill="#508FEA"/>
<path d="M112.147 72.0858C112.069 73.0848 112.069 74.0884 112.147 75.0874C112.49 77.403 114.253 78.899 114.872 78.7179C115.492 78.5369 116.283 78.2987 116.283 78.2987L117.722 79.5374L120.275 78.5845L117.807 75.2971C117.807 75.2971 117.931 71.7619 116.731 71.5903C115.19 71.6076 113.655 71.7735 112.147 72.0858Z" fill="#FEC6BD"/>
<path d="M113.958 72.6956C113.958 72.6956 111.299 72.8671 110.613 71.8856C109.927 70.9042 110.251 68.9507 111.213 68.9317C112.176 68.9126 112.909 69.8846 114.31 69.7988C115.711 69.713 116.721 69.027 117.75 69.6273C118.922 70.2436 119.518 71.5842 119.189 72.8671C118.722 74.0677 118.236 75.3541 117.55 75.3541C116.864 75.3541 116.597 74.8586 116.769 74.4013C116.94 73.9439 117.102 72.848 116.33 72.7242C116.018 72.6515 115.69 72.7133 115.425 72.8945C115.16 73.0757 114.984 73.3596 114.939 73.6771V74.1821C114.593 74.153 114.279 73.9668 114.088 73.6769C113.896 73.387 113.848 73.0254 113.958 72.6956Z" fill="#30343A"/>
<path d="M119.589 77.7649C119.589 77.7649 119.589 78.7178 117.74 79.5373C116.393 82.7259 115.513 86.0927 115.13 89.5331C114.844 94.1355 115.234 103.521 115.234 103.521C115.234 103.521 123.21 104.751 128.022 104.131C128.022 104.131 129.756 90.7242 126.335 84.9211C122.915 79.118 119.589 77.7649 119.589 77.7649Z" fill="#6DB1F8"/>
<path d="M105.315 82.0435L108.879 86.6555L109.403 85.9503C109.506 85.8048 109.506 85.6098 109.403 85.4643L106.887 82.0721C106.802 81.9496 106.654 81.8867 106.506 81.9101L105.315 82.0435Z" fill="#30343A"/>
<path d="M125.154 86.0455L119.722 85.9216C120.219 89.3063 120.438 92.7258 120.38 96.1461C120.314 99.4664 120.761 102.777 121.704 105.961C121.666 106.751 121.83 107.538 122.181 108.248C122.552 109.067 123.62 108.943 124.191 108.248C124.763 107.552 124.268 106.294 124.191 106.132C124.725 107.085 128.003 101.825 128.222 96.2319C128.391 92.5858 127.309 88.9916 125.154 86.0455Z" fill="url(#paint14_linear_3223_4708)"/>
<path d="M123.086 106.066C122.743 106.77 122.643 107.567 122.8 108.334C123.172 109.153 124.239 109.029 124.82 108.334C125.402 107.638 124.82 106.19 124.82 106.19L123.086 106.066Z" fill="#FEC6BD"/>
<path d="M119.179 85.7883C120.419 89.1287 121.301 92.5912 121.809 96.1177C122.6 101.749 123.086 106.066 123.086 106.066C123.625 106.336 124.249 106.38 124.821 106.19C126.588 102.814 127.6 99.0944 127.784 95.2887C127.927 91.5865 127.223 87.9006 125.726 84.5115L119.179 85.7883Z" fill="#6DB1F8"/>
<path d="M82.2359 132.823L82.3503 135.624L81.0257 136.044L80.8733 132.937L82.2359 132.823Z" fill="#FEC6BD"/>
<path d="M82.1977 135.3C82.6367 135.387 83.0524 135.566 83.4174 135.824C84.2083 136.32 85.733 136.063 86.0855 136.682C86.4381 137.301 85.8854 137.359 84.6467 137.444C83.1199 137.509 81.5904 137.452 80.0728 137.273C79.6821 137.158 79.6916 135.424 80.8542 134.929L82.1977 135.3Z" fill="#30343A"/>
<path d="M85.6473 114.871L82.6743 133.738L80.4445 133.662L79.3392 113.765C78.9497 110.655 78.8858 107.513 79.1486 104.389L85.6473 114.871Z" fill="#255299"/>
<path d="M90.8216 133.566L90.936 136.368L89.6114 136.787L89.459 133.681L90.8216 133.566Z" fill="#FEC6BD"/>
<path d="M90.7737 136.034C91.212 136.128 91.6268 136.31 91.9934 136.568C92.7843 137.063 94.2994 136.797 94.6615 137.416C95.0236 138.035 94.4518 138.102 93.2226 138.188C91.6959 138.248 90.1667 138.191 88.6488 138.016C88.2485 137.892 88.2676 136.168 89.4206 135.672L90.7737 136.034Z" fill="#30343A"/>
<path d="M91.1358 103.75C91.1358 103.75 91.4503 114.442 91.2311 122.503C91.0119 130.564 91.1358 134.185 91.1358 134.185L89.23 134.395C89.23 134.395 87.3243 129.411 85.7234 124.333C84.7104 120.873 84.0714 117.314 83.8176 113.717C83.8176 113.717 78.1956 108.638 79.2152 102.283L91.1358 103.75Z" fill="#2A60B5"/>
<path d="M90.1164 73.5627C90.1164 73.5627 90.4594 75.3637 90.5261 76.4214C90.6691 78.6035 89.497 80.233 88.8967 80.233C88.2964 80.233 87.5245 80.1186 87.5245 80.1186L86.4478 81.5289L83.9226 81.1573L85.5425 77.6602C85.5425 77.6602 84.7421 74.4489 85.7998 74.0582C87.2193 73.7541 88.6649 73.5881 90.1164 73.5627Z" fill="#FEC6BD"/>
<path d="M83.6366 80.7477C83.6366 80.7477 86.2094 80.4619 86.8859 81.0336C87.5625 81.6053 89.5731 83.8065 90.3926 88.2851C90.7642 90.2766 91.1644 103.808 91.1644 103.808C91.1644 103.808 78.5768 118.349 74.0601 117.777C74.0601 117.777 77.7763 94.4598 79.4725 88.3423C81.1686 82.2247 83.6366 80.7477 83.6366 80.7477Z" fill="#6DB3FA"/>
<path d="M98.3968 90.448L97.4439 90.0192C97.3201 89.962 97.301 89.781 97.4439 89.619L99.0448 87.0081C99.1496 86.8461 99.3402 86.7508 99.4641 86.808L100.417 87.2272C100.541 87.2844 100.56 87.4654 100.417 87.637L98.8542 90.2384C98.773 90.4102 98.58 90.4987 98.3968 90.448Z" fill="#30343A"/>
<path d="M98.2635 91.5246C98.2635 91.5246 99.6929 90.6384 99.6929 90.0571C99.6929 89.4759 100.226 88.3991 99.6929 88.5611C99.1593 88.7231 97.4917 90.7146 97.4917 90.7146L98.2635 91.5246Z" fill="#FEC6BD"/>
<path d="M90.9549 97.995L91.0788 101.254C91.0788 101.254 88.5822 103.312 85.6854 98.2142C84.1036 95.4794 82.9983 88.3994 82.9983 88.3994L90.9549 97.995Z" fill="url(#paint15_linear_3223_4708)"/>
<path d="M88.9348 86.4458C89.5364 88.7526 90.2844 91.0187 91.1741 93.2304C91.3075 93.5829 97.3679 90.5718 97.3679 90.5718L98.5685 91.6676C98.5685 91.6676 90.0497 101.959 87.0195 97.0229C85.3065 94.3372 83.9545 91.4378 82.9983 88.3992L88.9348 86.4458Z" fill="#6DB1F8"/>
<path d="M89.2302 71.9524C90.0115 72.3717 90.8691 74.9159 90.4975 74.9159C90.1259 74.9159 88.6584 74.9159 88.2677 74.9731L88.0009 75.926C88.0009 75.926 88.0009 75.2304 87.3244 75.4114C86.6478 75.5925 86.9909 76.7645 87.6103 76.9456C87.7577 78.8152 86.6731 80.5637 84.9326 81.2622C81.8643 82.6629 82.7505 89.8382 78.0909 88.1801C73.4313 86.5221 75.5943 84.0732 78.9771 80.0615C82.3598 76.0499 81.8357 74.8588 83.4747 73.0197C84.951 71.4392 87.2854 71.0063 89.2302 71.9524Z" fill="#37475E"/>
<path d="M243.989 181.468H240.177C235.327 181.859 231.525 190.463 231.601 200.964C231.677 211.465 235.699 219.955 240.558 220.241H244.37L243.989 181.468Z" fill="#FFD215"/>
<path opacity="0.06" d="M241.673 182.678L237.385 182.726C237.185 182.897 236.975 183.059 236.775 183.259L241.673 183.212V182.678Z" fill="black"/>
<path opacity="0.06" d="M241.692 184.927L235.384 184.994L235.07 185.527L241.74 185.451L241.692 184.927Z" fill="black"/>
<path opacity="0.06" d="M241.721 187.166L234.164 187.252L233.936 187.776L241.721 187.69V187.166Z" fill="black"/>
<path opacity="0.06" d="M241.74 189.415L233.288 189.501L233.116 190.034L241.749 189.939L241.74 189.415Z" fill="black"/>
<path opacity="0.06" d="M241.768 191.654L232.64 191.75L232.525 192.283L241.778 192.178L241.768 191.654Z" fill="black"/>
<path opacity="0.06" d="M241.797 193.894L232.192 193.998L232.106 194.532L241.797 194.427V193.894Z" fill="black"/>
<path opacity="0.06" d="M241.816 196.142L231.887 196.247C231.887 196.428 231.839 196.6 231.83 196.781L241.826 196.666L241.816 196.142Z" fill="black"/>
<path opacity="0.06" d="M241.845 198.391L231.706 198.506V199.03L241.873 198.925L241.845 198.391Z" fill="black"/>
<path opacity="0.06" d="M241.864 200.631L231.649 200.735C231.654 200.827 231.654 200.92 231.649 201.012C231.649 201.098 231.649 201.183 231.649 201.269L241.864 201.155V200.631Z" fill="black"/>
<path opacity="0.06" d="M241.892 202.87L231.715 202.984C231.715 203.156 231.715 203.327 231.763 203.508L241.892 203.394V202.87Z" fill="black"/>
<path opacity="0.06" d="M241.912 205.119L231.916 205.223C231.916 205.405 231.916 205.576 231.982 205.748L241.921 205.643L241.912 205.119Z" fill="black"/>
<path opacity="0.06" d="M241.94 207.358L232.249 207.463L232.335 207.987L241.949 207.882L241.94 207.358Z" fill="black"/>
<path opacity="0.06" d="M241.969 209.597L232.716 209.702C232.716 209.874 232.802 210.055 232.84 210.226L241.969 210.131V209.597Z" fill="black"/>
<path opacity="0.06" d="M241.988 211.846L233.354 211.941C233.412 212.113 233.478 212.285 233.545 212.466L241.997 212.37L241.988 211.846Z" fill="black"/>
<path opacity="0.06" d="M242.016 214.085L234.222 214.171C234.298 214.352 234.374 214.524 234.46 214.695L242.016 214.609V214.085Z" fill="black"/>
<path opacity="0.06" d="M242.035 216.334L235.365 216.401C235.479 216.582 235.584 216.763 235.698 216.925L242.007 216.858L242.035 216.334Z" fill="black"/>
<path opacity="0.06" d="M242.064 218.573L237.166 218.63C237.376 218.821 237.585 218.983 237.795 219.145L242.064 219.097V218.573Z" fill="black"/>
<path d="M244.438 220.274C249.432 220.219 253.385 211.485 253.267 200.765C253.149 190.046 249.005 181.401 244.011 181.456C239.017 181.511 235.064 190.245 235.182 200.964C235.3 211.684 239.444 220.329 244.438 220.274Z" fill="#FFDC00"/>
<g opacity="0.4">
<path opacity="0.4" d="M244.236 182.669V183.145C248.21 183.145 251.669 191.226 251.774 200.793C251.879 210.36 248.582 218.555 244.551 218.602C240.52 218.65 237.118 210.522 237.013 200.955C236.909 191.388 240.196 183.193 244.189 183.145V182.669H244.236ZM244.189 182.669C239.844 182.716 236.423 190.902 236.566 200.955C236.709 211.008 240.263 219.06 244.579 219.06C248.925 219.012 252.345 210.817 252.203 200.764C252.06 190.711 248.505 182.659 244.189 182.659V182.669Z" fill="white"/>
</g>
<path d="M95.5382 36H120.447C121.193 36.0099 121.798 36.607 121.819 37.3531V54.2192C121.819 54.9876 121.196 55.6105 120.428 55.6105H115.301V58.0975C115.299 58.2951 115.18 58.4727 114.998 58.5493C114.815 58.6259 114.605 58.5869 114.463 58.4501L111.604 55.5914H95.5382C94.7698 55.5914 94.147 54.9685 94.147 54.2002V37.3531C94.1676 36.5997 94.7845 35.9997 95.5382 36Z" fill="#6DB3FA"/>
<path d="M111.213 41.6316H99.8833C99.7201 41.6316 99.5879 41.7638 99.5879 41.927V42.2891C99.5879 42.4522 99.7201 42.5845 99.8833 42.5845H111.213C111.376 42.5845 111.509 42.4522 111.509 42.2891V41.927C111.509 41.7638 111.376 41.6316 111.213 41.6316Z" fill="#DCEDFF"/>
<path d="M116.016 44.4807H99.8833C99.7201 44.4807 99.5879 44.613 99.5879 44.7761V45.1382C99.5879 45.3013 99.7201 45.4336 99.8833 45.4336H116.016C116.179 45.4336 116.311 45.3013 116.311 45.1382V44.7761C116.311 44.613 116.179 44.4807 116.016 44.4807Z" fill="#DCEDFF"/>
<path d="M113.529 47.3298H99.8833C99.7201 47.3298 99.5879 47.4621 99.5879 47.6252V47.9873C99.5879 48.1505 99.7201 48.2827 99.8833 48.2827H113.529C113.692 48.2827 113.824 48.1505 113.824 47.9873V47.6252C113.824 47.4621 113.692 47.3298 113.529 47.3298Z" fill="#DCEDFF"/>
<path d="M104.972 51.1128H86.0094C85.2396 51.118 84.6182 51.7436 84.6182 52.5135V63.0811C84.6157 63.4526 84.7608 63.8099 85.0218 64.0744C85.2827 64.3388 85.6379 64.4888 86.0094 64.4914H88.4203V66.9784C88.4185 67.1802 88.5392 67.3629 88.7255 67.4404C88.9119 67.5178 89.1265 67.4746 89.2683 67.331L92.127 64.4723H104.972C105.742 64.4723 106.367 63.851 106.373 63.0811V52.5135C106.373 51.7399 105.746 51.1128 104.972 51.1128Z" fill="#FFDA00"/>
<path d="M91.8982 58.6597C92.4245 58.6597 92.8511 58.2331 92.8511 57.7068C92.8511 57.1805 92.4245 56.7539 91.8982 56.7539C91.3719 56.7539 90.9453 57.1805 90.9453 57.7068C90.9453 58.2331 91.3719 58.6597 91.8982 58.6597Z" fill="white"/>
<path d="M95.5669 58.6597C96.0932 58.6597 96.5198 58.2331 96.5198 57.7068C96.5198 57.1805 96.0932 56.7539 95.5669 56.7539C95.0406 56.7539 94.614 57.1805 94.614 57.7068C94.614 58.2331 95.0406 58.6597 95.5669 58.6597Z" fill="white"/>
<path d="M99.2261 58.6597C99.7523 58.6597 100.179 58.2331 100.179 57.7068C100.179 57.1805 99.7523 56.7539 99.2261 56.7539C98.6998 56.7539 98.2732 57.1805 98.2732 57.7068C98.2732 58.2331 98.6998 58.6597 99.2261 58.6597Z" fill="white"/>
<defs>
<linearGradient id="paint0_linear_3223_4708" x1="209.997" y1="30.4701" x2="148.674" y2="106.579" gradientUnits="userSpaceOnUse">
<stop stop-color="#EEF8FF"/>
<stop offset="1" stop-color="#EBF8FF" stop-opacity="0.2"/>
</linearGradient>
<linearGradient id="paint1_linear_3223_4708" x1="58.4708" y1="170.335" x2="97.9831" y2="258.174" gradientUnits="userSpaceOnUse">
<stop stop-color="#80B9ED"/>
<stop offset="0.51" stop-color="#6098FA"/>
<stop offset="1" stop-color="#B0D7FC"/>
</linearGradient>
<linearGradient id="paint2_linear_3223_4708" x1="156.58" y1="201.032" x2="173.782" y2="243.489" gradientUnits="userSpaceOnUse">
<stop stop-color="#BEDBFF"/>
<stop offset="0.18" stop-color="#6098FA"/>
</linearGradient>
<linearGradient id="paint3_linear_3223_4708" x1="161.211" y1="252.731" x2="165.125" y2="259.662" gradientUnits="userSpaceOnUse">
<stop stop-color="#BEDBFF"/>
<stop offset="0.9" stop-color="#6098FA"/>
</linearGradient>
<linearGradient id="paint4_linear_3223_4708" x1="192.487" y1="157.349" x2="213.163" y2="232.587" gradientUnits="userSpaceOnUse">
<stop stop-color="#F3F8FF"/>
<stop offset="1" stop-color="#E7F1FF"/>
</linearGradient>
<linearGradient id="paint5_linear_3223_4708" x1="137.141" y1="156.952" x2="173.424" y2="249.782" gradientUnits="userSpaceOnUse">
<stop stop-color="#92C2FF" stop-opacity="0"/>
<stop offset="0.27" stop-color="#92C2FF" stop-opacity="0"/>
<stop offset="0.47" stop-color="#92C2FF"/>
<stop offset="1" stop-color="#DBEAFF"/>
</linearGradient>
<linearGradient id="paint6_linear_3223_4708" x1="80.4236" y1="219.631" x2="80.2325" y2="219.637" gradientUnits="userSpaceOnUse">
<stop stop-color="#133E90" stop-opacity="0.4"/>
<stop offset="1" stop-color="#133E90" stop-opacity="0"/>
</linearGradient>
<linearGradient id="paint7_linear_3223_4708" x1="75.5097" y1="205.995" x2="75.292" y2="207.794" gradientUnits="userSpaceOnUse">
<stop stop-color="#F5AEA7"/>
<stop offset="1" stop-color="#F5AEA7" stop-opacity="0"/>
</linearGradient>
<linearGradient id="paint8_linear_3223_4708" x1="208.063" y1="151.681" x2="211.017" y2="153.301" gradientUnits="userSpaceOnUse">
<stop stop-color="#133E90" stop-opacity="0.4"/>
<stop offset="1" stop-color="#133E90" stop-opacity="0"/>
</linearGradient>
<linearGradient id="paint9_linear_3223_4708" x1="206.612" y1="131.365" x2="206.75" y2="131.354" gradientUnits="userSpaceOnUse">
<stop stop-color="#133E90" stop-opacity="0.4"/>
<stop offset="1" stop-color="#133E90" stop-opacity="0"/>
</linearGradient>
<linearGradient id="paint10_linear_3223_4708" x1="200.777" y1="120.445" x2="200.318" y2="122.244" gradientUnits="userSpaceOnUse">
<stop stop-color="#F5AEA7"/>
<stop offset="1" stop-color="#F5AEA7" stop-opacity="0"/>
</linearGradient>
<linearGradient id="paint11_linear_3223_4708" x1="195.508" y1="132.185" x2="196.638" y2="132.343" gradientUnits="userSpaceOnUse">
<stop stop-color="#133E90" stop-opacity="0.4"/>
<stop offset="1" stop-color="#133E90" stop-opacity="0"/>
</linearGradient>
<linearGradient id="paint12_linear_3223_4708" x1="197.453" y1="136.244" x2="198.293" y2="135.018" gradientUnits="userSpaceOnUse">
<stop stop-color="#133E90" stop-opacity="0.4"/>
<stop offset="1" stop-color="#133E90" stop-opacity="0"/>
</linearGradient>
<linearGradient id="paint13_linear_3223_4708" x1="126.417" y1="117.081" x2="127.85" y2="117.421" gradientUnits="userSpaceOnUse">
<stop stop-color="#133E90" stop-opacity="0.8"/>
<stop offset="1" stop-color="#133E90" stop-opacity="0"/>
</linearGradient>
<linearGradient id="paint14_linear_3223_4708" x1="123.985" y1="91.7724" x2="124.185" y2="103.776" gradientUnits="userSpaceOnUse">
<stop stop-color="#133E90" stop-opacity="0.4"/>
<stop offset="1" stop-color="#133E90" stop-opacity="0"/>
</linearGradient>
<linearGradient id="paint15_linear_3223_4708" x1="86.2006" y1="93.4783" x2="90.8291" y2="99.6472" gradientUnits="userSpaceOnUse">
<stop stop-color="#133E90" stop-opacity="0.4"/>
<stop offset="1" stop-color="#133E90" stop-opacity="0"/>
</linearGradient>
</defs>
</svg>
