<svg width="280" height="280" viewBox="0 0 280 280" fill="none" xmlns="http://www.w3.org/2000/svg">
<path d="M87.7981 170.4L88.1672 170.109C73.5788 151.152 62.7523 129.51 60.5969 115.001L60.1379 115.071C62.3033 129.66 73.1398 151.382 87.7981 170.4Z" fill="#C9DEFF"/>
<path d="M57.8029 111.414C58.1621 113.498 60.537 115.693 60.537 115.693C60.537 115.693 62.0437 112.817 61.6845 110.743C61.3253 108.669 60.3075 107.967 59.2398 108.158C58.1721 108.348 57.4437 109.33 57.8029 111.414Z" fill="#C9DEFF"/>
<path d="M62.7624 119.089C61.8244 121.093 62.5129 124.339 62.5129 124.339C62.5129 124.339 65.5064 122.816 66.4244 120.852C67.3424 118.889 66.9134 117.696 65.9056 117.215C64.8977 116.734 63.7003 117.125 62.7624 119.089Z" fill="#C9DEFF"/>
<path d="M65.9453 127.225C64.9474 129.339 65.6858 132.846 65.6858 132.846C65.6858 132.846 68.8689 131.223 69.8768 129.109C70.8846 126.995 70.4056 125.732 69.318 125.211C68.2303 124.69 66.9531 125.121 65.9453 127.225Z" fill="#C9DEFF"/>
<path d="M69.7371 133.988C68.5198 135.852 68.7393 139.279 68.7393 139.279C68.7393 139.279 71.9623 138.136 73.1797 136.273C74.3971 134.409 74.0977 133.147 73.1797 132.515C72.2617 131.884 70.9545 132.115 69.7371 133.988Z" fill="#C9DEFF"/>
<path d="M72.3214 141.313C71.5631 143.417 72.6008 146.683 72.6008 146.683C72.6008 146.683 75.4746 144.829 76.223 142.735C76.9714 140.641 76.4126 139.469 75.3349 139.078C74.2573 138.687 73.0698 139.218 72.3214 141.313Z" fill="#C9DEFF"/>
<path d="M75.7242 148.837C75.345 151.032 76.9216 154.078 76.9216 154.078C76.9216 154.078 79.4361 151.753 79.8153 149.559C80.1945 147.364 79.4361 146.312 78.3086 146.112C77.181 145.912 76.1333 146.643 75.7242 148.837Z" fill="#C9DEFF"/>
<path d="M80.3042 156.031C79.9251 158.226 81.5016 161.262 81.5016 161.262C81.5016 161.262 84.0162 158.947 84.3954 156.743C84.7746 154.538 84.0162 153.496 82.8886 153.306C81.7611 153.116 80.6834 153.787 80.3042 156.031Z" fill="#C9DEFF"/>
<path d="M56.2862 120.963C58.2819 121.965 61.7045 121.213 61.7045 121.213C61.7045 121.213 60.1379 118.117 58.1023 117.145C56.0667 116.174 54.8393 116.624 54.3404 117.676C53.8415 118.728 54.2506 119.961 56.2862 120.963Z" fill="#C9DEFF"/>
<path d="M59.6788 130.341C61.6745 131.043 64.668 130.051 64.668 130.051C64.668 130.051 62.9318 127.375 60.986 126.684C59.0402 125.993 57.9925 126.524 57.6033 127.536C57.2142 128.548 57.733 129.65 59.6788 130.341Z" fill="#C9DEFF"/>
<path d="M62.5825 138.998C64.8177 138.998 67.5717 136.994 67.5717 136.994C67.5717 136.994 64.8776 134.84 62.6324 134.8C60.3873 134.76 59.4793 135.682 59.4593 136.804C59.4394 137.926 60.3374 138.998 62.5825 138.998Z" fill="#C9DEFF"/>
<path d="M65.7757 145.431C68.0208 145.431 70.7649 143.427 70.7649 143.427C70.7649 143.427 68.0707 141.273 65.8355 141.232C63.6004 141.192 62.6724 142.124 62.6524 143.286C62.6325 144.449 63.5405 145.391 65.7757 145.431Z" fill="#C9DEFF"/>
<path d="M69.5575 152.023C71.7927 152.234 74.7064 150.39 74.7064 150.39C74.7064 150.39 72.1719 148.046 69.9467 147.835C67.7215 147.625 66.7236 148.486 66.6239 149.639C66.5241 150.791 67.3323 151.853 69.5575 152.023Z" fill="#C9DEFF"/>
<path d="M73.6286 158.927C75.8638 159.137 78.7675 157.294 78.7675 157.294C78.7675 157.294 76.243 154.939 74.0078 154.739C71.7727 154.538 70.7948 155.39 70.695 156.542C70.5952 157.695 71.3935 158.717 73.6286 158.927Z" fill="#C9DEFF"/>
<path d="M78.2387 165.77C80.4638 165.981 83.3775 164.137 83.3775 164.137C83.3775 164.137 80.853 161.793 78.6178 161.582C76.3827 161.372 75.4048 162.234 75.295 163.386C75.1853 164.538 76.0035 165.57 78.2387 165.77Z" fill="#C9DEFF"/>
<path d="M117.192 237.318V241.827C117.218 241.546 117.317 241.276 117.48 241.045C117.643 240.815 117.864 240.632 118.12 240.515C118.812 240.167 119.576 239.986 120.35 239.986C121.124 239.986 121.888 240.167 122.58 240.515C122.833 240.63 123.051 240.81 123.212 241.037C123.374 241.264 123.472 241.53 123.498 241.807V237.298C123.473 237.02 123.375 236.754 123.214 236.527C123.052 236.3 122.834 236.12 122.58 236.006C121.889 235.653 121.125 235.469 120.35 235.469C119.575 235.469 118.811 235.653 118.12 236.006C117.861 236.119 117.638 236.302 117.475 236.533C117.311 236.764 117.213 237.036 117.192 237.318Z" fill="#F9DD5C"/>
<path d="M117.192 237.318V241.827C117.187 241.75 117.187 241.673 117.192 241.597V237.078C117.182 237.158 117.182 237.238 117.192 237.318Z" fill="#F9DD5C"/>
<path d="M117.212 237.078V241.597C117.283 241.364 117.4 241.148 117.556 240.962C117.712 240.776 117.904 240.624 118.12 240.515C118.925 240.098 119.831 239.917 120.734 239.994V235.485C119.831 235.403 118.924 235.584 118.12 236.006C117.902 236.11 117.708 236.26 117.552 236.444C117.396 236.629 117.28 236.845 117.212 237.078Z" fill="#F6C444"/>
<path d="M120.734 235.485V239.993C121.38 240.028 122.011 240.206 122.58 240.514C122.833 240.63 123.051 240.81 123.212 241.037C123.373 241.264 123.472 241.529 123.498 241.807V237.298C123.473 237.02 123.375 236.754 123.213 236.527C123.052 236.3 122.834 236.12 122.58 236.006C122.012 235.694 121.381 235.516 120.734 235.485Z" fill="#F4B840"/>
<path d="M127.28 238.851L127.29 243.37L127.31 240.344L127.3 235.825L127.28 238.851Z" fill="#F9DD5C"/>
<path d="M99.4001 236.396L99.4201 240.905L112.831 248.731L112.821 244.222L99.4001 236.396Z" fill="#D69A37"/>
<path d="M118.02 244.222L118.03 248.741L127.29 243.37L127.28 238.851L118.02 244.222Z" fill="#F6C444"/>
<path d="M112.821 244.222L112.831 248.731L118.03 248.741L118.02 244.222H112.821Z" fill="#F4B840"/>
<path d="M108.68 228H113.879L127.29 235.835V238.841L118.03 244.202H112.821L99.4001 236.376C99.4001 235.194 99.4001 234.533 99.4001 233.371L108.68 228ZM122.56 238.601C123.798 237.879 123.808 236.717 122.56 236.006C121.869 235.653 121.105 235.469 120.33 235.469C119.555 235.469 118.791 235.653 118.1 236.006C116.862 236.727 116.853 237.879 118.1 238.601C118.792 238.948 119.556 239.129 120.33 239.129C121.104 239.129 121.868 238.948 122.56 238.601Z" fill="#F9DD5C"/>
<path d="M107.533 244.39C107.533 244.33 107.533 244.26 107.533 244.2C107.533 244.14 107.533 244.059 107.533 243.989C107.537 243.919 107.537 243.849 107.533 243.779C107.533 243.709 107.533 243.639 107.483 243.568C107.483 243.568 107.483 243.518 107.483 243.488C107.441 243.355 107.391 243.224 107.333 243.098L107.253 242.947L107.074 242.627L107.014 242.536C106.896 242.355 106.759 242.186 106.605 242.035H106.545C106.395 241.885 106.227 241.754 106.046 241.645C105.988 241.611 105.928 241.581 105.866 241.554L105.716 241.484H105.537H105.397H105.118C105.031 241.502 104.947 241.533 104.868 241.575L67.6685 263.287C67.7443 263.238 67.829 263.204 67.9179 263.187H67.9878C68.0573 263.177 68.1278 263.177 68.1973 263.187H68.3071C68.3789 263.194 68.4493 263.211 68.5166 263.237L68.6364 263.287C68.7133 263.316 68.7869 263.353 68.8559 263.397C69.0373 263.503 69.2048 263.631 69.3548 263.778L69.4446 263.858C69.597 264.011 69.734 264.179 69.8537 264.359L69.9436 264.489L70.1232 264.81L70.203 264.96C70.2615 265.087 70.3115 265.218 70.3527 265.351V265.451C70.3527 265.521 70.3527 265.592 70.4026 265.662C70.4071 265.732 70.4071 265.802 70.4026 265.872C70.4026 265.942 70.4026 266.002 70.4026 266.073C70.4026 266.143 70.4026 266.223 70.4026 266.303C70.3956 266.477 70.3654 266.649 70.3128 266.814V266.914C70.2855 266.981 70.2521 267.044 70.213 267.105L70.1531 267.185C70.0957 267.261 70.0247 267.325 69.9436 267.375L107.143 245.673C107.225 245.619 107.296 245.551 107.353 245.472C107.378 245.45 107.399 245.423 107.413 245.392C107.452 245.332 107.485 245.268 107.513 245.202V245.142C107.571 244.977 107.601 244.805 107.602 244.631L107.533 244.39Z" fill="#F9DD5C"/>
<path d="M69.0265 263.233C68.0985 262.692 67.3501 263.122 67.3501 264.235C67.3777 264.816 67.5434 265.382 67.8333 265.886C68.1232 266.389 68.5289 266.816 69.0165 267.13C69.9445 267.671 70.6929 267.24 70.7029 266.178C70.6787 265.588 70.5139 265.013 70.2221 264.5C69.9304 263.988 69.5204 263.553 69.0265 263.233Z" fill="#D69A37"/>
<path d="M75.8811 262.127L75.8711 264.672L74.8533 264.081L74.8633 261.536L75.8811 262.127Z" fill="#F4B840"/>
<path d="M86.1589 263.179V265.734L85.2908 265.233L85.3008 262.678L86.1589 263.179Z" fill="#D69A37"/>
<path d="M86.937 262.728L86.927 265.273L86.1587 265.734V263.179L86.937 262.728Z" fill="#F4B840"/>
<path d="M85.3007 262.678L85.2908 265.233L84.1931 265.864L84.2031 263.319L85.3007 262.678Z" fill="#F4B840"/>
<path d="M82.0476 264.582L82.0376 267.127L80.95 267.768L80.9599 265.213L82.0476 264.582Z" fill="#F4B840"/>
<path d="M76.2901 265.233V267.778L73.4163 266.115V263.56L76.2901 265.233Z" fill="#D69A37"/>
<path d="M77.677 264.421L77.6671 266.966L76.29 267.778V265.233L77.677 264.421Z" fill="#F4B840"/>
<path d="M85.7398 264.211L85.7298 266.756L83.5745 268.018L83.5844 265.473L85.7398 264.211Z" fill="#F4B840"/>
<path d="M83.5843 265.474L83.5743 268.019L82.0376 267.127L82.0476 264.582L83.5843 265.474Z" fill="#D69A37"/>
<path d="M80.8701 266.275L80.8601 268.82L77.667 266.966L77.677 264.421L80.8701 266.275Z" fill="#D69A37"/>
<path d="M86.9371 262.728L86.1588 263.179L85.3006 262.678L84.203 263.319L85.7397 264.211L83.5843 265.474L82.0477 264.582L80.96 265.213L81.8181 265.714L80.8702 266.275L77.6771 264.421L76.2901 265.233L73.4163 263.56L75.8809 262.127L74.8631 261.536L78.9543 259.151L79.9721 259.742L80.8702 259.211L86.9371 262.728Z" fill="#F6C444"/>
<path d="M81.818 265.714V268.259L80.8601 268.82L80.8701 266.275L81.818 265.714Z" fill="#F4B840"/>
<path d="M88.733 258.67V260.915L86.9568 261.947L86.9668 259.702L88.733 258.67Z" fill="#F6C444"/>
<path d="M86.9669 259.702L86.9569 261.946L82.4666 259.341L82.4765 257.107L86.9669 259.702Z" fill="#D69A37"/>
<path d="M88.7331 258.67L86.9669 259.702L82.4766 257.107L84.2428 256.065L88.7331 258.67Z" fill="#F6C444"/>
<path d="M233.522 232.783C233.383 232.493 219.553 203.085 233.113 177.475C243.75 157.376 250.426 135.393 250.077 121.426H250.526C250.825 135.453 244.129 157.496 233.473 177.696C220.032 203.105 233.742 232.313 233.882 232.603L233.522 232.783Z" fill="#C9DEFF"/>
<path d="M252.162 117.629C252.162 119.632 250.286 122.077 250.286 122.077C250.286 122.077 248.42 119.622 248.42 117.618C248.42 115.615 249.268 114.803 250.296 114.803C251.324 114.803 252.162 115.615 252.162 117.629Z" fill="#C9DEFF"/>
<path d="M248.759 125.614C249.947 127.307 249.827 130.483 249.827 130.483C249.827 130.483 246.834 129.542 245.616 127.848C244.399 126.155 244.618 124.983 245.516 124.362C246.415 123.74 247.562 123.961 248.759 125.614Z" fill="#C9DEFF"/>
<path d="M247.063 133.75C248.34 135.553 248.211 138.96 248.211 138.96C248.211 138.96 244.968 137.958 243.69 136.145C242.413 134.331 242.693 133.069 243.591 132.407C244.489 131.746 245.766 131.976 247.063 133.75Z" fill="#C9DEFF"/>
<path d="M244.598 140.683C246.035 142.237 246.335 145.483 246.335 145.483C246.335 145.483 243.142 144.932 241.705 143.379C240.268 141.826 240.338 140.593 241.136 139.852C241.934 139.11 243.162 139.13 244.598 140.683Z" fill="#C9DEFF"/>
<path d="M243.351 148.008C244.349 149.861 243.95 153.088 243.95 153.088C243.95 153.088 240.956 151.815 239.959 149.972C238.961 148.128 239.27 146.966 240.218 146.405C241.166 145.844 242.313 146.114 243.351 148.008Z" fill="#C9DEFF"/>
<path d="M241.366 155.553C242.074 157.557 241.076 160.653 241.076 160.653C241.076 160.653 238.362 158.879 237.644 156.885C236.925 154.891 237.484 153.789 238.512 153.418C239.539 153.048 240.657 153.559 241.366 155.553Z" fill="#C9DEFF"/>
<path d="M238.222 163.037C238.931 165.041 237.943 168.137 237.943 168.137C237.943 168.137 235.219 166.364 234.51 164.37C233.802 162.376 234.341 161.274 235.369 160.903C236.396 160.532 237.514 161.033 238.222 163.037Z" fill="#C9DEFF"/>
<path d="M234.71 170.151C235.418 172.155 234.421 175.241 234.421 175.241C234.421 175.241 231.697 173.478 230.988 171.484C230.28 169.49 230.828 168.378 231.856 168.017C232.884 167.656 234.002 168.147 234.71 170.151Z" fill="#C9DEFF"/>
<path d="M231.457 176.934C232.175 178.938 231.178 182.024 231.178 182.024C231.178 182.024 228.453 180.261 227.745 178.267C227.036 176.273 227.585 175.161 228.603 174.8C229.621 174.439 230.798 174.93 231.457 176.934Z" fill="#C9DEFF"/>
<path d="M227.585 186.082C228.753 187.856 228.513 191.092 228.513 191.092C228.513 191.092 225.45 190.02 224.292 188.247C223.135 186.473 223.404 185.241 224.292 184.67C225.18 184.098 226.428 184.319 227.585 186.082Z" fill="#C9DEFF"/>
<path d="M226.498 194.689C227.655 196.463 227.416 199.699 227.416 199.699C227.416 199.699 224.352 198.627 223.195 196.853C222.037 195.08 222.307 193.848 223.195 193.286C224.083 192.725 225.34 192.916 226.498 194.689Z" fill="#C9DEFF"/>
<path d="M255.106 126.285C253.36 127.528 250.067 127.397 250.067 127.397C250.067 127.397 251.064 124.241 252.791 122.999C254.517 121.756 255.784 121.997 256.403 122.899C257.022 123.8 256.852 125.043 255.106 126.285Z" fill="#C9DEFF"/>
<path d="M253.429 135.654C251.713 136.656 248.729 136.185 248.729 136.185C248.729 136.185 249.917 133.399 251.633 132.427C253.349 131.456 254.437 131.796 254.936 132.688C255.435 133.58 255.146 134.682 253.429 135.654Z" fill="#C9DEFF"/>
<path d="M252.102 144.26C250.017 144.651 247.113 143.178 247.113 143.178C247.113 143.178 249.288 140.734 251.384 140.333C253.479 139.932 254.477 140.653 254.687 141.736C254.896 142.818 254.198 143.86 252.102 144.26Z" fill="#C9DEFF"/>
<path d="M250.136 150.763C248.041 151.164 245.147 149.681 245.147 149.681C245.147 149.681 247.323 147.236 249.418 146.836C251.513 146.435 252.511 147.156 252.721 148.238C252.93 149.32 252.222 150.362 250.136 150.763Z" fill="#C9DEFF"/>
<path d="M247.652 157.577C245.596 158.128 242.573 156.875 242.573 156.875C242.573 156.875 244.569 154.27 246.624 153.719C248.68 153.168 249.737 153.799 250.027 154.871C250.316 155.943 249.757 157.026 247.652 157.577Z" fill="#C9DEFF"/>
<path d="M244.948 164.66C242.882 165.211 239.869 163.959 239.869 163.959C239.869 163.959 241.864 161.354 243.86 160.803C245.856 160.252 246.973 160.893 247.263 161.955C247.552 163.017 247.003 164.109 244.948 164.66Z" fill="#C9DEFF"/>
<path d="M241.775 171.814C239.719 172.366 236.696 171.113 236.696 171.113C236.696 171.113 238.691 168.508 240.747 167.957C242.802 167.406 243.86 168.047 244.139 169.109C244.419 170.171 243.77 171.263 241.775 171.814Z" fill="#C9DEFF"/>
<path d="M238.352 178.968C236.227 178.788 233.812 176.574 233.812 176.574C233.812 176.574 236.566 174.8 238.681 174.981C240.797 175.161 241.585 176.123 241.495 177.225C241.405 178.327 240.467 179.149 238.352 178.968Z" fill="#C9DEFF"/>
<path d="M235.189 185.341C233.193 186.012 230.08 184.94 230.08 184.94C230.08 184.94 231.916 182.215 233.931 181.543C235.947 180.872 237.055 181.453 237.394 182.495C237.733 183.537 237.214 184.669 235.189 185.341Z" fill="#C9DEFF"/>
<path d="M233.163 193.817C231.168 194.499 228.054 193.417 228.054 193.417C228.054 193.417 229.89 190.701 231.906 190.03C233.922 189.359 235.019 189.93 235.369 190.982C235.718 192.034 235.179 193.146 233.163 193.817Z" fill="#C9DEFF"/>
<path d="M232.195 201.903C230.489 203.166 227.206 203.106 227.206 203.106C227.206 203.106 228.114 199.949 229.83 198.677C231.547 197.404 232.764 197.675 233.413 198.517C234.061 199.358 233.912 200.631 232.195 201.903Z" fill="#C9DEFF"/>
<path d="M224.382 211.051C224.382 211.051 224.821 199.699 229.8 196.412C234.78 193.126 238.721 197.765 238.951 192.014C239.18 186.263 239.839 181.112 246.454 181.714C253.07 182.315 254.707 182.716 256.343 178.427C257.979 174.139 260.135 168.728 264.326 172.756C268.517 176.784 267.15 188.427 263.727 195.3C260.304 202.174 253.539 205.32 252.571 209.027C251.603 212.734 251.573 213.806 255.325 216.121C259.077 218.435 257.181 225.299 247.073 228.215C236.965 231.13 223.953 228.064 223.953 228.064L224.382 211.051Z" fill="url(#paint0_linear_3223_4709)"/>
<path d="M224.462 219.938C224.542 219.938 232.335 217.564 242.832 209.829C242.832 209.829 242.832 209.829 242.832 209.759C244.828 205.661 245.407 192.725 245.417 192.595C245.422 192.537 245.448 192.484 245.491 192.445C245.533 192.406 245.589 192.384 245.646 192.385C245.676 192.386 245.705 192.393 245.732 192.406C245.759 192.419 245.783 192.437 245.802 192.46C245.822 192.482 245.837 192.508 245.846 192.537C245.855 192.565 245.858 192.595 245.856 192.625C245.856 193.136 245.287 204.649 243.491 209.338L243.651 209.227C254.537 201.001 260.235 183.978 260.294 183.808C260.303 183.78 260.318 183.754 260.337 183.732C260.356 183.71 260.379 183.692 260.405 183.679C260.431 183.666 260.459 183.658 260.488 183.656C260.517 183.654 260.546 183.658 260.574 183.668C260.601 183.677 260.627 183.691 260.649 183.71C260.671 183.729 260.689 183.752 260.702 183.778C260.715 183.805 260.723 183.833 260.725 183.862C260.727 183.891 260.723 183.92 260.714 183.948C260.664 184.118 254.916 201.282 243.91 209.588C241.327 211.542 238.639 213.352 235.857 215.009C239.031 218.015 244.948 217.013 245.008 217.013C245.064 217.004 245.122 217.018 245.169 217.052C245.216 217.085 245.247 217.136 245.257 217.193C245.263 217.222 245.263 217.252 245.257 217.281C245.251 217.31 245.239 217.337 245.222 217.362C245.205 217.386 245.184 217.407 245.159 217.422C245.134 217.438 245.106 217.449 245.077 217.454C244.288 217.573 243.491 217.63 242.693 217.624C240.567 217.624 237.494 217.223 235.458 215.229C232.028 217.323 228.385 219.043 224.592 220.359H224.522C224.475 220.356 224.43 220.339 224.393 220.311C224.356 220.282 224.328 220.243 224.312 220.199C224.302 220.145 224.312 220.089 224.339 220.041C224.367 219.993 224.41 219.957 224.462 219.938Z" fill="#C9DEFF"/>
<path d="M213.167 112.118L92.7274 43.804C87.9777 41.1588 82.749 41.1188 78.8574 43.7038L78.6678 43.8341C77.845 44.4184 77.1909 45.211 76.772 46.1314C76.3531 47.0518 76.1844 48.0672 76.283 49.0743C76.4127 51.7796 104.123 178.107 104.123 178.107L214.334 240.609C221.668 244.777 229.302 240.539 229.362 232.262L229.97 140.804C230.04 129.411 223.275 117.849 213.167 112.118Z" fill="url(#paint1_linear_3223_4709)"/>
<path d="M196.672 121.887L84.4951 58.2224L82.1701 56.8998L80.6634 56.0482C79.304 55.2654 78.1798 54.1293 77.409 52.7593C76.6381 51.3893 76.2491 49.8361 76.2829 48.2629V53.5433L75.4846 167.045C75.5543 171.262 76.7103 175.388 78.8402 179.023C80.9701 182.658 84.0012 185.677 87.6383 187.786L197.87 250.368C205.214 254.536 212.837 250.298 212.897 242.022L213.506 150.563C213.556 139.171 206.78 127.618 196.672 121.887Z" fill="url(#paint2_linear_3223_4709)"/>
<path d="M247.762 248.795C247.862 234.176 237.284 218.736 224.153 214.377C218.934 212.634 214.105 212.895 210.183 214.748L207.459 216.061L235.788 267.922L238.572 266.539C244.1 263.534 247.682 257.221 247.762 248.795Z" fill="#CBCFD5"/>
<path opacity="0.06" d="M221.498 213.656C220.75 213.506 220.012 213.386 219.283 213.305L212.298 215.55L212.697 216.492L221.498 213.656Z" fill="black"/>
<path opacity="0.06" d="M225.43 214.849L213.656 218.656L214.055 219.598L226.807 215.46C226.378 215.249 225.909 215.039 225.43 214.849Z" fill="black"/>
<path opacity="0.06" d="M229.731 216.993L214.973 221.762L215.362 222.704L230.848 217.694C230.479 217.454 230.1 217.223 229.731 216.993Z" fill="black"/>
<path opacity="0.06" d="M233.193 219.407L216.23 224.868L216.629 225.8L234.121 220.149L233.193 219.407Z" fill="black"/>
<path opacity="0.06" d="M236.097 221.992L217.587 228.004L217.986 228.936L236.945 222.834L236.097 221.992Z" fill="black"/>
<path opacity="0.06" d="M238.591 224.718L218.904 231.08L219.293 232.012L239.25 225.559L238.591 224.718Z" fill="black"/>
<path opacity="0.06" d="M240.777 227.553L220.211 234.176L220.611 235.108L241.346 228.415C241.156 228.164 240.957 227.834 240.777 227.553Z" fill="black"/>
<path opacity="0.06" d="M242.613 230.479L221.519 237.292L221.918 238.224L243.122 231.381L242.613 230.479Z" fill="black"/>
<path opacity="0.06" d="M244.189 233.495L222.816 240.398L223.215 241.33L244.589 234.427L244.189 233.495Z" fill="black"/>
<path opacity="0.06" d="M245.497 236.601L224.143 243.505L224.542 244.436L245.836 237.563C245.766 237.242 245.616 236.922 245.497 236.601Z" fill="black"/>
<path opacity="0.06" d="M246.514 239.807L225.46 246.611L225.849 247.543L246.804 240.789C246.694 240.459 246.604 240.128 246.514 239.807Z" fill="black"/>
<path opacity="0.06" d="M247.253 243.094L226.807 249.717L227.206 250.649L247.452 244.116C247.363 243.775 247.313 243.434 247.253 243.094Z" fill="black"/>
<path opacity="0.06" d="M247.662 246.49L228.074 252.823L228.473 253.754L247.722 247.542C247.715 247.195 247.695 246.844 247.662 246.49Z" fill="black"/>
<path opacity="0.06" d="M247.702 250.007L229.391 255.919L229.781 256.861L247.622 251.099C247.652 250.739 247.682 250.378 247.702 250.007Z" fill="black"/>
<path opacity="0.06" d="M231.377 259.876L247.023 254.867C247.123 254.486 247.193 254.105 247.273 253.714L230.878 259.015L231.377 259.876Z" fill="black"/>
<path opacity="0.06" d="M233.014 262.882L245.646 258.804C245.836 258.394 246.005 257.983 246.175 257.562L232.515 261.971L233.014 262.882Z" fill="black"/>
<path opacity="0.06" d="M234.65 265.878L242.633 263.283C243.063 262.826 243.463 262.341 243.83 261.83L234.121 264.966L234.65 265.878Z" fill="black"/>
<path d="M221.718 215.55C208.586 211.161 197.86 219.448 197.77 234.066C197.68 248.685 208.237 264.125 221.379 268.483C234.52 272.842 245.247 264.586 245.327 249.977C245.407 235.369 234.86 219.948 221.718 215.55Z" fill="#DEE0E4"/>
<path opacity="0.4" d="M218.934 217.564C219.783 217.739 220.62 217.97 221.439 218.255C233.133 222.263 242.663 236.29 242.683 249.386C242.683 255.398 240.687 260.458 237.025 263.584C233.642 266.489 229.042 267.521 224.153 266.479C223.308 266.297 222.475 266.063 221.658 265.778C209.954 261.77 200.424 247.743 200.404 234.657C200.404 228.645 202.4 223.636 206.062 220.449C209.445 217.544 214.045 216.522 218.934 217.564ZM218.934 216.902C208.138 214.618 199.776 222.032 199.786 234.527C199.786 248.003 209.554 262.271 221.568 266.409C222.408 266.701 223.264 266.942 224.133 267.131C234.93 269.415 243.291 262.001 243.281 249.506C243.281 236.03 233.513 221.762 221.499 217.624C220.659 217.332 219.803 217.091 218.934 216.902Z" fill="white"/>
<path d="M220.63 241.942L227.805 252.121C228.748 251.269 229.493 250.218 229.986 249.044C230.479 247.87 230.709 246.601 230.659 245.328C230.609 242.207 229.64 239.17 227.875 236.601L220.63 241.942Z" fill="#EAEDF1"/>
<path d="M220.111 242.332L212.937 247.613L220.022 253.173L227.146 252.392L220.111 242.332Z" fill="#EAEDF1"/>
<path d="M219.842 241.35L227.246 235.92L220.501 230.619L213.576 245.999L219.842 241.35Z" fill="#EAEDF1"/>
<path d="M209.514 238.184C209.565 241.301 210.53 244.333 212.288 246.901L219.513 230.87L209.534 238.234L209.514 238.184Z" fill="#EAEDF1"/>
<path opacity="0.06" d="M218.216 230.168L218.315 214.718C206.78 212.714 197.85 220.73 197.76 234.096C197.751 236.533 198.015 238.963 198.548 241.34L199.806 242.052C203.857 244.476 218.126 243.084 218.216 230.168Z" fill="black"/>
<path d="M203.687 142.046L146.082 112.549C144.754 111.75 143.649 110.627 142.873 109.282C142.096 107.938 141.672 106.417 141.642 104.863L140.993 15.0178C141.024 14.3342 141.221 13.6685 141.567 13.079C141.913 12.4895 142.397 11.9941 142.978 11.6362C143.559 11.2783 144.219 11.0688 144.899 11.026C145.579 10.9832 146.259 11.1085 146.88 11.3907L205.493 40.4475C206.821 41.2456 207.926 42.3695 208.703 43.7138C209.479 45.0582 209.903 46.5787 209.934 48.1326L209.175 138.379C209.193 139.04 209.043 139.695 208.74 140.282C208.436 140.87 207.989 141.37 207.441 141.736C206.893 142.103 206.26 142.323 205.604 142.378C204.947 142.432 204.288 142.318 203.687 142.046Z" fill="url(#paint3_linear_3223_4709)"/>
<path d="M203.398 141.996L144.785 112.939C143.456 112.141 142.352 111.017 141.575 109.673C140.799 108.329 140.375 106.808 140.344 105.254L140.943 15.4988C140.943 12.4929 142.939 11.0401 145.463 12.2725L204.066 41.3293C205.396 42.1268 206.501 43.2504 207.28 44.5947C208.058 45.9389 208.484 47.4597 208.517 49.0143L207.918 138.77C207.898 141.806 205.852 143.259 203.398 141.996Z" fill="#80C3FF"/>
<path d="M204.006 56.5391C199.446 54.2747 195.784 47.9423 195.814 42.3915L153.396 21.3503C153.346 26.811 149.734 29.4662 145.264 27.3621L144.795 97.91C149.205 100.225 152.777 106.336 152.777 111.757L195.225 132.798C195.345 127.378 199.027 124.783 203.537 127.027L204.006 56.489V56.5391Z" fill="#2A7CDD"/>
<path d="M162.187 56.1782L155.95 62.0196L164.592 69.6445L169.96 68.9732L162.187 56.1782Z" fill="#FFCF00"/>
<path d="M168.294 68.1416L162.187 56.1782L175.957 63.0216L168.294 68.1416Z" fill="#FFDF00"/>
<path d="M174.53 62.3103L168.294 68.1417L174.251 74.7847L182.303 75.0953L174.53 62.3103Z" fill="#FFCF00"/>
<path d="M186.874 68.4424L178.661 73.2919L184.668 79.9549L192.99 80.4058L186.874 68.4424Z" fill="#FFCF00"/>
<path d="M180.637 74.2737L174.53 62.3103L186.874 68.4423L180.637 74.2737Z" fill="#FFDF00"/>
<path d="M174.281 98.982L169.182 68.5826L155.95 62.0198L174.281 98.982Z" fill="#FFD700"/>
<path d="M174.281 98.982L178.661 73.2917L192.99 80.4057L174.281 98.982Z" fill="#FFD700"/>
<path d="M174.281 98.9819L168.294 68.1416L180.637 74.2736L174.281 98.9819Z" fill="#FFDF00"/>
<path opacity="0.06" d="M140.783 39.135L140.494 82.6401L153.236 106.186L156.709 104.463C163.604 100.725 167.685 91.5675 167.785 81.077C167.934 63.7732 156.01 45.5876 140.783 39.135Z" fill="black"/>
<path d="M165.5 80.5961C165.62 62.3905 152.458 43.203 136.104 37.7323C129.608 35.5681 123.601 35.8887 118.691 38.2032L115.299 39.7963L150.592 104.363L154.055 102.639C160.95 98.9119 165.43 91.0766 165.5 80.5961Z" fill="#F7CD23"/>
<path opacity="0.06" d="M132.831 36.8505C131.921 36.6531 131.002 36.5059 130.077 36.4097L121.435 39.1951L121.924 40.3674L132.831 36.8505Z" fill="black"/>
<path opacity="0.06" d="M137.73 38.3335L123.032 43.0627L123.531 44.235L139.496 39.095C138.907 38.7944 138.319 38.5639 137.73 38.3335Z" fill="black"/>
<path opacity="0.06" d="M143.078 40.9985L124.698 46.9301L125.187 48.1024L144.465 41.8803C143.986 41.5697 143.537 41.2791 143.078 40.9985Z" fill="black"/>
<path opacity="0.06" d="M147.379 44.0046L126.334 50.818L126.823 51.9902L148.536 44.9765C148.157 44.6259 147.768 44.3152 147.379 44.0046Z" fill="black"/>
<path opacity="0.06" d="M150.971 47.2207L127.931 54.6653L128.43 55.8375L151.969 48.2327C151.67 47.892 151.34 47.5513 150.971 47.2207Z" fill="black"/>
<path opacity="0.06" d="M154.114 50.6174L129.597 58.5329L130.086 59.7052L154.972 51.6895C154.693 51.3088 154.404 50.9581 154.114 50.6174Z" fill="black"/>
<path opacity="0.06" d="M156.799 54.1443L131.224 62.4004L131.723 63.5627L157.537 55.2264C157.298 54.8256 157.048 54.495 156.799 54.1443Z" fill="black"/>
<path opacity="0.06" d="M159.114 57.8315L132.86 66.3081L133.349 67.4704L159.752 58.9537C159.543 58.5329 159.323 58.1622 159.114 57.8315Z" fill="black"/>
<path opacity="0.06" d="M161.079 61.5488L134.487 70.1356L134.986 71.2979L161.598 62.7011C161.428 62.3203 161.259 61.9296 161.079 61.5488Z" fill="black"/>
<path opacity="0.06" d="M162.706 65.4163L136.123 74.0031L136.612 75.1653L163.125 66.6086C162.945 66.2078 162.855 65.8471 162.706 65.4163Z" fill="black"/>
<path opacity="0.06" d="M163.943 69.394L137.75 77.8706L138.249 79.0429L164.292 70.6365C164.192 70.2156 164.093 69.8549 163.943 69.394Z" fill="black"/>
<path opacity="0.06" d="M164.941 73.4922L139.436 81.7283L139.925 82.9006L165.141 74.7647C165.031 74.3338 164.941 73.913 164.941 73.4922Z" fill="black"/>
<path opacity="0.06" d="M165.4 77.7205L140.993 85.5959L141.492 86.7682L165.44 79.033C165.46 78.5922 165.43 78.1613 165.4 77.7205Z" fill="black"/>
<path opacity="0.06" d="M165.45 82.0989L142.649 89.4633L143.138 90.6356L165.35 83.4615C165.39 83.0107 165.43 82.5598 165.45 82.0989Z" fill="black"/>
<path opacity="0.06" d="M145.124 94.3931L164.612 88.1008C164.722 87.6299 164.821 87.1489 164.911 86.668L144.505 93.2609L145.124 94.3931Z" fill="black"/>
<path opacity="0.06" d="M147.17 98.1202L162.886 93.0503C163.125 92.5494 163.345 92.0484 163.544 91.5073L146.581 96.9981L147.17 98.1202Z" fill="black"/>
<path opacity="0.06" d="M149.205 101.858L159.183 98.6314C159.711 98.0577 160.207 97.4556 160.67 96.8279L148.576 100.726L149.205 101.858Z" fill="black"/>
<path d="M151.912 103.666C164.446 96.0344 166.089 75.7393 155.58 58.3357C145.071 40.9322 126.39 33.0105 113.855 40.6423C101.32 48.274 99.678 68.5691 110.187 85.9726C120.696 103.376 139.377 111.298 151.912 103.666Z" fill="#FFDE05"/>
<path opacity="0.4" d="M129.637 41.7001C130.692 41.9279 131.731 42.219 132.751 42.5718C147.309 47.5816 159.173 64.9656 159.193 81.3176C159.193 88.8222 156.709 95.1045 152.159 99.0021C147.948 102.619 142.25 103.902 136.133 102.599C135.078 102.381 134.038 102.093 133.02 101.737C118.452 96.7277 106.587 79.3337 106.567 62.9817C106.567 55.4771 109.062 49.2048 113.552 45.2972C117.773 41.6801 123.461 40.4076 129.587 41.7001H129.637ZM129.587 40.8885C116.147 38.043 105.739 47.271 105.759 62.8314C105.759 79.6042 117.923 97.3689 132.87 102.519C133.918 102.885 134.988 103.183 136.073 103.411C149.564 106.266 159.952 97.0283 159.952 81.4779C159.952 64.7051 147.788 46.9303 132.84 41.7803C131.789 41.4174 130.716 41.1195 129.627 40.8885H129.587Z" fill="white"/>
<path d="M131.753 72.0592L140.674 84.734C141.853 83.674 142.783 82.3652 143.399 80.9014C144.015 79.4377 144.301 77.8552 144.236 76.2675C144.169 72.3842 142.965 68.6068 140.773 65.4062L131.793 72.0592H131.753Z" fill="#FFEB47"/>
<path d="M131.094 72.5403L122.164 79.1232L130.984 86.0467L139.855 85.0648L131.094 72.5403Z" fill="#FFEB47"/>
<path d="M130.765 71.328L139.985 64.5648L131.583 57.9619L122.962 77.1094L130.765 71.328Z" fill="#FFEB47"/>
<path d="M117.913 67.4204C117.973 71.2971 119.174 75.0693 121.365 78.2616L130.346 58.2224L117.913 67.4004V67.4204Z" fill="#FFEB47"/>
<path opacity="0.06" d="M103.185 63.6128C104.321 68.6545 106.194 73.4996 108.743 77.9909L150.153 100.916C153.835 99.8203 157.153 97.7427 159.752 94.904L103.185 63.6128Z" fill="black"/>
<path d="M213.167 112.118L209.415 109.983V111.647L211.111 112.649C221.409 118.46 228.324 130.233 228.244 141.826L227.685 215.88C228.264 216.171 228.943 216.552 229.511 216.882L229.99 140.834C230.04 129.411 223.275 117.849 213.167 112.118Z" fill="url(#paint4_linear_3223_4709)"/>
<path d="M198.708 120.634L158.146 97.5892L103.504 66.6387L81.3421 54.0641C78.129 52.2706 77.2908 47.6616 79.8453 45.8079L80.1546 45.5875C83.5872 43.0926 88.3469 43.0526 92.6675 45.4673L104.851 52.3607C105.021 51.8698 105.19 51.3588 105.38 50.9279L92.7274 43.804C87.9777 41.1588 82.749 41.1188 78.8574 43.7038L78.6678 43.8341C77.845 44.4184 77.1909 45.211 76.772 46.1314C76.3531 47.0518 76.1844 48.0672 76.283 49.0743C76.283 49.425 76.1433 54.6352 82.0006 57.9016C87.3989 60.8373 95.0923 65.2259 104.073 70.2958C119.549 79.063 138.768 89.9943 156.35 99.9738C171.517 108.581 185.477 116.486 194.746 121.666C200.554 124.913 212.478 135.694 212.388 148.338C212.269 166.865 208.088 232.242 204.615 251.941C207.497 251.555 210.25 250.502 212.658 248.865C215.352 246.921 215.332 241.11 215.332 241.11V223.435L215.831 149.811C215.921 138.209 209.006 126.446 198.708 120.634Z" fill="url(#paint5_linear_3223_4709)"/>
<path d="M213.167 112.118L209.415 109.983V111.647L211.111 112.649C221.409 118.46 228.324 130.233 228.244 141.826L227.685 215.88C228.264 216.171 228.943 216.552 229.511 216.882L229.99 140.834C230.04 129.411 223.275 117.849 213.167 112.118Z" fill="url(#paint6_linear_3223_4709)"/>
<path d="M196.672 121.887L84.4951 58.2224L82.1701 56.8998L80.6634 56.0482C79.304 55.2654 78.1798 54.1293 77.409 52.7593C76.6381 51.3893 76.2491 49.8361 76.2829 48.2629V53.5433L75.4846 167.045C75.5543 171.262 76.7103 175.388 78.8402 179.023C80.9701 182.658 84.0012 185.677 87.6383 187.786L197.87 250.368C205.214 254.536 212.837 250.298 212.897 242.022L213.506 150.563C213.556 139.171 206.78 127.618 196.672 121.887Z" fill="url(#paint7_linear_3223_4709)"/>
<path d="M230.2 175.582L229.741 175.441L216.699 182.235C215.914 182.635 215.031 182.802 214.154 182.716C213.389 182.574 212.649 182.317 211.959 181.954L195.994 172.937C191.224 170.231 186.255 172.937 186.225 178.357C186.272 181.485 187.123 184.548 188.697 187.248C190.27 189.948 192.513 192.194 195.205 193.767L214.164 204.548L229.531 196.533L231.028 176.494C231.098 176.063 230.738 175.792 230.2 175.582Z" fill="#CFE6FF"/>
<path d="M216.998 184.078C216.19 184.507 215.273 184.684 214.364 184.589C213.603 184.484 212.865 184.254 212.179 183.908L194.547 173.888C189.777 171.183 184.808 173.889 184.778 179.309C184.825 182.437 185.677 185.5 187.25 188.2C188.824 190.9 191.066 193.146 193.759 194.719L212.079 205.12C212.762 205.425 213.479 205.647 214.214 205.781C215.132 205.918 216.07 205.734 216.869 205.26L230 198.446C230.31 198.281 230.567 198.032 230.743 197.727C230.919 197.423 231.008 197.075 230.998 196.723L231.138 176.443C231.138 176.443 231.078 176.614 230.739 176.794L216.998 184.078Z" fill="url(#paint8_linear_3223_4709)"/>
<path d="M196.166 189.328C198.499 188.237 199.124 184.621 197.562 181.249C196 177.877 192.842 176.028 190.508 177.118C188.175 178.208 187.55 181.825 189.112 185.197C190.674 188.568 193.832 190.418 196.166 189.328Z" fill="white"/>
<path fill-rule="evenodd" clip-rule="evenodd" d="M167.828 159.041L167.748 158.581C167.331 156.133 166.367 153.811 164.926 151.789C163.485 149.767 161.606 148.097 159.428 146.904L149.98 141.75L119.829 125.298C115.424 122.891 112.189 123.87 111.38 127.846L111.31 128.225C111.147 129.216 111.07 130.218 111.08 131.222L111 143.538C110.993 144.445 111.033 145.352 111.12 146.255V146.275C111.376 148.936 112.285 151.492 113.766 153.717C115.247 155.942 117.254 157.767 119.609 159.031L146.575 173.754H146.655L148.223 174.603C148.472 174.733 148.672 174.603 148.682 174.314L148.812 154.336C148.805 154.178 148.76 154.025 148.682 153.887C148.604 153.75 148.494 153.634 148.362 153.547L146.714 152.648C146.465 152.508 146.265 152.648 146.265 152.938L146.145 170.428L120.268 156.304C118.228 155.195 116.527 153.553 115.346 151.553C114.166 149.552 113.551 147.269 113.567 144.947L113.657 132.49C113.657 127.876 116.163 126.237 120.448 128.575L154.624 147.274L158.769 149.541C160.805 150.622 162.504 152.242 163.68 154.224C164.857 156.206 165.466 158.474 165.441 160.779L165.361 173.245C165.361 177.83 162.874 179.598 158.589 177.241L157.71 176.771L156.662 176.212L156.172 175.942C155.923 175.812 155.713 175.942 155.713 176.232V178.239C155.722 178.395 155.767 178.547 155.845 178.682C155.923 178.818 156.032 178.933 156.162 179.019L156.492 179.198L157.311 179.648L157.77 179.898L159.218 180.687C164.042 183.314 167.208 181.995 167.778 177.211C167.877 176.362 167.931 175.508 167.937 174.653L168.017 162.327C168.032 161.229 167.968 160.13 167.828 159.041ZM136.897 143.069L135.249 142.17C134.999 142.03 134.8 142.17 134.79 142.449L134.71 155.315C134.682 156.279 134.907 157.233 135.363 158.083C135.818 158.933 136.489 159.649 137.307 160.16L138.016 160.549C138.266 160.689 138.476 160.549 138.476 160.259V158.571C138.468 158.414 138.424 158.26 138.346 158.123C138.268 157.986 138.158 157.869 138.026 157.782L137.197 157.333L137.297 143.848C137.294 143.696 137.256 143.547 137.187 143.412C137.118 143.277 137.019 143.16 136.897 143.069ZM140.502 158.471V150.97L140.472 150.96C140.472 150.67 140.682 150.53 140.932 150.67L142.58 151.569C142.711 151.655 142.82 151.77 142.898 151.905C142.976 152.041 143.021 152.192 143.03 152.348V160.459L143.829 160.889C143.966 160.964 144.078 161.079 144.149 161.218C144.186 161.29 144.219 161.363 144.248 161.438C144.257 161.514 144.257 161.592 144.248 161.668V163.356C144.248 163.636 144.039 163.776 143.789 163.636L143.1 163.256C142.289 162.752 141.623 162.046 141.168 161.207C140.713 160.369 140.483 159.426 140.502 158.471ZM132.822 141.61V141.56V141.461V141.281C132.81 141.208 132.786 141.137 132.752 141.071C132.758 141.048 132.758 141.024 132.752 141.001C132.735 140.964 132.711 140.93 132.682 140.901L132.622 140.821L132.563 140.741L132.403 140.621L130.515 139.623H130.455H130.345C130.297 139.607 130.244 139.607 130.196 139.623L124.323 142.28C123.684 142.689 123.614 143.848 124.173 144.987L130.006 155.974C130.043 156.032 130.087 156.086 130.136 156.134C130.182 156.183 130.236 156.223 130.295 156.254L132.223 157.313C132.269 157.326 132.317 157.326 132.363 157.313H132.413H132.493L132.573 157.223C132.579 157.207 132.579 157.189 132.573 157.173C132.583 157.134 132.583 157.092 132.573 157.053V157.003C132.571 156.875 132.541 156.748 132.483 156.634L126.281 144.767L132.523 141.64C132.571 141.661 132.624 141.67 132.676 141.664C132.729 141.659 132.779 141.64 132.822 141.61ZM142.61 149.172L140.972 148.273C140.743 148.15 140.571 147.942 140.492 147.694C140.488 147.627 140.488 147.56 140.492 147.494V145.596C140.492 145.316 140.692 145.176 140.942 145.316L142.58 146.215C142.711 146.301 142.819 146.416 142.898 146.551C142.976 146.687 143.021 146.838 143.03 146.994V148.892C143.04 148.955 143.04 149.019 143.03 149.082C143.012 149.12 142.986 149.153 142.953 149.178C142.921 149.204 142.883 149.222 142.842 149.231C142.802 149.24 142.759 149.239 142.719 149.229C142.679 149.218 142.642 149.199 142.61 149.172ZM122.636 135.807C122.627 135.651 122.582 135.499 122.504 135.364C122.426 135.229 122.317 135.113 122.186 135.028L120.538 134.139C120.492 134.113 120.441 134.096 120.388 134.089H120.328H120.238C120.202 134.113 120.174 134.148 120.158 134.189C120.144 134.251 120.144 134.316 120.158 134.379L120.049 150.081C120.04 150.157 120.04 150.234 120.049 150.311C120.116 150.536 120.261 150.731 120.458 150.86L122.096 151.759C122.346 151.899 122.546 151.759 122.546 151.479L122.656 135.787L122.636 135.807ZM158.839 166.433C158.843 166.459 158.843 166.486 158.839 166.513C158.419 168.56 156.832 169.12 154.634 167.931L153.186 167.132L150.48 165.654C150.349 165.568 150.24 165.453 150.162 165.317C150.084 165.182 150.039 165.03 150.03 164.874V162.957V162.877C150.027 162.84 150.027 162.803 150.03 162.767C150.051 162.729 150.078 162.696 150.11 162.667H150.23C150.266 162.661 150.303 162.661 150.34 162.667H150.41L153.116 164.145L154.235 164.755C155.763 165.594 156.552 165.194 156.552 163.596V163.536C156.557 162.776 156.346 162.03 155.943 161.386C155.539 160.742 154.961 160.227 154.275 159.9L153.146 159.291L150.44 157.812C150.373 157.775 150.312 157.728 150.26 157.672C150.154 157.553 150.072 157.414 150.02 157.263C150.011 157.183 150.011 157.103 150.02 157.023V155.115C150.015 155.056 150.026 154.997 150.05 154.942C150.074 154.888 150.112 154.841 150.16 154.806C150.208 154.777 150.264 154.761 150.32 154.761C150.376 154.761 150.431 154.777 150.48 154.806L153.186 156.284L154.584 157.043C155.777 157.702 156.792 158.641 157.541 159.779C158.291 160.917 158.753 162.22 158.889 163.576C158.978 164.494 158.961 165.419 158.839 166.333V166.433Z" fill="white"/>
<path d="M170.355 267.264L170.233 270.243L171.631 270.691L171.786 267.387L170.355 267.264Z" fill="#FEC6BD"/>
<path d="M170.388 269.891C169.923 269.991 169.483 270.185 169.096 270.462C168.284 270.984 166.659 270.707 166.269 271.36C165.879 272.012 166.488 272.086 167.796 272.176C169.423 272.24 171.053 272.177 172.671 271.988C173.093 271.866 173.069 270.022 171.858 269.491L170.388 269.891Z" fill="#30343A"/>
<path d="M166.707 248.174L169.86 268.235L172.216 268.154L173.378 246.991C173.785 243.683 173.851 240.342 173.573 237.021L166.707 248.174Z" fill="#255299"/>
<path d="M166.707 248.174L169.86 268.235L172.216 268.154L173.378 246.991C173.785 243.683 173.851 240.342 173.573 237.021L166.707 248.174Z" fill="url(#paint9_linear_3223_4709)"/>
<path d="M161.264 268.055L161.142 271.034L162.54 271.483L162.702 268.178L161.264 268.055Z" fill="#FEC6BD"/>
<path d="M161.296 270.683C160.831 270.776 160.39 270.968 160.004 271.246C159.192 271.768 157.567 271.49 157.185 272.151C156.803 272.812 157.396 272.877 158.704 272.967C160.332 273.04 161.962 272.977 163.579 272.779C164.002 272.657 163.977 270.813 162.767 270.291L161.296 270.683Z" fill="#30343A"/>
<path d="M160.922 236.344C160.922 236.344 160.589 247.717 160.817 256.283C161.044 264.849 160.922 268.708 160.922 268.708L162.945 268.937C162.945 268.937 164.977 263.642 166.658 258.233C167.733 254.554 168.406 250.768 168.665 246.942C168.665 246.942 174.613 241.549 173.54 234.786L160.922 236.344Z" fill="#2A60B6"/>
<path d="M162.003 204.258C162.003 204.258 161.637 206.175 161.564 207.252C161.418 209.585 162.661 211.331 163.287 211.331C163.912 211.331 164.749 211.208 164.749 211.208L165.886 212.71L168.56 212.318L166.845 208.598C166.845 208.598 167.698 205.179 166.577 204.772C165.072 204.452 163.541 204.28 162.003 204.258Z" fill="#FEC6BD"/>
<path d="M168.869 211.878C168.869 211.878 166.139 211.568 165.424 212.179C164.709 212.791 162.572 215.133 161.703 219.897C161.321 222.01 160.89 236.41 160.89 236.41C160.89 236.41 174.223 251.91 179 251.266C179 251.266 175.06 226.456 173.264 219.954C171.469 213.452 168.869 211.878 168.869 211.878Z" fill="#6DB3FA"/>
<path d="M153.188 222.19L154.237 221.742C154.375 221.684 154.391 221.489 154.285 221.309L152.587 218.551C152.547 218.47 152.482 218.404 152.401 218.364C152.32 218.324 152.228 218.312 152.14 218.331L151.092 218.779C150.962 218.837 150.937 219.032 151.051 219.212L152.749 221.978C152.789 222.057 152.853 222.121 152.933 222.16C153.012 222.198 153.102 222.209 153.188 222.19Z" fill="#30343A"/>
<path d="M153.375 223.341C153.375 223.341 151.863 222.402 151.863 221.782C151.863 221.162 151.286 220.019 151.904 220.15C152.522 220.281 154.188 222.451 154.188 222.451L153.375 223.341Z" fill="#FEC6BD"/>
<path d="M161.109 230.226L160.979 233.685C160.979 233.685 163.628 235.871 166.667 230.421C168.292 227.493 169.51 219.979 169.51 219.979L161.109 230.226Z" fill="url(#paint10_linear_3223_4709)"/>
<path d="M163.254 217.939C162.613 220.39 161.821 222.799 160.882 225.151C160.736 225.535 154.325 222.328 154.325 222.328L153.058 223.495C153.058 223.495 162.076 234.435 165.285 229.206C167.098 226.351 168.527 223.267 169.535 220.036L163.254 217.939Z" fill="#6DB2F9"/>
<path d="M162.946 202.528C162.133 202.969 161.207 205.677 161.597 205.677C161.987 205.677 163.547 205.677 163.961 205.734L164.237 206.787C164.237 206.787 164.294 206.036 164.952 206.232C165.61 206.428 165.31 207.668 164.652 207.864C164.576 208.833 164.811 209.8 165.321 210.626C165.831 211.452 166.59 212.094 167.487 212.457C170.737 213.95 169.803 221.61 174.735 219.799C179.666 217.988 177.383 215.426 173.8 211.168C170.217 206.909 170.737 205.636 169.031 203.67C168.273 202.849 167.272 202.294 166.176 202.089C165.08 201.883 163.948 202.037 162.946 202.528Z" fill="#37475E"/>
<path d="M106.637 163.582L123.541 173.441C121.166 172.059 118.003 172.049 114.48 173.662L97.5769 163.793C101.079 162.179 104.272 162.189 106.637 163.582Z" fill="#80C3FF"/>
<path d="M94.0945 159.494L111.058 169.364C110.683 169.138 110.285 168.953 109.87 168.813C107.216 167.811 103.883 168.422 100.431 170.406C99.4525 170.975 98.5185 171.618 97.6368 172.329L80.7334 162.47C81.6168 161.761 82.5506 161.118 83.5274 160.546C86.9599 158.542 90.3127 157.991 92.9769 158.943C93.365 159.093 93.739 159.278 94.0945 159.494Z" fill="url(#paint11_linear_3223_4709)"/>
<path d="M74.9059 162.38C86.5208 155.647 96.1599 160.156 97.5868 172.329C98.4685 171.618 99.4025 170.975 100.381 170.406C103.803 168.402 107.166 167.851 109.82 168.812C110.906 169.225 111.886 169.874 112.692 170.712C113.498 171.551 114.109 172.558 114.48 173.662C121.994 170.215 127.881 174.163 127.911 183.06C127.911 192.579 121.246 204.202 113.003 208.981L49.8202 245.613C38.844 251.965 29.9333 246.855 29.8634 234.22C29.7936 221.586 38.7143 206.165 49.6606 199.793C50.5242 199.292 51.4173 198.843 52.3348 198.45C53.7417 184.694 63.311 169.103 74.9059 162.38Z" fill="url(#paint12_linear_3223_4709)"/>
<path d="M74.2075 150.937C70.0665 148.513 64.3289 148.853 58.0026 152.52C46.4177 159.234 36.8484 174.834 35.4614 188.591L52.3648 198.45C53.7418 184.693 63.3411 169.103 74.906 162.38C81.2223 158.713 86.9699 158.372 91.1109 160.797L74.2075 150.937Z" fill="url(#paint13_linear_3223_4709)"/>
<path d="M35.7008 246.995L18.7974 237.186C15.2252 235.102 13.01 230.683 13 224.401C13 211.776 21.8409 196.346 32.7872 189.984C33.6487 189.479 34.542 189.03 35.4614 188.641L52.3648 198.5C51.4472 198.893 50.5542 199.342 49.6906 199.843C38.7443 206.125 29.8635 221.586 29.8934 234.18C29.9134 240.492 32.1286 244.911 35.7008 246.995Z" fill="url(#paint14_linear_3223_4709)"/>
<path d="M91.5199 188.902L86.2313 185.896C84.0561 184.734 81.2421 184.844 78.0989 186.527C71.2937 190.194 65.7756 199.903 65.7756 208.21C65.7756 212.588 67.3123 215.674 69.767 217.107L75.0256 220.113L91.5199 188.902Z" fill="url(#paint15_linear_3223_4709)"/>
<path d="M92.583 209.389C97.0381 200.707 96.4799 191.512 91.3361 188.85C86.1923 186.189 78.4108 191.07 73.9557 199.752C69.5005 208.434 70.0588 217.63 75.2026 220.291C80.3464 222.952 88.1279 218.072 92.583 209.389Z" fill="#CFE6FF"/>
<path d="M86.5307 200.685C86.5307 198.48 85.0739 197.489 83.2678 198.46C82.2984 199.083 81.4941 199.932 80.924 200.936C80.3539 201.939 80.035 203.067 79.9949 204.222C79.9949 205.785 80.7333 206.737 81.8109 206.807V211.135C81.8109 212.137 82.4695 212.558 83.2678 212.137C83.6967 211.86 84.0524 211.483 84.3044 211.038C84.5564 210.593 84.6971 210.094 84.7146 209.582V205.234C85.8229 203.972 86.4643 202.366 86.5307 200.685Z" fill="#2A60B7"/>
<defs>
<linearGradient id="paint0_linear_3223_4709" x1="267.06" y1="200.711" x2="221.478" y2="199.936" gradientUnits="userSpaceOnUse">
<stop stop-color="#CDEAFF"/>
<stop offset="1" stop-color="#F4FAFF"/>
</linearGradient>
<linearGradient id="paint1_linear_3223_4709" x1="75.5157" y1="125.218" x2="230.007" y2="126.712" gradientUnits="userSpaceOnUse">
<stop offset="0.19" stop-color="#6097F9"/>
<stop offset="0.99" stop-color="#86C4FB"/>
</linearGradient>
<linearGradient id="paint2_linear_3223_4709" x1="75.4094" y1="136.199" x2="213.453" y2="137.533" gradientUnits="userSpaceOnUse">
<stop stop-color="#3978FB"/>
<stop offset="0.19" stop-color="#6097F9"/>
<stop offset="0.99" stop-color="#86C4FB"/>
</linearGradient>
<linearGradient id="paint3_linear_3223_4709" x1="143.83" y1="20.6897" x2="197.269" y2="124.023" gradientUnits="userSpaceOnUse">
<stop stop-color="#80B8EC"/>
<stop offset="0.15" stop-color="#60A1F9"/>
<stop offset="1" stop-color="#68A3F0"/>
</linearGradient>
<linearGradient id="paint4_linear_3223_4709" x1="5176.73" y1="10760.6" x2="3739.12" y2="10910.9" gradientUnits="userSpaceOnUse">
<stop stop-color="#CDEAFF"/>
<stop offset="1" stop-color="#F4FAFF"/>
</linearGradient>
<linearGradient id="paint5_linear_3223_4709" x1="28038.9" y1="22552.9" x2="14477.9" y2="28353.5" gradientUnits="userSpaceOnUse">
<stop stop-color="#CDEAFF"/>
<stop offset="1" stop-color="#F4FAFF"/>
</linearGradient>
<linearGradient id="paint6_linear_3223_4709" x1="5211.58" y1="15531.2" x2="3625.02" y2="15727.9" gradientUnits="userSpaceOnUse">
<stop stop-color="#CDEAFF"/>
<stop offset="1" stop-color="#F4FAFF"/>
</linearGradient>
<linearGradient id="paint7_linear_3223_4709" x1="170.551" y1="108.091" x2="111.123" y2="175.003" gradientUnits="userSpaceOnUse">
<stop stop-color="#C0DCFF"/>
<stop offset="1" stop-color="#D2E5FF"/>
</linearGradient>
<linearGradient id="paint8_linear_3223_4709" x1="184.48" y1="182.151" x2="230.834" y2="182.599" gradientUnits="userSpaceOnUse">
<stop stop-color="#A8CDF7"/>
<stop offset="1" stop-color="#BED8FF"/>
</linearGradient>
<linearGradient id="paint9_linear_3223_4709" x1="167.812" y1="248.223" x2="171.559" y2="252.393" gradientUnits="userSpaceOnUse">
<stop stop-color="#133E91" stop-opacity="0.8"/>
<stop offset="1" stop-color="#133E91" stop-opacity="0"/>
</linearGradient>
<linearGradient id="paint10_linear_3223_4709" x1="167.65" y1="225.412" x2="161.279" y2="233.88" gradientUnits="userSpaceOnUse">
<stop stop-color="#133E91" stop-opacity="0.4"/>
<stop offset="1" stop-color="#133E91" stop-opacity="0"/>
</linearGradient>
<linearGradient id="paint11_linear_3223_4709" x1="80.6835" y1="165.416" x2="111.008" y2="165.416" gradientUnits="userSpaceOnUse">
<stop stop-color="#80C3FF"/>
<stop offset="0.52" stop-color="#7EBFFF"/>
<stop offset="1" stop-color="#78B4FF"/>
</linearGradient>
<linearGradient id="paint12_linear_3223_4709" x1="29.8934" y1="203.801" x2="127.911" y2="203.801" gradientUnits="userSpaceOnUse">
<stop stop-color="#68A3F0"/>
<stop offset="0.5" stop-color="#60A1F9"/>
<stop offset="1" stop-color="#6EB8F0"/>
</linearGradient>
<linearGradient id="paint13_linear_3223_4709" x1="4724.49" y1="7727.17" x2="2180.27" y2="9596.32" gradientUnits="userSpaceOnUse">
<stop stop-color="#80C3FF"/>
<stop offset="0.52" stop-color="#7EBFFF"/>
<stop offset="1" stop-color="#78B4FF"/>
</linearGradient>
<linearGradient id="paint14_linear_3223_4709" x1="53.4524" y1="203.691" x2="13.1586" y2="234.13" gradientUnits="userSpaceOnUse">
<stop offset="0.49" stop-color="#80C3FF"/>
<stop offset="1" stop-color="#78B4FF"/>
</linearGradient>
<linearGradient id="paint15_linear_3223_4709" x1="84.8543" y1="183.03" x2="67.4861" y2="218.895" gradientUnits="userSpaceOnUse">
<stop stop-color="#A8CDF7"/>
<stop offset="0.48" stop-color="#BED8FF"/>
<stop offset="0.97" stop-color="#ABCFF8"/>
<stop offset="1" stop-color="#AACEF7"/>
</linearGradient>
</defs>
</svg>
