<svg width="280" height="280" viewBox="0 0 280 280" fill="none" xmlns="http://www.w3.org/2000/svg">
<path d="M179.22 239.046C179.565 219.4 156.595 203.063 127.916 202.555C99.2373 202.047 75.7087 217.562 75.3638 237.208C75.0189 256.853 97.9883 273.191 126.667 273.699C155.346 274.206 178.875 258.692 179.22 239.046Z" fill="url(#paint0_linear_3223_4710)"/>
<path d="M179.22 236.19C179.565 216.544 156.596 200.206 127.917 199.699C99.2377 199.191 75.7092 214.705 75.3643 234.351C75.0193 253.997 97.9887 270.334 126.668 270.842C155.347 271.35 178.875 255.835 179.22 236.19Z" fill="url(#paint1_linear_3223_4710)"/>
<path d="M128.024 267.968C107.874 267.968 88.8322 259.289 81.7463 245.56C79.9923 242.35 79.0249 238.767 78.9243 235.107C78.8236 231.447 79.5926 227.816 81.1675 224.514C85.7883 214.492 96.7563 206.845 111.287 203.468C136.337 197.706 163.942 206.996 172.814 224.173C174.568 227.383 175.536 230.966 175.636 234.626C175.737 238.286 174.968 241.917 173.393 245.219C168.782 255.241 157.804 262.887 143.283 266.265C138.276 267.402 133.158 267.973 128.024 267.968ZM126.607 203.238C121.569 203.233 116.548 203.798 111.637 204.921C97.7444 208.148 86.8561 215.685 82.4849 225.185C81.0157 228.288 80.3002 231.695 80.3974 235.129C80.4945 238.563 81.4015 241.925 83.0437 244.938C91.6366 261.584 118.523 270.544 142.994 264.912C156.876 261.715 167.774 254.158 172.136 244.688C173.604 241.586 174.32 238.178 174.224 234.745C174.129 231.312 173.225 227.95 171.587 224.935C164.73 211.626 146.247 203.238 126.637 203.238H126.607Z" fill="url(#paint2_linear_3223_4710)"/>
<path d="M100.669 225.536C99.1287 222.619 97.0051 220.054 94.4313 218C78.593 226.929 71.1779 234.465 77.9443 248.706C78.2238 248.646 77.6549 248.706 77.9443 248.706C95.8186 247.634 107.116 238.123 100.669 225.536Z" fill="url(#paint3_radial_3223_4710)"/>
<path d="M156.255 224.51C217.699 224.51 267.51 174.699 267.51 113.255C267.51 51.8106 217.699 2 156.255 2C94.8106 2 45 51.8106 45 113.255C45 174.699 94.8106 224.51 156.255 224.51Z" fill="url(#paint4_linear_3223_4710)"/>
<path d="M85.7485 128.976C94.4212 103.04 108.024 78.9874 120.419 67.6929L120.769 68.0837C108.443 79.3181 94.9002 103.29 86.2575 129.146L85.7485 128.976Z" fill="#C9DEFF"/>
<path d="M122.375 63.1329C120.639 64.8366 120.04 68.4445 120.04 68.4445C120.04 68.4445 123.703 68.0536 125.429 66.4401C127.156 64.8266 127.176 63.4336 126.317 62.4915C125.459 61.5495 124.112 61.4793 122.375 63.1329Z" fill="#C9DEFF"/>
<path d="M118.274 72.7037C115.829 73.0545 113.174 75.7804 113.174 75.7804C113.174 75.7804 116.487 77.6444 118.932 77.2937C121.377 76.9429 122.216 75.7704 122.026 74.4976C121.836 73.2248 120.719 72.3429 118.274 72.7037Z" fill="#C9DEFF"/>
<path d="M112.625 80.8714C110 81.2422 107.156 84.1686 107.156 84.1686C107.156 84.1686 110.709 86.1729 113.323 85.7821C115.938 85.3912 116.846 84.1585 116.647 82.7755C116.447 81.3925 115.24 80.5006 112.625 80.8714Z" fill="#C9DEFF"/>
<path d="M108.643 88.7487C106.118 88.7487 103.064 91.184 103.064 91.184C103.064 91.184 106.168 93.5291 108.703 93.499C111.238 93.4689 112.236 92.3966 112.216 91.0838C112.196 89.7709 111.178 88.7186 108.643 88.7487Z" fill="#C9DEFF"/>
<path d="M103.373 95.834C100.918 96.4453 98.4932 99.492 98.4932 99.492C98.4932 99.492 102.056 101.055 104.481 100.494C106.906 99.9329 107.665 98.61 107.355 97.3373C107.046 96.0645 105.828 95.2227 103.373 95.834Z" fill="#C9DEFF"/>
<path d="M98.4334 103.831C96.128 104.834 94.2617 108.281 94.2617 108.281C94.2617 108.281 98.0342 109.203 100.35 108.171C102.665 107.139 103.164 105.756 102.635 104.563C102.106 103.37 100.749 102.799 98.4334 103.831Z" fill="#C9DEFF"/>
<path d="M94.5906 112.701C92.2752 113.703 90.4189 117.15 90.4189 117.15C90.4189 117.15 94.1914 118.072 96.5068 117.05C98.8221 116.028 99.3211 114.635 98.7922 113.432C98.2633 112.23 96.906 111.678 94.5906 112.701Z" fill="#C9DEFF"/>
<path d="M90.2993 121.68C87.9839 122.682 86.1177 126.13 86.1177 126.13C86.1177 126.13 89.9001 127.052 92.2055 126.02C94.5109 124.987 95.0299 123.604 94.5009 122.412C93.972 121.219 92.6047 120.648 90.2993 121.68Z" fill="#C9DEFF"/>
<path d="M112.455 67.7029C112.824 70.2485 115.639 73.0145 115.639 73.0145C115.639 73.0145 117.575 69.567 117.206 67.0014C116.836 64.4358 115.629 63.584 114.311 63.7744C112.994 63.9648 112.056 65.1474 112.455 67.7029Z" fill="#C9DEFF"/>
<path d="M105.718 76.8627C106.297 79.1477 109.141 81.4026 109.141 81.4026C109.141 81.4026 110.569 78.0653 109.99 75.7704C109.411 73.4754 108.223 72.7638 106.996 73.1046C105.768 73.4453 105.139 74.5978 105.718 76.8627Z" fill="#C9DEFF"/>
<path d="M99.3612 85.1407C100.748 87.2954 104.431 88.6283 104.431 88.6283C104.431 88.6283 104.76 84.7097 103.373 82.5551C101.986 80.4004 100.549 80.1097 99.4411 80.8213C98.3333 81.5328 97.984 82.986 99.3612 85.1407Z" fill="#C9DEFF"/>
<path d="M95.3594 92.226C96.7366 94.3807 100.419 95.7136 100.419 95.7136C100.419 95.7136 100.749 91.7851 99.4213 89.6304C98.0939 87.4757 96.5869 87.1951 95.4292 87.9066C94.2715 88.6182 93.9821 90.0713 95.3594 92.226Z" fill="#C9DEFF"/>
<path d="M91.5069 100.003C92.7245 102.258 96.2973 103.861 96.2973 103.861C96.2973 103.861 96.9161 99.973 95.6985 97.7282C94.481 95.4833 93.0538 95.0824 91.8961 95.7238C90.7384 96.3652 90.2893 97.7582 91.5069 100.003Z" fill="#C9DEFF"/>
<path d="M87.6046 108.221C88.8221 110.466 92.395 112.069 92.395 112.069C92.395 112.069 93.0137 108.181 91.7962 105.936C90.5786 103.691 89.1515 103.29 87.9938 103.932C86.8361 104.573 86.387 105.926 87.6046 108.221Z" fill="#C9DEFF"/>
<path d="M71.8065 128.435L71.3075 128.625C61.9562 103.02 47.7446 79.4383 35.1099 68.5547L35.4592 68.1438C48.1837 79.0876 62.4252 102.749 71.8065 128.435Z" fill="#C9DEFF"/>
<path d="M33.3732 63.6841C35.1496 65.2976 35.8183 68.9355 35.8183 68.9355C35.8183 68.9355 32.1556 68.6449 30.3692 67.0314C28.5827 65.4179 28.5428 64.0249 29.3712 63.1029C30.1995 62.1809 31.5867 62.0806 33.3732 63.6841Z" fill="#C9DEFF"/>
<path d="M37.7345 73.1347C40.1896 73.4153 42.9142 76.0711 42.9142 76.0711C42.9142 76.0711 39.6607 78.0754 37.2056 77.7447C34.7505 77.414 33.8822 76.3116 34.0319 75.0388C34.1816 73.7661 35.2794 72.8541 37.7345 73.1347Z" fill="#C9DEFF"/>
<path d="M43.6129 81.152C46.2477 81.4526 49.1618 84.2988 49.1618 84.2988C49.1618 84.2988 45.6788 86.3934 43.0441 86.0827C40.4093 85.772 39.4812 84.5494 39.6409 83.1864C39.8006 81.8234 40.9882 80.8714 43.6129 81.152Z" fill="#C9DEFF"/>
<path d="M47.8046 88.8889C50.3395 88.8889 53.4632 91.1639 53.4632 91.1639C53.4632 91.1639 50.4692 93.5891 47.8844 93.6292C45.2996 93.6693 44.3215 92.627 44.3016 91.3242C44.2816 90.0214 45.2796 88.949 47.8046 88.8889Z" fill="#C9DEFF"/>
<path d="M53.2732 95.8441C55.7483 96.3852 58.2632 99.3617 58.2632 99.3617C58.2632 99.3617 54.7503 101.025 52.2752 100.484C49.8002 99.943 49.0417 98.6903 49.2812 97.4075C49.5207 96.1247 50.8082 95.3029 53.2732 95.8441Z" fill="#C9DEFF"/>
<path d="M58.433 103.691C60.7784 104.693 62.7344 108.03 62.7344 108.03C62.7344 108.03 58.9819 109.033 56.6366 108.091C54.2913 107.148 53.7624 105.755 54.2514 104.543C54.7404 103.33 56.0877 102.729 58.433 103.691Z" fill="#C9DEFF"/>
<path d="M62.525 112.45C64.8603 113.452 66.8264 116.789 66.8264 116.789C66.8264 116.789 63.0739 117.792 60.7285 116.85C58.3832 115.908 57.8443 114.514 58.3433 113.302C58.8423 112.089 60.1597 111.488 62.525 112.45Z" fill="#C9DEFF"/>
<path d="M43.413 67.9735C43.1136 70.5391 40.419 73.3753 40.419 73.3753C40.419 73.3753 38.423 69.9779 38.6825 67.4223C38.9419 64.8668 40.1695 63.9548 41.4868 64.1051C42.8042 64.2554 43.7124 65.418 43.413 67.9735Z" fill="#C9DEFF"/>
<path d="M50.3992 76.9729C49.8902 79.2779 47.1157 81.6029 47.1157 81.6029C47.1157 81.6029 45.5888 78.3158 46.1177 76.0008C46.6467 73.6857 47.8043 72.9942 48.992 73.2448C50.1796 73.4953 50.9081 74.6578 50.3992 76.9729Z" fill="#C9DEFF"/>
<path d="M56.986 85.0405C55.6686 87.2352 51.996 88.6684 51.996 88.6684C51.996 88.6684 51.5668 84.7599 52.8842 82.5651C54.2016 80.3703 55.6487 80.0396 56.7764 80.7311C57.9042 81.4226 58.3034 82.8758 56.986 85.0405Z" fill="#C9DEFF"/>
<path d="M61.1579 92.0058C59.8405 94.2005 56.1679 95.6337 56.1679 95.6337C56.1679 95.6337 55.7387 91.7252 57.0561 89.5304C58.3735 87.3356 59.8206 87.0149 60.9483 87.6964C62.0761 88.3779 62.5052 89.811 61.1579 92.0058Z" fill="#C9DEFF"/>
<path d="M65.2594 99.6825C64.1017 101.967 60.5688 103.691 60.5688 103.691C60.5688 103.691 59.8502 99.8228 60.9979 97.5478C62.1456 95.2729 63.5728 94.8219 64.7504 95.4232C65.9281 96.0245 66.4071 97.3975 65.2594 99.6825Z" fill="#C9DEFF"/>
<path d="M69.3813 107.78C68.2336 110.065 64.7006 111.789 64.7006 111.789C64.7006 111.789 63.9821 107.92 65.1298 105.645C66.2775 103.37 67.7046 102.919 68.8723 103.521C70.04 104.122 70.539 105.495 69.3813 107.78Z" fill="#C9DEFF"/>
<path d="M73.1339 116.379C71.9862 118.664 68.4533 120.387 68.4533 120.387C68.4533 120.387 67.7247 116.519 68.8824 114.234C70.0401 111.949 71.4473 111.518 72.6249 112.119C73.8026 112.721 74.3216 114.094 73.1339 116.379Z" fill="#C9DEFF"/>
<path d="M90.1 115.617C90.1 115.617 98.623 105.044 96.7268 98.139C94.8306 91.234 87.605 92.2663 91.9364 86.8846C96.2677 81.5029 99.7108 76.3617 93.2837 71.6515C86.8565 66.9412 85.0302 66.0393 86.9663 60.848C88.9024 55.6567 91.1879 49.1024 84.2018 49.363C77.2158 49.6236 69.3216 61.2689 66.9962 70.1582C64.6709 79.0475 68.2837 87.2554 66.2178 91.3843C64.1519 95.5133 63.3336 96.4454 58.1639 95.5835C52.9942 94.7216 49.2617 102.378 56.0681 113.021C62.8745 123.665 77.0262 131.231 77.0262 131.231L90.1 115.617Z" fill="url(#paint5_linear_3223_4710)"/>
<path d="M82.9942 123.554C82.9343 123.474 77.7646 115.176 74.4113 99.8728C74.4113 99.8728 74.4113 99.8728 74.4113 99.8027C75.8684 94.5613 85.4991 82.4349 85.5989 82.3047C85.631 82.2483 85.6417 82.1823 85.6293 82.1186C85.6169 82.055 85.5822 81.9979 85.5314 81.9578C85.4806 81.9177 85.4171 81.8973 85.3526 81.9003C85.2881 81.9032 85.2267 81.9294 85.1798 81.9739C84.8005 82.455 76.1977 93.2785 74.1518 98.9007C74.1518 98.8306 74.1518 98.7604 74.1518 98.6802C70.8185 82.6454 79.1419 62.7822 79.1419 62.6018C79.1565 62.5697 79.1646 62.5349 79.1654 62.4996C79.1663 62.4643 79.16 62.4291 79.147 62.3963C79.1339 62.3635 79.1143 62.3337 79.0894 62.3087C79.0645 62.2838 79.0348 62.2641 79.0021 62.2511C78.9702 62.2363 78.9355 62.2283 78.9003 62.2274C78.8652 62.2265 78.8302 62.2328 78.7975 62.2459C78.7648 62.2591 78.7352 62.2787 78.7103 62.3037C78.6854 62.3287 78.6659 62.3585 78.6528 62.3914C78.573 62.5918 70.2297 82.5953 73.6029 98.8105C74.3874 102.623 75.3871 106.387 76.5969 110.085C71.3874 110.245 66.8165 104.703 66.7666 104.643C66.7425 104.619 66.7137 104.599 66.682 104.586C66.6503 104.573 66.6163 104.566 66.582 104.566C66.5476 104.566 66.5136 104.573 66.4819 104.586C66.4502 104.599 66.4215 104.619 66.3973 104.643C66.3474 104.694 66.3193 104.762 66.3193 104.834C66.3193 104.905 66.3474 104.973 66.3973 105.024C67.0135 105.74 67.6806 106.41 68.3934 107.028C70.3095 108.722 73.3834 110.807 76.7965 110.626C78.2337 115.232 80.1574 119.67 82.5351 123.865V123.915C82.5814 123.949 82.6373 123.968 82.6948 123.968C82.7522 123.968 82.8082 123.949 82.8544 123.915C82.9194 123.884 82.9701 123.83 82.9962 123.763C83.0222 123.696 83.0215 123.621 82.9942 123.554Z" fill="#C9DEFF"/>
<path d="M270 219.633L10 163.802V171.99C10 175.447 12.3952 179.005 17.0459 181.781L173.124 273.981C181.707 279.052 194.78 279.363 202.305 274.663L264.87 235.638C268.353 233.473 270.03 230.627 270 227.62V219.633Z" fill="url(#paint6_linear_3223_4710)"/>
<path d="M264.87 227.39L202.305 266.415C194.78 271.115 181.707 270.804 173.124 265.733L17.0458 173.533C8.46299 168.452 7.59472 160.504 15.1297 155.834L77.6945 116.809C85.2195 112.109 98.2933 112.42 106.876 117.491L262.954 209.691C271.537 214.772 272.405 222.69 264.87 227.39Z" fill="url(#paint7_linear_3223_4710)"/>
<path d="M84.1117 120.317L74.6107 126.24C72.8642 127.333 73.0638 129.156 75.0498 130.329C77.964 132.053 78.2534 134.729 75.6985 136.342L47.2953 154.031C44.7404 155.624 40.3093 155.514 37.4051 153.8C36.3811 153.222 35.2313 152.904 34.0568 152.876C32.8822 152.848 31.7187 153.111 30.6686 153.64L21.1576 159.573C16.8163 162.278 17.3153 166.848 22.2754 169.775L178.862 262.266C183.852 265.192 191.357 265.373 195.699 262.657L258.573 223.421C262.914 220.706 262.415 216.136 257.455 213.209L100.868 120.698C95.958 117.782 88.4131 117.611 84.1117 120.317Z" fill="#E8F3FF"/>
<path d="M47.5426 147.857C47.5941 147.328 46.9199 146.829 46.0368 146.742C45.1536 146.655 44.3958 147.014 44.3443 147.542C44.2928 148.071 44.9669 148.57 45.8501 148.657C46.7333 148.744 47.491 148.386 47.5426 147.857Z" fill="#37475E"/>
<path d="M65.3993 136.873L51.038 145.893C50.6838 146.068 50.2925 146.154 49.8979 146.143C49.5032 146.133 49.117 146.026 48.7725 145.833C48.1039 145.442 48.044 144.83 48.6228 144.46L62.9841 135.5C63.3335 135.316 63.7222 135.219 64.1168 135.219C64.5115 135.219 64.9002 135.316 65.2496 135.5C65.9182 135.901 65.9781 136.512 65.3993 136.873Z" fill="#37475E"/>
<path d="M142.725 156.105L84.4212 192.344C82.9177 193.161 81.2381 193.598 79.5284 193.615C77.8187 193.633 76.1306 193.231 74.6108 192.444L48.0639 177.411C45.3094 175.818 45.2296 173.182 47.8942 171.528L106.198 135.29C107.701 134.472 109.381 134.036 111.09 134.018C112.8 134.001 114.488 134.403 116.008 135.189L142.555 150.222C145.309 151.816 145.389 154.451 142.725 156.105Z" fill="#F6F8FB"/>
<path d="M190.998 183.495L132.684 219.733C131.182 220.548 129.504 220.984 127.797 221.001C126.089 221.018 124.403 220.618 122.884 219.834L96.3272 204.801C93.5727 203.197 93.5028 200.562 96.1575 198.908L154.461 162.679C155.964 161.863 157.643 161.426 159.353 161.407C161.062 161.387 162.75 161.786 164.271 162.569L190.818 177.652C193.573 179.205 193.653 181.841 190.998 183.495Z" fill="#F6F8FB"/>
<path d="M240.359 213.319L182.056 249.548C180.553 250.366 178.873 250.802 177.163 250.82C175.454 250.837 173.765 250.435 172.246 249.648L145.699 234.616C142.934 233.022 142.864 230.386 145.519 228.733L203.872 192.454C205.374 191.636 207.052 191.2 208.76 191.182C210.468 191.165 212.155 191.567 213.673 192.354L240.23 207.386C242.944 209.03 243.014 211.666 240.359 213.319Z" fill="#F6F8FB"/>
<path d="M104.34 218.825C104.573 205.549 89.0545 194.508 69.6779 194.165C50.3014 193.822 34.4046 204.306 34.1715 217.583C33.9385 230.859 49.4573 241.899 68.8339 242.242C88.2104 242.585 104.107 232.101 104.34 218.825Z" fill="url(#paint8_linear_3223_4710)"/>
<path d="M104.34 216.897C104.573 203.621 89.0545 192.58 69.6779 192.237C50.3014 191.894 34.4046 202.378 34.1715 215.655C33.9385 228.931 49.4573 239.971 68.8339 240.314C88.2105 240.657 104.107 230.173 104.34 216.897Z" fill="url(#paint9_linear_3223_4710)"/>
<path d="M69.7705 238.364C56.1677 238.364 43.2935 232.491 38.503 223.181C37.3244 221.013 36.6746 218.596 36.607 216.127C36.5393 213.659 37.0557 211.209 38.1138 208.98C41.1977 202.255 48.6428 197.124 58.4631 194.819C75.4292 190.921 94.042 197.204 100.03 208.85C101.21 211.015 101.862 213.43 101.931 215.897C102 218.364 101.486 220.812 100.429 223.041C97.3054 229.775 89.8903 234.946 80.1198 237.211C76.7247 237.988 73.2526 238.375 69.7705 238.364ZM68.7725 194.629C65.361 194.623 61.9596 195.003 58.6328 195.761C49.2516 197.926 41.8863 203.027 38.9422 209.431C37.9469 211.525 37.4614 213.826 37.5256 216.145C37.5898 218.464 38.2019 220.735 39.3114 222.77C45.1198 234.014 63.2635 240.068 79.8204 236.269C89.2017 234.105 96.5669 228.993 99.511 222.6C100.506 220.504 100.991 218.201 100.926 215.88C100.862 213.56 100.251 211.288 99.1418 209.251C94.551 200.291 82.1158 194.629 68.8124 194.629H68.7725Z" fill="url(#paint10_linear_3223_4710)"/>
<path fill-rule="evenodd" clip-rule="evenodd" d="M68.0939 213.47L75.06 203.608L63.533 203.017L61.9961 222.109L68.0939 213.47ZM84.1116 218.42L69.3711 213.47L76.1775 203.789C79.8601 205.132 83.1036 207.026 84.5907 209.922C85.2922 211.247 85.6184 212.74 85.5339 214.238C85.4495 215.737 84.9575 217.183 84.1116 218.42ZM74.2315 224.624L61.8862 224.063L68.6926 214.422L83.0838 219.272L74.2315 224.624ZM60.7085 223.832C57.0458 222.489 54.0818 220.245 52.5947 217.358L61.7065 204.44L60.7085 223.832Z" fill="#F3F3F5"/>
<path d="M182.685 91.1236L169.152 102.488L170 87.3755L182.685 88.1371V91.1236Z" fill="#3661B0"/>
<path d="M182.685 91.1236L169.152 102.488L170 87.3755L182.685 88.1371V91.1236Z" fill="#4980E1"/>
<path d="M195.01 105.234L170 87.3855L161.787 83.6374L146.218 78.2256C145.944 78.1051 145.712 77.9073 145.549 77.6564C145.386 77.4055 145.299 77.1123 145.299 76.8126C145.299 76.5129 145.386 76.2197 145.549 75.9687C145.712 75.7178 145.944 75.52 146.218 75.3995L205.449 51.8082C207.525 50.9964 210.29 51.3973 209.232 55.0052L199.172 103.561C199.083 103.998 198.887 104.406 198.602 104.748C198.316 105.09 197.949 105.355 197.536 105.518C197.122 105.681 196.674 105.738 196.233 105.684C195.792 105.629 195.372 105.464 195.01 105.204V105.234Z" fill="#6DB3FA"/>
<path d="M195.01 105.234L170 87.3855L161.787 83.6374L146.218 78.2256C145.944 78.1051 145.712 77.9073 145.549 77.6564C145.386 77.4055 145.299 77.1123 145.299 76.8126C145.299 76.5129 145.386 76.2197 145.549 75.9687C145.712 75.7178 145.944 75.52 146.218 75.3995L205.449 51.8082C207.525 50.9964 210.29 51.3973 209.232 55.0052L199.172 103.561C199.083 103.998 198.887 104.406 198.602 104.748C198.316 105.09 197.949 105.355 197.536 105.518C197.122 105.681 196.674 105.738 196.233 105.684C195.792 105.629 195.372 105.464 195.01 105.204V105.234Z" fill="url(#paint11_linear_3223_4710)"/>
<path d="M170 87.3856L169.451 101.857C169.452 102.071 169.375 102.278 169.234 102.44C169.094 102.601 168.9 102.705 168.689 102.734C168.477 102.762 168.263 102.712 168.086 102.593C167.908 102.474 167.78 102.294 167.725 102.088L161.787 83.5874L196.886 61.8802C197.016 61.7865 197.177 61.7466 197.335 61.769C197.493 61.7915 197.636 61.8744 197.735 62.0004C197.83 62.1309 197.869 62.2936 197.845 62.4532C197.82 62.6128 197.734 62.7563 197.605 62.8523L170 87.3856Z" fill="#6097F9"/>
<path d="M174.371 49.1725L169.082 47.4287C167.056 46.8382 164.891 46.9476 162.934 47.7394C154.95 50.8261 149.122 63.1629 149.96 75.4897C150.589 84.1486 154.391 90.4623 159.491 92.2261L164.741 93.9799L174.371 49.1725Z" fill="#F8D14B"/>
<path opacity="0.06" d="M156.397 90.4323L164.501 92.4366V90.8933L154.411 88.2776C154.994 89.0593 155.664 89.7721 156.407 90.4022L156.397 90.4323Z" fill="black"/>
<path opacity="0.06" d="M162.954 86.0127L151.577 83.1765C151.796 83.7912 152.046 84.3925 152.325 84.9804L162.954 87.6262V86.0127Z" fill="black"/>
<path opacity="0.06" d="M150.359 78.436C150.459 79.0073 150.559 79.5785 150.689 80.1397L161.298 82.7855V81.2421L150.359 78.436Z" fill="black"/>
<path opacity="0.06" d="M149.98 73.4854V75.1289L161.347 77.9751V76.4318L149.98 73.4854Z" fill="black"/>
<path opacity="0.06" d="M150.19 68.7251C150.166 69.2417 150.116 69.7568 150.04 70.2685L161.298 73.0846V71.5011L150.19 68.7251Z" fill="black"/>
<path opacity="0.06" d="M151.068 64.105C150.928 64.6061 150.819 65.1072 150.719 65.6383L161.298 68.2941V66.7507L151.068 64.105Z" fill="black"/>
<path opacity="0.06" d="M152.695 59.2744C152.495 59.7555 152.295 60.2766 152.116 60.8178L162.864 63.5337V61.83L152.695 59.2744Z" fill="black"/>
<path opacity="0.06" d="M154.281 56.0376L164.501 58.6132V57.0698L155.12 54.6445C154.83 55.0955 154.551 55.5565 154.281 56.0376Z" fill="black"/>
<path opacity="0.06" d="M166.118 52.169L158.802 50.335C158.343 50.7358 157.904 51.1668 157.485 51.6077L166.118 53.8125V52.169Z" fill="black"/>
<path opacity="0.06" d="M172.535 50.5456V49.0022L165.439 47.1382C164.592 47.2293 163.761 47.428 162.964 47.7295L162.395 47.99L172.535 50.5456Z" fill="black"/>
<path d="M183.802 65.939C183.942 68.0231 183.902 70.1154 183.683 72.1926L167.715 82.7856L167.255 94.3508C160.798 94.3508 155.539 87.4458 154.83 77.0632C153.972 64.8366 159.77 52.3996 167.804 49.3129C175.838 46.2262 182.914 53.7124 183.802 65.939Z" fill="#FFDE05"/>
<path d="M183.833 69.9578L161.787 83.6375L165.16 94.0902C166.681 94.4417 168.265 94.4107 169.771 94L170.03 87.3856L183.124 75.7103C183.519 73.816 183.756 71.8917 183.833 69.9578Z" fill="#FFDE05"/>
<path opacity="0.4" d="M182.056 66.3097C181.527 56.9293 177.136 50.7158 171.677 50.7158C170.593 50.7282 169.521 50.9529 168.523 51.3773C161.756 54.2435 156.707 65.6383 157.315 76.6823C157.715 84.0082 160.499 89.3999 164.301 91.4043C164.553 91.5438 164.813 91.6677 165.08 91.7751H165.17C165.411 91.8735 165.657 91.9572 165.908 92.0256H166.198L166.786 92.1459H167.705C168.436 92.1346 169.162 92.0164 169.86 91.7951V90.9433C169.156 91.1864 168.419 91.3215 167.675 91.3441C167.34 91.3438 167.007 91.317 166.677 91.264H166.547C166.263 91.2139 165.983 91.1436 165.709 91.0535C165.078 90.8928 164.473 90.6431 163.912 90.3119C160.699 88.1171 158.463 83.1263 158.104 76.6923C157.505 65.9089 162.345 54.9149 168.852 52.169C169.744 51.7811 170.705 51.5766 171.677 51.5677C176.826 51.5677 180.768 57.7311 181.248 66.3999C181.346 68.1613 181.299 69.9278 181.108 71.6814C181.081 72.2002 181.014 72.7162 180.908 73.2248V73.5254C180.629 75.3034 180.208 77.0561 179.651 78.7668L180.778 77.7646C181.188 76.3178 181.498 74.8445 181.707 73.355C182.054 71.0239 182.171 68.664 182.056 66.3097Z" fill="white"/>
<path d="M170.329 72.0923L176.038 77.8648C177.194 75.3319 177.692 72.5459 177.485 69.7672C177.388 67.2729 176.48 64.8791 174.9 62.9524L170.329 72.0923Z" fill="#FFEB47"/>
<path d="M170 72.7539L165.469 81.7936L170.769 83.1966L175.609 78.4864L170 72.7539Z" fill="#FFEB47"/>
<path d="M169.741 71.9622L174.411 62.662L169.371 61.3291L165.789 79.8895L169.741 71.9622Z" fill="#FFEB47"/>
<path d="M162.395 74.688C162.492 77.174 163.388 79.5616 164.95 81.4928L168.683 62.0906L162.375 74.688H162.395Z" fill="#FFEB47"/>
<path d="M163.054 150.884L102.175 186.571C99.1815 188.405 99.2813 191.331 102.335 193.105L163.213 228.713C164.898 229.589 166.77 230.04 168.667 230.026C170.565 230.012 172.43 229.534 174.102 228.633L232.884 192.193L163.054 150.884Z" fill="url(#paint12_radial_3223_4710)"/>
<path d="M235.489 168.682V166.929L172.236 129.748C170.552 128.87 168.68 128.418 166.783 128.43C164.886 128.443 163.02 128.919 161.348 129.818L100.08 167.64V169.705C100.187 170.369 100.454 170.998 100.857 171.536C101.26 172.074 101.789 172.505 102.395 172.791L163.274 208.389C164.958 209.267 166.83 209.719 168.728 209.705C170.625 209.691 172.491 209.212 174.162 208.309L233.294 171.879C233.877 171.585 234.379 171.151 234.757 170.617C235.134 170.082 235.376 169.463 235.459 168.813L235.489 168.682Z" fill="url(#paint13_linear_3223_4710)"/>
<path d="M229.95 172.22L177.545 204.51C172.724 207.517 164.79 207.517 159.83 204.631L105.838 173.072C100.848 170.176 100.758 165.415 105.579 162.439L157.964 130.159C162.784 127.152 170.718 127.152 175.688 130.038L229.67 161.587C234.66 164.493 234.81 169.254 229.95 172.22Z" fill="url(#paint14_linear_3223_4710)"/>
<path d="M161.347 128.094L102.216 164.523C99.2215 166.347 99.3213 169.274 102.375 171.057L163.253 206.655C164.937 207.533 166.809 207.986 168.706 207.974C170.604 207.961 172.469 207.485 174.142 206.585L233.273 170.145C236.267 168.321 236.168 165.395 233.114 163.611L172.236 127.974C170.547 127.104 168.674 126.66 166.777 126.681C164.879 126.702 163.016 127.187 161.347 128.094ZM227.325 164.784C229.122 165.836 229.162 167.55 227.425 168.622L171.996 202.696C171.009 203.217 169.912 203.489 168.797 203.489C167.683 203.489 166.585 203.217 165.599 202.696L108.343 169.123C106.547 168.121 106.507 166.357 108.243 165.285L163.673 131.211C164.655 130.683 165.751 130.402 166.865 130.393C167.979 130.384 169.079 130.648 170.07 131.161L227.325 164.784Z" fill="url(#paint15_linear_3223_4710)"/>
<path d="M185.06 151.695L186.916 178.524L142.166 178.123L140.659 168.662L169.252 151.044L185.06 151.695Z" fill="#FFDF00"/>
<path d="M140.659 168.662L142.166 178.123L156.457 169.314L140.659 168.662Z" fill="#FFCF00"/>
<path d="M154.96 159.853L156.457 169.314L170.758 160.504L154.96 159.853Z" fill="#FFCF00"/>
<path d="M169.251 151.044L170.758 160.505L185.06 151.695L169.251 151.044Z" fill="#FFCF00"/>
<path d="M186.916 178.524L170.758 160.504L185.06 151.695L186.916 178.524Z" fill="#FFD700"/>
<path d="M186.916 178.524L142.166 178.123L156.457 169.314L186.916 178.524Z" fill="#FFD700"/>
<path d="M186.916 178.524L156.457 169.314L170.758 160.505L186.916 178.524Z" fill="#FFDF00"/>
<defs>
<linearGradient id="paint0_linear_3223_4710" x1="59.6909" y1="238.127" x2="195.39" y2="238.127" gradientUnits="userSpaceOnUse">
<stop stop-color="#F6CC61"/>
<stop offset="0.46" stop-color="#F1A541"/>
<stop offset="0.8" stop-color="#F5BE56"/>
<stop offset="1" stop-color="#F7D064"/>
</linearGradient>
<linearGradient id="paint1_linear_3223_4710" x1="75.3598" y1="235.271" x2="179.252" y2="235.271" gradientUnits="userSpaceOnUse">
<stop stop-color="#F4D583"/>
<stop offset="1" stop-color="#F1DE85"/>
</linearGradient>
<linearGradient id="paint2_linear_3223_4710" x1="127.305" y1="201.825" x2="127.315" y2="267.968" gradientUnits="userSpaceOnUse">
<stop stop-color="#F4E9AA"/>
<stop offset="1" stop-color="#F1E1A8"/>
</linearGradient>
<radialGradient id="paint3_radial_3223_4710" cx="0" cy="0" r="1" gradientUnits="userSpaceOnUse" gradientTransform="translate(89.4489 233.622) rotate(27.1806) scale(14.4931 23.4026)">
<stop stop-color="#243477" stop-opacity="0.2"/>
<stop offset="1" stop-color="#243470" stop-opacity="0"/>
</radialGradient>
<linearGradient id="paint4_linear_3223_4710" x1="205.997" y1="30.4701" x2="144.674" y2="106.579" gradientUnits="userSpaceOnUse">
<stop stop-color="#EEF8FF"/>
<stop offset="1" stop-color="#EBF8FF" stop-opacity="0.2"/>
</linearGradient>
<linearGradient id="paint5_linear_3223_4710" x1="57.6332" y1="68.0264" x2="99.3494" y2="103.349" gradientUnits="userSpaceOnUse">
<stop stop-color="#CDEAFF"/>
<stop offset="1" stop-color="#F4FAFF"/>
</linearGradient>
<linearGradient id="paint6_linear_3223_4710" x1="10" y1="220.896" x2="270" y2="220.896" gradientUnits="userSpaceOnUse">
<stop stop-color="#80B8EC"/>
<stop offset="0.24" stop-color="#7DB4ED"/>
<stop offset="0.47" stop-color="#72A9F2"/>
<stop offset="0.68" stop-color="#6097F9"/>
<stop offset="1" stop-color="#AFD6FB"/>
</linearGradient>
<linearGradient id="paint7_linear_3223_4710" x1="9.99991" y1="191.612" x2="270" y2="191.612" gradientUnits="userSpaceOnUse">
<stop stop-color="#C0DCFF"/>
<stop offset="1" stop-color="#D2E5FF"/>
</linearGradient>
<linearGradient id="paint8_linear_3223_4710" x1="23.5897" y1="218.192" x2="115.276" y2="218.192" gradientUnits="userSpaceOnUse">
<stop stop-color="#DCDDE1"/>
<stop offset="0.46" stop-color="#C3C7CD"/>
<stop offset="0.52" stop-color="#BFC4CA"/>
<stop offset="1" stop-color="#DCDDE1"/>
</linearGradient>
<linearGradient id="paint9_linear_3223_4710" x1="69.2644" y1="186.81" x2="69.2644" y2="243.804" gradientUnits="userSpaceOnUse">
<stop stop-color="#E8E6E9"/>
<stop offset="1" stop-color="#DCDDE1"/>
</linearGradient>
<linearGradient id="paint10_linear_3223_4710" x1="69.2615" y1="193.667" x2="69.2716" y2="238.364" gradientUnits="userSpaceOnUse">
<stop stop-color="#F2F2F4"/>
<stop offset="1" stop-color="#ECECEE"/>
</linearGradient>
<linearGradient id="paint11_linear_3223_4710" x1="207.316" y1="77.8949" x2="182.302" y2="81.1353" gradientUnits="userSpaceOnUse">
<stop stop-color="#A8CDFF"/>
<stop offset="1" stop-color="#80BDFF"/>
</linearGradient>
<radialGradient id="paint12_radial_3223_4710" cx="0" cy="0" r="1" gradientUnits="userSpaceOnUse" gradientTransform="translate(166.435 190.455) rotate(90) scale(39.5716 66.4489)">
<stop stop-color="#243477" stop-opacity="0.2"/>
<stop offset="1" stop-color="#243470" stop-opacity="0"/>
</radialGradient>
<linearGradient id="paint13_linear_3223_4710" x1="13635.6" y1="13863.9" x2="32013.3" y2="13863.9" gradientUnits="userSpaceOnUse">
<stop stop-color="#80B8EC"/>
<stop offset="0.24" stop-color="#7DB4ED"/>
<stop offset="0.47" stop-color="#72A9F2"/>
<stop offset="0.68" stop-color="#6097F9"/>
<stop offset="1" stop-color="#AFD6FB"/>
</linearGradient>
<linearGradient id="paint14_linear_3223_4710" x1="234" y1="167" x2="102" y2="167" gradientUnits="userSpaceOnUse">
<stop stop-color="#80BEFF"/>
<stop offset="1" stop-color="#A9CEFF"/>
</linearGradient>
<linearGradient id="paint15_linear_3223_4710" x1="22828.9" y1="9720.89" x2="22828.9" y2="17855.9" gradientUnits="userSpaceOnUse">
<stop stop-color="#C0DCFF"/>
<stop offset="1" stop-color="#D2E5FF"/>
</linearGradient>
</defs>
</svg>
