<svg width="56" height="56" viewBox="0 0 56 56" fill="none" xmlns="http://www.w3.org/2000/svg">
<circle cx="28" cy="28" r="28" fill="#333A3D" fill-opacity="0.4"/>
<path fill-rule="evenodd" clip-rule="evenodd" d="M39.9933 28.0081C39.9933 27.9798 40 27.9444 40 27.9161C40 27.8877 39.9933 27.8594 39.9933 27.8311C39.9933 27.8027 39.9866 27.7673 39.9866 27.739C39.9799 27.7107 39.9733 27.6753 39.9666 27.6469C39.9599 27.6186 39.9532 27.5903 39.9465 27.5619C39.9331 27.5265 39.9198 27.4982 39.9064 27.4628C39.893 27.4345 39.8863 27.4132 39.873 27.3849C39.8529 27.3495 39.8329 27.3141 39.8061 27.2786C39.7927 27.2574 39.7794 27.2291 39.7593 27.2078C39.7326 27.1724 39.6991 27.1299 39.6657 27.0945C39.6457 27.0732 39.6323 27.052 39.6122 27.0378C39.5721 26.9953 39.5186 26.9528 39.4718 26.9174C39.4518 26.9033 39.4384 26.8891 39.425 26.8749C39.3515 26.8183 39.2779 26.7687 39.191 26.712C36.3496 24.9627 33.4948 23.2274 30.64 21.4852C27.7451 19.7287 24.8702 17.9651 21.9953 16.2087C21.8148 16.1024 21.5942 16.0316 21.3669 16.0104C20.705 15.9325 20.003 16.2795 20.003 17.526C19.9963 21.0106 20.003 24.4952 20.003 27.9798C20.003 28.1781 20.003 28.3764 20.003 28.5747C20.003 31.8964 20.003 35.2181 20.003 38.5398C20.0297 39.4039 20.705 40.5442 22.0755 39.7084C24.9304 37.9732 27.7718 36.2238 30.6199 34.4816C33.4948 32.7251 36.3763 30.9615 39.2512 29.2051C39.6055 28.9714 39.9331 28.5464 39.9866 28.079C39.9933 28.0506 39.9933 28.0294 39.9933 28.0081Z" fill="url(#paint0_linear)"/>
<defs>
<linearGradient id="paint0_linear" x1="29.9959" y1="58.8311" x2="29.9959" y2="33.3023" gradientUnits="userSpaceOnUse">
<stop stop-color="#D1D3D4"/>
<stop offset="1" stop-color="white"/>
</linearGradient>
</defs>
</svg>
