<svg width="14" height="14" viewBox="0 0 14 14" fill="none" xmlns="http://www.w3.org/2000/svg">
<circle cx="7" cy="7" r="6.5" stroke="#333A3D" stroke-opacity="0.7"/>
<path fill-rule="evenodd" clip-rule="evenodd" d="M6.703 9.768C6.269 9.768 5.912 10.084 5.912 10.518C5.912 10.952 6.269 11.274 6.703 11.274C7.137 11.274 7.494 10.952 7.494 10.518C7.494 10.084 7.137 9.768 6.703 9.768ZM6.914 3C6.141 3 5.537 3.2 5.121 3.557C4.74 3.885 4.5 4.331 4.5 4.735C4.5 5.028 4.682 5.25 4.998 5.25C5.232 5.25 5.361 5.15 5.519 4.88C5.812 4.313 6.228 4.055 6.855 4.055C7.564 4.055 8.086 4.489 8.086 5.098C8.086 5.631 7.805 5.93 7.201 6.411C6.357 7.084 6.111 7.471 6.111 8.204C6.111 8.549 6.322 8.794 6.691 8.794C7.055 8.794 7.207 8.59 7.307 8.25C7.406 7.7 7.576 7.495 8.209 6.997C8.988 6.393 9.41 5.895 9.41 5.057C9.41 3.803 8.39 3 6.914 3Z" fill="#333A3D" fill-opacity="0.7"/>
</svg>
