<svg width="15" height="14" viewBox="0 0 15 14" fill="none" xmlns="http://www.w3.org/2000/svg">
<path fill-rule="evenodd" clip-rule="evenodd" d="M7.5 0C11.36 0 14.5 3.141 14.5 7C14.5 10.859 11.36 14 7.5 14C3.64 14 0.5 10.859 0.5 7C0.5 3.141 3.64 0 7.5 0ZM7.203 9.768C6.769 9.768 6.412 10.084 6.412 10.518C6.412 10.952 6.769 11.274 7.203 11.274C7.637 11.274 7.994 10.952 7.994 10.518C7.994 10.084 7.637 9.768 7.203 9.768ZM7.414 3C6.641 3 6.037 3.2 5.621 3.557C5.24 3.885 5 4.331 5 4.735C5 5.028 5.182 5.25 5.498 5.25C5.732 5.25 5.861 5.15 6.019 4.88C6.312 4.313 6.728 4.055 7.355 4.055C8.064 4.055 8.586 4.489 8.586 5.098C8.586 5.631 8.305 5.93 7.701 6.411C6.857 7.084 6.611 7.471 6.611 8.204C6.611 8.549 6.822 8.794 7.191 8.794C7.555 8.794 7.707 8.59 7.807 8.25C7.906 7.7 8.076 7.495 8.709 6.997C9.488 6.393 9.91 5.895 9.91 5.057C9.91 3.803 8.89 3 7.414 3Z" fill="#333A3D" fill-opacity="0.4"/>
</svg>
