<svg xmlns="http://www.w3.org/2000/svg" width="14" height="14" viewBox="0 0 14 14">
    <path fill="#333A3D" fill-opacity=".7" fill-rule="evenodd" d="M7 0c3.86 0 7 3.141 7 7s-3.14 7-7 7-7-3.141-7-7 3.14-7 7-7zm-.297 9.768c-.434 0-.791.316-.791.75s.357.756.791.756c.434 0 .791-.322.791-.756s-.357-.75-.791-.75zM6.914 3c-.773 0-1.377.2-1.793.557-.381.328-.621.774-.621 1.178 0 .293.182.515.498.515.234 0 .363-.1.521-.37.293-.567.709-.825 1.336-.825.709 0 1.231.434 1.231 1.043 0 .533-.281.832-.885 1.313-.844.673-1.09 1.06-1.09 1.793 0 .345.211.59.58.59.364 0 .516-.204.616-.544.099-.55.269-.755.902-1.253.779-.604 1.201-1.102 1.201-1.94C9.41 3.803 8.39 3 6.914 3z"/>
</svg>
