<svg width="12" height="14" viewBox="0 0 12 14" fill="none" xmlns="http://www.w3.org/2000/svg">
<path fill-rule="evenodd" clip-rule="evenodd" d="M2.387 3.5384C2.604 3.7084 2.643 4.0224 2.472 4.2404C1.836 5.0524 1.5 6.0064 1.5 7.0004C1.5 9.4814 3.519 11.5004 6 11.5004L5.9999 10.0004L8.9999 12.0004L5.9999 14.0004L6 12.5004C2.967 12.5004 0.5 10.0324 0.5 7.0004C0.5 5.7804 0.91 4.6134 1.685 3.6234C1.855 3.4054 2.169 3.3684 2.387 3.5384ZM5.9999 0V1.5008C9.0329 1.5008 11.4999 3.9678 11.4999 7.0008C11.4999 8.2198 11.0899 9.3868 10.3149 10.3778C10.2159 10.5038 10.0689 10.5688 9.9209 10.5688C9.8129 10.5688 9.7049 10.5338 9.6129 10.4628C9.3959 10.2928 9.3579 9.9778 9.5279 9.7598C10.1639 8.9488 10.4999 7.9948 10.4999 7.0008C10.4999 4.5188 8.4819 2.5008 5.9999 2.5008V4.001L2.9999 2.001L5.9999 0Z" fill="white"/>
</svg>
