<svg xmlns="http://www.w3.org/2000/svg" width="48" height="48" viewBox="0 0 48 48">
    <defs>
        <linearGradient id="prefix__a" x1="17.151%" x2="86.141%" y1="50.817%" y2="49.119%">
            <stop offset="0%" stop-color="#828282"/>
            <stop offset="65.216%" stop-color="#404040"/>
            <stop offset="100%" stop-color="#5F5F5F"/>
        </linearGradient>
        <linearGradient id="prefix__b" x1="75.023%" x2="86.723%" y1="5.107%" y2="27.155%">
            <stop offset="0%" stop-color="#706E6E"/>
            <stop offset="100%" stop-color="#4E4E4E"/>
        </linearGradient>
        <linearGradient id="prefix__c" x1="58.034%" x2="39.107%" y1="35.252%" y2="71.741%">
            <stop offset="0%" stop-color="#AC976C"/>
            <stop offset="100%" stop-color="#735E3C"/>
        </linearGradient>
        <linearGradient id="prefix__d" x1="50%" x2="57.375%" y1="33.099%" y2="56.094%">
            <stop offset="0%" stop-color="#BFA36F"/>
            <stop offset="100%" stop-color="#705B3C"/>
        </linearGradient>
    </defs>
    <g fill="none" fill-rule="evenodd">
        <g fill-rule="nonzero" transform="translate(2.182)">
            <path fill="url(#prefix__a)" d="M25.207 9.77h2.52c1.515 0 2.744 1.229 2.744 2.745v3.41c0 1.516-1.229 2.745-2.745 2.745h-2.519c-1.516 0-2.745-1.23-2.745-2.745v-3.41c0-1.516 1.23-2.746 2.745-2.746z" transform="rotate(39.6 26.467 14.22)"/>
            <circle cx="16.526" cy="26.539" r="16.526" fill="url(#prefix__b)"/>
            <path fill="url(#prefix__c)" d="M29.368 9.468S30.87 6.365 33.2 6.231c.039-.002-.544-.71-.505-.71 2.417-.01 3.33.681 3.33.681s-.913 3.108-2.652 3.567c-1.69.446-4.005-.3-4.005-.3z"/>
            <path fill="#D3264B" d="M35.568 3.578L32.492 0.311 32.766 4.248 30.506 4.426 34.811 7.326 34.454 12.034 36.858 9.396 41.114 10.525 39.028 8.755 43.532 6.781 39.343 5.625 40.071 0.311z"/>
            <path fill="#FAE100" d="M35.418 4.722L33.925 3.578 34.558 5.625 32.23 5.625 34.811 7.326 34.558 10.771 35.999 7.941 38.732 9.207 37.317 7.326 40.152 6.87 37.48 6.172 38.865 2.059z"/>
            <path fill="url(#prefix__d)" d="M26.475 11.621s1.187-2.76 3.461-2.76c1.441 0 1.993.114 3.13.908 0 0-2.154 3.554-5.414 3.207-2.95-.308-1.177-1.355-1.177-1.355z"/>
        </g>
        <g transform="translate(26.182 28.364)">
            <circle cx="9.818" cy="9.818" r="9.818" fill="#FFF"/>
            <path fill="#F03465" d="M9.818 16.364c-1.222 0-2.356-.328-3.327-.906l8.956-8.956c.59.97.917 2.105.917 3.316 0 3.622-2.935 6.546-6.546 6.546M3.273 9.818c0-3.61 2.934-6.545 6.545-6.545 1.222 0 2.357.327 3.327.905l-8.967 8.967c-.578-.97-.905-2.116-.905-3.327m14.542-5.683c-.633-.895-1.419-1.68-2.313-2.313C13.898.676 11.935 0 9.818 0 4.396 0 0 4.396 0 9.818c0 2.127.676 4.08 1.822 5.684.633.894 1.418 1.68 2.313 2.313 1.603 1.145 3.567 1.821 5.683 1.821 5.422 0 9.818-4.396 9.818-9.818 0-2.127-.676-4.08-1.821-5.683"/>
        </g>
    </g>
</svg>
