<svg xmlns="http://www.w3.org/2000/svg" width="36" height="36" viewBox="0 0 36 36">
    <defs>
        <linearGradient id="prefix__a" x1="62.795%" x2="32.984%" y1="60.942%" y2="46.851%">
            <stop offset="0%" stop-color="#133E92" stop-opacity=".4"/>
            <stop offset="100%" stop-color="#133E92" stop-opacity="0"/>
        </linearGradient>
    </defs>
    <g fill="none" fill-rule="evenodd">
        <path d="M0 0H36V36H0z"/>
        <path fill="#508FEA" d="M18 33.6s11.72-2.71 13.07-12.13c.602-4.958.912-9.946.93-14.94-4.918.044-9.756-1.245-14-3.73-4.244 2.485-9.082 3.774-14 3.73.018 4.994.328 9.982.93 14.94C6.28 30.89 18 33.6 18 33.6"/>
        <path fill="url(#prefix__a)" d="M18 33.6s11.72-2.71 13.07-12.13c.602-4.958.912-9.946.93-14.94-4.918.044-9.756-1.245-14-3.73v30.8"/>
        <path fill="#FFE600" d="M7.22 9.09c.033 3.835.294 7.665.78 11.47 1 6.75 9.05 9.07 10 9.33 1-.26 9.08-2.58 10-9.33.473-3.805.72-7.635.74-11.47-3.768-.047-7.463-1.048-10.74-2.91-3.288 1.868-6.998 2.87-10.78 2.91zM18 30.8h-.1c-.4-.09-9.7-2.33-10.81-10.09-.488-3.982-.742-7.989-.76-12v-.5h.44c3.86.03 7.659-.975 11-2.91l.23-.17.24.17c3.342 1.933 7.14 2.937 11 2.91h.44v.45c-.018 4.011-.272 8.018-.76 12-1.11 7.76-10.41 10-10.81 10.09l-.11.05z"/>
        <path fill="#FFE600" fill-rule="nonzero" d="M17 18.75l-.29-4.34c0-.84-.08-1.45-.08-1.82-.028-.428.116-.849.4-1.17.259-.276.622-.428 1-.42.413-.045.811.17 1 .54.205.49.298 1.02.27 1.55 0 .4 0 .8-.07 1.21l-.39 4.46c.02.42-.037.84-.17 1.24-.117.274-.393.446-.69.43-.288.02-.556-.145-.67-.41-.17-.404-.274-.833-.31-1.27zm1 5.95c-.367.012-.725-.117-1-.36-.397-.396-.513-.993-.293-1.509.22-.515.733-.844 1.293-.831.375-.016.74.13 1 .4.263.256.412.608.412.975s-.149.719-.412.975c-.274.244-.634.37-1 .35z"/>
    </g>
</svg>
