<svg width="44" height="44" viewBox="0 0 44 44" fill="none" xmlns="http://www.w3.org/2000/svg">
<path fill-rule="evenodd" clip-rule="evenodd" d="M1 5.81994C1 4.49386 1.52678 3.22209 2.46447 2.28441C3.40215 1.34673 4.67392 0.819941 6 0.819941H9.33C9.49997 0.840366 9.65656 0.922365 9.77015 1.05043C9.88375 1.1785 9.94648 1.34375 9.94648 1.51494C9.94648 1.68613 9.88375 1.85138 9.77015 1.97945C9.65656 2.10752 9.49997 2.18952 9.33 2.20994H6C5.52444 2.20458 5.0526 2.2943 4.6122 2.47382C4.17179 2.65334 3.77169 2.91905 3.4354 3.25534C3.09911 3.59164 2.8334 3.99173 2.65388 4.43214C2.47436 4.87255 2.38464 5.34438 2.39 5.81994V9.71994C2.36958 9.88991 2.28758 10.0465 2.15951 10.1601C2.03144 10.2737 1.86619 10.3364 1.695 10.3364C1.52381 10.3364 1.35856 10.2737 1.23049 10.1601C1.10242 10.0465 1.02042 9.88991 1 9.71994V5.81994ZM9.52 10.8199C9.70391 10.8226 9.8794 10.8975 10.0085 11.0285C10.1376 11.1595 10.21 11.336 10.21 11.5199V13.5199C10.21 13.7029 10.1373 13.8784 10.0079 14.0078C9.8785 14.1372 9.703 14.2099 9.52 14.2099C9.337 14.2099 9.1615 14.1372 9.0321 14.0078C8.9027 13.8784 8.83 13.7029 8.83 13.5199V11.5199C8.84011 11.343 8.91695 11.1765 9.045 11.054C9.17306 10.9315 9.34281 10.8622 9.52 10.8599V10.8199ZM20.3 10.8199C20.4857 10.8199 20.6637 10.8937 20.795 11.025C20.9263 11.1562 21 11.3343 21 11.5199V13.5199C20.9796 13.6899 20.8976 13.8465 20.7695 13.9601C20.6414 14.0737 20.4762 14.1364 20.305 14.1364C20.1338 14.1364 19.9686 14.0737 19.8405 13.9601C19.7124 13.8465 19.6304 13.6899 19.61 13.5199V11.5199C19.6201 11.343 19.6969 11.1765 19.825 11.054C19.9531 10.9315 20.1228 10.8622 20.3 10.8599V10.8199ZM16.3 11.7599C16.3 11.5769 16.2273 11.4014 16.0979 11.272C15.9685 11.1426 15.793 11.0699 15.61 11.0699C15.427 11.0699 15.2515 11.1426 15.1221 11.272C14.9927 11.4014 14.92 11.5769 14.92 11.7599V13.1799C14.9172 15.0406 14.3753 16.8607 13.36 18.4199L14.52 19.1799C15.6818 17.3945 16.3001 15.3101 16.3 13.1799V11.7599ZM11.24 20.9999C11.1894 20.9244 11.1245 20.8596 11.0489 20.8092C10.9733 20.7588 10.8885 20.7238 10.7994 20.7061C10.7102 20.6885 10.6185 20.6886 10.5293 20.7064C10.4402 20.7242 10.3555 20.7594 10.28 20.8099C10.2045 20.8605 10.1397 20.9254 10.0893 21.001C10.0388 21.0767 10.0038 21.1614 9.98618 21.2506C9.96853 21.3397 9.96862 21.4315 9.98644 21.5206C10.0042 21.6097 10.0394 21.6944 10.09 21.7699L10.66 21.3899C10.4601 21.5048 10.2695 21.6352 10.09 21.7799L10.15 21.8599C10.2199 21.9524 10.2968 22.0393 10.38 22.1199C10.6435 22.4089 10.9387 22.6672 11.26 22.8899C12.3599 23.642 13.6679 24.0302 15 23.9999C16.3033 24.0234 17.5819 23.6426 18.66 22.9099C18.9841 22.6868 19.2826 22.4286 19.55 22.1399C19.6332 22.0593 19.7101 21.9724 19.78 21.8799C19.795 21.8499 19.8154 21.8228 19.84 21.7999C19.6571 21.655 19.4632 21.5246 19.26 21.4099L19.84 21.7899C19.9448 21.6361 19.9841 21.447 19.9494 21.2641C19.9147 21.0813 19.8088 20.9197 19.655 20.8149C19.5012 20.7102 19.312 20.6708 19.1292 20.7055C18.9463 20.7402 18.7848 20.8461 18.68 20.9999L18.54 21.1699C18.3387 21.3844 18.114 21.5756 17.87 21.7399C17.0257 22.3163 16.022 22.6136 15 22.5899C13.9749 22.6136 12.968 22.3165 12.12 21.7399C11.8809 21.5733 11.6597 21.3823 11.46 21.1699L11.27 20.9999H11.24ZM28.73 5.81994C28.73 4.49386 28.2032 3.22209 27.2655 2.28441C26.3279 1.34673 25.0561 0.819941 23.73 0.819941H20.4C20.3017 0.808133 20.2021 0.817297 20.1076 0.84683C20.0131 0.876363 19.926 0.925593 19.852 0.991271C19.7779 1.05695 19.7187 1.13758 19.6781 1.22785C19.6375 1.31812 19.6165 1.41597 19.6165 1.51494C19.6165 1.61392 19.6375 1.71177 19.6781 1.80203C19.7187 1.8923 19.7779 1.97293 19.852 2.03861C19.926 2.10429 20.0131 2.15352 20.1076 2.18305C20.2021 2.21259 20.3017 2.22175 20.4 2.20994H23.77C24.7168 2.20994 25.6249 2.58607 26.2944 3.25557C26.9639 3.92508 27.34 4.83312 27.34 5.77994V9.67994C27.3604 9.84991 27.4424 10.0065 27.5705 10.1201C27.6986 10.2337 27.8638 10.2964 28.035 10.2964C28.2062 10.2964 28.3714 10.2337 28.4995 10.1201C28.6276 10.0065 28.7096 9.84991 28.73 9.67994V5.81994ZM6 30.4199C5.34339 30.4199 4.69321 30.2906 4.08658 30.0393C3.47995 29.7881 2.92876 29.4198 2.46447 28.9555C1.52678 28.0178 1 26.746 1 25.4199V21.5199C1.02042 21.35 1.10242 21.1934 1.23049 21.0798C1.35856 20.9662 1.52381 20.9035 1.695 20.9035C1.86619 20.9035 2.03144 20.9662 2.15951 21.0798C2.28758 21.1934 2.36958 21.35 2.39 21.5199V25.4199C2.38865 25.893 2.48132 26.3616 2.66263 26.7985C2.84394 27.2354 3.11028 27.632 3.44617 27.965C3.78206 28.2981 4.18079 28.5612 4.61921 28.7388C5.05763 28.9165 5.52698 29.0052 6 28.9999H9.33C9.513 28.9999 9.6885 29.0726 9.8179 29.202C9.9473 29.3314 10.02 29.5069 10.02 29.6899C10.02 29.8729 9.9473 30.0484 9.8179 30.1778C9.6885 30.3072 9.513 30.3799 9.33 30.3799L6 30.4199ZM38.8 19.9999C38.8883 20.0508 38.9881 20.0783 39.09 20.0799C39.2037 20.0761 39.3143 20.0416 39.41 19.9799C39.504 19.909 39.5795 19.8164 39.63 19.7099C39.7093 19.5582 39.7265 19.3816 39.6779 19.2174C39.6294 19.0532 39.519 18.9143 39.37 18.8299C37.1159 17.5167 34.5538 16.8248 31.945 16.8248C29.3362 16.8248 26.7741 17.5167 24.52 18.8299C24.3752 18.9207 24.2712 19.0641 24.23 19.2299C24.1812 19.3968 24.1991 19.5761 24.28 19.7299C24.3159 19.803 24.3662 19.8679 24.4279 19.9209C24.4897 19.9739 24.5616 20.0137 24.6392 20.038C24.7168 20.0624 24.7986 20.0706 24.8795 20.0624C24.9605 20.0541 25.0389 20.0295 25.11 19.9899C27.1887 18.78 29.5512 18.1435 31.9564 18.1452C34.3615 18.147 36.7231 18.787 38.8 19.9999ZM21.18 26.8999C21.2754 26.9611 21.3868 26.9924 21.5 26.9899C21.5969 26.9921 21.6926 26.9682 21.777 26.9207C21.8615 26.8732 21.9316 26.8039 21.98 26.7199C23.0326 25.097 24.4681 23.7577 26.16 22.8199C27.9359 21.8676 29.9198 21.3692 31.935 21.3692C33.9502 21.3692 35.9341 21.8676 37.71 22.8199C39.3932 23.7528 40.8243 25.081 41.88 26.6899C41.9229 26.7606 41.9805 26.8212 42.0488 26.8678C42.1171 26.9144 42.1945 26.9459 42.276 26.9601C42.3574 26.9743 42.4409 26.9709 42.521 26.9502C42.601 26.9295 42.6757 26.8919 42.74 26.8399C42.8058 26.7923 42.8604 26.7308 42.9 26.6599C42.9472 26.5875 42.978 26.5056 42.99 26.4199C43.0051 26.3339 43.0051 26.2459 42.99 26.1599C42.9734 26.0755 42.943 25.9944 42.9 25.9199C41.731 24.145 40.1492 22.6798 38.29 21.6499C36.3413 20.6014 34.1629 20.0525 31.95 20.0525C29.7371 20.0525 27.5587 20.6014 25.61 21.6499C23.7416 22.7024 22.159 24.1958 21 25.9999C20.9382 26.1035 20.9006 26.2198 20.89 26.3399C20.8831 26.4607 20.9072 26.5811 20.96 26.6899C21.0133 26.7783 21.0893 26.8508 21.18 26.8999ZM29 42.8099C29.0754 42.8294 29.1546 42.8294 29.23 42.8099C29.402 42.808 29.5667 42.74 29.69 42.6199C29.8007 42.4884 29.8614 42.3219 29.8614 42.1499C29.8614 41.978 29.8007 41.8115 29.69 41.6799C28.7654 40.7482 27.9957 39.6746 27.41 38.4999C26.6276 36.9298 26.2365 35.1938 26.27 33.4399C26.2377 32.668 26.3619 31.8975 26.6351 31.1748C26.9082 30.452 27.3247 29.792 27.8595 29.2344C28.3943 28.6768 29.0364 28.2331 29.7471 27.93C30.4577 27.6269 31.2224 27.4706 31.995 27.4706C32.7676 27.4706 33.5323 27.6269 34.2429 27.93C34.9536 28.2331 35.5957 28.6768 36.1305 29.2344C36.6653 29.792 37.0818 30.452 37.3549 31.1748C37.6281 31.8975 37.7523 32.668 37.72 33.4399C37.7088 33.5273 37.7164 33.616 37.7422 33.7002C37.768 33.7844 37.8115 33.8621 37.8696 33.9282C37.9278 33.9943 37.9994 34.0472 38.0797 34.0835C38.1599 34.1198 38.2469 34.1385 38.335 34.1385C38.4231 34.1385 38.5101 34.1198 38.5903 34.0835C38.6706 34.0472 38.7422 33.9943 38.8004 33.9282C38.8585 33.8621 38.902 33.7844 38.9278 33.7002C38.9536 33.616 38.9612 33.5273 38.95 33.4399C39.0616 32.4602 39.0038 31.8203 38.7052 30.8805C38.4066 29.9406 37.9128 29.0745 37.2562 28.3388C36.5995 27.6031 35.7949 27.0144 34.8949 26.6114C33.9949 26.2083 33.0199 25.9999 32.0338 25.9999C31.0476 25.9999 30.0726 26.2083 29.1727 26.6114C28.2727 27.0144 27.468 27.6031 26.8114 28.3388C26.1547 29.0745 25.6609 29.9406 25.3624 30.8805C25.0638 31.8203 25.0509 32.8464 25.04 33.4399C25.0038 35.4162 25.4464 37.3718 26.33 39.1399C26.9582 40.4268 27.7925 41.6023 28.8 42.6199C28.8466 42.7015 28.9162 42.7675 29 42.8099ZM34.5 39.4999C35.72 40.2392 36.6503 40.4546 38 40.4299C38.5008 40.4268 39 40.3732 39.49 40.2699C39.5729 40.2533 39.6517 40.2203 39.7219 40.173C39.792 40.1257 39.852 40.0649 39.8985 39.9942C39.945 39.9236 39.9771 39.8444 39.9928 39.7613C40.0085 39.6781 40.0075 39.5927 39.99 39.5099C39.9802 39.4273 39.9539 39.3474 39.9126 39.2751C39.8713 39.2029 39.8159 39.1396 39.7496 39.0892C39.6834 39.0388 39.6076 39.0023 39.5269 38.9818C39.4463 38.9613 39.3623 38.9573 39.28 38.9699C38.8577 39.0487 38.4295 39.0922 38 39.0999C36.8866 39.1369 35.7914 38.8105 34.88 38.1699C34.1414 37.6337 33.5406 36.9299 33.1268 36.1163C32.7131 35.3028 32.4983 34.4027 32.5 33.4899C32.5112 33.4026 32.5036 33.3139 32.4778 33.2297C32.452 33.1455 32.4085 33.0678 32.3504 33.0017C32.2922 32.9356 32.2206 32.8826 32.1403 32.8464C32.0601 32.8101 31.9731 32.7914 31.885 32.7914C31.7969 32.7914 31.7099 32.8101 31.6297 32.8464C31.5494 32.8826 31.4778 32.9356 31.4196 33.0017C31.3615 33.0678 31.318 33.1455 31.2922 33.2297C31.2664 33.3139 31.2588 33.4026 31.27 33.4899C31.2664 34.6129 31.5281 35.7209 32.0338 36.7236C32.5395 37.7262 33.2748 38.5953 34.18 39.2599L34.5 39.4999ZM35.41 43.1099C35.4629 43.1195 35.5171 43.1195 35.57 43.1099C35.7092 43.1054 35.8427 43.0533 35.9482 42.9623C36.0538 42.8713 36.125 42.747 36.15 42.6099C36.197 42.4469 36.1783 42.2719 36.0979 42.1224C36.0176 41.9729 35.8819 41.8608 35.72 41.8099C34.18 41.3976 32.7913 40.5505 31.72 39.3699C30.2193 37.7626 29.3956 35.6388 29.42 33.4399C29.42 32.761 29.6897 32.1098 30.1698 31.6297C30.6499 31.1497 31.301 30.8799 31.98 30.8799C32.659 30.8799 33.3101 31.1497 33.7902 31.6297C34.2703 32.1098 34.54 32.761 34.54 33.4399C34.5136 33.9534 34.5919 34.4668 34.7702 34.949C34.9485 35.4312 35.2231 35.872 35.5771 36.2448C35.9312 36.6175 36.3574 36.9143 36.8298 37.1171C37.3022 37.32 37.8109 37.4246 38.325 37.4246C38.8391 37.4246 39.3478 37.32 39.8202 37.1171C40.2926 36.9143 40.7188 36.6175 41.0729 36.2448C41.4269 35.872 41.7015 35.4312 41.8798 34.949C42.0581 34.4668 42.1364 33.9534 42.11 33.4399C42.1531 31.1026 41.3848 28.8225 39.936 26.9879C38.4871 25.1532 36.4472 23.8774 34.1636 23.3775C31.8799 22.8776 29.4935 23.1846 27.4107 24.2462C25.3279 25.3078 23.6773 27.0583 22.74 29.1999C22.1619 30.5446 21.8756 31.9965 21.9 33.4599C21.8972 35.2355 22.2017 36.9982 22.8 38.6699C22.8247 38.7472 22.8648 38.8186 22.9178 38.88C22.9709 38.9413 23.0358 38.9912 23.1088 39.0267C23.1817 39.0622 23.261 39.0826 23.342 39.0866C23.423 39.0906 23.504 39.0781 23.58 39.0499C23.7375 38.9814 23.8627 38.855 23.9297 38.6968C23.9967 38.5386 24.0004 38.3608 23.94 38.1999C23.3907 36.6803 23.1131 35.0758 23.12 33.4599C23.12 32.2938 23.3497 31.1391 23.7959 30.0617C24.2422 28.9843 24.8963 28.0054 25.7209 27.1808C26.5455 26.3562 27.5244 25.7022 28.6018 25.2559C29.6791 24.8096 30.8339 24.5799 32 24.5799C33.1661 24.5799 34.3209 24.8096 35.3982 25.2559C36.4756 25.7022 37.4545 26.3562 38.2791 27.1808C39.1037 28.0054 39.7578 28.9843 40.2041 30.0617C40.6503 31.1391 40.88 32.2938 40.88 33.4599C40.88 34.1389 40.6103 34.79 40.1302 35.2701C39.6501 35.7502 38.999 36.0199 38.32 36.0199C37.641 36.0199 36.9899 35.7502 36.5098 35.2701C36.0297 34.79 35.76 34.1389 35.76 33.4599C35.7864 32.9465 35.7081 32.4331 35.5298 31.9509C35.3515 31.4687 35.0769 31.0278 34.7229 30.6551C34.3688 30.2824 33.9426 29.9856 33.4702 29.7827C32.9978 29.5799 32.4891 29.4753 31.975 29.4753C31.4609 29.4753 30.9522 29.5799 30.4798 29.7827C30.0074 29.9856 29.5812 30.2824 29.2271 30.6551C28.8731 31.0278 28.5985 31.4687 28.4202 31.9509C28.2419 32.4331 28.1636 32.9465 28.19 33.4599C28.1876 34.732 28.4216 35.9934 28.88 37.1799C29.3347 38.3474 30.0142 39.4143 30.88 40.3199C32.0781 41.6565 33.632 42.6243 35.36 43.1099H35.41Z" fill="#508FEA"/>
</svg>
