<svg xmlns="http://www.w3.org/2000/svg" width="280" height="281" viewBox="0 0 280 281">
    <defs>
        <linearGradient id="a" x1="50.736%" x2="49.268%" y1="95.62%" y2="4.652%">
            <stop offset="0%" stop-color="#EEF8FF"/>
            <stop offset="100%" stop-color="#EBF8FF" stop-opacity=".2"/>
        </linearGradient>
        <linearGradient id="b" x1="32.17%" x2="49.151%" y1="50.733%" y2="50.197%">
            <stop offset="0%" stop-color="#133E90" stop-opacity=".4"/>
            <stop offset="100%" stop-color="#133E90" stop-opacity="0"/>
        </linearGradient>
        <linearGradient id="c" x1="9.82%" x2="46.723%" y1="44.971%" y2="49.065%">
            <stop offset="0%" stop-color="#F7B0A9"/>
            <stop offset="100%" stop-color="#F7B0A9" stop-opacity="0"/>
        </linearGradient>
        <linearGradient id="d" x1="90.05%" x2="61.814%" y1="92.845%" y2="62.694%">
            <stop offset="0%" stop-color="#133E90" stop-opacity=".4"/>
            <stop offset="100%" stop-color="#133E90" stop-opacity="0"/>
        </linearGradient>
        <linearGradient id="e" x1="79.131%" x2="49.316%" y1="21.358%" y2="80.8%">
            <stop offset="0%" stop-color="#37475E"/>
            <stop offset="100%" stop-color="#343D49"/>
        </linearGradient>
        <linearGradient id="f" x1="35.412%" x2="56.066%" y1="42.545%" y2="49.636%">
            <stop offset="0%" stop-color="#4A90D2" stop-opacity=".4"/>
            <stop offset="100%" stop-color="#4A90D2" stop-opacity="0"/>
        </linearGradient>
        <linearGradient id="g" x1="56.622%" x2="43.913%" y1="47.634%" y2="38.618%">
            <stop offset="0%" stop-color="#4A90D2" stop-opacity=".4"/>
            <stop offset="100%" stop-color="#4A90D2" stop-opacity="0"/>
        </linearGradient>
        <linearGradient id="h" x1="42.782%" x2="-6.177%" y1="50.831%" y2="54.696%">
            <stop offset="0%" stop-color="#F7B0A9"/>
            <stop offset="100%" stop-color="#F7B0A9" stop-opacity="0"/>
        </linearGradient>
        <linearGradient id="i" x1="67.123%" x2="5.569%" y1="31.645%" y2="108.545%">
            <stop offset="0%" stop-color="#37475E"/>
            <stop offset="100%" stop-color="#343D49"/>
        </linearGradient>
        <linearGradient id="j" x1="54.208%" x2="52.345%" y1="50.284%" y2="49.704%">
            <stop offset="0%" stop-color="#D1DEEE" stop-opacity=".6"/>
            <stop offset="100%" stop-color="#D1DEEE" stop-opacity="0"/>
        </linearGradient>
        <linearGradient id="k" x1="51.213%" x2="49.929%" y1="50.264%" y2="49.94%">
            <stop offset="0%" stop-color="#D1DEEE" stop-opacity=".6"/>
            <stop offset="100%" stop-color="#D1DEEE" stop-opacity="0"/>
        </linearGradient>
        <linearGradient id="l" x1="64.245%" x2="50.54%" y1="58.514%" y2="50.246%">
            <stop offset="0%" stop-color="#99CAFB" stop-opacity=".7"/>
            <stop offset="100%" stop-color="#6DB3FA" stop-opacity="0"/>
        </linearGradient>
    </defs>
    <g fill="none" fill-rule="evenodd">
        <path d="M0 .18h280v280H0z"/>
        <circle cx="140" cy="140.18" r="138" fill="url(#a)" fill-rule="nonzero"/>
        <path fill="#CADFFF" fill-rule="nonzero" d="M67.73 244.26c-24.79-25.12-44.52-54.86-50.27-75.76l.66-.18c5.73 20.79 25.39 50.41 50.1 75.46l-.49.48z"/>
        <path fill="#CADFFF" fill-rule="nonzero" d="M13.41 163.61c.89 3 4.76 5.75 4.76 5.75s1.69-4.46.79-7.43c-.9-2.97-2.5-3.79-4-3.33-1.5.46-2.45 2.03-1.55 5.01zM22 173.92c-1 3 .56 7.68.56 7.68s4.08-2.74 5.11-5.77c1.03-3.03.16-4.68-1.4-5.21-1.56-.53-3.27.27-4.27 3.3zM28.12 185.21c-1.09 3.25.61 8.24.61 8.24s4.37-2.94 5.47-6.19c1.1-3.25.18-5-1.5-5.58-1.68-.58-3.48.32-4.58 3.53zM34.86 194.39c-1.45 2.94-.47 7.88-.47 7.88s4.52-2.23 6-5.17c1.48-2.94.8-4.73-.72-5.48s-3.37-.17-4.81 2.77zM39.93 204.62c-.73 3.19 1.36 7.77 1.36 7.77s3.88-3.21 4.61-6.4c.73-3.19-.31-4.79-1.95-5.17-1.64-.38-3.29.6-4.02 3.8zM46.25 215c-.17 3.27 2.68 7.42 2.68 7.42s3.27-3.83 3.44-7.1c.17-3.27-1.14-4.67-2.83-4.75-1.69-.08-3.12 1.13-3.29 4.43zM54.21 224.59c-.21 3.27 2.68 7.41 2.68 7.41s3.27-3.83 3.44-7.1c.17-3.27-1.13-4.66-2.82-4.75-1.69-.09-3.13 1.17-3.3 4.44zM62.61 233.63c-.17 3.27 2.68 7.42 2.68 7.42s3.27-3.83 3.44-7.1c.17-3.27-1.13-4.66-2.82-4.75-1.69-.09-3.13 1.16-3.3 4.43zM12.86 177.73c3.15 1.06 8-.59 8-.59s-2.84-4.24-6-5.3c-3.16-1.06-4.87-.17-5.41 1.46s.26 3.37 3.41 4.43zM19.5 190.86c3 .67 7.23-1.3 7.23-1.3s-3-3.59-6-4.26c-3-.67-4.45.31-4.79 1.84-.34 1.53.58 3.06 3.56 3.72zM25.28 203c3.28-.34 7-3.83 7-3.83s-4.32-2.66-7.61-2.32c-3.29.34-4.46 1.86-4.29 3.55.17 1.69 1.62 2.96 4.9 2.6zM31.09 211.78c3.28-.34 7-3.83 7-3.83s-4.32-2.66-7.61-2.32c-3.29.34-4.46 1.85-4.29 3.55.17 1.7 1.61 2.94 4.9 2.6zM37.79 220.76c3.3-.09 7.24-3.29 7.24-3.29s-4.11-3-7.42-2.88c-3.31.12-4.59 1.51-4.54 3.22.05 1.71 1.42 3.05 4.72 2.95zM45 230.06c3.3-.1 7.24-3.3 7.24-3.3s-4.12-3-7.42-2.88c-3.3.12-4.59 1.52-4.54 3.22.05 1.7 1.38 3.05 4.72 2.96zM210.89 246.57l-.51-.47c24-26 42.7-56.38 47.74-77.45l.67.16c-5.06 21.19-23.87 51.7-47.9 77.76z"/>
        <path fill="#CADFFF" fill-rule="nonzero" d="M262.7 163.76c-.8 3-4.59 5.94-4.59 5.94s-1.85-4.42-1.05-7.43 2.38-3.9 3.94-3.48c1.56.42 2.49 1.95 1.7 4.97zM254.4 174.4c1.13 3-.3 7.74-.3 7.74s-4.2-2.61-5.33-5.62c-1.13-3.01-.32-4.7 1.23-5.28 1.55-.58 3.27.15 4.4 3.16zM248.65 186c1.21 3.23-.32 8.29-.32 8.29s-4.5-2.8-5.71-6-.35-5 1.32-5.65c1.67-.65 3.5.08 4.71 3.36zM242.2 195.39c1.56 2.91.73 7.9.73 7.9s-4.6-2.09-6.15-5c-1.55-2.91-1-4.72.53-5.52 1.53-.8 3.34-.28 4.89 2.62zM237.46 205.83c.84 3.18-1.1 7.85-1.1 7.85s-4-3.09-4.85-6.27c-.85-3.18.14-4.82 1.79-5.25 1.65-.43 3.31.49 4.16 3.67zM231.47 216.45c.28 3.28-2.44 7.54-2.44 7.54s-3.41-3.74-3.7-7c-.29-3.26 1-4.72 2.68-4.86 1.68-.14 3.18 1.04 3.46 4.32zM223.8 226.36c.28 3.28-2.44 7.55-2.44 7.55s-3.41-3.74-3.69-7c-.28-3.26 1-4.72 2.67-4.86 1.67-.14 3.18 1.03 3.46 4.31zM263.72 177.92c-3.12 1.17-8-.32-8-.32s2.71-4.35 5.84-5.53c3.13-1.18 4.87-.33 5.48 1.28.61 1.61-.19 3.4-3.32 4.57zM257.51 191.33c-3 .77-7.31-1.06-7.31-1.06s2.9-3.71 5.86-4.49c2.96-.78 4.49.16 4.88 1.7.39 1.54-.47 3.08-3.43 3.85zM252.11 203.73c-3.31-.23-7.13-3.6-7.13-3.6s4.25-2.82 7.56-2.59c3.31.23 4.55 1.71 4.43 3.42-.12 1.71-1.55 3.04-4.86 2.77zM246.58 212.72c-3.31-.23-7.13-3.61-7.13-3.61s4.25-2.81 7.56-2.58c3.31.23 4.54 1.71 4.43 3.41-.11 1.7-1.55 3.06-4.86 2.78zM240.15 222c-3.32 0-7.38-3.07-7.38-3.07s4-3.12 7.35-3.14c3.35-.02 4.66 1.37 4.67 3.08.01 1.71-1.32 3.13-4.64 3.13zM233.27 231.54c-3.32 0-7.38-3.07-7.38-3.07s4-3.12 7.35-3.14c3.35-.02 4.66 1.37 4.67 3.08.01 1.71-1.32 3.11-4.64 3.13zM225.6 241c-3.32 0-7.38-3.07-7.38-3.07s4-3.12 7.34-3.14c3.34-.02 4.67 1.37 4.67 3.08s-1.32 3.13-4.63 3.13z"/>
        <path fill="#255299" fill-rule="nonzero" d="M125.48 277.42c4.823.506 9.67.76 14.52.76a137.614 137.614 0 0 0 47-8.2l5.22-36.73-63.62 14.58s-1.6 12.39-3.12 29.59z"/>
        <path fill="#255299" fill-rule="nonzero" d="M141.34 278.17a137.34 137.34 0 0 0 83.74-29.33v-.22l-91.11-7.56a218.39 218.39 0 0 0 7.37 37.11z"/>
        <path fill="#2A7CDD" fill-rule="nonzero" d="M230.81 182.78L225 248.62s-12.53 9.62-49.28 9.13c-36.75-.49-47.16-9.92-47.16-9.92l6.66-69.47-23.15-44s20.7-3.06 36.63-3.55l42.87.74 39.24 51.23z"/>
        <path fill="url(#b)" fill-rule="nonzero" d="M175.76 257.75c-36.75-.49-47.16-9.92-47.16-9.92l6.66-69.47-23.15-44s20.7-3.06 36.63-3.55l42.87.74-15.85 126.2z"/>
        <path fill="#343D49" fill-rule="nonzero" d="M166.74 53.65c1.72 2.29 3.8 3.43 8.33 4.29 4.53.86 7.36 3.8 7.48 11.76.12 7.96 4.53 6.25 5.88 11 1.35 4.75-.82 6.33-2.78 11s2.53 5.92-6.41 12.17l-42.76-10s-4.9-1.1-5.88-4.78c-.98-3.68 3.92-5.51 1.35-8.33-2.57-2.82-3.67-5.14-2.94-8.82.73-3.68 4.9-3.18 6.13-8.08 1.23-4.9 1-7.6 5-9.8 4-2.2 5.27 1 9.43.61s6.13-4.9 10.54-4.9c4.41 0 5.53 2.41 6.63 3.88z"/>
        <path fill="#FEC6BD" fill-rule="nonzero" d="M155.11 118.82a10.34 10.34 0 0 1-6.37 12s5.88 6.2 18.61 6.39c15.32.24 24.26-5.65 24.26-5.65s-9.43-3.07-10.9-10.17c-1.47-7.1-1.71-26.21-1.71-26.21l-23.89 23.64z"/>
        <path fill="url(#c)" fill-rule="nonzero" d="M155.11 118.82a10.34 10.34 0 0 1-6.37 12s5.88 6.2 18.61 6.39c15.32.24 24.26-5.65 24.26-5.65s-9.43-3.07-10.9-10.17c-1.47-7.1-1.71-26.21-1.71-26.21l-23.89 23.64z"/>
        <path fill="#FEC6BD" fill-rule="nonzero" d="M135.63 82.93s.36 11.39 2.45 18c2.09 6.61 6.24 15.07 12.74 17.27 6.5 2.2 16.78-2.57 21-7.35 4.22-4.78 7.18-15.67 7.18-15.67l3.56-2 2.86-10.86L163.07 61l-22.42 7-5.02 14.93z"/>
        <path fill="#343D49" fill-rule="nonzero" d="M169.93 82.81s.12-4.9-3.8-3.92a4.85 4.85 0 0 1-5.55-3.27c-.5-2.47-.7-6.13-4.49-5.15-3.79.98-3.23 4.37-6.78 3.76-3.55-.61-5.11-3.63-8.17-1.8-3.06 1.83-1.43 7.27-3.43 8.91a7.62 7.62 0 0 0-2.86 3.59c-.73 1.8-1.06-13-1.06-13l6.49-9.18 23.28-4.66 15.19 9.31 7.11 13.23-2.09 15.52-4.77-.97s7.23-5 3.44-12c-3.79-7-10.05-1.34-9.93 2.09.12 3.43-2.95 1.73-2.58-2.46z"/>
        <path fill="#FEC6BD" fill-rule="nonzero" d="M221.83 128.48v-.07c.89.13.75.14 0 .07z"/>
        <path fill="#2A7CDD" fill-rule="nonzero" d="M212.51 193.52s27.35-1.94 34.21-5.17c20.93-9.87 13.7-32.88 13.7-32.88-4.35-5.71-43-18.62-68.81-23.9l20.9 61.95z"/>
        <path fill="url(#d)" fill-rule="nonzero" d="M212.51 193.52s27.35-1.94 34.21-5.17c20.93-9.87 13.7-32.88 13.7-32.88-4.35-5.71-43-18.62-68.81-23.9l20.9 61.95z"/>
        <path fill="#FEC6BD" fill-rule="nonzero" d="M211.5 98.24c2.06-.06 4.39 1.73 5.68.07s-5.71-8.43-7.15-10c-1.08-1.2-2.6-3.07-1.43-4.34 1.17-1.27 2.83.45 4.16 1.54s5.88 6.12 6.93 5.9c1.05-.22-4-8.29-4.82-10-.82-1.71-1.36-3.84-.19-4.4 1.47-.7 2.68.72 4.12 2.39 1.44 1.67 5 9.27 5.52 9.13.52-.14-.32-9.53-.42-11.26-.1-1.73 1.29-2.91 2.81-1.17 1.52 1.74 2.61 13 3.34 13.69.73.69 1.87-9 3.92-8.77 2.81.34 2.3 4.34 1.45 9.62-.85 5.28-1.64 12.11-1.6 12.09 1 1.27 27 34.35 33 52.64 6.07 18.66-16.62 28.76-21 25.17-7.9-6.51-23.69-72.44-23.69-72.44s-10.57-6.08-12.77-6.25c-2.44-.19-.76-3.51 2.14-3.61z"/>
        <path fill="#343D49" fill-rule="nonzero" d="M150.87 86.12a.59.59 0 0 1-.52-.88s1.94-3.34 6.4-1.61a.6.6 0 0 1-.43 1.11c-3.47-1.35-4.88 1-4.94 1.09a.59.59 0 0 1-.51.29z"/>
        <ellipse cx="157.281" cy="90.682" fill="#343D49" fill-rule="nonzero" rx="1" ry="1.34" transform="rotate(-11.6 157.281 90.682)"/>
        <ellipse cx="142.453" cy="95.357" fill="#343D49" fill-rule="nonzero" rx="1" ry="1.34" transform="rotate(-11.6 142.453 95.357)"/>
        <path fill="#343D49" fill-rule="nonzero" d="M136.62 91.79a.44.44 0 0 1-.16 0 .59.59 0 0 1-.41-.73 3.14 3.14 0 0 1 1.53-2 4.8 4.8 0 0 1 3.33-.17.595.595 0 1 1-.37 1.13 3.59 3.59 0 0 0-2.4.1 2 2 0 0 0-.95 1.28.59.59 0 0 1-.57.39z"/>
        <path fill="#CC8E87" fill-rule="nonzero" d="M148.09 102.44c-.74 0-1.32-.18-1.47-.67-.22-.76-1.1-7.37-1.21-8.12a.46.46 0 1 1 .91-.12c.39 2.92 1 7.46 1.18 8a8.58 8.58 0 0 0 2.74-.31.46.46 0 1 1 .21.89 10.62 10.62 0 0 1-2.36.33z"/>
        <path fill="#FFF" fill-rule="nonzero" d="M148.48 106.64s5.82-.67 9.32-3.66c0 0 .75 4-2.31 5.15-3.06 1.15-7.01-1.49-7.01-1.49z"/>
        <path fill="#CC8E87" fill-rule="nonzero" d="M226 101.43a.43.43 0 0 1-.31-.13c-2.35-2.21-7.19-1.67-7.24-1.67a.453.453 0 1 1-.11-.9c.22 0 5.32-.6 8 1.91a.46.46 0 0 1 0 .64.45.45 0 0 1-.34.15z"/>
        <path fill="#2A7CDD" fill-rule="nonzero" d="M131.25 237.78l-22.31 36.89a138.38 138.38 0 0 0 24.61 3.33c-.89-22.46-2.3-40.22-2.3-40.22z"/>
        <path fill="#2A7CDD" fill-rule="nonzero" d="M49.79 244.61a137.34 137.34 0 0 0 70.67 32.19c9.34-23.39 10.79-39 10.79-39l-76.39-3.6a108.83 108.83 0 0 0-5.07 10.41z"/>
        <path fill="url(#e)" fill-rule="nonzero" d="M128 70.43A15.62 15.62 0 0 0 117.13 62c-11.8-2.64-23.65-.61-31.36 8.45-7.71 9.06-4.41 17.62-10.91 23.26-6.5 5.64-12.49 1.23-17 13s2.09 14.7-8.82 21.07c-10.91 6.37-14.45 17-6.73 24.87h85.26s6.13-13.6 6-24c-.13-10.4.29-24 1.64-29.4 1.35-5.4.81-14.7-.9-20.7s-3.09-7.14-6.31-8.12z"/>
        <path fill="#6DB3FA" fill-rule="nonzero" d="M130.6 158.6c-1-6.21-3.34-14.78-8.69-18.09l-43.74-5.88s-32.56 7.67-40 18.16c-5.45 7.73-5.84 15.09-4.83 24.72C35.9 201.6 45.52 215.26 55.22 222v-.13a88.87 88.87 0 0 1-.4 12.32s12.27 5.38 39.39 8.65c27.12 3.27 37-5.07 37-5.07s4.91-42.1 4.91-53.21-4.54-19.75-5.52-25.96z"/>
        <path fill="url(#f)" fill-rule="nonzero" d="M130.6 158.6c-1-6.21-3.34-14.78-8.69-18.09l-21.1 1.19L55.22 222v-.13a88.87 88.87 0 0 1-.4 12.32s12.27 5.38 39.39 8.65c27.12 3.27 37-5.07 37-5.07s4.91-42.1 4.91-53.21-4.54-19.75-5.52-25.96z"/>
        <path fill="url(#g)" fill-rule="nonzero" d="M98.39 137.35l-20.22-2.72A180.59 180.59 0 0 0 60.23 140c-2.63 1-5.32 2-7.9 3.17l19.39 49.36 26.67-55.18z"/>
        <path fill="#FEC6BD" fill-rule="nonzero" d="M92.38 104.12a41.35 41.35 0 0 1-2.69 15.56c-3.19 8.7-11.52 14.95-11.52 14.95a51.49 51.49 0 0 0 26.71 8.94c15.43.49 17-3.06 17-3.06s-7.23-3.31-5-14.58c2.23-11.27-24.5-21.81-24.5-21.81z"/>
        <path fill="url(#h)" fill-rule="nonzero" d="M92.38 104.12a41.35 41.35 0 0 1-2.69 15.56c-3.19 8.7-11.52 14.95-11.52 14.95a51.49 51.49 0 0 0 26.71 8.94c15.43.49 17-3.06 17-3.06s-7.23-3.31-5-14.58c2.23-11.27-24.5-21.81-24.5-21.81z"/>
        <path fill="#FEC6BD" fill-rule="nonzero" d="M134.52 85.62S132.81 100.33 131 108c-1.81 7.67-6.25 18.13-15.31 18-9.06-.13-20.83-7-23.28-21.93l-8.57.86-.16-18.33 27.69-15.19 16.54 1.47 5.55 6.74 1.06 6z"/>
        <path fill="url(#i)" fill-rule="nonzero" d="M128.4 78.64s-4.53-8.82-13.35 1.23C108.79 87 105 97 97.28 96.41c0 0 1.47-8.46-4.41-8.21s-10 12.86-.49 15.92l-9.68 2.7-.61-22.42L114.31 68 129 71.9s5 3.8 6.13 9.07c1.13 5.27-1.35 16.7-1.35 16.7s-2.21-1.22-1.1-9.47c.71-5.2.99-10.54-4.28-9.56z"/>
        <path fill="#D1DEEE" fill-rule="nonzero" d="M104.82 153.39l.61-6.74-3.49 1.04.67 4.78zM109.93 142.06l.74 7.53-3.8-2.35-.55-4.05z"/>
        <path fill="#FFF" fill-rule="nonzero" d="M105 104c-3.53-.4-8.21 4.29-10.29 9.8-2.08 5.51-4.21 27.85-4.21 27.85s3.86 11.21 11.27 12.19c7.41.98-1.59-4.41 1.66-4.78 3.25-.37 5.82 2.27 7 .86 1.18-1.41-6.19-5.06-1.53-4.41 2.21.31 2.76 2 7.11 1.53 0 0-2-16.67-2.21-20.48-.8-15.82-5.51-22.15-8.8-22.56z"/>
        <path fill="url(#j)" fill-rule="nonzero" d="M105 104c-3.53-.4-8.21 4.29-10.29 9.8-2.08 5.51-4.21 27.85-4.21 27.85s3.86 11.21 11.27 12.19c6 .8 1.21-2.61.94-4.11-.03-.31 2.29-45.73 2.29-45.73z"/>
        <path fill="url(#k)" fill-rule="nonzero" d="M105 104c-3.53-.4-4.82 45.43-1.57 45.06 3.25-.37 5.82 2.27 7 .86 1-1.11-3.43-3.61-3.06-4.3.08.04.92-41.21-2.37-41.62z"/>
        <path fill="#FEC6BD" fill-rule="nonzero" d="M99.47 151.79l2-23.48c5.51-3.19 9.92-9 9.34-12.34-.58-3.34-4.16-9.5-6-11-1.84-1.5-7.23 8.26-10.81 15.8-1.75 3.63-6.35 15.53-10.77 27.53-.04 0 6.01 3.06 16.24 3.49z"/>
        <path fill="#6DB3FA" fill-rule="nonzero" d="M82.37 147.15s5.77 3.77 18.34 3.93c0 0-4.27 35.87-4.9 39.53-1.47 8.5-4.54 34.34-23.34 36.73-4.43.56-10.86-.88-17.25-5.33 0-.01 21.78-60.31 27.15-74.86z"/>
        <path fill="url(#l)" fill-rule="nonzero" d="M82.37 147.15s5.77 3.77 18.34 3.93c0 0-4.27 35.87-4.9 39.53-1.47 8.5-4.54 34.34-23.34 36.73-4.43.56-10.86-.88-17.25-5.33 0-.01 21.78-60.31 27.15-74.86z"/>
        <path fill="#FEC6BD" fill-rule="nonzero" d="M48.57 147.49c.67-2.57 4.33-1 7.5-1.91 3.17-.91 4.12-2.48 2-3.12-2.12-.64-4.08-.14-8.59-1.12-4.51-.98-8.36 0-12.52 3.18s-6.17 8.23-6.31 14.61c-.14 6.38 2.35 10.49 4 10.93 1.65.44 1.72-1.8 1-3.78a16.74 16.74 0 0 1-.92-4.2s3.16 4.94 5.67 5.9 2.79-1.19 2-2.55c-.79-1.36-3.31-4.13-3.52-7.34 0 0 3.62 5.34 6.5 6.29 2.88.95 3.13-1.41 2.4-2.65s-3.86-4.26-3.88-9.09c0 0 3.19 4.61 5.8 6.36s3.55-.89 2.72-3c-.83-2.11-4.59-5.69-3.85-8.51z"/>
        <path stroke="#343D49" stroke-linecap="round" stroke-linejoin="round" d="M120.48 92.14l-7.31-.44M129.14 93.78l4.02 2.59"/>
        <circle cx="114.61" cy="97.86" r="1.17" fill="#343D49" fill-rule="nonzero"/>
        <circle cx="129.14" cy="99.95" r="1.17" fill="#343D49" fill-rule="nonzero"/>
        <path stroke="#CC8E87" stroke-linecap="round" stroke-linejoin="round" d="M127 96.74s-.3 9.35-.35 10c-.05.65-4.27.7-4.27.7M124 113.3s-4.93.35-8.31-2.28"/>
        <path fill="#D1DEEE" fill-rule="nonzero" d="M113.45 99.88s-3.78 6.09-2 7.36c2.24 1.59 4.03-1.79 2-7.36z"/>
        <path stroke="#F6B2AD" stroke-linecap="round" stroke-linejoin="round" d="M105.49 108.48a37.09 37.09 0 0 1-3.78 5.57M107.48 111.66s-2 4.08-3.38 5.37M109 114.7a13.1 13.1 0 0 1-2 3.68"/>
    </g>
</svg>
