<svg width="280" height="280" viewBox="0 0 280 280" fill="none" xmlns="http://www.w3.org/2000/svg">
<path d="M140 278C216.215 278 278 216.215 278 140C278 63.7847 216.215 2 140 2C63.7847 2 2 63.7847 2 140C2 216.215 63.7847 278 140 278Z" fill="url(#paint0_linear_3031_1902)"/>
<path d="M238.37 102.85H177.26V134.39H238.37V102.85Z" fill="#E99E9C"/>
<path d="M220.84 251.85C208.69 237.35 196.51 222.85 194.18 220.1C189.28 214.38 193.69 201.31 189.93 191.18C186.17 181.05 182.74 179.25 182.74 179.25C182.74 179.25 122.61 179.74 112.15 176.8C101.69 173.86 99.57 166.18 95.48 155.39C93.5343 168.415 96.5074 181.698 103.82 192.65C111.595 203.894 120.582 214.25 130.62 223.53L156.76 277C179.909 274.195 201.962 265.539 220.84 251.85Z" fill="#FEC6BD"/>
<path d="M212.91 156.1L24.22 115.75V121.67C24.22 124.17 25.95 126.76 29.33 128.75L142.6 195.38C148.84 199.05 158.32 199.27 163.78 195.87L209.19 167.67C211.71 166.1 212.93 164.04 212.91 161.91V156.1Z" fill="url(#paint1_linear_3031_1902)"/>
<path d="M209.19 161.7L163.78 189.91C158.32 193.3 148.84 193.08 142.6 189.42L29.3399 122.78C23.0999 119.12 22.4799 113.39 27.9399 110L73.3499 81.7901C78.8099 78.4001 88.3499 78.6201 94.5299 82.2901L207.79 148.92C214 152.59 214.65 158.31 209.19 161.7Z" fill="url(#paint2_linear_3031_1902)"/>
<path d="M78.0001 84.3301L71.1001 88.6101C69.8401 89.3901 69.9801 90.7201 71.4201 91.6101C73.5301 92.8601 73.7501 94.7901 71.9001 95.9401L51.3001 108.73C50.1834 109.293 48.9454 109.573 47.6951 109.545C46.4448 109.517 45.2206 109.182 44.1301 108.57C43.3871 108.151 42.5526 107.921 41.7 107.901C40.8474 107.88 40.0027 108.068 39.2401 108.45L32.3401 112.74C29.1901 114.74 29.5501 118 33.1501 120.11L146.79 186.97C150.38 189.08 155.86 189.21 159.01 187.25L204.66 158.89C207.82 156.89 207.46 153.63 203.86 151.51L90.2001 84.6101C86.6001 82.5001 81.1301 82.3701 78.0001 84.3301Z" fill="white"/>
<path d="M51.4701 104.235C51.5072 103.855 51.0159 103.497 50.3728 103.434C49.7297 103.371 49.1783 103.627 49.1412 104.007C49.1041 104.386 49.5953 104.744 50.2384 104.807C50.8815 104.87 51.4329 104.614 51.4701 104.235Z" fill="#37475E"/>
<path d="M64.43 96.2898L54 102.77C53.7477 102.905 53.4661 102.975 53.18 102.975C52.894 102.975 52.6123 102.905 52.36 102.77C51.88 102.49 51.83 102.04 52.25 101.77L62.68 95.2898C62.9331 95.1575 63.2144 95.0884 63.5 95.0884C63.7856 95.0884 64.0669 95.1575 64.32 95.2898C64.8 95.5898 64.85 95.9998 64.43 96.2898Z" fill="#37475E"/>
<path d="M136.79 125.8C138.92 124.41 142.79 124.51 145.42 126.01C147.74 127.34 148.34 129.31 147.01 130.71C146.812 130.919 146.591 131.103 146.35 131.26C146.081 131.427 145.8 131.574 145.51 131.7C143.305 132.472 140.894 132.412 138.73 131.53C138.387 131.392 138.053 131.232 137.73 131.05C137.428 130.88 137.141 130.686 136.87 130.47C135 129 134.92 127 136.79 125.8Z" fill="#80C3FF"/>
<path d="M130.14 134.86L136.86 130.47C137.131 130.686 137.418 130.88 137.72 131.05C138.043 131.232 138.377 131.392 138.72 131.53L132 135.93C131.73 135.713 131.443 135.519 131.14 135.35C130.82 135.161 130.486 134.998 130.14 134.86Z" fill="#2A7CDD"/>
<path d="M122.52 135.14C123.326 134.64 124.236 134.328 125.18 134.23C126.873 134.021 128.592 134.237 130.18 134.86C130.525 134.998 130.86 135.162 131.18 135.35C131.483 135.519 131.77 135.713 132.04 135.93C133.88 137.41 133.97 139.37 132.11 140.59C129.98 141.98 126.11 141.89 123.48 140.38C120.85 138.87 120.39 136.53 122.52 135.14Z" fill="#80C3FF"/>
<path d="M146.35 131.26C146.591 131.103 146.812 130.918 147.01 130.71L157.13 136.48C156.834 136.6 156.549 136.748 156.28 136.92C156.044 137.079 155.823 137.26 155.62 137.46L145.51 131.7C145.8 131.573 146.081 131.426 146.35 131.26Z" fill="#2A7CDD"/>
<path d="M119.23 120.42L112.51 124.81C112.241 124.596 111.957 124.402 111.66 124.23C111.337 124.049 111.003 123.888 110.66 123.75L117.38 119.35C117.648 119.57 117.936 119.764 118.24 119.93C118.559 120.115 118.89 120.279 119.23 120.42Z" fill="#2A7CDD"/>
<path d="M117.3 114.69C119.43 113.3 123.3 113.39 125.93 114.9C128.56 116.41 128.93 118.75 126.86 120.14C126.049 120.639 125.137 120.95 124.19 121.05C123.403 121.145 122.607 121.145 121.82 121.05C120.933 120.949 120.062 120.734 119.23 120.41C118.886 120.269 118.552 120.105 118.23 119.92C117.926 119.754 117.638 119.559 117.37 119.34C115.52 117.87 115.43 115.91 117.3 114.69Z" fill="#80C3FF"/>
<path d="M121.82 121.06C122.607 121.155 123.403 121.155 124.19 121.06L127.55 134.23C126.763 134.135 125.967 134.135 125.18 134.23L121.82 121.06Z" fill="#2A7CDD"/>
<path d="M135.35 155.32L142.08 150.92C142.351 151.136 142.638 151.33 142.94 151.5C143.262 151.682 143.597 151.842 143.94 151.98L137.22 156.38C136.949 156.164 136.662 155.97 136.36 155.8C136.034 155.618 135.697 155.458 135.35 155.32Z" fill="#2A7CDD"/>
<path d="M156.28 136.92C156.549 136.748 156.834 136.601 157.13 136.48C158.4 136.037 159.749 135.866 161.089 135.978C162.43 136.09 163.731 136.482 164.91 137.13C167.55 138.63 167.97 140.98 165.84 142.37C163.97 143.59 160.76 143.67 158.22 142.65C157.875 142.513 157.54 142.349 157.22 142.16C156.916 141.994 156.628 141.8 156.36 141.58C154.77 140.31 154.48 138.67 155.63 137.46C155.83 137.26 156.047 137.08 156.28 136.92Z" fill="#80C3FF"/>
<path d="M142 146.25C143.86 145.04 147.08 144.96 149.62 145.98C149.963 146.118 150.298 146.278 150.62 146.46C150.92 146.632 151.208 146.826 151.48 147.04C153.32 148.52 153.41 150.49 151.55 151.71C149.69 152.93 146.47 153 143.92 151.98C143.576 151.842 143.242 151.682 142.92 151.5C142.618 151.33 142.331 151.136 142.06 150.92C140.23 149.44 140.14 147.48 142 146.25Z" fill="#80C3FF"/>
<path d="M149.63 146L156.35 141.6C156.618 141.82 156.906 142.014 157.21 142.18C157.53 142.369 157.864 142.533 158.21 142.67L151.5 147C151.228 146.786 150.94 146.592 150.64 146.42C150.313 146.259 149.975 146.118 149.63 146Z" fill="#2A7CDD"/>
<path d="M103 124C104.86 122.78 108.07 122.7 110.62 123.73C110.964 123.868 111.298 124.028 111.62 124.21C111.917 124.382 112.201 124.576 112.47 124.79C114.32 126.27 114.41 128.23 112.54 129.45C110.42 130.84 106.54 130.75 103.91 129.25C101.28 127.75 100.9 125.41 103 124Z" fill="#80C3FF"/>
<path d="M88.7501 133.36C90.8701 131.97 94.75 132.06 97.38 133.57C100.01 135.08 100.43 137.42 98.3101 138.81C96.1901 140.2 92.3101 140.11 89.6801 138.6C87.0501 137.09 86.6301 134.75 88.7501 133.36Z" fill="#80C3FF"/>
<path d="M108.24 144.47C110.37 143.08 114.24 143.18 116.87 144.68C119.5 146.18 119.87 148.54 117.8 149.92C115.73 151.3 111.8 151.22 109.17 149.72C106.54 148.22 106.12 145.86 108.24 144.47Z" fill="#80C3FF"/>
<path d="M127.74 155.59C129.6 154.37 132.81 154.29 135.35 155.32C135.693 155.458 136.027 155.618 136.35 155.8C136.652 155.97 136.939 156.164 137.21 156.38C139.05 157.86 139.15 159.82 137.28 161.04C135.16 162.43 131.28 162.34 128.65 160.83C126.02 159.32 125.61 157 127.74 155.59Z" fill="#80C3FF"/>
<path d="M130.62 223.53C130.62 223.53 104.62 218.79 92.3801 200.82C80.1401 182.85 80.2701 175.82 74.7101 166.49C69.1501 157.16 60.0001 153.29 59.0001 147.24C58.0001 141.19 69.1501 138.24 77.0001 141.85C83.8601 145.04 89.2201 148.35 93.3001 159.13C96.5801 167.8 105.53 173.52 111.62 177.33C113.15 178.26 130.62 223.53 130.62 223.53Z" fill="#FEC6BD"/>
<path d="M234 62.3202C221.41 60.0302 216.51 66.9002 211 72.6202C205.49 78.3402 185.1 84.0502 171.05 85.8502C157 87.6502 128.56 100.56 121.7 102.52C114.84 104.48 113.86 108.52 118.1 111.18C122.34 113.84 129.54 115.1 137.71 113.96C145.88 112.82 159.94 108.89 166.47 108.24C173 107.59 218.11 111.83 220.07 119.84C222.03 127.85 221.07 128.99 212.22 128.34C203.37 127.69 199.64 127.52 192.45 123.27C185.26 119.02 179.71 116.27 169.58 115.43C159.45 114.59 155.03 115.1 152.09 118.7C149.15 122.3 152.91 125.4 156.34 128.01C159.77 130.62 175.46 143.53 180.69 145.49C185.92 147.45 210.1 154.15 220.56 158.73C231.02 163.31 246.66 167.63 266.15 167.27C269.4 167.21 272.47 166.99 275.41 166.71C277.133 157.911 278 148.966 278 140C278.03 117.299 272.437 94.9431 261.72 74.9302C258.96 73.7302 256.37 72.6302 254.01 71.6802C240.88 66.3702 238 63.0502 234 62.3202Z" fill="#FEC6BD"/>
<path d="M165.775 129.889C167.245 127.319 172.155 124.129 168.105 121.309C159.765 115.499 155.035 115.099 152.105 118.699C149.175 122.299 152.925 125.399 156.355 128.009C157.775 129.099 161.355 132.009 165.355 135.089C164.76 133.373 164.912 131.487 165.775 129.889Z" fill="url(#paint3_linear_3031_1902)"/>
<path d="M165.78 129.89C167.25 127.32 172.15 124.13 168.11 121.31C159.77 115.5 155.03 115.1 152.11 118.7C149.19 122.3 152.93 125.4 156.36 128.01C157.79 129.1 161.36 132.01 165.36 135.08C165.067 134.233 164.954 133.334 165.026 132.441C165.098 131.548 165.355 130.679 165.78 129.89Z" fill="url(#paint4_linear_3031_1902)"/>
<path d="M220.07 119.84C222.07 127.84 221.07 128.99 212.22 128.34C203.37 127.69 199.64 127.52 192.45 123.27C185.26 119.02 179.71 116.27 169.58 115.43C159.45 114.59 155.03 115.1 152.09 118.7C149.15 122.3 152.91 125.4 156.34 128.01C159.77 130.62 175.46 143.53 180.69 145.49C185.92 147.45 210.1 154.15 220.56 158.73C231.02 163.31 246.66 167.63 266.15 167.27C269.4 167.21 272.47 166.99 275.41 166.71C279.024 148.255 278.854 129.258 274.91 110.87C246.24 112.45 219.08 115.81 220.07 119.84Z" fill="url(#paint5_linear_3031_1902)"/>
<path d="M220.743 251.847C208.603 237.347 196.423 222.847 194.093 220.097C189.183 214.387 193.603 201.307 189.843 191.177C188.756 188.063 187.299 185.092 185.503 182.326L163.743 195.876C158.283 199.266 148.793 199.047 142.563 195.376L109.263 175.787L109.043 175.697C107.283 174.557 105.403 173.277 103.563 171.837C100.114 169.228 97.1639 166.021 94.8528 162.367C94.2446 161.333 93.726 160.249 93.3028 159.127C89.2128 148.347 83.8628 145.037 77.0028 141.847C69.1428 138.197 58.0028 141.196 59.0028 147.246C60.0028 153.296 69.1328 157.167 74.6928 166.487C80.2528 175.807 80.1028 182.847 92.3628 200.817C104.623 218.786 130.593 223.537 130.593 223.537L156.673 276.956C179.815 274.162 201.865 265.521 220.743 251.847Z" fill="url(#paint6_linear_3031_1902)"/>
<defs>
<linearGradient id="paint0_linear_3031_1902" x1="75.33" y1="16.89" x2="202.44" y2="258.87" gradientUnits="userSpaceOnUse">
<stop stop-color="#EDF7FF"/>
<stop offset="1" stop-color="#EAF7FF" stop-opacity="0.2"/>
</linearGradient>
<linearGradient id="paint1_linear_3031_1902" x1="24.22" y1="157.02" x2="212.91" y2="157.02" gradientUnits="userSpaceOnUse">
<stop stop-color="#80B8EC"/>
<stop offset="0.24" stop-color="#7DB4ED"/>
<stop offset="0.47" stop-color="#72A9F2"/>
<stop offset="0.68" stop-color="#6097F9"/>
<stop offset="1" stop-color="#AFD6FB"/>
</linearGradient>
<linearGradient id="paint2_linear_3031_1902" x1="24.2199" y1="135.85" x2="212.91" y2="135.85" gradientUnits="userSpaceOnUse">
<stop stop-color="#C0DCFF"/>
<stop offset="1" stop-color="#D2E5FF"/>
</linearGradient>
<linearGradient id="paint3_linear_3031_1902" x1="172.416" y1="129.789" x2="147.481" y2="120.184" gradientUnits="userSpaceOnUse">
<stop stop-color="#F5AEA7"/>
<stop offset="1" stop-color="#F5AEA7" stop-opacity="0"/>
</linearGradient>
<linearGradient id="paint4_linear_3031_1902" x1="3362.13" y1="2542.78" x2="2894.04" y2="2363.19" gradientUnits="userSpaceOnUse">
<stop stop-color="#F4ADA6"/>
<stop offset="1" stop-color="#F4ADA6" stop-opacity="0"/>
</linearGradient>
<linearGradient id="paint5_linear_3031_1902" x1="210.07" y1="161.56" x2="216.22" y2="127.13" gradientUnits="userSpaceOnUse">
<stop stop-color="#F4ADA6"/>
<stop offset="1" stop-color="#F4ADA6" stop-opacity="0"/>
</linearGradient>
<linearGradient id="paint6_linear_3031_1902" x1="162.273" y1="182.762" x2="143.206" y2="204.806" gradientUnits="userSpaceOnUse">
<stop stop-color="#F5AEA7"/>
<stop offset="1" stop-color="#F5AEA7" stop-opacity="0"/>
</linearGradient>
</defs>
</svg>
