<svg xmlns="http://www.w3.org/2000/svg" width="280" height="280" viewBox="0 0 280 280">
    <defs>
        <linearGradient id="prefix__a" x1="55.247%" x2="40.141%" y1="39.284%" y2="54.731%">
            <stop offset="0%" stop-color="#99C9FF" stop-opacity=".5"/>
            <stop offset="100%" stop-color="#FFF" stop-opacity="0"/>
        </linearGradient>
        <linearGradient id="prefix__b" x1="35.889%" x2="63.171%" y1="44.13%" y2="53.808%">
            <stop offset="0%" stop-color="#D0EDFF"/>
            <stop offset="100%" stop-color="#F7FDFF"/>
        </linearGradient>
        <linearGradient id="prefix__c" x1="77.556%" x2="19.196%" y1="50.464%" y2="49.135%">
            <stop offset="0%" stop-color="#D0EDFF"/>
            <stop offset="100%" stop-color="#F7FDFF"/>
        </linearGradient>
        <linearGradient id="prefix__d" x1="94.48%" x2="-20.907%" y1="47.525%" y2="47.905%">
            <stop offset="0%" stop-color="#FFC313"/>
            <stop offset="100%" stop-color="#FFD200"/>
        </linearGradient>
        <linearGradient id="prefix__e" x1="5.978%" x2="94.022%" y1="58.086%" y2="41.925%">
            <stop offset="0%" stop-color="#FFE200"/>
            <stop offset="100%" stop-color="#FFD200"/>
        </linearGradient>
        <linearGradient id="prefix__f" x1="10627.992%" x2="10627.992%" y1="-26703.984%" y2="-27054.268%">
            <stop offset="0%" stop-color="#FFC313"/>
            <stop offset="100%" stop-color="#FFD200"/>
        </linearGradient>
        <linearGradient id="prefix__g" x1="5.978%" x2="94.022%" y1="58.075%" y2="41.925%">
            <stop offset="0%" stop-color="#FFE200"/>
            <stop offset="100%" stop-color="#FFD200"/>
        </linearGradient>
        <linearGradient id="prefix__h" x1="10565.662%" x2="10565.662%" y1="-26552.876%" y2="-26903.149%">
            <stop offset="0%" stop-color="#FFC313"/>
            <stop offset="100%" stop-color="#FFD200"/>
        </linearGradient>
        <linearGradient id="prefix__i" x1="33.825%" x2="106.315%" y1="3.625%" y2="99.58%">
            <stop offset="0%" stop-color="#D7EAFF"/>
            <stop offset="100%" stop-color="#DBECFF"/>
            <stop offset="100%" stop-color="#E9F3FF"/>
        </linearGradient>
        <linearGradient id="prefix__j" x1="33.825%" x2="106.315%" y1="3.625%" y2="99.58%">
            <stop offset="0%" stop-color="#94C4FF" stop-opacity="0"/>
            <stop offset="37%" stop-color="#94C4FF" stop-opacity="0"/>
            <stop offset="59%" stop-color="#94C4FF"/>
            <stop offset="100%" stop-color="#DBECFF"/>
            <stop offset="100%" stop-color="#DDECFF"/>
        </linearGradient>
        <linearGradient id="prefix__k" x1="34.364%" x2="77.295%" y1="13.08%" y2="115.158%">
            <stop offset="0%" stop-color="#82BBEF"/>
            <stop offset="10%" stop-color="#7AB3F2"/>
            <stop offset="25%" stop-color="#649EFA"/>
            <stop offset="28%" stop-color="#609AFC"/>
            <stop offset="28%" stop-color="#619BFC"/>
            <stop offset="38%" stop-color="#84B2FD"/>
            <stop offset="47%" stop-color="#A1C6FD"/>
            <stop offset="58%" stop-color="#B8D5FE"/>
            <stop offset="69%" stop-color="#C8E0FE"/>
            <stop offset="82%" stop-color="#D1E6FE"/>
            <stop offset="100%" stop-color="#D4E8FE"/>
        </linearGradient>
        <linearGradient id="prefix__l" x1="7.571%" x2="92.26%" y1="5.8%" y2="94.027%">
            <stop offset="0%" stop-color="#E6F3FF"/>
            <stop offset="100%" stop-color="#F3FAFF"/>
        </linearGradient>
        <linearGradient id="prefix__m" x1="56.958%" x2="40.931%" y1="11.104%" y2="100.442%">
            <stop offset="0%" stop-color="#70AFFC"/>
            <stop offset="100%" stop-color="#C2E0FF"/>
        </linearGradient>
        <linearGradient id="prefix__n" x1="46.914%" x2="46.914%" y1="115.816%" y2="5.604%">
            <stop offset="0%" stop-color="#6DB3FA"/>
            <stop offset="100%" stop-color="#2F83E8"/>
        </linearGradient>
        <linearGradient id="prefix__o" x1="-.592%" x2="98.877%" y1="49.008%" y2="50.798%">
            <stop offset="0%" stop-color="#6DB3FA"/>
            <stop offset="100%" stop-color="#2F83E8"/>
        </linearGradient>
        <linearGradient id="prefix__p" x1="63.818%" x2="78.255%" y1="44.787%" y2="60.357%">
            <stop offset="0%" stop-color="#FFEE21"/>
            <stop offset="53%" stop-color="#FFEC1F"/>
            <stop offset="73%" stop-color="#FFE718"/>
            <stop offset="86%" stop-color="#FFDD0D"/>
            <stop offset="95%" stop-color="#FFD200"/>
        </linearGradient>
        <linearGradient id="prefix__q" x1="101.683%" x2="-31.35%" y1="80.933%" y2="1.341%">
            <stop offset="0%" stop-color="#FFE200"/>
            <stop offset="100%" stop-color="#FFD200"/>
        </linearGradient>
        <linearGradient id="prefix__r" x1="66.505%" x2="37.256%" y1="13.578%" y2="85.128%">
            <stop offset="0%" stop-color="#133472"/>
            <stop offset="100%" stop-color="#133E92"/>
        </linearGradient>
        <linearGradient id="prefix__s" x1="41.12%" x2="55.679%" y1="14.666%" y2="85.392%">
            <stop offset="0%" stop-color="#6DB3FA"/>
            <stop offset="100%" stop-color="#2F83E8"/>
        </linearGradient>
        <linearGradient id="prefix__t" x1="16.124%" x2="81.868%" y1="38.347%" y2="61.926%">
            <stop offset="0%" stop-color="#DFEAF7"/>
            <stop offset="100%" stop-color="#B4C8DC"/>
        </linearGradient>
        <linearGradient id="prefix__u" x1="0%" x2="100.594%" y1="50.017%" y2="50.017%">
            <stop offset="0%" stop-color="#133472"/>
            <stop offset="100%" stop-color="#133E92"/>
        </linearGradient>
        <linearGradient id="prefix__v" x1="38.783%" x2="57.452%" y1="13.422%" y2="73.605%">
            <stop offset="0%" stop-color="#133E92"/>
            <stop offset="100%" stop-color="#1372B6"/>
        </linearGradient>
        <linearGradient id="prefix__w" x1="50.029%" x2="50.029%" y1="5.828%" y2="103.767%">
            <stop offset="0%" stop-color="#6DB3FA"/>
            <stop offset="100%" stop-color="#2F83E8"/>
        </linearGradient>
        <linearGradient id="prefix__x" x1="63.092%" x2="36.546%" y1="16.831%" y2="66.227%">
            <stop offset="10%" stop-color="#61ADF7"/>
            <stop offset="100%" stop-color="#2F83E8"/>
        </linearGradient>
        <linearGradient id="prefix__y" x1="34.155%" x2="17.303%" y1="-.748%" y2="2.286%">
            <stop offset="0%" stop-color="#133472"/>
            <stop offset="100%" stop-color="#133E92"/>
        </linearGradient>
        <linearGradient id="prefix__z" x1="26.167%" x2="3.42%" y1="-40.304%" y2="34.482%">
            <stop offset="0%" stop-color="#133E92"/>
            <stop offset="100%" stop-color="#1372B6"/>
        </linearGradient>
        <linearGradient id="prefix__A" x1="-1.521%" x2="-35.848%" y1="-90.768%" y2="-30.626%">
            <stop offset="0%" stop-color="#6DB3FA"/>
            <stop offset="100%" stop-color="#2F83E8"/>
        </linearGradient>
        <linearGradient id="prefix__B" x1="11.6%" x2="15.055%" y1="-49.846%" y2="46.484%">
            <stop offset="0%" stop-color="#6DB3FA"/>
            <stop offset="100%" stop-color="#2F83E8"/>
        </linearGradient>
        <linearGradient id="prefix__C" x1="17.877%" x2="16.174%" y1="-71.773%" y2="18.755%">
            <stop offset="0%" stop-color="#5EABF6"/>
            <stop offset="100%" stop-color="#2F83E8"/>
        </linearGradient>
        <linearGradient id="prefix__D" x1="52.776%" x2="32.246%" y1="30.329%" y2="98.503%">
            <stop offset="0%" stop-color="#6DB3FA"/>
            <stop offset="100%" stop-color="#2F83E8"/>
        </linearGradient>
        <linearGradient id="prefix__E" x1="64.002%" x2="14.914%" y1="25.861%" y2="101.365%">
            <stop offset="0%" stop-color="#133472"/>
            <stop offset="100%" stop-color="#133E92"/>
        </linearGradient>
        <linearGradient id="prefix__F" x1="50.725%" x2="46.748%" y1="11.88%" y2="98.673%">
            <stop offset="0%" stop-color="#133E92"/>
            <stop offset="100%" stop-color="#1372B6"/>
        </linearGradient>
        <linearGradient id="prefix__G" x1="47.614%" x2="64.665%" y1="21.014%" y2="108.289%">
            <stop offset="0%" stop-color="#6DB3FA"/>
            <stop offset="100%" stop-color="#2F83E8"/>
        </linearGradient>
        <linearGradient id="prefix__H" x1="99.992%" x2="0%" y1="50.062%" y2="50.062%">
            <stop offset="0%" stop-color="#133E92"/>
            <stop offset="100%" stop-color="#1372B6"/>
        </linearGradient>
        <linearGradient id="prefix__I" x1="-4.459%" x2="91.437%" y1="60.8%" y2="42.57%">
            <stop offset="0%" stop-color="#6DB3FA"/>
            <stop offset="100%" stop-color="#2F83E8"/>
        </linearGradient>
        <linearGradient id="prefix__J" x1="100.083%" x2=".11%" y1="49.763%" y2="49.763%">
            <stop offset="0%" stop-color="#70AFFC"/>
            <stop offset="100%" stop-color="#C2E0FF"/>
        </linearGradient>
        <linearGradient id="prefix__K" x1="100.007%" x2="0%" y1="49.934%" y2="49.934%">
            <stop offset="0%" stop-color="#E6F3FF"/>
            <stop offset="100%" stop-color="#F3FAFF"/>
        </linearGradient>
        <linearGradient id="prefix__L" x1="50.351%" x2="47.501%" y1="12.269%" y2="103.859%">
            <stop offset="0%" stop-color="#133E92"/>
            <stop offset="100%" stop-color="#1372B6"/>
        </linearGradient>
        <linearGradient id="prefix__M" x1="51.057%" x2="45.888%" y1="15.867%" y2="88.242%">
            <stop offset="0%" stop-color="#133472"/>
            <stop offset="100%" stop-color="#133E92"/>
        </linearGradient>
        <linearGradient id="prefix__N" x1="51.396%" x2="40.312%" y1="19.023%" y2="104.4%">
            <stop offset="0%" stop-color="#6DB3FA"/>
            <stop offset="100%" stop-color="#2F83E8"/>
        </linearGradient>
    </defs>
    <g fill="none" fill-rule="evenodd" transform="translate(0 -.004)">
        <path fill="url(#prefix__a)" fill-rule="nonzero" d="M45.169 138.31L2.431 164.556 2.431 181.705 167.372 270.806 214.823 208.12z"/>
        <path fill="#CCE1FF" fill-rule="nonzero" d="M51.865 130.139c-6.567-25.589-17.986-49.703-29.196-61.381l.369-.359c11.23 11.748 22.798 35.942 29.335 61.61l-.508.13z"/>
        <path fill="#CCE1FF" fill-rule="nonzero" d="M21.453 63.856c1.575 1.723 1.874 5.29 1.874 5.29s-3.528-.637-5.092-2.38c-1.565-1.745-1.475-3.07-.588-3.887.887-.817 2.282-.747 3.806.977zM24.772 73.381c2.341.519 4.723 3.349 4.723 3.349s-3.338 1.574-5.69 1.056c-2.352-.518-3.079-1.704-2.81-2.92.27-1.215 1.425-1.993 3.777-1.485zM29.674 81.712c2.521.548 5.072 3.577 5.072 3.577s-3.587 1.684-6.098 1.126c-2.511-.558-3.299-1.824-2.99-3.119.31-1.295 1.505-2.162 4.016-1.584zM32.982 89.564c2.451.209 5.251 2.75 5.251 2.75s-3.188 1.993-5.64 1.843c-2.45-.15-3.347-1.315-3.248-2.58.1-1.266 1.186-2.213 3.637-2.013zM37.596 96.788c2.341.757 4.484 3.876 4.484 3.876s-3.568 1.266-5.91.498c-2.34-.767-2.989-2.052-2.56-3.258.428-1.206 1.654-1.883 3.986-1.116zM41.85 104.86c2.173 1.155 3.737 4.593 3.737 4.593s-3.727.627-5.899-.528c-2.172-1.156-2.56-2.531-1.993-3.657.568-1.126 1.963-1.565 4.156-.409zM44.94 113.698c2.172 1.155 3.736 4.593 3.736 4.593s-3.727.628-5.899-.528c-2.172-1.156-2.57-2.531-1.993-3.657.578-1.126 1.983-1.564 4.156-.408zM30.76 68.967c-.528 2.442-3.467 4.913-3.467 4.913s-1.625-3.468-1.097-5.91c.529-2.44 1.774-3.198 2.99-2.919 1.215.28 2.112 1.475 1.574 3.916zM36.65 78.314c-.718 2.172-3.638 4.155-3.638 4.155s-1.126-3.328-.428-5.5c.697-2.173 1.923-2.75 2.989-2.372 1.066.379 1.794 1.545 1.076 3.717zM42.24 86.694c-1.496 1.993-5.162 2.99-5.162 2.99s0-3.817 1.444-5.8c1.445-1.983 2.92-2.162 3.986-1.395 1.066.767 1.216 2.262-.269 4.205zM45.627 93.858c-1.485 1.993-5.162 2.99-5.162 2.99s0-3.817 1.455-5.8c1.455-1.983 2.92-2.132 3.916-1.365.997.768 1.286 2.192-.209 4.175zM48.826 101.64c-1.346 2.093-4.923 3.388-4.923 3.388s-.329-3.796.997-5.888c1.325-2.093 2.75-2.372 3.826-1.675 1.076.698 1.435 2.103.1 4.176zM52.034 109.861c-1.345 2.093-4.922 3.388-4.922 3.388s-.33-3.806.996-5.889c1.325-2.082 2.75-2.371 3.827-1.684 1.076.688 1.434 2.093.1 4.185zM54.854 118.52c-1.335 2.093-4.922 3.388-4.922 3.388s-.32-3.796.996-5.889c1.315-2.092 2.75-2.371 3.826-1.674 1.077.698 1.435 2.093.1 4.175z"/>
        <path fill="url(#prefix__b)" fill-rule="nonzero" d="M228.295 184.973s-5.341-7.972-5.152-12.505c.28-6.696-.279-8.091-2.63-11.958-2.352-3.866.597-10.303 5.719-8.29 5.122 2.013 5.81-6.397 6.816-11.698 1.006-5.301 11.14-12.486 13.053-6.278 1.913 6.208-2.82 7.224-.598 11.778s4.634 7.543.29 13.243c-4.345 5.7-10.463 19.839-10.463 19.839l-7.035 5.869z"/>
        <path fill="#CCE1FF" fill-rule="nonzero" d="M224.06 156.335c1.766 3.395 4.045 6.497 6.756 9.197 2.514-9.165 5.756-18.115 9.695-26.764.063-.13.217-.187.349-.13.062.03.11.084.132.15.023.065.018.137-.013.2-.09.198-7.971 17.198-10.721 31.377 4.504-1.546 8.477-4.338 11.459-8.051.086-.11.241-.136.358-.06.06.038.102.1.113.17.012.071-.007.144-.053.199-3.098 3.872-7.251 6.765-11.957 8.33-.49 2.513-.763 5.063-.817 7.623.003.07-.024.137-.073.186-.05.05-.117.076-.186.073-.064 0-.125-.025-.17-.07-.058-.045-.092-.115-.09-.19.149-4.208.774-8.387 1.864-12.455-2.85-2.793-5.238-6.022-7.075-9.566-.057-.132 0-.285.13-.348.118-.033.242.021.299.13zM238.349 182.093c7.971-25.28 20.746-48.825 32.583-59.995l.35.378c-11.779 11.11-24.513 34.567-32.435 59.787l-.498-.17z"/>
        <path fill="#CCE1FF" fill-rule="nonzero" d="M272.756 117.683c-1.664 1.644-2.142 5.192-2.142 5.192s3.547-.449 5.2-2.093c1.655-1.644 1.645-2.99.798-3.846-.847-.857-2.202-.887-3.856.747zM268.94 127.03c-2.372.379-4.903 3.069-4.903 3.069s3.258 1.744 5.63 1.365c2.371-.379 3.159-1.544 2.99-2.77-.17-1.226-1.346-2.053-3.717-1.664zM263.599 135.051c-2.541.419-5.252 3.298-5.252 3.298s3.488 1.864 6.029 1.455c2.54-.408 3.388-1.654 3.168-2.99-.219-1.334-1.404-2.181-3.945-1.763zM259.872 142.744c-2.461.08-5.39 2.461-5.39 2.461s3.068 2.212 5.53 2.142c2.46-.07 3.417-1.136 3.377-2.411-.04-1.276-1.056-2.262-3.517-2.192zM254.88 149.709c-2.382.638-4.684 3.637-4.684 3.637s3.498 1.445 5.87.807c2.371-.638 3.069-1.893 2.74-3.119-.33-1.225-1.555-1.963-3.926-1.325zM250.226 157.54c-2.232.997-3.985 4.395-3.985 4.395s3.696.817 5.928-.219c2.232-1.036 2.69-2.391 2.153-3.547-.538-1.156-1.864-1.664-4.096-.628zM246.65 166.2c-2.233 1.046-3.987 4.394-3.987 4.394s3.697.817 5.93-.219c2.231-1.036 2.69-2.391 2.151-3.537-.538-1.146-1.863-1.674-4.095-.638zM243.61 174.959c-2.232.996-3.986 4.384-3.986 4.384s3.687.827 5.92-.21c2.231-1.035 2.7-2.39 2.161-3.547-.538-1.155-1.873-1.664-4.095-.627zM263.19 122.297c.399 2.461 3.199 5.082 3.199 5.082s1.813-3.378 1.405-5.84c-.409-2.46-1.595-3.288-2.87-3.079-1.276.21-2.133 1.366-1.734 3.837zM256.813 131.315c.608 2.212 3.408 4.334 3.408 4.334s1.325-3.258.727-5.46c-.598-2.203-1.774-2.85-2.92-2.541-1.145.309-1.823 1.454-1.215 3.667zM250.784 139.426c1.375 2.062 4.983 3.278 4.983 3.278s.239-3.797-1.146-5.86c-1.385-2.062-2.79-2.31-3.857-1.603-1.066.707-1.365 2.122.02 4.185zM247.018 146.36c1.375 2.063 4.982 3.28 4.982 3.28s.24-3.797-1.146-5.86c-1.385-2.063-2.8-2.312-3.856-1.604-1.056.707-1.365 2.122.02 4.185zM243.41 153.964c1.226 2.162 4.734 3.647 4.734 3.647s.528-3.777-.698-5.93c-1.225-2.151-2.62-2.52-3.736-1.882-1.116.637-1.525 2.012-.3 4.165zM239.764 161.995c1.225 2.152 4.743 3.637 4.743 3.637s.518-3.776-.708-5.929c-1.225-2.152-2.62-2.51-3.726-1.883-1.106.628-1.525 2.013-.31 4.175z"/>
        <path fill="url(#prefix__c)" fill-rule="nonzero" d="M221.648 193.682s.519-13.173 6.328-16.94c5.81-3.766 10.393 1.555 10.652-5.111.259-6.667 1.046-12.655 8.749-11.958 7.702.698 9.615 1.216 11.528-3.816 1.914-5.032 4.415-11.26 9.357-6.577 4.942 4.684 3.288 18.185-.698 26.157-3.985 7.972-11.867 11.609-12.953 15.943-1.086 4.335-1.126 5.54 3.208 8.23 4.335 2.691 2.162 10.653-9.615 14.03-11.778 3.379-26.904-.169-26.904-.169l.348-19.79z"/>
        <path fill="#CCE1FF" fill-rule="nonzero" d="M221.748 203.995c.1 0 9.177-2.75 21.414-11.738-.005-.026-.005-.053 0-.08 2.291-4.743 2.989-19.76 2.989-19.929 0-.143.116-.259.259-.259.143 0 .259.116.259.26 0 .597-.668 13.95-2.76 19.4l.18-.12c12.694-9.545 19.33-29.305 19.4-29.504.047-.135.192-.21.329-.17.134.048.206.195.16.33-.06.199-6.757 20.117-19.58 29.753-3.012 2.266-6.146 4.365-9.387 6.288 3.706 3.467 10.592 2.361 10.662 2.351.14-.024.273.07.299.21.018.138-.073.269-.21.298-.923.138-1.856.205-2.79.2-2.47 0-6.058-.459-8.43-2.78-3.992 2.446-8.238 4.451-12.664 5.978h-.07c-.117.004-.221-.075-.25-.19-.025-.133.058-.264.19-.298z"/>
        <path fill="url(#prefix__d)" fill-rule="nonzero" d="M6.885 116v3.856c.399 4.912 9.128 8.768 19.77 8.649 10.642-.12 19.251-4.156 19.54-9.078v-3.866l-39.31.438z"/>
        <path fill="#000" fill-rule="nonzero" d="M8.111 118.35v4.335c.17.21.339.419.538.628l-.05-4.982-.488.02zM10.383 118.321L10.453 124.718 10.991 125.047 10.961 118.321zM12.665 118.301L12.744 125.964 13.283 126.193 13.193 118.291zM14.947 118.271L15.036 126.841 15.574 127.02 15.475 118.271zM17.209 118.251L17.308 127.498 17.846 127.618 17.737 118.241zM19.48 118.221L19.59 127.957 20.118 128.046 20.019 118.221zM21.752 118.201L21.862 128.265 22.4 128.325 22.29 118.191zM24.034 118.172l.11 10.273h.528l-.11-10.303-.528.03zM26.306 118.152L26.416 128.544 26.954 128.544 26.834 118.191zM28.578 118.122L28.688 128.435 29.226 128.435 29.106 118.162zM30.89 118.102L30.999 128.236 31.537 128.166 31.428 118.092zM33.122 118.072L33.231 127.897 33.769 127.807 33.66 118.072zM35.404 118.052L35.503 127.428 36.031 127.299 35.932 118.042zM37.675 118.022L37.765 126.781 38.303 126.591 38.204 118.022zM39.947 118.002L40.037 125.904 40.565 125.655 40.475 117.992zM42.22 117.972l.069 6.726c.18-.11.369-.219.538-.339l-.07-6.387h-.538zM44.491 117.952l.06 4.983c.19-.21.359-.429.528-.638l-.05-4.335-.538-.01z" opacity=".06"/>
        <ellipse cx="26.56" cy="115.78" fill="url(#prefix__e)" fill-rule="nonzero" rx="19.67" ry="9.167" transform="rotate(-.63 26.56 115.78)"/>
        <path fill="#FFF" fill-rule="nonzero" d="M26.904 108.117c9.636 0 17.517 3.269 17.557 7.274 0 1.894-1.813 3.797-5.042 5.232-4.074 1.641-8.431 2.468-12.824 2.431h-.468c-9.646 0-17.528-3.258-17.568-7.274 0-1.883 1.814-3.786 5.042-5.221 4.074-1.647 8.432-2.473 12.825-2.432h.478m0-.498h-.478c-10.194.11-18.415 3.767-18.365 8.161.05 4.394 8.131 7.772 18.106 7.772h.468c10.193-.11 18.414-3.766 18.365-8.16-.05-4.395-8.132-7.783-18.096-7.783v.01z" opacity=".4"/>
        <path fill="url(#prefix__f)" fill-rule="nonzero" d="M2.152 109.692v3.866c.399 4.912 9.118 8.759 19.76 8.65 10.642-.11 19.251-4.166 19.54-9.088v-3.857l-39.3.429z"/>
        <path fill="#000" fill-rule="nonzero" d="M3.388 112.043l.05 4.345c.165.218.345.424.538.618l-.06-4.983-.528.02zM5.66 112.023l.07 6.388c.169.12.358.219.538.329l-.07-6.726-.538.01zM7.972 111.994L8.061 119.656 8.589 119.885 8.51 111.994zM10.204 111.974L10.303 120.543 10.841 120.712 10.742 111.964zM12.485 111.944L12.585 121.191 13.113 121.32 13.014 111.944zM14.757 111.924L14.857 121.659 15.395 121.739 15.285 111.914zM17.029 111.894L17.139 121.968 17.677 122.028 17.567 111.894zM19.301 111.874L19.411 122.147 19.949 122.147 19.839 111.834zM21.573 111.844L21.693 122.197 22.221 122.197 22.111 111.844zM23.855 111.824L23.964 122.137 24.493 122.137 24.383 111.864zM26.127 111.794L26.236 121.928 26.764 121.868 26.655 111.794zM28.399 111.774L28.508 121.599 29.036 121.5 28.937 111.764zM30.67 111.744L30.77 121.121 31.308 120.991 31.209 111.744zM32.942 111.725L33.042 120.473 33.57 120.284 33.48 111.715zM35.224 111.695L35.304 119.596 35.842 119.357 35.752 111.695zM37.496 111.675L37.566 118.401 38.094 118.062 38.024 111.665zM39.768 111.605l.05 4.982c.19-.2.366-.413.528-.638v-4.324l-.578-.02z" opacity=".06"/>
        <ellipse cx="21.828" cy="109.485" fill="url(#prefix__g)" fill-rule="nonzero" rx="19.67" ry="9.167" transform="rotate(-.63 21.828 109.485)"/>
        <path fill="#FFF" fill-rule="nonzero" d="M22.21 101.82c9.646 0 17.528 3.258 17.568 7.274.04 4.016-8.141 7.553-17.876 7.653h-.469c-9.635 0-17.517-3.269-17.567-7.274 0-1.894 1.824-3.797 5.052-5.232 4.075-1.641 8.432-2.467 12.824-2.431h.469m0-.498h-.479c-10.183.11-18.404 3.766-18.364 8.16.04 4.395 8.091 7.773 18.065 7.773h.489c10.193-.11 18.414-3.767 18.364-8.161-.05-4.394-8.091-7.762-18.065-7.762l-.01-.01z" opacity=".4"/>
        <path fill="url(#prefix__h)" fill-rule="nonzero" d="M13.631 101.82l.05 3.856c.399 4.913 9.118 8.769 19.76 8.65 10.642-.12 19.25-4.156 19.54-9.078v-3.867l-39.35.439z"/>
        <path fill="#000" fill-rule="nonzero" d="M14.867 104.172l.05 4.334c.167.219.347.429.538.628l-.06-4.982-.528.02zM17.139 104.142L17.209 110.539 17.747 110.868 17.677 104.142zM19.411 104.122L19.5 111.774 20.028 112.014 19.929 104.112zM21.683 104.092L21.782 112.661 22.32 112.841 22.221 104.092zM23.964 104.072L24.064 113.319 24.592 113.438 24.493 104.062zM26.236 104.042L26.336 113.777 26.874 113.867 26.764 104.042zM28.508 104.022L28.618 114.086 29.156 114.146 29.046 104.012zM30.78 103.992l.11 10.273h.538l-.11-10.303-.538.03zM33.052 103.972L33.172 114.325 33.7 114.325 33.59 103.972zM35.334 103.942L35.443 114.256 35.972 114.256 35.872 103.942zM37.606 103.922L37.715 114.056 38.243 113.986 38.134 103.912zM39.858 103.893L39.967 113.717 40.495 113.628 40.396 103.893zM42.149 103.873L42.249 113.249 42.787 113.12 42.688 103.863zM44.421 103.843L44.521 112.591 45.049 112.412 44.959 103.843zM46.703 103.823L46.783 111.725 47.321 111.475 47.231 103.813zM48.975 103.793l.07 6.726c.18-.11.359-.22.528-.339l-.07-6.387h-.528zM51.247 103.773v4.982c.188-.202.364-.415.528-.638v-4.334l-.528-.01z" opacity=".06"/>
        <ellipse cx="33.309" cy="101.597" fill="url(#prefix__g)" fill-rule="nonzero" rx="19.67" ry="9.167" transform="rotate(-.63 33.31 101.597)"/>
        <path fill="#FFF" fill-rule="nonzero" d="M33.69 93.938c9.645 0 17.527 3.268 17.567 7.274 0 1.883-1.824 3.797-5.052 5.231-4.075 1.642-8.432 2.468-12.824 2.432h-.498c-9.636 0-17.518-3.259-17.568-7.274-.05-4.016 8.141-7.553 17.876-7.653h.469m0-.498h-.479c-10.183.11-18.404 3.766-18.364 8.16.04 4.395 8.101 7.763 18.066 7.763h.478c10.193-.11 18.414-3.767 18.364-8.17-.05-4.405-8.09-7.763-18.065-7.763v.01z" opacity=".4"/>
        <path fill="url(#prefix__i)" fill-rule="nonzero" d="M220.622 90.54L57.345 23.988c-1.484-.687-3.183-.749-4.713-.17l-8.59 3.428v14.608l172.295 168.937 8.62-3.438c2.351-.777 3.926-3.218 3.926-6.736v-96.904c0-5.42-3.687-11.32-8.26-13.173z"/>
        <path fill="url(#prefix__j)" fill-rule="nonzero" d="M220.622 90.54L57.345 23.988c-1.484-.687-3.183-.749-4.713-.17l-8.59 3.428v14.608l172.295 168.937 8.62-3.438c2.351-.777 3.926-3.218 3.926-6.736v-96.904c0-5.42-3.687-11.32-8.26-13.173z"/>
        <path fill="url(#prefix__k)" fill-rule="nonzero" d="M52.413 32.587L50.739 141.528 211.664 205.669 212.561 97.635z"/>
        <path fill="url(#prefix__l)" fill-rule="nonzero" d="M211.963 93.998L48.686 27.446c-4.564-1.864-8.26.996-8.26 6.437v96.894c0 5.42 3.696 11.32 8.26 13.182l163.277 66.543c4.564 1.863 8.27-.997 8.27-6.437V107.17c-.02-5.41-3.706-11.31-8.27-13.173zm-3.428 99.704c0 5.42-3.697 8.3-8.26 6.437l-137.03-55.8c-4.565-1.854-8.261-7.753-8.261-13.174V45.471c0-5.42 3.696-8.3 8.26-6.447l137.04 55.8c4.564 1.864 8.261 7.763 8.261 13.184l-.01 85.694z"/>
        <ellipse cx="47.889" cy="91.576" fill="url(#prefix__m)" fill-rule="nonzero" rx="3.179" ry="4.783" transform="rotate(-27.39 47.89 91.576)"/>
        <path fill="url(#prefix__n)" fill-rule="nonzero" d="M213.238 168.402c-.487-.245-.798-.74-.807-1.285v-29.365c0-.529.359-.808.807-.628.485.248.794.741.808 1.285v29.335c-.05.529-.419.808-.808.658z"/>
        <path stroke="#62707C" stroke-linecap="round" stroke-width=".5" d="M114.85 42.631L114.85 49.716M154.02 58.275L154.02 65.36"/>
        <path fill="url(#prefix__o)" fill-rule="nonzero" d="M154.827 26.987l-40.236-16.222c-4.544-1.833-8.25.877-8.25 5.979v14.568c0 5.161 3.706 10.841 8.25 12.684l27.193 10.961 1.454.588c.315.163.695.131.98-.08.284-.213.422-.568.356-.916V37.05c-.052-1.307-1.036-2.387-2.332-2.56-.89-.016-1.646.649-1.744 1.534v13.73l-24.91-10.053c-3-1.45-4.95-4.443-5.063-7.772V19.434c0-3.159 2.272-4.823 5.062-3.697l38.503 15.515c2.996 1.452 4.941 4.445 5.052 7.772V51.53c0 3.158-2.262 4.822-5.052 3.696l-2.481-1.056c-.517-.189-1.093-.118-1.548.19-.456.307-.737.815-.754 1.365-.19 1.267.539 2.492 1.744 2.93l3.856 1.554c4.544 1.833 8.25-.867 8.25-6.029V39.672c-.08-5.162-3.786-10.851-8.33-12.685z"/>
        <path fill="url(#prefix__p)" fill-rule="nonzero" d="M226.192 194.499l-45.836-18.604c-.356-.154-.76-.154-1.116 0l-4.175 2.083 47.998 44.66 4.175-2.082c.565-.303.892-.917.827-1.555v-21.373c-.008-1.306-.725-2.505-1.873-3.13z"/>
        <path fill="url(#prefix__q)" fill-rule="nonzero" d="M221.997 222.569l-45.756-18.604c-1.193-.593-1.96-1.797-1.993-3.129v-21.343c0-1.276.887-1.993 1.993-1.525l45.756 18.604c1.194.591 1.961 1.796 1.993 3.128v21.334c-.04 1.286-.917 1.973-1.993 1.535z"/>
        <path fill="#FFF" fill-rule="nonzero" d="M181.91 194.11L181.273 197.379 180.087 196.87 179.768 188.022 180.505 188.331 180.784 196.233 181.611 192.476 182.229 192.735 183.056 197.199 183.385 189.557 184.063 189.846 183.714 198.415 182.458 197.887zM188.935 191.918L188.935 192.825 186.494 191.828 186.494 194.678 188.686 195.605 188.686 196.512 186.494 195.585 186.494 198.714 188.935 199.76 188.935 200.667 185.627 199.262 185.627 190.553zM191.944 193.204L191.944 200.956 194.147 201.893 194.147 202.839 191.078 201.544 191.078 192.835zM196.807 203.447c-.314-.537-.47-1.152-.448-1.774v-4.484c-.073-.508.096-1.02.458-1.385.412-.23.914-.23 1.325 0l1.405.598v.997l-1.504-.638c-.182-.118-.416-.118-.598 0-.16.14-.245.346-.23.558v4.982c.006.269.085.531.23.757.137.233.342.417.588.528l1.504.638v.997l-1.405-.598c-.555-.24-1.02-.653-1.325-1.176zM204.809 206.845c-.41.24-.917.24-1.326 0l-.398-.17c-.54-.218-.999-.597-1.316-1.086-.321-.538-.48-1.157-.458-1.783v-4.514c-.07-.513.103-1.03.468-1.395.407-.235.909-.235 1.316 0l.398.16c.544.216 1.004.6 1.316 1.095.322.538.482 1.158.458 1.784v4.474c0 .757-.15 1.216-.458 1.435zm-.618-7.224c-.137-.23-.343-.412-.588-.519l-.598-.259c-.181-.107-.407-.107-.588 0-.165.14-.25.353-.23.568v4.983c.006.265.086.524.23.747.135.238.345.424.598.528l.588.25c.182.117.416.117.598 0 .162-.139.247-.347.229-.559v-4.982c-.008-.27-.09-.532-.24-.757zM209.033 206.267L208.206 205.918 207.21 200.617 207.21 208.429 206.463 208.11 206.463 199.401 207.838 199.989 208.615 204.772 209.432 200.667 210.767 201.235 210.767 209.934 209.99 209.615 209.99 201.803zM215.64 203.278L215.64 204.184 213.199 203.188 213.199 206.038 215.391 206.964 215.391 207.881 213.199 206.944 213.199 210.083 215.64 211.08 215.64 211.986 212.342 210.581 212.342 201.873z"/>
        <path fill="#FEC6BD" fill-rule="nonzero" d="M184.531 45.78s1.993-.996 2.262-1.265c.269-.27 0-.28-.319-.19-.319.09-.638.24-.668 0-.03-.239 1.395-1.763 1.146-1.993-.249-.229-.996.887-1.086.847-.09-.04.997-1.415.757-1.564-.239-.15-1.086 1.345-1.225 1.265-.14-.08.817-1.255.608-1.365-.21-.11-.997 1.405-1.166 1.355-.17-.05.508-1.245.309-1.275-.2-.03-1.047 1.445-1.186 2.252-.07.454-.219.892-.438 1.295l1.006.638z"/>
        <path fill="#181F3D" fill-rule="nonzero" d="M198.292 54.45c.19-3.21-.349-8.112-5.182-8.102-4.264 0-4.235 5.39-4.235 5.39.024 1.196-.324 2.37-.996 3.359 0 0 10.293 2.102 10.413-.648zM178.423 107.3s-4.913 1.445-4.913 2.87 6.975-1.325 6.975-1.325V107.3h-2.062z"/>
        <path fill="#FEC6BD" fill-rule="nonzero" d="M176.57 87.491c-.638 6.178 1.853 19.81 1.853 19.81h2.072s-.508-9.965-.388-17.777c5.042-4.036-2.91-8.2-3.538-2.033z"/>
        <path fill="#FEC6BD" fill-rule="nonzero" d="M181.97 88.398c-.628 6.168 3.09 19.69 3.09 19.69h2.072s-.509-9.965-.379-17.777c5.042-4.036-4.155-8.091-4.783-1.913z"/>
        <path fill="url(#prefix__r)" fill-rule="nonzero" d="M176.001 85.867c-.232 1.905-.362 3.82-.388 5.74 0 0 12.954 4.533 13.352-.489 12.954-4.982 13.86-8.44 12.854-12.475-.485-2.145-1.245-4.218-2.262-6.168h-11.23s-11.887 9.865-12.326 13.392z"/>
        <path fill="#D1DEEE" fill-rule="nonzero" d="M182.349 78.643L195.831 79.28 191.805 84.312 177.805 83.665z"/>
        <path fill="url(#prefix__s)" fill-rule="nonzero" d="M200.085 58.963c-.045-.087-.102-.167-.169-.24-.243-.24-.503-.463-.777-.667-.99-.948-2.288-1.51-3.657-1.584-1.208-.245-2.45-.272-3.667-.08l-11.718-.488 4.484-10.164-.997-.667s-7.971 7.533-7.891 12.375c.1 3.986 8.04 5.341 10.96 5.72.126 3.16.696 6.286 1.694 9.287h11.22s.2-1.306.419-3.12l1.714 3.698-6.607 5.261 1.206 1.634s8.14-3.169 9.905-4.932c1.295-1.345-1.674-11.3-6.119-16.033z"/>
        <path fill="url(#prefix__t)" fill-rule="nonzero" d="M175.095 73.87l11.778.368c.765 0 1.45.477 1.713 1.196l3.219 8.878-14-.607-3.428-8.779c-.086-.238-.053-.502.089-.712.142-.209.376-.337.629-.344z"/>
        <path fill="#FEC6BD" fill-rule="nonzero" d="M194.555 53.532l.24 2.81c-.43.362-.974.556-1.535.548-.491.045-.976-.13-1.325-.478l.488-2.73 2.132-.15z"/>
        <path fill="#FEC6BD" fill-rule="nonzero" d="M193 48.221c-1.484.017-2.68 1.225-2.68 2.71 0 1.814.668 4.325 2.66 4.236 2.293-.11 2.751-1.814 2.82-4.136.025-.743-.254-1.464-.773-1.996-.52-.532-1.233-.83-1.976-.824l-.05.01z"/>
        <path fill="#181F3D" fill-rule="nonzero" d="M185.06 107.998s-4.913 1.445-4.913 2.87 6.975-1.326 6.975-1.326v-1.544h-2.063z"/>
        <path fill="#FEC6BD" fill-rule="nonzero" d="M194.894 51.918c.005.483.4.87.883.867.483-.004.872-.397.87-.88-.001-.483-.393-.874-.876-.874-.234 0-.459.094-.624.26-.165.167-.256.393-.253.627zM195.083 78.314c-1.094-.11-2.192.18-3.089.817-.717.608-.15.867.18.648.343-.143.718-.192 1.086-.14-.407.496-.9.914-1.455 1.236-.996.627-.528 1.684 1.246 1.126 1.22-.445 2.33-1.153 3.248-2.073l-1.216-1.614z"/>
        <path fill="#181F3D" fill-rule="nonzero" d="M195.82 51.031c-1.454-.698-2.744-1.697-3.786-2.93 2.97-1.125 4.265.957 3.787 2.93z"/>
        <path fill="#FFF" fill-rule="nonzero" d="M175.095 73.87l11.778.368c.765 0 1.45.477 1.713 1.196l3.219 8.878-3.358-8.818c-.281-.626-.88-1.05-1.564-1.106l-11.788-.518z"/>
        <path fill="#FEC6BD" fill-rule="nonzero" d="M160.975 212.096L160.856 214.926 162.201 215.364 162.35 212.206z"/>
        <path fill="#30343A" fill-rule="nonzero" d="M161.015 214.597c-.448.09-.873.273-1.246.538-.797.498-2.331.24-2.7.867-.369.628.21.688 1.455.777 1.55.064 3.103.004 4.643-.179.399-.12.379-1.873-.787-2.372l-1.365.37z"/>
        <path fill="url(#prefix__u)" fill-rule="nonzero" d="M157.517 193.891l2.99 19.122 2.252-.07 1.106-20.178c.39-3.15.453-6.333.19-9.496l-6.538 10.622z"/>
        <path fill="#FEC6BD" fill-rule="nonzero" d="M152.276 212.843L152.157 215.683 153.502 216.112 153.651 212.963z"/>
        <path fill="#30343A" fill-rule="nonzero" d="M152.316 215.344c-.448.098-.871.284-1.246.549-.797.488-2.341.229-2.7.856-.359.628.21.688 1.455.778 1.55.063 3.103.003 4.643-.18.399-.11.379-1.873-.787-2.371l-1.365.368z"/>
        <path fill="url(#prefix__v)" fill-rule="nonzero" d="M151.947 182.621s-.309 10.842-.09 19.012c.22 8.171.09 11.838.09 11.838l1.943.22s1.943-5.053 3.558-10.214c1.026-3.504 1.668-7.109 1.913-10.752 0 0 5.7-5.141 4.663-11.588l-12.077 1.484z"/>
        <path fill="#FEC6BD" fill-rule="nonzero" d="M152.994 152.04s-.36 1.834-.419 2.86c-.15 2.212.997 3.877 1.644 3.847.648-.03 1.395-.11 1.395-.11l1.096 1.435 2.551-.379-1.634-3.547s.807-3.258-.259-3.647c-1.44-.294-2.905-.447-4.374-.458z"/>
        <path fill="url(#prefix__w)" fill-rule="nonzero" d="M159.56 159.295s-2.61-.29-3.298.299c-.688.587-2.73 2.81-3.557 7.353-.37 1.993-.778 15.734-.778 15.734s12.765 14.747 17.329 14.16c0 0-3.767-23.646-5.48-29.844-1.715-6.198-4.216-7.702-4.216-7.702z"/>
        <path fill="#30343A" fill-rule="nonzero" d="M144.554 169.13l.996-.429c.12-.05.14-.24 0-.408l-1.624-2.641c-.08-.157-.255-.242-.428-.21l-.997.43c-.13.059-.15.238-.05.408l1.624 2.64c.16.17.35.27.479.21z"/>
        <path fill="#FEC6BD" fill-rule="nonzero" d="M144.723 170.226s-1.445-.897-1.445-1.485c0-.588-.548-1.674 0-1.525.548.15 2.202 2.183 2.202 2.183l-.757.827z"/>
        <path fill="url(#prefix__x)" fill-rule="nonzero" d="M154.19 165.084c-.623 2.335-1.385 4.631-2.283 6.875-.13.36-6.267-2.69-6.267-2.69l-1.216 1.126s8.64 10.423 11.708 5.43c1.733-2.721 3.1-5.66 4.066-8.738l-6.009-2.003z"/>
        <path fill="#37475E" fill-rule="nonzero" d="M153.89 150.386c-.797.429-1.664 2.99-1.295 2.99s1.873 0 2.272.05l.259.996s0-.717.688-.528c.687.19.338 1.365-.29 1.554-.15 1.894.948 3.666 2.71 4.375 3.12 1.425 2.223 8.729 6.976 6.975 4.753-1.754 2.53-4.165-.897-8.23-3.428-4.066-2.92-5.272-4.554-7.145-1.51-1.607-3.899-2.028-5.869-1.037z"/>
        <path fill="#FEC6BD" fill-rule="nonzero" d="M89.321 159.424L88.155 161.656 87.308 161.188 88.075 158.777z"/>
        <path fill="#30343A" fill-rule="nonzero" d="M87.607 160.57l.548 1.086c.522.352 1.013.748 1.465 1.186.578.578 1.515.11 2.162.847.648.737-1.993.648-2.99.498-1.009-.304-1.95-.801-2.77-1.465-.577-.428.768-2.6 1.585-2.152z"/>
        <path fill="url(#prefix__y)" fill-rule="nonzero" d="M100.083 138.788s-.638 7.364-3.926 11.678l-6.836 8.968-1.465-.608s1.395-6.247 2.292-10.572c1.227-6.691 1.94-13.467 2.132-20.268l7.803 10.802z"/>
        <path fill="#FEC6BD" fill-rule="nonzero" d="M112.847 157.82L113.106 160.839 111.701 161.357 111.392 158.009z"/>
        <path fill="#30343A" fill-rule="nonzero" d="M113.086 160.34c.485-.008.967.084 1.415.27.997.329 2.491-.319 2.99.25.498.567 0 .756-1.326 1.155-1.597.436-3.227.746-4.872.927-.439 0-.847-1.854.249-2.66l1.544.059z"/>
        <path fill="url(#prefix__z)" fill-rule="nonzero" d="M105.174 126.422s5.89 6.656 6.886 15.325c.996 8.839.996 16.63.996 16.63l-1.993.718s-2.989-9.157-5.978-14.08c-2.99-4.922-5.112-6.227-5.112-6.227s-7.214-3.876-7.802-10.811l13.003-1.555z"/>
        <path fill="#FEC6BD" fill-rule="nonzero" d="M110.545 109.343s1.475-1.066 1.425-1.684c-.05-.618.458-1.833-.16-1.624-.617.21-2.162 2.5-2.162 2.5l.897.808z"/>
        <path fill="url(#prefix__A)" fill-rule="nonzero" d="M100.89 102.348s4.225 8.27 4.703 9.656c.478 1.385 1.505-.07 2.411-1.346.907-1.275 1.644-2.122 1.644-2.122l.897.807s-2.232 7.812-4.045 8.868c-1.814 1.057-4.504-.428-4.504-.428l-1.106-15.435z"/>
        <path fill="#FEC6BD" fill-rule="nonzero" d="M105.991 94.406c.153 1.01.223 2.03.21 3.05-.18 2.361-1.864 3.985-2.491 3.866-.628-.12-1.455-.32-1.455-.32l-1.365 1.346-2.65-.767 2.251-3.508s-.379-3.567.817-3.826c1.563-.097 3.131-.043 4.683.16z"/>
        <path fill="#30343A" fill-rule="nonzero" d="M104.218 95.164s2.69 0 3.318-1.066c.628-1.067.15-2.99-.817-2.99s-1.644 1.126-3.08 1.096c-1.434-.03-2.49-.598-3.487.08-1.116.731-1.612 2.114-1.215 3.388.558 1.176 1.165 2.441 1.833 2.391.668-.05.997-.578.728-1.056-.27-.478-.459-1.554.308-1.734.307-.094.64-.058.918.1.28.16.48.426.557.737v.509c.327-.05.617-.239.796-.517.179-.278.23-.62.14-.938z"/>
        <path fill="url(#prefix__B)" fill-rule="nonzero" d="M98.887 100.694s.07.996 1.993 1.654c1.597 3.142 2.73 6.498 3.368 9.964.627 4.634.916 14.15.916 14.15s-7.971 1.823-12.894 1.554c0 0-2.72-13.432.31-19.55 3.029-6.118 6.307-7.772 6.307-7.772z"/>
        <path fill="#30343A" fill-rule="nonzero" d="M113.594 103.982l-3.248 4.913-.568-.668c-.11-.148-.11-.35 0-.498l2.292-3.607c.08-.129.227-.202.378-.19l1.146.05z"/>
        <path fill="#000" fill-rule="nonzero" d="M93.865 109.473l5.48-.519s-.289 4.734-.667 10.483c-.38 5.75-.558 10.024-.568 10.144.368.642.502 1.392.378 2.122-.309.857-1.395.807-1.993.15-.597-.658-.219-1.993-.169-2.133-.468.997-4.165-4.085-4.793-9.725-.446-3.67.377-7.384 2.332-10.522z" opacity=".1"/>
        <path fill="#FEC6BD" fill-rule="nonzero" d="M97.412 129.54s.777 1.406.458 2.263c-.318.857-1.405.817-1.992.15-.588-.668-.15-2.163-.15-2.163l1.684-.25z"/>
        <path fill="url(#prefix__C)" fill-rule="nonzero" d="M99.883 108.775c-1.007 3.467-1.645 7.031-1.903 10.632-.379 5.76-.568 10.164-.568 10.164-.522.31-1.146.399-1.734.249-2.031-3.284-3.327-6.969-3.796-10.801-.42-3.735.024-7.515 1.295-11.051l6.706.807z"/>
        <path fill="#FEC6BD" fill-rule="nonzero" d="M46.703 141.548l-.996-.787-2.322-8.729s.528-2.501-.09-2.99c-.617-.488-.747.878-.747.878s-1.574-2.153-1.993-1.276c-.418.877.13 2.412 1.226 3.557 0 0 1.096 9.208 1.455 9.965.358.757 3.069 2.77 3.069 2.77l.398-3.388zM64.998 154.452l1.445 2.063 4.304-4.873s-.747-1.933-.398-2.59c.246-.37.654-.6 1.098-.618.444-.018.87.178 1.144.528.787.837-.13 2.54-.658 3.467s-3.557 7.454-5.042 7.762c-1.485.31-4.215-3.118-4.215-3.118l2.322-2.621zM52.811 147.477l1.904-5.162c-.449-2.182 0-5.859 4.982-3.916.448 1.344.42 2.8-.08 4.126-.517.94-1.53 1.498-2.6 1.434l-.868 4.614-3.338-1.096z"/>
        <path fill="url(#prefix__D)" fill-rule="nonzero" d="M56.618 145.893s-2.541.617-3.07-.788l-6.486-3.866s-2.242 1.455-1.933 3.777l1.704 3.816s.747 10.393.837 11.957c3.766 2.517 8.45 3.246 12.804 1.993l.927-5.44 2.102 2.092c1.463-1.112 2.244-2.904 2.063-4.733 0 0-1.315-5.66-3.288-7.244-1.973-1.584-5.66-1.564-5.66-1.564z"/>
        <path fill="url(#prefix__E)" fill-rule="nonzero" d="M49.364 169.2l.13 4.473c-2.784 2.413-4.835 5.558-5.92 9.078l1.445 1.784s11.649-5.73 12.237-9.148c.587-3.418-7.892-6.188-7.892-6.188z"/>
        <path fill="#37475E" fill-rule="nonzero" d="M58.9 192.317c.813.391 1.69.631 2.59.707 1.266 0 2.89.349 1.924 1.355-.967 1.007-3.897.997-5.48.927-1.585-.07-2.412-1.096-1.844-3.079l2.81.09zM45.02 184.535c-.289.74-.444 1.526-.46 2.321.09.877 1.406 2.99.48 2.99-.928 0-2.81-2.332-3.548-3.906-.738-1.575-.31-2.452 2.082-3.229l1.445 1.824zM58.112 140.063s-.568-.926-1.096-.438c-.528.488-.996 1.704 0 1.993 0 0-.787 2.322-1.993 2.63-1.205.31-1.404-2.989-3.208-4.205-1.804-1.215-1.485-2.94-.26-3.208 1.226-.27-.438-1.844 1.316-2.58 1.754-.738 2.541-1.545 4.295-.619 1.754.927 1.754 1.664 3.557 1.445 1.804-.22 1.933 1.883 1.056 2.59-.649.44-1.418.67-2.202.659l-1.465 1.733z"/>
        <path fill="url(#prefix__F)" fill-rule="nonzero" d="M60.434 162.782s5.351 9.516 5.48 12.316c.18 3.697-4.115 13.731-6.974 17.239l-2.81-.09s.617-12.187 1.624-15.216c0 0-13.532-4.892-10.084-16.232l12.764 1.983z"/>
        <path fill="#FEC6BD" fill-rule="nonzero" d="M68.595 174.38c.403 1.253.475 2.588.21 3.877-.539 1.485-2.233 1.734-3.309 1.774-1.076.04-2.56-7.783 3.099-5.65zM70.498 205.65s.578 5.978.528 7.263c-.05 1.286-.388 15.764-.388 17.04l-1.216-.09s-2.352-8.3-2.6-12.565c-.416-3.731-1.143-7.421-2.173-11.031l5.85-.618zM59.258 204.513s0 3.777.23 6.387c.209 2.82-.38 11.29.209 13.95H61.2s1.625-10.592 2.332-12.873c.708-2.282.638-6.976.638-6.976l-4.913-.488zM74.912 174.899s.857-4.763.887-4.982c.03-.22-.12-2.073.19-2.232.309-.16.647.498.647.906 0 .409 1.176-1.524 1.884-1.494.707.03 1.644.996 1.175 1.584-.695.799-1.56 1.432-2.53 1.854l-.31 4.842"/>
        <path fill="url(#prefix__G)" fill-rule="nonzero" d="M66.532 180.917c1.49-.07 2.97-.29 4.415-.657 1.104-.256 2.145-.734 3.059-1.405l.906-3.986 1.944.448s.12 4.704-1.206 7.394c-1.325 2.69-4.783 5.032-4.783 5.032l-1.814 4.215-7.523-.21s-1.853-4.374-1.853-6.855c0-2.48.498-6.526 6.855-3.976z"/>
        <path fill="url(#prefix__H)" fill-rule="nonzero" d="M69.053 191.988s2.551 8.5 2.352 14.448c-1.938.968-4.072 1.476-6.238 1.485-2.53-.063-4.994-.83-7.114-2.212 0 0 1.624-9.805 3.477-13.95l7.523.229z"/>
        <path fill="#37475E" fill-rule="nonzero" d="M70.658 229.843c.622.452 1.32.79 2.062.996.827.13 1.754.419 1.166.658-1.48.335-3.013.362-4.504.08-.996-.36-.827-.25-.827-.688 0-.438.678-1.066.678-1.066l1.425.02zM61.201 224.83s1.196.489 2.322.818c1.126.329 1.335.627.488.817-1.128.193-2.273.276-3.417.249-.997 0-1.236-.28-1.236-.797.023-.373.124-.736.299-1.066l1.544-.02zM61.162 174.81c.558-1.266 1.863-3.18 5.49-3.14 3.268 0 3.268 2.362 1.903 3.14-1.365.776-1.654 1.245-1.813 2.271-.16 1.026-1.166 6.238.448 7.473-1.875-.159-3.66-.877-5.122-2.062-2.6-2.023-1.893-5.41-.906-7.683z"/>
        <path fill="url(#prefix__I)" fill-rule="nonzero" d="M32.594 193.373l9.964 5.56c.286.161.492.434.57.753.077.32.019.657-.161.931l-5.102 7.812c-.163.255-.422.433-.718.495-.297.062-.605.002-.857-.166l-11.23-7.394 6.408-7.782c.274-.335.75-.423 1.126-.209z"/>
        <path fill="url(#prefix__J)" fill-rule="nonzero" d="M32.594 193.154l9.964 5.56c.285.16.492.43.57.748.077.317.019.653-.161.926l-5.102 7.872c-.165.252-.424.43-.72.49-.295.062-.602.004-.855-.161l-11.23-7.394 6.408-7.782c.26-.353.738-.463 1.126-.26z"/>
        <path fill="url(#prefix__K)" fill-rule="nonzero" d="M32.464 193.602l9.775 5.45c.182.104.314.278.365.481.05.203.016.419-.096.596l-5.102 7.802c-.102.163-.265.277-.453.316-.188.04-.384.001-.543-.107l-10.652-6.975 6.128-7.453c.145-.165.383-.21.578-.11z"/>
        <path fill="#FEC6BD" fill-rule="nonzero" d="M26.555 189.108c.17 1.372.254 2.753.25 4.135-.06 1.664-1.117 1.854-2.163 2.093l-.309 3.458-3.149-.857s-.368-6.427-.179-7.723c.19-1.295 5.55-1.106 5.55-1.106z"/>
        <path fill="#30343A" fill-rule="nonzero" d="M25.997 190.493c.273-.516.642-.976 1.086-1.355.648-.498.429-1.176-.777-1.724-1.736-.634-3.63-.69-5.4-.16-1.282.548-2.133 1.787-2.183 3.18-.07.807.887 1.424 1.136 2.132.25.707.339 2.122.927 2.312.588.189 2.341.398 2.75 0 .354-.486.624-1.029.797-1.605 0 0-.558-.767-.22-1.146.34-.378 1.177-.209 1.266.19.09.398-.767 2.381-.338 3.148.428.768 1.823-.09 1.823-.528 0-.438-.648-.548-.867-1.165-.285-1.075-.285-2.205 0-3.279z"/>
        <path fill="#FEC6BD" fill-rule="nonzero" d="M25.32 198.853c.472-.885 1.112-1.67 1.883-2.311.897-.519 1.853-.25 1.993.13.14.378-3.05 2.59-3.05 2.59l-.826-.409zM32.514 206.636l.458 1.175 5.46-3.308s.559-2.282.997-2.222c.439.06.22 1.236.22 1.236s1.723-.708 2.192-.927c0 0 .308 1.853-.897 2.56-1.206.708-1.604.16-2.372.678-.767.519-4.235 4.813-5.68 5.122-1.444.31-2.989-3.208-2.989-3.208l2.61-1.106z"/>
        <path fill="url(#prefix__L)" fill-rule="nonzero" d="M30.322 219.44c-.111 4.332-.444 8.655-.997 12.954-.837 6.048-1.734 10.582-1.763 11.877h-3.986s-1.266-10.582-1.385-15.425c0 0-5.62-5.34-6.079-11.638l12.775-4.693 1.435 6.925z"/>
        <path fill="url(#prefix__M)" fill-rule="nonzero" d="M22.27 228.886c-1.018 2.32-1.803 4.738-2.341 7.214-.558 3.15-.827 5.62-.827 5.62h-3.159c-.454-3.828-.63-7.685-.528-11.539.22-5.68.777-12.953.777-12.953l6.078 11.658z"/>
        <path fill="#FEC6BD" fill-rule="nonzero" d="M26.645 244.281L26.406 248.695 24.801 248.626 24.363 244.251z"/>
        <path fill="#30343A" fill-rule="nonzero" d="M26.406 248.695c.866.386 1.776.664 2.71.827 1.206.16 1.176.897.22.997-.957.1-4.983.747-5.063-.309-.054-.585.137-1.166.528-1.604l1.605.09z"/>
        <path fill="#FEC6BD" fill-rule="nonzero" d="M18.354 241.531L18.145 245.258 16.78 245.208 16.421 241.501z"/>
        <path fill="#30343A" fill-rule="nonzero" d="M18.145 245.258c.732.328 1.502.566 2.292.707.996.13.996.757.19.867-.808.11-4.236.618-4.285-.269-.046-.494.116-.986.448-1.355l1.355.05z"/>
        <path fill="url(#prefix__N)" fill-rule="nonzero" d="M23.227 196.731c-1.166-.299-4.723-.807-6.357-.25-2.115.664-3.4 2.805-2.99 4.983.409 2.99 2.382 4.225 2.99 6.636.592 1.512.512 3.204-.22 4.654-.647 1.883-.836 4.165-.458 4.444.379.279 6.846 3.179 9.626 2.65 2.78-.528 2.62-4.165 3.149-4.165.528 0 .996 3.677 1.355 3.707.358.03-.499-8.21-.897-10.243l3.398-2.78s-.997-5.092-4.265-7.185c-3.268-2.092-3.517-1.993-5.331-2.451z"/>
    </g>
</svg>
