<svg width="240" height="240" viewBox="0 0 240 240" fill="none" xmlns="http://www.w3.org/2000/svg">
<path fill-rule="evenodd" clip-rule="evenodd" d="M45 62.5952C44.9984 60.2841 45.4554 57.9954 46.345 55.8599C47.2346 53.7244 48.5393 51.7841 50.1845 50.1499C51.8297 48.5157 53.783 47.2197 55.9329 46.3361C58.0827 45.4524 60.3868 44.9984 62.7134 45H74.7391C75.4022 45 76.0381 45.2617 76.507 45.7274C76.9758 46.1932 77.2392 46.8248 77.2392 47.4835C77.2392 48.1421 76.9758 48.7738 76.507 49.2395C76.0381 49.7053 75.4022 49.9669 74.7391 49.9669H62.7134C59.3458 49.98 56.1198 51.3147 53.7384 53.6801C51.3571 56.0456 50.0134 59.25 50.0003 62.5952V76.4404C50.0003 77.0991 49.7369 77.7308 49.268 78.1965C48.7991 78.6622 48.1632 78.9239 47.5001 78.9239C46.8371 78.9239 46.2011 78.6622 45.7323 78.1965C45.2634 77.7308 45 77.0991 45 76.4404V62.5952ZM75.4266 80.5009C76.0897 80.5009 76.7256 80.7625 77.1945 81.2282C77.6634 81.694 77.9268 82.3257 77.9268 82.9843V90.1987C77.9268 90.8574 77.6634 91.489 77.1945 91.9548C76.7256 92.4205 76.0897 92.6822 75.4266 92.6822C74.7635 92.6822 74.1276 92.4205 73.6588 91.9548C73.1899 91.489 72.9265 90.8574 72.9265 90.1987V82.9595C72.9331 82.3051 73.1994 81.6798 73.6675 81.2194C74.1357 80.7591 74.7679 80.5008 75.4266 80.5009ZM113.941 80.5009C114.604 80.5009 115.24 80.7625 115.709 81.2282C116.178 81.694 116.441 82.3257 116.441 82.9843V90.1987C116.441 90.8574 116.178 91.489 115.709 91.9548C115.24 92.4205 114.604 92.6822 113.941 92.6822C113.278 92.6822 112.642 92.4205 112.173 91.9548C111.704 91.489 111.441 90.8574 111.441 90.1987V82.9595C111.448 82.3051 111.714 81.6798 112.182 81.2194C112.65 80.7591 113.282 80.5008 113.941 80.5009ZM99.7654 83.8163C99.7654 83.1576 99.502 82.5259 99.0331 82.0602C98.5643 81.5945 97.9284 81.3328 97.2653 81.3328C96.6022 81.3328 95.9663 81.5945 95.4974 82.0602C95.0286 82.5259 94.7652 83.1576 94.7652 83.8163V88.8576C94.7705 95.4728 92.8329 101.946 89.1899 107.483L93.3276 110.178C97.4926 103.846 99.7121 96.4464 99.7154 88.8825L99.7654 83.8163ZM81.5645 116.349C81.4178 116.014 81.1986 115.716 80.9225 115.474C80.6463 115.233 80.32 115.056 79.9668 114.954C79.6136 114.852 79.2421 114.83 78.879 114.887C78.5158 114.944 78.1699 115.081 77.8658 115.286C77.5617 115.491 77.307 115.761 77.1198 116.075C76.9326 116.39 76.8175 116.741 76.7827 117.105C76.7479 117.468 76.7944 117.835 76.9186 118.179C77.0429 118.523 77.242 118.835 77.5017 119.094L79.5518 117.728L77.5017 119.094V119.193C77.5701 119.293 77.6453 119.388 77.7267 119.479C77.9762 119.807 78.2433 120.122 78.5268 120.422C79.4844 121.439 80.5489 122.35 81.702 123.142C85.5929 125.669 90.1411 127.015 94.7902 127.015C99.4392 127.015 103.987 125.669 107.878 123.142C109.034 122.354 110.099 121.442 111.054 120.422C111.34 120.122 111.612 119.807 111.866 119.479L112.079 119.193C112.079 119.193 112.079 119.118 112.154 119.094L110.091 117.728L112.154 119.094C112.42 118.554 112.48 117.938 112.324 117.358C112.168 116.777 111.805 116.273 111.303 115.938C110.801 115.603 110.194 115.461 109.594 115.536C108.995 115.612 108.443 115.901 108.041 116.349L107.928 116.498C107.764 116.714 107.589 116.921 107.403 117.119C106.689 117.87 105.897 118.544 105.041 119.131C101.977 121.093 98.4099 122.136 94.7652 122.136C91.1204 122.136 87.5529 121.093 84.4896 119.131C83.6371 118.544 82.8493 117.87 82.1395 117.119C81.8895 116.846 81.7145 116.635 81.602 116.498L81.4895 116.349H81.5645ZM144.068 62.5952C144.068 60.2815 143.608 57.9904 142.716 55.8532C141.823 53.7161 140.515 51.7747 138.866 50.1404C137.218 48.506 135.26 47.2107 133.107 46.3287C130.954 45.4466 128.646 44.9951 126.317 45H114.279C113.616 45 112.98 45.2617 112.511 45.7274C112.042 46.1932 111.779 46.8248 111.779 47.4835C111.779 48.1421 112.042 48.7738 112.511 49.2395C112.98 49.7053 113.616 49.9669 114.279 49.9669H126.317C129.702 49.9669 132.948 51.3026 135.342 53.6802C137.735 56.0578 139.08 59.2825 139.08 62.6449V76.4404C139.08 77.0991 139.343 77.7308 139.812 78.1965C140.281 78.6622 140.917 78.9239 141.58 78.9239C142.243 78.9239 142.879 78.6622 143.348 78.1965C143.817 77.7308 144.08 77.0991 144.08 76.4404L144.068 62.5952ZM62.8135 149.876C60.4795 149.891 58.1656 149.447 56.005 148.57C53.8445 147.693 51.8798 146.4 50.2242 144.766C48.5686 143.131 47.2547 141.188 46.3581 139.048C45.4615 136.907 45 134.611 45 132.293V118.448C45 117.789 45.2634 117.158 45.7323 116.692C46.2011 116.226 46.8371 115.964 47.5001 115.964C48.1632 115.964 48.7991 116.226 49.268 116.692C49.7369 117.158 50.0003 117.789 50.0003 118.448V132.293C50.0036 135.653 51.3497 138.875 53.7429 141.25C56.1361 143.625 59.3806 144.959 62.7635 144.959H74.7891C75.4522 144.959 76.0881 145.22 76.557 145.686C77.0258 146.152 77.2892 146.783 77.2892 147.442C77.2892 148.101 77.0258 148.732 76.557 149.198C76.0881 149.664 75.4522 149.926 74.7891 149.926L62.8135 149.876ZM180.007 112.947C180.314 113.128 180.664 113.222 181.02 113.22C181.431 113.219 181.832 113.093 182.17 112.86C182.515 112.624 182.788 112.297 182.957 111.916C183.235 111.376 183.294 110.751 183.122 110.169C182.95 109.587 182.56 109.092 182.032 108.787C173.981 104.128 164.83 101.672 155.512 101.672C146.194 101.672 137.043 104.128 128.992 108.787C128.481 109.104 128.11 109.601 127.954 110.178C127.782 110.773 127.84 111.411 128.117 111.966C128.246 112.227 128.427 112.459 128.65 112.649C128.872 112.838 129.131 112.98 129.41 113.067C129.689 113.155 129.984 113.184 130.275 113.155C130.566 113.126 130.848 113.038 131.105 112.897C138.523 108.587 146.962 106.316 155.556 106.316C164.15 106.316 172.589 108.587 180.007 112.897V112.947ZM117.066 137.384C117.407 137.608 117.809 137.721 118.216 137.707C118.564 137.716 118.907 137.631 119.209 137.46C119.511 137.29 119.76 137.04 119.929 136.738C123.702 131.001 128.825 126.262 134.855 122.93C141.196 119.546 148.282 117.775 155.481 117.775C162.679 117.775 169.766 119.546 176.107 122.93C182.108 126.217 187.213 130.905 190.983 136.589C191.137 136.839 191.342 137.054 191.586 137.219C191.829 137.385 192.105 137.498 192.395 137.55C192.685 137.603 192.983 137.595 193.27 137.525C193.556 137.456 193.825 137.327 194.058 137.148C194.299 136.969 194.502 136.746 194.658 136.49C194.815 136.227 194.917 135.936 194.958 135.633C195.014 135.334 195.014 135.026 194.958 134.727C194.887 134.427 194.764 134.141 194.595 133.882C190.428 127.586 184.777 122.394 178.132 118.758C171.177 115.041 163.403 113.096 155.506 113.096C147.608 113.096 139.834 115.041 132.88 118.758C126.215 122.427 120.561 127.668 116.416 134.019C116.164 134.386 116.021 134.817 116.004 135.261C115.974 135.688 116.056 136.116 116.241 136.502C116.433 136.864 116.717 137.168 117.066 137.384ZM144.805 193.845C145.071 193.956 145.355 194.015 145.643 194.019C146.255 194.008 146.839 193.758 147.268 193.324C147.679 192.868 147.906 192.278 147.906 191.666C147.906 191.054 147.679 190.464 147.268 190.008C143.977 186.698 141.239 182.887 139.155 178.721C136.356 173.146 134.953 166.982 135.067 160.753C135 158.043 135.479 155.346 136.477 152.822C137.475 150.298 138.971 147.997 140.877 146.056C142.783 144.115 145.061 142.573 147.577 141.52C150.092 140.467 152.795 139.924 155.525 139.924C158.255 139.924 160.957 140.467 163.472 141.52C165.988 142.573 168.266 144.115 170.172 146.056C172.079 147.997 173.575 150.298 174.572 152.822C175.57 155.346 176.049 158.043 175.982 160.753C175.959 161.053 175.999 161.355 176.099 161.639C176.199 161.923 176.357 162.183 176.563 162.404C176.769 162.625 177.018 162.801 177.296 162.921C177.573 163.041 177.873 163.103 178.176 163.103C178.479 163.103 178.778 163.041 179.056 162.921C179.334 162.801 179.583 162.625 179.789 162.404C179.995 162.183 180.153 161.923 180.253 161.639C180.353 161.355 180.393 161.053 180.37 160.753C180.444 157.466 179.856 154.197 178.641 151.138C177.426 148.079 175.608 145.292 173.293 142.941C170.979 140.59 168.215 138.722 165.163 137.447C162.112 136.171 158.835 135.514 155.525 135.514C152.214 135.514 148.937 136.171 145.886 137.447C142.835 138.722 140.071 140.59 137.756 142.941C135.442 145.292 133.624 148.079 132.408 151.138C131.193 154.197 130.605 157.466 130.68 160.753C130.555 167.774 132.137 174.722 135.292 181.006C137.544 185.559 140.525 189.719 144.118 193.324C144.306 193.545 144.541 193.723 144.805 193.845ZM163.556 181.242C167.526 184.045 172.3 185.5 177.17 185.389C178.954 185.368 180.733 185.181 182.482 184.83C183.077 184.699 183.597 184.343 183.933 183.838C184.269 183.333 184.394 182.718 184.282 182.123C184.247 181.834 184.154 181.554 184.009 181.3C183.863 181.047 183.669 180.825 183.436 180.647C183.203 180.469 182.937 180.339 182.653 180.264C182.369 180.189 182.073 180.171 181.782 180.211C180.277 180.493 178.751 180.651 177.22 180.683C173.239 180.81 169.325 179.646 166.069 177.368C163.417 175.472 161.257 172.976 159.768 170.087C158.279 167.198 157.504 163.999 157.506 160.753C157.529 160.453 157.489 160.152 157.389 159.868C157.289 159.584 157.131 159.323 156.925 159.103C156.719 158.882 156.47 158.706 156.192 158.586C155.915 158.465 155.615 158.403 155.312 158.403C155.009 158.403 154.71 158.465 154.432 158.586C154.154 158.706 153.905 158.882 153.699 159.103C153.493 159.323 153.335 159.584 153.235 159.868C153.135 160.152 153.095 160.453 153.118 160.753C153.108 164.74 154.045 168.673 155.852 172.233C157.659 175.793 160.286 178.879 163.519 181.242H163.556ZM167.769 194.901C167.956 194.958 168.149 194.991 168.344 195C168.839 194.978 169.312 194.791 169.686 194.468C170.06 194.146 170.314 193.708 170.407 193.224C170.568 192.645 170.499 192.026 170.212 191.496C169.926 190.966 169.445 190.567 168.869 190.381C163.335 188.927 158.345 185.907 154.506 181.689C149.158 176.003 146.205 168.498 146.255 160.716C146.343 158.368 147.343 156.146 149.046 154.516C150.749 152.886 153.022 151.975 155.387 151.975C157.752 151.975 160.025 152.886 161.728 154.516C163.431 156.146 164.431 158.368 164.519 160.716C164.464 162.514 164.773 164.305 165.427 165.982C166.082 167.659 167.069 169.188 168.33 170.479C169.591 171.77 171.1 172.797 172.767 173.498C174.435 174.199 176.228 174.56 178.038 174.56C179.849 174.56 181.642 174.199 183.309 173.498C184.977 172.797 186.486 171.77 187.747 170.479C189.008 169.188 189.995 167.659 190.649 165.982C191.304 164.305 191.613 162.514 191.558 160.716C191.704 152.428 188.956 144.345 183.783 137.841C178.609 131.337 171.328 126.812 163.176 125.037C155.025 123.261 146.506 124.343 139.066 128.099C131.627 131.855 125.726 138.054 122.367 145.642C120.319 150.416 119.302 155.564 119.379 160.753C119.381 167.049 120.467 173.298 122.592 179.23C122.678 179.508 122.821 179.766 123.012 179.987C123.203 180.207 123.438 180.387 123.702 180.514C123.966 180.641 124.253 180.713 124.546 180.725C124.839 180.737 125.131 180.689 125.404 180.584C125.961 180.345 126.403 179.901 126.636 179.345C126.869 178.789 126.876 178.164 126.654 177.603C124.712 172.196 123.731 166.495 123.754 160.753C123.67 156.563 124.429 152.398 125.985 148.502C127.542 144.607 129.865 141.059 132.819 138.066C135.773 135.073 139.298 132.695 143.188 131.072C147.078 129.449 151.255 128.613 155.475 128.613C159.694 128.613 163.871 129.449 167.761 131.072C171.651 132.695 175.177 135.073 178.13 138.066C181.084 141.059 183.407 144.607 184.964 148.502C186.52 152.398 187.279 156.563 187.195 160.753C187.108 163.101 186.107 165.324 184.404 166.954C182.701 168.584 180.428 169.495 178.063 169.495C175.698 169.495 173.425 168.584 171.722 166.954C170.019 165.324 169.019 163.101 168.932 160.753C168.932 158.989 168.582 157.242 167.902 155.612C167.222 153.982 166.226 152.501 164.97 151.253C163.714 150.005 162.223 149.016 160.582 148.341C158.941 147.665 157.182 147.318 155.406 147.318C153.63 147.318 151.871 147.665 150.23 148.341C148.589 149.016 147.098 150.005 145.842 151.253C144.586 152.501 143.589 153.982 142.91 155.612C142.23 157.242 141.88 158.989 141.88 160.753C141.877 165.27 142.725 169.747 144.38 173.953C145.984 178.1 148.388 181.896 151.456 185.128C155.826 189.868 161.475 193.26 167.732 194.901H167.769Z" fill="url(#paint0_linear_3031_1869)"/>
<defs>
<linearGradient id="paint0_linear_3031_1869" x1="166.782" y1="196.999" x2="61.0057" y2="48.4268" gradientUnits="userSpaceOnUse">
<stop stop-color="#80B8EC"/>
<stop offset="0.540395" stop-color="#60A1F9"/>
<stop offset="1" stop-color="#508FEA"/>
</linearGradient>
</defs>
</svg>
