<svg xmlns="http://www.w3.org/2000/svg" width="200" height="200" viewBox="0 0 200 200">
    <defs>
        <linearGradient id="a" x1="67.351%" x2="25.996%" y1="87.098%" y2="-1.315%">
            <stop offset="0%" stop-color="#EEF8FF"/>
            <stop offset="100%" stop-color="#EBF8FF" stop-opacity=".2"/>
        </linearGradient>
        <linearGradient id="b" x1="21.386%" x2="54.076%" y1="24.316%" y2="76.077%">
            <stop offset="0%" stop-color="#37475E"/>
            <stop offset="100%" stop-color="#343D49"/>
        </linearGradient>
        <linearGradient id="c" x1="63.285%" x2="50.281%" y1="28.982%" y2="62.52%">
            <stop offset="0%" stop-color="#F7B0A9"/>
            <stop offset="100%" stop-color="#F7B0A9" stop-opacity="0"/>
        </linearGradient>
        <linearGradient id="d" x1="40.829%" x2="52.109%" y1="53.388%" y2="50.713%">
            <stop offset="0%" stop-color="#133E90" stop-opacity=".4"/>
            <stop offset="100%" stop-color="#133E90" stop-opacity="0"/>
        </linearGradient>
        <linearGradient id="e" x1="33.087%" x2="46.56%" y1="59.99%" y2="50.849%">
            <stop offset="0%" stop-color="#133E90" stop-opacity=".4"/>
            <stop offset="100%" stop-color="#133E90" stop-opacity="0"/>
        </linearGradient>
        <linearGradient id="f" x1="16.087%" x2="93.702%" y1="79.171%" y2="-7.733%">
            <stop offset="0%" stop-color="#82BBEF"/>
            <stop offset="51%" stop-color="#609AFC"/>
            <stop offset="100%" stop-color="#B2D9FE"/>
        </linearGradient>
        <linearGradient id="g" x1="24.551%" x2="72.993%" y1="44.972%" y2="52.241%">
            <stop offset="0%" stop-color="#C3DFFF"/>
            <stop offset="100%" stop-color="#D5E8FF"/>
        </linearGradient>
        <linearGradient id="h" x1="35.616%" x2="44.076%" y1="83.48%" y2="55.548%">
            <stop offset="0%" stop-color="#F7B0A9"/>
            <stop offset="100%" stop-color="#F7B0A9" stop-opacity="0"/>
        </linearGradient>
        <linearGradient id="i" x1="21.17%" x2="72.242%" y1="115.7%" y2="-.445%">
            <stop offset="0%" stop-color="#82BBEF"/>
            <stop offset="100%" stop-color="#609AFC"/>
        </linearGradient>
        <linearGradient id="j" x1="3.059%" x2="80.097%" y1="12.804%" y2="49.399%">
            <stop offset="0%" stop-color="#C3DFFF"/>
            <stop offset="100%" stop-color="#D5E8FF"/>
        </linearGradient>
        <linearGradient id="k" x1="2.812%" x2="79.849%" y1="12.281%" y2="48.766%">
            <stop offset="0%" stop-color="#C3DFFF"/>
            <stop offset="100%" stop-color="#D5E8FF"/>
        </linearGradient>
        <linearGradient id="l" x1="62.378%" x2="53.479%" y1="59.711%" y2="52.461%">
            <stop offset="0%" stop-color="#F7B0A9"/>
            <stop offset="100%" stop-color="#F7B0A9" stop-opacity="0"/>
        </linearGradient>
        <linearGradient id="m" x1="57.3%" x2="49.512%" y1="43.516%" y2="51.487%">
            <stop offset="0%" stop-color="#F7B0A9"/>
            <stop offset="100%" stop-color="#F7B0A9" stop-opacity="0"/>
        </linearGradient>
        <linearGradient id="n" x1="57.458%" x2="51.234%" y1="44.376%" y2="48.573%">
            <stop offset="0%" stop-color="#F7B0A9"/>
            <stop offset="100%" stop-color="#F7B0A9" stop-opacity="0"/>
        </linearGradient>
        <linearGradient id="o" x1="53.871%" x2="49.572%" y1="45.751%" y2="50.212%">
            <stop offset="0%" stop-color="#F7B0A9"/>
            <stop offset="100%" stop-color="#F7B0A9" stop-opacity="0"/>
        </linearGradient>
    </defs>
    <g fill="none" fill-rule="evenodd">
        <path d="M0 0h200v200H0z"/>
        <circle cx="100" cy="100" r="98.571" fill="url(#a)" fill-rule="nonzero"/>
        <path fill="url(#b)" fill-rule="nonzero" d="M43.236 123.793c0-5.043 1.428-12.336 7.957-16.843 6.528-4.507 6.664-9.414 7.028-17.236.365-7.821 5-11.8 9.015-18.571C71.25 64.37 69.22 53.379 83.279 48.07c14.057-5.307 17.9 2.522 17.9 2.522s7.292-1.193 11.142 8.614c3.85 9.807 7.029 10.607 10.472 13.129 3.443 2.521 7.028 10.078 5.571 18.7-1.457 8.621 9.415 12.464 12.465 16.171 3.05 3.707 5.714 9.686 5.714 19.893s-12.2 17.636-25.986 18.3c-13.786.664-77.321-21.607-77.321-21.607z"/>
        <path fill="#F7B0A9" fill-rule="nonzero" d="M108.079 74.2s4.242-1.329 4.371 2.914c.129 4.243-1.857 6.1-4.907 7.029-3.05.928-3.05-7.557.536-9.943zM77.857 74.2s-3.571-1.857-4.107 2.386 1.721 7.293 5.436 7.957c3.714.664-1.329-10.343-1.329-10.343z"/>
        <path fill="#FEC6BD" fill-rule="nonzero" d="M84.871 96.543s.529 8.421-4.507 11.871c-5.035 3.45-7.957 3.443-7.957 3.443s-6.364 13.129 3.572 15.114c9.935 1.986 33.95 2.658 38.721-2.778 4.771-5.436-1.193-12.336-1.193-12.336s-9.55-1.593-11.007-8.086a76.371 76.371 0 0 1-1.721-10.478l-15.908 3.25z"/>
        <path fill="url(#c)" fill-rule="nonzero" d="M84.871 96.543s.529 8.421-4.507 11.871c-5.035 3.45 29.572 21.215 34.343 15.779 4.772-5.436-1.193-12.336-1.193-12.336s-9.55-1.593-11.007-8.086a76.371 76.371 0 0 1-1.721-10.478l-15.915 3.25z"/>
        <path fill="#FEC6BD" fill-rule="nonzero" d="M100.25 63.193S94.021 72.214 77.857 74.2c0 0-1.428 26.121 15.114 26.121 16.543 0 15.122-26.121 15.122-26.121s-6.114-4.243-7.843-11.007z"/>
        <path fill="#669CE9" fill-rule="nonzero" d="M171.193 156.679c-1.329-5.715-7.822-7.029-24-22.679a108.65 108.65 0 0 0-33.679-22.143s-4.907 9.022-20.293 9.022c-15.385 0-20.814-9.022-20.814-9.022S60.6 114.543 51.75 121.971c-12.65 10.622-21.55 24.943-21.086 35.45.272 6.165 2.643 11.943 6.429 14.686 5 3.572 11.657 3.122 11.657 3.122s1.771 5.35 3.8 11.2a98.829 98.829 0 0 0 78.95 6.992c1.607-5.057 3.2-10.757 3.2-10.757 4.36 1.433 8.81 2.574 13.321 3.415a99.021 99.021 0 0 0 22.143-16.85c1.186-5.2 1.586-10.165 1.029-12.55z"/>
        <path fill="url(#d)" fill-rule="nonzero" d="M72.407 111.857S61.08 142.793 61.586 154.4c.835 18.957-12.807 20.829-12.807 20.829s1.771 5.35 3.8 11.2a97.936 97.936 0 0 0 27.271 10.078l-7.443-84.65z"/>
        <path fill="url(#e)" fill-rule="nonzero" d="M148.3 170.6c-5.443-9.221-9.729-29.529-9.729-29.529.358 25.636-3.842 41.593-3.842 41.593 4.36 1.433 8.81 2.574 13.321 3.415a93.648 93.648 0 0 0 8-5 64.093 64.093 0 0 1-7.75-10.479z"/>
        <path fill="url(#f)" fill-rule="nonzero" d="M147.143 112.857l-11.343 1.179c-.907 0-2.35-2.143-2.021-3.1l7.578-22.793a2.586 2.586 0 0 1 2.229-1.772l12.314.122c.907 0 2.571 1.693 2.243 2.678l-8.772 21.915a2.593 2.593 0 0 1-2.228 1.771z"/>
        <path fill="url(#g)" fill-rule="nonzero" d="M148.264 114.164l-12.314-.114c-.907 0-1.371-.821-1.043-1.807l7.572-22.786a2.593 2.593 0 0 1 2.235-1.771l12.315.114c.907 0 1.371.821 1.042 1.807l-7.571 22.786a2.593 2.593 0 0 1-2.236 1.771z"/>
        <path fill="#FEC6BD" fill-rule="nonzero" d="M176.193 162.536a55.338 55.338 0 0 0-.4-5.236c-2.057-16.25-11.15-46.693-13.572-52.571-2.421-5.879-7.442-10.429-11.035-11.036-3.593-.607-7.522.328-7.936 1.586-.414 1.257.379.807 3.836.921 3.457.114 5.064.429 6.014 2.221.95 1.793-.286-.764-4.286-1.021-4-.257-8.1.714-8.343 2.307-.242 1.593.936 1.186 3.615.679 2.678-.507 5.043-1.015 7.728.985 2.686 2-1.9-.542-4.564-.264-2.664.279-5.986 1.2-6.321 2.736-.336 1.536 1.428 1.05 3.707.193 2.278-.857 3.064-.465 4.764.435 1.7.9.614.593-1.536.5a5.714 5.714 0 0 0-5.057 2.079c-1.386 1.6-.843 2.743.514 2.143 1.358-.6 2.365-2.143 4.129-1.293a8.679 8.679 0 0 1 2.914 2.543s4.636 19.286 5 32.714c.365 13.429-5.421 27.857-4.778 33.279a12.143 12.143 0 0 0 2.857 6.428 99.036 99.036 0 0 0 22.75-20.328z"/>
        <path fill="url(#h)" fill-rule="nonzero" d="M176.193 162.536a55.338 55.338 0 0 0-.4-5.236c-2.057-16.25-25.422-46.857-25.422-46.857s4.636 19.286 5 32.714c.365 13.429-5.421 27.857-4.778 33.279a12.143 12.143 0 0 0 2.857 6.428 99.036 99.036 0 0 0 22.743-20.328z"/>
        <path fill="#343D49" fill-rule="nonzero" d="M102.286 76.529l-5.529-.55a.4.4 0 0 1-.364-.45.414.414 0 0 1 .443-.365l5.528.557a.408.408 0 0 1-.043.815l-.035-.007zM83.571 76.071a.414.414 0 0 1-.407-.392.407.407 0 0 1 .4-.422l5.55-.171a.393.393 0 0 1 .422.393.407.407 0 0 1-.393.414l-5.557.178h-.015z"/>
        <circle cx="86.993" cy="79.836" r="1" fill="#343D49" fill-rule="nonzero"/>
        <circle cx="98.486" cy="79.836" r="1" fill="#343D49" fill-rule="nonzero"/>
        <path fill="#CC8E87" fill-rule="nonzero" d="M92.564 84.136a.407.407 0 0 1-.407-.407v-4.5c0-.225.182-.408.407-.408a.414.414 0 0 1 .407.408v4.5a.414.414 0 0 1-.407.407z"/>
        <path fill="url(#i)" fill-rule="nonzero" d="M144.014 94.129a.8.8 0 0 1-.785-1.086l.885-2.629a1.564 1.564 0 0 1 1.486-.964.807.807 0 0 1 .786 1.093l-.886 2.621a1.55 1.55 0 0 1-1.486.965z"/>
        <ellipse cx="144.992" cy="89.648" fill="url(#j)" fill-rule="nonzero" rx="1" ry="1" transform="rotate(-29.389 144.992 89.648)"/>
        <ellipse cx="144.453" cy="92.928" fill="url(#k)" fill-rule="nonzero" rx="1" ry="1" transform="rotate(-29.04 144.453 92.928)"/>
        <path fill="#F7B0A9" fill-rule="nonzero" d="M70.714 100.514s-1.314-4.093-2.857-5.821c-.521-.6.107-1.3 1.3-.714a6.371 6.371 0 0 1 2.672 2.65c.385.75-1.115 3.885-1.115 3.885z"/>
        <path fill="#FEC6BD" fill-rule="nonzero" d="M80.307 109.321s-19.55 54.45-27.05 60.493c-9.828 7.922-22.921-5.228-16.178-21.428C43.693 132.47 70.25 103.72 70.25 103.72s1.536-6.135-.107-15.421c-.536-3.043.714-2.793 1.428-1.307 0 0-.578-1.864.479-1.908 1.057-.042 1.993 2.558 1.993 2.558s-.35-1.607.621-1.764c.972-.158 2.336 2.857 2.693 4.521a.871.871 0 0 1 .714-.793c.715-.121 1.643 2.6 1.922 5 .278 2.4 2.864 9.364.314 14.714z"/>
        <path fill="url(#l)" fill-rule="nonzero" d="M80.307 109.321s-19.55 54.45-27.05 60.493c-9.828 7.922-22.921-5.228-16.178-21.428C43.693 132.47 70.25 103.72 70.25 103.72s1.536-6.135-.107-15.421c-.536-3.043.714-2.793 1.428-1.307 0 0-.578-1.864.479-1.908 1.057-.042 1.993 2.558 1.993 2.558s-.35-1.607.621-1.764c.972-.158 2.336 2.857 2.693 4.521a.871.871 0 0 1 .714-.793c.715-.121 1.643 2.6 1.922 5 .278 2.4 2.864 9.364.314 14.714z"/>
        <path fill="url(#m)" fill-rule="nonzero" d="M78.4 98.307l-2.807-.986-1.514-9.7s-.35-1.607.621-1.764c.971-.157 2.286 2.7 2.693 4.522.407 1.821 1.007 7.928 1.007 7.928z"/>
        <path fill="url(#n)" fill-rule="nonzero" d="M75.229 95.286s-2.036 1.535-2.315-.779c-.364-2.964-1.307-7.536-1.307-7.536s-.578-1.864.479-1.907c1.057-.043 1.864 2.143 1.993 2.557.742 2.25 1.15 7.665 1.15 7.665z"/>
        <path fill="url(#o)" fill-rule="nonzero" d="M72.857 95.05s-.928 1.464-1.793-.9c-.378-1.043-.407-3.036-.914-5.871-.264-1.508-.093-2.208.264-2.365.357-.157.979.465 1.2 1.057 1.107 3.029 1.243 8.079 1.243 8.079z"/>
        <ellipse cx="92.614" cy="89.171" fill="#CC8E87" fill-rule="nonzero" rx="2.221" ry="2.657"/>
        <path fill="#FFD215" fill-rule="nonzero" d="M138.086 28.529a15.45 15.45 0 0 0-9.665 27.514l-1.592 6.721a.479.479 0 0 0 .792.465l5.05-4.772c1.73.656 3.565.992 5.415.993a15.464 15.464 0 1 0 0-30.921z"/>
        <path fill="#FFF" fill-rule="nonzero" d="M138.686 46.107a.593.593 0 0 1-.593.364.629.629 0 0 1-.6-.371 2.9 2.9 0 0 1-.243-1.079l-.343-3.914c0-.364-.057-.714-.057-1.064a3.143 3.143 0 0 1 .236-1.364.914.914 0 0 1 .914-.472c.342-.015.674.121.907.372.245.284.368.654.343 1.028 0 .322 0 .85-.071 1.593l-.25 3.8c-.022.38-.104.753-.243 1.107zm-1.472 3.814a1.114 1.114 0 0 1-.364-.878c-.004-.317.125-.62.357-.836.227-.227.536-.353.857-.35.317-.004.622.123.843.35.225.22.35.522.343.836.022.332-.11.656-.357.878a1.264 1.264 0 0 1-.85.315 1.221 1.221 0 0 1-.829-.315z"/>
    </g>
</svg>
