<svg width="36" height="36" viewBox="0 0 36 36" fill="none" xmlns="http://www.w3.org/2000/svg">
<path d="M3 23.6799V26.2499C3.3 29.5099 9.26 32.0799 16.54 31.9999C23.82 31.9199 29.7 29.2299 29.9 25.9999V23.4299L3 23.6799Z" fill="#FFD215"/>
<path opacity="0.06" d="M3.83997 25.24V28.13C3.95997 28.27 4.07997 28.41 4.20997 28.54V25.24H3.83997Z" fill="black"/>
<path opacity="0.06" d="M5.39001 25.23L5.44001 29.48L5.81001 29.7V25.22L5.39001 25.23Z" fill="black"/>
<path opacity="0.06" d="M7 25.21V30.3L7.36 30.46L7.3 25.21H7Z" fill="black"/>
<path opacity="0.06" d="M8.5 25.1899L8.57 30.8899L8.93 31.0099L8.87 25.1899H8.5Z" fill="black"/>
<path opacity="0.06" d="M10.0601 25.1799L10.1301 31.3299L10.4901 31.4099L10.4201 25.1699L10.0601 25.1799Z" fill="black"/>
<path opacity="0.06" d="M11.61 25.1599L11.68 31.6399L12.05 31.6899L12 25.1599H11.61Z" fill="black"/>
<path opacity="0.06" d="M13.17 25.1401L13.24 31.8401H13.61L13.53 25.1001L13.17 25.1401Z" fill="black"/>
<path opacity="0.06" d="M14.72 25.1299L14.8 31.9999H15.16L15.08 25.1399L14.72 25.1299Z" fill="black"/>
<path opacity="0.06" d="M16.27 25.1101L16.35 32.0001H16.72L16.64 25.1201L16.27 25.1101Z" fill="black"/>
<path opacity="0.06" d="M17.83 25.0901L17.91 32.0001H18.27L18.19 25.1701L17.83 25.0901Z" fill="black"/>
<path opacity="0.06" d="M19.38 25.0801L19.46 31.8201L19.82 31.7701L19.75 25.0701L19.38 25.0801Z" fill="black"/>
<path opacity="0.06" d="M20.9399 25.0601L20.9999 31.6001L21.3599 31.5301L21.2899 25.0601H20.9399Z" fill="black"/>
<path opacity="0.06" d="M22.49 25.05L22.56 31.28L22.93 31.19L22.86 25L22.49 25.05Z" fill="black"/>
<path opacity="0.06" d="M24.05 25L24.1101 30.82L24.47 30.69L24.41 25H24.05Z" fill="black"/>
<path opacity="0.06" d="M25.6 25L25.66 30.26L26 30.1V25H25.6Z" fill="black"/>
<path opacity="0.06" d="M27.15 25L27.2 29.47L27.57 29.24L27.52 25H27.15Z" fill="black"/>
<path opacity="0.06" d="M28.71 25V28.3C28.84 28.16 28.95 28.02 29.07 27.87V25H28.71Z" fill="black"/>
<path d="M16.5094 29.6261C23.9372 29.5483 29.9301 26.7588 29.8949 23.3956C29.8597 20.0324 23.8097 17.369 16.3819 17.4468C8.95406 17.5246 2.96117 20.3141 2.99639 23.6773C3.03161 27.0405 9.0816 29.7039 16.5094 29.6261Z" fill="#FFDE00"/>
<path opacity="0.4" d="M16.71 18.1101V18.2401C23.41 18.2401 28.89 20.5001 28.92 23.2401C28.92 24.5901 27.67 25.9001 25.35 26.9001C22.5326 28.0087 19.5275 28.5622 16.5 28.5301H16.18C9.46999 28.5801 3.99999 26.3201 3.99999 23.5401C3.99999 22.1801 5.25999 20.8801 7.57999 19.8801C10.3977 18.7717 13.4022 18.215 16.43 18.2401H16.75V18.1101H16.71ZM16.75 18.1101H16.42C9.41999 18.1901 3.83999 20.6201 3.86987 23.5401C3.89999 26.4601 9.39999 28.7101 16.22 28.7101H16.54C23.54 28.6401 29.13 26.2101 29.1001 23.2801C29.07 20.3501 23.57 18.1201 16.75 18.1201V18.1101Z" fill="white"/>
<path d="M6.09998 19.2V21.77C6.37998 25.03 12.34 27.6 19.61 27.52C26.88 27.44 32.77 24.75 32.97 21.52V18.95L6.09998 19.2Z" fill="#FFD215"/>
<path opacity="0.06" d="M6.93994 20.76V23.65C7.05231 23.7962 7.17603 23.9333 7.30994 24.06V20.76H6.93994Z" fill="black"/>
<path opacity="0.06" d="M8.5 20.75L8.55 25L8.91 25.22L8.86 20.74L8.5 20.75Z" fill="black"/>
<path opacity="0.06" d="M10.05 20.73L10.11 25.82L10.48 25.98L10.42 20.73H10.05Z" fill="black"/>
<path opacity="0.06" d="M11.61 20.71L11.67 26.41L12.04 26.53L12 20.71H11.61Z" fill="black"/>
<path opacity="0.06" d="M13.16 20.6999L13.23 26.8499L13.6 26.9299L13.53 20.6899L13.16 20.6999Z" fill="black"/>
<path opacity="0.06" d="M14.72 20.6799L14.79 27.1599L15.15 27.2099L15.08 20.6799H14.72Z" fill="black"/>
<path opacity="0.06" d="M16.27 20.6601L16.34 27.3601H16.71L16.63 20.6201L16.27 20.6601Z" fill="black"/>
<path opacity="0.06" d="M17.8199 20.6501L17.8999 27.4801H18.2699L18.1899 20.6201L17.8199 20.6501Z" fill="black"/>
<path opacity="0.06" d="M19.38 20.6299L19.46 27.5199H19.82L19.74 20.6399L19.38 20.6299Z" fill="black"/>
<path opacity="0.06" d="M20.9301 20.6101L21.0001 27.4701H21.3601L21.2901 20.6401L20.9301 20.6101Z" fill="black"/>
<path opacity="0.06" d="M22.49 20.6001L22.56 27.3401L22.93 27.2901L22.85 20.5901L22.49 20.6001Z" fill="black"/>
<path opacity="0.06" d="M24 20.5801L24.07 27.1201L24.44 27.0501L24.37 20.5801H24Z" fill="black"/>
<path opacity="0.06" d="M25.59 20.5701L25.66 26.8001L26.03 26.7101L26 20.5601L25.59 20.5701Z" fill="black"/>
<path opacity="0.06" d="M27.15 20.55L27.21 26.37L27.58 26.24L27.51 20.54L27.15 20.55Z" fill="black"/>
<path opacity="0.06" d="M28.7 20.53L28.76 25.79L29.1299 25.62L29.07 20.53H28.7Z" fill="black"/>
<path opacity="0.06" d="M30.26 20.52V24.99L30.62 24.76L30.57 20.51L30.26 20.52Z" fill="black"/>
<path opacity="0.06" d="M31.8101 20.5V23.8C31.9383 23.6638 32.0585 23.5202 32.1701 23.37V20.5H31.8101Z" fill="black"/>
<path d="M19.6123 25.154C27.0402 25.0762 33.033 22.2867 32.9978 18.9235C32.9626 15.5602 26.9126 12.8968 19.4848 12.9746C12.057 13.0524 6.06407 15.8419 6.0993 19.2051C6.13452 22.5684 12.1845 25.2318 19.6123 25.154Z" fill="#FFDE00"/>
<path opacity="0.4" d="M19.81 13.6299V13.7599C26.52 13.7599 32 15.9999 32 18.7999C32 20.1499 30.74 21.4599 28.42 22.4599C25.6062 23.5687 22.6043 24.1222 19.58 24.0899H19.25C12.55 24.0899 7.07002 21.8299 7.04002 19.0899C7.04002 17.7299 8.29002 16.4299 10.61 15.4299C13.428 14.3224 16.4323 13.7657 19.46 13.7899H19.78V13.6599L19.81 13.6299ZM19.78 13.6599H19.46C12.46 13.7399 6.87002 16.1699 6.8999 19.0899C6.93002 22.0099 12.43 24.2599 19.25 24.2599H19.58C26.58 24.1899 32.16 21.7599 32.1301 18.8299C32.1 15.8999 26.6 13.6699 19.78 13.6699V13.6599Z" fill="white"/>
<path d="M3 14.7199V17.2899C3.3 20.5499 9.26 23.1199 16.54 22.9999C23.82 22.8799 29.7 20.2699 29.9 16.9999V14.4299L3 14.7199Z" fill="#FFD215"/>
<path opacity="0.06" d="M3.83997 16.28V19.17C3.95997 19.31 4.07997 19.45 4.20997 19.58V16.28H3.83997Z" fill="black"/>
<path opacity="0.06" d="M5.39001 16.27L5.44001 20.52L5.81001 20.74V16.26L5.39001 16.27Z" fill="black"/>
<path opacity="0.06" d="M7 16.25V21.34L7.36 21.5L7.3 16.25H7Z" fill="black"/>
<path opacity="0.06" d="M8.5 16.23L8.57 21.93L8.93 22.05L8.87 16.23H8.5Z" fill="black"/>
<path opacity="0.06" d="M10.0601 16.22L10.1301 22.37L10.4901 22.45L10.4201 16.21L10.0601 16.22Z" fill="black"/>
<path opacity="0.06" d="M11.61 16.2L11.68 22.68L12.05 22.7299L12 16.2H11.61Z" fill="black"/>
<path opacity="0.06" d="M13.17 16.1799L13.24 22.8799H13.61L13.53 16.1399L13.17 16.1799Z" fill="black"/>
<path opacity="0.06" d="M14.72 16.1699L14.8 22.9999H15.16L15.08 16.1399L14.72 16.1699Z" fill="black"/>
<path opacity="0.06" d="M16.27 16.1501L16.35 23.0001H16.72L16.64 16.1201L16.27 16.1501Z" fill="black"/>
<path opacity="0.06" d="M17.83 16.1299L17.91 22.9999H18.27L18.19 16.1699L17.83 16.1299Z" fill="black"/>
<path opacity="0.06" d="M19.38 16.1201L19.46 22.8601L19.82 22.8101L19.75 16.1101L19.38 16.1201Z" fill="black"/>
<path opacity="0.06" d="M20.9399 16.1001L20.9999 22.6401L21.3599 22.5701L21.2999 16.1001H20.9399Z" fill="black"/>
<path opacity="0.06" d="M22.49 16.0901L22.56 22.3201L22.93 22.2301L22.86 16.0801L22.49 16.0901Z" fill="black"/>
<path opacity="0.06" d="M24.05 16.0701L24.1101 21.8901L24.47 21.7601L24.41 16.0601L24.05 16.0701Z" fill="black"/>
<path opacity="0.06" d="M25.6 16.05L25.66 21.31L26.02 21.14L26 16.05H25.6Z" fill="black"/>
<path opacity="0.06" d="M27.15 16L27.2 20.47L27.57 20.24L27.52 16H27.15Z" fill="black"/>
<path opacity="0.06" d="M28.71 16V19.3C28.84 19.16 28.95 19.02 29.07 18.87V16H28.71Z" fill="black"/>
<path d="M16.5155 20.6667C23.9434 20.5889 29.9362 17.7994 29.901 14.4361C29.8658 11.0729 23.8158 8.40954 16.388 8.48733C8.96016 8.56512 2.96727 11.3546 3.00249 14.7178C3.03771 18.0811 9.08771 20.7444 16.5155 20.6667Z" fill="#FFDE00"/>
<path opacity="0.4" d="M16.71 9.1499V9.2799C23.41 9.2799 28.89 11.5399 28.92 14.2799C28.92 15.6299 27.67 16.9399 25.35 17.9399C22.5326 19.0485 19.5275 19.602 16.5 19.5699H16.18C9.46999 19.6199 3.99999 17.3599 3.99999 14.5799C3.99999 13.2199 5.25999 11.9199 7.57999 10.9199C10.3977 9.81151 13.4022 9.25475 16.43 9.2799H16.75V9.1499H16.71ZM16.75 9.1499H16.42C9.41999 9.2299 3.83999 11.6599 3.86987 14.5799C3.89999 17.4999 9.39999 19.7499 16.22 19.7499H16.54C23.54 19.6799 29.13 17.2499 29.1001 14.3199C29.07 11.3899 23.53 9.1499 16.71 9.1499H16.75Z" fill="white"/>
<path d="M6.09998 10.24V12.81C6.37998 16.07 12.34 18.64 19.61 18.56C26.88 18.48 32.77 15.79 32.97 12.56L33 10L6.09998 10.24Z" fill="#FFD215"/>
<path opacity="0.06" d="M6.93994 11.8V14.69C7.05231 14.8362 7.17603 14.9733 7.30994 15.1V11.8H6.93994Z" fill="black"/>
<path opacity="0.06" d="M8.5 11.79L8.55 16L8.91 16.22L8.86 11.74L8.5 11.79Z" fill="black"/>
<path opacity="0.06" d="M10.05 11.77L10.11 16.86L10.48 17.02L10.42 11.77H10.05Z" fill="black"/>
<path opacity="0.06" d="M11.61 11.75L11.67 17.45L12.04 17.57L12 11.75H11.61Z" fill="black"/>
<path opacity="0.06" d="M13.16 11.74L13.23 17.89L13.6 17.97L13.53 11.73L13.16 11.74Z" fill="black"/>
<path opacity="0.06" d="M14.72 11.72L14.79 18.2L15.15 18.25L15.08 11.72H14.72Z" fill="black"/>
<path opacity="0.06" d="M16.27 11.6999L16.34 18.3999H16.71L16.63 11.6599L16.27 11.6999Z" fill="black"/>
<path opacity="0.06" d="M17.8199 11.6899L17.8999 18.5199H18.2699L18.1899 11.6599L17.8199 11.6899Z" fill="black"/>
<path opacity="0.06" d="M19.38 11.6699L19.46 18.5599H19.82L19.74 11.6799L19.38 11.6699Z" fill="black"/>
<path opacity="0.06" d="M20.9301 11.6499L21.0001 18.5099C21.1201 18.5099 21.2401 18.5099 21.3601 18.5099L21.2901 11.6799L20.9301 11.6499Z" fill="black"/>
<path opacity="0.06" d="M22.49 11.6399L22.56 18.3799L22.93 18.3299L22.85 11.6299L22.49 11.6399Z" fill="black"/>
<path opacity="0.06" d="M24 11.6201L24.07 18.1601L24.44 18.0901L24.37 11.6201H24Z" fill="black"/>
<path opacity="0.06" d="M25.59 11.6101L25.66 17.8401L26.03 17.7501L26 11.6001L25.59 11.6101Z" fill="black"/>
<path opacity="0.06" d="M27.15 11.5901L27.21 17.4101L27.58 17.2801L27.51 11.5801L27.15 11.5901Z" fill="black"/>
<path opacity="0.06" d="M28.7 11.5701L28.76 16.8301L29.1299 16.6601L29.07 11.5701H28.7Z" fill="black"/>
<path opacity="0.06" d="M30.26 11.56V16.03L30.62 15.8L30.57 11.55L30.26 11.56Z" fill="black"/>
<path opacity="0.06" d="M31.8101 11.54V14.84C31.9383 14.7038 32.0585 14.5602 32.1701 14.41V11.54H31.8101Z" fill="black"/>
<path d="M19.6184 16.1945C27.0463 16.1167 33.0391 13.3272 33.0039 9.96398C32.9687 6.60075 26.9187 3.93737 19.4909 4.01516C12.0631 4.09295 6.07018 6.88244 6.1054 10.2457C6.14062 13.6089 12.1906 16.2723 19.6184 16.1945Z" fill="#FFDE00"/>
<path opacity="0.4" d="M19.81 4.79992C26.5201 4.79992 32 7.05992 32 9.83992C32 11.1899 30.74 12.4999 28.42 13.4999C25.6062 14.6087 22.6043 15.1622 19.58 15.1299H19.25C12.55 15.1299 7.07005 12.8699 7.04005 10.1299C7.04005 8.76992 8.29005 7.46992 10.61 6.46992C13.4354 5.34845 16.4503 4.78146 19.49 4.79992H19.81ZM19.81 4.66992H19.49C12.49 4.74992 6.90005 7.17992 6.92993 10.0999C6.96005 13.0199 12.4601 15.2699 19.2801 15.2699H19.6101C26.6101 15.1999 32.1901 12.7699 32.1602 9.83992C32.1301 6.90992 26.63 4.66992 19.81 4.66992Z" fill="white"/>
</svg>
