<svg width="375" height="88" viewBox="0 0 375 88" fill="none" xmlns="http://www.w3.org/2000/svg">
<mask id="mask0_9460_97479" style="mask-type:alpha" maskUnits="userSpaceOnUse" x="0" y="0" width="375" height="88">
<rect width="375" height="88" fill="white"/>
</mask>
<g mask="url(#mask0_9460_97479)">
<rect x="-53" width="480" height="88" fill="#F8FAFB"/>
<path d="M61.7195 32.2536H59.8601C59.8071 31.9486 59.7093 31.6785 59.5668 31.4432C59.4242 31.2045 59.2469 31.0024 59.0348 30.8366C58.8227 30.6709 58.5807 30.5466 58.3089 30.4638C58.0405 30.3776 57.7505 30.3345 57.4389 30.3345C56.8854 30.3345 56.3949 30.4737 55.9673 30.7521C55.5398 31.0272 55.205 31.4316 54.9631 31.9652C54.7211 32.4955 54.6001 33.1435 54.6001 33.9091C54.6001 34.688 54.7211 35.3442 54.9631 35.8778C55.2083 36.4081 55.5431 36.8092 55.9673 37.081C56.3949 37.3494 56.8838 37.4837 57.4339 37.4837C57.7389 37.4837 58.0239 37.4439 58.2891 37.3643C58.5575 37.2815 58.7978 37.1605 59.0099 37.0014C59.2254 36.8423 59.406 36.6468 59.5518 36.4148C59.701 36.1828 59.8037 35.9176 59.8601 35.6193L61.7195 35.6293C61.6499 36.1132 61.4991 36.5672 61.267 36.9915C61.0384 37.4157 60.7384 37.7902 60.3672 38.1151C59.996 38.4366 59.5618 38.6884 59.0646 38.8707C58.5675 39.0497 58.0156 39.1392 57.4091 39.1392C56.5142 39.1392 55.7154 38.9321 55.0128 38.5178C54.3101 38.1035 53.7566 37.5052 53.3523 36.723C52.9479 35.9408 52.7457 35.0028 52.7457 33.9091C52.7457 32.812 52.9496 31.8741 53.3572 31.0952C53.7649 30.313 54.3201 29.7147 55.0227 29.3004C55.7254 28.8861 56.5208 28.679 57.4091 28.679C57.9759 28.679 58.5028 28.7585 58.9901 28.9176C59.4773 29.0767 59.9115 29.3104 60.2926 29.6186C60.6738 29.9235 60.987 30.2981 61.2322 30.7422C61.4808 31.183 61.6432 31.6868 61.7195 32.2536ZM65.1287 34.5256V39H63.329V28.8182H65.089V32.6612H65.1784C65.3574 32.2304 65.6342 31.8906 66.0087 31.642C66.3865 31.3902 66.8671 31.2642 67.4505 31.2642C67.9808 31.2642 68.4431 31.3752 68.8375 31.5973C69.2319 31.8194 69.5369 32.1442 69.7523 32.5717C69.9711 32.9993 70.0804 33.5213 70.0804 34.1378V39H68.2807V34.4162C68.2807 33.9025 68.1481 33.5031 67.883 33.218C67.6212 32.9297 67.2533 32.7855 66.7793 32.7855C66.4611 32.7855 66.1761 32.8551 65.9242 32.9943C65.6756 33.1302 65.4801 33.3274 65.3375 33.5859C65.1983 33.8445 65.1287 34.1577 65.1287 34.5256ZM75.2956 39.1491C74.53 39.1491 73.8688 38.9901 73.312 38.6719C72.7585 38.3504 72.3326 37.8963 72.0343 37.3097C71.736 36.7197 71.5868 36.0253 71.5868 35.2266C71.5868 34.4411 71.736 33.7517 72.0343 33.1584C72.3359 32.5618 72.7568 32.0978 73.2971 31.7663C73.8373 31.4316 74.472 31.2642 75.2012 31.2642C75.6718 31.2642 76.1159 31.3404 76.5336 31.4929C76.9545 31.642 77.3257 31.8741 77.6472 32.1889C77.972 32.5038 78.2272 32.9048 78.4128 33.392C78.5984 33.8759 78.6912 34.4527 78.6912 35.1222V35.674H72.432V34.4609H76.9661C76.9628 34.1162 76.8882 33.8097 76.7424 33.5412C76.5965 33.2694 76.3927 33.0556 76.1309 32.8999C75.8723 32.7441 75.5707 32.6662 75.226 32.6662C74.8581 32.6662 74.535 32.7557 74.2566 32.9347C73.9782 33.1103 73.7611 33.3423 73.6053 33.6307C73.4528 33.9157 73.3749 34.2289 73.3716 34.5703V35.6293C73.3716 36.0734 73.4528 36.4545 73.6152 36.7727C73.7776 37.0876 74.0047 37.3295 74.2963 37.4986C74.588 37.6643 74.9294 37.7472 75.3205 37.7472C75.5823 37.7472 75.8193 37.7107 76.0314 37.6378C76.2435 37.5616 76.4275 37.4505 76.5833 37.3047C76.7391 37.1589 76.8567 36.9782 76.9363 36.7628L78.6167 36.9517C78.5106 37.3958 78.3084 37.7836 78.0101 38.1151C77.7151 38.4432 77.3373 38.6984 76.8766 38.8807C76.4159 39.0597 75.8889 39.1491 75.2956 39.1491ZM83.5447 39.1491C82.7824 39.1491 82.1278 38.9818 81.581 38.647C81.0374 38.3123 80.6181 37.8499 80.3232 37.2599C80.0315 36.6667 79.8857 35.9839 79.8857 35.2116C79.8857 34.4361 80.0348 33.7517 80.3331 33.1584C80.6314 32.5618 81.0523 32.0978 81.5959 31.7663C82.1428 31.4316 82.7891 31.2642 83.5348 31.2642C84.1546 31.2642 84.7031 31.3786 85.1804 31.6072C85.661 31.8326 86.0438 32.1525 86.3288 32.5668C86.6139 32.9777 86.7763 33.4583 86.8161 34.0085H85.0959C85.0263 33.6406 84.8606 33.334 84.5987 33.0888C84.3402 32.8402 83.9938 32.7159 83.5597 32.7159C83.1918 32.7159 82.8686 32.8153 82.5902 33.0142C82.3118 33.2098 82.0947 33.4915 81.9389 33.8594C81.7865 34.2273 81.7102 34.6681 81.7102 35.1818C81.7102 35.7022 81.7865 36.1496 81.9389 36.5241C82.0914 36.8954 82.3052 37.1821 82.5803 37.3842C82.8587 37.5831 83.1851 37.6825 83.5597 37.6825C83.8248 37.6825 84.0618 37.6328 84.2706 37.5334C84.4827 37.4306 84.66 37.2831 84.8026 37.0909C84.9451 36.8987 85.0429 36.665 85.0959 36.3899H86.8161C86.773 36.9302 86.6139 37.4091 86.3388 37.8267C86.0637 38.241 85.6892 38.5658 85.2152 38.8011C84.7412 39.0331 84.1844 39.1491 83.5447 39.1491ZM89.9345 36.6037L89.9295 34.4311H90.2179L92.9622 31.3636H95.0652L91.6895 35.1222H91.3166L89.9345 36.6037ZM88.2939 39V28.8182H90.0936V39H88.2939ZM93.0865 39L90.6007 35.5249L91.8137 34.2571L95.2392 39H93.0865ZM103.605 31.3636V32.7557H99.0909V31.3636H103.605ZM100.219 39V30.6428C100.219 30.129 100.326 29.7015 100.538 29.3601C100.753 29.0187 101.041 28.7635 101.403 28.5945C101.764 28.4254 102.165 28.3409 102.606 28.3409C102.917 28.3409 103.194 28.3658 103.436 28.4155C103.678 28.4652 103.857 28.5099 103.973 28.5497L103.615 29.9418C103.539 29.9186 103.443 29.8954 103.327 29.8722C103.211 29.8456 103.081 29.8324 102.939 29.8324C102.604 29.8324 102.367 29.9136 102.228 30.076C102.092 30.2351 102.024 30.4638 102.024 30.7621V39H100.219ZM108.058 39.1491C107.313 39.1491 106.666 38.9851 106.119 38.657C105.573 38.3288 105.148 37.8698 104.847 37.2798C104.548 36.6899 104.399 36.0005 104.399 35.2116C104.399 34.4228 104.548 33.7318 104.847 33.1385C105.148 32.5452 105.573 32.0845 106.119 31.7564C106.666 31.4283 107.313 31.2642 108.058 31.2642C108.804 31.2642 109.45 31.4283 109.997 31.7564C110.544 32.0845 110.967 32.5452 111.265 33.1385C111.567 33.7318 111.718 34.4228 111.718 35.2116C111.718 36.0005 111.567 36.6899 111.265 37.2798C110.967 37.8698 110.544 38.3288 109.997 38.657C109.45 38.9851 108.804 39.1491 108.058 39.1491ZM108.068 37.7074C108.473 37.7074 108.811 37.5964 109.083 37.3743C109.354 37.1489 109.557 36.8473 109.689 36.4695C109.825 36.0916 109.893 35.6707 109.893 35.2067C109.893 34.7393 109.825 34.3168 109.689 33.9389C109.557 33.5578 109.354 33.2545 109.083 33.0291C108.811 32.8037 108.473 32.6911 108.068 32.6911C107.654 32.6911 107.309 32.8037 107.034 33.0291C106.762 33.2545 106.559 33.5578 106.423 33.9389C106.29 34.3168 106.224 34.7393 106.224 35.2067C106.224 35.6707 106.29 36.0916 106.423 36.4695C106.559 36.8473 106.762 37.1489 107.034 37.3743C107.309 37.5964 107.654 37.7074 108.068 37.7074ZM113.245 39V31.3636H114.99V32.6364H115.07C115.209 32.1955 115.447 31.8558 115.786 31.6172C116.127 31.3752 116.516 31.2543 116.954 31.2543C117.053 31.2543 117.164 31.2592 117.287 31.2692C117.413 31.2758 117.517 31.2874 117.6 31.304V32.9595C117.524 32.933 117.403 32.9098 117.237 32.8899C117.075 32.8667 116.917 32.8551 116.765 32.8551C116.437 32.8551 116.142 32.9264 115.88 33.0689C115.621 33.2081 115.418 33.402 115.268 33.6506C115.119 33.8991 115.045 34.1858 115.045 34.5107V39H113.245ZM128.304 33.3821L126.663 33.5611C126.617 33.3954 126.536 33.2396 126.42 33.0938C126.307 32.9479 126.155 32.8303 125.962 32.7408C125.77 32.6513 125.535 32.6065 125.256 32.6065C124.882 32.6065 124.567 32.6877 124.312 32.8501C124.06 33.0125 123.936 33.223 123.939 33.4815C123.936 33.7036 124.017 33.8842 124.183 34.0234C124.352 34.1626 124.63 34.277 125.018 34.3665L126.32 34.6449C127.043 34.8007 127.58 35.0476 127.931 35.3857C128.286 35.7237 128.465 36.1662 128.468 36.7131C128.465 37.1937 128.324 37.6179 128.045 37.9858C127.77 38.3504 127.388 38.6354 126.897 38.8409C126.406 39.0464 125.843 39.1491 125.207 39.1491C124.272 39.1491 123.52 38.9536 122.95 38.5625C122.379 38.1681 122.04 37.6196 121.93 36.9169L123.685 36.7479C123.765 37.0926 123.934 37.3527 124.192 37.5284C124.451 37.7041 124.787 37.7919 125.202 37.7919C125.629 37.7919 125.972 37.7041 126.231 37.5284C126.493 37.3527 126.624 37.1357 126.624 36.8771C126.624 36.6584 126.539 36.4777 126.37 36.3352C126.204 36.1927 125.946 36.0833 125.594 36.0071L124.292 35.7337C123.559 35.5812 123.018 35.3243 122.666 34.9631C122.315 34.5985 122.141 34.1378 122.144 33.581C122.141 33.1103 122.268 32.7027 122.527 32.358C122.789 32.0099 123.152 31.7415 123.616 31.5526C124.083 31.3603 124.622 31.2642 125.232 31.2642C126.126 31.2642 126.831 31.4548 127.344 31.8359C127.862 32.2171 128.181 32.7325 128.304 33.3821ZM134.819 35.7884V31.3636H136.619V39H134.874V37.6428H134.794C134.622 38.0703 134.339 38.42 133.944 38.6918C133.553 38.9635 133.071 39.0994 132.498 39.0994C131.997 39.0994 131.555 38.9884 131.17 38.7663C130.789 38.541 130.491 38.2145 130.275 37.7869C130.06 37.3561 129.952 36.8357 129.952 36.2259V31.3636H131.752V35.9474C131.752 36.4313 131.884 36.8158 132.15 37.1009C132.415 37.3859 132.763 37.5284 133.194 37.5284C133.459 37.5284 133.716 37.4638 133.964 37.3345C134.213 37.2053 134.417 37.013 134.576 36.7578C134.738 36.4993 134.819 36.1761 134.819 35.7884ZM138.47 41.8636V31.3636H140.24V32.6264H140.344C140.437 32.4408 140.568 32.2436 140.737 32.0348C140.906 31.8227 141.134 31.642 141.423 31.4929C141.711 31.3404 142.079 31.2642 142.526 31.2642C143.116 31.2642 143.648 31.415 144.122 31.7166C144.6 32.0149 144.977 32.4574 145.256 33.044C145.538 33.6274 145.678 34.3433 145.678 35.1918C145.678 36.0303 145.541 36.7429 145.266 37.3295C144.991 37.9162 144.616 38.3636 144.142 38.6719C143.668 38.9801 143.131 39.1342 142.531 39.1342C142.094 39.1342 141.731 39.0613 141.443 38.9155C141.154 38.7696 140.922 38.594 140.747 38.3885C140.574 38.1797 140.44 37.9825 140.344 37.7969H140.269V41.8636H138.47ZM140.235 35.1818C140.235 35.6757 140.304 36.1082 140.443 36.4794C140.586 36.8506 140.79 37.1406 141.055 37.3494C141.323 37.5549 141.648 37.6577 142.029 37.6577C142.427 37.6577 142.76 37.5516 143.029 37.3395C143.297 37.1241 143.499 36.8307 143.635 36.4595C143.774 36.085 143.844 35.6591 143.844 35.1818C143.844 34.7079 143.776 34.2869 143.64 33.919C143.504 33.5511 143.302 33.2628 143.034 33.054C142.765 32.8452 142.43 32.7408 142.029 32.7408C141.645 32.7408 141.318 32.8419 141.05 33.044C140.781 33.2462 140.578 33.5296 140.438 33.8942C140.302 34.2588 140.235 34.688 140.235 35.1818ZM147.22 41.8636V31.3636H148.99V32.6264H149.094C149.187 32.4408 149.318 32.2436 149.487 32.0348C149.656 31.8227 149.884 31.642 150.173 31.4929C150.461 31.3404 150.829 31.2642 151.276 31.2642C151.866 31.2642 152.398 31.415 152.872 31.7166C153.35 32.0149 153.727 32.4574 154.006 33.044C154.288 33.6274 154.428 34.3433 154.428 35.1918C154.428 36.0303 154.291 36.7429 154.016 37.3295C153.741 37.9162 153.366 38.3636 152.892 38.6719C152.418 38.9801 151.881 39.1342 151.281 39.1342C150.844 39.1342 150.481 39.0613 150.193 38.9155C149.904 38.7696 149.672 38.594 149.497 38.3885C149.324 38.1797 149.19 37.9825 149.094 37.7969H149.019V41.8636H147.22ZM148.985 35.1818C148.985 35.6757 149.054 36.1082 149.193 36.4794C149.336 36.8506 149.54 37.1406 149.805 37.3494C150.073 37.5549 150.398 37.6577 150.779 37.6577C151.177 37.6577 151.51 37.5516 151.779 37.3395C152.047 37.1241 152.249 36.8307 152.385 36.4595C152.524 36.085 152.594 35.6591 152.594 35.1818C152.594 34.7079 152.526 34.2869 152.39 33.919C152.254 33.5511 152.052 33.2628 151.784 33.054C151.515 32.8452 151.18 32.7408 150.779 32.7408C150.395 32.7408 150.068 32.8419 149.8 33.044C149.531 33.2462 149.328 33.5296 149.188 33.8942C149.052 34.2588 148.985 34.688 148.985 35.1818ZM159.301 39.1491C158.555 39.1491 157.909 38.9851 157.362 38.657C156.815 38.3288 156.391 37.8698 156.089 37.2798C155.791 36.6899 155.642 36.0005 155.642 35.2116C155.642 34.4228 155.791 33.7318 156.089 33.1385C156.391 32.5452 156.815 32.0845 157.362 31.7564C157.909 31.4283 158.555 31.2642 159.301 31.2642C160.046 31.2642 160.693 31.4283 161.24 31.7564C161.786 32.0845 162.209 32.5452 162.507 33.1385C162.809 33.7318 162.96 34.4228 162.96 35.2116C162.96 36.0005 162.809 36.6899 162.507 37.2798C162.209 37.8698 161.786 38.3288 161.24 38.657C160.693 38.9851 160.046 39.1491 159.301 39.1491ZM159.311 37.7074C159.715 37.7074 160.053 37.5964 160.325 37.3743C160.597 37.1489 160.799 36.8473 160.931 36.4695C161.067 36.0916 161.135 35.6707 161.135 35.2067C161.135 34.7393 161.067 34.3168 160.931 33.9389C160.799 33.5578 160.597 33.2545 160.325 33.0291C160.053 32.8037 159.715 32.6911 159.311 32.6911C158.896 32.6911 158.552 32.8037 158.276 33.0291C158.005 33.2545 157.801 33.5578 157.665 33.9389C157.532 34.3168 157.466 34.7393 157.466 35.2067C157.466 35.6707 157.532 36.0916 157.665 36.4695C157.801 36.8473 158.005 37.1489 158.276 37.3743C158.552 37.5964 158.896 37.7074 159.311 37.7074ZM164.487 39V31.3636H166.232V32.6364H166.312C166.451 32.1955 166.69 31.8558 167.028 31.6172C167.369 31.3752 167.759 31.2543 168.196 31.2543C168.295 31.2543 168.406 31.2592 168.529 31.2692C168.655 31.2758 168.759 31.2874 168.842 31.304V32.9595C168.766 32.933 168.645 32.9098 168.479 32.8899C168.317 32.8667 168.16 32.8551 168.007 32.8551C167.679 32.8551 167.384 32.9264 167.122 33.0689C166.864 33.2081 166.66 33.402 166.511 33.6506C166.362 33.8991 166.287 34.1858 166.287 34.5107V39H164.487ZM174.261 31.3636V32.7557H169.871V31.3636H174.261ZM170.955 29.5341H172.755V36.7031C172.755 36.9451 172.791 37.1307 172.864 37.2599C172.941 37.3859 173.04 37.4721 173.163 37.5185C173.285 37.5649 173.421 37.5881 173.57 37.5881C173.683 37.5881 173.786 37.5798 173.879 37.5632C173.975 37.5466 174.048 37.5317 174.097 37.5185L174.401 38.9254C174.304 38.9586 174.167 38.995 173.988 39.0348C173.812 39.0746 173.597 39.0978 173.342 39.1044C172.891 39.1177 172.485 39.0497 172.124 38.9006C171.762 38.7481 171.476 38.5128 171.263 38.1946C171.055 37.8764 170.952 37.4787 170.955 37.0014V29.5341ZM179.065 39.1491C178.3 39.1491 177.638 38.9901 177.081 38.6719C176.528 38.3504 176.102 37.8963 175.804 37.3097C175.506 36.7197 175.356 36.0253 175.356 35.2266C175.356 34.4411 175.506 33.7517 175.804 33.1584C176.105 32.5618 176.526 32.0978 177.067 31.7663C177.607 31.4316 178.242 31.2642 178.971 31.2642C179.441 31.2642 179.885 31.3404 180.303 31.4929C180.724 31.642 181.095 31.8741 181.417 32.1889C181.742 32.5038 181.997 32.9048 182.182 33.392C182.368 33.8759 182.461 34.4527 182.461 35.1222V35.674H176.202V34.4609H180.736C180.732 34.1162 180.658 33.8097 180.512 33.5412C180.366 33.2694 180.162 33.0556 179.9 32.8999C179.642 32.7441 179.34 32.6662 178.996 32.6662C178.628 32.6662 178.305 32.7557 178.026 32.9347C177.748 33.1103 177.531 33.3423 177.375 33.6307C177.222 33.9157 177.144 34.2289 177.141 34.5703V35.6293C177.141 36.0734 177.222 36.4545 177.385 36.7727C177.547 37.0876 177.774 37.3295 178.066 37.4986C178.358 37.6643 178.699 37.7472 179.09 37.7472C179.352 37.7472 179.589 37.7107 179.801 37.6378C180.013 37.5616 180.197 37.4505 180.353 37.3047C180.509 37.1589 180.626 36.9782 180.706 36.7628L182.386 36.9517C182.28 37.3958 182.078 37.7836 181.78 38.1151C181.485 38.4432 181.107 38.6984 180.646 38.8807C180.185 39.0597 179.658 39.1491 179.065 39.1491ZM186.817 39.1342C186.217 39.1342 185.68 38.9801 185.206 38.6719C184.732 38.3636 184.358 37.9162 184.083 37.3295C183.808 36.7429 183.67 36.0303 183.67 35.1918C183.67 34.3433 183.809 33.6274 184.088 33.044C184.369 32.4574 184.749 32.0149 185.226 31.7166C185.703 31.415 186.235 31.2642 186.822 31.2642C187.27 31.2642 187.637 31.3404 187.926 31.4929C188.214 31.642 188.443 31.8227 188.612 32.0348C188.781 32.2436 188.912 32.4408 189.005 32.6264H189.079V28.8182H190.884V39H189.114V37.7969H189.005C188.912 37.9825 188.778 38.1797 188.602 38.3885C188.426 38.594 188.194 38.7696 187.906 38.9155C187.618 39.0613 187.255 39.1342 186.817 39.1342ZM187.319 37.6577C187.7 37.6577 188.025 37.5549 188.294 37.3494C188.562 37.1406 188.766 36.8506 188.905 36.4794C189.044 36.1082 189.114 35.6757 189.114 35.1818C189.114 34.688 189.044 34.2588 188.905 33.8942C188.769 33.5296 188.567 33.2462 188.299 33.044C188.033 32.8419 187.707 32.7408 187.319 32.7408C186.918 32.7408 186.583 32.8452 186.315 33.054C186.047 33.2628 185.844 33.5511 185.708 33.919C185.573 34.2869 185.505 34.7079 185.505 35.1818C185.505 35.6591 185.573 36.085 185.708 36.4595C185.848 36.8307 186.051 37.1241 186.32 37.3395C186.592 37.5516 186.925 37.6577 187.319 37.6577ZM205.069 32.2536H203.21C203.157 31.9486 203.059 31.6785 202.916 31.4432C202.774 31.2045 202.597 31.0024 202.384 30.8366C202.172 30.6709 201.93 30.5466 201.659 30.4638C201.39 30.3776 201.1 30.3345 200.789 30.3345C200.235 30.3345 199.744 30.4737 199.317 30.7521C198.889 31.0272 198.555 31.4316 198.313 31.9652C198.071 32.4955 197.95 33.1435 197.95 33.9091C197.95 34.688 198.071 35.3442 198.313 35.8778C198.558 36.4081 198.893 36.8092 199.317 37.081C199.744 37.3494 200.233 37.4837 200.784 37.4837C201.088 37.4837 201.374 37.4439 201.639 37.3643C201.907 37.2815 202.147 37.1605 202.36 37.0014C202.575 36.8423 202.756 36.6468 202.901 36.4148C203.051 36.1828 203.153 35.9176 203.21 35.6193L205.069 35.6293C204.999 36.1132 204.849 36.5672 204.617 36.9915C204.388 37.4157 204.088 37.7902 203.717 38.1151C203.346 38.4366 202.911 38.6884 202.414 38.8707C201.917 39.0497 201.365 39.1392 200.759 39.1392C199.864 39.1392 199.065 38.9321 198.362 38.5178C197.66 38.1035 197.106 37.5052 196.702 36.723C196.298 35.9408 196.095 35.0028 196.095 33.9091C196.095 32.812 196.299 31.8741 196.707 31.0952C197.115 30.313 197.67 29.7147 198.372 29.3004C199.075 28.8861 199.87 28.679 200.759 28.679C201.325 28.679 201.852 28.7585 202.34 28.9176C202.827 29.0767 203.261 29.3104 203.642 29.6186C204.023 29.9235 204.337 30.2981 204.582 30.7422C204.83 31.183 204.993 31.6868 205.069 32.2536ZM208.876 39.1541C208.392 39.1541 207.956 39.0679 207.569 38.8956C207.184 38.7199 206.879 38.4614 206.654 38.12C206.432 37.7786 206.321 37.3577 206.321 36.8572C206.321 36.4264 206.4 36.0701 206.559 35.7884C206.718 35.5066 206.935 35.2812 207.211 35.1122C207.486 34.9432 207.796 34.8156 208.14 34.7294C208.488 34.6399 208.848 34.5753 209.219 34.5355C209.667 34.4891 210.029 34.4477 210.308 34.4112C210.586 34.3714 210.788 34.3118 210.914 34.2322C211.044 34.1494 211.108 34.0218 211.108 33.8494V33.8196C211.108 33.4451 210.997 33.1551 210.775 32.9496C210.553 32.7441 210.233 32.6413 209.816 32.6413C209.375 32.6413 209.025 32.7375 208.767 32.9297C208.511 33.1219 208.339 33.349 208.25 33.6108L206.569 33.3722C206.702 32.9081 206.921 32.5204 207.225 32.2088C207.53 31.8939 207.903 31.6586 208.344 31.5028C208.785 31.3438 209.272 31.2642 209.806 31.2642C210.174 31.2642 210.54 31.3073 210.904 31.3935C211.269 31.4796 211.602 31.6222 211.904 31.821C212.205 32.0166 212.447 32.2834 212.63 32.6214C212.815 32.9595 212.908 33.3821 212.908 33.8892V39H211.178V37.951H211.118C211.009 38.1631 210.855 38.362 210.656 38.5476C210.46 38.7299 210.213 38.8774 209.915 38.9901C209.62 39.0994 209.274 39.1541 208.876 39.1541ZM209.343 37.8317C209.705 37.8317 210.018 37.7604 210.283 37.6179C210.548 37.4721 210.752 37.2798 210.895 37.0412C211.04 36.8026 211.113 36.5424 211.113 36.2607V35.3608C211.057 35.4072 210.961 35.4503 210.825 35.4901C210.692 35.5298 210.543 35.5646 210.377 35.5945C210.212 35.6243 210.048 35.6508 209.885 35.674C209.723 35.6972 209.582 35.7171 209.463 35.7337C209.194 35.7701 208.954 35.8298 208.742 35.9126C208.53 35.9955 208.362 36.1115 208.24 36.2607C208.117 36.4065 208.056 36.5954 208.056 36.8274C208.056 37.1589 208.177 37.4091 208.419 37.5781C208.661 37.7472 208.969 37.8317 209.343 37.8317ZM214.718 39V31.3636H216.463V32.6364H216.542C216.681 32.1955 216.92 31.8558 217.258 31.6172C217.6 31.3752 217.989 31.2543 218.426 31.2543C218.526 31.2543 218.637 31.2592 218.76 31.2692C218.886 31.2758 218.99 31.2874 219.073 31.304V32.9595C218.997 32.933 218.876 32.9098 218.71 32.8899C218.547 32.8667 218.39 32.8551 218.238 32.8551C217.909 32.8551 217.614 32.9264 217.353 33.0689C217.094 33.2081 216.89 33.402 216.741 33.6506C216.592 33.8991 216.517 34.1858 216.517 34.5107V39H214.718ZM222.788 39.1342C222.188 39.1342 221.651 38.9801 221.177 38.6719C220.703 38.3636 220.329 37.9162 220.053 37.3295C219.778 36.7429 219.641 36.0303 219.641 35.1918C219.641 34.3433 219.78 33.6274 220.058 33.044C220.34 32.4574 220.72 32.0149 221.197 31.7166C221.674 31.415 222.206 31.2642 222.793 31.2642C223.24 31.2642 223.608 31.3404 223.896 31.4929C224.185 31.642 224.414 31.8227 224.583 32.0348C224.752 32.2436 224.883 32.4408 224.975 32.6264H225.05V28.8182H226.855V39H225.085V37.7969H224.975C224.883 37.9825 224.748 38.1797 224.573 38.3885C224.397 38.594 224.165 38.7696 223.877 38.9155C223.588 39.0613 223.225 39.1342 222.788 39.1342ZM223.29 37.6577C223.671 37.6577 223.996 37.5549 224.264 37.3494C224.533 37.1406 224.737 36.8506 224.876 36.4794C225.015 36.1082 225.085 35.6757 225.085 35.1818C225.085 34.688 225.015 34.2588 224.876 33.8942C224.74 33.5296 224.538 33.2462 224.269 33.044C224.004 32.8419 223.678 32.7408 223.29 32.7408C222.889 32.7408 222.554 32.8452 222.286 33.054C222.017 33.2628 221.815 33.5511 221.679 33.919C221.543 34.2869 221.475 34.7079 221.475 35.1818C221.475 35.6591 221.543 36.085 221.679 36.4595C221.818 36.8307 222.022 37.1241 222.291 37.3395C222.562 37.5516 222.896 37.6577 223.29 37.6577ZM234.808 33.3821L233.167 33.5611C233.121 33.3954 233.04 33.2396 232.924 33.0938C232.811 32.9479 232.658 32.8303 232.466 32.7408C232.274 32.6513 232.039 32.6065 231.76 32.6065C231.386 32.6065 231.071 32.6877 230.816 32.8501C230.564 33.0125 230.44 33.223 230.443 33.4815C230.44 33.7036 230.521 33.8842 230.686 34.0234C230.855 34.1626 231.134 34.277 231.522 34.3665L232.824 34.6449C233.547 34.8007 234.084 35.0476 234.435 35.3857C234.79 35.7237 234.969 36.1662 234.972 36.7131C234.969 37.1937 234.828 37.6179 234.549 37.9858C234.274 38.3504 233.891 38.6354 233.401 38.8409C232.91 39.0464 232.347 39.1491 231.711 39.1491C230.776 39.1491 230.024 38.9536 229.453 38.5625C228.883 38.1681 228.544 37.6196 228.434 36.9169L230.189 36.7479C230.269 37.0926 230.438 37.3527 230.696 37.5284C230.955 37.7041 231.291 37.7919 231.706 37.7919C232.133 37.7919 232.476 37.7041 232.735 37.5284C232.997 37.3527 233.127 37.1357 233.127 36.8771C233.127 36.6584 233.043 36.4777 232.874 36.3352C232.708 36.1927 232.45 36.0833 232.098 36.0071L230.796 35.7337C230.063 35.5812 229.521 35.3243 229.17 34.9631C228.819 34.5985 228.645 34.1378 228.648 33.581C228.645 33.1103 228.772 32.7027 229.031 32.358C229.293 32.0099 229.656 31.7415 230.12 31.5526C230.587 31.3603 231.126 31.2642 231.735 31.2642C232.63 31.2642 233.335 31.4548 233.848 31.8359C234.365 32.2171 234.685 32.7325 234.808 33.3821Z" fill="#333A3D"/>
<path d="M60.5398 54.6364C60.5398 55.5682 60.3693 56.3693 60.0284 57.0398C59.6875 57.7074 59.2202 58.2216 58.6264 58.5824C58.0355 58.9403 57.3636 59.1193 56.6108 59.1193C55.8551 59.1193 55.1804 58.9403 54.5866 58.5824C53.9957 58.2216 53.5298 57.706 53.1889 57.0355C52.848 56.3651 52.6776 55.5653 52.6776 54.6364C52.6776 53.7045 52.848 52.9048 53.1889 52.2372C53.5298 51.5668 53.9957 51.0526 54.5866 50.6946C55.1804 50.3338 55.8551 50.1534 56.6108 50.1534C57.3636 50.1534 58.0355 50.3338 58.6264 50.6946C59.2202 51.0526 59.6875 51.5668 60.0284 52.2372C60.3693 52.9048 60.5398 53.7045 60.5398 54.6364ZM59.2358 54.6364C59.2358 53.9261 59.1207 53.3281 58.8906 52.8423C58.6634 52.3537 58.3509 51.9844 57.9531 51.7344C57.5582 51.4815 57.1108 51.3551 56.6108 51.3551C56.108 51.3551 55.6591 51.4815 55.2642 51.7344C54.8693 51.9844 54.5568 52.3537 54.3267 52.8423C54.0994 53.3281 53.9858 53.9261 53.9858 54.6364C53.9858 55.3466 54.0994 55.946 54.3267 56.4347C54.5568 56.9205 54.8693 57.2898 55.2642 57.5426C55.6591 57.7926 56.108 57.9176 56.6108 57.9176C57.1108 57.9176 57.5582 57.7926 57.9531 57.5426C58.3509 57.2898 58.6634 56.9205 58.8906 56.4347C59.1207 55.946 59.2358 55.3466 59.2358 54.6364ZM63.3533 55.1136V59H62.0792V52.4545H63.3022V53.5199H63.3832C63.5337 53.1733 63.7695 52.8949 64.0906 52.6847C64.4144 52.4744 64.8221 52.3693 65.3136 52.3693C65.7596 52.3693 66.1502 52.4631 66.4854 52.6506C66.8207 52.8352 67.0806 53.1108 67.2653 53.4773C67.4499 53.8437 67.5423 54.2969 67.5423 54.8366V59H66.2681V54.9901C66.2681 54.5156 66.1445 54.1449 65.8974 53.8778C65.6502 53.608 65.3107 53.473 64.8789 53.473C64.5835 53.473 64.3207 53.5369 64.0906 53.6648C63.8633 53.7926 63.6829 53.9801 63.5494 54.2273C63.4187 54.4716 63.3533 54.767 63.3533 55.1136ZM70.5252 50.2727V59H69.2511V50.2727H70.5252ZM73.0447 61.4545C72.8544 61.4545 72.6811 61.4389 72.5249 61.4077C72.3686 61.3793 72.2521 61.348 72.1754 61.3139L72.4822 60.2699C72.7152 60.3324 72.9226 60.3594 73.1044 60.3509C73.2862 60.3423 73.4467 60.2741 73.5859 60.1463C73.728 60.0185 73.853 59.8097 73.9609 59.5199L74.1186 59.0852L71.7237 52.4545H73.0874L74.745 57.5341H74.8132L76.4709 52.4545H77.8388L75.1413 59.8736C75.0163 60.2145 74.8572 60.5028 74.6641 60.7386C74.4709 60.9773 74.2408 61.1563 73.9737 61.2756C73.7067 61.3949 73.397 61.4545 73.0447 61.4545ZM85.2674 52.4545V53.4773H81.6921V52.4545H85.2674ZM82.6509 50.8864H83.9251V57.0781C83.9251 57.3253 83.962 57.5114 84.0359 57.6364C84.1097 57.7585 84.2049 57.8423 84.3214 57.8878C84.4407 57.9304 84.57 57.9517 84.7092 57.9517C84.8114 57.9517 84.9009 57.9446 84.9776 57.9304C85.0543 57.9162 85.114 57.9048 85.1566 57.8963L85.3867 58.9489C85.3129 58.9773 85.2077 59.0057 85.0714 59.0341C84.935 59.0653 84.7646 59.0824 84.56 59.0852C84.2248 59.0909 83.9123 59.0312 83.6225 58.9062C83.3327 58.7812 83.0984 58.5881 82.9194 58.3267C82.7404 58.0653 82.6509 57.7372 82.6509 57.3423V50.8864ZM88.0916 55.1136V59H86.8175V50.2727H88.0746V53.5199H88.1555C88.3089 53.1676 88.5433 52.8878 88.8587 52.6804C89.174 52.473 89.5859 52.3693 90.0945 52.3693C90.5433 52.3693 90.9354 52.4616 91.2706 52.6463C91.6087 52.831 91.87 53.1065 92.0547 53.473C92.2422 53.8366 92.3359 54.2912 92.3359 54.8366V59H91.0618V54.9901C91.0618 54.5099 90.9382 54.1378 90.6911 53.8736C90.4439 53.6065 90.1001 53.473 89.6598 53.473C89.3587 53.473 89.0888 53.5369 88.8501 53.6648C88.6143 53.7926 88.4283 53.9801 88.2919 54.2273C88.1584 54.4716 88.0916 54.767 88.0916 55.1136ZM96.8572 59.1321C96.2124 59.1321 95.657 58.9943 95.1911 58.7188C94.728 58.4403 94.37 58.0497 94.1172 57.5469C93.8672 57.0412 93.7422 56.4489 93.7422 55.7699C93.7422 55.0994 93.8672 54.5085 94.1172 53.9972C94.37 53.4858 94.7223 53.0866 95.174 52.7997C95.6286 52.5128 96.1598 52.3693 96.7678 52.3693C97.1371 52.3693 97.495 52.4304 97.8416 52.5526C98.1882 52.6747 98.4993 52.8665 98.7749 53.1278C99.0504 53.3892 99.2678 53.7287 99.4268 54.1463C99.5859 54.5611 99.6655 55.0653 99.6655 55.6591V56.1108H94.4624V55.1562H98.4169C98.4169 54.821 98.3487 54.5241 98.2124 54.2656C98.076 54.0043 97.8842 53.7983 97.6371 53.6477C97.3928 53.4972 97.1058 53.4219 96.7763 53.4219C96.4183 53.4219 96.1058 53.5099 95.8388 53.6861C95.5746 53.8594 95.37 54.0866 95.2251 54.3679C95.0831 54.6463 95.0121 54.9489 95.0121 55.2756V56.0213C95.0121 56.4588 95.0888 56.831 95.2422 57.1378C95.3984 57.4446 95.6158 57.679 95.8942 57.8409C96.1726 58 96.4979 58.0795 96.87 58.0795C97.1115 58.0795 97.3317 58.0455 97.5305 57.9773C97.7294 57.9062 97.9013 57.8011 98.0462 57.6619C98.1911 57.5227 98.3018 57.3509 98.3786 57.1463L99.5845 57.3636C99.4879 57.7187 99.3146 58.0298 99.0646 58.2969C98.8175 58.5611 98.5064 58.767 98.1314 58.9148C97.7592 59.0597 97.3345 59.1321 96.8572 59.1321ZM101.697 61.4545C101.507 61.4545 101.333 61.4389 101.177 61.4077C101.021 61.3793 100.904 61.348 100.828 61.3139L101.135 60.2699C101.368 60.3324 101.575 60.3594 101.757 60.3509C101.939 60.3423 102.099 60.2741 102.238 60.1463C102.38 60.0185 102.505 59.8097 102.613 59.5199L102.771 59.0852L100.376 52.4545H101.74L103.397 57.5341H103.466L105.123 52.4545H106.491L103.794 59.8736C103.669 60.2145 103.51 60.5028 103.316 60.7386C103.123 60.9773 102.893 61.1563 102.626 61.2756C102.359 61.3949 102.049 61.4545 101.697 61.4545ZM112.283 59L110.357 52.4545H111.674L112.957 57.2614H113.021L114.308 52.4545H115.624L116.903 57.2401H116.967L118.241 52.4545H119.558L117.636 59H116.336L115.006 54.2741H114.908L113.579 59H112.283ZM120.767 59V52.4545H122.041V59H120.767ZM121.41 51.4446C121.189 51.4446 120.998 51.3707 120.839 51.223C120.683 51.0724 120.605 50.8935 120.605 50.6861C120.605 50.4759 120.683 50.2969 120.839 50.1491C120.998 49.9986 121.189 49.9233 121.41 49.9233C121.632 49.9233 121.821 49.9986 121.977 50.1491C122.136 50.2969 122.216 50.4759 122.216 50.6861C122.216 50.8935 122.136 51.0724 121.977 51.223C121.821 51.3707 121.632 51.4446 121.41 51.4446ZM125.029 50.2727V59H123.755V50.2727H125.029ZM128.017 50.2727V59H126.743V50.2727H128.017ZM133.01 59V50.2727H134.284V53.5156H134.36C134.434 53.3793 134.541 53.2216 134.68 53.0426C134.819 52.8636 135.012 52.7074 135.26 52.5739C135.507 52.4375 135.833 52.3693 136.24 52.3693C136.768 52.3693 137.24 52.5028 137.654 52.7699C138.069 53.0369 138.395 53.4219 138.63 53.9247C138.869 54.4276 138.988 55.0327 138.988 55.7401C138.988 56.4474 138.87 57.054 138.635 57.5597C138.399 58.0625 138.075 58.4503 137.663 58.723C137.251 58.9929 136.781 59.1278 136.252 59.1278C135.855 59.1278 135.529 59.0611 135.277 58.9276C135.027 58.794 134.831 58.6378 134.689 58.4588C134.547 58.2798 134.437 58.1207 134.36 57.9815H134.254V59H133.01ZM134.258 55.7273C134.258 56.1875 134.325 56.5909 134.458 56.9375C134.592 57.2841 134.785 57.5554 135.038 57.7514C135.291 57.9446 135.6 58.0412 135.967 58.0412C136.348 58.0412 136.666 57.9403 136.922 57.7386C137.177 57.5341 137.37 57.2571 137.501 56.9077C137.635 56.5582 137.701 56.1648 137.701 55.7273C137.701 55.2955 137.636 54.9077 137.505 54.5639C137.377 54.2202 137.184 53.9489 136.926 53.75C136.67 53.5511 136.35 53.4517 135.967 53.4517C135.598 53.4517 135.285 53.5469 135.029 53.7372C134.777 53.9276 134.585 54.1932 134.454 54.5341C134.324 54.875 134.258 55.2727 134.258 55.7273ZM143.24 59.1321C142.595 59.1321 142.04 58.9943 141.574 58.7188C141.111 58.4403 140.753 58.0497 140.5 57.5469C140.25 57.0412 140.125 56.4489 140.125 55.7699C140.125 55.0994 140.25 54.5085 140.5 53.9972C140.753 53.4858 141.105 53.0866 141.557 52.7997C142.011 52.5128 142.543 52.3693 143.151 52.3693C143.52 52.3693 143.878 52.4304 144.224 52.5526C144.571 52.6747 144.882 52.8665 145.158 53.1278C145.433 53.3892 145.651 53.7287 145.81 54.1463C145.969 54.5611 146.048 55.0653 146.048 55.6591V56.1108H140.845V55.1562H144.8C144.8 54.821 144.732 54.5241 144.595 54.2656C144.459 54.0043 144.267 53.7983 144.02 53.6477C143.776 53.4972 143.489 53.4219 143.159 53.4219C142.801 53.4219 142.489 53.5099 142.222 53.6861C141.957 53.8594 141.753 54.0866 141.608 54.3679C141.466 54.6463 141.395 54.9489 141.395 55.2756V56.0213C141.395 56.4588 141.472 56.831 141.625 57.1378C141.781 57.4446 141.999 57.679 142.277 57.8409C142.555 58 142.881 58.0795 143.253 58.0795C143.494 58.0795 143.714 58.0455 143.913 57.9773C144.112 57.9062 144.284 57.8011 144.429 57.6619C144.574 57.5227 144.685 57.3509 144.761 57.1463L145.967 57.3636C145.871 57.7187 145.697 58.0298 145.447 58.2969C145.2 58.5611 144.889 58.767 144.514 58.9148C144.142 59.0597 143.717 59.1321 143.24 59.1321ZM153.088 59.1278C152.56 59.1278 152.088 58.9929 151.673 58.723C151.261 58.4503 150.938 58.0625 150.702 57.5597C150.469 57.054 150.352 56.4474 150.352 55.7401C150.352 55.0327 150.47 54.4276 150.706 53.9247C150.945 53.4219 151.271 53.0369 151.686 52.7699C152.101 52.5028 152.571 52.3693 153.097 52.3693C153.503 52.3693 153.83 52.4375 154.077 52.5739C154.327 52.7074 154.52 52.8636 154.656 53.0426C154.795 53.2216 154.903 53.3793 154.98 53.5156H155.057V50.2727H156.331V59H155.087V57.9815H154.98C154.903 58.1207 154.793 58.2798 154.648 58.4588C154.506 58.6378 154.31 58.794 154.06 58.9276C153.81 59.0611 153.486 59.1278 153.088 59.1278ZM153.369 58.0412C153.736 58.0412 154.045 57.9446 154.298 57.7514C154.554 57.5554 154.747 57.2841 154.878 56.9375C155.011 56.5909 155.078 56.1875 155.078 55.7273C155.078 55.2727 155.013 54.875 154.882 54.5341C154.751 54.1932 154.56 53.9276 154.307 53.7372C154.054 53.5469 153.741 53.4517 153.369 53.4517C152.986 53.4517 152.666 53.5511 152.411 53.75C152.155 53.9489 151.962 54.2202 151.831 54.5639C151.703 54.9077 151.639 55.2955 151.639 55.7273C151.639 56.1648 151.705 56.5582 151.835 56.9077C151.966 57.2571 152.159 57.5341 152.415 57.7386C152.673 57.9403 152.991 58.0412 153.369 58.0412ZM158.15 59V52.4545H159.424V59H158.15ZM158.793 51.4446C158.571 51.4446 158.381 51.3707 158.222 51.223C158.066 51.0724 157.988 50.8935 157.988 50.6861C157.988 50.4759 158.066 50.2969 158.222 50.1491C158.381 49.9986 158.571 49.9233 158.793 49.9233C159.015 49.9233 159.203 49.9986 159.36 50.1491C159.519 50.2969 159.598 50.4759 159.598 50.6861C159.598 50.8935 159.519 51.0724 159.36 51.223C159.203 51.3707 159.015 51.4446 158.793 51.4446ZM166.043 54.0526L164.888 54.2571C164.839 54.1094 164.763 53.9687 164.658 53.8352C164.555 53.7017 164.416 53.5923 164.24 53.5071C164.064 53.4219 163.844 53.3793 163.58 53.3793C163.219 53.3793 162.918 53.4602 162.676 53.6222C162.435 53.7812 162.314 53.9872 162.314 54.2401C162.314 54.4588 162.395 54.6349 162.557 54.7685C162.719 54.902 162.98 55.0114 163.341 55.0966L164.381 55.3352C164.983 55.4744 165.432 55.6889 165.727 55.9787C166.023 56.2685 166.17 56.6449 166.17 57.108C166.17 57.5 166.057 57.8494 165.83 58.1562C165.605 58.4602 165.291 58.6989 164.888 58.8722C164.487 59.0455 164.023 59.1321 163.494 59.1321C162.761 59.1321 162.163 58.9759 161.7 58.6634C161.237 58.348 160.953 57.9006 160.848 57.321L162.08 57.1335C162.156 57.4545 162.314 57.6974 162.553 57.8622C162.791 58.0241 163.102 58.1051 163.486 58.1051C163.903 58.1051 164.237 58.0185 164.487 57.8452C164.737 57.669 164.862 57.4545 164.862 57.2017C164.862 56.9972 164.786 56.8253 164.632 56.6861C164.482 56.5469 164.25 56.4418 163.938 56.3707L162.83 56.1278C162.219 55.9886 161.767 55.767 161.474 55.4631C161.185 55.1591 161.04 54.7741 161.04 54.3082C161.04 53.9219 161.148 53.5838 161.364 53.294C161.58 53.0043 161.878 52.7784 162.259 52.6165C162.639 52.4517 163.075 52.3693 163.567 52.3693C164.274 52.3693 164.831 52.5227 165.237 52.8295C165.643 53.1335 165.912 53.5412 166.043 54.0526ZM167.571 61.4545V52.4545H168.816V53.5156H168.922C168.996 53.3793 169.103 53.2216 169.242 53.0426C169.381 52.8636 169.574 52.7074 169.821 52.5739C170.069 52.4375 170.395 52.3693 170.801 52.3693C171.33 52.3693 171.801 52.5028 172.216 52.7699C172.631 53.0369 172.956 53.4219 173.192 53.9247C173.431 54.4276 173.55 55.0327 173.55 55.7401C173.55 56.4474 173.432 57.054 173.196 57.5597C172.961 58.0625 172.637 58.4503 172.225 58.723C171.813 58.9929 171.343 59.1278 170.814 59.1278C170.417 59.1278 170.091 59.0611 169.838 58.9276C169.588 58.794 169.392 58.6378 169.25 58.4588C169.108 58.2798 168.999 58.1207 168.922 57.9815H168.846V61.4545H167.571ZM168.82 55.7273C168.82 56.1875 168.887 56.5909 169.02 56.9375C169.154 57.2841 169.347 57.5554 169.6 57.7514C169.853 57.9446 170.162 58.0412 170.529 58.0412C170.909 58.0412 171.228 57.9403 171.483 57.7386C171.739 57.5341 171.932 57.2571 172.063 56.9077C172.196 56.5582 172.263 56.1648 172.263 55.7273C172.263 55.2955 172.198 54.9077 172.067 54.5639C171.939 54.2202 171.746 53.9489 171.488 53.75C171.232 53.5511 170.912 53.4517 170.529 53.4517C170.159 53.4517 169.847 53.5469 169.591 53.7372C169.338 53.9276 169.147 54.1932 169.016 54.5341C168.885 54.875 168.82 55.2727 168.82 55.7273ZM176.252 50.2727V59H174.978V50.2727H176.252ZM179.871 59.1449C179.456 59.1449 179.081 59.0682 178.746 58.9148C178.411 58.7585 178.145 58.5327 177.949 58.2372C177.756 57.9418 177.659 57.5795 177.659 57.1506C177.659 56.7812 177.73 56.4773 177.872 56.2386C178.014 56 178.206 55.8111 178.447 55.6719C178.689 55.5327 178.959 55.4276 179.257 55.3565C179.555 55.2855 179.859 55.2315 180.169 55.1946C180.561 55.1491 180.879 55.1122 181.124 55.0838C181.368 55.0526 181.545 55.0028 181.656 54.9347C181.767 54.8665 181.822 54.7557 181.822 54.6023V54.5724C181.822 54.2003 181.717 53.9119 181.507 53.7074C181.3 53.5028 180.99 53.4006 180.578 53.4006C180.149 53.4006 179.811 53.4957 179.564 53.6861C179.32 53.8736 179.151 54.0824 179.057 54.3125L177.859 54.0398C178.001 53.642 178.209 53.321 178.482 53.0767C178.757 52.8295 179.074 52.6506 179.432 52.5398C179.79 52.4261 180.166 52.3693 180.561 52.3693C180.822 52.3693 181.099 52.4006 181.392 52.4631C181.688 52.5227 181.963 52.6335 182.219 52.7955C182.477 52.9574 182.689 53.1889 182.854 53.4901C183.018 53.7884 183.101 54.1761 183.101 54.6534V59H181.857V58.1051H181.805C181.723 58.2699 181.599 58.4318 181.435 58.5909C181.27 58.75 181.058 58.8821 180.8 58.9872C180.541 59.0923 180.232 59.1449 179.871 59.1449ZM180.148 58.1222C180.5 58.1222 180.801 58.0526 181.051 57.9134C181.304 57.7741 181.496 57.5923 181.626 57.3679C181.76 57.1406 181.827 56.8977 181.827 56.6392V55.7955C181.781 55.8409 181.693 55.8835 181.562 55.9233C181.435 55.9602 181.288 55.9929 181.124 56.0213C180.959 56.0469 180.798 56.071 180.642 56.0938C180.486 56.1136 180.355 56.1307 180.25 56.1449C180.003 56.1761 179.777 56.2287 179.572 56.3026C179.371 56.3764 179.209 56.483 179.087 56.6222C178.967 56.7585 178.908 56.9403 178.908 57.1676C178.908 57.483 179.024 57.7216 179.257 57.8835C179.49 58.0426 179.787 58.1222 180.148 58.1222ZM185.369 61.4545C185.179 61.4545 185.005 61.4389 184.849 61.4077C184.693 61.3793 184.576 61.348 184.5 61.3139L184.806 60.2699C185.039 60.3324 185.247 60.3594 185.429 60.3509C185.61 60.3423 185.771 60.2741 185.91 60.1463C186.052 60.0185 186.177 59.8097 186.285 59.5199L186.443 59.0852L184.048 52.4545H185.412L187.069 57.5341H187.137L188.795 52.4545H190.163L187.466 59.8736C187.341 60.2145 187.181 60.5028 186.988 60.7386C186.795 60.9773 186.565 61.1563 186.298 61.2756C186.031 61.3949 185.721 61.4545 185.369 61.4545ZM193.959 59.1321C193.314 59.1321 192.759 58.9943 192.293 58.7188C191.83 58.4403 191.472 58.0497 191.219 57.5469C190.969 57.0412 190.844 56.4489 190.844 55.7699C190.844 55.0994 190.969 54.5085 191.219 53.9972C191.472 53.4858 191.824 53.0866 192.276 52.7997C192.73 52.5128 193.261 52.3693 193.869 52.3693C194.239 52.3693 194.597 52.4304 194.943 52.5526C195.29 52.6747 195.601 52.8665 195.876 53.1278C196.152 53.3892 196.369 53.7287 196.528 54.1463C196.688 54.5611 196.767 55.0653 196.767 55.6591V56.1108H191.564V55.1562H195.518C195.518 54.821 195.45 54.5241 195.314 54.2656C195.178 54.0043 194.986 53.7983 194.739 53.6477C194.494 53.4972 194.207 53.4219 193.878 53.4219C193.52 53.4219 193.207 53.5099 192.94 53.6861C192.676 53.8594 192.472 54.0866 192.327 54.3679C192.185 54.6463 192.114 54.9489 192.114 55.2756V56.0213C192.114 56.4588 192.19 56.831 192.344 57.1378C192.5 57.4446 192.717 57.679 192.996 57.8409C193.274 58 193.599 58.0795 193.972 58.0795C194.213 58.0795 194.433 58.0455 194.632 57.9773C194.831 57.9062 195.003 57.8011 195.148 57.6619C195.293 57.5227 195.403 57.3509 195.48 57.1463L196.686 57.3636C196.589 57.7187 196.416 58.0298 196.166 58.2969C195.919 58.5611 195.608 58.767 195.233 58.9148C194.861 59.0597 194.436 59.1321 193.959 59.1321ZM200.631 59.1278C200.103 59.1278 199.631 58.9929 199.216 58.723C198.804 58.4503 198.48 58.0625 198.245 57.5597C198.012 57.054 197.895 56.4474 197.895 55.7401C197.895 55.0327 198.013 54.4276 198.249 53.9247C198.488 53.4219 198.814 53.0369 199.229 52.7699C199.644 52.5028 200.114 52.3693 200.64 52.3693C201.046 52.3693 201.373 52.4375 201.62 52.5739C201.87 52.7074 202.063 52.8636 202.199 53.0426C202.338 53.2216 202.446 53.3793 202.523 53.5156H202.6V50.2727H203.874V59H202.63V57.9815H202.523C202.446 58.1207 202.336 58.2798 202.191 58.4588C202.049 58.6378 201.853 58.794 201.603 58.9276C201.353 59.0611 201.029 59.1278 200.631 59.1278ZM200.912 58.0412C201.279 58.0412 201.588 57.9446 201.841 57.7514C202.097 57.5554 202.29 57.2841 202.421 56.9375C202.554 56.5909 202.621 56.1875 202.621 55.7273C202.621 55.2727 202.556 54.875 202.425 54.5341C202.294 54.1932 202.103 53.9276 201.85 53.7372C201.597 53.5469 201.284 53.4517 200.912 53.4517C200.529 53.4517 200.209 53.5511 199.953 53.75C199.698 53.9489 199.505 54.2202 199.374 54.5639C199.246 54.9077 199.182 55.2955 199.182 55.7273C199.182 56.1648 199.248 56.5582 199.378 56.9077C199.509 57.2571 199.702 57.5341 199.958 57.7386C200.216 57.9403 200.534 58.0412 200.912 58.0412ZM211.625 59.1321C211.012 59.1321 210.476 58.9915 210.019 58.7102C209.561 58.429 209.206 58.0355 208.953 57.5298C208.701 57.0241 208.574 56.4332 208.574 55.7571C208.574 55.0781 208.701 54.4844 208.953 53.9759C209.206 53.4673 209.561 53.0724 210.019 52.7912C210.476 52.5099 211.012 52.3693 211.625 52.3693C212.239 52.3693 212.775 52.5099 213.232 52.7912C213.689 53.0724 214.044 53.4673 214.297 53.9759C214.55 54.4844 214.676 55.0781 214.676 55.7571C214.676 56.4332 214.55 57.0241 214.297 57.5298C214.044 58.0355 213.689 58.429 213.232 58.7102C212.775 58.9915 212.239 59.1321 211.625 59.1321ZM211.63 58.0625C212.027 58.0625 212.357 57.9574 212.618 57.7472C212.88 57.5369 213.073 57.2571 213.198 56.9077C213.326 56.5582 213.39 56.1733 213.39 55.7528C213.39 55.3352 213.326 54.9517 213.198 54.6023C213.073 54.25 212.88 53.9673 212.618 53.7543C212.357 53.5412 212.027 53.4347 211.63 53.4347C211.229 53.4347 210.897 53.5412 210.632 53.7543C210.371 53.9673 210.176 54.25 210.049 54.6023C209.924 54.9517 209.861 55.3352 209.861 55.7528C209.861 56.1733 209.924 56.5582 210.049 56.9077C210.176 57.2571 210.371 57.5369 210.632 57.7472C210.897 57.9574 211.229 58.0625 211.63 58.0625ZM217.373 55.1136V59H216.099V52.4545H217.322V53.5199H217.403C217.553 53.1733 217.789 52.8949 218.11 52.6847C218.434 52.4744 218.842 52.3693 219.333 52.3693C219.779 52.3693 220.17 52.4631 220.505 52.6506C220.84 52.8352 221.1 53.1108 221.285 53.4773C221.469 53.8437 221.562 54.2969 221.562 54.8366V59H220.288V54.9901C220.288 54.5156 220.164 54.1449 219.917 53.8778C219.67 53.608 219.33 53.473 218.898 53.473C218.603 53.473 218.34 53.5369 218.11 53.6648C217.883 53.7926 217.702 53.9801 217.569 54.2273C217.438 54.4716 217.373 54.767 217.373 55.1136ZM226.549 59V50.2727H227.865V54.4403H227.972L231.632 50.2727H233.29L229.77 54.2017L233.303 59H231.718L228.897 55.1009L227.865 56.2855V59H226.549ZM235.689 50.2727V59H234.415V50.2727H235.689ZM237.403 59V52.4545H238.678V59H237.403ZM238.047 51.4446C237.825 51.4446 237.635 51.3707 237.476 51.223C237.32 51.0724 237.241 50.8935 237.241 50.6861C237.241 50.4759 237.32 50.2969 237.476 50.1491C237.635 49.9986 237.825 49.9233 238.047 49.9233C238.268 49.9233 238.457 49.9986 238.614 50.1491C238.773 50.2969 238.852 50.4759 238.852 50.6861C238.852 50.8935 238.773 51.0724 238.614 51.223C238.457 51.3707 238.268 51.4446 238.047 51.4446ZM240.392 61.4545V52.4545H241.636V53.5156H241.743C241.816 53.3793 241.923 53.2216 242.062 53.0426C242.201 52.8636 242.395 52.7074 242.642 52.5739C242.889 52.4375 243.216 52.3693 243.622 52.3693C244.15 52.3693 244.622 52.5028 245.037 52.7699C245.451 53.0369 245.777 53.4219 246.012 53.9247C246.251 54.4276 246.37 55.0327 246.37 55.7401C246.37 56.4474 246.252 57.054 246.017 57.5597C245.781 58.0625 245.457 58.4503 245.045 58.723C244.633 58.9929 244.163 59.1278 243.635 59.1278C243.237 59.1278 242.912 59.0611 242.659 58.9276C242.409 58.794 242.213 58.6378 242.071 58.4588C241.929 58.2798 241.819 58.1207 241.743 57.9815H241.666V61.4545H240.392ZM241.64 55.7273C241.64 56.1875 241.707 56.5909 241.841 56.9375C241.974 57.2841 242.167 57.5554 242.42 57.7514C242.673 57.9446 242.983 58.0412 243.349 58.0412C243.73 58.0412 244.048 57.9403 244.304 57.7386C244.559 57.5341 244.752 57.2571 244.883 56.9077C245.017 56.5582 245.083 56.1648 245.083 55.7273C245.083 55.2955 245.018 54.9077 244.887 54.5639C244.76 54.2202 244.566 53.9489 244.308 53.75C244.052 53.5511 243.733 53.4517 243.349 53.4517C242.98 53.4517 242.667 53.5469 242.412 53.7372C242.159 53.9276 241.967 54.1932 241.836 54.5341C241.706 54.875 241.64 55.2727 241.64 55.7273Z" fill="#333A3D" fill-opacity="0.7"/>
<path d="M275 64.0018V29.7797C275 29.1078 275.269 28.4633 275.749 27.9882C276.228 27.513 276.878 27.2461 277.556 27.2461H315.453L312.896 37.5168V64.0018C312.896 66.211 311.106 68.0018 308.896 68.0018H279C276.791 68.0018 275 66.211 275 64.0018Z" fill="#CEDADF"/>
<path d="M304.17 50.1953H282.891C282.282 50.1953 281.789 50.6843 281.789 51.2875C281.789 51.8907 282.282 52.3797 282.891 52.3797H304.17C304.778 52.3797 305.272 51.8907 305.272 51.2875C305.272 50.6843 304.778 50.1953 304.17 50.1953Z" fill="white"/>
<path d="M304.169 42.9688H282.89C282.281 42.9688 281.788 43.4577 281.788 44.061C281.788 44.6642 282.281 45.1532 282.89 45.1532H304.169C304.777 45.1532 305.271 44.6642 305.271 44.061C305.271 43.4577 304.777 42.9688 304.169 42.9688Z" fill="white"/>
<path d="M294.174 35.957H282.891C282.282 35.957 281.789 36.446 281.789 37.0492C281.789 37.6524 282.282 38.1414 282.891 38.1414H294.174C294.782 38.1414 295.276 37.6524 295.276 37.0492C295.276 36.446 294.782 35.957 294.174 35.957Z" fill="white"/>
<path d="M313.812 37.0547V56.6524H320.444C321.122 56.6524 321.772 56.3855 322.252 55.9103C322.731 55.4352 323 54.7908 323 54.1188V37.0547H313.812Z" fill="#CEDADF"/>
<path d="M318.01 54.1128V29.7797C318.01 29.1078 317.741 28.4633 317.262 27.9882C316.782 27.513 316.132 27.2461 315.454 27.2461C314.776 27.2461 314.126 27.513 313.646 27.9882C313.167 28.4633 312.898 29.1078 312.898 29.7797V56.6464H320.567C320.567 56.6464 318.01 56.2997 318.01 54.1128Z" fill="#A1ACB1"/>
<path d="M311 39.1981C316.302 39.1981 320.6 34.9005 320.6 29.5991C320.6 24.2977 316.302 20 311 20C305.698 20 301.4 24.2977 301.4 29.5991C301.4 34.9005 305.698 39.1981 311 39.1981Z" fill="#FF5883"/>
<path d="M311.007 31.6494C311.222 31.6494 311.377 31.5539 311.47 31.363C311.564 31.1721 311.624 30.8979 311.653 30.5404L311.915 27.5365C311.943 27.2603 311.958 26.9881 311.958 26.72C311.958 26.2651 311.899 25.9167 311.781 25.675C311.663 25.4333 311.429 25.3125 311.08 25.3125C310.792 25.3125 310.559 25.4069 310.383 25.5958C310.206 25.7847 310.117 26.0477 310.117 26.3849C310.117 26.6327 310.136 27.0409 310.172 27.6096L310.367 30.5282C310.404 30.906 310.465 31.1873 310.55 31.3721C310.635 31.557 310.788 31.6494 311.007 31.6494ZM311.044 34.5375C311.287 34.5375 311.501 34.4563 311.683 34.2938C311.866 34.1313 311.958 33.9079 311.958 33.6236C311.958 33.3717 311.867 33.1574 311.686 32.9807C311.506 32.804 311.287 32.7157 311.031 32.7157C310.776 32.7157 310.559 32.804 310.383 32.9807C310.206 33.1574 310.117 33.3717 310.117 33.6236C310.117 33.912 310.21 34.1364 310.395 34.2969C310.58 34.4573 310.796 34.5375 311.044 34.5375Z" fill="white"/>
</g>
</svg>
