<svg width="14" height="14" viewBox="0 0 14 14" fill="none" xmlns="http://www.w3.org/2000/svg">
<path d="M13.5 1H12H9.7L8.9 0.1C8.8 0.1 8.6 0 8.5 0H5.5C5.4 0 5.2 0.1 5.1 0.1L4.3 1H2H0.5C0.2 1 0 1.2 0 1.5C0 1.8 0.2 2 0.5 2H1.5V12.5C1.5 13.3 2.2 14 3 14H11C11.8 14 12.5 13.3 12.5 12.5V2H13.5C13.8 2 14 1.8 14 1.5C14 1.2 13.8 1 13.5 1ZM11.5 12.5C11.5 12.8 11.3 13 11 13H3C2.7 13 2.5 12.8 2.5 12.5V2H4.5H9.5H11.5V12.5Z" fill="#171B1D" fill-opacity="0.5"/>
<path d="M4.5 3.5C4.2 3.5 4 3.7 4 4V11C4 11.3 4.2 11.5 4.5 11.5C4.8 11.5 5 11.3 5 11V4C5 3.7 4.8 3.5 4.5 3.5Z" fill="#171B1D" fill-opacity="0.5"/>
<path d="M7 3.5C6.7 3.5 6.5 3.7 6.5 4V11C6.5 11.3 6.7 11.5 7 11.5C7.3 11.5 7.5 11.3 7.5 11V4C7.5 3.7 7.3 3.5 7 3.5Z" fill="#171B1D" fill-opacity="0.5"/>
<path d="M9 4V11C9 11.3 9.2 11.5 9.5 11.5C9.8 11.5 10 11.3 10 11V4C10 3.7 9.8 3.5 9.5 3.5C9.2 3.5 9 3.7 9 4Z" fill="#171B1D" fill-opacity="0.5"/>
</svg>
