<svg width="24" height="24" viewBox="0 0 24 24" fill="none" xmlns="http://www.w3.org/2000/svg">
<circle cx="12" cy="12" r="12" fill="#333A3D" fill-opacity="0.4"/>
<g clip-path="url(#clip0)">
<path fill-rule="evenodd" clip-rule="evenodd" d="M7.5 8C6.67157 8 6 8.67157 6 9.5V14.5C6 15.3284 6.67157 16 7.5 16H13C13.8284 16 14.5 15.3284 14.5 14.5V12.9167L17.2863 14.9069C17.4387 15.0158 17.6392 15.0303 17.8057 14.9446C17.9722 14.8589 18.0769 14.6873 18.0769 14.5001V9.50006C18.0769 9.31276 17.9722 9.14117 17.8057 9.05547C17.6392 8.96977 17.4387 8.98433 17.2863 9.09319L14.5 11.0834V9.5C14.5 8.67157 13.8284 8 13 8H7.5Z" fill="white"/>
</g>
<defs>
<clipPath id="clip0">
<rect width="12" height="12" fill="white" transform="translate(6 6)"/>
</clipPath>
</defs>
</svg>
