<svg xmlns="http://www.w3.org/2000/svg" width="200" height="200" viewBox="0 0 200 200">
    <defs>
        <linearGradient id="prefix__a" x1="32.134%" x2="64.507%" y1="13.072%" y2="79.981%">
            <stop offset="0%" stop-color="#F0FAFF"/>
            <stop offset="100%" stop-color="#EDFAFF" stop-opacity=".2"/>
        </linearGradient>
        <linearGradient id="prefix__b" x1="40.036%" x2="45.726%" y1="51.561%" y2="50.786%">
            <stop offset="0%" stop-color="#133E92" stop-opacity=".4"/>
            <stop offset="100%" stop-color="#133E92" stop-opacity="0"/>
        </linearGradient>
        <linearGradient id="prefix__c" x1="70.489%" x2="39.73%" y1="43.887%" y2="50.672%">
            <stop offset="0%" stop-color="#F7B0A9"/>
            <stop offset="100%" stop-color="#F7B0A9" stop-opacity="0"/>
        </linearGradient>
        <linearGradient id="prefix__d" x1="49.929%" x2="54.882%" y1="40.543%" y2="47.515%">
            <stop offset="0%" stop-color="#E2BD00"/>
            <stop offset="100%" stop-color="#E2BD00" stop-opacity="0"/>
        </linearGradient>
        <linearGradient id="prefix__e" x1="58.063%" x2="51.076%" y1="40.106%" y2="45.484%">
            <stop offset="0%" stop-color="#E2BD00"/>
            <stop offset="100%" stop-color="#E2BD00" stop-opacity="0"/>
        </linearGradient>
        <linearGradient id="prefix__f" x1="-5.964%" x2="-21.059%" y1="-283.802%" y2="-265.08%">
            <stop offset="0%" stop-color="#E2BD00"/>
            <stop offset="100%" stop-color="#E2BD00" stop-opacity="0"/>
        </linearGradient>
        <linearGradient id="prefix__g" x1="41.617%" x2="51.705%" y1="27.73%" y2="49.419%">
            <stop offset="0%" stop-color="#E2BD00"/>
            <stop offset="100%" stop-color="#E2BD00" stop-opacity="0"/>
        </linearGradient>
    </defs>
    <g fill="none" fill-rule="evenodd">
        <path d="M0 0H200V200H0z"/>
        <circle cx="100" cy="96.943" r="95.571" fill="url(#prefix__a)" fill-rule="nonzero"/>
        <path fill="#6DB3FA" fill-rule="nonzero" d="M119.2 99.729s10.8 38.464 14.871 44.914c4.072 6.45 14.915 16.2 14.915 16.2l-7.915 10.714s-18.6-9.414-30.357-25.628c-11.757-16.215 8.486-46.2 8.486-46.2z"/>
        <path fill="url(#prefix__b)" fill-rule="nonzero" d="M119.2 99.729s10.8 38.464 14.871 44.914c4.072 6.45 14.915 16.2 14.915 16.2l-7.915 10.714s-18.6-9.414-30.357-25.628c-11.757-16.215 8.486-46.2 8.486-46.2z"/>
        <path fill="#6DB3FA" fill-rule="nonzero" d="M92.814 90.093C82 88.714 62.33 85.964 49.73 93.029c-12.286 6.892-6.615 26.1-9.015 46.971-.935 8.064-1.428 19.65-1.657 30.586 17.126 14.21 38.69 21.972 60.943 21.936 4.666 0 9.326-.34 13.943-1.015-.057-10.657-1.036-24.507.714-30.25 3.272-10.593 3.272-35.207 3.272-35.207s2.957-22.893 1.242-26.321c-1.314-2.658-4.485-6.872-26.357-9.636z"/>
        <path fill="#FEC6BD" fill-rule="nonzero" d="M110.864 62.543c.198 4.294.012 8.596-.557 12.857-.928 6.329-2.607 12.857-10.607 12.857 0 0-.557 3.164-1.114 5.586-.557 2.421-7.265 3.907-10.615.714-2.728-2.578-1.428-5.5-.857-9.414.522-3.464 1.229-7.143 1.229-7.143s-4.464-4.093-2.414-10.05c2.05-5.957 7.071-9.679 14.328-9.286 7.257.393 10.236 2.765 10.607 3.879z"/>
        <path fill="url(#prefix__c)" fill-rule="nonzero" d="M99.729 88.229s-.558 3.164-1.115 5.592c-.557 2.429-7.271 3.915-10.628.715-2.736-2.579-1.157-5.922-.572-9.836.529-3.471.943-6.757.943-6.757s1.114 5.714 4.85 8.164c4.129 2.707 6.522 2.122 6.522 2.122z"/>
        <path fill="#37475E" fill-rule="nonzero" d="M91.886 71.293s-1.679-3.907-3.729-2.236c-2.05 1.672-.714 5 .936 6.514l-.986 4.493s-3.171-1.493-5.9-11.428C79.35 58.207 87.414 51.157 94.114 49.85c6.7-1.307 11.143-.079 15 5.879 3.193 5 2.586 6.428-3.743 7.357-6.328.928-5.078.164-8.8.35-3.721.185-2.235 4.285-2.235 6.707 0 2.421-2.45 1.15-2.45 1.15z"/>
        <rect width="79.25" height="58.493" x="21.795" y="132.01" fill="#FFE200" fill-rule="nonzero" rx="2.9" transform="rotate(14.04 61.42 161.256)"/>
        <path fill="#EDD000" fill-rule="nonzero" d="M87.857 198.021l-67.143-16.785c-1.298-.32-2.414-1.145-3.1-2.293l45.815-26.2 28.292 44.664c-1.15.721-2.546.943-3.864.614z"/>
        <path fill="url(#prefix__d)" fill-rule="nonzero" d="M54.243 189.614l-33.486-8.378c-1.298-.32-2.415-1.145-3.1-2.293l45.814-26.2-9.228 36.871z"/>
        <path fill="url(#prefix__e)" fill-rule="nonzero" d="M54.443 189.664l33.493 8.379c1.294.325 2.665.12 3.807-.572l-28.079-44.678-9.221 36.871z"/>
        <path fill="url(#prefix__f)" fill-rule="nonzero" d="M18.521 169.429l10.322-41.272c.315-1.3 1.139-2.421 2.287-3.11 1.148-.689 2.524-.888 3.82-.554l33.571 8.393-11.564 46.157-38.436-9.614z"/>
        <path fill="url(#prefix__g)" fill-rule="nonzero" d="M95.4 188.657l10.55-41.985c.335-1.295.688-2.429 0-3.576-.687-1.148-1.845-1.352-3.144-1.67l-34.299-8.569-11.55 46.186 38.443 9.614z"/>
        <path fill="url(#prefix__g)" fill-rule="nonzero" d="M57.116 180.685l10.55-41.985c.335-1.295.688-2.429 0-3.576-.686-1.148-1.844-1.353-3.144-1.67l-34.298-8.569-11.55 46.186 38.442 9.614z" transform="scale(-1 1) rotate(-28 0 326.721)"/>
        <path fill="#FFE200" fill-rule="nonzero" d="M59.286 169.414l-28.172-44.343c1.149-.7 2.532-.91 3.836-.578l67.816 16.926c1.295.32 2.461.51 3.145 1.656l-46.625 26.34z"/>
        <path fill="#EFA29E" fill-rule="nonzero" d="M50 182.629s4.693 1.514 5.064 2.214c.372.7-.978.671-2.607.278-1.628-.392-.578 2.55 1.9 4.95 2.479 2.4.814 3.75-1.957 2.615-2.771-1.136-5.936-3.836-6.8-7.4l.25-4.693 4.15 2.036z"/>
        <path fill="#6DB3FA" fill-rule="nonzero" d="M49.729 93.029S32.857 107.336 20.6 137.143c-4.357 10.6 4.836 34.936 25 49.728l4.736-4.964s-13.043-27.143-9-32.928c13.643-19.408 24.793-31.429 24.793-31.429l8.157-22.714-24.557-1.807z"/>
        <path fill="#669CE9" fill-rule="nonzero" d="M112.5 61.879s-.464-7.143-5.764-10.9c-5.3-3.758-15.186-2.143-20.715 1.428-8.428 5.429-3.464 17.857-3.464 17.857l11.729-4.021 18.214-4.364z"/>
        <path fill="#6DB3FA" fill-rule="nonzero" d="M94.286 66.243s4.514 5.293 7.143 5.45c2.628.157 5-2.336 9.814-3.114 4.814-.779 6.228 1.242 7.478 1.085 1.25-.157-6.235-7.785-6.235-7.785s-8.865-3.272-18.2 4.364z"/>
        <path fill="#ACD4F7" fill-rule="nonzero" d="M142.857 182.214l-29.85 10.315c-.82.24-1.705.025-2.324-.564-.619-.589-.876-1.463-.676-2.294l11.007-40.385c.691-1.916 2.207-3.42 4.129-4.093l30.393-9.479c1.821-.564 3.714.793 3.257 2.486l-11.807 39.943c-.691 1.91-2.208 3.407-4.129 4.071z"/>
        <path fill="#D5E8FF" fill-rule="nonzero" d="M143.686 183.043l-30.393 9.478c-1.822.572-2.922-.342-2.457-2.028l11.007-40.393c.69-1.916 2.207-3.419 4.128-4.093l30.393-9.478c1.822-.565 2.922.342 2.465 2.035l-11.015 40.393c-.687 1.917-2.205 3.419-4.128 4.086z"/>
        <path fill="#6DB3FA" fill-rule="nonzero" d="M147.921 136.843l-14.428 4.5c-.399.144-.713.458-.857.857l-.193.714 15.8-4.928.193-.715c.093-.357-.136-.542-.515-.428z"/>
        <path fill="#FEC6BD" fill-rule="nonzero" d="M152.221 162.857c-.85.036-4.214.543-5.342 1.386-1.129.843.235 1.364 1.65 1.257 1.414-.107 2.742-.507 2.042-.136-.7.372-5.042.336-5.271 1.886-.229 1.55 4.693-.221 5 .157.307.379-3.857.286-4.286 1.029-.428.743 0 1.064 1.05 1.078 1.05.015 2.515-.457 2.422-.035-.093.421-2.315.114-2.693.65-.379.535-.093 1.207 1.257 1.307 1.35.1 2.143.585 3.057-.986.914-1.571 2.979-7.7 1.114-7.593z"/>
        <path fill="#255299" fill-rule="nonzero" d="M141.8 30.229c-7.31-.005-13.826 4.61-16.25 11.506-2.424 6.897-.227 14.573 5.479 19.144l-1.743 7.485c-.053.23.05.467.253.585.203.118.46.09.632-.07l5.6-5.308c1.927.73 3.97 1.106 6.029 1.108 9.511 0 17.221-7.71 17.221-17.222 0-9.511-7.71-17.221-17.221-17.221v-.007z"/>
        <path fill="#FFF" fill-rule="nonzero" d="M147.021 53.7c-.338-.002-.661-.138-.9-.379l-9.892-9.892c-.241-.238-.377-.562-.377-.9 0-.339.136-.663.377-.9.498-.494 1.301-.494 1.8 0l9.892 9.9c.339.368.431.899.238 1.36-.194.46-.638.766-1.138.782v.029z"/>
        <path fill="#FFF" fill-rule="nonzero" d="M137.143 53.7c-.5-.016-.944-.322-1.137-.783-.194-.46-.101-.992.237-1.36l9.893-9.9c.498-.494 1.301-.494 1.8 0 .24.238.376.562.376.9 0 .338-.135.663-.376.9l-9.907 9.864c-.235.237-.553.373-.886.379z"/>
    </g>
</svg>
