<svg xmlns="http://www.w3.org/2000/svg" width="280" height="280" viewBox="0 0 280 280">
    <defs>
        <linearGradient id="a" x1="44.237%" x2="66.998%" y1="30.368%" y2="107.929%">
            <stop offset="0%" stop-color="#F0FAFF"/>
            <stop offset="100%" stop-color="#EDFAFF" stop-opacity=".2"/>
        </linearGradient>
        <linearGradient id="b" x1="26.638%" x2="67.101%" y1="20.411%" y2="100.27%">
            <stop offset="0%" stop-color="#82BBEF"/>
            <stop offset="51%" stop-color="#609AFC"/>
            <stop offset="100%" stop-color="#B2D9FE"/>
        </linearGradient>
        <linearGradient id="c" x1="41.85%" x2="62.891%" y1="20.655%" y2="69.624%">
            <stop offset="0%" stop-color="#C0DDFF"/>
            <stop offset="18%" stop-color="#609AFC"/>
        </linearGradient>
        <linearGradient id="d" x1="37.158%" x2="61.669%" y1="40.097%" y2="58.973%">
            <stop offset="0%" stop-color="#C0DDFF"/>
            <stop offset="90%" stop-color="#609AFC"/>
        </linearGradient>
        <linearGradient id="e" x1="-7.643%" x2="84.909%" y1="48.369%" y2="51.084%">
            <stop offset="0%" stop-color="#F5FAFF"/>
            <stop offset="100%" stop-color="#DBECFF"/>
            <stop offset="100%" stop-color="#E9F3FF"/>
        </linearGradient>
        <linearGradient id="f" x1="45.521%" x2="72.234%" y1="29.398%" y2="78.431%">
            <stop offset="0%" stop-color="#94C4FF" stop-opacity="0"/>
            <stop offset="27%" stop-color="#94C4FF" stop-opacity="0"/>
            <stop offset="47%" stop-color="#94C4FF"/>
            <stop offset="100%" stop-color="#DBECFF"/>
            <stop offset="100%" stop-color="#DDECFF"/>
        </linearGradient>
        <linearGradient id="g" x1="-7.782%" x2="93.551%" y1="39.16%" y2="58.166%">
            <stop offset="0%" stop-color="#C3DFFF"/>
            <stop offset="100%" stop-color="#D5E8FF"/>
        </linearGradient>
        <linearGradient id="h" x1="66.499%" x2="37.239%" y1="13.569%" y2="85.221%">
            <stop offset="0%" stop-color="#133472"/>
            <stop offset="100%" stop-color="#133E92"/>
        </linearGradient>
        <linearGradient id="i" x1="-.059%" x2="99.975%" y1="50.083%" y2="50.083%">
            <stop offset="0%" stop-color="#2F83E8"/>
            <stop offset="100%" stop-color="#1969E8"/>
        </linearGradient>
        <linearGradient id="j" x1="16.188%" x2="81.934%" y1="38.341%" y2="61.923%">
            <stop offset="0%" stop-color="#DFEAF7"/>
            <stop offset="100%" stop-color="#B4C8DC"/>
        </linearGradient>
        <linearGradient id="k" x1="48.013%" x2="58.756%" y1="17.877%" y2="103.136%">
            <stop offset="0%" stop-color="#0D4494"/>
            <stop offset="100%" stop-color="#133E92"/>
        </linearGradient>
        <linearGradient id="l" x1="43.179%" x2="61.078%" y1="-.911%" y2="100.268%">
            <stop offset="0%" stop-color="#133E92"/>
            <stop offset="100%" stop-color="#1372B6"/>
        </linearGradient>
        <linearGradient id="m" x1="42.834%" x2="50.069%" y1="21.683%" y2="52.044%">
            <stop offset="0%" stop-color="#6DB3FA"/>
            <stop offset="100%" stop-color="#2F83E8"/>
        </linearGradient>
        <linearGradient id="n" x1="49.658%" x2="49.658%" y1="19.683%" y2="104.025%">
            <stop offset="0%" stop-color="#6DB3FA"/>
            <stop offset="100%" stop-color="#2F83E8"/>
        </linearGradient>
        <linearGradient id="o" x1="62.187%" x2="50.066%" y1="15.325%" y2="71.259%">
            <stop offset="0%" stop-color="#6DABF6"/>
            <stop offset="100%" stop-color="#2F83E8"/>
        </linearGradient>
        <linearGradient id="p" x1="0%" y1="49.984%" y2="49.984%">
            <stop offset="0%" stop-color="#133472"/>
            <stop offset="100%" stop-color="#133E92"/>
        </linearGradient>
        <linearGradient id="q" x1="36.434%" x2="59.014%" y1="7.312%" y2="78.502%">
            <stop offset="0%" stop-color="#133E92"/>
            <stop offset="100%" stop-color="#1372B6"/>
        </linearGradient>
        <linearGradient id="r" x1="32.419%" x2="65.993%" y1="7.789%" y2="62.778%">
            <stop offset="0%" stop-color="#6DB3FA"/>
            <stop offset="100%" stop-color="#2F83E8"/>
        </linearGradient>
        <linearGradient id="s" x1="50.327%" x2="50.327%" y1="5.815%" y2="103.776%">
            <stop offset="0%" stop-color="#6DB3FA"/>
            <stop offset="100%" stop-color="#2F83E8"/>
        </linearGradient>
        <linearGradient id="t" x1="48.894%" x2="53.143%" y1="-.656%" y2="88.422%">
            <stop offset="0%" stop-color="#5EABF6"/>
            <stop offset="100%" stop-color="#2F83E8"/>
        </linearGradient>
        <linearGradient id="u" x1="100.144%" x2="-.17%" y1="50%" y2="50%">
            <stop offset="0%" stop-color="#133472"/>
            <stop offset="100%" stop-color="#133E92"/>
        </linearGradient>
        <linearGradient id="v" x1="15.188%" x2="-3.564%" y1="14.754%" y2="75.223%">
            <stop offset="0%" stop-color="#133E92"/>
            <stop offset="100%" stop-color="#1372B6"/>
        </linearGradient>
        <linearGradient id="w" x1="50.056%" x2="50.056%" y1="5.813%" y2="103.754%">
            <stop offset="0%" stop-color="#6DB3FA"/>
            <stop offset="100%" stop-color="#2F83E8"/>
        </linearGradient>
        <linearGradient id="x" x1="140.353%" x2="166.88%" y1="77.527%" y2="126.457%">
            <stop offset="10%" stop-color="#61ADF7"/>
            <stop offset="100%" stop-color="#2F83E8"/>
        </linearGradient>
        <linearGradient id="y" x1="49.611%" x2="49.231%" y1="83.887%" y2="-31.497%">
            <stop offset="0%" stop-color="#FFC313"/>
            <stop offset="100%" stop-color="#FFD200"/>
        </linearGradient>
        <linearGradient id="z" x1="41.927%" x2="58.073%" y1="5.989%" y2="94.011%">
            <stop offset="0%" stop-color="#FFE200"/>
            <stop offset="100%" stop-color="#FFD200"/>
        </linearGradient>
        <linearGradient id="A" x1="79.492%" x2="26.039%" y1="74.123%" y2="22.235%">
            <stop offset="0%" stop-color="#6DB3FA"/>
            <stop offset="100%" stop-color="#2F83E8"/>
        </linearGradient>
        <linearGradient id="B" x1="58.359%" x2="28.828%" y1="28.804%" y2="85.317%">
            <stop offset="0%" stop-color="#FFE200"/>
            <stop offset="100%" stop-color="#FFD200"/>
        </linearGradient>
    </defs>
    <g fill="none" fill-rule="evenodd">
        <path d="M0 0h280v280H0z"/>
        <circle cx="167.9" cy="130.14" r="110.1" fill="url(#a)" fill-rule="nonzero"/>
        <path stroke="#CCE1FF" stroke-width=".5" d="M175.06 140.27s-7-38.44 17.13-64C209.68 57.8 225.57 34 229.94 16.71"/>
        <path fill="#CCE1FF" fill-rule="nonzero" d="M233.27 12.91c-.65 2.32-3.61 4.55-3.61 4.55s-1.38-3.44-.74-5.76c.64-2.32 1.88-2.99 3.08-2.7 1.2.29 1.91 1.58 1.27 3.91zM226.75 21.06c.84 2.34-.31 6-.31 6s-3.22-2.06-4.07-4.4c-.85-2.34-.2-3.64 1-4.08 1.2-.44 2.53.14 3.38 2.48zM222.19 29.94c.9 2.51-.34 6.42-.34 6.42s-3.44-2.21-4.35-4.72c-.91-2.51-.22-3.9 1.07-4.36 1.29-.46 2.71.16 3.62 2.66zM217.11 37.19c1.17 2.26.49 6.11.49 6.11s-3.55-1.66-4.72-3.92-.7-3.66.47-4.26c1.17-.6 2.58-.19 3.76 2.07zM213.33 45.22c.62 2.47-.93 6.06-.93 6.06s-3.06-2.42-3.69-4.89c-.63-2.47.16-3.73 1.44-4s2.56.36 3.18 2.83zM208.6 53.38c.18 2.54-2 5.81-2 5.81s-2.6-2.92-2.79-5.46c-.19-2.54.81-3.65 2.12-3.74 1.31-.09 2.48.85 2.67 3.39zM202.57 61c.18 2.54-2 5.81-2 5.81s-2.6-2.92-2.79-5.46c-.19-2.54.81-3.64 2.12-3.74 1.31-.1 2.48.83 2.67 3.39zM196.19 68.14c.18 2.55-2 5.82-2 5.82s-2.61-2.93-2.79-5.47c-.18-2.54.8-3.64 2.11-3.73 1.31-.09 2.49.84 2.68 3.38zM190.24 75c.19 2.54-2 5.81-2 5.81s-2.6-2.92-2.79-5.46c-.19-2.54.81-3.64 2.12-3.74 1.31-.1 2.49.81 2.67 3.39zM182.82 84.33c.78 2.42-.54 6.11-.54 6.11s-3.22-2.23-4-4.65c-.78-2.42-.08-3.73 1.17-4.13 1.25-.4 2.55.24 3.37 2.67zM178.8 93.94c.78 2.42-.54 6.11-.54 6.11s-3.22-2.23-4-4.65c-.78-2.42-.08-3.73 1.17-4.13 1.25-.4 2.57.24 3.37 2.67zM233.93 23.88c-2.43.87-6.22-.33-6.22-.33s2.14-3.34 4.57-4.22c2.43-.88 3.78-.21 4.23 1 .45 1.21-.15 2.67-2.58 3.55zM229 34.19c-2.31.57-5.64-.89-5.64-.89s2.27-2.84 4.57-3.41c2.3-.57 3.47.17 3.76 1.35.29 1.18-.4 2.39-2.69 2.95zM224.69 43.74c-2.56-.21-5.48-2.86-5.48-2.86s3.31-2.14 5.87-1.93c2.56.21 3.51 1.36 3.4 2.69-.11 1.33-1.23 2.36-3.79 2.1zM220.32 50.64c-2.56-.21-5.48-2.86-5.48-2.86s3.32-2.14 5.88-1.93c2.56.21 3.5 1.37 3.39 2.69-.11 1.32-1.23 2.31-3.79 2.1zM215.26 57.73c-2.57 0-5.68-2.44-5.68-2.44s3.15-2.38 5.72-2.36c2.57.02 3.59 1.1 3.58 2.43-.01 1.33-1.05 2.39-3.62 2.37zM209.84 65.08c-2.56 0-5.68-2.45-5.68-2.45s3.15-2.38 5.72-2.36c2.57.02 3.59 1.1 3.58 2.43-.01 1.33-1.05 2.39-3.62 2.38zM203.82 72.33c-2.57 0-5.69-2.45-5.69-2.45s3.15-2.37 5.72-2.35c2.57.02 3.59 1.1 3.58 2.42-.01 1.32-1.05 2.4-3.61 2.38zM197.61 79.53c-2.41-.89-4.52-4.23-4.52-4.23s3.77-1.17 6.18-.28c2.41.89 3 2.25 2.55 3.5-.45 1.25-1.82 1.89-4.21 1.01zM191.9 85.89c-2.57.14-5.82-2.1-5.82-2.1s3-2.56 5.57-2.69c2.57-.13 3.65.89 3.72 2.21.07 1.32-.91 2.45-3.47 2.58zM186.83 95.07C184.26 95.2 181 93 181 93s3-2.56 5.57-2.7c2.57-.14 3.65.89 3.72 2.22.07 1.33-.9 2.42-3.46 2.55zM183.13 104.12c-2.4.92-6.19-.21-6.19-.21s2.07-3.36 4.47-4.28c2.4-.92 3.75-.28 4.22 1 .47 1.28-.11 2.57-2.5 3.49z"/>
        <path stroke="#CCE1FF" stroke-width=".5" d="M181.59 116.09c21.9-13 43.71-31.49 52.67-46.93"/>
        <path fill="#CCE1FF" fill-rule="nonzero" d="M238.51 66.42c-1.26 2.06-4.72 3.39-4.72 3.39s-.39-3.69.87-5.75 2.63-2.35 3.69-1.7c1.06.65 1.42 2 .16 4.06zM230 72.47c.17 2.48-1.94 5.67-1.94 5.67s-2.53-2.87-2.7-5.35c-.17-2.48.8-3.55 2.09-3.64 1.29-.09 2.37.85 2.55 3.32zM223.17 79.76c.18 2.66-2.08 6.07-2.08 6.07s-2.71-3.07-2.89-5.73c-.18-2.66.86-3.81 2.23-3.9 1.37-.09 2.57.9 2.74 3.56zM216.29 85.33c.51 2.49-1.21 6-1.21 6s-3-2.57-3.45-5.07c-.45-2.5.33-3.71 1.62-4 1.29-.29 2.54.57 3.04 3.07zM210.46 92c-.08 2.55-2.56 5.58-2.56 5.58s-2.28-3.18-2.2-5.73c.08-2.55 1.17-3.54 2.49-3.49 1.32.05 2.35 1.1 2.27 3.64zM203.66 98.55c-.52 2.5-3.48 5-3.48 5s-1.7-3.52-1.18-6 1.77-3.28 3.06-3c1.29.28 2.12 1.51 1.6 4zM195.78 104.2c-.52 2.5-3.49 5-3.49 5s-1.7-3.52-1.18-6 1.77-3.28 3.06-3c1.29.28 2.12 1.51 1.61 4zM187.67 109.34c-.52 2.5-3.48 5-3.48 5s-1.7-3.52-1.18-6 1.77-3.28 3.06-3c1.29.28 2.12 1.51 1.6 4zM236.12 77.15c-2.57.17-5.88-2-5.88-2s3-2.63 5.55-2.8c2.55-.17 3.69.83 3.79 2.16.1 1.33-.88 2.49-3.46 2.64zM228.54 85.71c-2.37-.09-5.18-2.41-5.18-2.41s3-2.11 5.34-2c2.34.11 3.29 1.11 3.24 2.33-.05 1.22-1.03 2.17-3.4 2.08zM221.79 93.7c-2.4-.9-4.49-4.25-4.49-4.25s3.78-1.14 6.18-.24c2.4.9 3 2.27 2.53 3.52-.47 1.25-1.82 1.88-4.22.97zM215.69 99.14c-2.4-.9-4.49-4.25-4.49-4.25s3.78-1.15 6.18-.24c2.4.91 3 2.27 2.53 3.51-.47 1.24-1.81 1.89-4.22.98zM208.88 104.57c-2.47-.72-4.8-3.91-4.8-3.91s3.69-1.42 6.15-.69c2.46.73 3.15 2 2.78 3.32-.37 1.32-1.67 2.01-4.13 1.28zM201.65 110.14c-2.46-.72-4.79-3.91-4.79-3.91s3.68-1.42 6.14-.69c2.46.73 3.16 2 2.78 3.31-.38 1.31-1.67 2.02-4.13 1.29z"/>
        <path stroke="#CCE1FF" stroke-width=".5" d="M158.13 113.33c-.61-25.46 3.51-53.77 11.84-69.55"/>
        <path fill="#CCE1FF" fill-rule="nonzero" d="M170.05 38.73c-1.08 2.16-.37 5.79-.37 5.79s3.33-1.62 4.4-3.78c1.07-2.16.61-3.48-.51-4s-2.45-.17-3.52 1.99zM169.43 49.15c-2.19 1.17-3.77 4.65-3.77 4.65s3.77.63 6-.55c2.23-1.18 2.59-2.56 2-3.69-.59-1.13-2.03-1.56-4.23-.41zM166.87 58.8c-2.35 1.26-4 5-4 5s4 .66 6.39-.59c2.39-1.25 2.78-2.75 2.13-4-.65-1.25-2.16-1.67-4.52-.41zM165.8 67.58c-2.38.9-4.46 4.22-4.46 4.22s3.75 1.14 6.13.24c2.38-.9 3-2.25 2.51-3.48-.49-1.23-1.79-1.87-4.18-.98zM163.23 76.08c-2.12 1.42-3.37 5.12-3.37 5.12s3.9.25 6-1.17 2.37-2.87 1.64-4c-.73-1.13-2.16-1.37-4.27.05zM161.29 85.31c-1.84 1.76-2.44 5.63-2.44 5.63s3.89-.43 5.73-2.19c1.84-1.76 1.85-3.25.93-4.19-.92-.94-2.38-1.02-4.22.75zM160.68 95c-1.84 1.76-2.44 5.63-2.44 5.63s3.89-.43 5.73-2.19c1.84-1.76 1.85-3.24.94-4.19-.91-.95-2.39-1.02-4.23.75zM162.22 46.43c1.21 2.28 4.83 3.92 4.83 3.92s.65-3.91-.57-6.19c-1.22-2.28-2.66-2.69-3.84-2.06-1.18.63-1.64 2.06-.42 4.33zM159 57.41c1.33 2 4.79 3.11 4.79 3.11s.21-3.64-1.12-5.6c-1.33-1.96-2.69-2.2-3.7-1.51-1.01.69-1.32 2.03.03 4zM155.78 67.37c2 1.56 6 1.55 6 1.55s-1-3.81-3.08-5.37-3.51-1.33-4.32-.27c-.81 1.06-.64 2.53 1.4 4.09zM154.41 75.42c2 1.56 6 1.55 6 1.55s-1-3.81-3.07-5.37-3.52-1.33-4.32-.27c-.8 1.06-.66 2.53 1.39 4.09zM153.42 84.08c1.92 1.71 5.85 2 5.85 2s-.74-3.87-2.66-5.58c-1.92-1.71-3.41-1.59-4.29-.59-.88 1-.82 2.47 1.1 4.17zM152.53 93.16c1.92 1.71 5.86 2 5.86 2s-.75-3.88-2.67-5.58c-1.92-1.7-3.41-1.58-4.29-.58-.88 1-.82 2.46 1.1 4.16zM152.15 102.59c1.92 1.7 5.86 2 5.86 2s-.75-3.87-2.67-5.58-3.41-1.58-4.29-.59c-.88.99-.82 2.46 1.1 4.17z"/>
        <path fill="url(#b)" fill-rule="nonzero" d="M111.88 198.6c-9.2-2-12.57-7-12.57-18.41v-24.5l-84.83-19.31v88.78l99 21.67 25.41-42.4-27.01-5.83z"/>
        <path fill="url(#c)" fill-rule="nonzero" d="M200.31 221.15l5.46-48a18.89 18.89 0 0 0-11.72 1l-83.19 31.71 8.66 56.26 80.79-40.97z"/>
        <path fill="url(#d)" fill-rule="nonzero" d="M155.2 256.74l-15.91-4.99 27.59-13.93 15.9 4.98z"/>
        <path fill="url(#e)" fill-rule="nonzero" d="M238.58 121.24L113 93.45a18.89 18.89 0 0 0-11.72 1l-83.19 31.73 139.7 36 17.71 23.3-4.66 67.11-7 17 84-32c9.63-2.62 16.49-13 16.49-27v-50.84c.01-18.09-11.54-35.37-25.75-38.51z"/>
        <path fill="url(#f)" fill-rule="nonzero" d="M238.58 121.24L113 93.45a18.89 18.89 0 0 0-11.72 1l-83.19 31.73 139.7 36 17.71 23.3-4.66 67.11-7 17 84-32c9.63-2.62 16.49-13 16.49-27v-50.84c.01-18.09-11.54-35.37-25.75-38.51z"/>
        <path fill="url(#g)" fill-rule="nonzero" d="M153.34 154L27.76 126.22C13.56 123.08 2 135.24 2 153.33v50.92c0 18.09 11.56 35.37 25.76 38.51l84.86 18.77 4.55 1c2.28.51 4.14-1.45 4.14-4.36v-45.45c0-2.73-1.74-5.33-3.88-5.8l-5.08-1.12c-2.14-.48-3.88 1.36-3.88 4.08v34.4l-77.83-17.22c-8.71-1.93-15.79-12.52-15.79-23.6V159.6c0-11.09 7.08-18.54 15.79-16.62l120.16 26.59c8.7 1.92 15.78 12.51 15.78 23.6V237c0 11.09-7.08 18.54-15.78 16.62l-9.49-2.1c-2.17-.48-3.94 1.38-3.94 4.14V262c0 2.76 1.77 5.4 3.94 5.88l12 2.66c14.21 3.14 25.76-9 25.76-27.11v-50.92c.03-18.09-11.52-35.37-25.73-38.51z"/>
        <path fill="#528CE2" fill-rule="nonzero" d="M60.62 155.9l-35.3 13.98v-2.1l35.3-13.98zM46.64 167.78l-21.32 8.56v-2.09l21.32-8.57zM53.75 171.45l-28.43 11.42v-2.1l28.43-11.42zM42.91 182.75l-17.59 6.99v-2.09l17.59-6.99z"/>
        <path fill="#FEC6BD" fill-rule="nonzero" d="M56.22 187.4s2-1 2.34-1.32c.34-.32 0-.28-.33-.2-.33.08-.65.26-.69 0-.04-.26 1.44-1.82 1.19-2-.25-.18-1 .91-1.12.87-.12-.04 1-1.47.78-1.62-.22-.15-1.13 1.39-1.26 1.32-.13-.07.84-1.31.63-1.42-.38-.19-1.08 1.45-1.21 1.4-.13-.05.52-1.29.31-1.32-.21-.03-1.08 1.5-1.22 2.33a4.29 4.29 0 0 1-.45 1.34l1.03.62z"/>
        <path fill="#181F3D" fill-rule="nonzero" d="M70.51 196.37c.2-3.32-.36-8.41-5.37-8.39-4.41 0-4.38 5.58-4.38 5.58A6.06 6.06 0 0 1 59.7 197s10.64 2.21 10.81-.63zM49.9 251.08s-5.09 1.5-5.09 3 7.26-1.37 7.26-1.37v-1.6l-2.17-.03z"/>
        <path fill="#FEC6BD" fill-rule="nonzero" d="M48 230.58c-.65 6.39 1.92 20.5 1.92 20.5h2.15s-.53-10.32-.4-18.4c5.2-4.18-3.04-8.49-3.67-2.1z"/>
        <path fill="#FEC6BD" fill-rule="nonzero" d="M53.57 231.51c-.65 6.39 3.2 20.39 3.2 20.39h2.15s-.53-10.32-.4-18.41c5.22-4.17-4.3-8.37-4.95-1.98z"/>
        <path fill="url(#h)" fill-rule="nonzero" d="M47.4 228.89a55 55 0 0 0-.41 5.94s13.41 4.7 13.83-.5c13.43-5.22 14.35-8.74 13.3-12.91a26.17 26.17 0 0 0-2.34-6.42H60.17s-12.32 10.24-12.77 13.89z"/>
        <path fill="#D1DEEE" fill-rule="nonzero" d="M53.96 221.41l13.97.66-4.18 5.22-14.48-.68z"/>
        <path fill="url(#i)" fill-rule="nonzero" d="M72.33 201a1 1 0 0 0-.18-.25 7.47 7.47 0 0 0-.8-.69 6 6 0 0 0-3.79-1.64 10.52 10.52 0 0 0-3.79-.08l-12.13-.51 4.63-10.52-1-.69s-8.3 7.8-8.18 12.81c.11 4.09 8.33 5.53 11.34 5.92a35.19 35.19 0 0 0 1.74 9.65h11.61s.21-1.36.43-3.23l1.79 3.86-6.84 5.45 1.22 1.66s8.42-3.28 10.25-5.11c1.37-1.38-1.71-11.69-6.3-16.63z"/>
        <path fill="url(#j)" fill-rule="nonzero" d="M46.46 216.47l12.19.38a1.89 1.89 0 0 1 1.77 1.24l3.33 9.2-14.48-.68-3.57-9.05a.81.81 0 0 1 .76-1.09z"/>
        <path fill="#FEC6BD" fill-rule="nonzero" d="M66.6 195.41l.25 2.92a2.41 2.41 0 0 1-1.59.57 1.71 1.71 0 0 1-1.37-.5l.51-2.82 2.2-.17z"/>
        <path fill="#FEC6BD" fill-rule="nonzero" d="M65 189.91a2.8 2.8 0 0 0-2.76 2.82c0 1.88.69 4.47 2.76 4.38 2.36-.11 2.84-1.88 2.91-4.28a2.81 2.81 0 0 0-2.84-2.92H65z"/>
        <path fill="#181F3D" fill-rule="nonzero" d="M56.77 251.81s-5.08 1.5-5.08 3 7.25-1.37 7.25-1.37v-1.6l-2.17-.03z"/>
        <path fill="#FEC6BD" fill-rule="nonzero" d="M67 193.74a.91.91 0 1 0 1.82 0 .91.91 0 0 0-1.82 0zM67.15 221.08a4.7 4.7 0 0 0-3.2.84c-.74.63-.16.9.19.67a2.16 2.16 0 0 1 1.13-.15 5.62 5.62 0 0 1-1.52 1.28c-1 .65-.54 1.75 1.29 1.17a9.25 9.25 0 0 0 3.33-2.15l-1.22-1.66z"/>
        <path fill="#181F3D" fill-rule="nonzero" d="M67.91 192.83a12 12 0 0 1-3.92-3c3.08-1.2 4.39.95 3.92 3z"/>
        <path fill="#FFF" fill-rule="nonzero" d="M46.46 216.47l12.19.38a1.89 1.89 0 0 1 1.77 1.24l3.33 9.2-3.48-9.13a1.92 1.92 0 0 0-1.61-1.16l-12.2-.53z"/>
        <path fill="#181F3D" fill-rule="nonzero" d="M212.24 161.33s5.09 1.49 5.09 3-7.26-1.37-7.26-1.37l.05-1.6 2.12-.03zM206.12 162.58s5.09 1.5 5.09 3-7.25-1.37-7.25-1.37v-1.6l2.16-.03z"/>
        <path fill="url(#k)" fill-rule="nonzero" d="M201.22 124a51.57 51.57 0 0 0 3.26 5.09s9.79 4.83 10.44 11.22c.65 6.39-2.68 21-2.68 21h-2.15s-1-10.05-1.17-18.13c-5.22-4.18-11.74-10.44-11.74-10.44v-7.62l4.04-1.12z"/>
        <path fill="url(#l)" fill-rule="nonzero" d="M203.38 135.1a16 16 0 0 1 4.46 8.83c1 8.35-1.69 18.65-1.69 18.65H204s-2.16-11.61-2.68-18c-13.43-5.22-14.35-8.74-13.3-12.91a26.39 26.39 0 0 1 2.34-6.4h7.8s2.58 7.01 5.22 9.83z"/>
        <path fill="#E5ADA8" fill-rule="nonzero" d="M201.74 126.08s-1 .84-1 1.33c0 .49 1 1.73 1.4 1.25a6.77 6.77 0 0 0 .65-1.94l-1.05-.64z"/>
        <path fill="url(#m)" fill-rule="nonzero" d="M202 109.81s3.13 2.27 4.21 9.76c.22 1.5-3.43 7.62-3.43 7.62l-1.27-1.09 1.25-4.85-.53-1.16-1.56-5.76s-2.92-5.91-2.46-5.78c3.65 1.03 3.79 1.26 3.79 1.26z"/>
        <path fill="url(#n)" fill-rule="nonzero" d="M190.36 125.27s.18-11.5 0-13.37a7 7 0 0 1 3.3-3 8.84 8.84 0 0 1 4.6-.38s4.19 4 4.2 5.83a76.5 76.5 0 0 1-.69 10.91l-11.41.01z"/>
        <path fill="#30343A" fill-rule="nonzero" d="M199.59 104a1.85 1.85 0 0 0 .84-1.2 3.74 3.74 0 0 0-.12-2.36 2.7 2.7 0 0 0-1.75-1.31s-.3-1-2.08-1-2.23.94-3.16 1.61a6.39 6.39 0 0 1-.71.45 1.83 1.83 0 0 0-.87 2.34 8 8 0 0 0 2.53 3.49c.59.37 1.34.37 1.93 0l3.39-2.02z"/>
        <path fill="#F4B2AB" fill-rule="nonzero" d="M200.52 103.67c-.2.39-.37.8-.81.8a.81.81 0 0 1-.81-.8c0-.45.39-.46.79-.66s1.03.24.83.66z"/>
        <path fill="#FEC6BD" fill-rule="nonzero" d="M195.54 105.66l-.25 2.92a2.44 2.44 0 0 0 1.59.56 1.73 1.73 0 0 0 1.37-.49l-.5-2.83-2.21-.16z"/>
        <path fill="#FEC6BD" fill-rule="nonzero" d="M197.79 100.84a1.93 1.93 0 0 1 1.05.11 2.4 2.4 0 0 1 1.06 2c0 1.87-.68 4.44-2.76 4.37-2.92-.09-2.87-4.1-2.87-4.1a1.26 1.26 0 0 0 1.08-.8 2.65 2.65 0 0 1 1.28-1.84 1.23 1.23 0 0 1 1.16.26z"/>
        <path fill="#FEC6BD" fill-rule="nonzero" d="M195.19 104a.91.91 0 0 1-.91.91c-.5 0-.93-.76-.93-1.26s.27-.41.78-.41 1.06.25 1.06.76zM200 126.43a3.11 3.11 0 0 1 2.13.55c.49.42.1.6-.13.45a1.39 1.39 0 0 0-.74-.1c.279.342.618.63 1 .85.7.43.36 1.16-.86.78a6.11 6.11 0 0 1-2.21-1.43l.81-1.1z"/>
        <path fill="url(#o)" fill-rule="nonzero" d="M195.29 108.53s-6.46.3-7.62 4.92c-1 3.93-2 8.64-1.28 9.56.72.92 7.82 4.2 13.1 4.9l.75-1.66s-7.48-4.71-9.36-5.54l1.45-6.78 2.96-5.4z"/>
        <path stroke="#5A6268" stroke-linecap="round" stroke-width=".25" d="M239.46 109.52v61.41"/>
        <path stroke="#31465B" stroke-linecap="round" stroke-width=".5" d="M201.56 127.31l39.88-18.66"/>
        <path fill="#FEC6BD" fill-rule="nonzero" d="M126.01 121.71l1.38 2.22.84-.55-.97-2.43z"/>
        <path fill="#30343A" fill-rule="nonzero" d="M127.87 122.77l-.48 1.16a11.24 11.24 0 0 0-1.43 1.33c-.55.65-1.55.23-2.17 1-.62.77 2.14.51 3.11.29a8.27 8.27 0 0 0 2.75-1.72c.58-.44-.97-2.58-1.78-2.06z"/>
        <path fill="url(#p)" fill-rule="nonzero" d="M113.36 101.2s1.21 7.56 4.93 11.74c3.72 4.18 7.72 8.77 7.72 8.77l1.47-.74s-1.9-6.34-3.15-10.75-3.45-15.8-3.71-20.76l-7.26 11.74z"/>
        <path fill="#FEC6BD" fill-rule="nonzero" d="M101.6 122.28l-1.09 2.95 1.26.9 1.23-3.26z"/>
        <path fill="#30343A" fill-rule="nonzero" d="M100.67 124.74a3.69 3.69 0 0 0-1.49-.13c-1 .07-2.39-1-3.07-.58-.68.42-.17.78 1 1.52a31.59 31.59 0 0 0 4.6 2.27c.45.09 1.36-1.62.48-2.72l-1.52-.36z"/>
        <path fill="url(#q)" fill-rule="nonzero" d="M107.19 88.81s-2.37 11.74-3.67 20.68c-1.3 8.94-2.11 12.91-2.11 12.91l2.07.6s3.06-5.13 5.78-10.44a56 56 0 0 0 4.1-11.36s7.17-4.53 7.26-11.74l-13.43-.65z"/>
        <path fill="#FEC6BD" fill-rule="nonzero" d="M100.37 71.58s-1.6-1-1.6-1.64c0-.64-.6-1.85 0-1.68.6.17 2.42 2.42 2.42 2.42l-.82.9z"/>
        <path fill="url(#r)" fill-rule="nonzero" d="M109.82 63.64s-3.75 8.85-4.14 10.32c-.39 1.47-1.56 0-2.59-1.21a49.526 49.526 0 0 0-1.86-2.07l-.86.9s2.89 7.9 4.83 8.85c1.94.95 4.62-.77 4.62-.77V63.64z"/>
        <path fill="#FEC6BD" fill-rule="nonzero" d="M104 55.82a19.78 19.78 0 0 0 0 3.18c.36 2.42 2.22 4 2.86 3.81.64-.19 1.48-.45 1.48-.45l1.51 1.3 2.68-1-2.59-3.46s.13-3.71-1.12-3.88a24.5 24.5 0 0 0-4.82.5z"/>
        <path fill="#30343A" fill-rule="nonzero" d="M105.85 56.47s-2.78.17-3.51-.86-.37-3.08.63-3.09c1-.01 1.78 1 3.25.9 1.47-.1 2.53-.81 3.61-.18a3 3 0 0 1 1.51 3.4c-.49 1.27-1 2.61-1.72 2.61s-1.05-.52-.82-1c.23-.48.35-1.63-.45-1.76a1.21 1.21 0 0 0-1.46 1v.54a1.2 1.2 0 0 1-1.04-1.56z"/>
        <path fill="url(#s)" fill-rule="nonzero" d="M111.77 61.78s0 1-2 1.86a37.67 37.67 0 0 0-2.74 10.49c-.3 4.84.11 14.68.11 14.68s8.38 1.29 13.43.65c0 0 1.81-14.08-1.77-20.17-3.58-6.09-7.03-7.51-7.03-7.51z"/>
        <path fill="#30343A" fill-rule="nonzero" d="M96.79 66.27l3.71 4.84.54-.74a.42.42 0 0 0 0-.51L98.4 66.3a.43.43 0 0 0-.4-.17l-1.21.14z"/>
        <path fill="#000" fill-rule="nonzero" d="M117.61 70.47l-5.7-.13s.65 4.86 1.47 10.78c.82 5.92 1.32 10.3 1.34 10.43a3.41 3.41 0 0 0-.24 2.22c.39.86 1.51.73 2.12 0 .61-.73.07-2 0-2.21.56 1 4-4.53 4.23-10.4a16.85 16.85 0 0 0-3.22-10.69z" opacity=".1"/>
        <path fill="#FEC6BD" fill-rule="nonzero" d="M115.44 91.49a3.76 3.76 0 0 0-.31 2.37c.39.86 1.52.73 2.12 0 .6-.73 0-2.24 0-2.24l-1.81-.13z"/>
        <path fill="url(#t)" fill-rule="nonzero" d="M111.34 70.2A52.86 52.86 0 0 1 114.1 81c.82 5.91 1.34 10.45 1.34 10.45a2.4 2.4 0 0 0 1.81.13 27.61 27.61 0 0 0 3.11-11.45 25.39 25.39 0 0 0-2.16-11.31l-6.86 1.38z"/>
        <path fill="#FEC6BD" fill-rule="nonzero" d="M72.56 119.57l.12 2.93-1.38.45-.16-3.26z"/>
        <path fill="#30343A" fill-rule="nonzero" d="M72.52 122.16a3.35 3.35 0 0 1 1.29.56c.82.51 2.42.24 2.79.89.37.65-.21.71-1.5.8a29.85 29.85 0 0 1-4.8-.18c-.42-.12-.4-1.94.81-2.46l1.41.39z"/>
        <path fill="url(#u)" fill-rule="nonzero" d="M76.14 100.73L73 120.52l-2.33-.08-1.13-20.88a47.73 47.73 0 0 1-.19-9.84l6.79 11.01z"/>
        <path fill="#FEC6BD" fill-rule="nonzero" d="M81.57 120.34l.12 2.94-1.39.44-.15-3.26z"/>
        <path fill="#30343A" fill-rule="nonzero" d="M81.53 122.94c.46.091.897.278 1.28.55.83.52 2.43.25 2.8.9.37.65-.21.71-1.51.8a30 30 0 0 1-4.8-.18c-.41-.12-.4-1.94.82-2.46l1.41.39z"/>
        <path fill="url(#v)" fill-rule="nonzero" d="M81.9 89.05s.33 11.22.11 19.68c-.22 8.46-.11 12.27-.11 12.27l-2 .23s-2-5.23-3.68-10.57a52.53 52.53 0 0 1-2-11.14s-5.89-5.32-4.83-12l12.51 1.53z"/>
        <path fill="#FEC6BD" fill-rule="nonzero" d="M80.83 57.39c.194.992.338 1.993.43 3 .15 2.3-1.08 4-1.7 4-.62 0-1.45-.12-1.45-.12L77 65.7l-2.64-.38L76 61.65s-.84-3.38.27-3.79a23.66 23.66 0 0 1 4.56-.47z"/>
        <path fill="url(#w)" fill-rule="nonzero" d="M74 64.91s2.7-.3 3.41.3 2.83 2.91 3.69 7.61c.38 2.09.8 16.29.8 16.29S68.72 104.38 64 103.78c0 0 3.89-24.48 5.67-30.9 1.78-6.42 4.33-7.97 4.33-7.97z"/>
        <path fill="#30343A" fill-rule="nonzero" d="M89.56 75.09l-1-.45c-.14 0-.16-.24 0-.42l1.68-2.73c.11-.18.31-.28.44-.22l1 .44c.14.06.16.25 0 .43L90 74.87a.39.39 0 0 1-.44.22z"/>
        <path fill="#FEC6BD" fill-rule="nonzero" d="M89.38 76.22s1.5-.93 1.5-1.53.57-1.74 0-1.58c-.57.16-2.26 2.26-2.26 2.26l.76.85z"/>
        <path fill="url(#x)" fill-rule="nonzero" d="M79.59 70.9A61.41 61.41 0 0 0 82 78c.14.38 6.49-2.78 6.49-2.78l1.26 1.14S80.76 87.17 77.58 82a38 38 0 0 1-4.21-9l6.22-2.1z"/>
        <path fill="#37475E" fill-rule="nonzero" d="M79.9 55.68c.82.44 1.72 3.11 1.34 3.11-.38 0-1.94 0-2.35.06l-.27 1s-.06-.74-.71-.55c-.65.19-.36 1.42.3 1.61a4.5 4.5 0 0 1-2.81 4.53c-3.22 1.48-2.3 9-7.18 7.26-4.88-1.74-2.62-4.31.93-8.51 3.55-4.2 3-5.46 4.72-7.4a5.16 5.16 0 0 1 6.03-1.11z"/>
        <path fill="url(#y)" fill-rule="nonzero" d="M242.32 170.61h-4c-5.09.41-9.08 9.44-9 20.46.08 11.02 4.31 19.93 9.4 20.23h4l-.4-40.69z"/>
        <path fill="#000" fill-rule="nonzero" d="M239.88 171.89l-4.49.05a8.24 8.24 0 0 0-.65.55l5.15-.05-.01-.55zM239.91 174.24l-6.62.07c-.12.18-.23.37-.34.56l7-.08-.04-.55zM239.93 176.59l-7.93.09-.24.56 8.18-.09zM240 179l-8.87.1c-.06.18-.13.36-.18.55l9.05-.1V179zM240 181.3l-9.57.11c0 .18-.09.37-.13.55l9.71-.1-.01-.56zM240 183.66l-10.08.11-.09.55 10.17-.11zM240 186l-10.42.11-.06.56 10.49-.12zM240.06 188.37l-10.64.11v.55l10.68-.11-.04-.55zM240.09 190.72l-10.72.12v.28c.005.09.005.18 0 .27l10.72-.12v-.55zM240.11 193.07l-10.67.12v.55l10.64-.11.03-.56zM240.14 195.43l-10.49.11c0 .19 0 .37.07.55l10.42-.11v-.55zM240.16 197.78l-10.17.11c0 .19.06.37.1.55l10.08-.11-.01-.55zM240.19 200.14l-9.71.1c.05.19.09.37.14.55l9.57-.1v-.55zM240.21 202.49l-9.06.1c.07.19.13.37.2.55l8.87-.1-.01-.55zM240.24 204.84l-8.18.09c.08.19.17.37.25.55l7.94-.08-.01-.56zM240.27 207.2l-7 .07c.12.19.24.38.36.55l6.61-.07.03-.55zM240.29 209.55l-5.13.06c.208.194.429.374.66.54l4.48-.05-.01-.55z" opacity=".06"/>
        <ellipse cx="242.555" cy="190.962" fill="url(#z)" fill-rule="nonzero" rx="9.49" ry="20.37" transform="rotate(-.63 242.555 190.962)"/>
        <path fill="#FFF" fill-rule="nonzero" d="M242.57 171.87v.5c4.18 0 7.8 8.48 7.91 18.52.11 10.04-3.34 18.64-7.57 18.69-4.23.05-7.81-8.48-7.92-18.52a34.8 34.8 0 0 1 2.23-13.34c1.42-3.38 3.35-5.33 5.31-5.35v-.5m0 0c-4.55 0-8.15 8.64-8 19.2.15 10.56 3.88 19 8.42 19 4.55-.05 8.15-8.64 8-19.19-.15-10.55-3.88-19-8.41-19l-.01-.01z" opacity=".4"/>
        <path fill="url(#A)" fill-rule="nonzero" d="M86.5 18h26.15c.806 0 1.46.654 1.46 1.46v17.61a1.46 1.46 0 0 1-1.46 1.46h-5.38v2.62a.52.52 0 0 1-.89.36l-3-3H86.5a1.46 1.46 0 0 1-1.5-1.44V19.41A1.46 1.46 0 0 1 86.5 18z"/>
        <rect width="12.51" height="1" x="90.77" y="23.86" fill="#DEEFFF" fill-rule="nonzero" rx=".31"/>
        <rect width="17.55" height="1" x="90.77" y="26.85" fill="#DEEFFF" fill-rule="nonzero" rx=".31"/>
        <rect width="14.94" height="1" x="90.77" y="29.84" fill="#DEEFFF" fill-rule="nonzero" rx=".31"/>
        <path fill="url(#B)" fill-rule="nonzero" d="M96.43 33.82H76.56a1.46 1.46 0 0 0-1.46 1.46v11.11c0 .806.654 1.46 1.46 1.46h2.53v2.61a.52.52 0 0 0 .88.37l3-3h13.46a1.46 1.46 0 0 0 1.46-1.46V35.28a1.46 1.46 0 0 0-1.46-1.46z"/>
        <circle cx="82.7" cy="40.74" r="1" fill="#FFF" fill-rule="nonzero"/>
        <circle cx="86.55" cy="40.74" r="1" fill="#FFF" fill-rule="nonzero"/>
        <circle cx="90.4" cy="40.74" r="1" fill="#FFF" fill-rule="nonzero"/>
    </g>
</svg>
