<svg xmlns="http://www.w3.org/2000/svg" width="200" height="200" viewBox="0 0 200 200">
    <defs>
        <linearGradient id="prefix__a" x1="67.351%" x2="25.996%" y1="87.098%" y2="-1.315%">
            <stop offset="0%" stop-color="#EEF8FF"/>
            <stop offset="100%" stop-color="#EBF8FF" stop-opacity=".2"/>
        </linearGradient>
        <linearGradient id="prefix__b" x1="0%" x2="100%" y1="49.993%" y2="49.993%">
            <stop offset="0%" stop-color="#5F9AEF"/>
            <stop offset="14%" stop-color="#6DA6F2"/>
            <stop offset="39%" stop-color="#7EB6F5"/>
            <stop offset="67%" stop-color="#88BFF7"/>
            <stop offset="100%" stop-color="#8BC2F8"/>
        </linearGradient>
    </defs>
    <g fill="none" fill-rule="evenodd">
        <path d="M0 0H200V200H0z"/>
        <circle cx="100" cy="100.343" r="98.571" fill="url(#prefix__a)" fill-rule="nonzero"/>
        <path fill="url(#prefix__b)" fill-rule="nonzero" d="M116.586 67.921L43.279 87.53s-15.215 3.75-15.215 10.985v69.207a98.886 98.886 0 0021.493 17.315l67.029-17.893c8.4-2.25 15.214-11.043 15.214-19.643V79.429c0-8.6-6.8-13.715-15.214-11.508z"/>
        <path fill="#D0E7FF" fill-rule="nonzero" d="M151.093 106.629H43.636s-15.572.235-15.572-8.115v69.207c36.951 39.43 98.758 41.758 138.572 5.222v-50.714a15.572 15.572 0 00-15.543-15.6z"/>
        <path fill="#BFD9FF" fill-rule="nonzero" d="M162.764 175.271a.714.714 0 01-.714-.714v-2.271a.743.743 0 011.486 0v2.243a.714.714 0 01-.772.742zm0-6.714a.714.714 0 01-.714-.714v-2.236a.743.743 0 111.486 0v2.236a.714.714 0 01-.772.728v-.014zm0-6.707a.714.714 0 01-.714-.75v-2.236a.743.743 0 111.486 0v2.236a.714.714 0 01-.772.75zm0-6.714a.714.714 0 01-.714-.715v-2.278a.743.743 0 111.486 0v2.243a.714.714 0 01-.772.75zm0-6.715a.714.714 0 01-.714-.714v-2.236a.743.743 0 111.486 0v2.236a.714.714 0 01-.772.714zm0-6.707a.714.714 0 01-.714-.75v-2.235a.743.743 0 011.486 0v2.235a.714.714 0 01-.772.75zm0-6.714a.714.714 0 01-.714-.714v-2.243a.743.743 0 111.486 0v2.243a.714.714 0 01-.772.714zm0-6.714a.714.714 0 01-.714-.715v-2.228a.714.714 0 01.714-.757c.4.003.731.314.757.714v2.25a.714.714 0 01-.757.736zm-.457-6.679a.714.714 0 01-.714-.586 13.407 13.407 0 00-.607-2.021.745.745 0 011.385-.55c.285.734.512 1.488.679 2.257a.714.714 0 01-.571.886.586.586 0 01-.172.014zm-3.086-5.836a.714.714 0 01-.521-.207 8.943 8.943 0 00-1.643-1.243.747.747 0 01.772-1.278c.686.405 1.325.884 1.907 1.428a.714.714 0 01-.515 1.286v.014zm-5.935-2.914a.593.593 0 01-.157 0 21.507 21.507 0 00-2.143-.35.714.714 0 01-.65-.828.764.764 0 01.821-.658c.814.1 1.579.222 2.286.379a.744.744 0 11-.164 1.479l.007-.022zm-6.672-.55h-2.235a.746.746 0 010-1.493h2.235a.746.746 0 110 1.493zm-6.714 0h-2.236a.746.746 0 010-1.493h2.236a.746.746 0 110 1.493zm-6.707 0h-2.236a.746.746 0 010-1.493h2.236a.746.746 0 110 1.493zm-6.714 0h-2.236a.746.746 0 010-1.493h2.236a.746.746 0 110 1.493zm-6.708 0h-2.242a.746.746 0 010-1.493h2.242a.746.746 0 110 1.493zm-6.714 0h-2.236a.746.746 0 110-1.493h2.236a.746.746 0 110 1.493zm-6.714 0h-2.236a.746.746 0 010-1.493h2.236a.746.746 0 110 1.493zm-6.707 0h-2.243a.746.746 0 010-1.493h2.243a.746.746 0 110 1.493zm-6.715 0h-2.207a.746.746 0 010-1.493h2.236a.746.746 0 110 1.493h-.029zm-6.714 0h-2.236a.746.746 0 010-1.493h2.236a.746.746 0 110 1.493zm-6.707 0h-2.243a.746.746 0 010-1.493H79.5a.746.746 0 110 1.493zm-6.714 0H70.55a.746.746 0 010-1.493h2.236a.746.746 0 110 1.493zm-6.715 0h-2.235a.746.746 0 010-1.493h2.235a.746.746 0 110 1.493zm-6.707 0h-2.221a.746.746 0 010-1.493h2.243a.746.746 0 110 1.493h-.022zm-6.714 0h-2.236a.746.746 0 010-1.493h2.236a.746.746 0 110 1.493zm-6.714 0H43.7a.746.746 0 010-1.493h2.236a.746.746 0 110 1.493zm-6.707-.228h-.079a37.447 37.447 0 01-2.264-.322.747.747 0 01.264-1.471c.75.135 1.486.235 2.143.314a.744.744 0 11-.086 1.486l.022-.007zM32.636 110.507a.821.821 0 01-.293-.057 18.101 18.101 0 01-1.064-.5.751.751 0 01.714-1.321c.307.157.621.307.95.442a.728.728 0 11-.286 1.429l-.021.007z"/>
        <path fill="#89BCF6" fill-rule="nonzero" d="M171.936 167.721v-20.778a2.621 2.621 0 00-2.615-2.614H139.08a9.507 9.507 0 00-9.479 9.478v10.514a9.507 9.507 0 009.479 9.479h26.635a98.57 98.57 0 006.222-6.079z"/>
        <circle cx="144.957" cy="159.157" r="9.036" fill="#D0E7FF" fill-rule="nonzero"/>
        <circle cx="144.957" cy="159.157" r="5.714" fill="#FFF" fill-rule="nonzero"/>
        <path fill="#D0E7FF" fill-rule="nonzero" d="M84.2 91.586a.564.564 0 01-.536-.2A26.021 26.021 0 0194.336 50.32a21.65 21.65 0 016.35-1.428 22.859 22.859 0 0117.143-9.08.58.58 0 01.45.974.571.571 0 01-.4.184 21.707 21.707 0 00-15.679 7.893c1.754.022 3.49.343 5.136.95 2.485.929 4.964 3.157 4.543 5.865-.4 2.542-3.079 3.878-5.258 4.242-2.75.458-6.142-.235-7.55-2.857-1.328-2.464-.221-5.221.815-6.964a20.493 20.493 0 00-5.136 1.329 24.857 24.857 0 00-10.2 39.235.571.571 0 01-.071.815.529.529 0 01-.279.107zm17.1-41.536c-.964 1.429-2.479 4.2-1.229 6.514 1.129 2.093 3.993 2.636 6.336 2.243 1.943-.328 4.022-1.428 4.286-3.278.321-2.065-1.75-3.829-3.807-4.6a14.743 14.743 0 00-5.586-.879z"/>
        <ellipse cx="128.904" cy="32.073" fill="#BFD9FF" fill-rule="nonzero" rx="3.436" ry="6.879" transform="rotate(-43.8 128.904 32.073)"/>
        <ellipse cx="135.145" cy="30.384" fill="#D0E7FF" fill-rule="nonzero" rx="6.879" ry="3.436" transform="rotate(-82.99 135.145 30.384)"/>
        <ellipse cx="131.02" cy="46.152" fill="#BFD9FF" fill-rule="nonzero" rx="6.879" ry="3.436" transform="rotate(-63.36 131.02 46.152)"/>
        <ellipse cx="137.494" cy="45.904" fill="#D0E7FF" fill-rule="nonzero" rx="3.436" ry="6.879" transform="rotate(-24.18 137.494 45.904)"/>
        <ellipse cx="130.119" cy="39.241" fill="#D0E7FF" fill-rule="nonzero" rx="7.279" ry="3.886" transform="rotate(-8.58 130.119 39.24)"/>
        <g fill="#89BCF6" fill-rule="nonzero">
            <path d="M9.707 9.686A15.386 15.386 0 018.057 5.4 14.914 14.914 0 018.371.864L10.257.58a12.014 12.014 0 00-.314 4.535c.28 1.517.837 2.97 1.643 4.286l-1.879.286zM5.9 10.257a15.386 15.386 0 01-1.65-4.286 14.607 14.607 0 01.314-4.528l1.879-.286a11.993 11.993 0 00-.314 4.536c.28 1.518.84 2.97 1.65 4.286l-1.879.278zM2.086 10.836A15.386 15.386 0 01.436 6.55 14.914 14.914 0 01.75 2.014l1.886-.285a12.014 12.014 0 00-.315 4.535c.28 1.517.838 2.97 1.643 4.286l-1.878.286z" transform="translate(123.571 33.571)"/>
        </g>
        <circle cx="139.057" cy="37.886" r="4" fill="#89BCF6" fill-rule="nonzero"/>
        <path fill="#89BCF6" fill-rule="nonzero" d="M141.164 35.971a.714.714 0 01.293-.714l2.029-1.493A.76.76 0 01144.37 35l-2.028 1.429a.714.714 0 01-1.043-.158.714.714 0 01-.136-.3zM141.571 38.65a.714.714 0 010-.357.714.714 0 01.95-.457l2.379.828a.756.756 0 01-.493 1.429l-2.378-.829a.714.714 0 01-.458-.614z"/>
    </g>
</svg>
