<svg width="12" height="12" viewBox="0 0 12 12" fill="none" xmlns="http://www.w3.org/2000/svg">
<path d="M6 12C9.31371 12 12 9.31371 12 6C12 2.68629 9.31371 0 6 0C2.68629 0 0 2.68629 0 6C0 9.31371 2.68629 12 6 12Z" fill="#F03465"/>
<path d="M6.14062 7.29785C6.31315 7.29785 6.43685 7.22135 6.51172 7.06836C6.58659 6.91536 6.63542 6.69564 6.6582 6.40918L6.86816 4.00195C6.89095 3.7806 6.90234 3.5625 6.90234 3.34766C6.90234 2.98307 6.85514 2.70394 6.76074 2.51025C6.66634 2.31657 6.47917 2.21973 6.19922 2.21973C5.9681 2.21973 5.78174 2.29541 5.64014 2.44678C5.49854 2.59814 5.42773 2.80892 5.42773 3.0791C5.42773 3.27767 5.44238 3.60482 5.47168 4.06055L5.62793 6.39941C5.65723 6.70215 5.70605 6.92757 5.77441 7.07568C5.84277 7.2238 5.96484 7.29785 6.14062 7.29785ZM6.16992 9.6123C6.36523 9.6123 6.53613 9.5472 6.68262 9.41699C6.8291 9.28678 6.90234 9.10775 6.90234 8.87988C6.90234 8.67806 6.82992 8.50635 6.68506 8.36475C6.5402 8.22314 6.36523 8.15234 6.16016 8.15234C5.95508 8.15234 5.78174 8.22314 5.64014 8.36475C5.49854 8.50635 5.42773 8.67806 5.42773 8.87988C5.42773 9.111 5.50179 9.29085 5.6499 9.41943C5.79801 9.54801 5.97135 9.6123 6.16992 9.6123Z" fill="white"/>
</svg>
