<svg width="16" height="17" viewBox="0 0 16 17" fill="none" xmlns="http://www.w3.org/2000/svg">
<path fill-rule="evenodd" clip-rule="evenodd" d="M14.6514 4.52164L13.5886 5.58564L10.9029 2.8965L11.9657 1.83135C12.0914 1.69421 12.2743 1.63821 12.4571 1.63821C12.6286 1.63821 12.8 1.69421 12.9371 1.83135L14.6514 3.54793C14.7886 3.67478 14.8571 3.84621 14.8571 4.02907C14.8571 4.22335 14.7886 4.39593 14.6514 4.52164ZM5.45143 13.7434L2.76571 11.0542L10.1029 3.6965L12.7886 6.38678L5.45143 13.7434ZM2.09143 14.9902L1.45143 14.3502L2.20571 12.1079L4.37714 14.2805L2.09143 14.9902ZM15.4629 2.7365L13.7486 1.01993C13.0514 0.333069 11.8514 0.32164 11.1543 1.01993L10.0914 2.08393L9.29143 2.88507L1.95429 10.2416L1.55429 10.6314C1.48571 10.6999 1.44 10.7799 1.41714 10.8599L1.30286 11.2039L0.56 13.4565L0.0685714 14.9228C0.0228571 15.0474 0 15.1845 0 15.3216C0 15.6314 0.125714 15.9171 0.354286 16.1468C0.571429 16.3628 0.88 16.4896 1.17714 16.4999H1.2C1.32571 16.4999 1.45143 16.4782 1.57714 16.4439L3.05143 15.9514L5.29143 15.1971L5.63429 15.0816C5.71429 15.0599 5.79429 15.0142 5.86286 14.9445L6.26286 14.5548L13.6 7.19935L14.4 6.39821L15.4629 5.33307C15.8057 4.99021 16 4.52164 16 4.02907C16 3.54793 15.8057 3.07935 15.4629 2.7365Z" fill="#216FEA"/>
</svg>
