<svg width="16" height="16" viewBox="0 0 16 16" fill="none" xmlns="http://www.w3.org/2000/svg">
<path fill-rule="evenodd" clip-rule="evenodd" d="M10.2411 0.499966C10.4755 0.265546 10.7935 0.13385 11.125 0.13385C11.4565 0.13385 11.7745 0.265546 12.0089 0.499966L11.591 0.917802L12.0089 0.499966L15.5 3.99108C15.7344 4.2255 15.8661 4.54345 15.8661 4.87497C15.8661 5.20649 15.7344 5.52443 15.5 5.75885L7.00893 14.2499H14.875C15.2202 14.2499 15.5 14.5297 15.5 14.8749C15.5 15.2201 15.2202 15.4999 14.875 15.4999H5.50749C5.50499 15.5 5.5025 15.5 5.5 15.5H1.75C1.41848 15.5 1.10054 15.3683 0.866117 15.1339C0.631696 14.8994 0.5 14.5815 0.5 14.25V10.7589C0.5 10.6139 0.525223 10.4701 0.574397 10.334C0.577718 10.3245 0.581276 10.315 0.585074 10.3056C0.588341 10.2972 0.5917 10.2888 0.595151 10.2805C0.657969 10.1288 0.750043 9.99104 0.866117 9.87497L8.17953 2.56156L8.18306 2.558L8.18662 2.55446L10.2411 0.499966ZM1.75 12.0088L1.75 14.25H3.99114L1.75 12.0088ZM5.50001 13.9911L2.0089 10.5L8.62501 3.88384L12.1161 7.37495L5.50001 13.9911ZM14.6161 4.87497L13 6.49107L9.5089 2.99995L11.125 1.38385L14.6161 4.87497Z" fill="#ACAEB6"/>
</svg>
