<svg width="24" height="24" viewBox="0 0 24 24" fill="none" xmlns="http://www.w3.org/2000/svg">
<path d="M11.1453 3.28873L3.60335 9.19248C3.30168 9.39261 3 9.89293 3 10.3932V19.499C3 20.2996 3.70391 21 4.60894 21H8.8324C9.43575 21 9.83799 20.4997 9.83799 19.9994V17.2976C9.83799 16.6973 10.3408 16.297 10.8436 16.297H12.0503H13.257C13.8603 16.297 14.2626 16.7973 14.2626 17.2976V19.9994C14.2626 20.5997 14.7654 21 15.2682 21H19.4916C20.2961 21 21 20.2996 21 19.499V10.3932C21 9.89293 20.7989 9.49268 20.3966 9.19248L12.9553 3.38879C12.4525 2.88847 11.648 2.88847 11.1453 3.28873Z" fill="#3382FF"/>
</svg>
