<svg width="20" height="20" viewBox="0 0 20 20" fill="none" xmlns="http://www.w3.org/2000/svg">
<path fill-rule="evenodd" clip-rule="evenodd" d="M12.2411 2.49998C12.4755 2.26556 12.7935 2.13387 13.125 2.13387C13.4565 2.13387 13.7745 2.26556 14.0089 2.49998L13.591 2.91782L14.0089 2.49998L17.5 5.9911C17.7344 6.22552 17.8661 6.54346 17.8661 6.87498C17.8661 7.2065 17.7344 7.52444 17.5 7.75887L9.00893 16.2499H16.875C17.2202 16.2499 17.5 16.5298 17.5 16.8749C17.5 17.2201 17.2202 17.4999 16.875 17.4999H7.50749C7.50499 17.5 7.5025 17.5 7.5 17.5H3.75C3.41848 17.5 3.10054 17.3683 2.86612 17.1339C2.6317 16.8994 2.5 16.5815 2.5 16.25V12.7589C2.5 12.6139 2.52522 12.4701 2.5744 12.3341C2.57772 12.3245 2.58128 12.315 2.58507 12.3056C2.58834 12.2972 2.5917 12.2888 2.59515 12.2805C2.65797 12.1289 2.75004 11.9911 2.86612 11.875L10.1795 4.56157L10.1831 4.55801L10.1866 4.55448L12.2411 2.49998ZM3.75 14.0088L3.75 16.25H5.99114L3.75 14.0088ZM7.50001 15.9911L4.0089 12.5L10.625 5.88385L14.1161 9.37497L7.50001 15.9911ZM16.6161 6.87498L15 8.49108L11.5089 4.99997L13.125 3.38387L16.6161 6.87498Z" fill="#171B1D" fill-opacity="0.3"/>
</svg>
