<svg width="14" height="14" viewBox="0 0 14 14" fill="none" xmlns="http://www.w3.org/2000/svg">
<path fill-rule="evenodd" clip-rule="evenodd" d="M7 0C10.86 0 14 3.141 14 7C14 10.859 10.86 14 7 14C3.14 14 0 10.859 0 7C0 3.141 3.14 0 7 0ZM7 1C3.691 1 1 3.691 1 7C1 10.309 3.691 13 7 13C10.309 13 13 10.309 13 7C13 3.691 10.309 1 7 1ZM7 3.5C7.276 3.5 7.5 3.724 7.5 4V6.5H10C10.276 6.5 10.5 6.724 10.5 7C10.5 7.276 10.276 7.5 10 7.5H7.5V10C7.5 10.276 7.276 10.5 7 10.5C6.724 10.5 6.5 10.276 6.5 10V7.5H4C3.724 7.5 3.5 7.276 3.5 7C3.5 6.724 3.724 6.5 4 6.5H6.5V4C6.5 3.724 6.724 3.5 7 3.5Z" fill="#171B1D" fill-opacity="0.5"/>
</svg>
