<svg width="14" height="14" viewBox="0 0 14 14" fill="none" xmlns="http://www.w3.org/2000/svg">
<path fill-rule="evenodd" clip-rule="evenodd" d="M12.82 3.5186L11.89 4.44963L9.54 2.09655L10.47 1.16451C10.58 1.04451 10.74 0.995508 10.9 0.995508C11.05 0.995508 11.2 1.04451 11.32 1.16451L12.82 2.66657C12.94 2.77757 13 2.92758 13 3.08758C13 3.25759 12.94 3.40859 12.82 3.5186ZM4.77 11.5878L2.42 9.23473L8.84 2.79651L11.19 5.15059L4.77 11.5878ZM1.83 12.6789L1.27 12.1189L1.93 10.1569L3.83 12.0579L1.83 12.6789ZM13.53 1.95658L12.03 0.454524C11.42 -0.146497 10.37 -0.156498 9.76 0.454524L8.83 1.38556L8.13 2.08658L1.71 8.52381L1.36 8.86482C1.3 8.92482 1.26 8.99482 1.24 9.06483L1.14 9.36584L0.49 11.3369L0.06 12.62C0.02 12.729 0 12.849 0 12.969C0 13.24 0.11 13.49 0.31 13.691C0.5 13.88 0.77 13.991 1.03 14H1.05C1.16 14 1.27 13.981 1.38 13.951L2.67 13.52L4.63 12.86L4.93 12.759C5 12.74 5.07 12.7 5.13 12.639L5.48 12.2979L11.9 5.86171L12.6 5.16069L13.53 4.22866C13.83 3.92865 14 3.51863 14 3.08762C14 2.6666 13.83 2.25659 13.53 1.95658Z" fill="white"/>
</svg>
