<svg width="24" height="24" viewBox="0 0 24 24" fill="none" xmlns="http://www.w3.org/2000/svg">
<circle cx="12" cy="12" r="12" fill="#333A3D" fill-opacity="0.4"/>
<path fill-rule="evenodd" clip-rule="evenodd" d="M7.5 8.00006C6.67157 8.00006 6 8.67163 6 9.50006V14.5001C6 15.3285 6.67157 16.0001 7.5 16.0001H13C13.8284 16.0001 14.5 15.3285 14.5 14.5001V12.9168L17.2863 14.907C17.4387 15.0158 17.6392 15.0304 17.8057 14.9447C17.9722 14.859 18.0769 14.6874 18.0769 14.5001V9.50012C18.0769 9.31282 17.9722 9.14124 17.8057 9.05553C17.6392 8.96983 17.4387 8.98439 17.2863 9.09325L14.5 11.0835V9.50006C14.5 8.67163 13.8284 8.00006 13 8.00006H7.5Z" fill="white"/>
</svg>
