<svg width="16" height="16" viewBox="0 0 16 16" fill="none" xmlns="http://www.w3.org/2000/svg">
<g clip-path="url(#clip0_3139_1588)">
<path fill-rule="evenodd" clip-rule="evenodd" d="M5.689 0.146006L8 2.45701L10.311 0.146006C10.506 -0.0489941 10.822 -0.0489941 11.018 0.146006C11.213 0.342006 11.213 0.658006 11.018 0.853006L9.036 2.83576L15.5 2.83591C15.776 2.83591 16 3.05991 16 3.33591V6.33591C16 6.61191 15.776 6.83591 15.5 6.83591L15 6.83576V15.3359C15 15.6119 14.776 15.8359 14.5 15.8359H1.5C1.224 15.8359 1 15.6119 1 15.3359V6.83576L0.5 6.83591C0.224 6.83591 0 6.61191 0 6.33591V3.33591C0 3.05991 0.224 2.83591 0.5 2.83591L6.963 2.83576L4.982 0.853006C4.787 0.658006 4.787 0.342006 4.982 0.146006C5.178 -0.0489941 5.494 -0.0489941 5.689 0.146006ZM7.5 6.83576L2 6.83591V14.8359L7.5 14.8358V6.83576ZM14 6.83591L8.5 6.83576V14.8358L14 14.8359V6.83591ZM7.5 3.83576L1 3.83591V5.83591L7.5 5.83576V3.83576ZM15 3.83591L8.5 3.83576V5.83576L15 5.83591V3.83591Z" fill="#171B1D" fill-opacity="0.3"/>
</g>
<defs>
<clipPath id="clip0_3139_1588">
<rect width="16" height="16" fill="white"/>
</clipPath>
</defs>
</svg>
