<svg width="16" height="16" viewBox="0 0 16 16" fill="none" xmlns="http://www.w3.org/2000/svg">
<path fill-rule="evenodd" clip-rule="evenodd" d="M1.22167 14.916C1.30405 14.971 1.4009 15.0002 1.49992 15C1.56563 15.0001 1.63071 14.9873 1.69145 14.9623C1.75219 14.9372 1.80741 14.9004 1.85393 14.854L3.69335 13.0146C4.94237 13.8847 6.42346 14.5 8 14.5C12.366 14.5 16 9.781 16 8C16 7.00556 14.867 5.09514 13.1063 3.60167L14.8539 1.85402C14.9478 1.76013 15.0006 1.6328 15.0006 1.50002C15.0006 1.36725 14.9478 1.23991 14.8539 1.14603C14.76 1.05214 14.6327 0.99939 14.4999 0.99939C14.3671 0.99939 14.2398 1.05214 14.1459 1.14603L12.3066 2.98536C11.0576 2.11529 9.57651 1.5 8 1.5C3.634 1.5 0 6.219 0 8C0 8.99443 1.13294 10.9048 2.89367 12.3983L1.14592 14.146C1.07581 14.216 1.02805 14.3051 1.00868 14.4022C0.989316 14.4993 0.999208 14.6 1.03713 14.6915C1.07504 14.783 1.13928 14.8611 1.22167 14.916ZM3.59935 11.6926C2.00292 10.3469 1 8.63708 1 8C1 6.887 4.061 2.5 8 2.5C9.32512 2.5 10.5509 2.99649 11.5942 3.69779L10.0954 5.19655C9.86347 5.02321 9.60973 4.8784 9.33938 4.76642C8.69984 4.50151 7.9961 4.43221 7.31716 4.56725C6.63823 4.7023 6.0146 5.03564 5.52511 5.52512C5.03563 6.01461 4.7023 6.63825 4.56726 7.31719C4.43221 7.99612 4.50151 8.69985 4.76641 9.3394C4.87839 9.60974 5.0232 9.86348 5.19655 10.0954L3.59935 11.6926ZM4.40578 12.3022C5.44907 13.0035 6.67485 13.5 8 13.5C11.939 13.5 15 9.113 15 8C15 7.36291 13.9971 5.65308 12.4006 4.30735L10.8034 5.90454C10.8402 5.95382 10.8758 6.00416 10.9102 6.0555C11.2947 6.63108 11.5 7.30777 11.5 8C11.5 8.92826 11.1313 9.8185 10.4749 10.4749C9.8185 11.1313 8.92825 11.5 8 11.5C7.30776 11.5 6.63108 11.2947 6.05551 10.9101C6.00416 10.8758 5.95383 10.8402 5.90455 10.8034L4.40578 12.3022ZM6.62201 10.0859C6.89093 10.2636 7.19304 10.3885 7.51226 10.452C7.99722 10.5484 8.49988 10.4989 8.95669 10.3097C9.41351 10.1205 9.80397 9.80005 10.0787 9.38893C10.3534 8.9778 10.5 8.49445 10.5 8C10.5 7.50638 10.354 7.02781 10.0859 6.62201L6.62201 10.0859ZM9.37793 5.91402C8.97215 5.64597 8.4936 5.5 8 5.5C7.50554 5.5 7.0222 5.64662 6.61108 5.92133C6.19996 6.19603 5.87952 6.58647 5.6903 7.04329C5.50108 7.50011 5.45157 8.00277 5.54803 8.48773C5.61152 8.80692 5.73638 9.10901 5.91402 9.37793L9.37793 5.91402Z" fill="#171B1D" fill-opacity="0.3"/>
</svg>
