<svg width="14" height="14" viewBox="0 0 14 14" fill="none" xmlns="http://www.w3.org/2000/svg">
<path fill-rule="evenodd" clip-rule="evenodd" d="M1.35425 0.64625L7 6.292L12.6462 0.64625C12.8422 0.45125 13.1582 0.45125 13.3542 0.64625C13.5492 0.84225 13.5492 1.15825 13.3542 1.35425L7.708 7L13.3542 12.6462C13.5492 12.8422 13.5492 13.1582 13.3542 13.3542C13.2563 13.4513 13.1283 13.5002 13.0002 13.5002C12.8722 13.5002 12.7442 13.4513 12.6462 13.3542L7 7.708L1.35425 13.3542C1.25625 13.4513 1.12825 13.5002 1.00025 13.5002C0.87225 13.5002 0.74425 13.4513 0.64625 13.3542C0.45125 13.1582 0.45125 12.8422 0.64625 12.6462L6.292 7L0.64625 1.35425C0.45125 1.15825 0.45125 0.84225 0.64625 0.64625C0.84225 0.45125 1.15825 0.45125 1.35425 0.64625Z" fill="white"/>
</svg>
