<svg width="12" height="12" viewBox="0 0 12 12" fill="none" xmlns="http://www.w3.org/2000/svg">
<path d="M11.0782 7.58203C10.9609 7.74202 10.8115 7.89669 10.6302 8.04602C10.4489 8.19536 10.2409 8.32336 10.0062 8.43003C9.7822 8.53669 9.53686 8.62203 9.2702 8.68603C9.0142 8.75003 8.75286 8.78202 8.4862 8.78202C8.04886 8.78202 7.6222 8.75003 7.2062 8.68603C6.7902 8.62203 6.39553 8.51536 6.0222 8.36603C5.87286 8.30203 5.6862 8.23803 5.4622 8.17403C5.24886 8.11003 5.02486 8.05136 4.7902 7.99803C4.55553 7.94469 4.3262 7.90203 4.1022 7.87003C3.88886 7.82736 3.7022 7.80603 3.5422 7.80603C3.32886 7.80603 3.1102 7.82736 2.8862 7.87003C2.67286 7.90203 2.46486 7.95536 2.2622 8.03003C2.0702 8.09403 1.88886 8.17936 1.7182 8.28603C1.54753 8.38203 1.40886 8.49403 1.3022 8.62203L0.950195 8.31803C1.06753 8.15803 1.21686 8.00336 1.3982 7.85403C1.57953 7.70469 1.7822 7.57669 2.0062 7.47003C2.24086 7.36336 2.4862 7.27803 2.7422 7.21403C2.9982 7.15002 3.26486 7.11803 3.5422 7.11803C3.97953 7.11803 4.4062 7.15536 4.8222 7.23002C5.24886 7.29402 5.64886 7.40069 6.0222 7.55003C6.44886 7.72069 6.8862 7.85403 7.3342 7.95003C7.7822 8.04603 8.1662 8.09403 8.4862 8.09403C8.68886 8.09403 8.9022 8.07802 9.1262 8.04602C9.3502 8.00336 9.5582 7.95003 9.7502 7.88602C9.95286 7.81136 10.1395 7.72603 10.3102 7.63003C10.4809 7.52336 10.6195 7.40603 10.7262 7.27803L11.0782 7.58203ZM11.0782 3.61402C10.9609 3.77402 10.8115 3.92869 10.6302 4.07802C10.4489 4.22736 10.2409 4.35536 10.0062 4.46202C9.7822 4.56869 9.53686 4.65402 9.2702 4.71802C9.0142 4.78202 8.75286 4.81402 8.4862 4.81402C8.04886 4.81402 7.6222 4.78202 7.2062 4.71802C6.7902 4.65402 6.39553 4.54736 6.0222 4.39802C5.87286 4.33402 5.6862 4.27002 5.4622 4.20602C5.24886 4.14202 5.02486 4.08336 4.7902 4.03002C4.55553 3.97669 4.3262 3.93402 4.1022 3.90202C3.88886 3.85936 3.7022 3.83802 3.5422 3.83802C3.32886 3.83802 3.1102 3.85936 2.8862 3.90202C2.67286 3.93402 2.46486 3.98736 2.2622 4.06202C2.0702 4.12602 1.88886 4.21136 1.7182 4.31802C1.54753 4.41402 1.40886 4.52602 1.3022 4.65402L0.950195 4.35002C1.06753 4.19002 1.21686 4.03536 1.3982 3.88602C1.57953 3.73669 1.7822 3.60869 2.0062 3.50202C2.24086 3.39536 2.4862 3.31002 2.7422 3.24602C2.9982 3.18202 3.26486 3.15002 3.5422 3.15002C3.97953 3.15002 4.4062 3.18736 4.8222 3.26202C5.24886 3.32602 5.64886 3.43269 6.0222 3.58202C6.44886 3.75269 6.8862 3.88602 7.3342 3.98202C7.7822 4.07802 8.1662 4.12602 8.4862 4.12602C8.68886 4.12602 8.9022 4.11002 9.1262 4.07802C9.3502 4.03536 9.5582 3.98202 9.7502 3.91802C9.95286 3.84336 10.1395 3.75802 10.3102 3.66202C10.4809 3.55536 10.6195 3.43802 10.7262 3.31002L11.0782 3.61402Z" fill="#171B1D" fill-opacity="0.5"/>
</svg>
