<svg width="24" height="24" viewBox="0 0 24 24" fill="none" xmlns="http://www.w3.org/2000/svg">
<path d="M19.949 7.37569H5.60204C5.02041 7.37569 4.53571 6.87845 4.53571 6.28177C4.53571 5.68508 5.02041 5.18784 5.60204 5.18784H17.7194C18.301 5.18784 18.7857 4.69061 18.7857 4.09392C18.7857 3.49724 18.301 3 17.7194 3H5.60204C3.85714 3.09945 2.5 4.49171 2.5 6.28177V8.96685V10.7569V19.4088C2.5 20.3039 3.17857 21 4.05102 21H19.949C20.8214 21 21.5 20.3039 21.5 19.4088V8.96685C21.5 8.07182 20.8214 7.37569 19.949 7.37569ZM17.4286 15.9282C16.4592 15.9282 15.6837 15.1326 15.6837 14.1381C15.6837 13.1436 16.4592 12.3481 17.4286 12.3481C18.398 12.3481 19.1735 13.1436 19.1735 14.1381C19.1735 15.1326 18.398 15.9282 17.4286 15.9282Z" fill="#3382FF"/>
</svg>
