<svg width="16" height="16" viewBox="0 0 16 16" fill="none" xmlns="http://www.w3.org/2000/svg">
<path d="M8.0001 14.9001C11.8109 14.9001 14.9001 11.8109 14.9001 8.0001C14.9001 4.18933 11.8109 1.1001 8.0001 1.1001C4.18933 1.1001 1.1001 4.18933 1.1001 8.0001C1.1001 11.8109 4.18933 14.9001 8.0001 14.9001Z" fill="#F03465"/>
<path d="M12.0632 7.45397L3.91554 7.44719C3.77109 7.45065 3.63344 7.50963 3.53119 7.61187C3.42895 7.71412 3.36997 7.85176 3.36651 7.99622C3.36885 8.14431 3.42867 8.2856 3.53332 8.39026C3.63798 8.49491 3.77927 8.55473 3.92736 8.55707L12.0624 8.55126C12.1352 8.55094 12.2072 8.53627 12.2743 8.50809C12.3414 8.4799 12.4023 8.43876 12.4535 8.38701C12.5052 8.3358 12.5464 8.27489 12.5746 8.20777C12.6028 8.14066 12.6174 8.06866 12.6177 7.99591C12.6151 7.85076 12.5554 7.71257 12.4517 7.61117C12.3479 7.50978 12.2084 7.45331 12.0632 7.45397Z" fill="white"/>
</svg>
