<svg width="14" height="14" viewBox="0 0 14 14" fill="none" xmlns="http://www.w3.org/2000/svg">
<g clip-path="url(#clip0_3139_1616)">
<path fill-rule="evenodd" clip-rule="evenodd" d="M5 1.00012C5.276 1.00012 5.5 1.22412 5.5 1.50012C5.5 1.77612 5.276 2.00012 5 2.00012H1.5V13.0001H12.5V9.50012C12.5 9.22412 12.724 9.00012 13 9.00012C13.276 9.00012 13.5 9.22412 13.5 9.50012V13.5001C13.5 13.7761 13.276 14.0001 13 14.0001H1C0.724 14.0001 0.5 13.7761 0.5 13.5001V1.50012C0.5 1.22412 0.724 1.00012 1 1.00012H5ZM13 1.00012L13.0115 1C13.0324 1.00048 13.0533 1.00225 13.0739 1.00532L13 1.00012C13.0361 1.00012 13.0713 1.00395 13.1052 1.01122C13.1205 1.01424 13.1359 1.01829 13.1511 1.02308C13.1647 1.02769 13.178 1.03254 13.191 1.03793C13.2047 1.04316 13.2184 1.04955 13.2319 1.0566C13.244 1.06344 13.2556 1.07017 13.2669 1.07734C13.2797 1.08476 13.2921 1.09336 13.3042 1.10259C13.315 1.11163 13.3256 1.12047 13.3358 1.12974C13.3421 1.13453 13.3481 1.14024 13.354 1.14612L13.3732 1.16746C13.3799 1.17494 13.3863 1.18262 13.3925 1.1905L13.354 1.14612C13.3817 1.17391 13.4054 1.20412 13.4252 1.23606C13.4298 1.24434 13.4346 1.25272 13.4393 1.26125C13.4493 1.27874 13.4578 1.29685 13.4651 1.3153C13.4686 1.32509 13.4722 1.335 13.4755 1.34506C13.4811 1.36152 13.4856 1.37823 13.4892 1.39509C13.4912 1.40579 13.4932 1.41677 13.4948 1.42787C13.4976 1.44556 13.4992 1.46304 13.4999 1.48055C13.4999 1.48652 13.5 1.4933 13.5 1.50012V5.50012C13.5 5.77612 13.276 6.00012 13 6.00012C12.724 6.00012 12.5 5.77612 12.5 5.50012V2.708L6.854 8.35412C6.756 8.45112 6.628 8.50012 6.5 8.50012C6.372 8.50012 6.244 8.45112 6.146 8.35412C5.951 8.15812 5.951 7.84212 6.146 7.64612L11.792 2L9 2.00012C8.724 2.00012 8.5 1.77612 8.5 1.50012C8.5 1.22412 8.724 1.00012 9 1.00012H13Z" fill="#171B1D" fill-opacity="0.3"/>
</g>
<defs>
<clipPath id="clip0_3139_1616">
<rect width="14" height="14" fill="white"/>
</clipPath>
</defs>
</svg>
