<svg width="24" height="24" viewBox="0 0 24 24" fill="none" xmlns="http://www.w3.org/2000/svg">
<g clip-path="url(#clip0_3461_2768)">
<path d="M12.0002 2.32258C12.6415 2.32258 13.1614 1.80265 13.1614 1.16129C13.1614 0.519927 12.6415 0 12.0002 0C11.3588 0 10.8389 0.519927 10.8389 1.16129C10.8389 1.80265 11.3588 2.32258 12.0002 2.32258Z" fill="#1E2224"/>
<path d="M12.0002 24.0001C12.6415 24.0001 13.1614 23.4801 13.1614 22.8388C13.1614 22.1974 12.6415 21.6775 12.0002 21.6775C11.3588 21.6775 10.8389 22.1974 10.8389 22.8388C10.8389 23.4801 11.3588 24.0001 12.0002 24.0001Z" fill="#909293"/>
<path d="M6.58072 3.75495C7.22209 3.75495 7.74201 3.23503 7.74201 2.59366C7.74201 1.9523 7.22209 1.43237 6.58072 1.43237C5.93936 1.43237 5.41943 1.9523 5.41943 2.59366C5.41943 3.23503 5.93936 3.75495 6.58072 3.75495Z" fill="#313537"/>
<path d="M18.4258 20.8258C18.7355 21.3677 18.542 22.0645 18 22.4129C17.4581 22.7226 16.7613 22.529 16.4129 21.9871C16.1033 21.4452 16.2968 20.7484 16.8387 20.4C17.3807 20.0903 18.1162 20.2839 18.4258 20.8258Z" fill="#A5A7A8"/>
<path d="M3.17434 5.57427C3.71628 5.88395 3.90983 6.58072 3.60015 7.16137C3.29047 7.7033 2.5937 7.89685 2.01305 7.58718C1.47112 7.2775 1.27757 6.58072 1.58725 6.00008C1.89692 5.41943 2.63241 5.26459 3.17434 5.57427Z" fill="#444749"/>
<path d="M21.9868 16.4129C22.5288 16.7226 22.7223 17.4194 22.4126 18C22.103 18.542 21.4062 18.7355 20.8256 18.4258C20.2836 18.1162 20.0901 17.4194 20.3997 16.8387C20.7094 16.2968 21.4062 16.1033 21.9868 16.4129Z" fill="#B9BABB"/>
<path d="M1.16129 13.1612C1.80265 13.1612 2.32258 12.6413 2.32258 11.9999C2.32258 11.3586 1.80265 10.8386 1.16129 10.8386C0.519927 10.8386 0 11.3586 0 11.9999C0 12.6413 0.519927 13.1612 1.16129 13.1612Z" fill="#575A5B"/>
<path d="M22.8385 13.1612C23.4799 13.1612 23.9998 12.6413 23.9998 11.9999C23.9998 11.3586 23.4799 10.8386 22.8385 10.8386C22.1972 10.8386 21.6772 11.3586 21.6772 11.9999C21.6772 12.6413 22.1972 13.1612 22.8385 13.1612Z" fill="#CECFCF"/>
<path d="M2.01267 16.4129C2.5546 16.1033 3.25138 16.2968 3.59977 16.8387C3.90944 17.3807 3.71589 18.0774 3.17396 18.4258C2.63202 18.7355 1.93525 18.542 1.58686 18C1.23848 17.4581 1.47073 16.7613 2.01267 16.4129Z" fill="#6B6D6F"/>
<path d="M20.8256 5.57431C21.3675 5.26463 22.0643 5.45818 22.4126 6.00011C22.7223 6.54205 22.5288 7.23882 21.9868 7.58721C21.4449 7.89689 20.7481 7.70334 20.3997 7.1614C20.0901 6.61947 20.2836 5.88398 20.8256 5.57431Z" fill="#E0E1E1"/>
<path d="M5.57406 20.8258C5.88374 20.2839 6.58051 20.0903 7.16116 20.4C7.70309 20.7097 7.89664 21.4064 7.58697 21.9871C7.27729 22.529 6.58051 22.7226 5.99987 22.4129C5.45793 22.0645 5.26439 21.3677 5.57406 20.8258Z" fill="#7E8081"/>
<path d="M16.4129 2.01281C16.7226 1.47087 17.4194 1.27732 18 1.587C18.542 1.89668 18.7355 2.59345 18.4258 3.1741C18.1162 3.71603 17.4194 3.90958 16.8387 3.59991C16.2968 3.29023 16.1033 2.59345 16.4129 2.01281Z" fill="#F4F4F4"/>
</g>
<defs>
<clipPath id="clip0_3461_2768">
<rect width="24" height="24" fill="white"/>
</clipPath>
</defs>
</svg>
