<svg width="32" height="32" viewBox="0 0 32 32" fill="none" xmlns="http://www.w3.org/2000/svg">
<path d="M24.75 12.1818H22.25V8.36364C22.25 4.8 19.5 2 16 2C12.5 2 9.75 4.8 9.75 8.36364V12.1818H7.25C6.5 12.1818 6 12.6909 6 13.4545V28.7273C6 29.4909 6.5 30 7.25 30H24.75C25.5 30 26 29.4909 26 28.7273V13.4545C26 12.6909 25.5 12.1818 24.75 12.1818ZM12.25 8.36364C12.25 6.2 13.875 4.54545 16 4.54545C18.125 4.54545 19.75 6.2 19.75 8.36364V12.1818H12.25V8.36364ZM17.25 21.3455V23.6364C17.25 24.4 16.75 24.9091 16 24.9091C15.25 24.9091 14.75 24.4 14.75 23.6364V21.3455C14 20.9636 13.5 20.0727 13.5 19.1818C13.5 17.7818 14.625 16.6364 16 16.6364C17.375 16.6364 18.5 17.7818 18.5 19.1818C18.5 20.0727 18 20.9636 17.25 21.3455Z" fill="#333A3D"/>
</svg>
