<svg width="16" height="16" viewBox="0 0 16 16" fill="none" xmlns="http://www.w3.org/2000/svg">
<g clip-path="url(#clip0_3400_2529)">
<path d="M5.56756 2.12902L7.48316 0.213426C7.62067 0.0767279 7.80669 0 8.00059 0C8.19448 0 8.3805 0.0767279 8.51802 0.213426L10.4336 2.12902H13.1419C13.3365 2.12902 13.5232 2.20635 13.6608 2.34399C13.7985 2.48163 13.8758 2.66831 13.8758 2.86297V5.57122L15.7841 7.47948C15.8529 7.54771 15.9075 7.62889 15.9447 7.71832C15.982 7.80776 16.0012 7.90369 16.0012 8.00058C16.0012 8.09747 15.982 8.1934 15.9447 8.28284C15.9075 8.37228 15.8529 8.45345 15.7841 8.52168L13.8758 10.4299V13.1382C13.8758 13.3329 13.7985 13.5195 13.6608 13.6572C13.5232 13.7948 13.3365 13.8721 13.1419 13.8721H10.4336L8.51802 15.7877C8.3805 15.9244 8.19448 16.0012 8.00059 16.0012C7.80669 16.0012 7.62067 15.9244 7.48316 15.7877L5.56756 13.8721H2.86664C2.67199 13.8721 2.48531 13.7948 2.34766 13.6572C2.21002 13.5195 2.1327 13.3329 2.1327 13.1382V10.4299L0.2171 8.52168C0.148309 8.45345 0.0937077 8.37228 0.0564463 8.28284C0.0191849 8.1934 0 8.09747 0 8.00058C0 7.90369 0.0191849 7.80776 0.0564463 7.71832C0.0937077 7.62889 0.148309 7.54771 0.2171 7.47948L2.1327 5.57122V2.86297C2.1327 2.66831 2.21002 2.48163 2.34766 2.34399C2.48531 2.20635 2.67199 2.12902 2.86664 2.12902H5.56756Z" fill="#3382FF"/>
<path d="M11.4671 5.7459C11.4196 5.6997 11.3628 5.663 11.3002 5.63794C11.2376 5.61288 11.1704 5.59998 11.1025 5.59998C11.0346 5.59998 10.9673 5.61288 10.9047 5.63794C10.8421 5.663 10.7854 5.6997 10.7379 5.7459L7.07168 9.21857L5.27506 7.50749C5.20366 7.43806 5.11204 7.3906 5.01204 7.37125C4.91204 7.3519 4.80824 7.36153 4.71404 7.39891C4.61985 7.43629 4.53958 7.4997 4.48359 7.58095C4.4276 7.66221 4.39847 7.75758 4.39996 7.85475C4.40144 7.98378 4.45345 8.10762 4.54581 8.20202L6.70706 10.2541C6.75459 10.3003 6.81132 10.337 6.87393 10.362C6.93654 10.3871 7.00377 10.4 7.07168 10.4C7.1396 10.4 7.20683 10.3871 7.26944 10.362C7.33205 10.337 7.38878 10.3003 7.43631 10.2541L11.4472 6.43412C11.4955 6.3894 11.5339 6.3359 11.5602 6.27679C11.5864 6.21769 11.5999 6.15417 11.5999 6.09001C11.5999 6.02584 11.5864 5.96233 11.5602 5.90322C11.5339 5.84412 11.4955 5.79062 11.4472 5.7459H11.4671Z" fill="white"/>
</g>
<defs>
<clipPath id="clip0_3400_2529">
<rect width="16" height="16" fill="white"/>
</clipPath>
</defs>
</svg>
