<svg width="16" height="16" viewBox="0 0 16 16" fill="none" xmlns="http://www.w3.org/2000/svg">
<path fill-rule="evenodd" clip-rule="evenodd" d="M8.00016 0C8.74044 0 9.38679 0.402199 9.7326 1C9.77854 1.07942 9.81917 1.16228 9.85402 1.24812C12.8203 2.06072 15.0002 4.77579 15.0002 8L15.0002 10.5L15.9028 12.6061C16.1856 13.2659 15.7015 14 14.9836 14H10.0002C10.0002 15.1046 9.10473 16 8.00016 16C6.89559 16 6.00016 15.1046 6.00016 14H1.0167C0.298786 14 -0.185244 13.2659 0.0975571 12.6061L1.00016 10.5V8C1.00016 4.7758 3.17999 2.06072 6.1463 1.24812C6.18115 1.16228 6.22179 1.07942 6.26773 1C6.61354 0.402198 7.25988 0 8.00016 0ZM14.0002 10V8C14.0002 4.68629 11.3139 2 8.00016 2C4.68645 2 2.00016 4.68629 2.00016 8V10H14.0002ZM1.87384 11H14.1265L14.9836 13L1.0167 13L1.87384 11ZM8.00016 15C7.44788 15 7.00016 14.5523 7.00016 14H9.00016C9.00016 14.5523 8.55245 15 8.00016 15Z" fill="#171B1D" fill-opacity="0.3"/>
</svg>
