<svg width="20" height="20" viewBox="0 0 20 20" fill="none" xmlns="http://www.w3.org/2000/svg">
<path fill-rule="evenodd" clip-rule="evenodd" d="M11.1002 2.3C11.9002 0.9 13.4002 0 15.2002 0C17.8002 0 20.0002 2.2 20.0002 4.8C20.0002 7.1 18.5002 9 16.4002 9.5V17.7C16.4002 18 16.1002 18.3 15.8002 18.3H5.2002C4.5002 18.3 3.9002 18 3.4002 17.5C2.9002 17 2.7002 16.3 2.7002 15.6V15.5V15.4V4.8C2.7002 4.2 2.9002 3.5 3.4002 3C3.9002 2.6 4.5002 2.3 5.2002 2.3H11.1002ZM5.2002 17.2H15.2002V14.2H5.2002C4.80019 14.2 4.5002 14.4 4.3002 14.6C4.0002 14.9 3.9002 15.2 3.9002 15.5V15.6V15.7C3.9002 16.1 4.1002 16.5 4.3002 16.8C4.6002 17.1 4.9002 17.2 5.2002 17.2ZM5.2002 13H15.1002V9.6C12.5002 9.6 10.3002 7.5 10.3002 4.8C10.3002 4.4 10.4002 4 10.5002 3.6H5.2002C4.80019 3.6 4.5002 3.8 4.3002 4C4.0002 4.2 3.9002 4.5 4.0002 4.8V13.3C4.3002 13.1 4.80019 13 5.2002 13ZM15.2002 8.4C15.6002 8.4 16.0002 8.3 16.4002 8.2C17.8002 7.7 18.8002 6.4 18.8002 4.9C18.8002 2.9 17.2002 1.3 15.2002 1.3C14.2002 1.3 13.3002 1.7 12.6002 2.4C12.2002 2.7 12.0002 3.1 11.8002 3.6C11.7002 3.9 11.6002 4.4 11.6002 4.8C11.6002 6.8 13.2002 8.4 15.2002 8.4ZM16.9002 5.4C17.2002 5.4 17.5002 5.1 17.5002 4.8C17.5002 4.5 17.3002 4.2 16.9002 4.2H15.8002V3.1C15.8002 2.8 15.6002 2.5 15.2002 2.5C14.9002 2.5 14.6002 2.7 14.6002 3.1V4.3H13.5002C13.2002 4.3 12.9002 4.6 12.9002 4.9C12.9002 5.2 13.2002 5.5 13.5002 5.5H14.6002V6.5C14.6002 6.8 14.9002 7.1 15.2002 7.1C15.5002 7.1 15.8002 6.9 15.8002 6.5V5.4H16.9002Z" fill="#171B1D" fill-opacity="0.3"/>
</svg>
