<svg width="14" height="14" viewBox="0 0 14 14" fill="none" xmlns="http://www.w3.org/2000/svg">
<g clip-path="url(#clip0_3338_2655)">
<path fill-rule="evenodd" clip-rule="evenodd" d="M7.8747 9.62512V12.2501H9.6247V13.1251H7.8747V14.0001H5.2497V13.1251H7.0007V10.5001H5.2497V9.62512H7.8747ZM4.375 9.62502V14H0V9.62502H4.375ZM13.1243 11.3747V12.2507H11.3753V13.9997H10.5003V11.3747H13.1243ZM14.001 13.125V14H12.25V13.125H14.001ZM3.5 10.5H0.875V13.125H3.5V10.5ZM2.626 11.374V12.25H1.75V11.374H2.626ZM6.126 11.374V12.25H5.25V11.374H6.126ZM9.625 9.62502V11.375H8.75V9.62502H9.625ZM14.001 9.62502V10.5H13.125V9.62502H14.001ZM11.375 7.87502V10.5H10.5V8.75002H9.625V7.87502H11.375ZM0.875 5.25022V7.00022H1.75V7.87422H0.875V8.75022H0V5.25022H0.875ZM8.75 6.99902V8.75002H7.875V6.99902H8.75ZM4.375 5.25002V7.00002H6.125V7.87502H7V8.75002H5.25V7.87502H3.5V8.75002H2.625V7.00002H3.5V5.25002H4.375ZM14.001 7.87402V8.75002H12.25V7.87402H14.001ZM11.3749 5.25022V6.12522H12.2499V5.25022H14.0009V6.12522H13.1249V7.00022H9.6249V6.12522H10.4999V5.25022H11.3749ZM8.75 4.37502V6.12502H5.25V5.25002H7.875V4.37502H8.75ZM2.626 5.25002V6.12502H1.75V5.25002H2.626ZM4.375 -0.000976562V4.37502H0V-0.000976562H4.375ZM14.001 -0.000976562V4.37502H9.625V-0.000976562H14.001ZM6.126 3.49902V4.37502H5.25V3.49902H6.126ZM3.5 0.875023H0.875V3.49902H3.5V0.875023ZM13.124 0.875023H10.5V3.49902H13.124V0.875023ZM6.1257 0.875323V1.75032H8.7497V2.62532H7.8747V3.49932H7.0007V2.62532H5.2497V0.875323H6.1257ZM2.626 1.75002V2.62502H1.75V1.75002H2.626ZM12.25 1.75002V2.62502H11.375V1.75002H12.25ZM8.75 -0.000976562V0.875023H7V-0.000976562H8.75Z" fill="white"/>
</g>
<defs>
<clipPath id="clip0_3338_2655">
<rect width="14" height="14" fill="white"/>
</clipPath>
</defs>
</svg>
