<svg width="16" height="16" viewBox="0 0 16 16" fill="none" xmlns="http://www.w3.org/2000/svg">
<path fill-rule="evenodd" clip-rule="evenodd" d="M0 8C0 9.781 3.634 14.5 8 14.5C12.366 14.5 16 9.781 16 8C16 6.219 12.366 1.5 8 1.5C3.634 1.5 0 6.219 0 8ZM1 8C1 6.887 4.061 2.5 8 2.5C11.939 2.5 15 6.887 15 8C15 9.113 11.939 13.5 8 13.5C4.061 13.5 1 9.113 1 8ZM6.05551 10.9101C6.63108 11.2947 7.30776 11.5 8 11.5C8.92825 11.5 9.8185 11.1313 10.4749 10.4749C11.1313 9.8185 11.5 8.92826 11.5 8C11.5 7.30777 11.2947 6.63108 10.9102 6.0555C10.5256 5.47993 9.97892 5.03133 9.33938 4.76642C8.69984 4.50151 7.9961 4.43221 7.31716 4.56725C6.63823 4.7023 6.0146 5.03564 5.52511 5.52512C5.03563 6.01461 4.7023 6.63825 4.56726 7.31719C4.43221 7.99612 4.50151 8.69985 4.76641 9.3394C5.03132 9.97894 5.47994 10.5256 6.05551 10.9101ZM6.61108 5.92133C7.0222 5.64662 7.50554 5.5 8 5.5C8.66304 5.5 9.29892 5.76339 9.76776 6.23223C10.2366 6.70107 10.5 7.33696 10.5 8C10.5 8.49445 10.3534 8.9778 10.0787 9.38893C9.80397 9.80005 9.41351 10.1205 8.95669 10.3097C8.49988 10.4989 7.99722 10.5484 7.51226 10.452C7.02731 10.3555 6.58187 10.1174 6.23223 9.76777C5.8826 9.41814 5.64449 8.97268 5.54803 8.48773C5.45157 8.00277 5.50108 7.50011 5.6903 7.04329C5.87952 6.58647 6.19996 6.19603 6.61108 5.92133Z" fill="#171B1D" fill-opacity="0.3"/>
</svg>
