<svg width="56" height="18" viewBox="0 0 56 18" fill="none" xmlns="http://www.w3.org/2000/svg">
<rect width="56" height="18" rx="9" fill="#333A3D"/>
<path fill-rule="evenodd" clip-rule="evenodd" d="M10.9492 7.66608L14.3985 9.21748L10.9492 3.49988V7.66608Z" fill="#BFBFBF"/>
<path fill-rule="evenodd" clip-rule="evenodd" d="M10.9492 11.4548L14.3985 9.49061L10.9492 8.00562V11.4548Z" fill="#8E8E8E"/>
<path fill-rule="evenodd" clip-rule="evenodd" d="M10.9805 11.8316V14.5L14.3053 9.87L10.9805 11.8316Z" fill="#C7C7C5"/>
<path fill-rule="evenodd" clip-rule="evenodd" d="M7.5 9.4903L10.9492 11.4548V8.00562L7.5 9.4903Z" fill="#BCBCBC"/>
<path fill-rule="evenodd" clip-rule="evenodd" d="M10.9802 14.5V11.8321L7.65527 9.87L10.9802 14.5Z" fill="white"/>
<path d="M7.5 9.21748L10.9492 7.66661V3.49988L7.5 9.21748Z" fill="white"/>
<path d="M7.5 9.21748L10.9492 7.66661V3.49988L7.5 9.21748Z" fill="white"/>
<path d="M25.3545 5H24.3701V12.9541H25.3545V5ZM19 8.38379C18.9956 10.1108 19.8701 11.1963 21.0742 11.1963C22.2652 11.1963 23.1441 10.1108 23.1485 8.38379C23.1441 6.66992 22.2652 5.58008 21.0742 5.58008C19.8701 5.58008 18.9956 6.66992 19 8.38379ZM19.9404 8.38379C19.9404 7.1709 20.4019 6.45898 21.0742 6.45898C21.7422 6.45898 22.1992 7.1709 22.1992 8.38379C22.1992 9.60547 21.7422 10.313 21.0742 10.3174C20.4019 10.313 19.9404 9.60547 19.9404 8.38379Z" fill="white"/>
<path d="M30.4924 5.7207H26.8625V11.0293H27.4953C28.9762 11.0293 29.9386 10.9854 31.0549 10.7656L30.9494 9.97461C29.965 10.1592 29.0905 10.2119 27.8468 10.2207V6.52051H30.4924V5.7207ZM30.0705 8.59473H32.1711V12.9541H33.1467V5H32.1711V7.79492H30.0705V8.59473Z" fill="white"/>
<path d="M40.8245 5H39.8577V12.9541H40.8245V5ZM34.637 6.48535H37.388V7.90039H34.6458V11.0732H35.3402C36.7684 11.0776 37.9549 11.0249 39.304 10.792L39.2161 9.99219C37.9769 10.1987 36.9002 10.2646 35.6478 10.2734V8.67383H38.3812V5.69434H34.637V6.48535Z" fill="white"/>
<path d="M45.5493 5.12305C43.8091 5.12744 42.6841 5.69434 42.6841 6.65234C42.6841 7.59277 43.8091 8.15527 45.5493 8.14648C47.3071 8.15527 48.4101 7.59277 48.4145 6.65234C48.4101 5.69434 47.3071 5.12744 45.5493 5.12305ZM41.937 9.41211H45.0659V10.1768H42.7895V12.8486H48.3003V10.1768H46.0327V9.41211H49.1792V8.62988H41.937V9.41211ZM43.7036 6.65234C43.6948 6.14697 44.3891 5.87451 45.5493 5.87891C46.7095 5.87451 47.4038 6.14697 47.4038 6.65234C47.4038 7.13574 46.7095 7.39941 45.5493 7.39941C44.3891 7.39941 43.6948 7.13574 43.7036 6.65234ZM43.7563 12.0576V10.9502H47.3511V12.0576H43.7563Z" fill="white"/>
</svg>
