<svg width="14" height="14" viewBox="0 0 14 14" fill="none" xmlns="http://www.w3.org/2000/svg">
<g clip-path="url(#clip0_4998_5046)">
<path fill-rule="evenodd" clip-rule="evenodd" d="M12 1H13.5C13.8 1 14 1.2 14 1.5C14 1.8 13.8 2 13.5 2H12.5V12.5C12.5 13.3 11.8 14 11 14H3C2.2 14 1.5 13.3 1.5 12.5V2H0.5C0.2 2 0 1.8 0 1.5C0 1.2 0.2 1 0.5 1H2H4.3L5.1 0.1C5.15 0.1 5.225 0.075 5.3 0.05C5.375 0.025 5.45 0 5.5 0H8.5C8.55 0 8.625 0.025 8.7 0.05C8.775 0.075 8.85 0.1 8.9 0.1L9.7 1H12ZM11 13C11.3 13 11.5 12.8 11.5 12.5V2H9.5H4.5H2.5V12.5C2.5 12.8 2.7 13 3 13H11ZM4 4C4 3.7 4.2 3.5 4.5 3.5C4.8 3.5 5 3.7 5 4V11C5 11.3 4.8 11.5 4.5 11.5C4.2 11.5 4 11.3 4 11V4ZM7 3.5C6.7 3.5 6.5 3.7 6.5 4V11C6.5 11.3 6.7 11.5 7 11.5C7.3 11.5 7.5 11.3 7.5 11V4C7.5 3.7 7.3 3.5 7 3.5ZM9 11V4C9 3.7 9.2 3.5 9.5 3.5C9.8 3.5 10 3.7 10 4V11C10 11.3 9.8 11.5 9.5 11.5C9.2 11.5 9 11.3 9 11Z" fill="#333A3D" fill-opacity="0.7"/>
</g>
<defs>
<clipPath id="clip0_4998_5046">
<rect width="14" height="14" fill="white"/>
</clipPath>
</defs>
</svg>
