<svg width="20" height="20" viewBox="0 0 20 20" fill="none" xmlns="http://www.w3.org/2000/svg">
<path fill-rule="evenodd" clip-rule="evenodd" d="M10 0C10.3943 0 10.7143 0.32 10.7143 0.714286C10.7143 1.10857 10.3943 1.42857 10 1.42857C5.27286 1.42857 1.42857 5.27286 1.42857 10C1.42857 14.7271 5.27286 18.5714 10 18.5714C10.3943 18.5714 10.7143 18.8914 10.7143 19.2857C10.7143 19.68 10.3943 20 10 20C4.48571 20 0 15.5129 0 10C0 4.48714 4.48571 0 10 0ZM14.1377 4.852C14.4163 4.57343 14.8691 4.57343 15.1477 4.852L19.7906 9.49343C19.8563 9.56057 19.9091 9.64057 19.9449 9.72629C20.0177 9.902 20.0177 10.0977 19.9449 10.2734C19.9091 10.3606 19.8563 10.4391 19.7906 10.5063L15.1477 15.1477C15.0077 15.2877 14.8263 15.3577 14.6434 15.3577C14.4606 15.3577 14.2777 15.2877 14.1377 15.1477C13.8591 14.8691 13.8591 14.4163 14.1377 14.1377L17.562 10.7149H7.85771C7.462 10.7149 7.14343 10.3949 7.14343 10.0006C7.14343 9.60486 7.462 9.28629 7.85771 9.28629H17.562L14.1377 5.862C13.8591 5.58343 13.8591 5.13057 14.1377 4.852Z" fill="#171B1D" fill-opacity="0.5"/>
</svg>
