<svg width="12" height="12" viewBox="0 0 12 12" fill="none" xmlns="http://www.w3.org/2000/svg">
<circle cx="6" cy="6" r="5.5" stroke="#171B1D" stroke-opacity="0.3"/>
<path fill-rule="evenodd" clip-rule="evenodd" d="M5.74522 8.37259C5.37322 8.37259 5.06722 8.64344 5.06722 9.01544C5.06722 9.38744 5.37322 9.66344 5.74522 9.66344C6.11722 9.66344 6.42322 9.38744 6.42322 9.01544C6.42322 8.64344 6.11722 8.37259 5.74522 8.37259ZM5.92608 2.57144C5.2635 2.57144 4.74579 2.74287 4.38922 3.04887C4.06265 3.33001 3.85693 3.7123 3.85693 4.05858C3.85693 4.30973 4.01293 4.50001 4.28379 4.50001C4.48436 4.50001 4.59493 4.4143 4.73036 4.18287C4.98151 3.69687 5.33808 3.47573 5.8755 3.47573C6.48322 3.47573 6.93065 3.84773 6.93065 4.36973C6.93065 4.82658 6.68979 5.08287 6.17208 5.49516C5.44865 6.07201 5.23779 6.40373 5.23779 7.03201C5.23779 7.32773 5.41865 7.53773 5.73493 7.53773C6.04693 7.53773 6.17722 7.36287 6.26293 7.07144C6.34779 6.60001 6.4935 6.4243 7.03608 5.99744C7.70379 5.47973 8.0655 5.05287 8.0655 4.33458C8.0655 3.25973 7.19122 2.57144 5.92608 2.57144Z" fill="#171B1D" fill-opacity="0.3"/>
</svg>
