<svg width="16" height="16" viewBox="0 0 16 16" fill="none" xmlns="http://www.w3.org/2000/svg">
<g clip-path="url(#clip0_3139_1589)">
<path fill-rule="evenodd" clip-rule="evenodd" d="M7.13039 0.0489018C7.72639 -0.0170982 8.33339 -0.0160982 8.93039 0.0529018C9.41239 0.108902 9.76839 0.531902 9.74039 1.0169C9.71239 1.5079 9.99639 1.9659 10.4484 2.1559C10.8694 2.3319 11.4444 2.2019 11.7534 1.8609C12.0784 1.5009 12.6294 1.4559 13.0074 1.7599C13.4754 2.1349 13.9014 2.5649 14.2754 3.0409C14.5714 3.4149 14.5274 3.9619 14.1744 4.2839C13.8164 4.6129 13.6984 5.1349 13.8804 5.5809C14.0594 6.0159 14.4874 6.2979 14.9704 6.2979C15.3974 6.2979 15.8934 6.6089 15.9494 7.1109C15.9504 7.1109 15.9504 7.1119 15.9504 7.1119L15.9824 7.47609C16.0142 7.96226 16.0024 8.4501 15.9464 8.9309C15.8894 9.4149 15.4614 9.7769 14.9694 9.7389C14.4534 9.7389 14.0224 10.0239 13.8444 10.4479C13.6554 10.8989 13.7744 11.4239 14.1394 11.7549C14.4994 12.0809 14.5424 12.6319 14.2374 13.0099C13.8574 13.4839 13.4214 13.9139 12.9434 14.2889C12.5604 14.5859 12.0264 14.5409 11.7014 14.1859C11.3924 13.8469 10.8224 13.7159 10.4004 13.8879C9.95539 14.0709 9.66839 14.5199 9.68539 15.0069C9.70139 15.4849 9.34239 15.8989 8.86939 15.9509C8.57739 15.9839 8.28439 15.9999 7.99039 15.9999C7.68239 15.9999 7.37539 15.9819 7.06939 15.9469C6.58639 15.8909 6.23039 15.4669 6.25939 14.9819L6.25998 14.86C6.23889 14.4166 5.96573 14.0182 5.55139 13.8449C5.12939 13.6669 4.55639 13.7979 4.24539 14.1399C3.91839 14.4999 3.36739 14.5429 2.99039 14.2389C2.52139 13.8619 2.09439 13.4309 1.72339 12.9579C1.42939 12.5849 1.47339 12.0379 1.82439 11.7159C2.18439 11.3859 2.30239 10.8649 2.11939 10.4199C1.93839 9.9779 1.48239 9.6589 1.05139 9.7019C0.606392 9.7019 0.105392 9.3909 0.0493921 8.8879C-0.0176079 8.2819 -0.0166079 7.6699 0.0533921 7.0689C0.111392 6.5839 0.484392 6.2509 0.999392 6.2589C1.51439 6.2589 1.97439 5.9819 2.15439 5.5519C2.34339 5.1009 2.22539 4.5749 1.86039 4.2449C1.50139 3.9169 1.45939 3.3669 1.76139 2.9899C2.13939 2.5189 2.57539 2.0879 3.05639 1.7109C3.43239 1.4149 3.97839 1.4629 4.29939 1.8149C4.60739 2.1539 5.17839 2.2829 5.59839 2.1119C6.04339 1.9289 6.33239 1.4789 6.31539 0.991902C6.29839 0.514902 6.65739 0.100902 7.13039 0.0489018ZM8.73839 1.0379C8.26539 0.988902 7.78739 0.986902 7.31539 1.0349C7.31539 1.9079 6.78439 2.7059 5.97639 3.0369C5.18939 3.3589 4.21039 3.1499 3.61339 2.5449C3.23739 2.8469 2.89339 3.1869 2.58939 3.5579C3.22239 4.1739 3.41939 5.1209 3.07639 5.9389C2.74639 6.7249 1.95039 7.2389 1.03839 7.2589C0.985392 7.7599 0.987392 8.2699 1.04439 8.7779C1.90339 8.6849 2.70639 9.2179 3.04439 10.0399C3.37639 10.8479 3.17939 11.7859 2.55739 12.3989C2.85439 12.7699 3.19039 13.1099 3.55739 13.4119C4.15939 12.7979 5.14739 12.5919 5.93839 12.9229C6.75439 13.2639 7.27939 14.0769 7.26139 14.9619C7.73239 15.0109 8.20939 15.0129 8.68439 14.9659C8.68439 14.0919 9.21339 13.2939 10.0224 12.9629C10.8094 12.6419 11.7894 12.8499 12.3854 13.4549C12.7594 13.1559 13.1044 12.8149 13.4104 12.4419C12.7764 11.8239 12.5794 10.8779 12.9224 10.0609C13.2544 9.2699 14.0564 8.7379 14.9184 8.7379C14.9194 8.7379 14.9394 8.7389 14.9614 8.7389C15.0114 8.2669 15.0124 7.7859 14.9654 7.3089C14.0654 7.2879 13.2854 6.7649 12.9554 5.9599C12.6244 5.1509 12.8214 4.2129 13.4434 3.6009C13.1434 3.2279 12.8074 2.8879 12.4414 2.5889C11.8414 3.2019 10.8524 3.4069 10.0614 3.0779C9.24339 2.7339 8.72039 1.9209 8.73839 1.0379ZM8.01169 5.0142C9.66669 5.0142 11.0137 6.3612 11.0137 8.0162C11.0137 9.6702 9.66669 11.0172 8.01169 11.0172C6.35669 11.0172 5.01069 9.6702 5.01069 8.0162C5.01069 6.3612 6.35669 5.0142 8.01169 5.0142ZM8.01169 6.0142C6.90769 6.0142 6.01069 6.9122 6.01069 8.0162C6.01069 9.1192 6.90769 10.0172 8.01169 10.0172C9.11569 10.0172 10.0137 9.1192 10.0137 8.0162C10.0137 6.9122 9.11569 6.0142 8.01169 6.0142Z" fill="#171B1D" fill-opacity="0.3"/>
</g>
<defs>
<clipPath id="clip0_3139_1589">
<rect width="16" height="16" fill="white"/>
</clipPath>
</defs>
</svg>
