<svg width="16" height="16" viewBox="0 0 16 16" fill="none" xmlns="http://www.w3.org/2000/svg">
<path fill-rule="evenodd" clip-rule="evenodd" d="M6.75 8.75C7.026 8.75 7.25 8.974 7.25 9.25V14.75C7.25 15.026 7.026 15.25 6.75 15.25H1.25C0.974 15.25 0.75 15.026 0.75 14.75V9.25C0.75 8.974 0.974 8.75 1.25 8.75H6.75ZM14.75 8.75C15.026 8.75 15.25 8.974 15.25 9.25V14.75C15.25 15.026 15.026 15.25 14.75 15.25H9.25C8.974 15.25 8.75 15.026 8.75 14.75V9.25C8.75 8.974 8.974 8.75 9.25 8.75H14.75ZM6.25 9.75H1.75V14.25H6.25V9.75ZM14.25 9.75H9.75V14.25H14.25V9.75ZM6.75 0.75C7.026 0.75 7.25 0.974 7.25 1.25V6.75C7.25 7.026 7.026 7.25 6.75 7.25H1.25C0.974 7.25 0.75 7.026 0.75 6.75V1.25C0.75 0.974 0.974 0.75 1.25 0.75H6.75ZM14.75 0.75C15.026 0.75 15.25 0.974 15.25 1.25V6.75C15.25 7.026 15.026 7.25 14.75 7.25H9.25C8.974 7.25 8.75 7.026 8.75 6.75V1.25C8.75 0.974 8.974 0.75 9.25 0.75H14.75ZM6.25 1.75H1.75V6.25H6.25V1.75ZM14.25 1.75H9.75V6.25H14.25V1.75Z" fill="#171B1D" fill-opacity="0.3"/>
</svg>
