<svg width="16" height="16" viewBox="0 0 16 16" fill="none" xmlns="http://www.w3.org/2000/svg">
<g clip-path="url(#clip0_3139_1584)">
<path fill-rule="evenodd" clip-rule="evenodd" d="M13.4998 6.81349V14.3135H8.57876V10.8135C8.57876 10.5375 8.35476 10.3135 8.07876 10.3135C7.80176 10.3135 7.57876 10.5375 7.57876 10.8135V14.3135H2.49976V6.81349C2.49976 6.78249 2.48776 6.75449 2.48176 6.72549L7.99976 1.20749L13.5178 6.72549C13.5118 6.75449 13.4998 6.78249 13.4998 6.81349ZM15.8538 7.64649L8.35376 0.146494C8.15776 -0.0485059 7.84176 -0.0485059 7.64576 0.146494L0.145762 7.64649C-0.0492383 7.84149 -0.0492383 8.15849 0.145762 8.35349C0.341762 8.54849 0.657762 8.54849 0.853762 8.35349L1.49976 7.70749V14.8135C1.49976 15.0895 1.72376 15.3135 1.99976 15.3135H13.9998C14.2758 15.3135 14.4998 15.0895 14.4998 14.8135V7.70749L15.1458 8.35349C15.2438 8.45149 15.3718 8.50049 15.4998 8.50049C15.6278 8.50049 15.7558 8.45149 15.8538 8.35349C16.0488 8.15849 16.0488 7.84149 15.8538 7.64649Z" fill="#171B1D" fill-opacity="0.3"/>
</g>
<defs>
<clipPath id="clip0_3139_1584">
<rect width="16" height="16" fill="white"/>
</clipPath>
</defs>
</svg>
