<svg width="12" height="12" viewBox="0 0 12 12" fill="none" xmlns="http://www.w3.org/2000/svg">
<path d="M6.67071 1.42461L7.6383 3.38037C7.75153 3.59654 7.9574 3.75094 8.20444 3.79211L10.3558 4.10092C10.9734 4.19356 11.2205 4.94499 10.7675 5.37732L9.20292 6.89046C9.02793 7.06545 8.94558 7.31249 8.98675 7.55954L9.35732 9.71088C9.46026 10.3182 8.82206 10.7814 8.2765 10.4932L6.34131 9.48442C6.12515 9.3712 5.85752 9.3712 5.64135 9.48442L3.71646 10.4932C3.1709 10.7814 2.5327 10.3182 2.63564 9.70059L3.00621 7.54925C3.04738 7.3022 2.96503 7.05516 2.79004 6.89046L1.22542 5.37732C0.782801 4.94499 1.02985 4.19356 1.63717 4.10092L3.78852 3.79211C4.03556 3.76123 4.24143 3.60683 4.35466 3.38037L5.32225 1.42461C5.60018 0.858464 6.39278 0.858464 6.67071 1.42461Z" fill="#3382FF"/>
</svg>
