<svg width="24" height="24" viewBox="0 0 24 24" fill="none" xmlns="http://www.w3.org/2000/svg">
<path d="M21.9052 8.66064L18 3.61752C17.5994 3.20584 17.0987 3 16.5981 3H11.9918H7.38562C6.88494 3 6.38427 3.20584 5.98372 3.61752L2.07845 8.66064C1.3775 9.38109 1.27737 10.6161 1.97832 11.4395L10.4898 20.8053C11.2909 21.7316 12.7929 21.7316 13.594 20.8053L22.1055 11.4395C22.7063 10.6161 22.6062 9.38109 21.9052 8.66064ZM11.8917 9.99861C9.28819 10.9249 9.68873 10.5132 8.78751 13.1892C8.68738 13.395 8.38697 13.395 8.38697 13.1892C7.48575 10.5132 7.88629 10.9249 5.28278 9.99861C5.08251 9.89569 5.08251 9.58693 5.28278 9.58693C7.88629 8.66064 7.48575 9.07232 8.38697 6.39638C8.28683 6.08762 8.58724 6.08762 8.68738 6.29346C9.58859 8.9694 9.18805 8.55772 11.7916 9.48401C11.9918 9.68985 11.9918 9.89569 11.8917 9.99861Z" fill="#C3CED3"/>
</svg>
