<svg width="16" height="16" viewBox="0 0 16 16" fill="none" xmlns="http://www.w3.org/2000/svg">
<path fill-rule="evenodd" clip-rule="evenodd" d="M12 0C14.2091 0 16 1.79086 16 4V12C16 14.2091 14.2091 16 12 16H4C1.79086 16 0 14.2091 0 12V4C0 1.79086 1.79086 0 4 0H12ZM12 1H4C2.40232 1 1.09634 2.24892 1.00509 3.82373L1 4V12C1 13.5977 2.24892 14.9037 3.82373 14.9949L4 15H12C13.5977 15 14.9037 13.7511 14.9949 12.1763L15 12V4C15 2.40232 13.7511 1.09634 12.1763 1.00509L12 1ZM7.8615 11.2765C8.0835 11.2765 8.2515 11.3395 8.3665 11.4665C8.4815 11.5935 8.5395 11.7495 8.5395 11.9365C8.5395 12.1235 8.4815 12.2785 8.3665 12.4005C8.2515 12.5225 8.0835 12.5835 7.8615 12.5835C7.6395 12.5835 7.4715 12.5225 7.3585 12.4005C7.2465 12.2785 7.1895 12.1235 7.1895 11.9365C7.1895 11.7495 7.2465 11.5935 7.3585 11.4665C7.4715 11.3395 7.6395 11.2765 7.8615 11.2765ZM8.0335 3.4155C8.8105 3.4155 9.4165 3.6245 9.8495 4.0405C10.2835 4.4575 10.5005 5.0295 10.5005 5.7545C10.5005 6.4725 10.1675 7.1815 9.5015 7.8785L8.8295 8.5425C8.5285 8.8755 8.3795 9.3545 8.3795 9.9785H7.2385C7.2465 9.4905 7.3025 9.1045 7.4055 8.8205C7.5075 8.5385 7.7175 8.2235 8.0335 7.8785L8.8415 7.0475C9.1875 6.6585 9.3595 6.2405 9.3595 5.7935C9.3595 5.3625 9.2465 5.0255 9.0205 4.7815C8.7935 4.5375 8.4655 4.4155 8.0335 4.4155C7.6145 4.4155 7.2775 4.5265 7.0225 4.7485C6.7685 4.9695 6.6405 5.2685 6.6405 5.6415H5.5005C5.5075 4.9755 5.7455 4.4385 6.2115 4.0305C6.6785 3.6215 7.2865 3.4155 8.0335 3.4155Z" fill="#171B1D" fill-opacity="0.3"/>
</svg>
