<svg width="24" height="24" viewBox="0 0 24 24" fill="none" xmlns="http://www.w3.org/2000/svg">
<path fill-rule="evenodd" clip-rule="evenodd" d="M16.9997 10.9998C20.3137 10.9998 22.9997 13.6868 22.9997 16.9998C22.9997 20.3138 20.3137 22.9998 16.9997 22.9998C13.6867 22.9998 10.9997 20.3138 10.9997 16.9998C10.9997 13.6868 13.6867 10.9998 16.9997 10.9998ZM10.561 19.7508C10.7502 20.1929 10.9835 20.6116 11.2555 21.0013L8.5 21V19.75L10.561 19.7508ZM7.25 14.749V21H1V14.749H7.25ZM16.9994 14.0125L16.5124 14.4995L16.5 14.5L16.4994 14.5125L14.0854 16.9265L14.7924 17.6335L16.4994 15.9265L16.5 20H17.5L17.4994 15.9265L19.2074 17.6335L19.9144 16.9265L17.4994 14.5125L17.5 14.5L17.4864 14.4995L16.9994 14.0125ZM6 16H2.25V19.75H6V16ZM4.75 17.25V18.5H3.5V17.25H4.75ZM9.75 17.25V18.5H8.5V17.25H9.75ZM10.3691 14.7505C10.2329 15.1519 10.1322 15.5696 10.0706 16L8.5 16V14.75L10.3691 14.7505ZM7.25 8.5V11H9.75V12.25H11L10.9997 13.3929C10.9783 13.4284 10.9573 13.464 10.9365 13.4999L8.5 13.5V12.25H6V13.5H4.75V11H6V8.5H7.25ZM2.25 8.5001V11.0001H3.5V12.2501H2.25V13.4991H1V8.5001H2.25ZM21 8.5L21.0012 11.2556C20.6115 10.9836 20.1928 10.7503 19.7507 10.5611L19.75 9.75H17.25V8.5H21ZM13.5 7.25V9.75H8.5V8.5H12.25V7.25H13.5ZM4.75 8.5V9.75H3.5V8.5H4.75ZM16 8.5V9.75H14.75V8.5H16ZM7.25 1V7.25H1V1H7.25ZM21 1V7.25H14.75V1H21ZM9.75 6V7.25H8.5V6H9.75ZM6 2.25H2.25V6H6V2.25ZM19.749 2.25H16V6H19.749V2.25ZM9.75 2.25V3.5H13.5V4.75H12.25V6H11V4.75H8.5V2.25H9.75ZM4.75 3.5V4.75H3.5V3.5H4.75ZM18.5 3.5V4.75H17.25V3.5H18.5ZM13.5 1.001V2.25H11V1.001H13.5Z" fill="#333A3D"/>
</svg>
