<svg width="16" height="16" viewBox="0 0 16 16" fill="none" xmlns="http://www.w3.org/2000/svg">
<g clip-path="url(#clip0_3561_2824)">
<path fill-rule="evenodd" clip-rule="evenodd" d="M8 15C11.6979 15 14.726 12.1326 14.9824 8.5H12.2691C12.023 10.4731 10.3398 12 8.3 12C6.09086 12 4.3 10.2091 4.3 8C4.3 5.79086 6.09086 4 8.3 4C10.3398 4 12.023 5.52685 12.2691 7.5H14.9824C14.726 3.86736 11.6979 0.999999 8 0.999999C4.13401 0.999999 1 4.13401 1 8C1 11.866 4.13401 15 8 15ZM8.3 11C9.7865 11 11.0205 9.91883 11.2585 8.5H8V7.5H11.2585C11.0205 6.08114 9.7865 5 8.3 5C6.64315 5 5.3 6.34315 5.3 8C5.3 9.65683 6.64315 11 8.3 11ZM16 8C16 12.4182 12.4183 16 8 16C3.58172 16 0 12.4182 0 8C0 3.58172 3.58172 0 8 0C12.4183 0 16 3.58172 16 8ZM8 1.5C7.44772 1.5 7 1.94772 7 2.5C7 3.05229 7.44772 3.5 8 3.5C8.55229 3.5 9 3.05229 9 2.5C9 1.94772 8.55229 1.5 8 1.5ZM7 13.5C7 12.9477 7.44772 12.5 8 12.5C8.55229 12.5 9 12.9477 9 13.5C9 14.0523 8.55229 14.5 8 14.5C7.44772 14.5 7 14.0523 7 13.5ZM3.40388 3.40381C3.01336 3.79434 3.01336 4.4275 3.40388 4.81803C3.79441 5.20855 4.42757 5.20855 4.8181 4.81803C5.20862 4.4275 5.20862 3.79434 4.8181 3.40381C4.42757 3.01329 3.79441 3.01329 3.40388 3.40381ZM2.5 8.99995C1.94772 8.99995 1.5 8.55223 1.5 7.99995C1.5 7.44766 1.94772 6.99995 2.5 6.99995C3.05228 6.99995 3.5 7.44766 3.5 7.99995C3.5 8.55223 3.05228 8.99995 2.5 8.99995ZM3.40373 12.5961C3.79426 12.9867 4.42742 12.9867 4.81795 12.5961C5.20847 12.2056 5.20847 11.5724 4.81795 11.1819C4.42742 10.7914 3.79426 10.7914 3.40373 11.1819C3.01321 11.5724 3.01321 12.2056 3.40373 12.5961Z" fill="#171B1D" fill-opacity="0.3"/>
</g>
<defs>
<clipPath id="clip0_3561_2824">
<rect width="16" height="16" fill="white"/>
</clipPath>
</defs>
</svg>
