<svg width="16" height="16" viewBox="0 0 16 16" fill="none" xmlns="http://www.w3.org/2000/svg">
<path fill-rule="evenodd" clip-rule="evenodd" d="M12.651 9.71578H11.6545V7.4486C11.6545 6.92657 11.3532 6.64609 10.8897 6.64609C10.3722 6.64609 10.04 6.96537 10.04 7.6121V9.71578H9.04337V4.17037H10.04V6.25635C10.2794 5.89033 10.6657 5.71106 11.191 5.71106C11.6159 5.71106 11.9635 5.8513 12.2338 6.13949C12.512 6.42779 12.651 6.81742 12.651 7.3238V9.71578ZM5.48594 8.76952C6.22112 8.76952 6.84998 8.32577 7.03898 7.64001H8.1265C7.86056 8.95968 6.84233 9.82459 5.48594 9.82459C3.90961 9.82459 2.65975 8.63904 2.65975 6.98874C2.65975 5.33845 3.90961 4.15279 5.48594 4.15279C6.85595 4.15279 7.88137 5.03517 8.1346 6.37753H7.05012C6.8852 5.64764 6.23484 5.19277 5.48594 5.19277C4.42598 5.19277 3.72106 5.95534 3.72106 6.98874C3.72106 8.02215 4.52261 8.76952 5.48594 8.76952ZM8.00006 0C3.85786 0 0.5 3.13254 0.5 6.99657C0.5 9.85046 1.68517 11.2128 3.3083 12.4548L3.31606 12.4582V15.8074C3.31606 15.9654 3.49471 16.056 3.6206 15.9617L6.46468 13.831L6.52587 13.8578C7.00264 13.9464 7.4955 13.9933 8.00006 13.9933C12.1423 13.9933 15.5 10.8607 15.5 6.99657C15.5 3.13254 12.1423 0 8.00006 0Z" fill="#231916"/>
</svg>
