<svg width="22" height="22" viewBox="0 0 22 22" fill="none" xmlns="http://www.w3.org/2000/svg">
<path d="M11 22C17.0751 22 22 17.0751 22 11C22 4.92487 17.0751 0 11 0C4.92487 0 0 4.92487 0 11C0 17.0751 4.92487 22 11 22Z" fill="#C3CED3"/>
<path fill-rule="evenodd" clip-rule="evenodd" d="M11 5.5C11.5063 5.5 11.9167 5.91041 11.9167 6.41667L11.916 10.083L15.5833 10.0833C16.0896 10.0833 16.5 10.4937 16.5 11C16.5 11.5063 16.0896 11.9167 15.5833 11.9167L11.916 11.916L11.9167 15.5833C11.9167 16.0896 11.5063 16.5 11 16.5C10.4937 16.5 10.0833 16.0896 10.0833 15.5833L10.083 11.916L6.41667 11.9167C5.91041 11.9167 5.5 11.5063 5.5 11C5.5 10.4937 5.91041 10.0833 6.41667 10.0833L10.083 10.083L10.0833 6.41667C10.0833 5.91041 10.4937 5.5 11 5.5Z" fill="white"/>
</svg>
