<svg width="16" height="16" viewBox="0 0 16 16" fill="none" xmlns="http://www.w3.org/2000/svg">
<path fill-rule="evenodd" clip-rule="evenodd" d="M2.85714 10.8571C1.28229 10.8571 0 9.576 0 8C0 6.424 1.28229 5.14286 2.85714 5.14286C3.7677 5.14286 4.58045 5.57114 5.10409 6.23706L10.3829 3.59735C10.3195 3.3612 10.2857 3.11306 10.2857 2.85714C10.2857 1.28114 11.568 0 13.1429 0C14.7177 0 16 1.28114 16 2.85714C16 4.43314 14.7177 5.71429 13.1429 5.71429C12.2323 5.71429 11.4196 5.28601 10.8959 4.62008L5.61678 7.25864C5.68036 7.49513 5.71429 7.74367 5.71429 8C5.71429 8.34179 5.65398 8.66971 5.54345 8.9737L10.7532 11.5782C11.2644 10.8002 12.1449 10.2857 13.1429 10.2857C14.7177 10.2857 16 11.5669 16 13.1429C16 14.7189 14.7177 16 13.1429 16C11.568 16 10.2857 14.7189 10.2857 13.1429C10.2857 12.9729 10.3006 12.8063 10.3292 12.6445L4.94161 9.95211L4.81326 10.0807C4.3016 10.562 3.61307 10.8571 2.85714 10.8571ZM13.1429 11.4286C12.1977 11.4286 11.4286 12.1977 11.4286 13.1429C11.4286 14.088 12.1977 14.8571 13.1429 14.8571C14.088 14.8571 14.8571 14.088 14.8571 13.1429C14.8571 12.1977 14.088 11.4286 13.1429 11.4286ZM2.85714 6.28571C1.912 6.28571 1.14286 7.05486 1.14286 8C1.14286 8.94514 1.912 9.71429 2.85714 9.71429C3.80229 9.71429 4.57143 8.94514 4.57143 8C4.57143 7.05486 3.80229 6.28571 2.85714 6.28571ZM13.1429 1.14286C12.1977 1.14286 11.4286 1.912 11.4286 2.85714C11.4286 3.80229 12.1977 4.57143 13.1429 4.57143C14.088 4.57143 14.8571 3.80229 14.8571 2.85714C14.8571 1.912 14.088 1.14286 13.1429 1.14286Z" fill="white"/>
</svg>
