<svg width="16" height="16" viewBox="0 0 16 16" fill="none" xmlns="http://www.w3.org/2000/svg">
<path fill-rule="evenodd" clip-rule="evenodd" d="M14.5 0C14.776 0 15 0.224 15 0.5V15.5C15 15.776 14.776 16 14.5 16H1.5C1.224 16 1 15.776 1 15.5V0.5C1 0.224 1.224 0 1.5 0H14.5ZM5 1H2V15H14V1H11V2.5C11 2.776 10.776 3 10.5 3H5.5C5.224 3 5 2.776 5 2.5V1ZM6.6787 11.5C6.9547 11.5 7.1787 11.724 7.1787 12C7.1787 12.276 6.9547 12.5 6.6787 12.5H3.9997C3.7237 12.5 3.4997 12.276 3.4997 12C3.4997 11.724 3.7237 11.5 3.9997 11.5H6.6787ZM12 8.5C12.276 8.5 12.5 8.724 12.5 9C12.5 9.276 12.276 9.5 12 9.5H4C3.724 9.5 3.5 9.276 3.5 9C3.5 8.724 3.724 8.5 4 8.5H12ZM12 5.5C12.276 5.5 12.5 5.724 12.5 6C12.5 6.276 12.276 6.5 12 6.5H4C3.724 6.5 3.5 6.276 3.5 6C3.5 5.724 3.724 5.5 4 5.5H12ZM10 1H6V2H10V1Z" fill="#171B1D" fill-opacity="0.3"/>
</svg>
