<svg width="16" height="16" viewBox="0 0 16 16" fill="none" xmlns="http://www.w3.org/2000/svg">
<path fill-rule="evenodd" clip-rule="evenodd" d="M14.5 0C15.33 0 16 0.67 16 1.5V9.5C16 10.09 15.67 10.59 15.18 10.83L15.98 13.35C16.04 13.56 15.96 13.79 15.78 13.91C15.7 13.97 15.6 14 15.5 14C15.39 14 15.27 13.96 15.18 13.89L11.65 11H10V12C10 12.83 9.33 13.5 8.5 13.5H3.74L0.82 15.89C0.73 15.96 0.61 16 0.5 16C0.4 16 0.3 15.97 0.22 15.91C0.04 15.79 -0.04 15.56 0.02 15.35L0.69 13.25C0.27 13 0 12.53 0 12V7C0 6.17 0.67 5.5 1.5 5.5H3V1.5C3 0.67 3.67 0 4.5 0H14.5ZM3 6.5H1.5C1.22 6.5 1 6.72 1 7V12C1 12.06 1.01 12.12 1.03 12.17C1.1 12.36 1.28 12.5 1.5 12.5H1.98L1.66 13.5L1.49 14.05L2.16 13.5L3.38 12.5H8.5C8.78 12.5 9 12.28 9 12V11H4.5C4.06 11 3.66 10.81 3.39 10.5C3.15 10.24 3 9.89 3 9.5V6.5ZM14.5 1H4.5C4.22 1 4 1.22 4 1.5V9.5C4 9.78 4.22 10 4.5 10H12.01L13.23 11L14.51 12.05L14.18 11L13.86 10H14.5C14.64 10 14.77 9.94 14.87 9.85C14.95 9.76 15 9.64 15 9.5V1.5C15 1.22 14.78 1 14.5 1ZM6.8799 4.7998C7.2699 4.7998 7.5999 5.1108 7.6199 5.4998C7.6299 5.5198 7.6299 5.5298 7.6299 5.5498C7.6299 5.9598 7.2899 6.2998 6.8799 6.2998C6.4599 6.2998 6.1299 5.9598 6.1299 5.5498V5.4998C6.1599 5.1108 6.4799 4.7998 6.8799 4.7998ZM9.5 4.7998C9.91 4.7998 10.25 5.1398 10.25 5.5498C10.25 5.8608 10.06 6.1298 9.79 6.2398H9.78C9.69 6.2798 9.6 6.2998 9.5 6.2998C9.09 6.2998 8.75 5.9598 8.75 5.5498V5.5298C8.76 5.1298 9.1 4.7998 9.5 4.7998ZM12.125 4.7998C12.539 4.7998 12.875 5.1358 12.875 5.5498C12.875 5.9638 12.539 6.2998 12.125 6.2998C11.711 6.2998 11.375 5.9638 11.375 5.5498C11.375 5.1358 11.711 4.7998 12.125 4.7998Z" fill="#171B1D" fill-opacity="0.3"/>
</svg>
