<svg width="24" height="24" viewBox="0 0 24 24" fill="none" xmlns="http://www.w3.org/2000/svg">
<g clip-path="url(#clip0_3410_2709)">
<path fill-rule="evenodd" clip-rule="evenodd" d="M3.42837 7.28554L-0.000198364 12.4284H2.57209C2.57209 17.6278 6.80123 21.857 12.0007 21.857C14.0904 21.857 16.0909 21.1541 17.7898 19.8255C18.0058 19.6558 18.1172 19.4038 18.1172 19.1501C18.1172 18.965 18.0572 18.7798 17.9355 18.6221C17.6441 18.2501 17.1041 18.185 16.7304 18.4764C15.3401 19.5667 13.7047 20.1427 12.0007 20.1427C7.7458 20.1427 4.28637 16.6833 4.28637 12.4284H6.85866L3.42837 7.28554ZM12.0001 3C9.90872 3 7.90815 3.70286 6.211 5.03143C5.83729 5.32286 5.77386 5.86114 6.06529 6.23486C6.35672 6.60686 6.895 6.67371 7.26872 6.38057C8.66072 5.29029 10.2961 4.71429 12.0001 4.71429C16.2533 4.71429 19.7144 8.17543 19.7144 12.4286L17.1416 12.4284L20.5719 17.5713L24.0005 12.4284L21.4287 12.4286C21.4287 7.22914 17.1979 3 12.0001 3Z" fill="#171B1D" fill-opacity="0.5"/>
</g>
<defs>
<clipPath id="clip0_3410_2709">
<rect width="24" height="24" fill="white"/>
</clipPath>
</defs>
</svg>
