<svg width="56" height="18" viewBox="0 0 56 18" fill="none" xmlns="http://www.w3.org/2000/svg">
<rect width="56" height="18" rx="9" fill="#F03465"/>
<g clip-path="url(#clip0_6622_5861)">
<path fill-rule="evenodd" clip-rule="evenodd" d="M11.1624 4.41663C12.1799 4.45082 13.1567 4.82438 13.9375 5.47789L8.82426 10.5921L11.1624 4.41663ZM11.5844 8.99915L14.5208 6.06183C15.2074 6.88646 15.5833 7.92574 15.5832 8.99894C15.5831 10.0721 15.2069 11.1113 14.5201 11.9358L11.5844 8.99915ZM10.0136 5.12186L6.42591 8.7101C6.35187 9.8637 6.71709 11.0026 7.44817 11.8978L10.0136 5.12186ZM8.06405 12.5199L11.0004 9.58259L13.9368 12.5199C13.1125 13.207 12.0734 13.5833 11.0004 13.5833C9.92743 13.5833 8.88838 13.207 8.06405 12.5199Z" fill="white"/>
</g>
<path d="M25.3545 5.3252H19.8789V6.09863H24.3789C24.3789 6.2832 24.3789 6.46777 24.3701 6.66113L19.6768 6.77539L19.791 7.53125L24.3306 7.34229C24.3042 7.58838 24.269 7.84766 24.2163 8.12891H19V8.91113H26.207V8.12891H25.1875C25.3589 7.28076 25.3589 6.604 25.3545 5.98438V5.3252ZM19.7998 10.2295H24.4229V10.7744H19.8174V12.8486H25.6797V12.084H20.7842V11.4863H25.3984V9.48242H19.7998V10.2295Z" fill="white"/>
<path d="M29.7716 5.82617H26.9416V6.6084H28.8312V7.9707H26.9503V11.0469H27.5041C28.5016 11.0425 29.3981 11.0249 30.466 10.8271L30.3869 10.0273C29.486 10.1899 28.7082 10.2251 27.8908 10.2339V8.74414H29.7716V5.82617ZM30.1232 8.55957H30.9933V12.541H31.9162V5.16699H30.9933V7.75977H30.1232V8.55957ZM32.6193 12.9453H33.5509V5H32.6193V12.9453Z" fill="white"/>
<path d="M41.053 5H40.0687V12.9541H41.053V5ZM34.6985 8.38379C34.6942 10.1108 35.5687 11.1963 36.7728 11.1963C37.9637 11.1963 38.8426 10.1108 38.847 8.38379C38.8426 6.66992 37.9637 5.58008 36.7728 5.58008C35.5687 5.58008 34.6942 6.66992 34.6985 8.38379ZM35.639 8.38379C35.639 7.1709 36.1004 6.45898 36.7728 6.45898C37.4407 6.45898 37.8978 7.1709 37.8978 8.38379C37.8978 9.60547 37.4407 10.313 36.7728 10.3174C36.1004 10.313 35.639 9.60547 35.639 8.38379Z" fill="white"/>
<path d="M49.4165 9.33301H42.1567V10.1064H49.4165V9.33301ZM43.0708 12.7871H48.6694V11.9961H44.0288V10.5635H43.0708V12.7871ZM43.0883 8.75293H48.6079V8.00586H44.0639V7.37305H48.353V6.64355H44.0639V6.02832H48.5464V5.27246H43.0883V8.75293Z" fill="white"/>
<defs>
<clipPath id="clip0_6622_5861">
<rect width="10" height="10" fill="white" transform="translate(6 4)"/>
</clipPath>
</defs>
</svg>
