<svg width="16" height="16" viewBox="0 0 16 16" fill="none" xmlns="http://www.w3.org/2000/svg">
<path d="M15.9906 5.77236C15.9906 5.74909 16 5.72582 16 5.69091C16 5.53964 15.9529 5.41164 15.8776 5.30691L13.28 0.302545C13.1953 0.116364 13.0353 0 12.8659 0H9.6C9.59059 0 9.58118 0 9.58118 0H6.4C6.39059 0 6.39059 0 6.38118 0H3.13412C2.96471 0 2.80471 0.116364 2.72 0.302545L0.122353 5.30691C0.0470588 5.41164 0 5.53964 0 5.69091C0 5.72582 0.00941176 5.74909 0.00941176 5.77236C0.00941176 5.81891 0.0188235 5.85382 0.0282353 5.88873C0.0376471 5.92364 0.0564706 5.94691 0.0658824 5.98182C0.0941176 6.04 0.103529 6.10982 0.150588 6.168L7.68 15.8487C7.68941 15.8604 7.69882 15.8604 7.69882 15.872C7.72706 15.9069 7.76471 15.9302 7.80235 15.9535C7.82118 15.9651 7.84941 15.9767 7.87765 15.9884C7.90588 16 7.93412 16 7.95294 16H7.96235C8 16 8.03765 16 8.06588 15.9884C8.10353 15.9767 8.14118 15.9651 8.17882 15.9418C8.18824 15.9302 8.20706 15.9185 8.21647 15.9069C8.23529 15.8953 8.24471 15.872 8.26353 15.8604L15.7929 6.17964C15.84 6.13309 15.8494 6.06327 15.8682 5.99345C15.8776 5.97018 15.8965 5.93527 15.9059 5.912C15.9812 5.85382 15.9812 5.81891 15.9906 5.77236ZM12.5835 1.16364L14.7294 5.10909H12.1129L10.0259 1.16364H12.5835ZM7 1.16364H9L11.0776 5.10909H4.92235L7 1.16364ZM3.41647 1.16364H5.96471L3.89647 5.10909H1.28L3.41647 1.16364ZM1.62824 6.27273H3.91529L6.23059 12.5789L1.62824 6.27273ZM8 14.1964L4.98824 6.27273H11.0118L8 14.1964ZM12.0847 6.27273H14.3812L9.77882 12.5905L12.0847 6.27273Z" fill="#171B1D" fill-opacity="0.3"/>
</svg>
