<svg width="16" height="16" viewBox="0 0 16 16" fill="none" xmlns="http://www.w3.org/2000/svg">
<path fill-rule="evenodd" clip-rule="evenodd" d="M8.19696 0.0404275C8.07119 -0.0134758 7.92881 -0.0134758 7.80304 0.0404275C7.26431 0.271312 6.7978 0.502493 6.36731 0.715825V0.715828L6.22524 0.786181C5.75182 1.02029 5.31897 1.22928 4.84815 1.40732C3.92141 1.75777 2.81595 2 1 2C0.723858 2 0.5 2.22386 0.5 2.5V7.5C0.5 7.52073 0.50129 7.54144 0.503861 7.56202C0.772319 9.70968 1.97438 11.5565 3.39645 12.9786C4.81927 14.4014 6.50136 15.4391 7.8143 15.9642C7.93351 16.0119 8.06649 16.0119 8.1857 15.9642C9.49864 15.4391 11.1807 14.4014 12.6036 12.9786C14.0256 11.5565 15.2277 9.70968 15.4961 7.56202C15.4987 7.54144 15.5 7.52073 15.5 7.5V2.5C15.5 2.22386 15.2761 2 15 2C13.1841 2 12.0786 1.75777 11.1519 1.40732C10.681 1.22928 10.2482 1.02029 9.77476 0.786181L9.63268 0.715822C9.20219 0.50249 8.73569 0.271311 8.19696 0.0404275ZM1.5 7.46827V2.99385C3.13642 2.95259 4.24009 2.70637 5.20185 2.34268C5.7227 2.14572 6.19402 1.91721 6.66851 1.68257L6.81046 1.61228C7.18632 1.42606 7.56975 1.23608 8 1.04543C8.43025 1.23608 8.81368 1.42606 9.18954 1.61228L9.33149 1.68257C9.80598 1.91721 10.2773 2.14572 10.7981 2.34268C11.7599 2.70637 12.8636 2.95259 14.5 2.99385V7.46827C14.2609 9.30835 13.2171 10.9508 11.8964 12.2714C10.6374 13.5305 9.16166 14.4612 8 14.9588C6.83834 14.4612 5.36262 13.5305 4.10355 12.2714C2.78287 10.9508 1.73912 9.30834 1.5 7.46827ZM11.6716 5.83544C11.8568 5.63066 11.841 5.31448 11.6362 5.12922C11.4314 4.94396 11.1153 4.95979 10.93 5.16457L7.21808 9.26764L5.66067 7.6529C5.46896 7.45414 5.15243 7.44842 4.95367 7.64012C4.75492 7.83182 4.7492 8.14835 4.9409 8.34711L6.8699 10.3471C6.96606 10.4468 7.09927 10.5022 7.23777 10.4999C7.37627 10.4977 7.50764 10.4382 7.60057 10.3354L11.6716 5.83544Z" fill="#171B1D" fill-opacity="0.3"/>
</svg>
