<svg width="24" height="24" viewBox="0 0 24 24" fill="none" xmlns="http://www.w3.org/2000/svg">
<path fill-rule="evenodd" clip-rule="evenodd" d="M11.4002 2.3999L8.9002 4.8999C8.7002 5.1999 8.3002 5.0999 8.1002 4.8999C7.9002 4.6999 7.9002 4.2999 8.1002 4.0999L11.6002 0.499902C11.6502 0.499902 11.6752 0.474902 11.7002 0.449902C11.7252 0.424902 11.7502 0.399902 11.8002 0.399902H12.2002C12.2384 0.438099 12.2766 0.461706 12.3092 0.481868C12.362 0.514492 12.4002 0.538099 12.4002 0.599902L15.9002 4.0999C16.1002 4.2999 16.1002 4.6999 15.9002 4.8999C15.8002 4.9999 15.6002 5.0999 15.5002 5.0999C15.4002 5.0999 15.2002 4.9999 15.1002 4.8999L12.6002 2.3999V15.4999C12.6002 15.7999 12.3002 16.0999 12.0002 16.0999C11.7002 16.0999 11.4002 15.7999 11.4002 15.4999V2.3999ZM16.9999 7.3999H19.9999C20.2999 7.3999 20.5999 7.6999 20.5999 7.9999V22.9999C20.5999 23.2999 20.2999 23.5999 19.9999 23.5999H3.9999C3.6999 23.5999 3.3999 23.2999 3.3999 22.9999V7.9999C3.3999 7.6999 3.6999 7.3999 3.9999 7.3999H6.9999C7.2999 7.3999 7.5999 7.6999 7.5999 7.9999C7.5999 8.2999 7.2999 8.5999 6.9999 8.5999H4.5999V22.3999H19.3999V8.5999H16.9999C16.6999 8.5999 16.3999 8.2999 16.3999 7.9999C16.3999 7.6999 16.6999 7.3999 16.9999 7.3999Z" fill="#171B1D" fill-opacity="0.5"/>
</svg>
