<svg width="16" height="16" viewBox="0 0 16 16" fill="none" xmlns="http://www.w3.org/2000/svg">
<path fill-rule="evenodd" clip-rule="evenodd" d="M4.5 4.5C4.5 2.57 6.07 1 8 1C9.93 1 11.5 2.57 11.5 4.5C11.5 6.43 9.93 8 8 8C6.07 8 4.5 6.43 4.5 4.5ZM10.308 8.343C11.615 7.555 12.5 6.135 12.5 4.5C12.5 2.019 10.481 0 8 0C5.519 0 3.5 2.019 3.5 4.5C3.5 6.135 4.385 7.555 5.692 8.343C2.403 9.336 0 12.392 0 16H1C1 12.141 4.14 9 8 9C11.86 9 15 12.141 15 16H16C16 12.392 13.597 9.336 10.308 8.343Z" fill="#171B1D" fill-opacity="0.3"/>
</svg>
