<svg width="14" height="14" viewBox="0 0 14 14" fill="none" xmlns="http://www.w3.org/2000/svg">
<g clip-path="url(#clip0_4470_4620)">
<path fill-rule="evenodd" clip-rule="evenodd" d="M3.559 1.03825C3.681 0.98725 3.819 0.98725 3.941 1.03825C4.003 1.06325 4.058 1.10025 4.104 1.14625L7.354 4.39625C7.451 4.49425 7.5 4.62225 7.5 4.75025C7.5 4.87825 7.451 5.00625 7.354 5.10325C7.158 5.29925 6.842 5.29925 6.647 5.10325L4.25 2.70725V12.5002C4.25 12.7762 4.026 13.0002 3.75 13.0002C3.474 13.0002 3.25 12.7762 3.25 12.5002V2.70725L0.854 5.10325C0.658 5.29925 0.342 5.29925 0.147 5.10325C-0.049 4.90825 -0.049 4.59225 0.147 4.39625L3.396 1.14625C3.442 1.10025 3.498 1.06325 3.559 1.03825ZM10.25 1.00005C10.526 1.00005 10.75 1.22405 10.75 1.50005V11.293L13.147 8.89705C13.342 8.70105 13.658 8.70105 13.854 8.89705C13.951 8.99405 14 9.12205 14 9.25005C14 9.37805 13.951 9.50605 13.854 9.60405L10.604 12.8531C10.558 12.9001 10.503 12.9371 10.441 12.9621C10.319 13.0121 10.181 13.0121 10.059 12.9621C9.998 12.9371 9.942 12.9001 9.896 12.8531L6.647 9.60405C6.451 9.40805 6.451 9.09205 6.647 8.89705C6.842 8.70105 7.158 8.70105 7.354 8.89705L9.75 11.293V1.50005C9.75 1.22405 9.974 1.00005 10.25 1.00005Z" fill="#171B1D" fill-opacity="0.5"/>
</g>
<defs>
<clipPath id="clip0_4470_4620">
<rect width="14" height="14" fill="white"/>
</clipPath>
</defs>
</svg>
