<svg width="14" height="14" viewBox="0 0 14 14" fill="none" xmlns="http://www.w3.org/2000/svg">
<path fill-rule="evenodd" clip-rule="evenodd" d="M7 0C7.276 0 7.5 0.224 7.5 0.5C7.5 0.776 7.276 1 7 1C3.691 1 1 3.691 1 7C1 10.309 3.691 13 7 13C7.276 13 7.5 13.224 7.5 13.5C7.5 13.776 7.276 14 7 14C3.14 14 0 10.859 0 7C0 3.141 3.14 0 7 0ZM9.8964 3.3964C10.0914 3.2014 10.4084 3.2014 10.6034 3.3964L13.8534 6.6454C13.8994 6.6924 13.9364 6.7484 13.9614 6.8084C14.0124 6.9314 14.0124 7.0684 13.9614 7.1914C13.9364 7.2524 13.8994 7.3074 13.8534 7.3544L10.6034 10.6034C10.5054 10.7014 10.3784 10.7504 10.2504 10.7504C10.1224 10.7504 9.9944 10.7014 9.8964 10.6034C9.7014 10.4084 9.7014 10.0914 9.8964 9.8964L12.2934 7.5004H5.5004C5.2234 7.5004 5.0004 7.2764 5.0004 7.0004C5.0004 6.7234 5.2234 6.5004 5.5004 6.5004H12.2934L9.8964 4.1034C9.7014 3.9084 9.7014 3.5914 9.8964 3.3964Z" fill="white"/>
</svg>
