<svg width="16" height="16" viewBox="0 0 16 16" fill="none" xmlns="http://www.w3.org/2000/svg">
<path fill-rule="evenodd" clip-rule="evenodd" d="M10 0C11.93 0 13.5 1.57 13.5 3.5V5H15.5C15.776 5 16 5.224 16 5.5V15.5C16 15.776 15.776 16 15.5 16H0.5C0.224 16 0 15.776 0 15.5V5.5C0 5.224 0.224 5 0.5 5H2.5V3.5C2.5 1.57 4.07 0 6 0H10ZM15 6H1V15H15V6ZM4.5 9.5C5.052 9.5 5.5 9.948 5.5 10.5C5.5 11.053 5.052 11.5 4.5 11.5C3.948 11.5 3.5 11.053 3.5 10.5C3.5 9.948 3.948 9.5 4.5 9.5ZM8 9.5C8.552 9.5 9 9.948 9 10.5C9 11.053 8.552 11.5 8 11.5C7.448 11.5 7 11.053 7 10.5C7 9.948 7.448 9.5 8 9.5ZM11.5 9.5C12.052 9.5 12.5 9.948 12.5 10.5C12.5 11.053 12.052 11.5 11.5 11.5C10.948 11.5 10.5 11.053 10.5 10.5C10.5 9.948 10.948 9.5 11.5 9.5ZM10 1H6C4.622 1 3.5 2.121 3.5 3.5V5H12.5V3.5C12.5 2.121 11.378 1 10 1Z" fill="#171B1D" fill-opacity="0.3"/>
</svg>
