<svg width="24" height="24" viewBox="0 0 24 24" fill="none" xmlns="http://www.w3.org/2000/svg">
<path d="M12 24C18.6274 24 24 18.6274 24 12C24 5.37258 18.6274 0 12 0C5.37258 0 0 5.37258 0 12C0 18.6274 5.37258 24 12 24Z" fill="#171B1D" fill-opacity="0.3"/>
<path d="M12.2812 14.5957C12.6263 14.5957 12.8737 14.4427 13.0234 14.1367C13.1732 13.8307 13.2708 13.3913 13.3164 12.8184L13.7363 8.00391C13.7819 7.5612 13.8047 7.125 13.8047 6.69531C13.8047 5.96615 13.7103 5.40788 13.5215 5.02051C13.3327 4.63314 12.9583 4.43945 12.3984 4.43945C11.9362 4.43945 11.5635 4.59082 11.2803 4.89355C10.9971 5.19629 10.8555 5.61784 10.8555 6.1582C10.8555 6.55534 10.8848 7.20964 10.9434 8.12109L11.2559 12.7988C11.3145 13.4043 11.4121 13.8551 11.5488 14.1514C11.6855 14.4476 11.9297 14.5957 12.2812 14.5957ZM12.3398 19.2246C12.7305 19.2246 13.0723 19.0944 13.3652 18.834C13.6582 18.5736 13.8047 18.2155 13.8047 17.7598C13.8047 17.3561 13.6598 17.0127 13.3701 16.7295C13.0804 16.4463 12.7305 16.3047 12.3203 16.3047C11.9102 16.3047 11.5635 16.4463 11.2803 16.7295C10.9971 17.0127 10.8555 17.3561 10.8555 17.7598C10.8555 18.222 11.0036 18.5817 11.2998 18.8389C11.596 19.096 11.9427 19.2246 12.3398 19.2246Z" fill="white"/>
</svg>
