<svg width="24" height="24" viewBox="0 0 24 24" fill="none" xmlns="http://www.w3.org/2000/svg">
<path fill-rule="evenodd" clip-rule="evenodd" d="M22 18.6H15.3333V19.7C15.3333 21.5225 13.841 23 12 23C10.1591 23 8.66667 21.5225 8.66667 19.7V18.6H2L2.82319 15.5975C3.11803 14.5221 3.29835 13.4191 3.36121 12.3066L3.55324 8.90763C3.80392 4.4707 7.51124 1 12 1C16.4888 1 20.1961 4.4707 20.4468 8.90764L20.6388 12.3066C20.7016 13.4191 20.882 14.5221 21.1768 15.5975L22 18.6ZM10.3333 18.6V19.7C10.3333 20.6113 11.0795 21.35 12 21.35C12.9205 21.35 13.6667 20.6113 13.6667 19.7V18.6H10.3333ZM19.5683 16.0297L19.8207 16.95H4.17935L4.43166 16.0297C4.75697 14.8432 4.95592 13.6263 5.02528 12.3987L5.21731 8.99978C5.4186 5.43695 8.39556 2.65 12 2.65C15.6044 2.65 18.5814 5.43695 18.7827 8.99978L18.9747 12.3987C19.0441 13.6263 19.243 14.8432 19.5683 16.0297Z" fill="#171B1D"/>
</svg>
