<svg width="24" height="24" viewBox="0 0 24 24" fill="none" xmlns="http://www.w3.org/2000/svg">
<path fill-rule="evenodd" clip-rule="evenodd" d="M21.8 18.6H15.2V19.7C15.2 21.5225 13.7225 23 11.9 23C10.0775 23 8.6 21.5225 8.6 19.7V18.6H2L2.81496 15.5975C3.10685 14.5221 3.28537 13.4191 3.3476 12.3066L3.53771 8.90763C3.78588 4.4707 7.45613 1 11.9 1C16.3439 1 20.0141 4.4707 20.2623 8.90764L20.4524 12.3066C20.5146 13.4191 20.6931 14.5221 20.985 15.5975L21.8 18.6ZM10.25 18.6V19.7C10.25 20.6113 10.9887 21.35 11.9 21.35C12.8113 21.35 13.55 20.6113 13.55 19.7V18.6H10.25ZM19.3927 16.0297L19.6424 16.95H4.15756L4.40735 16.0297C4.7294 14.8432 4.92636 13.6263 4.99502 12.3987L5.18513 8.99978C5.38441 5.43695 8.3316 2.65 11.9 2.65C15.4684 2.65 18.4156 5.43695 18.6149 8.99978L18.805 12.3987C18.8736 13.6263 19.0706 14.8432 19.3927 16.0297Z" fill="#171B1D"/>
<path d="M24 3.2C24 4.41503 23.015 5.4 21.8 5.4C20.585 5.4 19.6 4.41503 19.6 3.2C19.6 1.98497 20.585 1 21.8 1C23.015 1 24 1.98497 24 3.2Z" fill="#F03465"/>
</svg>
