<svg width="24" height="24" viewBox="0 0 24 24" fill="none" xmlns="http://www.w3.org/2000/svg">
<path fill-rule="evenodd" clip-rule="evenodd" d="M4.38095 13.7619C5.69592 13.7619 6.7619 12.6959 6.7619 11.381C6.7619 10.066 5.69592 9 4.38095 9C3.06599 9 2 10.066 2 11.381C2 12.6959 3.06599 13.7619 4.38095 13.7619ZM12 13.7619C13.315 13.7619 14.381 12.6959 14.381 11.381C14.381 10.066 13.315 9 12 9C10.685 9 9.61905 10.066 9.61905 11.381C9.61905 12.6959 10.685 13.7619 12 13.7619ZM22 11.381C22 12.6959 20.934 13.7619 19.619 13.7619C18.3041 13.7619 17.2381 12.6959 17.2381 11.381C17.2381 10.066 18.3041 9 19.619 9C20.934 9 22 10.066 22 11.381Z" fill="#3382FF"/>
</svg>
