<svg width="40" height="40" viewBox="0 0 40 40" fill="none" xmlns="http://www.w3.org/2000/svg">
<path fill-rule="evenodd" clip-rule="evenodd" d="M12.9616 11H12.6001L12.3749 11.2828L6.29666 18.9164C6.04426 19.2334 5.91797 19.6173 5.91797 20C5.91797 20.3827 6.04426 20.7666 6.29666 21.0836L12.3749 28.7172L12.6001 29H12.9616H30.2605C30.7406 29 31.1765 28.8045 31.4905 28.4905C31.8045 28.1765 32 27.7406 32 27.2605V12.7395C32 12.2594 31.8045 11.8235 31.4905 11.5095C31.1765 11.1955 30.7406 11 30.2605 11H12.9616ZM7.47011 19.8508L13.3232 12.5H30.2605C30.3268 12.5 30.3857 12.526 30.4298 12.5702C30.474 12.6143 30.5 12.6732 30.5 12.7395V27.2605C30.5 27.3268 30.474 27.3857 30.4298 27.4298C30.3857 27.474 30.3268 27.5 30.2605 27.5H13.3232L7.47011 20.1492C7.43529 20.1055 7.41797 20.0533 7.41797 20C7.41797 19.9467 7.43529 19.8945 7.47011 19.8508ZM17.881 24.1797L21 21.0608L24.1189 24.1797L25.1796 23.1191L22.0606 20.0001L25.1796 16.8812L24.1189 15.8205L21 18.9395L17.881 15.8205L16.8204 16.8812L19.9393 20.0001L16.8204 23.1191L17.881 24.1797Z" fill="white"/>
</svg>
