<svg width="16" height="16" viewBox="0 0 16 16" fill="none" xmlns="http://www.w3.org/2000/svg">
<path fill-rule="evenodd" clip-rule="evenodd" d="M15 12.847L9 11.207L8 10.938L5 10.118V7.26701V4.87701L15 2.14801V12.847ZM8 12.997C8 13.547 7.55 13.997 7 13.997H6C5.45 13.997 5 13.547 5 12.997V11.148L8 11.967V12.997ZM1 9.49701V5.49701C1 5.21701 1.22 4.99701 1.5 4.99701H4V8.99701V9.99701H1.5C1.22 9.99701 1 9.77801 1 9.49701ZM15.8 1.09701C15.68 1.00701 15.52 0.978006 15.37 1.01701L4.44 3.99701H1.5C0.67 3.99701 0 4.66701 0 5.49701V9.49701C0 10.327 0.67 10.997 1.5 10.997H4V12.997C4 14.097 4.9 14.997 6 14.997H7C8.1 14.997 9 14.097 9 12.997V12.238L15.37 13.978C15.41 13.988 15.46 13.997 15.5 13.997C15.61 13.997 15.72 13.957 15.8 13.898C15.93 13.797 16 13.658 16 13.497V1.49701C16 1.33701 15.93 1.19801 15.8 1.09701Z" fill="#171B1D" fill-opacity="0.3"/>
</svg>
