<svg width="240" height="240" viewBox="0 0 240 240" fill="none" xmlns="http://www.w3.org/2000/svg">
<path d="M188.159 202.274C188.074 202.036 181.374 182.285 194.007 163.413C203.917 148.601 210.891 132.002 211.743 121.086L212.093 121.122C211.197 132.081 204.203 148.725 194.269 163.613C181.746 182.339 188.368 201.925 188.454 202.163L188.159 202.274Z" fill="#C9DEFF"/>
<path d="M213.674 118.294C213.513 119.856 211.853 121.61 211.853 121.61C211.853 121.61 210.596 119.547 210.758 117.984C210.919 116.422 211.646 115.858 212.447 115.941C213.248 116.023 213.836 116.724 213.674 118.294Z" fill="#C9DEFF"/>
<path d="M210.379 124.245C211.168 125.66 210.819 128.127 210.819 128.127C210.819 128.127 208.562 127.151 207.749 125.733C206.936 124.315 207.202 123.419 207.952 123.007C208.702 122.595 209.579 122.859 210.379 124.245Z" fill="#C9DEFF"/>
<path d="M208.402 130.45C209.252 131.959 208.877 134.604 208.877 134.604C208.877 134.604 206.43 133.562 205.58 132.045C204.73 130.529 205.05 129.567 205.803 129.124C206.556 128.681 207.534 128.963 208.402 130.45Z" fill="#C9DEFF"/>
<path d="M205.922 135.657C206.917 136.983 206.889 139.538 206.889 139.538C206.889 139.538 204.444 138.851 203.449 137.525C202.454 136.198 202.607 135.243 203.289 134.73C203.971 134.216 204.927 134.33 205.922 135.657Z" fill="#C9DEFF"/>
<path d="M204.36 141.266C204.989 142.791 204.418 145.274 204.418 145.274C204.418 145.274 202.187 144.041 201.557 142.524C200.928 141.006 201.263 140.125 202.047 139.764C202.831 139.403 203.704 139.706 204.36 141.266Z" fill="#C9DEFF"/>
<path d="M202.205 146.987C202.596 148.607 201.568 150.94 201.568 150.94C201.568 150.94 199.595 149.339 199.196 147.727C198.796 146.114 199.321 145.3 200.152 145.094C200.983 144.888 201.813 145.376 202.205 146.987Z" fill="#C9DEFF"/>
<path d="M199.152 152.569C199.543 154.188 198.524 156.522 198.524 156.522C198.524 156.522 196.543 154.92 196.151 153.309C195.759 151.697 196.268 150.882 197.099 150.675C197.93 150.469 198.761 150.95 199.152 152.569Z" fill="#C9DEFF"/>
<path d="M195.841 157.831C196.232 159.451 195.206 161.776 195.206 161.776C195.206 161.776 193.224 160.182 192.832 158.571C192.441 156.959 192.958 156.137 193.788 155.938C194.618 155.74 195.45 156.212 195.841 157.831Z" fill="#C9DEFF"/>
<path d="M192.759 162.857C193.158 164.477 192.132 166.803 192.132 166.803C192.132 166.803 190.15 165.209 189.758 163.597C189.367 161.986 189.884 161.163 190.706 160.964C191.529 160.765 192.407 161.242 192.759 162.857Z" fill="#C9DEFF"/>
<path d="M189.005 169.677C189.772 171.153 189.325 173.657 189.325 173.657C189.325 173.657 187.023 172.574 186.264 171.099C185.504 169.623 185.813 168.684 186.552 168.31C187.29 167.937 188.244 168.209 189.005 169.677Z" fill="#C9DEFF"/>
<path d="M187.465 176.299C188.224 177.774 187.777 180.278 187.777 180.278C187.777 180.278 185.475 179.195 184.716 177.72C183.956 176.244 184.265 175.305 185.003 174.939C185.74 174.573 186.705 174.823 187.465 176.299Z" fill="#C9DEFF"/>
<path d="M215.271 125.279C213.81 126.107 211.254 125.74 211.254 125.74C211.254 125.74 212.286 123.36 213.731 122.53C215.177 121.701 216.146 121.99 216.555 122.743C216.965 123.496 216.733 124.451 215.271 125.279Z" fill="#C9DEFF"/>
<path d="M213.211 132.447C211.793 133.09 209.505 132.482 209.505 132.482C209.505 132.482 210.655 130.407 212.071 129.787C213.487 129.168 214.307 129.521 214.625 130.256C214.942 130.991 214.627 131.827 213.211 132.447Z" fill="#C9DEFF"/>
<path d="M211.484 139.049C209.827 139.186 207.682 137.804 207.682 137.804C207.682 137.804 209.574 136.073 211.24 135.93C212.906 135.786 213.626 136.429 213.702 137.289C213.778 138.149 213.15 138.906 211.484 139.049Z" fill="#C9DEFF"/>
<path d="M209.427 143.96C207.762 144.104 205.625 142.715 205.625 142.715C205.625 142.715 207.518 140.984 209.183 140.84C210.849 140.697 211.569 141.339 211.645 142.2C211.721 143.06 211.085 143.815 209.427 143.96Z" fill="#C9DEFF"/>
<path d="M206.943 149.071C205.296 149.335 203.04 148.116 203.04 148.116C203.04 148.116 204.806 146.245 206.452 145.981C208.099 145.717 208.873 146.295 209.012 147.154C209.151 148.013 208.629 148.811 206.943 149.071Z" fill="#C9DEFF"/>
<path d="M204.264 154.376C202.61 154.639 200.362 153.42 200.362 153.42C200.362 153.42 202.127 151.55 203.727 151.281C205.327 151.012 206.147 151.602 206.287 152.453C206.427 153.304 205.911 154.112 204.264 154.376Z" fill="#C9DEFF"/>
<path d="M201.214 159.697C199.568 159.961 197.312 158.741 197.312 158.741C197.312 158.741 199.077 156.871 200.724 156.607C202.371 156.343 203.143 156.928 203.276 157.778C203.408 158.629 202.815 159.428 201.214 159.697Z" fill="#C9DEFF"/>
<path d="M197.97 164.998C196.328 164.686 194.624 162.766 194.624 162.766C194.624 162.766 196.913 161.605 198.548 161.916C200.182 162.227 200.719 163.04 200.561 163.892C200.402 164.744 199.605 165.309 197.97 164.998Z" fill="#C9DEFF"/>
<path d="M194.992 169.711C193.382 170.074 191.041 168.987 191.041 168.987C191.041 168.987 192.692 167.01 194.317 166.649C195.943 166.288 196.759 166.831 196.94 167.67C197.12 168.51 196.625 169.351 194.992 169.711Z" fill="#C9DEFF"/>
<path d="M192.731 176.156C191.12 176.526 188.78 175.432 188.78 175.432C188.78 175.432 190.43 173.463 192.055 173.102C193.681 172.741 194.49 173.275 194.678 174.123C194.865 174.971 194.356 175.795 192.731 176.156Z" fill="#C9DEFF"/>
<path d="M191.325 182.381C189.893 183.228 187.339 182.917 187.339 182.917C187.339 182.917 188.301 180.529 189.741 179.676C191.181 178.822 192.109 179.131 192.546 179.839C192.984 180.547 192.765 181.527 191.325 182.381Z" fill="#C9DEFF"/>
<path d="M80.0462 145.281C69.8616 135.296 61.5147 123.206 58.7754 114.479L59.0244 114.376C61.7466 123.052 70.0677 135.091 80.2179 145.041L80.0462 145.281Z" fill="#C9DEFF"/>
<path d="M57.0924 112.528C57.5358 113.458 58.217 114.254 59.0675 114.838C59.361 113.805 59.4022 112.716 59.1877 111.664C58.7755 110.423 58.1314 110.124 57.5561 110.363C56.9807 110.603 56.6716 111.287 57.0924 112.528Z" fill="#C9DEFF"/>
<path d="M60.6653 116.669C60.5402 117.767 60.6816 118.88 61.0775 119.912C61.8937 119.225 62.5203 118.341 62.898 117.345C63.2157 116.028 62.8465 115.352 62.2282 115.172C61.6099 114.992 60.983 115.352 60.6653 116.669Z" fill="#C9DEFF"/>
<path d="M63.3094 121.298C63.1734 122.477 63.3236 123.671 63.7473 124.781C64.6283 124.036 65.3025 123.079 65.7053 122C66.0487 120.588 65.6451 119.869 64.9839 119.673C64.3227 119.476 63.6443 119.886 63.3094 121.298Z" fill="#C9DEFF"/>
<path d="M66.1266 125.011C65.8614 126.114 65.8614 127.263 66.1266 128.365C67.0541 127.782 67.8097 126.964 68.3164 125.995C68.7973 124.712 68.5053 123.968 67.9042 123.694C67.3031 123.42 66.6161 123.719 66.1266 125.011Z" fill="#C9DEFF"/>
<path d="M68.3424 129.212C68.312 130.34 68.5566 131.459 69.0551 132.472C69.8279 131.677 70.3862 130.7 70.6781 129.632C70.8756 128.254 70.4377 127.604 69.8194 127.493C69.2011 127.381 68.5399 127.835 68.3424 129.212Z" fill="#C9DEFF"/>
<path d="M71.0391 133.439C71.1854 134.547 71.6042 135.603 72.2585 136.511C72.8932 135.586 73.2885 134.519 73.4092 133.405C73.4092 132.01 72.8596 131.454 72.1983 131.463C71.5371 131.471 71.0391 132.045 71.0391 133.439Z" fill="#C9DEFF"/>
<path d="M74.3442 137.298C74.4855 138.409 74.9016 139.467 75.555 140.378C76.1891 139.45 76.5843 138.38 76.7057 137.264C76.7057 135.869 76.1561 135.322 75.5034 135.33C74.8508 135.339 74.327 135.903 74.3442 137.298Z" fill="#C9DEFF"/>
<path d="M77.8051 140.909C77.9565 142.011 78.375 143.059 79.0245 143.963C79.655 143.033 80.0498 141.964 80.1752 140.849C80.1752 139.454 79.617 138.898 78.9644 138.907C78.3118 138.915 77.7879 139.514 77.8051 140.909Z" fill="#C9DEFF"/>
<path d="M57.2295 118.535C58.2747 118.679 59.3395 118.518 60.2952 118.073C60.2952 118.073 59.0929 116.361 57.8478 115.985C56.6026 115.608 55.9672 116.045 55.804 116.746C55.6408 117.448 55.9929 118.175 57.2295 118.535Z" fill="#C9DEFF"/>
<path d="M60.1149 123.933C61.0866 123.946 62.0422 123.685 62.8714 123.18C62.2336 122.423 61.3988 121.854 60.4584 121.538C59.2905 121.332 58.7409 121.786 58.655 122.453C58.5692 123.121 58.9556 123.728 60.1149 123.933Z" fill="#C9DEFF"/>
<path d="M62.6489 128.93C63.9112 128.699 65.2251 127.116 65.2251 127.116C65.2251 127.116 63.5076 126.107 62.2367 126.346C60.9658 126.586 60.5192 127.253 60.6652 127.963C60.8112 128.674 61.3866 129.17 62.6489 128.93Z" fill="#C9DEFF"/>
<path d="M65.1045 132.49C66.3668 132.259 67.6807 130.676 67.6807 130.676C67.6807 130.676 65.9632 129.666 64.6923 129.906C63.4214 130.145 63.0178 130.813 63.1208 131.523C63.2239 132.233 63.8507 132.729 65.1045 132.49Z" fill="#C9DEFF"/>
<path d="M67.9127 136.126C69.1836 135.998 70.6263 134.526 70.6263 134.526C69.7628 133.918 68.745 133.565 67.6894 133.508C66.4185 133.636 65.972 134.278 66.0235 134.997C66.075 135.715 66.6418 136.263 67.9127 136.126Z" fill="#C9DEFF"/>
<path d="M70.9098 139.873C72.1807 139.745 73.6234 138.273 73.6234 138.273C72.7599 137.666 71.742 137.313 70.6865 137.255C69.4156 137.384 68.969 138.025 69.0206 138.753C69.0721 139.48 69.6388 140.002 70.9098 139.873Z" fill="#C9DEFF"/>
<path d="M85.6972 144.69C85.6972 144.69 88.2734 138.333 86.3928 135.005C84.5122 131.677 81.1373 133.011 82.4598 129.786C83.7822 126.56 84.7097 123.54 80.9141 121.846C77.1185 120.151 76.1052 119.886 76.2941 117.011C76.483 114.137 76.6462 110.526 73.2971 111.441C69.9481 112.357 67.8012 119.142 67.9558 123.976C68.1104 128.81 71.0472 132.584 70.6436 134.928C70.24 137.272 69.9738 137.846 67.3461 137.974C64.7184 138.102 64.0142 142.432 68.8489 147.129C73.6835 151.826 81.6268 154.136 81.6268 154.136L85.6972 144.69Z" fill="url(#paint0_linear_4489_8733)"/>
<path d="M83.4131 149.542C83.4131 149.499 79.6776 145.829 75.8391 138.368C75.8391 138.368 75.8391 138.368 75.8391 138.325C75.7875 135.484 78.7072 128.203 78.733 128.126C78.7435 128.09 78.7416 128.053 78.7275 128.018C78.7135 127.984 78.6882 127.956 78.6557 127.938C78.6402 127.929 78.623 127.924 78.6054 127.923C78.5877 127.922 78.5701 127.925 78.5537 127.932C78.5373 127.938 78.5226 127.948 78.5105 127.961C78.4985 127.974 78.4894 127.989 78.484 128.006C78.3637 128.289 75.7618 134.783 75.5815 137.897C75.5666 137.857 75.5464 137.82 75.5213 137.786C71.6055 129.94 72.7562 118.86 72.7562 118.748C72.7592 118.711 72.7487 118.675 72.7266 118.645C72.7045 118.615 72.6723 118.594 72.636 118.586C72.6189 118.582 72.6012 118.582 72.5841 118.586C72.567 118.59 72.551 118.597 72.5371 118.608C72.5232 118.618 72.5118 118.632 72.5036 118.647C72.4955 118.663 72.4909 118.68 72.49 118.697C72.49 118.808 71.3221 129.974 75.2981 137.897C76.2248 139.764 77.251 141.581 78.3723 143.339C75.8734 144.006 72.8507 141.627 72.8249 141.627C72.8129 141.615 72.7983 141.604 72.782 141.597C72.7657 141.59 72.7482 141.586 72.7305 141.586C72.7127 141.586 72.6952 141.59 72.6789 141.597C72.6627 141.604 72.6481 141.615 72.636 141.627C72.6113 141.654 72.5975 141.689 72.5975 141.726C72.5975 141.762 72.6113 141.797 72.636 141.824C73.0381 142.14 73.4628 142.426 73.9069 142.68C75.0834 143.33 76.8781 144.057 78.5011 143.587C79.8576 145.785 81.4312 147.843 83.1984 149.73C83.2214 149.749 83.2502 149.759 83.28 149.759C83.3097 149.759 83.3385 149.749 83.3616 149.73C83.3774 149.721 83.3914 149.709 83.4026 149.695C83.4138 149.681 83.4221 149.664 83.4269 149.647C83.4317 149.629 83.4329 149.611 83.4306 149.593C83.4282 149.575 83.4223 149.558 83.4131 149.542Z" fill="#C9DEFF"/>
<path d="M81.4287 68.5714L192.857 107.288V193.945C192.857 197.54 190.976 200.991 187.146 203.675C178.071 210.029 161.327 209.784 149.93 203.135L91.4615 170.308C84.3606 166.165 80.9542 160.477 81.5812 155.237H81.4287V68.5714Z" fill="url(#paint1_linear_4489_8733)"/>
<path d="M91.3945 83.3725L149.89 116.514C161.293 123.227 178.045 123.474 187.124 117.059C196.195 110.652 194.296 99.9091 182.885 93.2042L124.389 60.0543C112.987 53.3408 96.2352 53.1022 87.1557 59.509C78.0931 65.9243 79.992 76.659 91.3945 83.3725Z" fill="#80C1F9"/>
<path d="M103.714 123.022L111.823 118.572C115.143 116.842 119.494 117.01 124.265 119.521C134.69 125.004 143.142 139.496 143.142 151.897C143.142 158.421 140.791 163.031 137.059 165.172L129.036 169.714L103.714 123.022Z" fill="url(#paint2_linear_4489_8733)"/>
<path d="M129.227 170.123C137.013 166.126 137.86 152.317 131.118 139.28C124.377 126.243 112.599 118.915 104.813 122.913C97.0261 126.91 96.1791 140.719 102.921 153.756C109.663 166.793 121.44 174.12 129.227 170.123Z" fill="#CDE4FB"/>
<path d="M112.286 140.923C112.286 137.729 114.587 136.287 117.425 137.664C120.263 139.041 122.572 142.805 122.572 145.999C122.572 148.264 121.408 149.649 119.707 149.747V156.045C119.707 157.454 118.685 158.098 117.425 157.479C116.751 157.077 116.193 156.531 115.797 155.887C115.401 155.243 115.179 154.52 115.151 153.78V147.482C113.411 145.664 112.4 143.348 112.286 140.923Z" fill="#2A60B7"/>
<path d="M147.429 96.8571L178.286 98.6552V104.454C178.281 105.469 178.049 106.469 177.609 107.369C177.169 108.27 176.535 109.046 175.757 109.632C171.096 113.642 161.538 114.316 154.399 111.142C149.688 109.048 147.429 105.937 147.429 102.683V96.8571Z" fill="url(#paint3_linear_4489_8733)"/>
<path d="M178.401 98.9657C178.756 94.2117 172.103 89.8426 163.541 89.2071C154.978 88.5716 147.749 91.9104 147.394 96.6645C147.038 101.419 153.691 105.788 162.254 106.423C170.816 107.059 178.045 103.72 178.401 98.9657Z" fill="#CDE4FB"/>
<path d="M94.2861 66.8571L123.429 68.3636V73.2535C123.426 74.1067 123.211 74.9471 122.8 75.7055C122.39 76.464 121.797 77.119 121.069 77.6165C116.668 80.9917 107.643 81.5597 100.9 78.8843C96.4474 77.1226 94.3207 74.4966 94.3207 71.7553L94.2861 66.8571Z" fill="url(#paint4_linear_4489_8733)"/>
<path d="M123.267 68.4789C123.595 64.1017 117.467 60.0787 109.582 59.4935C101.697 58.9083 95.0389 61.9823 94.7117 66.3596C94.3844 70.7369 100.512 74.7598 108.397 75.345C116.282 75.9303 122.94 72.8562 123.267 68.4789Z" fill="#CDE4FB"/>
<path d="M102.857 34.8836C102.857 14.4914 123.593 8.19739 136.715 12.3568C159.999 19.7477 170.572 38.8828 170.572 66.9612V96.7101C170.535 97.1128 170.41 97.503 170.207 97.8539C170.003 98.2048 169.725 98.5082 169.391 98.7434C167.167 100.507 162.616 100.802 159.22 99.4015C157.005 98.4987 155.799 97.0982 155.893 95.7398V63.7213C155.893 46.6111 148.588 32.7828 135.526 27.2988C125.534 23.0803 115.167 27.8809 115.167 40.199V66.2946C115.146 66.6386 115.046 66.9734 114.876 67.2743C114.706 67.5752 114.469 67.8344 114.183 68.0327C112.335 69.5091 108.529 69.7201 105.689 68.5895C103.79 67.8133 102.832 66.5984 102.943 65.4425L102.857 34.8836Z" fill="#BCD6FA"/>
<path d="M136.929 12.7225C160.065 20.0825 170.571 39.1381 170.571 67.0997V96.7249C170.534 97.126 170.411 97.5145 170.208 97.864C170.006 98.2135 169.729 98.5156 169.398 98.7498C167.188 100.506 162.666 100.8 159.292 99.4051C157.09 98.5061 155.892 97.1114 155.985 95.7587V63.8734C155.985 46.8343 148.726 33.0635 135.747 27.6023C125.794 23.4181 123.89 8.58031 136.929 12.7225Z" fill="url(#paint5_linear_4489_8733)"/>
<path d="M102.857 34.6388C102.857 14.0312 115.715 27.5621 115.715 40.0102V66.3815C115.692 66.7291 115.588 67.0675 115.41 67.3715C115.232 67.6756 114.984 67.9375 114.685 68.1379C112.751 69.6299 108.767 69.8431 105.794 68.7006C103.806 67.9162 102.804 66.6884 102.92 65.5203L102.857 34.6388Z" fill="url(#paint6_linear_4489_8733)"/>
<path d="M186.21 77.7332C186.21 77.7332 185.353 79.5308 185.747 80.7544C185.891 81.2076 185.27 81.2454 184.731 81.2605C184.193 81.2756 182.692 81.2605 182.578 80.4145C182.525 79.9689 184.216 77.5821 184.966 77.1742C185.717 76.7664 186.21 77.7332 186.21 77.7332Z" fill="#37475E"/>
<path d="M185.376 78.0579C185.376 78.0579 186.248 77.8162 186.187 78.4053C186.126 78.9945 185.656 79.1607 185.103 79.2135C184.55 79.2664 185.376 78.0579 185.376 78.0579Z" fill="#F6B2AD"/>
<path d="M196.959 127.395C196.959 127.395 199.574 129.57 198.869 130.228C198.164 130.885 197.111 131.058 195.738 130.228C194.366 129.397 193.169 127.962 193.821 127.289C194.472 126.617 195.102 125.779 196.959 127.395Z" fill="#37475E"/>
<path d="M200.332 108.603C200.332 108.603 196.33 126.36 196.269 127.146C196.208 127.931 195.807 128.249 194.912 127.901C194.017 127.554 194.154 126.632 194.078 124.88C194.002 123.128 193.919 111.148 193.919 111.148L200.332 108.603Z" fill="#F6B2AD"/>
<path d="M189.855 129.306C189.855 129.306 192.054 132.969 191.462 133.513C190.977 133.839 190.392 133.983 189.81 133.92C189.229 133.856 188.689 133.589 188.286 133.166C187.187 132.101 185.686 128.981 187.665 128.725C189.643 128.468 189.855 129.306 189.855 129.306Z" fill="#37475E"/>
<path d="M195.685 112.281C195.685 112.281 193.608 118.15 192.365 121.866C191.19 125.378 189.644 129.185 189.734 129.933C189.825 130.681 188.741 130.688 188.127 130.129C187.513 129.57 187.18 123.452 187.756 119.653C188.113 117.249 188.718 114.887 189.56 112.606L195.685 112.281Z" fill="#FEC6BD"/>
<path d="M188.34 101.835C189.068 102.509 189.976 102.96 190.955 103.134C192.714 103.505 200.241 105.159 200.484 108.648C200.711 111.941 189.81 114.645 187.885 114.547C185.959 114.449 179.326 113.301 175.824 111.239C172.2 109.101 175.316 101.42 175.316 101.42L188.34 101.835Z" fill="#2A60B7"/>
<path d="M190.023 112.493L203.16 107.394C203.388 107.311 203.418 107.16 203.236 107.07L193.98 102.394C193.735 102.303 193.466 102.303 193.222 102.394L180.001 107.916C179.796 107.999 179.789 108.142 180.001 108.233L189.341 112.485C189.561 112.564 189.801 112.566 190.023 112.493Z" fill="#37475E"/>
<path d="M190.197 92.5449C190.497 93.9858 190.949 95.391 191.546 96.7369C192.214 97.8397 194.359 102.372 194.359 102.372C194.359 102.372 195.473 103.036 195.61 103.807C195.746 104.577 195.943 105.106 195.102 105.317C194.26 105.529 193.138 103.807 193.009 102.923C192.881 102.039 188.848 97.7793 188.309 96.752C187.771 95.7248 186.74 92.9301 186.74 92.9301L190.197 92.5449Z" fill="#FEC6BD"/>
<path d="M185.504 83.2092C185.504 83.2092 187.399 83.7304 189.34 87.3484C190.147 88.9367 190.814 90.5921 191.333 92.2957C191.385 92.4384 191.381 92.5953 191.322 92.7353C191.263 92.8752 191.154 92.9879 191.015 93.051C190.34 93.3682 189.059 93.9725 187.983 94.4332L185.504 83.2092Z" fill="#6DB3FA"/>
<path d="M182.086 81.9251C182.086 81.9251 183.86 82.0686 184.656 82.9296C185.452 83.7907 186.93 89.6066 186.99 93.8893C187.054 96.3696 187.356 98.8382 187.893 101.261C186.294 102.188 184.511 102.758 182.669 102.93C180.024 103.233 175.331 101.42 175.331 101.42C175.331 101.42 175.013 95.9664 174.975 93.776C174.937 91.5856 174.626 86.3814 176.681 84.5007C178.735 82.62 179.091 81.6985 182.086 81.9251Z" fill="#6DB3FA"/>
<path d="M182.586 81.9704C183.673 82.9989 184.389 84.3553 184.625 85.8301C185.373 89.0075 185.855 92.2413 186.065 95.4981C186.369 100.09 186.551 102.742 186.551 102.742C187.299 102.467 188.002 102.083 188.635 101.601C188.778 99.3201 188.793 97.033 188.681 94.7504C188.529 89.2894 186.543 84.1004 185.959 83.4206C185.376 82.7408 182.586 81.9704 182.586 81.9704Z" fill="#FAE34D"/>
<path d="M178.584 82.8013C178.584 82.8013 179.342 83.4056 179.963 85.5884C180.585 87.7713 181.585 94.4861 181.904 96.9862C182.222 99.4862 182.829 104.094 182.829 104.094C182.829 104.094 177.985 104.577 174.74 102.341C174.74 102.341 173.982 90.2563 174.073 89.0553C174.164 87.8544 175.112 85.2183 178.584 82.8013Z" fill="#FAE34D"/>
<path d="M177.727 96.9107C177.727 96.9107 178.023 100.582 178.03 100.921C178.038 101.261 184.194 106.133 185.414 106.511C186.635 106.888 188.196 107.674 187.84 108.127C187.376 108.573 186.756 108.819 186.111 108.814C185.405 108.535 184.732 108.181 184.103 107.757C183.564 107.41 183.504 106.866 183.2 106.624C182.897 106.382 177.515 104.23 176.112 102.787C174.71 101.344 173.838 97.8624 173.596 95.6266L177.727 96.9107Z" fill="#FEC6BD"/>
<path d="M190.083 112.523L203.137 107.236C203.363 107.13 203.555 106.962 203.69 106.752L208.997 97.0012C209.118 96.7822 209.035 96.684 208.807 96.7822L194.404 102.983C194.174 103.09 193.987 103.271 193.873 103.497L189.855 112.349C189.81 112.523 189.901 112.568 190.083 112.523Z" fill="#425970"/>
<path d="M186.065 76.4037C185.924 77.3658 185.698 78.3135 185.391 79.2361C184.913 80.6108 184.253 81.9855 182.464 81.6456C182.464 81.6456 182.207 82.3254 181.979 82.839C181.752 83.3526 180.19 83.4055 179.576 82.5595C178.962 81.7136 180.334 78.8811 180.334 78.8811C180.104 78.5376 179.972 78.1378 179.954 77.7251C179.935 77.3125 180.03 76.9025 180.228 76.5397C180.561 75.9136 181.103 75.4238 181.762 75.156C182.42 74.8882 183.152 74.8593 183.829 75.0744C185.474 75.4671 186.065 76.1394 186.065 76.4037Z" fill="#FEC6BD"/>
<path d="M181.449 77.5367C181.449 77.5367 181.244 76.6001 180.691 76.8871C180.138 77.1741 180.312 77.9748 180.623 78.3977C180.623 78.3977 180.198 80.0368 180.797 80.8978C181.396 81.7589 177.113 79.6591 177.939 76.9777C178.659 74.6287 181.29 72.8915 182.844 72.8915C183.42 72.8165 184.005 72.8646 184.56 73.0326C185.116 73.2007 185.629 73.4847 186.066 73.8658C187.377 74.7949 187.089 76.6832 186.907 77.4762C186.725 78.2693 185.611 77.6349 185.103 77.4762C182.776 76.8116 182.829 75.9656 182.382 75.9656C181.934 75.9656 182.025 76.6756 181.783 77.1666C181.54 77.6575 181.449 77.5367 181.449 77.5367Z" fill="#37475E"/>
<path d="M175.362 97.1976C173.845 97.0918 172.905 96.7444 172.86 96.1326C172.814 95.5208 173.391 88.806 174.732 86.8196C176.074 84.8331 176.681 85.4978 177.423 89.1535C177.81 91.0795 178.735 95.3848 178.682 96.1553C178.629 96.9257 176.87 97.2958 175.362 97.1976Z" fill="#6DB3FA"/>
<path d="M34.8529 143.504L69.429 158.745L54.7725 191.302L22.2861 165.952L34.8529 143.504Z" fill="#BCD6FA"/>
<path d="M34.8525 143.504L66.0724 161.907L69.4286 158.745L39.1658 140.917L34.8525 143.504Z" fill="#CDE4FB"/>
<path d="M22.2861 165.952V191.302L52.4294 208.437V183.843L22.2861 165.952Z" fill="#93C1F3"/>
<path d="M65.116 161.206L52.4297 183.843V208.436L68.9226 199.077L69.4293 158.745L65.116 161.206Z" fill="#78B0EB"/>
<path d="M35.8029 146.855L61.6893 161.837L51.4727 180.05L26.1562 164.998L35.8029 146.855Z" fill="white"/>
<path d="M58.824 163.104L35.9609 149.952L34.5959 152.307L57.459 165.459L58.824 163.104Z" fill="#ACD4F7"/>
<path d="M56.3702 167.477L45.085 160.985L43.7164 163.347L55.0017 169.839L56.3702 167.477Z" fill="#ACD4F7"/>
<path d="M54.4679 170.889L43.1826 164.397L39.5238 170.711L50.8091 177.203L54.4679 170.889Z" fill="#ACD4F7"/>
<path d="M38.4339 170.032L28.168 164.15L33.4029 154.475L43.9503 160.505L38.4339 170.032Z" fill="#ACD4F7"/>
<path d="M37.5126 206.845L37.2311 211.865L35.4017 211.795L34.9092 206.81L37.5126 206.845Z" fill="#FEC6BD"/>
<path d="M37.2317 211.865C38.2218 212.303 39.2613 212.621 40.3276 212.811C41.6997 212.986 41.6645 213.828 40.5739 213.968C39.4833 214.108 34.8745 214.809 34.8042 213.617C34.7722 213.289 34.8088 212.957 34.9117 212.644C35.0147 212.33 35.1817 212.041 35.4023 211.795L37.2317 211.865Z" fill="#30343A"/>
<path d="M28.049 203.725L27.8168 207.967L26.2689 207.904L25.8467 203.69L28.049 203.725Z" fill="#FEC6BD"/>
<path d="M27.8095 207.967C28.6464 208.337 29.5253 208.606 30.427 208.766C31.5879 208.913 31.5598 209.628 30.6381 209.747C29.7163 209.867 25.8182 210.449 25.7549 209.446C25.7289 209.168 25.7605 208.888 25.8477 208.622C25.9348 208.357 26.0757 208.113 26.2615 207.904L27.8095 207.967Z" fill="#30343A"/>
<path d="M41.6991 178.62C41.5864 183.557 41.2224 188.485 40.6085 193.385C39.6586 200.255 38.6384 205.415 38.6032 206.887C37.845 207.366 36.9513 207.588 36.0561 207.518C34.2759 207.518 34.1 206.887 34.1 206.887C34.1 206.887 32.6576 194.857 32.5168 189.36C32.5168 189.36 26.1068 183.289 25.5791 176.138L40.1512 170.81L41.6991 178.62Z" fill="#2A60B7"/>
<path d="M32.5167 189.354C31.3421 191.992 30.4323 194.739 29.8008 197.556C29.1675 201.131 28.8509 203.936 28.8509 203.936C28.2961 204.27 27.6554 204.436 27.0074 204.412C26.4098 204.459 25.8152 204.29 25.3327 203.936C24.8003 199.587 24.5886 195.205 24.6995 190.826C24.9457 184.369 25.579 176.103 25.579 176.103L32.5167 189.354Z" fill="#255299"/>
<path d="M32.5167 189.354C31.3421 191.992 30.4323 194.739 29.8008 197.556C29.1675 201.131 28.8509 203.936 28.8509 203.936C28.2822 204.242 27.6469 204.406 27.0003 204.412C26.4086 204.427 25.8265 204.261 25.3327 203.936C24.8003 199.587 24.5886 195.205 24.6995 190.826C24.9457 184.369 25.579 176.103 25.579 176.103L32.5167 189.354Z" fill="url(#paint7_linear_4489_8733)"/>
<path d="M35.9925 148.713C35.9925 148.713 36.7875 149.47 37.0831 151.517C37.3786 153.564 36.7524 154.391 35.3662 154.447C34.937 154.854 34.6446 155.383 34.5289 155.962C34.4105 156.581 34.5178 157.223 34.8315 157.77L32.4251 158.857L30.9404 157.504L31.3485 150.907L35.9925 148.713Z" fill="#FEC6BD"/>
<path d="M35.9645 150.725C36.3243 150.108 36.7239 149.516 37.1606 148.951C37.815 148.131 37.4632 145.768 37.4632 145.768C37.2448 146.012 36.9754 146.206 36.674 146.336C36.3726 146.465 36.0464 146.528 35.7182 146.518C34.5994 146.483 32.7348 145.852 31.3346 147.296C30.7985 147.892 30.4417 148.627 30.3048 149.415C30.1679 150.204 30.2566 151.015 30.5606 151.755C30.8091 152.199 31.0051 152.669 31.1446 153.157C31.7812 152.984 32.4571 153.018 33.0726 153.256C33.8395 153.676 34.0928 153.445 34.6416 152.905C35.1905 152.365 35.486 152.022 35.486 152.022C35.486 152.022 34.2969 151.573 34.7402 150.732C35.1834 149.89 35.9645 150.725 35.9645 150.725Z" fill="#37475E"/>
<path d="M56.2998 149.168C56.2998 149.168 58.5373 144.261 59.2269 144.534C59.9164 144.808 58.8328 146.434 58.8328 146.434C58.8328 146.434 59.4943 147.226 59.7687 147.668C60.0431 148.11 59.6842 148.425 59.3113 149.07C58.9384 149.715 57.693 151.363 57.693 151.363L56.2998 149.168Z" fill="#FEC6BD"/>
<path d="M43.1556 158.906C42.4377 159.132 41.6821 159.214 40.9322 159.148C40.1824 159.082 39.453 158.869 38.7861 158.521C36.9356 157.7 28.9354 155.422 27.5281 155.394C26.1209 155.366 24.7629 155.955 24.5659 157.799C24.3688 159.642 25.565 176.131 25.565 176.131C25.565 176.131 34.6699 179.952 38.8283 179.637C41.4458 179.447 42.0439 178.235 42.0439 178.235C42.0439 178.235 41.284 171.694 41.9454 169.24C42.6068 166.786 51.1769 160.869 52.9571 159.264C54.7373 157.658 58.0654 152.344 58.7057 151.054C59.346 149.764 56.9607 147.984 55.5816 149.463C54.2025 150.942 51.578 153.859 48.3765 155.962C45.175 158.065 44.7177 158.296 43.1556 158.906Z" fill="#6DB3FA"/>
<path d="M37.9628 166.19C37.8854 158.92 38.7861 158.52 38.7861 158.52C36.9355 157.7 28.9353 155.422 27.5281 155.394C26.5813 156.564 25.932 157.944 25.6353 159.418C25.1856 161.688 24.9501 163.995 24.9317 166.309C24.8261 169.773 25.1639 173.194 25.1146 175.311C25.1058 175.679 25.2219 176.039 25.4441 176.333C25.6663 176.627 25.9816 176.837 26.3389 176.93C29.1183 177.582 35.5916 179.882 38.8142 179.651C41.4317 179.461 42.0298 178.248 42.0298 178.248C41.7589 175.901 41.6437 173.538 41.685 171.175C41.685 171.175 38.0402 173.488 37.9628 166.19Z" fill="#FFD215"/>
<path d="M29.949 155.863C29.6253 155.779 29.3298 155.709 29.0554 155.653C28.3518 155.492 27.24 157.504 27.1415 160.203C27.0289 163.519 27.8451 177.316 27.8451 177.316L28.781 177.582C28.781 177.582 27.9085 163.176 28.2251 159.775C28.3113 158.308 28.923 156.92 29.949 155.863Z" fill="#FCEDB4"/>
<path d="M36.8929 157.847L35.7883 157.497C35.7883 157.497 34.0784 159.467 34.2192 164.48C34.2614 166.323 34.5499 179.139 34.5499 179.139L35.8164 179.398C35.8164 179.398 35.4857 168.686 35.4857 164.318C35.4857 159.951 36.8929 157.847 36.8929 157.847Z" fill="#FCEDB4"/>
<path d="M27.9785 173.306L34.9163 175.479V174.449L27.9785 172.283V173.306Z" fill="#FCEDB4"/>
<path d="M193.026 178.627L183.209 184.069C183.07 184.146 182.948 184.251 182.851 184.377C182.754 184.503 182.684 184.648 182.646 184.802C182.608 184.956 182.602 185.116 182.629 185.273C182.656 185.429 182.715 185.578 182.802 185.711L187.809 193.354C187.89 193.478 187.994 193.584 188.116 193.667C188.238 193.749 188.376 193.807 188.52 193.837C188.665 193.867 188.814 193.868 188.959 193.841C189.104 193.813 189.242 193.757 189.366 193.676L200.41 186.48L194.099 178.864C193.975 178.708 193.8 178.599 193.605 178.555C193.409 178.512 193.205 178.537 193.026 178.627Z" fill="url(#paint8_linear_4489_8733)"/>
<path d="M193.026 178.41L183.209 183.853C183.07 183.93 182.948 184.035 182.851 184.161C182.754 184.287 182.684 184.431 182.646 184.585C182.608 184.74 182.602 184.9 182.629 185.056C182.656 185.213 182.715 185.362 182.802 185.495L187.809 193.138C187.89 193.261 187.994 193.367 188.116 193.45C188.238 193.533 188.376 193.591 188.52 193.621C188.665 193.651 188.814 193.652 188.959 193.624C189.104 193.596 189.242 193.54 189.366 193.459L200.382 186.228L194.071 178.613C193.943 178.47 193.772 178.372 193.583 178.336C193.394 178.299 193.198 178.325 193.026 178.41Z" fill="url(#paint9_linear_4489_8733)"/>
<path d="M193.18 178.851L183.588 184.181C183.498 184.231 183.42 184.298 183.358 184.379C183.296 184.46 183.251 184.553 183.226 184.651C183.201 184.75 183.196 184.853 183.213 184.954C183.229 185.054 183.266 185.15 183.321 185.236L188.272 192.873C188.322 192.95 188.387 193.017 188.464 193.069C188.54 193.121 188.626 193.157 188.717 193.176C188.807 193.195 188.901 193.196 188.992 193.178C189.082 193.161 189.169 193.126 189.246 193.075L199.708 186.207L193.727 178.962C193.659 178.889 193.57 178.838 193.472 178.818C193.373 178.798 193.271 178.81 193.18 178.851Z" fill="url(#paint10_linear_4489_8733)"/>
<path d="M198.958 174.456C198.792 175.798 198.71 177.149 198.713 178.501C198.776 180.129 199.807 180.311 200.817 180.548L201.118 183.93L204.21 183.084C204.21 183.084 204.575 176.797 204.393 175.539C204.21 174.281 198.958 174.456 198.958 174.456Z" fill="#FEC6BD"/>
<path d="M199.491 175.811C199.226 175.304 198.864 174.853 198.425 174.484C197.794 174.002 198.005 173.338 199.19 172.793C200.894 172.174 202.753 172.12 204.491 172.639C206.153 173.212 206.594 174.966 206.644 175.748C206.693 176.531 205.76 177.146 205.522 177.844C205.283 178.543 205.185 179.94 204.61 180.108C204.035 180.276 202.31 180.499 201.91 180.108C201.562 179.632 201.296 179.1 201.125 178.536C201.125 178.536 201.672 177.781 201.335 177.418C200.999 177.055 200.185 177.209 200.094 177.6C200.003 177.991 200.852 179.926 200.431 180.681C200.01 181.435 198.643 180.59 198.643 180.171C198.643 179.752 199.274 179.626 199.491 179.018C199.776 177.968 199.776 176.861 199.491 175.811Z" fill="#37475E"/>
<path d="M200.192 183.992C200.192 183.992 199.225 182.239 198.341 181.729C197.457 181.219 196.525 181.484 196.406 181.848C196.286 182.211 199.4 184.384 199.4 184.384L200.192 183.992Z" fill="#FEC6BD"/>
<path d="M193.111 191.601L192.655 192.747L187.291 189.519C187.291 189.519 186.744 187.283 186.351 187.346C185.958 187.409 186.169 188.576 186.169 188.576C186.169 188.576 184.472 187.877 184.016 187.667C184.016 187.667 183.714 189.477 184.893 190.176C186.071 190.874 186.47 190.322 187.228 190.874C187.985 191.426 191.379 195.583 192.802 195.884C194.226 196.184 195.775 192.747 195.775 192.747L193.111 191.601Z" fill="#FEC6BD"/>
<path d="M195.284 204.135C195.38 208.384 195.694 212.626 196.224 216.843C197.037 222.761 197.921 227.197 197.949 228.469H201.826C201.826 228.469 203.068 218.115 203.194 213.371C203.194 213.371 208.705 208.145 209.161 201.99L196.616 197.4L195.284 204.135Z" fill="#2A60B7"/>
<path d="M203.172 213.371C204.182 215.642 204.962 218.008 205.5 220.434C206.047 223.515 206.32 225.933 206.32 225.933H209.349C209.808 222.188 209.991 218.414 209.896 214.642C209.686 209.053 209.139 201.99 209.139 201.99L203.172 213.371Z" fill="#255299"/>
<path d="M203.172 213.371C204.182 215.642 204.962 218.008 205.5 220.434C206.047 223.515 206.32 225.933 206.32 225.933H209.349C209.808 222.188 209.991 218.414 209.896 214.642C209.686 209.053 209.139 201.99 209.139 201.99L203.172 213.371Z" fill="url(#paint11_linear_4489_8733)"/>
<path d="M198.874 228.434L199.112 232.752L200.69 232.696L201.111 228.406L198.874 228.434Z" fill="#FEC6BD"/>
<path d="M199.112 232.759C198.258 233.136 197.361 233.408 196.441 233.569C195.263 233.723 195.291 234.449 196.23 234.568C197.17 234.687 201.139 235.267 201.202 234.268C201.227 233.984 201.194 233.699 201.105 233.429C201.016 233.158 200.872 232.909 200.683 232.696L199.112 232.759Z" fill="#30343A"/>
<path d="M207.021 225.744L207.225 229.398L208.557 229.349L208.915 225.716L207.021 225.744Z" fill="#FEC6BD"/>
<path d="M207.204 229.398C206.484 229.718 205.728 229.953 204.953 230.097C203.95 230.222 203.978 230.837 204.771 230.935C205.563 231.033 208.922 231.55 208.978 230.684C209.002 230.444 208.976 230.203 208.901 229.974C208.826 229.745 208.704 229.535 208.543 229.356L207.204 229.398Z" fill="#30343A"/>
<path d="M202.233 181.911C203.376 181.624 206.868 181.128 208.473 181.666C209.488 181.97 210.353 182.639 210.901 183.543C211.449 184.446 211.641 185.52 211.44 186.557C211.047 189.456 209.112 190.693 208.473 193.047C207.835 195.402 208.046 195.765 208.684 197.609C209.322 199.454 209.504 201.683 209.14 201.955C208.775 202.228 202.415 205.064 199.687 204.547C196.96 204.03 197.107 200.474 196.595 200.474C196.083 200.474 195.627 204.065 195.263 204.1C194.898 204.135 195.747 196.065 196.139 194.074L192.809 191.37C192.809 191.37 193.748 186.389 197.016 184.335C200.283 182.281 200.445 182.365 202.233 181.911Z" fill="#6DB3FA"/>
<path d="M199.687 204.582C196.96 204.072 197.107 200.509 196.595 200.509C196.083 200.509 195.627 204.1 195.263 204.135C194.898 204.17 195.747 196.1 196.139 194.109L200.269 190.12C200.269 190.12 202.415 205.099 199.687 204.582Z" fill="url(#paint12_linear_4489_8733)"/>
<path d="M97.1531 92.3124L98.8448 91.337L98.7933 112.881L97.1016 113.865L97.1531 92.3124Z" fill="#BCD6FA"/>
<path d="M37.0664 58.1309L38.7495 57.1555L98.8436 91.3371L97.1519 92.3125L37.0664 58.1309Z" fill="#D9EEFF"/>
<path d="M97.1526 92.3125L97.1011 113.865L37.0156 79.6837L37.0672 58.1309L97.1526 92.3125Z" fill="url(#paint13_linear_4489_8733)"/>
<path d="M46.6159 71.7521L44.8984 73.3178L47.5948 74.4986V75.8932L44.8898 73.9681L46.6073 77.4419L45.4738 77.5189L44.4175 74.0537L43.2239 76.2611L42.1677 74.9093L43.8851 73.4034V73.3606L41.2402 72.197V70.8023L43.8164 72.736V72.6932L42.1677 69.2024L43.2668 69.1254L44.4175 72.6334L45.5425 70.4002L46.6159 71.7521Z" fill="#2A7CDD"/>
<path d="M54.0184 76.1157L52.301 77.6815L54.9974 78.9307V80.3253L52.3096 78.366L54.027 81.7884L52.8935 81.8654L51.8029 78.4259L50.5749 80.6419L49.5702 79.2729L51.2877 77.7671L48.6514 76.5949V75.166L51.2877 77.0997L49.6389 73.6002L50.7381 73.5232L51.8115 77.0312L52.9279 74.8066L54.0184 76.1157Z" fill="#2A7CDD"/>
<path d="M61.4204 80.488L59.703 82.0538L62.3994 83.2345V84.6634L59.703 82.704L61.4204 86.1778L60.2869 86.2548L59.2479 82.7468L58.0542 84.9543L57.0495 83.6195L58.767 82.1136L56.1221 80.95V79.5468L58.6983 81.4891L57.0495 77.9982L58.1573 77.8613L59.2307 81.3693L60.347 79.1361L61.4204 80.488Z" fill="#2A7CDD"/>
<path d="M68.823 84.8516L67.1055 86.4174L69.8019 87.5981V88.9928L67.1141 87.0334L68.8316 90.4986L67.7066 90.5757L66.6676 87.0762L65.4739 89.2837L64.4606 87.9489L66.1781 86.4431L63.5332 85.2794V83.8848L66.1094 85.8185L64.4606 82.3276L65.5512 82.2506L66.6246 85.7586L67.741 83.534L68.823 84.8516Z" fill="#2A7CDD"/>
<path d="M76.1911 89.1981L74.4736 90.7553V90.7981L77.17 91.9788V93.3735L74.4736 91.4398L76.1911 94.9136L75.0576 94.9906L74.0185 91.4826L72.7562 93.7157L71.7429 92.3724L73.4603 90.8751L70.8154 89.7029V88.3083L73.3916 90.2505V90.2077L71.7429 86.7168L72.9279 86.6313L74.0013 90.1307L75.1263 87.8976L76.1911 89.1981Z" fill="#2A7CDD"/>
<path d="M83.5763 93.5701L81.8588 95.1359L84.5552 96.3081V97.7027L81.8674 95.7519L83.5848 99.2257L82.4513 99.3027L81.3436 95.8802L80.1585 98.0877L79.1452 96.753L80.8627 95.2471V95.1872L78.2178 94.0236V92.6289L80.794 94.5626V94.5198L79.1452 91.0289L80.2358 90.9519L81.3092 94.4599L82.4256 92.2354L83.5763 93.5701Z" fill="#2A7CDD"/>
<path d="M90.8408 97.8824L89.1233 99.4481L91.8283 100.629V102.024L89.1405 100.064V100.107L90.8579 103.581L89.7244 103.658L88.6854 100.15L87.4917 102.357L86.487 101.022L88.2045 99.5166L85.5596 98.353V96.9498L88.1787 98.892L86.4956 95.3326L87.5948 95.2556L88.6682 98.7636L89.7845 96.5305L90.8408 97.8824Z" fill="#2A7CDD"/>
<path d="M131.396 208.861V212.181C131.748 216.399 139.261 219.702 148.433 219.608C157.604 219.514 165.023 216.04 165.272 211.813V208.493L131.396 208.861Z" fill="#FFD215"/>
<path opacity="0.06" d="M132.452 210.881L132.495 214.611C132.64 214.796 132.795 214.973 132.959 215.141L132.916 210.863L132.452 210.881Z" fill="black"/>
<path opacity="0.06" d="M134.419 210.863L134.479 216.348C134.625 216.451 134.78 216.536 134.943 216.63L134.874 210.855L134.419 210.863Z" fill="black"/>
<path opacity="0.06" d="M136.377 210.838L136.446 217.417L136.909 217.623L136.832 210.838H136.377Z" fill="black"/>
<path opacity="0.06" d="M138.334 210.821L138.411 218.179L138.875 218.324L138.798 210.812L138.334 210.821Z" fill="black"/>
<path opacity="0.06" d="M140.292 210.795L140.378 218.744L140.842 218.846L140.756 210.795H140.292Z" fill="black"/>
<path opacity="0.06" d="M142.25 210.778L142.344 219.137L142.808 219.206L142.714 210.769L142.25 210.778Z" fill="black"/>
<path opacity="0.06" d="M144.217 210.752L144.311 219.402L144.766 219.454L144.672 210.752H144.217Z" fill="black"/>
<path opacity="0.06" d="M146.175 210.701L146.269 219.522H146.733L146.621 210.701H146.175Z" fill="black"/>
<path opacity="0.06" d="M148.133 210.701L148.227 219.591H148.691L148.597 210.701H148.133Z" fill="black"/>
<path opacity="0.06" d="M150.056 210.701L150.159 219.556L150.614 219.514L150.554 210.701H150.056Z" fill="black"/>
<path opacity="0.06" d="M152.048 210.701L152.151 219.402L152.606 219.351L152.512 210.701H152.048Z" fill="black"/>
<path opacity="0.06" d="M154.015 210.65L154.101 219.086L154.564 219.009L154.47 210.641L154.015 210.65Z" fill="black"/>
<path opacity="0.06" d="M155.973 210.624L156.059 218.684L156.522 218.564L156.428 210.624H155.973Z" fill="black"/>
<path opacity="0.06" d="M157.931 210.607L158.017 218.119L158.472 217.956L158.394 210.598L157.931 210.607Z" fill="black"/>
<path opacity="0.06" d="M159.889 210.581L159.966 217.366L160.421 217.161L160.352 210.581H159.889Z" fill="black"/>
<path opacity="0.06" d="M161.847 210.564L161.915 216.339L162.371 216.048L162.31 210.555L161.847 210.564Z" fill="black"/>
<path opacity="0.06" d="M163.796 210.538V214.816C163.96 214.644 164.112 214.461 164.251 214.269V210.555L163.796 210.538Z" fill="black"/>
<path d="M148.455 216.536C157.817 216.433 165.367 212.826 165.319 208.479C165.271 204.132 157.643 200.691 148.281 200.794C138.92 200.896 131.37 204.503 131.418 208.85C131.466 213.198 139.094 216.638 148.455 216.536Z" fill="#FFDA00"/>
<g opacity="0.4">
<path opacity="0.4" d="M148.682 201.674V202.102C156.995 202.102 163.779 204.9 163.822 208.348C163.865 211.796 156.806 214.833 148.416 214.919H148.012C139.7 214.919 132.916 212.112 132.873 208.673C132.873 207.056 134.444 205.413 137.227 204.181C140.742 202.789 144.496 202.097 148.279 202.145H148.682V201.717V201.674ZM148.682 201.717H148.27C139.485 201.811 132.401 204.951 132.444 208.733C132.486 212.515 139.416 215.398 148.012 215.398H148.425C157.201 215.304 164.294 212.164 164.251 208.391C164.208 204.617 157.278 201.725 148.682 201.725V201.717Z" fill="white"/>
</g>
<path d="M127.325 203.454V206.765C127.669 210.983 135.191 214.294 144.362 214.192C153.534 214.089 160.987 210.624 161.219 206.423V203.111L127.325 203.454Z" fill="#FFD215"/>
<path opacity="0.06" d="M128.382 205.473L128.425 209.203C128.57 209.388 128.725 209.565 128.889 209.734V205.456L128.382 205.473Z" fill="black"/>
<path opacity="0.06" d="M130.306 205.447L130.366 210.94L130.829 211.223L130.769 205.447H130.306Z" fill="black"/>
<path opacity="0.06" d="M132.306 205.43L132.374 212.01L132.838 212.207L132.761 205.422L132.306 205.43Z" fill="black"/>
<path opacity="0.06" d="M134.264 205.405L134.341 212.763L134.805 212.917L134.719 205.405H134.264Z" fill="black"/>
<path opacity="0.06" d="M136.222 205.388L136.308 213.328L136.771 213.43L136.685 205.379L136.222 205.388Z" fill="black"/>
<path opacity="0.06" d="M138.18 205.362L138.274 213.721L138.729 213.798L138.643 205.362H138.18Z" fill="black"/>
<path opacity="0.06" d="M140.138 205.345L140.232 213.986L140.696 214.038L140.61 205.336L140.138 205.345Z" fill="black"/>
<path opacity="0.06" d="M142.104 205.319L142.199 214.14H142.654L142.56 205.285L142.104 205.319Z" fill="black"/>
<path opacity="0.06" d="M144.045 205.302L144.139 214.192H144.603L144.5 205.302H144.045Z" fill="black"/>
<path opacity="0.06" d="M146.021 205.276L146.115 214.132H146.579L146.484 205.311L146.021 205.276Z" fill="black"/>
<path opacity="0.06" d="M147.979 205.259L148.073 213.961L148.537 213.901L148.442 205.251L147.979 205.259Z" fill="black"/>
<path opacity="0.06" d="M149.936 205.233L150.03 213.678L150.494 213.593L150.399 205.233H149.936Z" fill="black"/>
<path opacity="0.06" d="M151.902 205.216L151.988 213.268L152.443 213.156L152.357 205.208L151.902 205.216Z" fill="black"/>
<path opacity="0.06" d="M153.86 205.191L153.938 212.712L154.401 212.549L154.315 205.191H153.86Z" fill="black"/>
<path opacity="0.06" d="M155.818 205.174L155.896 211.959L156.351 211.745L156.282 205.165L155.818 205.174Z" fill="black"/>
<path opacity="0.06" d="M157.784 205.157L157.853 210.923C157.999 210.829 158.162 210.735 158.308 210.632L158.248 205.148L157.784 205.157Z" fill="black"/>
<path opacity="0.06" d="M159.734 205.131L159.786 209.409C159.949 209.229 160.095 209.041 160.241 208.861L160.198 205.139L159.734 205.131Z" fill="black"/>
<path d="M144.385 211.122C153.746 211.019 161.296 207.412 161.248 203.065C161.2 198.718 153.573 195.277 144.211 195.38C134.85 195.482 127.3 199.089 127.348 203.437C127.396 207.784 135.023 211.225 144.385 211.122Z" fill="#FFDA00"/>
<g opacity="0.4">
<path opacity="0.4" d="M144.612 196.267V196.694C152.916 196.694 159.708 199.492 159.743 202.932C159.777 206.371 152.727 209.417 144.346 209.512H143.942C135.63 209.512 128.837 206.714 128.803 203.274C128.768 199.835 135.818 196.78 144.2 196.694H144.612V196.267ZM144.612 196.267H144.2C135.415 196.361 128.33 199.501 128.373 203.274C128.416 207.047 135.346 209.939 143.942 209.939H144.346C153.131 209.845 160.215 206.705 160.172 202.932C160.129 199.159 153.199 196.267 144.612 196.267Z" fill="white"/>
</g>
<path d="M137.218 196.686V200.006C137.561 204.224 145.084 207.526 154.255 207.432C163.426 207.338 170.846 203.864 171.095 199.638V196.318L137.218 196.686Z" fill="#FFD215"/>
<path opacity="0.06" d="M138.274 198.722L138.317 202.453C138.462 202.638 138.617 202.815 138.781 202.983L138.738 198.705L138.274 198.722Z" fill="black"/>
<path opacity="0.06" d="M140.232 198.722L140.293 204.207C140.439 204.31 140.602 204.395 140.756 204.489L140.696 198.722H140.232Z" fill="black"/>
<path opacity="0.06" d="M142.198 198.662L142.267 205.242L142.731 205.439L142.653 198.662H142.198Z" fill="black"/>
<path opacity="0.06" d="M144.156 198.645L144.234 206.004L144.697 206.149L144.611 198.637L144.156 198.645Z" fill="black"/>
<path opacity="0.06" d="M146.114 198.62L146.2 206.56L146.664 206.671L146.569 198.62H146.114Z" fill="black"/>
<path opacity="0.06" d="M148.072 198.602L148.167 206.962L148.622 207.03L148.536 198.594L148.072 198.602Z" fill="black"/>
<path opacity="0.06" d="M150.056 198.577L150.15 207.227L150.614 207.278L150.519 198.577H150.056Z" fill="black"/>
<path opacity="0.06" d="M151.997 198.56L152.092 207.381H152.547L152.452 198.525L151.997 198.56Z" fill="black"/>
<path opacity="0.06" d="M153.955 198.534L154.05 207.424H154.513L154.41 198.534H153.955Z" fill="black"/>
<path opacity="0.06" d="M155.912 198.517L156.007 207.372L156.47 207.33L156.367 198.508L155.912 198.517Z" fill="black"/>
<path opacity="0.06" d="M157.87 198.491L157.965 207.193L158.428 207.142L158.334 198.491H157.87Z" fill="black"/>
<path opacity="0.06" d="M159.828 198.474L159.923 206.91L160.386 206.833L160.292 198.466L159.828 198.474Z" fill="black"/>
<path opacity="0.06" d="M161.795 198.448L161.881 206.5L162.336 206.389L162.25 198.448H161.795Z" fill="black"/>
<path opacity="0.06" d="M163.796 198.431L163.873 205.944L164.337 205.781L164.251 198.423L163.796 198.431Z" fill="black"/>
<path opacity="0.06" d="M165.711 198.406L165.788 205.191L166.243 204.985L166.166 198.406H165.711Z" fill="black"/>
<path opacity="0.06" d="M167.669 198.389L167.729 204.164L168.193 203.873L168.133 198.38L167.669 198.389Z" fill="black"/>
<path opacity="0.06" d="M169.626 198.363L169.678 202.641C169.841 202.461 169.987 202.282 170.133 202.093V198.38L169.626 198.363Z" fill="black"/>
<path d="M154.272 204.366C163.633 204.263 171.183 200.656 171.135 196.309C171.087 191.962 163.459 188.521 154.098 188.624C144.736 188.726 137.186 192.333 137.234 196.68C137.282 201.028 144.91 204.468 154.272 204.366Z" fill="#FFDD00"/>
<g opacity="0.4">
<path opacity="0.4" d="M154.504 189.499V189.927C162.808 189.927 169.601 192.724 169.635 196.173C169.67 199.621 162.619 202.658 154.238 202.744H153.835C145.522 202.744 138.73 199.937 138.695 196.498C138.661 193.058 145.711 190.012 154.092 189.918H154.504V189.49V189.499ZM154.504 189.49H154.092C145.307 189.584 138.223 192.724 138.266 196.506C138.309 200.288 145.239 203.171 153.835 203.171H154.238C163.023 203.077 170.108 199.937 170.065 196.164C170.022 192.391 163.092 189.499 154.504 189.499V189.49Z" fill="white"/>
</g>
<defs>
<linearGradient id="paint0_linear_4489_8733" x1="64.7165" y1="124.491" x2="91.5698" y2="137.503" gradientUnits="userSpaceOnUse">
<stop stop-color="#CDEAFF"/>
<stop offset="1" stop-color="#F4FAFF"/>
</linearGradient>
<linearGradient id="paint1_linear_4489_8733" x1="192.832" y1="138.427" x2="81.4287" y2="138.427" gradientUnits="userSpaceOnUse">
<stop stop-color="#80B6EA"/>
<stop offset="0.15" stop-color="#609FF7"/>
<stop offset="1" stop-color="#68A1EE"/>
</linearGradient>
<linearGradient id="paint2_linear_4489_8733" x1="113.916" y1="114.256" x2="139.426" y2="168.318" gradientUnits="userSpaceOnUse">
<stop stop-color="#A6CBF5"/>
<stop offset="0.48" stop-color="#BCD6FA"/>
<stop offset="0.97" stop-color="#A9CDF5"/>
<stop offset="1" stop-color="#A8CCF5"/>
</linearGradient>
<linearGradient id="paint3_linear_4489_8733" x1="30159.4" y1="1998.38" x2="31289.1" y2="1998.38" gradientUnits="userSpaceOnUse">
<stop stop-color="#A6CBF5"/>
<stop offset="0.48" stop-color="#BCD6FA"/>
<stop offset="0.97" stop-color="#A9CDF5"/>
<stop offset="1" stop-color="#A8CCF5"/>
</linearGradient>
<linearGradient id="paint4_linear_4489_8733" x1="30334.7" y1="1165.51" x2="31316.8" y2="1165.51" gradientUnits="userSpaceOnUse">
<stop stop-color="#A6CBF5"/>
<stop offset="0.48" stop-color="#BCD6FA"/>
<stop offset="0.97" stop-color="#A9CDF5"/>
<stop offset="1" stop-color="#A8CCF5"/>
</linearGradient>
<linearGradient id="paint5_linear_4489_8733" x1="209.339" y1="99.3128" x2="144.518" y2="73.5966" gradientUnits="userSpaceOnUse">
<stop offset="0.103686" stop-color="#80C1F9"/>
<stop offset="1" stop-color="#80C1F9" stop-opacity="0"/>
</linearGradient>
<linearGradient id="paint6_linear_4489_8733" x1="134.866" y1="53.0978" x2="112.49" y2="47.2841" gradientUnits="userSpaceOnUse">
<stop stop-color="#80C1F9"/>
<stop offset="1" stop-color="#80C1F9" stop-opacity="0"/>
</linearGradient>
<linearGradient id="paint7_linear_4489_8733" x1="31.9538" y1="188.568" x2="27.8826" y2="189.867" gradientUnits="userSpaceOnUse">
<stop stop-color="#133E8D" stop-opacity="0.4"/>
<stop offset="1" stop-color="#133E8D" stop-opacity="0"/>
</linearGradient>
<linearGradient id="paint8_linear_4489_8733" x1="201.216" y1="188.401" x2="184.176" y2="184.644" gradientUnits="userSpaceOnUse">
<stop stop-color="#6CB0F8"/>
<stop offset="1" stop-color="#3380E5"/>
</linearGradient>
<linearGradient id="paint9_linear_4489_8733" x1="182.641" y1="185.97" x2="200.41" y2="185.97" gradientUnits="userSpaceOnUse">
<stop stop-color="#70ACF7"/>
<stop offset="1" stop-color="#BFDDFB"/>
</linearGradient>
<linearGradient id="paint10_linear_4489_8733" x1="-22983.3" y1="3117.09" x2="-22593.3" y2="3117.09" gradientUnits="userSpaceOnUse">
<stop stop-color="#E3F0FD"/>
<stop offset="1" stop-color="#F0F7FD"/>
</linearGradient>
<linearGradient id="paint11_linear_4489_8733" x1="203.656" y1="212.672" x2="207.159" y2="213.791" gradientUnits="userSpaceOnUse">
<stop stop-color="#133E8F" stop-opacity="0.4"/>
<stop offset="1" stop-color="#133E8F" stop-opacity="0"/>
</linearGradient>
<linearGradient id="paint12_linear_4489_8733" x1="61385.4" y1="3347.6" x2="61360.3" y2="3352.45" gradientUnits="userSpaceOnUse">
<stop stop-color="#133E8F" stop-opacity="0.4"/>
<stop offset="1" stop-color="#133E8F" stop-opacity="0"/>
</linearGradient>
<linearGradient id="paint13_linear_4489_8733" x1="37.0156" y1="85.9981" x2="97.1526" y2="85.9981" gradientUnits="userSpaceOnUse">
<stop stop-color="#EFF9FF"/>
<stop offset="1" stop-color="white"/>
</linearGradient>
</defs>
</svg>
