<svg width="160" height="160" viewBox="0 0 160 160" fill="none" xmlns="http://www.w3.org/2000/svg">
<rect width="160" height="160" fill="#FCEBFF"/>
<g clip-path="url(#clip0_3472_2704)">
<path d="M67.064 63.3354L60.0409 100.04L59.127 104.828L105.936 104.604C108.035 104.604 109.896 102.692 110.573 99.8673L118.865 65.23C119.39 63.0942 118.256 60.8724 116.665 60.8724H69.2808C68.2485 60.924 67.3348 61.9058 67.064 63.3354Z" fill="url(#paint0_linear_3472_2704)" fill-opacity="0.4"/>
<path d="M101.452 97.542L96.4941 56.8936C96.4201 56.1163 96.0697 55.3932 95.5087 54.8604C94.9478 54.3275 94.2149 54.0216 93.4479 54H82.5832C82.1791 54.0021 81.7798 54.0888 81.41 54.2547C81.0402 54.4207 80.7082 54.6623 80.4341 54.9645L75.2725 60.5451L45.0479 60.7173C44.5961 60.7408 44.1541 60.8606 43.7506 61.0689C43.3471 61.2772 42.9912 61.5694 42.7057 61.9265C42.4202 62.2837 42.2113 62.6979 42.093 63.1424C41.9746 63.5868 41.9493 64.0516 42.0186 64.5066L46.6216 102.072C46.6956 102.849 47.0461 103.572 47.607 104.105C48.168 104.638 48.9008 104.944 49.6679 104.966L102.349 104.862C108.205 104.983 108.763 103.14 108.763 103.14C102.045 104.776 101.452 97.542 101.452 97.542Z" fill="url(#paint1_linear_3472_2704)"/>
<path d="M56.0455 86.6049C57.7652 86.6049 59.1593 85.186 59.1593 83.4357C59.1593 81.6854 57.7652 80.2665 56.0455 80.2665C54.3258 80.2665 52.9316 81.6854 52.9316 83.4357C52.9316 85.186 54.3258 86.6049 56.0455 86.6049Z" fill="#E44EFF" fill-opacity="0.4"/>
<path d="M80.7037 86.6049C82.4234 86.6049 83.8175 85.186 83.8175 83.4357C83.8175 81.6854 82.4234 80.2665 80.7037 80.2665C78.984 80.2665 77.5898 81.6854 77.5898 83.4357C77.5898 85.186 78.984 86.6049 80.7037 86.6049Z" fill="#E44EFF" fill-opacity="0.4"/>
<g clip-path="url(#clip1_3472_2704)">
<path d="M74.7289 86.4647C72.8585 88.1896 70.4427 89.215 67.8952 89.3653C66.8868 89.2829 65.9162 88.9471 65.0744 88.3896C64.2325 87.832 63.5471 87.0709 63.0827 86.1778C62.9964 86.0417 62.9393 85.8894 62.9145 85.7305C62.8896 85.5715 62.8977 85.4091 62.9384 85.2534C62.9748 85.0968 63.0434 84.9494 63.1401 84.8205C63.2367 84.6915 63.3592 84.584 63.4998 84.5044C63.6899 84.3791 63.9133 84.3125 64.1415 84.3132L64.4303 84.3132C64.5859 84.3492 64.7327 84.4157 64.8621 84.5087C64.9916 84.6017 65.1011 84.7195 65.1842 84.855C65.6494 85.62 66.6118 86.8791 67.8791 86.8791C69.8245 86.7258 71.6587 85.9159 73.0768 84.5841C73.1991 84.4773 73.3413 84.3955 73.4955 84.3435C73.6496 84.2915 73.8126 84.2704 73.975 84.2813C74.1376 84.2896 74.2967 84.3307 74.4428 84.4019C74.589 84.4731 74.7192 84.573 74.8253 84.6957C74.9413 84.8154 75.0311 84.9575 75.0894 85.1133C75.1478 85.269 75.1733 85.4351 75.1643 85.601C75.1552 85.7669 75.1118 85.9292 75.037 86.0778C74.9621 86.2264 74.8572 86.3581 74.7289 86.4647Z" fill="#E44EFF" fill-opacity="0.4"/>
</g>
</g>
<defs>
<linearGradient id="paint0_linear_3472_2704" x1="89.0611" y1="60.8724" x2="89.0611" y2="104.828" gradientUnits="userSpaceOnUse">
<stop stop-color="#E971FF"/>
<stop offset="1" stop-color="#DC1EFF"/>
</linearGradient>
<linearGradient id="paint1_linear_3472_2704" x1="75.3719" y1="54" x2="75.3719" y2="104.966" gradientUnits="userSpaceOnUse">
<stop stop-color="#F9D5FF"/>
<stop offset="1" stop-color="#F6C4FF"/>
</linearGradient>
<clipPath id="clip0_3472_2704">
<rect width="77" height="51" fill="white" transform="translate(42 54)"/>
</clipPath>
<clipPath id="clip1_3472_2704">
<rect width="14" height="6" fill="white" transform="matrix(1 8.74228e-08 8.74228e-08 -1 62 90)"/>
</clipPath>
</defs>
</svg>
