<svg width="280" height="280" viewBox="0 0 280 280" fill="none" xmlns="http://www.w3.org/2000/svg">
<path d="M216.23 101.78L78.2903 56C72.8471 54.2376 66.8812 55.3682 62.4603 59L62.2503 59.18C60.4139 60.6759 59.4122 62.9661 59.5603 65.33C59.7303 68.23 92.3103 197 92.3103 197L218.53 238.9C222.492 240.213 226.842 239.544 230.227 237.103C233.611 234.661 235.617 230.743 235.62 226.57V128.64C235.617 116.445 227.804 105.623 216.23 101.78Z" fill="url(#paint0_linear_3215_1735)"/>
<path d="M197.49 116L69 73.33L66.33 72.45L64.6 71.88C61.4649 70.8418 59.3993 67.8495 59.54 64.55V70.19V191.78C59.5332 200.594 65.1759 208.42 73.54 211.2L199.76 253.08C203.72 254.389 208.067 253.719 211.449 251.277C214.831 248.836 216.836 244.921 216.84 240.75V142.82C216.831 130.648 209.038 119.846 197.49 116Z" fill="url(#paint1_linear_3215_1735)"/>
<path d="M256.79 250.8C256.79 235.14 244.61 221.06 229.59 219.35C224.003 218.636 218.343 219.899 213.59 222.92L210.5 224.92L243.24 273.92L246.4 271.81C252.74 267.38 256.79 259.81 256.79 250.8Z" fill="#CCD0D6"/>
<path opacity="0.06" d="M226.58 219.18C225.73 219.18 224.88 219.18 224.05 219.3L216.15 223.3L216.61 224.22L226.58 219.18Z" fill="black"/>
<path opacity="0.06" d="M231.08 219.56L217.67 226.3L218.13 227.21L232.7 219.89C232.16 219.77 231.63 219.65 231.08 219.56Z" fill="black"/>
<path opacity="0.06" d="M236 220.88L219.19 229.32L219.65 230.23L237.28 221.38C236.85 221.2 236.43 221 236 220.88Z" fill="black"/>
<path opacity="0.06" d="M240 222.67L220.75 232.34L221.21 233.26L241.07 223.26C240.68 223.07 240.32 222.87 240 222.67Z" fill="black"/>
<path opacity="0.06" d="M243.3 224.78L222.23 235.37L222.69 236.28L244.21 225.47C243.91 225.23 243.61 225 243.3 224.78Z" fill="black"/>
<path opacity="0.06" d="M246.17 227.12L223.75 238.39L224.21 239.3L247 227.87L246.17 227.12Z" fill="black"/>
<path opacity="0.06" d="M248.661 229.66L225.271 241.41L225.731 242.33L249.341 230.47C249.121 230.19 248.891 229.93 248.661 229.66Z" fill="black"/>
<path opacity="0.06" d="M250.801 232.37L226.801 244.44L227.261 245.35L251.401 233.22C251.201 232.93 251.001 232.65 250.801 232.37Z" fill="black"/>
<path opacity="0.06" d="M252.621 235.24L228.311 247.46L228.771 248.38L253.111 236.14C253.001 235.84 252.791 235.54 252.621 235.24Z" fill="black"/>
<path opacity="0.06" d="M254.14 238.27L229.83 250.48L230.29 251.4L254.53 239.22L254.14 238.27Z" fill="black"/>
<path opacity="0.06" d="M255.33 241.46L231.33 253.46L231.79 254.37L255.61 242.37L255.33 241.46Z" fill="black"/>
<path opacity="0.06" d="M256.19 244.81L232.87 256.53L233.33 257.45L256.33 245.86C256.32 245.51 256.26 245.16 256.19 244.81Z" fill="black"/>
<path opacity="0.06" d="M256.691 248.35L234.391 259.56L234.851 260.47L256.761 249.47C256.741 249.09 256.711 248.72 256.691 248.35Z" fill="black"/>
<path opacity="0.06" d="M256.75 252.1L235.9 262.58L236.36 263.49L256.67 253.29C256.71 252.89 256.74 252.5 256.75 252.1Z" fill="black"/>
<path opacity="0.06" d="M238.201 266.36L256.021 257.36C256.121 256.94 256.211 256.51 256.291 256.08L237.631 265.46L238.201 266.36Z" fill="black"/>
<path opacity="0.06" d="M240.101 269.19L254.471 262C254.681 261.52 254.881 261 255.071 260.55L239.521 268.36L240.101 269.19Z" fill="black"/>
<path opacity="0.06" d="M242.001 272L251.131 267.41C251.615 266.824 252.069 266.213 252.491 265.58L241.431 271.14L242.001 272Z" fill="black"/>
<path d="M226.85 221.15C211.85 219.43 199.65 230.73 199.65 246.38C199.65 262.03 211.83 276.11 226.85 277.83C241.87 279.55 254.05 268.25 254.05 252.6C254.05 236.95 241.87 222.87 226.85 221.15Z" fill="#DFE1E5"/>
<path opacity="0.4" d="M223.69 223.93C224.643 223.93 225.595 223.991 226.54 224.11C239.92 225.76 250.9 238.53 251.02 252.57C251.186 258.674 248.903 264.59 244.68 269C240.793 272.888 235.507 275.05 230.01 275C229.054 274.999 228.099 274.939 227.15 274.82C213.78 273.17 202.8 260.4 202.68 246.36C202.501 240.261 204.778 234.345 209 229.94C212.884 226.048 218.172 223.886 223.67 223.94L223.69 223.93ZM223.67 223.24C211.33 223.24 201.85 233.07 201.96 246.42C202.08 260.83 213.31 273.88 227.05 275.57C228.025 275.697 229.007 275.76 229.99 275.76C242.33 275.76 251.81 265.93 251.7 252.57C251.58 238.17 240.34 225.12 226.61 223.42C225.634 223.301 224.653 223.241 223.67 223.24Z" fill="white"/>
<path d="M225.811 249.61L234.071 258.88C236.164 256.781 237.322 253.925 237.281 250.96C237.244 247.77 236.095 244.693 234.031 242.26L225.811 249.61Z" fill="#EBEEF2"/>
<path d="M225.21 250.15L217.07 257.43L225.19 261.77L233.31 259.31L225.21 250.15Z" fill="#EBEEF2"/>
<path d="M224.9 249.17L233.31 241.68L225.57 237.54L217.78 255.55L224.9 249.17Z" fill="#EBEEF2"/>
<path d="M213.101 248.15C213.132 251.334 214.275 254.408 216.331 256.84L224.441 238L213.101 248.15Z" fill="#EBEEF2"/>
<path opacity="0.06" d="M223 237.54V221C209.82 221.46 199.69 232.1 199.69 246.38C199.708 248.932 200.044 251.471 200.69 253.94L202.13 254.42C206.71 256.12 223 251.4 223 237.54Z" fill="black"/>
<path d="M205.619 129L139.619 110.52C136.779 109.77 134.489 106.52 134.489 103.31L133.159 7.35003C133.159 4.12003 137.019 1.35003 139.849 2.13003L206.999 20C209.829 20.75 212.129 24 212.129 27.2L211.939 123.87C211.889 127.05 208.459 129.71 205.619 129Z" fill="url(#paint2_linear_3215_1735)"/>
<path d="M205.28 129L138.19 111.18C135.36 110.43 133.06 107.18 133.06 103.97V7.87004C133.06 4.64004 135.36 2.64004 138.19 3.39004L205.28 21.21C208.12 21.97 210.42 25.21 210.42 28.42V124.52C210.42 127.75 208.12 129.75 205.28 129Z" fill="#80C4FF"/>
<path d="M205.329 37.45C200.109 36.07 195.879 30.13 195.879 24.19L147.309 11.29C147.309 17.14 143.199 20.8 138.079 19.58V95.13C143.139 96.61 147.209 102.34 147.299 108.13L195.879 121C195.979 115.17 200.169 111.58 205.329 113H205.389V37.47L205.329 37.45Z" fill="#2A7CDD"/>
<path d="M157.6 46.5601L150.54 54.2201L160.45 60.4101L166.57 58.4701L157.6 46.5601Z" fill="#FFD000"/>
<path d="M164.67 57.9701L157.6 46.5601L173.37 50.7501L164.67 57.9701Z" fill="#FFE000"/>
<path d="M171.74 50.32L164.67 57.97L171.52 63.72L180.7 62.23L171.74 50.32Z" fill="#FFD000"/>
<path d="M185.87 54.07L176.54 61.12L183.44 66.88L192.94 65.48L185.87 54.07Z" fill="#FFD000"/>
<path d="M178.799 61.72L171.739 50.32L185.869 54.07L178.799 61.72Z" fill="#FFE000"/>
<path d="M171.74 89.59L165.68 58.23L150.54 54.22L171.74 89.59Z" fill="#FFD800"/>
<path d="M171.739 89.5901L176.539 61.1201L192.939 65.4801L171.739 89.5901Z" fill="#FFD800"/>
<path d="M171.74 89.59L164.67 57.97L178.8 61.72L171.74 89.59Z" fill="#FFE000"/>
<path opacity="0.06" d="M133.06 33.19V79.77L147.78 102.06L151.72 99.43C159.57 93.87 164.19 83.14 164.19 71.91C164.19 53.38 150.48 36.64 133.06 33.19Z" fill="black"/>
<path d="M161.58 71.91C161.58 52.42 146.41 34.91 127.71 32.75C120.771 31.8758 113.744 33.4495 107.84 37.2L104 39.72L144.76 100.72L148.7 98.1C156.54 92.56 161.58 83.14 161.58 71.91Z" fill="#F8CE23"/>
<path opacity="0.06" d="M124 32.54C122.93 32.54 121.88 32.6 120.85 32.7L111 37.64L111.57 38.78L124 32.54Z" fill="black"/>
<path opacity="0.06" d="M129.57 33.0001L112.87 41.3901L113.45 42.5201L131.58 33.4101C130.92 33.2801 130.24 33.1401 129.57 33.0001Z" fill="black"/>
<path opacity="0.06" d="M135.691 34.66L114.771 45.17L115.341 46.31L137.281 35.31C136.751 35.06 136.221 34.85 135.691 34.66Z" fill="black"/>
<path opacity="0.06" d="M140.63 36.8901L116.63 48.8901L117.2 50.0201L142 37.6501L140.63 36.8901Z" fill="black"/>
<path opacity="0.06" d="M144.78 39.52L118.55 52.7L119.12 53.84L145.92 40.37L144.78 39.52Z" fill="black"/>
<path opacity="0.06" d="M148.36 42.4401L120.44 56.4401L121 57.6001L149.33 43.3701C149 43.0501 148.69 42.7401 148.36 42.4401Z" fill="black"/>
<path opacity="0.06" d="M151.45 45.6L122.33 60.23L122.9 61.37L152.3 46.6C152 46.26 151.74 45.92 151.45 45.6Z" fill="black"/>
<path opacity="0.06" d="M154.12 49.0001L124.22 64.0001L124.8 65.1401L154.85 50.0001C154.61 49.6701 154.36 49.3201 154.12 49.0001Z" fill="black"/>
<path opacity="0.06" d="M156.38 52.55L126.11 67.76L126.69 68.9L157 53.67C156.8 53.29 156.59 52.92 156.38 52.55Z" fill="black"/>
<path opacity="0.06" d="M158.27 56.3101L128 71.5201L128.57 72.6601L158.75 57.4901C158.6 57.1001 158.44 56.7001 158.27 56.3101Z" fill="black"/>
<path opacity="0.06" d="M159.75 60.28L129.9 75.28L130.47 76.41L160.13 61.51C160 61.11 159.88 60.69 159.75 60.28Z" fill="black"/>
<path opacity="0.06" d="M160.83 64.46L131.83 79.05L132.4 80.19L161.1 65.77C161 65.33 160.92 64.89 160.83 64.46Z" fill="black"/>
<path opacity="0.06" d="M161.44 68.86L133.68 82.86L134.25 84L161.54 70.29C161.52 69.78 161.48 69.32 161.44 68.86Z" fill="black"/>
<path opacity="0.06" d="M161.53 73.54L135.53 86.54L136.1 87.68L161.43 75C161.47 74.52 161.51 74 161.53 73.54Z" fill="black"/>
<path opacity="0.06" d="M138.43 91.28L160.62 80.13C160.75 79.61 160.85 79.13 160.95 78.54L137.72 90.21L138.43 91.28Z" fill="black"/>
<path opacity="0.06" d="M140.79 94.8101L158.69 85.8101C158.95 85.2201 159.2 84.6201 159.43 84.0101L140.08 93.7301L140.79 94.8101Z" fill="black"/>
<path opacity="0.06" d="M143.15 98.34L154.52 92.63C155.11 91.9 155.68 91.15 156.21 90.36L142.43 97.28L143.15 98.34Z" fill="black"/>
<path d="M144.468 100.921C159.494 91.032 162.644 69.2938 151.505 52.3673C140.365 35.4408 119.153 29.7357 104.128 39.6245C89.1017 49.5134 85.9515 71.2516 97.0913 88.1781C108.231 105.105 129.443 110.81 144.468 100.921Z" fill="#FFDF05"/>
<path opacity="0.4" d="M120.36 38.46C121.55 38.4591 122.739 38.5327 123.92 38.68C140.57 40.74 154.24 56.68 154.39 74.12C154.619 81.7354 151.775 89.1228 146.5 94.62C141.663 99.4681 135.078 102.164 128.23 102.1C127.043 102.101 125.858 102.027 124.68 101.88C108 99.82 94.3502 83.93 94.2002 66.45C93.9775 58.8308 96.8238 51.4412 102.1 45.94C106.936 41.0963 113.516 38.4008 120.36 38.46ZM120.36 37.59C105 37.59 93.1902 49.83 93.3602 66.45C93.5202 84.38 107.5 100.63 124.6 102.75C125.815 102.897 127.037 102.97 128.26 102.97C143.62 102.97 155.43 90.74 155.26 74.11C155.11 56.18 141.12 39.93 124.02 37.82C122.806 37.665 121.584 37.5882 120.36 37.59Z" fill="white"/>
<path d="M123 70.4301L133.28 82.0001C135.892 79.3898 137.335 75.8325 137.28 72.1401C137.247 68.1747 135.832 64.3451 133.28 61.3101L123 70.4301Z" fill="#FFEC47"/>
<path d="M122.26 71.1L112.12 80.17L122.23 85.57L132.35 82.51L122.26 71.1Z" fill="#FFEC47"/>
<path d="M121.87 69.88L132.34 60.56L122.7 55.41L113.01 77.83L121.87 69.88Z" fill="#FFEC47"/>
<path d="M107.18 68.6201C107.214 72.5793 108.628 76.4025 111.18 79.4301L121.3 56.0001L107.18 68.6201Z" fill="#FFEC47"/>
<path opacity="0.06" d="M91.6104 75.78C92.8037 80.4278 94.8077 84.8286 97.5304 88.78L141.05 102.78C144.924 100.909 148.338 98.2088 151.05 94.87L91.6104 75.78Z" fill="black"/>
<path d="M219.56 220.31V141.48C219.566 129.06 211.59 118.043 199.79 114.17L65.3703 69.61C63.6696 69.0518 62.397 67.627 62.0336 65.8743C61.6703 64.1216 62.2716 62.3083 63.6103 61.12L63.9503 60.81C67.8439 57.3533 73.2748 56.2123 78.2303 57.81L90.7103 62C90.7803 61.41 90.8603 60.82 90.9603 60.24L78.2903 56C72.8471 54.2376 66.8812 55.3682 62.4603 59L62.2503 59.18C60.4139 60.6759 59.4122 62.9661 59.5603 65.33C59.5603 65.7 59.4503 71.33 66.1503 73.47C92.2303 81.9 165.22 106.4 195.26 116.12C201.91 118.28 215.59 127.12 215.59 140.64C215.59 160.48 211.33 231.33 207.51 253.18C210.861 252.081 213.967 250.346 216.66 248.07C219.73 245.37 219.66 239.17 219.66 239.17L219.56 220.31Z" fill="url(#paint3_linear_3215_1735)"/>
<path d="M216.23 101.78L211.93 100.35V102.13L213.93 102.79C225.728 106.666 233.702 117.681 233.7 130.1V220.1C234.37 220.28 235.03 220.49 235.7 220.72V128.62C235.679 116.41 227.83 105.59 216.23 101.78Z" fill="url(#paint4_linear_3215_1735)"/>
<path d="M197.49 116L69 73.33L66.33 72.45L64.6 71.88C61.4649 70.8418 59.3993 67.8495 59.54 64.55V70.19V191.78C59.5332 200.594 65.1759 208.42 73.54 211.2L199.76 253.08C203.72 254.389 208.067 253.719 211.449 251.277C214.831 248.836 216.836 244.921 216.84 240.75V142.82C216.831 130.648 209.038 119.846 197.49 116Z" fill="url(#paint5_linear_3215_1735)"/>
<path d="M236.14 165.78L235.62 165.73L220.79 176C219.923 176.586 218.929 176.956 217.89 177.08C217.041 177.118 216.192 177.009 215.38 176.76L197.08 170.7C194.507 169.842 191.679 170.273 189.478 171.857C187.277 173.442 185.972 175.988 185.97 178.7C185.971 185.25 190.165 191.063 196.38 193.13L218.14 200.35L235.62 188.29L237.17 166.56C237.17 166.07 236.76 165.88 236.14 165.78Z" fill="#D0E7FF"/>
<path d="M221.15 177.9C220.26 178.523 219.229 178.915 218.15 179.04C217.306 179.107 216.457 179.029 215.64 178.81L195.45 172.08C192.877 171.222 190.049 171.653 187.848 173.237C185.647 174.822 184.342 177.368 184.34 180.08C184.344 186.629 188.537 192.44 194.75 194.51L215.69 201.51C216.494 201.689 217.317 201.763 218.14 201.73C219.231 201.642 220.273 201.239 221.14 200.57L236.07 190.31C236.751 189.846 237.156 189.074 237.15 188.25V166.53C237.15 166.53 237.09 166.72 236.71 166.99L221.15 177.9Z" fill="url(#paint6_linear_3215_1735)"/>
<path d="M196.549 188.602C199.478 187.494 200.78 183.761 199.457 180.264C198.134 176.767 194.687 174.83 191.758 175.938C188.829 177.046 187.527 180.779 188.85 184.276C190.173 187.773 193.62 189.71 196.549 188.602Z" fill="white"/>
<path d="M164.85 162.12L164.76 161.64C163.823 156.577 160.126 152.466 155.19 151L144.38 147.62L109.88 136.8C104.88 135.22 101.16 137 100.27 141.45L100.18 141.88C100.019 142.952 99.9421 144.036 99.9497 145.12V158.35C99.9542 159.312 100.008 160.273 100.11 161.23V161.28C100.654 166.821 104.528 171.468 109.88 173L140.75 182.68H140.85L142.63 183.24C142.757 183.286 142.898 183.263 143.004 183.179C143.11 183.096 143.165 182.964 143.15 182.83V161.47C143.144 161.141 142.938 160.848 142.63 160.73L140.75 160.14C140.624 160.094 140.482 160.117 140.376 160.201C140.271 160.284 140.215 160.416 140.23 160.55V179.33L110.61 170C105.923 168.607 102.756 164.238 102.89 159.35V146C102.89 141 105.71 138.72 110.61 140.25L149.71 152.51L154.46 154C159.136 155.336 162.305 159.68 162.15 164.54V177.92C162.15 182.85 159.36 185.3 154.46 183.76L153.46 183.47L152.27 183.1L151.7 182.92C151.575 182.873 151.433 182.895 151.328 182.98C151.224 183.064 151.171 183.197 151.19 183.33V185.38C151.199 185.703 151.4 185.99 151.7 186.11L152.08 186.23L153.02 186.52L153.55 186.68L155.2 187.2C160.72 188.93 164.33 186.8 164.93 181.54C165.048 180.618 165.101 179.689 165.09 178.76V165.51C165.101 164.375 165.021 163.242 164.85 162.12Z" fill="white"/>
<path d="M127.06 165.63C126.969 167.664 128.202 169.523 130.11 170.23L130.92 170.48C131.048 170.53 131.193 170.51 131.302 170.426C131.411 170.342 131.467 170.206 131.45 170.07V168.26C131.448 168.098 131.396 167.941 131.3 167.81C131.208 167.679 131.079 167.579 130.93 167.52L129.99 167.23V152.74C129.977 152.415 129.773 152.129 129.47 152.01L127.59 151.42C127.465 151.373 127.323 151.395 127.218 151.48C127.114 151.564 127.061 151.697 127.08 151.83L127.06 165.63Z" fill="white"/>
<path d="M133.64 159.65V167.7C133.549 169.732 134.789 171.587 136.7 172.28L137.48 172.53C137.607 172.576 137.749 172.553 137.854 172.469C137.96 172.386 138.015 172.254 138 172.12V170.31C138.01 170.23 138.01 170.15 138 170.07C137.976 169.991 137.939 169.917 137.89 169.85C137.803 169.721 137.677 169.623 137.53 169.57L136.62 169.28V160.57C136.614 160.241 136.408 159.948 136.1 159.83L134.21 159.24C134.084 159.194 133.942 159.217 133.837 159.301C133.731 159.384 133.676 159.516 133.69 159.65H133.64Z" fill="white"/>
<path d="M124.81 151.36V151.29C124.81 151.29 124.81 151.22 124.81 151.18C124.815 151.117 124.815 151.053 124.81 150.99C124.796 150.917 124.773 150.847 124.74 150.78V150.71L124.66 150.62L124.6 150.55L124.52 150.48L124.34 150.39L122.19 149.71H122C121.937 149.718 121.877 149.746 121.83 149.79L115.18 154C114.428 154.816 114.364 156.052 115.03 156.94L121.76 167.36C121.799 167.417 121.846 167.468 121.9 167.51C121.956 167.551 122.016 167.585 122.08 167.61L124.29 168.3C124.343 168.31 124.397 168.31 124.45 168.3H124.51H124.6C124.639 168.267 124.67 168.226 124.69 168.18V168.04C124.683 167.907 124.646 167.777 124.58 167.66L117.42 156.34L124.51 151.57C124.651 151.594 124.785 151.501 124.81 151.36Z" fill="white"/>
<path d="M134.161 156.64L136.051 157.23C136.238 157.3 136.448 157.213 136.531 157.03C136.542 156.961 136.542 156.89 136.531 156.82V154.82C136.541 154.744 136.541 154.666 136.531 154.59C136.452 154.361 136.277 154.178 136.051 154.09L134.161 153.5C134.035 153.449 133.893 153.469 133.786 153.551C133.679 153.633 133.624 153.766 133.641 153.9V155.9C133.63 155.966 133.63 156.034 133.641 156.1C133.707 156.359 133.904 156.564 134.161 156.64Z" fill="white"/>
<path d="M113.161 147.44C113.154 147.111 112.948 146.818 112.641 146.7L110.761 146.11C110.701 146.101 110.64 146.101 110.581 146.11L110.471 146.16C110.43 146.191 110.399 146.232 110.381 146.28C110.369 146.35 110.369 146.421 110.381 146.49V163.35C110.371 163.43 110.371 163.51 110.381 163.59C110.456 163.821 110.633 164.005 110.861 164.09L112.741 164.68C112.867 164.726 113.009 164.703 113.114 164.619C113.22 164.536 113.276 164.404 113.261 164.27V147.44H113.161Z" fill="white"/>
<path d="M154.66 172.17V172.07V171.97C154.784 170.974 154.784 169.966 154.66 168.97C154.368 166.14 152.391 163.768 149.66 162.97L148.06 162.47L144.96 161.47C144.836 161.425 144.697 161.443 144.59 161.52C144.489 161.612 144.434 161.744 144.44 161.88V164C144.443 164.248 144.561 164.481 144.76 164.63C144.821 164.676 144.888 164.713 144.96 164.74L148.06 165.74L149.34 166.14C150.921 166.479 152.03 167.904 151.97 169.52V169.58C151.97 171.3 151.09 171.9 149.34 171.35L148.06 170.95L144.96 169.95H144.76C144.709 169.96 144.662 169.98 144.62 170.01C144.574 170.042 144.539 170.087 144.52 170.14C144.514 170.18 144.514 170.22 144.52 170.26C144.514 170.29 144.514 170.32 144.52 170.35V172.35C144.528 172.677 144.734 172.966 145.04 173.08L148.14 174.08L149.8 174.6C152.4 175.42 154.21 174.46 154.66 172.17Z" fill="white"/>
<path d="M90.6004 165L7.44043 194V259C7.44043 261.69 8.84043 264.28 11.7004 266.29C18.4704 271.06 30.9704 270.87 39.4804 265.89L83.1504 241.28C88.4504 238.18 90.9904 233.91 90.5204 229.99H90.5804L90.6004 165Z" fill="url(#paint7_linear_3215_1735)"/>
<path d="M83.1704 176L39.5004 200.64C30.9904 205.64 18.5004 205.81 11.7204 201.05C4.95042 196.29 6.37042 188.32 14.8704 183.33L58.5404 158.73C67.0504 153.73 79.5404 153.56 86.3204 158.32C93.0904 163.08 91.6704 171.05 83.1704 176Z" fill="#80C4FF"/>
<path d="M73.5304 205.8L67.5304 202.45C65.0804 201.15 61.8804 201.27 58.3604 203.16C50.6704 207.29 44.4404 218.21 44.4404 227.55C44.4404 232.47 46.1804 235.94 48.9304 237.55L54.8804 241L73.5304 205.8Z" fill="url(#paint8_linear_3215_1735)"/>
<path d="M74.7225 228.853C79.754 219.088 79.1245 208.746 73.3166 205.753C67.5087 202.761 58.7217 208.251 53.6903 218.016C48.6589 227.781 49.2883 238.123 55.0962 241.115C60.9041 244.108 69.6911 238.618 74.7225 228.853Z" fill="#D0E7FF"/>
<path d="M67.9005 219.06C67.9005 216.58 66.2505 215.46 64.2105 216.56C61.9989 217.972 60.62 220.378 60.5205 223C60.5205 224.76 61.3505 225.83 62.5205 225.91V230.8C62.5205 231.89 63.2605 232.39 64.1605 231.91C65.1425 231.278 65.7547 230.207 65.8005 229.04V224.15C67.0607 222.743 67.8017 220.947 67.9005 219.06Z" fill="#2A60B7"/>
<path d="M41.5504 186.52L18.4004 187.77V191.85C18.4058 193.295 19.1005 194.651 20.2704 195.5C23.7704 198.31 30.9504 198.79 36.2704 196.56C39.8104 195.08 41.5004 192.89 41.5004 190.61L41.5504 186.52Z" fill="url(#paint9_linear_3215_1735)"/>
<path d="M29.7187 194.051C36.1252 193.603 41.1159 190.343 40.8658 186.769C40.6157 183.196 35.2194 180.663 28.8129 181.111C22.4064 181.56 17.4157 184.82 17.6658 188.393C17.9159 191.967 23.3122 194.5 29.7187 194.051Z" fill="#D0E7FF"/>
<path d="M80.86 163.79L59.54 165V168.75C59.5414 170.081 60.1811 171.331 61.26 172.11C64.48 174.7 71.09 175.11 76.02 173.11C79.28 171.75 80.84 169.73 80.84 167.63L80.86 163.79Z" fill="url(#paint10_linear_3215_1735)"/>
<path d="M70.6438 170.115C76.5259 169.677 81.0964 166.665 80.8523 163.388C80.6082 160.111 75.642 157.81 69.7599 158.248C63.8778 158.686 59.3073 161.698 59.5514 164.975C59.7955 168.252 64.7617 170.554 70.6438 170.115Z" fill="#D0E7FF"/>
<path d="M74.4902 139.83C74.4902 124.54 59.1602 119.83 49.4902 122.95C32.2802 128.48 24.4902 142.83 24.4902 163.88V186.18C24.5461 186.791 24.8679 187.347 25.3702 187.7C27.0102 189.03 30.3702 189.25 32.8902 188.2C34.5302 187.52 35.3902 186.47 35.3502 185.46V161.46C35.3502 148.63 40.7602 138.27 50.4102 134.15C57.8002 131 65.4702 134.59 65.4702 143.83V163.39C65.5037 163.912 65.7675 164.392 66.1902 164.7C67.5602 165.8 70.3802 165.99 72.4802 165.11C73.8802 164.53 74.5902 163.62 74.4802 162.75L74.4902 139.83Z" fill="#BFD9FF"/>
<path d="M49.4502 123C32.2402 128.53 24.4502 142.88 24.4502 163.93V186.23C24.5061 186.841 24.8279 187.397 25.3302 187.75C26.9702 189.08 30.3302 189.3 32.8502 188.25C34.4902 187.57 35.3502 186.52 35.3102 185.51V161.51C35.3102 148.68 40.7202 138.32 50.3702 134.2C57.7402 131 59.1602 119.82 49.4502 123Z" fill="url(#paint11_linear_3215_1735)"/>
<path d="M74.4902 139.83C74.4902 124.54 65.4102 134.58 65.4102 143.83V163.39C65.4436 163.912 65.7074 164.392 66.1302 164.7C67.5002 165.8 70.3202 165.99 72.4202 165.11C73.8202 164.53 74.5302 163.62 74.4202 162.75L74.4902 139.83Z" fill="url(#paint12_linear_3215_1735)"/>
<path d="M171.8 270.54L173 272.47L173.73 271.99L172.88 269.88L171.8 270.54Z" fill="#FEC6BD"/>
<path d="M173.42 271.46L172.99 272.46C172.547 272.807 172.135 273.191 171.76 273.61C171.28 274.18 170.4 273.81 169.87 274.52C169.34 275.23 171.73 274.97 172.57 274.77C173.459 274.434 174.274 273.928 174.97 273.28C175.47 272.86 174.12 271 173.42 271.46Z" fill="#30343A"/>
<path d="M160.8 252.69C160.8 252.69 161.8 259.27 165.08 262.91C168.36 266.55 171.8 270.53 171.8 270.53L173.08 269.9C173.08 269.9 171.43 264.37 170.34 260.54C168.801 254.612 167.721 248.574 167.11 242.48L160.8 252.69Z" fill="#255297"/>
<path d="M160.8 252.69C160.8 252.69 161.8 259.27 165.08 262.91C168.36 266.55 171.8 270.53 171.8 270.53L173.08 269.9C173.08 269.9 171.43 264.37 170.34 260.54C168.801 254.612 167.721 248.574 167.11 242.48L160.8 252.69Z" fill="url(#paint13_linear_3215_1735)"/>
<path d="M150.559 271.04L149.609 273.6L150.709 274.38L151.779 271.55L150.559 271.04Z" fill="#FEC6BD"/>
<path d="M149.75 273.17C149.333 273.041 148.893 273.004 148.46 273.06C147.56 273.12 146.37 272.19 145.78 272.55C145.19 272.91 145.64 273.23 146.65 273.88C147.928 274.652 149.265 275.321 150.65 275.88C151.05 275.96 151.84 274.47 151.08 273.51L149.75 273.17Z" fill="#30343A"/>
<path d="M155.429 241.91C155.429 241.91 153.359 252.13 152.229 259.91C151.099 267.69 150.399 271.15 150.399 271.15L152.199 271.67C152.199 271.67 154.859 267.2 157.199 262.58C158.739 259.424 159.936 256.111 160.769 252.7C160.769 252.7 166.999 248.76 167.079 242.49L155.429 241.91Z" fill="#2A60B7"/>
<path d="M149.49 226.93C149.49 226.93 148.1 226.06 148.1 225.5C148.1 224.94 147.57 223.88 148.1 224.03C148.63 224.18 150.2 226.14 150.2 226.14L149.49 226.93Z" fill="#FEC6BD"/>
<path d="M157.72 220C157.72 220 154.45 227.7 154.11 229C153.77 230.3 152.76 229 151.86 227.95C150.96 226.9 150.24 226.15 150.24 226.15L149.49 226.94C149.49 226.94 152.01 233.81 153.7 234.64C155.39 235.47 157.7 233.96 157.7 233.96L157.72 220Z" fill="#508FEA"/>
<path d="M152.609 213.21C152.533 214.125 152.533 215.045 152.609 215.96C152.919 218.07 154.529 219.42 155.099 219.27C155.669 219.12 156.379 218.89 156.379 218.89L157.699 220.01L160.029 219.15L157.769 216.15C157.769 216.15 157.879 212.92 156.769 212.76C155.372 212.776 153.978 212.927 152.609 213.21Z" fill="#FEC6BD"/>
<path d="M154.259 213.77C154.259 213.77 151.839 213.93 151.199 213.03C150.559 212.13 150.879 210.35 151.749 210.34C152.619 210.33 153.299 211.24 154.579 211.13C155.859 211.02 156.779 210.42 157.729 210.97C158.803 211.551 159.343 212.788 159.039 213.97C158.609 215.07 158.149 216.24 157.539 216.24C156.929 216.24 156.629 215.79 156.819 215.34C157.009 214.89 157.129 213.91 156.429 213.8C156.148 213.738 155.853 213.794 155.613 213.955C155.374 214.115 155.21 214.366 155.159 214.65V215.11C154.841 215.097 154.547 214.933 154.369 214.668C154.192 214.404 154.151 214.07 154.259 213.77Z" fill="#30343A"/>
<path d="M159.41 218.4C159.41 218.4 159.41 219.3 157.72 220.01C156.486 222.922 155.681 225.997 155.33 229.14C155.07 233.35 155.43 241.91 155.43 241.91C155.43 241.91 162.71 243.04 167.11 242.48C167.11 242.48 168.68 230.23 165.57 224.93C162.46 219.63 159.41 218.4 159.41 218.4Z" fill="#6DB1F8"/>
<path d="M146.37 222.31L149.6 226.51L150.08 225.87C150.171 225.737 150.171 225.563 150.08 225.43L147.78 222.33C147.702 222.217 147.566 222.159 147.43 222.18L146.37 222.31Z" fill="#30343A"/>
<path d="M164.49 226L159.49 225.89C159.939 228.979 160.139 232.099 160.09 235.22C160.031 238.264 160.436 241.298 161.29 244.22C161.257 244.939 161.409 245.655 161.73 246.3C162.07 247.05 163.04 246.94 163.57 246.3C164.1 245.66 163.63 244.52 163.57 244.37C164.06 245.26 167.05 240.44 167.25 235.37C167.431 232.023 166.457 228.715 164.49 226Z" fill="url(#paint14_linear_3215_1735)"/>
<path d="M162.6 244.24C162.287 244.882 162.196 245.61 162.34 246.31C162.67 247.06 163.65 246.95 164.18 246.31C164.71 245.67 164.18 244.31 164.18 244.31L162.6 244.24Z" fill="#FEC6BD"/>
<path d="M159 225.72C160.132 228.77 160.94 231.931 161.41 235.15C162.12 240.3 162.57 244.24 162.57 244.24C163.062 244.483 163.629 244.522 164.15 244.35C165.763 241.269 166.684 237.873 166.85 234.4C166.988 231.019 166.345 227.652 164.97 224.56L159 225.72Z" fill="#6DB1F8"/>
<path d="M125.3 268.67L125.4 271.23L124.2 271.61L124.06 268.77L125.3 268.67Z" fill="#FEC6BD"/>
<path d="M125.259 270.93C125.663 271.007 126.045 271.171 126.379 271.41C127.099 271.86 128.489 271.62 128.809 272.19C129.129 272.76 128.629 272.81 127.499 272.89C126.107 272.948 124.713 272.895 123.329 272.73C122.959 272.62 122.979 271.04 124.029 270.59L125.259 270.93Z" fill="#30343A"/>
<path d="M128.42 252.28L125.7 269.5L123.7 269.43L122.7 251.27C122.35 248.43 122.293 245.562 122.53 242.71L128.42 252.28Z" fill="#255299"/>
<path d="M133.129 269.35L133.239 271.9L132.029 272.29L131.899 269.45L133.129 269.35Z" fill="#FEC6BD"/>
<path d="M133.1 271.6C133.503 271.685 133.884 271.852 134.22 272.09C134.94 272.54 136.33 272.3 136.65 272.86C136.97 273.42 136.46 273.48 135.34 273.57C133.945 273.623 132.547 273.569 131.16 273.41C130.8 273.3 130.82 271.72 131.87 271.27L133.1 271.6Z" fill="#30343A"/>
<path d="M133.43 242.12C133.43 242.12 133.71 251.89 133.52 259.25C133.33 266.61 133.43 269.91 133.43 269.91L131.68 270.11C131.68 270.11 129.93 265.56 128.48 260.91C127.557 257.752 126.977 254.503 126.75 251.22C126.75 251.22 121.62 246.59 122.55 240.79L133.43 242.12Z" fill="#2A60B5"/>
<path d="M132.49 214.58C132.49 214.58 132.81 216.23 132.87 217.15C133 219.15 131.93 220.65 131.38 220.62C130.83 220.59 130.13 220.52 130.13 220.52L129.13 221.81L126.82 221.47L128.3 218.28C128.3 218.28 127.56 215.34 128.53 214.99C129.834 214.725 131.16 214.587 132.49 214.58Z" fill="#FEC6BD"/>
<path d="M126.58 221.12C126.58 221.12 128.93 220.86 129.58 221.38C130.23 221.9 132.03 223.91 132.78 228.01C133.11 229.82 133.48 242.18 133.48 242.18C133.48 242.18 122 255.46 117.84 254.93C117.84 254.93 121.23 233.64 122.78 228.05C124.33 222.46 126.58 221.12 126.58 221.12Z" fill="#6DB3FA"/>
<path d="M140.089 230L139.189 229.61C139.069 229.56 139.049 229.39 139.189 229.24L140.649 226.86C140.722 226.717 140.882 226.639 141.039 226.67L141.939 227.06C142.049 227.11 142.069 227.28 141.939 227.43L140.469 229.81C140.398 229.949 140.244 230.026 140.089 230Z" fill="#30343A"/>
<path d="M139.93 231C139.93 231 141.24 230.19 141.24 229.67C141.24 229.15 141.73 228.15 141.24 228.29C140.75 228.43 139.24 230.29 139.24 230.29L139.93 231Z" fill="#FEC6BD"/>
<path d="M133.26 236.87L133.38 239.87C133.38 239.87 131.09 241.75 128.45 237.1C127.03 234.59 126 228.1 126 228.1L133.26 236.87Z" fill="url(#paint15_linear_3215_1735)"/>
<path d="M131.41 226.33C131.968 228.433 132.653 230.5 133.46 232.52C133.59 232.84 139.12 230.1 139.12 230.1L140.21 231.1C140.21 231.1 132.43 240.5 129.66 235.99C128.1 233.538 126.87 230.892 126 228.12L131.41 226.33Z" fill="#6DB1F8"/>
<path d="M131.68 213.09C132.39 213.47 133.18 215.8 132.85 215.8C132.52 215.8 131.16 215.8 130.85 215.8L130.62 216.7C130.62 216.7 130.62 216.06 130 216.22C129.38 216.38 129.69 217.46 130.26 217.63C130.395 219.338 129.402 220.935 127.81 221.57C125.01 222.85 125.81 229.43 121.57 227.88C117.33 226.33 119.29 224.13 122.38 220.48C125.47 216.83 125.01 215.73 126.48 214.04C127.825 212.631 129.924 212.248 131.68 213.09Z" fill="#37475E"/>
<path fill-rule="evenodd" clip-rule="evenodd" d="M19.8333 19.2502C16.2894 19.2502 13.4168 14.2877 13.4168 8.16669C13.4168 14.2877 10.5439 19.2502 7 19.2502C10.5439 19.2502 13.4168 24.2124 13.4168 30.3334C13.4168 24.2124 16.2894 19.2502 19.8333 19.2502Z" fill="#FFDF05"/>
<path fill-rule="evenodd" clip-rule="evenodd" d="M32.6663 93.9168C29.1224 93.9168 26.2498 88.9543 26.2498 82.8333C26.2498 88.9543 23.3769 93.9168 19.833 93.9168C23.3769 93.9168 26.2498 98.879 26.2498 105C26.2498 98.879 29.1224 93.9168 32.6663 93.9168Z" fill="#FFDF05"/>
<path fill-rule="evenodd" clip-rule="evenodd" d="M235.666 53.0835C232.122 53.0835 229.25 48.121 229.25 42C229.25 48.121 226.377 53.0835 222.833 53.0835C226.377 53.0835 229.25 58.0457 229.25 64.1667C229.25 58.0457 232.122 53.0835 235.666 53.0835Z" fill="#FFDF05"/>
<path fill-rule="evenodd" clip-rule="evenodd" d="M275.333 19.2502C271.789 19.2502 268.917 14.2877 268.917 8.16669C268.917 14.2877 266.044 19.2502 262.5 19.2502C266.044 19.2502 268.917 24.2124 268.917 30.3334C268.917 24.2124 271.789 19.2502 275.333 19.2502Z" fill="#FFDF05"/>
<path fill-rule="evenodd" clip-rule="evenodd" d="M262.5 84.5837C256.057 84.5837 250.834 75.4422 250.834 64.1667C250.834 75.4422 245.611 84.5837 239.167 84.5837C245.611 84.5837 250.834 93.7245 250.834 105C250.834 93.7245 256.057 84.5837 262.5 84.5837Z" fill="#FFDF05"/>
<path fill-rule="evenodd" clip-rule="evenodd" d="M50.1663 33.2504C41.7898 33.2504 35.0001 22.0194 35.0001 8.16669C35.0001 22.0194 28.2096 33.2504 19.833 33.2504C28.2096 33.2504 35.0001 44.4806 35.0001 58.3334C35.0001 44.4806 41.7898 33.2504 50.1663 33.2504Z" fill="#FFDF05"/>
<defs>
<linearGradient id="paint0_linear_3215_1735" x1="59.5503" y1="147.39" x2="235.62" y2="147.39" gradientUnits="userSpaceOnUse">
<stop offset="0.19" stop-color="#6098FA"/>
<stop offset="0.99" stop-color="#87C5FC"/>
</linearGradient>
<linearGradient id="paint1_linear_3215_1735" x1="59.55" y1="159.15" x2="216.87" y2="159.15" gradientUnits="userSpaceOnUse">
<stop stop-color="#3978FC"/>
<stop offset="0.19" stop-color="#6098FA"/>
<stop offset="0.99" stop-color="#87C5FC"/>
</linearGradient>
<linearGradient id="paint2_linear_3215_1735" x1="158.751" y1="11.7934" x2="211.26" y2="88.7025" gradientUnits="userSpaceOnUse">
<stop stop-color="#80B9ED"/>
<stop offset="0.15" stop-color="#60A2FA"/>
<stop offset="1" stop-color="#68A4F1"/>
</linearGradient>
<linearGradient id="paint3_linear_3215_1735" x1="184.744" y1="109.18" x2="97.6014" y2="165.298" gradientUnits="userSpaceOnUse">
<stop stop-color="#CEEBFF"/>
<stop offset="1" stop-color="#F5FBFF"/>
</linearGradient>
<linearGradient id="paint4_linear_3215_1735" x1="224.922" y1="142.23" x2="204.131" y2="155.62" gradientUnits="userSpaceOnUse">
<stop stop-color="#CEEBFF"/>
<stop offset="1" stop-color="#F5FBFF"/>
</linearGradient>
<linearGradient id="paint5_linear_3215_1735" x1="158.557" y1="108.05" x2="106.191" y2="190.737" gradientUnits="userSpaceOnUse">
<stop stop-color="#C1DDFF"/>
<stop offset="1" stop-color="#D3E6FF"/>
</linearGradient>
<linearGradient id="paint6_linear_3215_1735" x1="184.34" y1="184.13" x2="237.17" y2="184.13" gradientUnits="userSpaceOnUse">
<stop stop-color="#A9CEF8"/>
<stop offset="1" stop-color="#BFD9FF"/>
</linearGradient>
<linearGradient id="paint7_linear_3215_1735" x1="7.44043" y1="217.35" x2="90.6004" y2="217.35" gradientUnits="userSpaceOnUse">
<stop stop-color="#80B9ED"/>
<stop offset="0.15" stop-color="#60A2FA"/>
<stop offset="1" stop-color="#68A4F1"/>
</linearGradient>
<linearGradient id="paint8_linear_3215_1735" x1="62.8127" y1="199.2" x2="44.9976" y2="236.128" gradientUnits="userSpaceOnUse">
<stop stop-color="#A9CEF8"/>
<stop offset="0.48" stop-color="#BFD9FF"/>
<stop offset="0.97" stop-color="#ACD0F8"/>
<stop offset="1" stop-color="#ABCFF8"/>
</linearGradient>
<linearGradient id="paint9_linear_3215_1735" x1="18.4004" y1="192.24" x2="41.5504" y2="192.24" gradientUnits="userSpaceOnUse">
<stop stop-color="#A9CEF8"/>
<stop offset="0.48" stop-color="#BFD9FF"/>
<stop offset="0.97" stop-color="#ACD0F8"/>
<stop offset="1" stop-color="#ABCFF8"/>
</linearGradient>
<linearGradient id="paint10_linear_3215_1735" x1="59.54" y1="169.06" x2="80.86" y2="169.06" gradientUnits="userSpaceOnUse">
<stop stop-color="#A9CEF8"/>
<stop offset="0.48" stop-color="#BFD9FF"/>
<stop offset="0.97" stop-color="#ACD0F8"/>
<stop offset="1" stop-color="#ABCFF8"/>
</linearGradient>
<linearGradient id="paint11_linear_3215_1735" x1="31.7861" y1="159.23" x2="38.2174" y2="158.622" gradientUnits="userSpaceOnUse">
<stop stop-color="#80C4FF"/>
<stop offset="1" stop-color="#80C4FF" stop-opacity="0"/>
</linearGradient>
<linearGradient id="paint12_linear_3215_1735" x1="68.6383" y1="153.52" x2="70.6401" y2="153.026" gradientUnits="userSpaceOnUse">
<stop stop-color="#80C4FF"/>
<stop offset="1" stop-color="#80C4FF" stop-opacity="0"/>
</linearGradient>
<linearGradient id="paint13_linear_3215_1735" x1="165.638" y1="254.3" x2="166.945" y2="254.61" gradientUnits="userSpaceOnUse">
<stop stop-color="#133E90" stop-opacity="0.8"/>
<stop offset="1" stop-color="#133E90" stop-opacity="0"/>
</linearGradient>
<linearGradient id="paint14_linear_3215_1735" x1="163.389" y1="231.19" x2="163.579" y2="242.147" gradientUnits="userSpaceOnUse">
<stop stop-color="#133E90" stop-opacity="0.4"/>
<stop offset="1" stop-color="#133E90" stop-opacity="0"/>
</linearGradient>
<linearGradient id="paint15_linear_3215_1735" x1="128.926" y1="232.74" x2="133.153" y2="238.374" gradientUnits="userSpaceOnUse">
<stop stop-color="#133E90" stop-opacity="0.4"/>
<stop offset="1" stop-color="#133E90" stop-opacity="0"/>
</linearGradient>
</defs>
</svg>
