<svg width="280" height="280" viewBox="0 0 280 280" fill="none" xmlns="http://www.w3.org/2000/svg">
<path d="M46.1197 124.35C46.1197 123.99 41.0397 88.47 63.7297 65.9C81.5397 48.19 95.7797 27.17 99.9997 12.37L100.47 12.5C96.2197 27.38 81.9297 48.5 64.0697 66.25C41.5597 88.64 46.5497 123.92 46.5997 124.25L46.1197 124.35Z" fill="#CBE0FF"/>
<path d="M103.41 8.99999C102.75 11.11 99.9696 13.07 99.9696 13.07C99.9696 13.07 98.7996 9.91999 99.4596 7.79999C100.12 5.67999 101.27 5.10999 102.36 5.44999C103.45 5.78999 104.07 6.91999 103.41 8.99999Z" fill="#CBE0FF"/>
<path d="M97.1895 16.34C97.8995 18.51 96.7395 21.82 96.7395 21.82C96.7395 21.82 93.8395 19.82 93.1295 17.67C92.4195 15.52 93.0495 14.32 94.1295 13.96C95.2095 13.6 96.4795 14.17 97.1895 16.34Z" fill="#CBE0FF"/>
<path d="M92.76 24.36C93.52 26.69 92.27 30.24 92.27 30.24C92.27 30.24 89.17 28.11 88.4 25.79C87.63 23.47 88.31 22.2 89.51 21.79C90.71 21.38 92 22 92.76 24.36Z" fill="#CBE0FF"/>
<path d="M87.8898 30.87C88.8898 32.98 88.1598 36.5 88.1598 36.5C88.1598 36.5 84.9598 34.87 83.9398 32.76C82.9198 30.65 83.3998 29.38 84.4898 28.86C85.5798 28.34 86.8698 28.76 87.8898 30.87Z" fill="#CBE0FF"/>
<path d="M84.1895 38.14C84.6995 40.42 83.1895 43.68 83.1895 43.68C83.1895 43.68 80.4395 41.36 79.9395 39.07C79.4395 36.78 80.1895 35.66 81.3695 35.4C82.5495 35.14 83.6895 35.85 84.1895 38.14Z" fill="#CBE0FF"/>
<path d="M79.6097 45.4899C79.7097 47.8299 77.6097 50.7699 77.6097 50.7699C77.6097 50.7699 75.2997 48.0099 75.1997 45.6699C75.0997 43.3299 76.0397 42.3499 77.2497 42.2999C78.4597 42.2499 79.5197 43.1499 79.6097 45.4899Z" fill="#CBE0FF"/>
<path d="M73.8597 52.3C73.9597 54.64 71.8597 57.58 71.8597 57.58C71.8597 57.58 69.5497 54.82 69.4497 52.48C69.3497 50.14 70.2897 49.16 71.4997 49.11C72.7097 49.06 73.7597 50 73.8597 52.3Z" fill="#CBE0FF"/>
<path d="M67.8001 58.69C67.9001 61.03 65.8001 63.97 65.8001 63.97C65.8001 63.97 63.4901 61.22 63.3901 58.88C63.2901 56.54 64.2301 55.56 65.4401 55.51C66.6501 55.46 67.7101 56.36 67.8001 58.69Z" fill="#CBE0FF"/>
<path d="M62.16 64.78C62.26 67.12 60.16 70.06 60.16 70.06C60.16 70.06 57.85 67.31 57.76 64.97C57.67 62.63 58.59 61.65 59.76 61.6C60.93 61.55 62.06 62.45 62.16 64.78Z" fill="#CBE0FF"/>
<path d="M55.0695 73.17C55.7195 75.42 54.4095 78.77 54.4095 78.77C54.4095 78.77 51.5195 76.63 50.8695 74.38C50.2195 72.13 50.8695 70.96 52.0595 70.62C53.2495 70.28 54.4195 70.92 55.0695 73.17Z" fill="#CBE0FF"/>
<path d="M51.1095 81.8799C51.7595 84.1299 50.4495 87.4799 50.4495 87.4799C50.4495 87.4799 47.5495 85.3399 46.8995 83.0899C46.2495 80.8399 46.8995 79.6699 48.0995 79.3299C49.2995 78.9899 50.4595 79.6299 51.1095 81.8799Z" fill="#CBE0FF"/>
<path d="M103.7 19.1199C101.45 19.8599 98.0098 18.6499 98.0098 18.6499C98.0098 18.6499 100.07 15.6499 102.33 14.9099C104.59 14.1699 105.8 14.8199 106.18 15.9799C106.56 17.1399 106 18.3899 103.7 19.1199Z" fill="#CBE0FF"/>
<path d="M98.8797 28.46C96.7497 28.91 93.7197 27.46 93.7197 27.46C93.7197 27.46 95.8897 24.91 98.0197 24.46C100.15 24.01 101.2 24.71 101.44 25.81C101.68 26.91 101 28 98.8797 28.46Z" fill="#CBE0FF"/>
<path d="M94.6699 37.09C92.3199 36.83 89.6699 34.32 89.6699 34.32C89.6699 34.32 92.7799 32.45 95.1199 32.71C97.4599 32.97 98.2999 34.06 98.1199 35.27C97.9399 36.48 96.9999 37.36 94.6699 37.09Z" fill="#CBE0FF"/>
<path d="M90.4598 43.31C88.1198 43.04 85.5098 40.53 85.5098 40.53C85.5098 40.53 88.6098 38.66 90.9498 38.93C93.2898 39.2 94.1298 40.28 93.9498 41.49C93.7698 42.7 92.7998 43.57 90.4598 43.31Z" fill="#CBE0FF"/>
<path d="M85.6097 49.68C83.2497 49.59 80.4697 47.27 80.4697 47.27C80.4697 47.27 83.4697 45.18 85.7797 45.27C88.0897 45.36 89.0497 46.38 88.9997 47.6C88.9497 48.82 87.9997 49.77 85.6097 49.68Z" fill="#CBE0FF"/>
<path d="M80.4293 56.26C78.0693 56.17 75.2793 53.86 75.2793 53.86C75.2793 53.86 78.2793 51.77 80.5993 51.86C82.9193 51.95 83.8693 52.97 83.8193 54.19C83.7693 55.41 82.7893 56.35 80.4293 56.26Z" fill="#CBE0FF"/>
<path d="M74.69 62.75C72.33 62.66 69.54 60.35 69.54 60.35C69.54 60.35 72.54 58.25 74.86 58.35C77.18 58.45 78.13 59.47 78.08 60.68C78.03 61.89 77.05 62.84 74.69 62.75Z" fill="#CBE0FF"/>
<path d="M68.79 69.18C66.6 68.3 64.79 65.18 64.79 65.18C64.79 65.18 68.28 64.18 70.47 65.09C72.66 66 73.17 67.25 72.71 68.38C72.25 69.51 71 70.07 68.79 69.18Z" fill="#CBE0FF"/>
<path d="M63.3601 74.87C61.0001 74.87 58.0801 72.77 58.0801 72.77C58.0801 72.77 60.9101 70.51 63.2701 70.46C65.6301 70.41 66.6001 71.38 66.6301 72.59C66.6601 73.8 65.7201 74.82 63.3601 74.87Z" fill="#CBE0FF"/>
<path d="M58.4499 83.15C56.0899 83.15 53.1699 81.05 53.1699 81.05C53.1699 81.05 55.9999 78.79 58.3599 78.74C60.7199 78.69 61.6899 79.66 61.7099 80.87C61.7299 82.08 60.8099 83.1 58.4499 83.15Z" fill="#CBE0FF"/>
<path d="M54.7999 91.35C52.5699 92.12 49.1299 90.98 49.1299 90.98C49.1299 90.98 51.1299 87.98 53.3499 87.18C55.5699 86.38 56.7999 87.03 57.1999 88.18C57.5999 89.33 56.9999 90.57 54.7999 91.35Z" fill="#CBE0FF"/>
<path d="M34.39 89.4401L34 89.1901C46.83 67.59 55.39 43.69 55.8 28.3H56.29C55.85 43.79 47.27 67.7801 34.39 89.4401Z" fill="#CBE0FF"/>
<path d="M58.23 24.23C58.12 26.44 55.91 29 55.91 29C55.91 29 54 26.23 54.09 24C54.18 21.77 55.17 20.94 56.32 21C57.47 21.06 58.34 22 58.23 24.23Z" fill="#CBE0FF"/>
<path d="M54.0001 32.85C55.2301 34.78 54.9201 38.28 54.9201 38.28C54.9201 38.28 51.6201 37.08 50.4001 35.15C49.1801 33.22 49.4801 31.93 50.4701 31.3C51.4601 30.67 52.8001 30.92 54.0001 32.85Z" fill="#CBE0FF"/>
<path d="M51.7299 41.73C53.0499 43.79 52.7299 47.54 52.7299 47.54C52.7299 47.54 49.1999 46.25 47.8799 44.19C46.5599 42.13 46.8799 40.74 47.9599 40.06C49.0399 39.38 50.4099 39.66 51.7299 41.73Z" fill="#CBE0FF"/>
<path d="M48.6304 49.24C50.1404 51.03 50.3004 54.62 50.3004 54.62C50.3004 54.62 46.7904 53.85 45.3004 52.06C43.8104 50.27 43.9304 48.92 44.8604 48.14C45.7904 47.36 47.1304 47.45 48.6304 49.24Z" fill="#CBE0FF"/>
<path d="M46.8699 57.2C47.9199 59.29 47.2599 62.82 47.2599 62.82C47.2599 62.82 43.9999 61.26 42.9999 59.17C41.9999 57.08 42.3999 55.8 43.4799 55.26C44.5599 54.72 45.8099 55.11 46.8699 57.2Z" fill="#CBE0FF"/>
<path d="M44.2698 65.46C44.9398 67.7 43.6798 71.07 43.6798 71.07C43.6798 71.07 40.7598 68.97 40.0798 66.73C39.3998 64.49 40.0798 63.31 41.2198 62.96C42.3598 62.61 43.5898 63.22 44.2698 65.46Z" fill="#CBE0FF"/>
<path d="M40.3902 73.49C41.0702 75.73 39.8102 79.09 39.8102 79.09C39.8102 79.09 36.8802 77 36.2102 74.76C35.5402 72.52 36.2102 71.33 37.3502 70.98C38.4902 70.63 39.7102 71.25 40.3902 73.49Z" fill="#CBE0FF"/>
<path d="M61.0004 33.93C59.0004 35.2 55.3604 34.93 55.3604 34.93C55.3604 34.93 56.6104 31.5 58.6104 30.22C60.6104 28.94 61.9504 29.27 62.6104 30.31C63.2704 31.35 63.0004 32.65 61.0004 33.93Z" fill="#CBE0FF"/>
<path d="M58.6804 44.17C56.6804 45.17 53.4404 44.5 53.4404 44.5C53.4404 44.5 54.9104 41.5 56.8604 40.5C58.8104 39.5 60.0004 40 60.5004 41C61.0004 42 60.6304 43.19 58.6804 44.17Z" fill="#CBE0FF"/>
<path d="M56.7498 53.5799C54.4198 53.9099 51.2598 52.1199 51.2598 52.1199C51.2598 52.1199 53.7998 49.5399 56.1398 49.2099C58.4798 48.8799 59.5498 49.7299 59.7198 50.9399C59.8898 52.1499 59.0898 53.2499 56.7498 53.5799Z" fill="#CBE0FF"/>
<path d="M54.2302 60.65C51.8902 60.97 48.7402 59.19 48.7402 59.19C48.7402 59.19 51.2802 56.61 53.6102 56.28C55.9402 55.95 57.0002 56.8 57.2002 58C57.4002 59.2 56.5602 60.32 54.2302 60.65Z" fill="#CBE0FF"/>
<path d="M51.12 68.0001C48.81 68.5001 45.54 67.0001 45.54 67.0001C45.54 67.0001 47.88 64.2301 50.18 63.7301C52.48 63.2301 53.63 64.0001 53.88 65.1901C54.13 66.3801 53.42 67.5201 51.12 68.0001Z" fill="#CBE0FF"/>
<path d="M47.7402 75.69C45.4402 76.19 42.1602 74.69 42.1602 74.69C42.1602 74.69 44.5002 71.92 46.8102 71.42C49.1202 70.92 50.2502 71.69 50.5102 72.88C50.7702 74.07 50.0502 75.19 47.7402 75.69Z" fill="#CBE0FF"/>
<path d="M43.8 83.41C41.49 83.91 38.21 82.41 38.21 82.41C38.21 82.41 40.56 79.65 42.86 79.15C45.16 78.65 46.31 79.41 46.56 80.6C46.81 81.79 46.1 82.91 43.8 83.41Z" fill="#CBE0FF"/>
<path d="M38.5401 93.91C38.5401 93.91 44.73 83 42 77C39.2701 71 32.82 73 36 67.53C39.18 62.06 41.5 56.79 34.93 53.53C28.3601 50.27 26.5501 49.69 27.5301 44.67C28.51 39.65 29.6101 33.36 23.2801 34.67C16.9501 35.98 11.49 47.67 10.71 56.15C9.93005 64.63 14.48 71.48 13.21 75.55C11.9401 79.62 11.34 80.55 6.50005 80.55C1.66005 80.55 -0.59995 88.07 7.23005 96.71C15.06 105.35 29 110.08 29 110.08L38.5401 93.91Z" fill="url(#paint0_linear_3157_6814)"/>
<path d="M33.29 102.2C33.23 102.13 27.29 95.37 21.88 81.98C21.88 81.98 21.88 81.98 21.88 81.91C22.41 76.91 29.37 64.44 29.44 64.32C29.5011 64.198 29.4574 64.0495 29.34 63.98C29.2832 63.9484 29.2161 63.9412 29.1539 63.9601C29.0917 63.9789 29.0398 64.0222 29.01 64.08C28.73 64.57 22.53 75.71 21.5 81.08C21.5 81.02 21.45 80.96 21.42 80.89C15.96 66.82 20.5 47.52 20.55 47.33C20.5817 47.1977 20.5017 47.0643 20.37 47.03C20.2377 46.9984 20.1044 47.0783 20.07 47.21C20.02 47.41 15.44 66.85 20.96 81.07C22.2615 84.4098 23.7402 87.6778 25.39 90.86C20.67 91.8 15.66 87.45 15.61 87.4C15.5647 87.3516 15.5013 87.3242 15.435 87.3242C15.3687 87.3242 15.3054 87.3516 15.26 87.4C15.2149 87.445 15.1895 87.5062 15.1895 87.57C15.1895 87.6338 15.2149 87.6949 15.26 87.74C15.9341 88.3163 16.653 88.838 17.41 89.3C19.41 90.54 22.54 91.97 25.62 91.3C27.6221 95.2712 30.0497 99.0132 32.86 102.46C32.9477 102.53 33.0724 102.53 33.16 102.46C33.2569 102.412 33.3101 102.306 33.29 102.2Z" fill="#CBE0FF"/>
<path d="M237.66 90.87C248.77 68.26 255.43 43.66 254.66 28.21H254.17C254.98 43.58 248.35 68.08 237.26 90.63L237.66 90.87Z" fill="#CBE0FF"/>
<path d="M256.25 24C256.32 26.21 254.32 29 254.32 29C254.32 29 252.18 26.37 252.11 24.15C252.04 21.93 252.95 21.02 254.11 20.98C255.27 20.94 256.19 21.77 256.25 24Z" fill="#CBE0FF"/>
<path d="M252.75 32.9101C254.12 34.7301 254.1 38.2401 254.1 38.2401C254.1 38.2401 250.71 37.3101 249.34 35.4801C247.97 33.6501 248.17 32.3501 249.11 31.6401C250.05 30.9301 251.37 31.0801 252.75 32.9101Z" fill="#CBE0FF"/>
<path d="M251.16 41.94C252.63 43.94 252.61 47.65 252.61 47.65C252.61 47.65 248.98 46.65 247.51 44.7C246.04 42.75 246.25 41.34 247.26 40.58C248.27 39.82 249.68 40 251.16 41.94Z" fill="#CBE0FF"/>
<path d="M248.67 49.67C250.31 51.34 250.76 54.91 250.76 54.91C250.76 54.91 247.2 54.41 245.55 52.75C243.9 51.09 243.95 49.75 244.81 48.88C245.67 48.01 247 48 248.67 49.67Z" fill="#CBE0FF"/>
<path d="M247.54 57.75C248.76 59.75 248.37 63.32 248.37 63.32C248.37 63.32 245 62 243.8 60C242.6 58 242.93 56.69 243.96 56.06C244.99 55.43 246.32 55.75 247.54 57.75Z" fill="#CBE0FF"/>
<path d="M245.6 66.1901C246.45 68.3701 245.46 71.8201 245.46 71.8201C245.46 71.8201 242.38 69.9601 241.52 67.8201C240.66 65.6801 241.24 64.4001 242.36 63.9601C243.48 63.5201 244.74 64.0001 245.6 66.1901Z" fill="#CBE0FF"/>
<path d="M242.37 74.5C243.23 76.68 242.23 80.13 242.23 80.13C242.23 80.13 239.15 78.27 238.3 76.13C237.45 73.99 238.01 72.72 239.14 72.28C240.27 71.84 241.52 72.32 242.37 74.5Z" fill="#CBE0FF"/>
<path d="M238.72 82.52C239.58 84.7 238.58 88.15 238.58 88.15C238.58 88.15 235.5 86.29 234.65 84.15C233.8 82.01 234.36 80.74 235.49 80.3C236.62 79.86 237.87 80.34 238.72 82.52Z" fill="#CBE0FF"/>
<path d="M259.81 33.42C257.91 34.86 254.27 34.83 254.27 34.83C254.27 34.83 255.27 31.31 257.13 29.88C258.99 28.45 260.39 28.67 261.13 29.65C261.87 30.63 261.7 32 259.81 33.42Z" fill="#CBE0FF"/>
<path d="M258.28 43.82C256.41 44.94 253.09 44.57 253.09 44.57C253.09 44.57 254.31 41.45 256.18 40.33C258.05 39.21 259.26 39.53 259.84 40.5C260.42 41.47 260.14 42.7 258.28 43.82Z" fill="#CBE0FF"/>
<path d="M257.1 53.36C254.8 53.87 251.51 52.36 251.51 52.36C251.51 52.36 253.84 49.58 256.15 49.07C258.46 48.56 259.59 49.32 259.85 50.51C260.11 51.7 259.41 52.85 257.1 53.36Z" fill="#CBE0FF"/>
<path d="M255.14 60.6C252.84 61.11 249.56 59.6 249.56 59.6C249.56 59.6 251.89 56.83 254.19 56.32C256.49 55.81 257.63 56.56 257.9 57.75C258.17 58.94 257.45 60.09 255.14 60.6Z" fill="#CBE0FF"/>
<path d="M252.63 68.2C250.37 68.88 246.98 67.6 246.98 67.6C246.98 67.6 249.1 64.66 251.36 63.98C253.62 63.3 254.81 63.98 255.16 65.14C255.51 66.3 254.89 67.52 252.63 68.2Z" fill="#CBE0FF"/>
<path d="M249.87 76.11C247.61 76.79 244.22 75.51 244.22 75.51C244.22 75.51 246.34 72.57 248.6 71.89C250.86 71.21 252.05 71.89 252.4 73.05C252.75 74.21 252.13 75.43 249.87 76.11Z" fill="#CBE0FF"/>
<path d="M230.78 102.57C230.78 102.57 231.27 90.05 236.78 86.43C242.29 82.8101 246.67 87.91 246.92 81.57C247.17 75.23 247.92 69.57 255.24 70.2C262.56 70.83 264.38 71.3501 266.19 66.5801C268 61.8101 270.39 55.8701 275.09 60.3201C279.79 64.7701 278.22 77.6201 274.43 85.1901C270.64 92.7601 263.14 96.19 262.07 100.35C261 104.51 261 105.62 265.12 108.18C269.24 110.74 267.18 118.31 255.98 121.52C244.78 124.73 230.36 121.36 230.36 121.36L230.78 102.57Z" fill="url(#paint1_linear_3157_6814)"/>
<path d="M230.88 112.39C230.96 112.39 239.6 109.77 251.23 101.22C251.23 101.22 251.23 101.22 251.23 101.15C253.41 96.63 254.09 82.36 254.09 82.22C254.101 82.0842 254.214 81.9796 254.35 81.98C254.417 81.9826 254.479 82.0114 254.524 82.0602C254.569 82.109 254.593 82.1736 254.59 82.24C254.59 82.8 253.95 95.54 251.97 100.69C252.021 100.647 252.075 100.607 252.13 100.57C264.2 91.49 270.52 72.7 270.58 72.51C270.601 72.4484 270.645 72.3977 270.704 72.3694C270.762 72.3412 270.829 72.3378 270.89 72.36C271.019 72.4029 271.09 72.5403 271.05 72.67C270.99 72.86 264.62 91.79 252.43 100.96C249.568 103.124 246.586 105.128 243.5 106.96C247.02 110.25 253.57 109.2 253.64 109.19C253.704 109.178 253.77 109.193 253.823 109.231C253.875 109.268 253.911 109.326 253.92 109.39C253.935 109.454 253.922 109.521 253.883 109.575C253.845 109.628 253.786 109.663 253.72 109.67C252.843 109.802 251.957 109.866 251.07 109.86C248.72 109.86 245.31 109.43 243.07 107.22C239.287 109.536 235.264 111.433 231.07 112.88H231C230.868 112.897 230.747 112.803 230.73 112.67C230.714 112.537 230.808 112.417 230.94 112.4L230.88 112.39Z" fill="#CBE0FF"/>
<path d="M240.31 61.8L157.31 22.9L11.3096 108.81V166.81C11.3096 166.81 240.25 125.08 240.36 119.81L240.31 61.8Z" fill="url(#paint2_linear_3157_6814)"/>
<path d="M179.42 93.68L126.48 67.83L126.49 126.11L179.42 93.68Z" fill="url(#paint3_linear_3157_6814)"/>
<path d="M240.31 61L198 76.55V134.06C198 135.63 199.06 137.21 201.23 138.38L206.43 141.19C210.43 143.33 216.43 143.26 219.97 141.04L230.48 134.39C237.48 129.96 240.69 124.21 240.23 118.47H240.28L240.31 61Z" fill="url(#paint4_linear_3157_6814)"/>
<path d="M201.15 93.34L89.3699 148.26L11.2299 109V166.52C11.1099 172.91 15.5399 179.4 24.3599 184.16L63.8499 205.46C79.9599 214.14 104.85 213.87 119.11 204.84L194.49 157.16L195.67 156.41L198.67 154.53C200.066 153.802 201 152.417 201.15 150.85V93.34Z" fill="url(#paint5_linear_3157_6814)"/>
<path d="M132.42 23.78L21.0004 94.23C6.72041 103.23 8.22041 117.76 24.3404 126.45L63.8304 147.75C79.9404 156.44 104.83 156.16 119.09 147.13L194.5 99.45L195.68 98.7L198.68 96.82C202.3 94.53 201.92 90.82 197.83 88.64L147.15 61.32C143.06 59.12 136.75 59.19 133.15 61.48L129 64.11C125.37 66.4 125.75 70.11 129.85 72.29L168.38 93.06L99.5804 136.58C94.8404 139.58 86.5804 139.67 81.2304 136.78L41.7004 115.49C36.3504 112.6 35.8504 107.78 40.5904 104.78L152 34.33C156.75 31.33 165 31.24 170.36 34.12L209.85 55.42C215.21 58.31 215.71 63.12 210.96 66.12L200.46 72.77C196.94 74.99 197.31 78.53 201.28 80.66L206.48 83.47C210.48 85.61 216.48 85.54 220.02 83.32L230.53 76.67C244.81 67.67 243.3 53.14 227.19 44.46L187.7 23.16C171.56 14.47 146.7 14.75 132.42 23.78Z" fill="#D1E8FF"/>
<path d="M95.1403 162.25C94.3126 161.92 93.5075 161.536 92.7303 161.1C91.7491 160.246 91.4854 158.829 92.0937 157.679C92.702 156.529 94.0221 155.949 95.2803 156.28C96.9003 156.64 96.9303 155.16 99.0903 155.28C101.25 155.4 101.39 156.2 102.01 157.04C102.63 157.88 103.55 157.38 104.28 158.61C104.712 159.37 104.813 160.274 104.56 161.11C104.56 161.11 105.56 161.36 105.45 162.93C105.34 164.5 104.56 164 103.88 165.34C103.2 166.68 103.49 168.46 100.55 168.34L95.1403 162.25Z" fill="#37475E"/>
<path d="M106.17 251.74C106.17 251.74 105.34 255.09 104.52 255.48C103.7 255.87 102.52 256.83 103.1 257.22C103.68 257.61 106.44 257.55 107.78 256.8C109.12 256.05 111.61 253.7 111.02 252.52C110.43 251.34 109.53 250.32 108.44 250.6C107.627 250.857 106.861 251.242 106.17 251.74Z" fill="#37475E"/>
<path d="M96.6503 263.87C96.6503 263.87 91.0003 268.18 93.1303 269.61C95.2603 271.04 99.7003 267.48 100.4 266.42C101.1 265.36 100.9 263.51 99.5703 263.47C98.5841 263.481 97.6032 263.615 96.6503 263.87Z" fill="#37475E"/>
<path d="M103 247.78C103 247.78 105.3 250.96 106.17 252.06C107.04 253.16 109.61 251.6 108.36 249.96C107.11 248.32 105.36 245.53 105.36 245.53L103 247.78Z" fill="#FEC6BD"/>
<path d="M96.9396 257.73C96.9396 257.73 96.6196 263.2 96.6396 264.19C96.6596 265.18 99.5096 265.96 99.8296 264.29C100.15 262.62 100.75 256.77 100.75 256.77L96.9396 257.73Z" fill="#FEC6BD"/>
<path d="M84.9195 212.86C84.9195 212.86 84.3496 230.48 87.1596 234.13C89.9696 237.78 103 248.89 103 248.89C103 248.89 104 249.38 105.67 248.21C107.34 247.04 107.08 246.49 105.6 241.52C104.12 236.55 100.23 234 98.4096 232C96.5896 230 98.2996 213.91 98.2996 213.91L84.9195 212.86Z" fill="#255299"/>
<path d="M93.7696 215.94C93.7696 215.94 92.7696 236.33 93.7696 241.99C94.7696 247.65 95.7696 259.2 95.7696 259.2C95.7696 259.2 98.0196 260.98 101.38 259.11C101.38 259.11 103.12 248.79 102.82 242.2C102.52 235.61 107.39 227.97 109.11 222C110.178 218.547 110.154 214.849 109.04 211.41L93.7696 215.94Z" fill="#2A60B7"/>
<path d="M86.6403 172C86.6403 172 83.0603 177.21 80.5103 192.27C79.8575 192.834 79.4224 193.609 79.2803 194.46C79.2803 195.58 80.2803 198.46 84.9003 198.66C89.5203 198.86 89.0003 192.06 88.5803 188.36C88.1603 184.66 86.6403 172 86.6403 172Z" fill="#6DB3FA"/>
<path d="M86.6403 172C86.6403 172 83.0603 177.21 80.5103 192.27C79.8575 192.834 79.4224 193.609 79.2803 194.46C79.2803 195.58 80.2803 198.46 84.9003 198.66C89.5203 198.86 89.0003 192.06 88.5803 188.36C88.1603 184.66 86.6403 172 86.6403 172Z" fill="url(#paint6_linear_3157_6814)"/>
<path d="M98.3403 169.81C103.14 170.32 115.86 171.32 115.34 179.34C114.71 189.86 109.77 212.93 109.77 212.93C109.77 212.93 105.84 216.64 95.5703 216.14C85.3003 215.64 84.5703 212.32 84.5703 212.32L84.7703 197.85C84.7703 197.85 85.5303 174.16 86.2903 172.51C88.0603 168.86 94.1503 169.37 98.3403 169.81Z" fill="#6DB3FA"/>
<path d="M96.6803 167.26L96.5703 170.36C96.5703 171.67 98.0503 172.12 98.9403 171.92C99.8303 171.72 100.94 171.52 101.06 169.4L101.25 164.86L96.6803 167.26Z" fill="#F6B2AD"/>
<path d="M93.4899 162.24C92.9399 165.24 93.2399 168.87 97.2699 169.31C101.3 169.75 102.04 166.21 102.08 164.31C102.12 162.41 101.73 158.77 98.4899 158.63C95.7899 158.51 93.9999 159.17 93.4899 162.24Z" fill="#FEC6BD"/>
<path d="M101.67 164.21C101.67 164.21 102.35 163.31 102.96 163.76C103.57 164.21 102.96 165.63 101.96 165.9C100.96 166.17 101.67 164.21 101.67 164.21Z" fill="#FEC6BD"/>
<path d="M115.26 177.53C115.26 177.53 116.02 180.87 116.17 190.42C116.37 203.74 105.81 208.84 98.8401 208.02C94.8401 207.55 91.3301 204.65 89.4601 201.85C80.4601 188.32 104.75 176.15 104.75 176.15L115.26 177.53Z" fill="url(#paint7_radial_3157_6814)"/>
<path d="M115.26 177.53L101.41 202.64L89.46 201.85L104.75 176.15L115.26 177.53Z" fill="url(#paint8_linear_3157_6814)"/>
<path d="M115.26 177.53C115.26 177.53 116.02 180.87 116.17 190.42C116.37 203.74 113.68 204.05 100.17 203.95C100.17 203.95 97.7102 204.09 96.6602 200.95C95.6102 197.81 98.4902 197.47 100.44 196.95C102.39 196.43 103.96 196.04 103.96 196.04L104.78 176.16L115.26 177.53Z" fill="#6DB3FA"/>
<path d="M77.5996 197.29C77.5996 197.29 79.4796 195.61 80.5396 194.84C81.5996 194.07 84.2196 196.03 82.1796 198.06C81.2762 198.992 80.3213 199.874 79.3196 200.7L77.5996 197.29Z" fill="#FEC6BD"/>
<path d="M79.9205 209.14L67.3505 201.64C66.9259 201.406 66.6621 200.96 66.6621 200.475C66.6621 199.99 66.9259 199.544 67.3505 199.31L73.0505 196.05C73.527 195.775 74.114 195.775 74.5905 196.05L87.1805 203.65C87.5974 203.897 87.8454 204.353 87.8267 204.837C87.8079 205.321 87.5253 205.756 87.0905 205.97L81.4205 209.13C80.9555 209.391 80.3889 209.395 79.9205 209.14Z" fill="#263344"/>
<path d="M80.0005 209.22L65.8305 200.77C65.6143 200.648 65.4805 200.418 65.4805 200.17V190.38C65.4911 190.108 65.6468 189.862 65.8885 189.736C66.1303 189.61 66.421 189.623 66.6505 189.77L79.5605 197.57C80.4503 198.084 80.999 199.033 81.0005 200.06L80.8305 208.82C80.8175 209.01 80.7035 209.179 80.5318 209.261C80.3601 209.344 80.1573 209.328 80.0005 209.22Z" fill="#37475E"/>
<path d="M69.6597 203.4C69.3497 201.85 70.2297 200.26 71.2897 201.6C72.3497 202.94 73.9597 204.35 73.8997 205.32C73.8097 206.55 69.8697 204.5 69.6597 203.4Z" fill="#FEC6BD"/>
<path d="M97.5603 199.59C97.3003 199.65 88.7603 201.1 85.7903 201.33C84.2397 201.423 82.8904 202.423 82.3503 203.88C81.6303 205.32 85.3503 204.36 88.3503 203.4C91.3503 202.44 96.3503 202.4 98.8903 202.4C101.43 202.4 100.62 199 97.5603 199.59Z" fill="#FEC6BD"/>
<path d="M93.6201 161.58C93.9846 161.699 94.3596 161.783 94.7401 161.83C95.4266 161.867 96.0728 161.505 96.4001 160.9C96.8679 161.168 97.4424 161.168 97.9101 160.9C98.7001 160.42 98.9801 160 99.7301 160.62C99.9441 160.516 100.191 160.504 100.414 160.587C100.637 160.67 100.816 160.841 100.91 161.06C101.3 161.88 100.91 163.17 102.09 163.84L103.8 162.44C104.183 160.497 103.086 158.566 101.22 157.9C97.9401 156.63 95.7001 156.1 94.4601 157.22C93.2201 158.34 93.6201 161.58 93.6201 161.58Z" fill="#37475E"/>
<path d="M157.27 151.81C157.27 151.81 182.45 135.52 184.54 134.05C186.63 132.58 180.88 138.65 182.34 138.23C183.8 137.81 191.54 133.11 190.81 134.47C190.08 135.83 183.91 140.64 186.11 140.11C188.31 139.58 196.66 137.4 193.52 139.38C190.38 141.36 183.39 145.38 186.11 144.5C188.83 143.62 193.21 143.25 187.36 145.86C181.51 148.47 161.36 162.86 157.79 164.77C154.22 166.68 160.41 161.22 162.7 159.13C164.99 157.04 157.79 161.22 157.06 160.49C156.33 159.76 166.26 154.74 162.81 155.49C159.36 156.24 152.99 157.79 156.44 155.39C159.89 152.99 157.9 153.19 155.7 153.92C153.5 154.65 155.18 153.28 157.27 151.81Z" fill="#86C4F3"/>
<path d="M190.83 138C189.45 137.14 185.78 137.38 182.83 139.47C181.431 140.533 180.363 141.973 179.75 143.62L184.75 147.62C188.96 147.62 192.02 145.32 192.5 143.38C192.98 141.44 192.67 139.19 190.83 138Z" fill="#EFF7FF"/>
<path d="M211.06 135.45C216.61 133.17 223.2 130.31 230.43 126.89C250.56 117.38 264.16 109.01 265.55 107.89C266.94 106.77 268.2 106 267.44 104.4C266.69 102.81 265.26 103.25 263.55 103.65C261.84 104.05 246.73 109.24 226.61 118.74C219.52 122.09 213.25 125.3 208.03 128.1L211.06 135.45Z" fill="#255299"/>
<path d="M211.46 130.92C210.59 129.07 210.8 127.08 211.88 126.13C204.898 129.661 198.099 133.542 191.51 137.76C190.12 138.83 188.87 139.65 189.62 141.24C190.37 142.83 191.8 142.38 193.51 141.98C200.948 139.566 208.261 136.779 215.42 133.63C214 133.86 212.33 132.76 211.46 130.92Z" fill="#37475E"/>
<path d="M238.63 202.32C238.63 202.32 241.92 205.37 243.13 205.75C244.34 206.13 245.63 206.22 246.13 205.31C246.63 204.4 246.45 202.42 245.95 202.15C244.79 201.54 240.95 199.78 240.32 199.85C239.58 199.94 237.3 200.93 238.63 202.32Z" fill="#181F3D"/>
<path d="M220.68 207.7C220.68 207.7 223.46 211.22 224.6 211.79C225.74 212.36 227 212.64 227.67 211.79C228.34 210.94 228.43 208.99 227.97 208.64C226.97 207.86 223.41 205.53 222.77 205.5C222 205.5 219.58 206.12 220.68 207.7Z" fill="#181F3D"/>
<path d="M218.28 127.64C218.28 127.64 218.97 125.01 217.98 123.91C217.651 123.494 217.114 123.301 216.595 123.414C216.076 123.527 215.667 123.925 215.54 124.44C214.98 126.02 216.54 128.76 216.54 128.76L218.28 127.64Z" fill="#FEC6BD"/>
<path d="M227.33 114.84C227.33 114.84 226.26 119.84 227.39 122.27C227.896 123.612 229.208 124.476 230.64 124.41L231.64 129.56L238 128.56C238 128.56 235.25 115.87 233.82 113.79C232.39 111.71 227.83 112.76 227.33 114.84Z" fill="#FEC6BD"/>
<path d="M227.801 204.019L226.644 203.839C226.142 203.762 225.672 204.105 225.594 204.607L224.929 208.896C224.851 209.398 225.195 209.868 225.697 209.946L226.853 210.126C227.355 210.204 227.825 209.86 227.903 209.358L228.569 205.069C228.647 204.567 228.303 204.097 227.801 204.019Z" fill="#FEC6BD"/>
<path d="M244.46 203.89C243.516 203.815 242.8 203.007 242.84 202.06L242.64 199.73C242.488 198.797 243.103 197.912 244.03 197.73C244.975 197.804 245.691 198.613 245.65 199.56L245.85 201.89C245.998 202.821 245.385 203.703 244.46 203.89Z" fill="#FEC6BD"/>
<path d="M248.92 160.75L246.17 178.75C246.853 185.737 246.79 192.777 245.98 199.75C245.546 200.298 244.895 200.631 244.196 200.661C243.498 200.692 242.82 200.418 242.34 199.91L231.34 165.91L248.92 160.75Z" fill="#255299"/>
<path d="M245.42 149.2C248.508 152.6 249.753 157.286 248.76 161.77C248.27 164.03 246.47 167.57 244.31 171.25C240.12 178.38 234.58 186.03 234.58 186.03C234.58 186.03 232.36 200.89 228.58 207.57C228.58 207.57 226.04 208.81 224.69 206.7C224.69 206.7 225.02 183.19 226.1 171.9C226.665 165.345 228.3 158.926 230.94 152.9L245.42 149.2Z" fill="#2A60B7"/>
<path d="M231 126.22C231 126.22 235.85 125.45 236.89 123.74L253.23 115.26C253.771 117.113 253.894 119.063 253.59 120.97C253.08 124.19 246.44 131.97 246.44 131.97L245.93 149.8C244.175 151.942 241.637 153.295 238.88 153.56C236.175 153.898 233.441 153.925 230.73 153.64L224.07 142.88C224.07 142.88 217.34 144.88 215.07 141.97C212.8 139.06 215.7 127.64 215.7 127.64L218.45 127.41L220.26 135.14C220.26 135.14 222.14 129.9 231 126.22Z" fill="#6DB3FA"/>
<path d="M231 126.22C231 126.22 235.85 125.45 236.89 123.74L239.66 122.3C239.66 122.3 243.42 123.8 245.09 126.59C245.891 128.27 246.349 130.092 246.44 131.95L245.93 149.78C244.175 151.922 241.637 153.275 238.88 153.54C234.744 153.85 230.591 153.877 226.45 153.62L224.07 142.86C226.495 141.222 227.757 138.332 227.31 135.44C226.76 130.19 224.76 129.77 224.76 129.77C226.67 128.309 228.769 127.115 231 126.22Z" fill="#FFD215"/>
<path d="M241.68 128.41C240.68 125.54 236.9 123.74 236.9 123.74L238.9 122.74C238.9 122.74 243.4 124.52 243.97 127.88C244.97 133.73 245.58 150.25 245.58 150.25C245.34 150.46 245.08 150.83 244.77 151.06C244.46 151.29 242.68 131.29 241.68 128.41Z" fill="#FFF1B8"/>
<path d="M231 126.22C231 126.22 234.15 128.67 234.57 131.6C234.99 134.53 236.71 153.71 236.71 153.71C235.93 153.71 235.12 153.78 234.31 153.79C234.31 153.79 232.61 139.79 232.06 134.53C231.51 129.27 228.31 127.53 228.31 127.53C229.181 127.044 230.079 126.607 231 126.22Z" fill="#FFF1B8"/>
<path d="M188.5 147C187.301 147.448 186.03 147.674 184.75 147.67C180.64 147.67 178.94 149.67 178.94 149.67C178.38 146.28 179.8 141.59 182.79 139.49C182.79 139.49 183.27 139.64 183 140.21C182.73 140.78 181.79 141.6 181.91 141.82C182.16 142.31 184.34 140.53 184.91 141.49C185.48 142.45 181.68 143.74 182.31 144.37C182.94 145 185.11 143.37 185.46 144.27C185.81 145.17 183.58 145.45 183.89 146C184.2 146.55 184.82 146.29 186.03 146.33C187.24 146.37 188.13 146.5 188.5 147Z" fill="url(#paint9_linear_3157_6814)"/>
<path d="M229.57 120.16C230.124 119.596 230.364 118.795 230.21 118.02C230.04 116.8 229.06 117.44 228.9 117.69C228.74 117.94 228.53 118.38 228.53 118.38L228.06 116.91L225.57 116.14C225.41 115.14 226.81 110.32 230.1 109.6C232.258 109.073 234.525 109.855 235.9 111.6C240.9 112.6 239.4 116.25 239.57 118.78C239.57 118.78 239.72 121.86 237.95 123.48C236.86 124.48 235.15 125.16 229.04 124.68C229.715 123.274 229.902 121.684 229.57 120.16Z" fill="#30343A"/>
<path d="M235.41 148.21C235.41 148.21 241.79 148 244.5 144.97V142.73C241.662 144.265 238.562 145.255 235.36 145.65L235.41 148.21Z" fill="#FFF1B8"/>
<path d="M226.06 110.9C224.96 113.66 228.06 117.33 231.88 118.84C235.7 120.35 239.53 119.26 240.44 117.03C241.56 114.27 239.64 110.34 235.85 108.83C232.06 107.32 227.15 108.14 226.06 110.9Z" fill="#FFE600"/>
<path d="M227.8 113.38C228.32 116.68 234.16 119.56 237.52 118.31C238.814 117.792 239.847 116.781 240.394 115.499C240.94 114.218 240.953 112.771 240.43 111.48C239.15 108.38 236.15 106.97 232.85 107.19C231.328 107.263 229.909 107.979 228.945 109.159C227.982 110.34 227.566 111.874 227.8 113.38Z" fill="#FFDA00"/>
<path d="M238.27 111.12C238.27 111.12 236.94 108.12 233.95 107.87C234.952 107.735 235.969 107.97 236.81 108.53C237.661 109.131 238.197 110.081 238.27 111.12Z" fill="#FFE600"/>
<path d="M235.68 111.09C234.95 110.297 234.06 109.667 233.07 109.24C234.234 109.272 235.264 110.002 235.68 111.09Z" fill="#FFE600"/>
<path d="M67.1211 180.391L36.332 162.679L23.527 184.939L54.3161 202.651L67.1211 180.391Z" fill="white"/>
<path d="M44 184.55L44.2 184.67C44.2602 184.722 44.3498 184.722 44.41 184.67L44.68 184.2C44.6946 184.161 44.6946 184.119 44.68 184.08C44.6685 184.042 44.6436 184.01 44.61 183.99L44.38 183.86L46.38 180.41C46.4309 180.353 46.4309 180.267 46.38 180.21L45.92 179.94C45.8481 179.903 45.7595 179.929 45.72 180L43.79 183.36C43.6589 183.545 43.6073 183.775 43.6467 183.999C43.6862 184.222 43.8134 184.421 44 184.55Z" fill="#ACD4F7"/>
<path d="M45.3695 184.24C45.228 184.442 45.1788 184.694 45.2341 184.935C45.2894 185.175 45.444 185.38 45.6595 185.5L45.8595 185.61C45.9289 185.649 46.0167 185.627 46.0595 185.56L46.3295 185.09C46.3339 185.07 46.3339 185.05 46.3295 185.03V185C46.3181 184.962 46.2931 184.93 46.2595 184.91L46.0295 184.78L47.1895 182.78C47.2279 182.705 47.2016 182.613 47.1295 182.57L46.6595 182.3C46.5876 182.263 46.4991 182.289 46.4595 182.36L45.3695 184.24Z" fill="#ACD4F7"/>
<path d="M47.0899 181.54L47.5499 181.81C47.598 181.843 47.6618 181.843 47.7099 181.81L47.9699 181.35C47.9699 181.35 47.9699 181.35 47.9699 181.3C47.9788 181.24 47.9512 181.181 47.8999 181.15L47.4299 180.88C47.3697 180.828 47.2801 180.828 47.2199 180.88L46.9599 181.34C46.9442 181.384 46.9499 181.433 46.9754 181.472C47.0009 181.511 47.0432 181.536 47.0899 181.54Z" fill="#ACD4F7"/>
<path d="M42.2 177.94C42.2209 177.906 42.2263 177.865 42.2148 177.827C42.2033 177.788 42.1762 177.757 42.14 177.74L41.67 177.47H41.62H41.55L39.22 181.47C39.2157 181.49 39.2157 181.51 39.22 181.53C39.2112 181.589 39.2387 181.649 39.29 181.68L39.76 181.95C39.7956 181.971 39.8382 181.977 39.878 181.965C39.9178 181.954 39.9511 181.927 39.97 181.89L42.3 177.84L42.2 177.94Z" fill="#ACD4F7"/>
<path d="M51.23 186.73C51.6665 185.959 51.3983 184.981 50.63 184.54L49.75 184.03L49.4 183.83C49.343 183.779 49.2569 183.779 49.2 183.83L48.93 184.29C48.8927 184.362 48.9192 184.45 48.99 184.49L49.33 184.68L50.22 185.2C50.3964 185.302 50.5243 185.471 50.5751 185.668C50.6259 185.866 50.5952 186.075 50.49 186.25C50.2782 186.638 49.807 186.802 49.4 186.63L48.17 186C48.1006 185.961 48.0128 185.983 47.97 186.05L47.7 186.53C47.6609 186.599 47.6829 186.687 47.75 186.73L48.1 186.93L48.99 187.44C49.8068 187.835 50.7899 187.523 51.23 186.73Z" fill="#ACD4F7"/>
<path d="M46.1699 188.35L46.3699 188.01L46.1699 188.35Z" fill="#ACD4F7"/>
<path d="M46.1104 188.46L46.1703 188.35L46.1104 188.46Z" fill="#ACD4F7"/>
<path d="M52.7197 181L43.6597 175.78C41.2476 174.447 38.2154 175.202 36.7097 177.51C35.331 179.795 36.0386 182.763 38.2997 184.18L45.7097 188.44L45.8997 188.55C45.96 188.602 46.0495 188.602 46.1097 188.55L46.1697 188.44L46.3697 188.1V188.17L48.8397 183.87L48.8997 183.77C48.937 183.698 48.9105 183.61 48.8397 183.57L48.3697 183.3C48.3434 183.273 48.3074 183.258 48.2697 183.258C48.2321 183.258 48.1961 183.273 48.1697 183.3L46.9797 185.37L45.7697 187.48L45.4197 187.27L38.7697 183.45C37.8666 182.889 37.2239 181.991 36.9838 180.956C36.7436 179.92 36.9257 178.831 37.4897 177.93C38.7657 176.029 41.2799 175.413 43.2897 176.51L52.3497 181.73C54.2776 182.923 54.9903 185.381 53.9997 187.42C53.0138 189.288 50.7456 190.067 48.8197 189.2C48.7478 189.163 48.6593 189.189 48.6197 189.26L48.3497 189.73C48.3002 189.784 48.3002 189.866 48.3497 189.92C49.1469 190.297 50.0331 190.446 50.9097 190.35C52.5061 190.171 53.916 189.228 54.6897 187.82C55.8973 185.379 55.0427 182.421 52.7197 181Z" fill="#ACD4F7"/>
<path d="M42.7997 183.6L42.1497 180.6L45.0297 179.69V179.63L44.4897 179.32H44.3997L41.7197 180.14C41.5821 180.184 41.4627 180.272 41.3797 180.39C41.3291 180.525 41.3291 180.675 41.3797 180.81L42.0097 183.54C42.0044 183.556 42.0044 183.574 42.0097 183.59L42.5397 183.9H42.6297L42.7997 183.6Z" fill="#ACD4F7"/>
<path d="M45.234 170.925L44.7354 171.792L45.6022 172.29L46.1008 171.423L45.234 170.925Z" fill="#ACD4F7"/>
<path d="M36 187L36.16 186.72L36 187ZM36.33 186.44L36.49 186.15L36.33 186.44ZM36.65 185.87L36.81 185.59L36.65 185.87ZM36.98 185.31L37.14 185.02L36.98 185.31ZM37.3 184.74L37.46 184.46L37.3 184.74ZM37.63 184.18L37.8 183.89L37.63 184.18ZM37.95 183.61L38.11 183.33L37.95 183.61ZM38.28 183.05L38.45 182.76L38.28 183.05ZM38.6 182.48L38.76 182.2L38.6 182.48ZM38.93 181.92L39.1 181.63L38.93 181.92ZM39.25 181.35L39.41 181.07L39.25 181.35ZM39.58 180.79L39.75 180.5L39.58 180.79ZM39.9 180.22L40.06 179.94L39.9 180.22ZM40.23 179.66L40.4 179.37L40.23 179.66ZM40.55 179.1L40.71 178.82L40.55 179.1ZM40.88 178.53L41.05 178.24L40.88 178.53ZM41.2 177.97L41.36 177.69L41.2 177.97ZM41.53 177.4L41.7 177.11L41.53 177.4ZM41.85 176.84L42.01 176.56L41.85 176.84ZM42.18 176.27L42.35 175.98L42.18 176.27ZM42.5 175.71L42.66 175.43L42.5 175.71ZM42.83 175.14L43 174.85L42.83 175.14ZM43.15 174.58L43.31 174.3L43.15 174.58ZM43.48 174.01L43.65 173.72L43.48 174.01ZM43.8 173.45L43.96 173.17L43.8 173.45ZM44.13 172.88L44.3 172.59L44.13 172.88ZM44.45 172.32L44.61 172.04L44.45 172.32Z" fill="#ACD4F7"/>
<path d="M36.2174 186.602L35.7188 187.469L36.5856 187.967L37.0842 187.101L36.2174 186.602Z" fill="#ACD4F7"/>
<path d="M41.939 169.985L32.8389 185.805L33.7057 186.303L42.8058 170.484L41.939 169.985Z" fill="#ACD4F7"/>
<path d="M41.2154 169.575L32.1152 185.394L32.982 185.893L42.0822 170.074L41.2154 169.575Z" fill="#ACD4F7"/>
<path d="M59.2261 179.93L50.126 195.749L50.9928 196.248L60.0929 180.428L59.2261 179.93Z" fill="#ACD4F7"/>
<path d="M36.1031 170.263L35.6045 171.13L60.82 185.635L61.3186 184.768L36.1031 170.263Z" fill="#ACD4F7"/>
<path d="M31.1412 178.88L30.6426 179.747L55.8581 194.253L56.3567 193.386L31.1412 178.88Z" fill="#ACD4F7"/>
<path d="M31.5514 178.166L31.0527 179.033L56.2682 193.538L56.7669 192.671L31.5514 178.166Z" fill="#ACD4F7"/>
<path d="M35.6871 170.986L35.1885 171.853L60.404 186.358L60.9026 185.491L35.6871 170.986Z" fill="#ACD4F7"/>
<path d="M45.9479 171.335L45.4492 172.202L46.316 172.7L46.8147 171.834L45.9479 171.335Z" fill="#ACD4F7"/>
<path d="M36.7305 187.46L36.8905 187.17L36.7305 187.46ZM37.0605 186.89L37.2205 186.61L37.0605 186.89ZM37.3805 186.33L37.5405 186.04L37.3805 186.33ZM37.7105 185.76L37.8705 185.48L37.7105 185.76ZM38.0305 185.2L38.1905 184.91L38.0305 185.2ZM38.3605 184.63L38.5205 184.35L38.3605 184.63ZM38.6805 184.07L38.8405 183.78L38.6805 184.07ZM39.0105 183.5L39.1705 183.22L39.0105 183.5ZM39.3305 182.94L39.4905 182.65L39.3305 182.94ZM39.6605 182.37L39.8205 182.09L39.6605 182.37ZM39.9805 181.81L40.1405 181.52L39.9805 181.81ZM40.3105 181.25L40.4705 180.97L40.3105 181.25ZM40.6305 180.68L40.7905 180.39L40.6305 180.68ZM40.9605 180.12L41.1205 179.84L40.9605 180.12ZM41.2805 179.55L41.4405 179.26L41.2805 179.55ZM41.6105 178.99L41.7705 178.71L41.6105 178.99ZM41.9305 178.42L42.0905 178.13L41.9305 178.42ZM42.2605 177.86L42.4205 177.58L42.2605 177.86ZM42.5805 177.29L42.7405 177L42.5805 177.29ZM42.9105 176.73L43.0705 176.45L42.9105 176.73ZM43.2305 176.16L43.3905 175.87L43.2305 176.16ZM43.5605 175.6L43.7205 175.32L43.5605 175.6ZM43.8805 175.03L44.0405 174.74L43.8805 175.03ZM44.2105 174.47L44.3705 174.19L44.2105 174.47ZM44.5305 173.9L44.6905 173.62L44.5305 173.9ZM44.8605 173.34L45.0005 173L44.8605 173.34ZM45.1805 172.77L45.3405 172.49L45.1805 172.77Z" fill="#ACD4F7"/>
<path d="M36.9322 187.012L36.4336 187.879L37.3004 188.378L37.799 187.511L36.9322 187.012Z" fill="#ACD4F7"/>
<path d="M58.5113 179.519L49.4111 195.339L50.2779 195.837L59.3781 180.018L58.5113 179.519Z" fill="#ACD4F7"/>
<path d="M31.5514 178.166L31.0527 179.033L56.2682 193.538L56.7669 192.671L31.5514 178.166Z" fill="#ACD4F7"/>
<path d="M53.77 197.84L28.54 183.32L37.65 167.48L62.89 182L53.77 197.84ZM28.57 183.31L53.76 197.81L62.85 182L37.66 167.52L28.57 183.31Z" fill="#ACD4F7"/>
<path d="M32.1902 186V185.77L32.3202 185.84V186L32.4402 185.94L32.5602 186.01L32.3502 186.11V186.37L32.2202 186.29V186.14L32.0802 186.2L31.9502 186.13L32.1902 186Z" fill="#ACD4F7"/>
<path d="M35.77 188.08V187.86L35.9 187.93V188.06L36 188L36.12 188.07L35.91 188.16V188.42L35.78 188.35V188.19L35.63 188.26L35.5 188.19L35.77 188.08Z" fill="#ACD4F7"/>
<path d="M49.4697 196V195.77L49.5897 195.84V195.97L49.6997 195.91L49.8197 195.98L49.6097 196.07V196.34L49.4897 196.26V196.1L49.3397 196.17L49.2197 196.1L49.4697 196Z" fill="#ACD4F7"/>
<path d="M30.3904 179V178.77L30.5204 178.85V179L30.6404 178.94L30.7504 179.01L30.5504 179.11V179.37L30.4204 179.3V179.14L30.2704 179.21L30.1504 179.14L30.3904 179Z" fill="#ACD4F7"/>
<path opacity="0.19" d="M44.8609 171.644L41.2637 169.574L32.1635 185.394L35.7608 187.463L44.8609 171.644Z" fill="#ACD4F7"/>
<path opacity="0.19" d="M62.8756 182.004L59.2783 179.935L50.1782 195.754L53.7754 197.824L62.8756 182.004Z" fill="#ACD4F7"/>
<path d="M33.6051 174.562L33.1064 175.428L58.3479 189.949L58.8466 189.082L33.6051 174.562Z" fill="#ACD4F7"/>
<path d="M41.3299 263.4L40.9099 270.96L38.1599 270.86L37.4199 263.35L41.3299 263.4Z" fill="#FEC6BD"/>
<path d="M40.9096 271C42.3956 271.664 43.9572 272.144 45.5596 272.43C47.6196 272.7 47.5596 273.96 45.9296 274.18C44.2996 274.4 37.3596 275.45 37.2596 273.65C37.1606 272.648 37.4871 271.65 38.1596 270.9L40.9096 271Z" fill="#30343A"/>
<path d="M27.1098 258.69L26.7498 265.08L24.4298 264.99L23.7998 258.64L27.1098 258.69Z" fill="#FEC6BD"/>
<path d="M26.7504 265.08C28.0093 265.643 29.3325 266.049 30.6904 266.29C32.4304 266.51 32.3904 267.59 31.0004 267.77C29.6104 267.95 23.7504 268.84 23.6604 267.32C23.5856 266.47 23.8642 265.628 24.4304 264.99L26.7504 265.08Z" fill="#30343A"/>
<path d="M51.4296 198L52.7196 200.55C52.7196 200.55 59.8896 191.69 60.8696 190.13C60.8696 190.13 60.5196 187 60.9596 186.37C61.3996 185.74 61.4296 188.01 61.6596 187.66C62.3864 186.781 63.2156 185.992 64.1296 185.31C64.4796 185.23 63.4996 189.31 62.4396 190.44C62.4396 190.44 56.2996 207.23 52.0096 206.81C49.9196 206.6 46.0996 202.31 46.0996 202.31L51.4296 198Z" fill="#FEC6BD"/>
<path d="M41.1695 168.84C41.4623 171.189 41.6059 173.553 41.5995 175.92C41.4895 178.78 39.6895 179.1 37.8895 179.52L37.3595 185.44L31.9995 184C31.9995 184 31.3695 173 31.6795 170.78C31.9895 168.56 41.1695 168.84 41.1695 168.84Z" fill="#FEC6BD"/>
<path d="M45.7204 223.69C45.7704 227.23 46.7204 236.84 45.9904 243.09C44.8204 253.49 42.9904 261.23 42.9904 263.45C41.9801 264.09 40.7938 264.394 39.6004 264.32C38.41 264.395 37.2265 264.091 36.2204 263.45C36.2204 263.45 34.0004 245.31 33.8204 237C33.8204 237 24.2004 227.85 23.4004 217.06L43.5204 210.48C43.5204 210.48 45.6704 220.16 45.7204 223.69Z" fill="#2A60B7"/>
<path d="M33.8197 237C32.0549 240.978 30.6915 245.122 29.7497 249.37C28.7997 254.77 28.3197 259 28.3197 259C27.5695 259.667 26.5801 259.999 25.5797 259.92C24.6217 260.047 23.6613 259.704 22.9997 259C22.1839 252.44 21.8497 245.829 21.9997 239.22C22.3697 229.49 23.3197 217.06 23.3197 217.06L33.8197 237Z" fill="#255299"/>
<path d="M33.8197 237C32.0549 240.978 30.6915 245.122 29.7497 249.37C28.7997 254.77 28.3197 259 28.3197 259C28.3197 259 27.8297 259.92 25.5797 259.92C23.3297 259.92 22.9997 259 22.9997 259C22.1839 252.44 21.8497 245.829 21.9997 239.22C22.3697 229.49 23.3197 217.06 23.3197 217.06L33.8197 237Z" fill="url(#paint10_linear_3157_6814)"/>
<path d="M24.5699 181.48C21.7599 182.48 21.0299 183.87 21.7099 188.94C22.3899 194.01 23.9599 197.67 24.5699 201.47C25.2399 205.69 25.3099 206.23 24.1999 209.47C23.0899 212.71 22.7699 216.61 23.3999 217.09C24.0299 217.57 32.9999 222.62 37.7599 221.72C42.5199 220.82 42.2499 214.58 43.1499 214.58C44.0499 214.58 44.8499 220.88 45.4799 220.93C46.1099 220.98 44.0099 212.18 43.2899 206.83C43.2099 206.28 43.5999 200.83 43.5999 200.83L45.7199 202.66C45.813 202.818 45.9703 202.928 46.1509 202.961C46.3315 202.993 46.5174 202.946 46.6599 202.83L51.4999 198.83C51.7371 198.639 51.8006 198.305 51.6499 198.04C50.8499 196.62 48.3299 192.19 46.4199 189.04C45.3707 187.03 43.7303 185.389 41.7199 184.34C35.5899 181.69 27.3699 180.52 24.5699 181.48Z" fill="#6DB3FA"/>
<path d="M37.3604 176C37.3604 176 36.3604 174.68 36.9904 174C37.6204 173.32 38.9904 173.63 39.1604 174.32C39.3304 175.01 39.5904 172.68 40.2204 171.15C40.6775 170.259 41.3062 169.467 42.0704 168.82C43.1804 167.97 42.8104 166.82 40.7504 165.82C37.7731 164.737 34.5257 164.642 31.4904 165.55C29.2177 166.396 27.7185 168.575 27.7404 171C27.9304 172.85 27.9304 175.3 26.2104 176.61C24.4904 177.92 21.7704 178.61 22.4504 182.1C23.1304 185.59 19.4504 186.1 20.9804 189.25C21.8204 191.03 22.1304 191.97 24.3304 192.75C26.5304 193.53 27.6704 195.26 29.8604 195.52C32.0504 195.78 37.0204 194.52 38.3804 191.76C39.7404 189 40.7304 189.2 41.2504 186.95C41.7704 184.7 40.0504 183.61 39.0004 182.41C37.9504 181.21 38.2704 180.74 38.4804 179.41C38.6904 178.08 37.3604 176 37.3604 176Z" fill="#30343A"/>
<path d="M37.7598 221.7C42.5198 220.81 42.2498 214.56 43.1498 214.56C44.0498 214.56 44.8498 220.86 45.4798 220.91C46.1098 220.96 44.0098 212.16 43.2898 206.81C43.2098 206.26 43.5998 200.81 43.5998 200.81L37.8498 194.81L37.7598 221.7Z" fill="url(#paint11_linear_3157_6814)"/>
<path d="M42.8105 167C43.5305 170 39.8105 173.26 35.7505 174.24C31.6905 175.22 27.9005 173.57 27.3005 171.17C26.5605 168.17 29.0805 164.48 33.1505 163.49C37.2205 162.5 42.1005 164 42.8105 167Z" fill="#FFE600"/>
<path d="M40.6896 169.23C39.6896 172.52 33.3296 174.61 30.0896 172.86C28.845 172.15 27.9345 170.973 27.5592 169.59C27.184 168.207 27.3748 166.732 28.0896 165.49C29.8396 162.49 33.0896 161.49 36.4096 162.22C37.9516 162.503 39.2999 163.43 40.1169 164.768C40.9339 166.106 41.1422 167.729 40.6896 169.23Z" fill="#FFDA00"/>
<path d="M30.3604 165.44C30.3604 165.44 32.1404 162.59 35.2204 162.75C34.2221 162.468 33.1551 162.56 32.2204 163.01C31.2698 163.503 30.5881 164.394 30.3604 165.44Z" fill="#FFE600"/>
<path d="M33 165.78C33.8574 165.076 34.8518 164.559 35.92 164.26C34.7308 164.14 33.5836 164.737 33 165.78Z" fill="#FFE600"/>
<path d="M170.54 238.73H123.11V240.39C123.224 241.101 123.702 241.701 124.37 241.97L145.47 253.13C147.161 253.957 149.145 253.927 150.81 253.05L169.57 241.26C169.922 241.056 170.207 240.753 170.39 240.39H170.53L170.54 238.73Z" fill="#FFD215"/>
<path d="M145.48 251.59L124.38 240.43C122.82 239.6 122.68 238.23 124.07 237.36L142.83 225.57C144.495 224.695 146.476 224.661 148.17 225.48L169.27 236.65C170.83 237.48 170.97 238.85 169.58 239.72L150.82 251.51C149.155 252.387 147.171 252.417 145.48 251.59Z" fill="#FFE73E"/>
<path d="M160 237.05L150 205.64C149.562 204.255 148.277 203.314 146.825 203.314C145.373 203.314 144.088 204.255 143.65 205.64L133.65 237.05C132.56 240.53 139.53 243.65 146.78 243.65C154.03 243.65 161.06 240.52 160 237.05Z" fill="url(#paint12_linear_3157_6814)"/>
<path d="M160 237.05L158.73 233.05C159.62 236.16 153.37 238.94 146.86 238.94C140.35 238.94 134.08 236.15 135 233L133.73 237C132.64 240.48 139.61 243.6 146.86 243.6C154.11 243.6 161.06 240.52 160 237.05Z" fill="url(#paint13_linear_3157_6814)"/>
<path d="M157.17 228.26L155.97 224.44C156.66 226.88 151.97 229.09 146.82 229.09C141.67 229.09 136.97 226.94 137.66 224.49L136.48 228.26C135.63 231 141.11 233.45 146.82 233.45C152.53 233.45 158 231 157.17 228.26Z" fill="url(#paint14_linear_3157_6814)"/>
<path d="M154.56 220.06L153.56 216.68C154.08 218.51 150.68 220.14 146.86 220.14C143.04 220.14 139.67 218.51 140.18 216.67L139.12 220.06C138.48 222.11 142.58 223.94 146.85 223.94C151.12 223.94 155.21 222.11 154.56 220.06Z" fill="url(#paint15_linear_3157_6814)"/>
<path d="M152.16 212.49L151.33 209.78C151.69 211.04 149.47 212.17 146.83 212.17C144.19 212.17 141.98 211.04 142.34 209.78L141.49 212.49C141.05 213.91 143.88 215.17 146.83 215.17C149.78 215.17 152.61 213.9 152.16 212.49Z" fill="url(#paint16_linear_3157_6814)"/>
<path d="M211.91 214.91H164.48V216.57C164.584 217.286 165.066 217.89 165.74 218.15L186.84 229.31C188.531 230.137 190.515 230.107 192.18 229.23L211 217.44C211.356 217.24 211.642 216.937 211.82 216.57H211.96L211.91 214.91Z" fill="#FFD215"/>
<path d="M186.85 227.78L165.75 216.61C164.19 215.78 164.05 214.41 165.44 213.54L184.2 201.75C185.865 200.873 187.849 200.843 189.54 201.67L210.64 212.83C212.2 213.66 212.34 215.03 210.95 215.9L192.19 227.69C190.525 228.565 188.544 228.599 186.85 227.78Z" fill="#FFE73E"/>
<path d="M201.33 213.23L191.33 181.82C190.892 180.435 189.608 179.494 188.155 179.494C186.703 179.494 185.418 180.435 184.98 181.82L174.98 213.23C173.89 216.71 180.86 219.83 188.11 219.83C195.36 219.83 202.43 216.7 201.33 213.23Z" fill="url(#paint17_linear_3157_6814)"/>
<path d="M201.33 213.23L200.06 209.23C200.95 212.33 194.7 215.11 188.19 215.11C181.68 215.11 175.45 212.33 176.33 209.22L175.06 213.22C173.97 216.7 180.94 219.82 188.19 219.82C195.44 219.82 202.43 216.7 201.33 213.23Z" fill="url(#paint18_linear_3157_6814)"/>
<path d="M198.54 204.44L197.34 200.62C198.03 203.06 193.34 205.27 188.19 205.27C183.04 205.27 178.34 203.12 179.03 200.67L177.85 204.44C177 207.18 182.48 209.64 188.19 209.64C193.9 209.64 199.4 207.18 198.54 204.44Z" fill="url(#paint19_linear_3157_6814)"/>
<path d="M195.93 196.24L194.93 192.86C195.45 194.69 192.05 196.32 188.22 196.32C184.39 196.32 181.04 194.69 181.55 192.86L180.49 196.24C179.85 198.24 183.95 200.13 188.22 200.13C192.49 200.13 196.58 198.29 195.93 196.24Z" fill="url(#paint20_linear_3157_6814)"/>
<path d="M193.53 188.68L192.7 186C193.06 187.26 190.83 188.39 188.19 188.39C185.55 188.39 183.35 187.26 183.7 186L182.86 188.72C182.42 190.13 185.25 191.39 188.19 191.39C191.13 191.39 194 190.09 193.53 188.68Z" fill="url(#paint21_linear_3157_6814)"/>
<defs>
<linearGradient id="paint0_linear_3157_6814" x1="16.9572" y1="57.9546" x2="37.6495" y2="70.3727" gradientUnits="userSpaceOnUse">
<stop stop-color="#CFECFF"/>
<stop offset="1" stop-color="#F6FCFF"/>
</linearGradient>
<linearGradient id="paint1_linear_3157_6814" x1="267.357" y1="91.16" x2="239.502" y2="90.6913" gradientUnits="userSpaceOnUse">
<stop stop-color="#CFECFF"/>
<stop offset="1" stop-color="#F6FCFF"/>
</linearGradient>
<linearGradient id="paint2_linear_3157_6814" x1="11.2296" y1="94.87" x2="240.31" y2="94.87" gradientUnits="userSpaceOnUse">
<stop stop-color="#8CC3F9"/>
<stop offset="0.32" stop-color="#8AC1F9"/>
<stop offset="0.45" stop-color="#83BBF7"/>
<stop offset="0.54" stop-color="#77B0F5"/>
<stop offset="0.62" stop-color="#65A1F1"/>
<stop offset="0.64" stop-color="#5F9BF0"/>
<stop offset="0.7" stop-color="#6EA8F3"/>
<stop offset="0.79" stop-color="#7FB7F6"/>
<stop offset="0.88" stop-color="#89C0F8"/>
<stop offset="1" stop-color="#8CC3F9"/>
</linearGradient>
<linearGradient id="paint3_linear_3157_6814" x1="126.48" y1="96.97" x2="179.42" y2="96.97" gradientUnits="userSpaceOnUse">
<stop stop-color="#96C7F9"/>
<stop offset="0.36" stop-color="#92C4F9"/>
<stop offset="0.72" stop-color="#86BAF9"/>
<stop offset="1" stop-color="#77AEF9"/>
</linearGradient>
<linearGradient id="paint4_linear_3157_6814" x1="198.02" y1="101.85" x2="240.31" y2="101.85" gradientUnits="userSpaceOnUse">
<stop stop-color="#94C3F9"/>
<stop offset="0.13" stop-color="#98C5FA"/>
<stop offset="0.26" stop-color="#A4CCFB"/>
<stop offset="0.39" stop-color="#B9D6FE"/>
<stop offset="0.43" stop-color="#C0DAFF"/>
<stop offset="0.53" stop-color="#B8D6FD"/>
<stop offset="0.72" stop-color="#AFD1FA"/>
<stop offset="1" stop-color="#ACD0F9"/>
</linearGradient>
<linearGradient id="paint5_linear_3157_6814" x1="11.2299" y1="152.57" x2="201.15" y2="152.57" gradientUnits="userSpaceOnUse">
<stop stop-color="#AACFF9"/>
<stop offset="0.18" stop-color="#AED1FA"/>
<stop offset="0.37" stop-color="#BAD7FD"/>
<stop offset="0.43" stop-color="#C0DAFF"/>
<stop offset="0.53" stop-color="#B8D6FD"/>
<stop offset="0.72" stop-color="#AFD1FA"/>
<stop offset="1" stop-color="#ACD0F9"/>
</linearGradient>
<linearGradient id="paint6_linear_3157_6814" x1="84.7475" y1="186.77" x2="83.2933" y2="186.282" gradientUnits="userSpaceOnUse">
<stop stop-color="#133E91" stop-opacity="0.4"/>
<stop offset="1" stop-color="#133E91" stop-opacity="0"/>
</linearGradient>
<radialGradient id="paint7_radial_3157_6814" cx="0" cy="0" r="1" gradientUnits="userSpaceOnUse" gradientTransform="translate(103.01 179.328) scale(8.43)">
<stop stop-color="#133E91" stop-opacity="0.4"/>
<stop offset="1" stop-color="#133E91" stop-opacity="0"/>
</radialGradient>
<linearGradient id="paint8_linear_3157_6814" x1="106.875" y1="190.42" x2="102.202" y2="189.698" gradientUnits="userSpaceOnUse">
<stop stop-color="#133E91" stop-opacity="0.4"/>
<stop offset="1" stop-color="#133E91" stop-opacity="0"/>
</linearGradient>
<linearGradient id="paint9_linear_3157_6814" x1="178.733" y1="148.81" x2="188.051" y2="141.856" gradientUnits="userSpaceOnUse">
<stop stop-color="#609CF0"/>
<stop offset="1" stop-color="#8CC3F9"/>
</linearGradient>
<linearGradient id="paint10_linear_3157_6814" x1="27.9197" y1="173.8" x2="27.9197" y2="173.85" gradientUnits="userSpaceOnUse">
<stop stop-color="#133E91" stop-opacity="0.4"/>
<stop offset="1" stop-color="#133E91" stop-opacity="0"/>
</linearGradient>
<linearGradient id="paint11_linear_3157_6814" x1="41.9762" y1="207.26" x2="41.5103" y2="207.338" gradientUnits="userSpaceOnUse">
<stop stop-color="#133E91" stop-opacity="0.4"/>
<stop offset="1" stop-color="#133E91" stop-opacity="0"/>
</linearGradient>
<linearGradient id="paint12_linear_3157_6814" x1="133.57" y1="223.48" x2="160.08" y2="223.48" gradientUnits="userSpaceOnUse">
<stop stop-color="#FFD215"/>
<stop offset="0.55" stop-color="#FFE000"/>
<stop offset="1" stop-color="#FFD215"/>
</linearGradient>
<linearGradient id="paint13_linear_3157_6814" x1="133.57" y1="238.34" x2="160.08" y2="238.34" gradientUnits="userSpaceOnUse">
<stop stop-color="#37475E" stop-opacity="0.8"/>
<stop offset="1" stop-color="#37475E"/>
</linearGradient>
<linearGradient id="paint14_linear_3157_6814" x1="136.39" y1="228.95" x2="157.26" y2="228.95" gradientUnits="userSpaceOnUse">
<stop stop-color="#37475E" stop-opacity="0.8"/>
<stop offset="1" stop-color="#37475E"/>
</linearGradient>
<linearGradient id="paint15_linear_3157_6814" x1="139.02" y1="220.31" x2="154.63" y2="220.31" gradientUnits="userSpaceOnUse">
<stop stop-color="#37475E" stop-opacity="0.8"/>
<stop offset="1" stop-color="#37475E"/>
</linearGradient>
<linearGradient id="paint16_linear_3157_6814" x1="141.45" y1="212.48" x2="152.21" y2="212.48" gradientUnits="userSpaceOnUse">
<stop stop-color="#37475E" stop-opacity="0.8"/>
<stop offset="1" stop-color="#37475E"/>
</linearGradient>
<linearGradient id="paint17_linear_3157_6814" x1="174.94" y1="199.66" x2="201.45" y2="199.66" gradientUnits="userSpaceOnUse">
<stop stop-color="#FFD215"/>
<stop offset="0.55" stop-color="#FFE000"/>
<stop offset="1" stop-color="#FFD215"/>
</linearGradient>
<linearGradient id="paint18_linear_3157_6814" x1="174.94" y1="214.52" x2="201.45" y2="214.52" gradientUnits="userSpaceOnUse">
<stop stop-color="#37475E" stop-opacity="0.8"/>
<stop offset="1" stop-color="#37475E"/>
</linearGradient>
<linearGradient id="paint19_linear_3157_6814" x1="177.76" y1="205.13" x2="198.63" y2="205.13" gradientUnits="userSpaceOnUse">
<stop stop-color="#37475E" stop-opacity="0.8"/>
<stop offset="1" stop-color="#37475E"/>
</linearGradient>
<linearGradient id="paint20_linear_3157_6814" x1="180.39" y1="196.49" x2="196" y2="196.49" gradientUnits="userSpaceOnUse">
<stop stop-color="#37475E" stop-opacity="0.8"/>
<stop offset="1" stop-color="#37475E"/>
</linearGradient>
<linearGradient id="paint21_linear_3157_6814" x1="182.82" y1="188.66" x2="193.58" y2="188.66" gradientUnits="userSpaceOnUse">
<stop stop-color="#37475E" stop-opacity="0.8"/>
<stop offset="1" stop-color="#37475E"/>
</linearGradient>
</defs>
</svg>
