<svg width="44" height="44" viewBox="0 0 44 44" fill="none" xmlns="http://www.w3.org/2000/svg">
<g clip-path="url(#clip0_6789_6380)">
<path d="M38.1638 21.8967L38.1393 21.9211L22.8493 6.63112L20.6982 6.20334L7.43712 11.7278L5.38379 13.1089V29.3889L6.00712 30.44L20.7716 37.8222L22.8371 37.4922L38.1271 23.6322L38.1638 21.9089V21.8967ZM6.60601 13.39L7.35157 13.0844L20.8449 20.9556L6.60601 28.7167V13.39ZM22.116 7.62112L36.306 21.8111L23.1916 19.4278L22.116 7.62112ZM23.3138 21.9211V20.6867L36.7827 23.1433L22.0916 36.49L23.3016 21.9211H23.3138ZM20.8693 7.43778L22.0305 20.2344L8.7449 12.4856L20.8571 7.43778H20.8693ZM7.3149 29.7311L22.0793 21.6767L22.1282 21.7011L20.8938 36.5144L7.32712 29.7311H7.3149ZM22.0549 37.1011V36.8933L22.4216 37.2845L22.0549 37.1011Z" fill="#D1DEEE"/>
<path d="M10.8844 29.0467C10.8844 29.7189 10.7256 30.3544 10.4444 30.9167C9.76 32.2978 8.34222 33.2389 6.69222 33.2389C4.37 33.2389 2.5 31.3689 2.5 29.0467C2.5 26.7244 4.37 24.8544 6.69222 24.8544C7.53556 24.8544 8.31778 25.0989 8.96556 25.5267C10.1267 26.2722 10.8844 27.5678 10.8844 29.0467Z" fill="#FFDA00"/>
<path d="M37.4188 17.8755C39.741 17.8755 41.611 19.7455 41.611 22.0678C41.611 24.39 39.741 26.26 37.4188 26.26C36.2943 26.26 35.2799 25.82 34.5221 25.0867C33.7155 24.3289 33.2266 23.2533 33.2266 22.0678C33.2266 21.8722 33.2266 21.6889 33.2632 21.5056C33.3855 20.5767 33.8132 19.7455 34.4488 19.11C35.2066 18.3522 36.2455 17.8878 37.4066 17.8878L37.4188 17.8755Z" fill="#FFDA00"/>
<path d="M22.055 2.51222C24.3772 2.51222 26.2472 4.38222 26.2472 6.70444C26.2472 7.86556 25.7828 8.90444 25.025 9.66222C24.2672 10.42 23.2283 10.8844 22.0672 10.8844C21.2239 10.8844 20.4417 10.64 19.7939 10.2122C19.0361 9.72333 18.4372 8.99 18.1317 8.12222C17.9728 7.68222 17.875 7.19333 17.875 6.69222C17.875 4.37 19.745 2.5 22.0672 2.5L22.055 2.51222Z" fill="#FFDA00"/>
<path d="M10.8844 29.0467C10.8844 29.7189 10.7256 30.3544 10.4444 30.9167C9.76 32.2978 8.34222 33.2389 6.69222 33.2389C4.37 33.2389 2.5 31.3689 2.5 29.0467C2.5 26.7244 4.37 24.8544 6.69222 24.8544C7.53556 24.8544 8.31778 25.0989 8.96556 25.5267C10.1267 26.2722 10.8844 27.5678 10.8844 29.0467Z" fill="url(#paint0_linear_6789_6380)"/>
<path d="M37.4188 17.8755C39.741 17.8755 41.611 19.7455 41.611 22.0678C41.611 24.39 39.741 26.26 37.4188 26.26C36.2943 26.26 35.2799 25.82 34.5221 25.0867C33.7155 24.3289 33.2266 23.2533 33.2266 22.0678C33.2266 21.8722 33.2266 21.6889 33.2632 21.5056C33.3855 20.5767 33.8132 19.7455 34.4488 19.11C35.2066 18.3522 36.2455 17.8878 37.4066 17.8878L37.4188 17.8755Z" fill="url(#paint1_linear_6789_6380)"/>
<path d="M22.055 2.51222C24.3772 2.51222 26.2472 4.38222 26.2472 6.70444C26.2472 7.86556 25.7828 8.90444 25.025 9.66222C24.2672 10.42 23.2283 10.8844 22.0672 10.8844C21.2239 10.8844 20.4417 10.64 19.7939 10.2122C19.0361 9.72333 18.4372 8.99 18.1317 8.12222C17.9728 7.68222 17.875 7.19333 17.875 6.69222C17.875 4.37 19.745 2.5 22.0672 2.5L22.055 2.51222Z" fill="url(#paint2_linear_6789_6380)"/>
<path d="M25.2333 34.7056C25.8688 35.4389 26.2477 36.3922 26.2477 37.4311C26.2477 39.7533 24.3777 41.6233 22.0555 41.6233C19.7333 41.6233 17.8633 39.7533 17.8633 37.4311C17.8633 36.9422 17.9488 36.49 18.0955 36.05C18.3888 35.2067 18.9388 34.4978 19.6477 33.9967C20.3199 33.52 21.1511 33.2389 22.0433 33.2389C23.3144 33.2389 24.4633 33.8133 25.2211 34.7056H25.2333Z" fill="#508FEA"/>
<path d="M25.2333 34.7056C25.8688 35.4389 26.2477 36.3922 26.2477 37.4311C26.2477 39.7533 24.3777 41.6233 22.0555 41.6233C19.7333 41.6233 17.8633 39.7533 17.8633 37.4311C17.8633 36.9422 17.9488 36.49 18.0955 36.05C18.3888 35.2067 18.9388 34.4978 19.6477 33.9967C20.3199 33.52 21.1511 33.2389 22.0433 33.2389C23.3144 33.2389 24.4633 33.8133 25.2211 34.7056H25.2333Z" fill="url(#paint3_linear_6789_6380)"/>
<path d="M26.1988 21.2367C25.9299 23.29 24.1699 24.8667 22.0555 24.8667C19.7333 24.8667 17.8633 22.9967 17.8633 20.6744C17.8633 20.0022 18.0222 19.3667 18.3033 18.8044C18.9877 17.4233 20.4055 16.4822 22.0555 16.4822C24.3777 16.4822 26.2477 18.3522 26.2477 20.6744C26.2477 20.87 26.2477 21.0533 26.2111 21.2367H26.1988Z" fill="#508FEA"/>
<path d="M10.6273 10.86C10.7862 11.3 10.8839 11.7889 10.8839 12.29C10.8839 12.9622 10.7251 13.5978 10.4439 14.16C10.0895 14.8811 9.52727 15.48 8.84283 15.8833C8.2195 16.2622 7.48616 16.47 6.70394 16.47C4.38172 16.47 2.51172 14.6 2.51172 12.2778C2.51172 9.95556 4.38172 8.08556 6.70394 8.08556C8.51283 8.08556 10.0528 9.23444 10.6395 10.8478L10.6273 10.86Z" fill="#508FEA"/>
<path d="M26.1988 21.2367C25.9299 23.29 24.1699 24.8667 22.0555 24.8667C19.7333 24.8667 17.8633 22.9967 17.8633 20.6744C17.8633 20.0022 18.0222 19.3667 18.3033 18.8044C18.9877 17.4233 20.4055 16.4822 22.0555 16.4822C24.3777 16.4822 26.2477 18.3522 26.2477 20.6744C26.2477 20.87 26.2477 21.0533 26.2111 21.2367H26.1988Z" fill="url(#paint4_linear_6789_6380)"/>
<path d="M10.6273 10.86C10.7862 11.3 10.8839 11.7889 10.8839 12.29C10.8839 12.9622 10.7251 13.5978 10.4439 14.16C10.0895 14.8811 9.52727 15.48 8.84283 15.8833C8.2195 16.2622 7.48616 16.47 6.70394 16.47C4.38172 16.47 2.51172 14.6 2.51172 12.2778C2.51172 9.95556 4.38172 8.08556 6.70394 8.08556C8.51283 8.08556 10.0528 9.23444 10.6395 10.8478L10.6273 10.86Z" fill="url(#paint5_linear_6789_6380)"/>
</g>
<defs>
<linearGradient id="paint0_linear_6789_6380" x1="10.2978" y1="34.62" x2="5.91" y2="27.8489" gradientUnits="userSpaceOnUse">
<stop stop-color="#E5B527" stop-opacity="0.8"/>
<stop offset="1" stop-color="#FFD215" stop-opacity="0"/>
</linearGradient>
<linearGradient id="paint1_linear_6789_6380" x1="41.2443" y1="26.7367" x2="36.4043" y2="20.8211" gradientUnits="userSpaceOnUse">
<stop stop-color="#E5B527" stop-opacity="0.8"/>
<stop offset="1" stop-color="#FFD215" stop-opacity="0"/>
</linearGradient>
<linearGradient id="paint2_linear_6789_6380" x1="25.8928" y1="11.5933" x2="21.0528" y2="5.43333" gradientUnits="userSpaceOnUse">
<stop stop-color="#E5B527" stop-opacity="0.8"/>
<stop offset="1" stop-color="#FFD215" stop-opacity="0"/>
</linearGradient>
<linearGradient id="paint3_linear_6789_6380" x1="26.4188" y1="43.9211" x2="21.2366" y2="36.2211" gradientUnits="userSpaceOnUse">
<stop stop-color="#133E90" stop-opacity="0.4"/>
<stop offset="1" stop-color="#133E90" stop-opacity="0"/>
</linearGradient>
<linearGradient id="paint4_linear_6789_6380" x1="26.0399" y1="27.0667" x2="20.9922" y2="18.9633" gradientUnits="userSpaceOnUse">
<stop stop-color="#133E90" stop-opacity="0.4"/>
<stop offset="1" stop-color="#133E90" stop-opacity="0"/>
</linearGradient>
<linearGradient id="paint5_linear_6789_6380" x1="10.0284" y1="17.9489" x2="5.64061" y2="10.5178" gradientUnits="userSpaceOnUse">
<stop stop-color="#133E90" stop-opacity="0.4"/>
<stop offset="1" stop-color="#133E90" stop-opacity="0"/>
</linearGradient>
<clipPath id="clip0_6789_6380">
<rect width="44" height="44" fill="white"/>
</clipPath>
</defs>
</svg>
