<svg width="44" height="44" viewBox="0 0 44 44" fill="none" xmlns="http://www.w3.org/2000/svg">
<path d="M22.0174 10.8383C15.9813 10.8383 11.0889 15.3707 11.0889 20.9726C11.0889 25.1026 12.815 27.0722 15.1765 28.8725V33.7119C15.1765 33.9449 15.4412 34.072 15.6212 33.9343L19.7512 30.8633C20.4819 31.001 21.2337 31.0857 22.0068 31.0857C28.0323 31.0857 32.9247 26.5639 32.9353 20.9726L32.9459 20.962C32.9459 15.3707 28.0535 10.8383 22.0174 10.8383Z" fill="#FAE100"/>
<path d="M21.9999 41.5556C32.8001 41.5556 41.5554 32.8002 41.5554 22C41.5554 11.1998 32.8001 2.44444 21.9999 2.44444C11.1997 2.44444 2.44434 11.1998 2.44434 22C2.44434 32.8002 11.1997 41.5556 21.9999 41.5556Z" fill="#747E83"/>
<path d="M21.9999 34.444C15.1263 34.444 9.55588 28.8736 9.55588 22C9.55588 15.1264 15.1263 9.55599 21.9999 9.55599C25.4351 9.55599 28.5457 10.949 30.7991 13.2008L35.8274 8.17244C32.2882 4.63322 27.3985 2.44444 21.9999 2.44444C11.1994 2.44444 2.44434 11.1995 2.44434 22C2.44434 32.8005 11.1994 41.5556 21.9999 41.5556C27.4001 41.5556 32.2882 39.3668 35.829 35.8291L30.8007 30.8008C28.5457 33.051 25.4351 34.444 21.9999 34.444Z" fill="#C3CED3"/>
<path d="M34.4432 22.0003H28.2204C28.2204 18.5651 25.4344 15.7775 21.9976 15.7775C18.5608 15.7775 15.7764 18.5635 15.7764 22.0003C15.7764 23.6738 16.4382 25.1913 17.5145 26.3116L17.5097 26.3164L25.2138 34.0204L25.2154 34.022C30.5289 32.6038 34.4432 27.7598 34.4432 22.0003Z" fill="#5C6164"/>
<path d="M41.5536 22H34.4421C34.4421 27.7595 30.5262 32.6035 25.2158 34.0217L30.7074 39.5133C37.1367 36.3098 41.5536 29.6709 41.5536 22Z" fill="#A1ACB1"/>
<path d="M25.2188 34.0217L25.3921 34.195C30.6143 32.7201 34.445 27.9202 34.445 22.2222V22C34.445 27.7595 30.5292 32.6035 25.2188 34.0217Z" fill="white" fill-opacity="0.05"/>
<path d="M37.9987 20.2213H21.9982C21.0165 20.2213 20.2207 21.017 20.2207 21.9988C20.2207 22.9805 21.0165 23.7763 21.9982 23.7763H37.9971C38.9788 23.7763 39.7746 22.9805 39.7746 21.9988C39.7762 21.017 38.9804 20.2213 37.9987 20.2213Z" fill="#C3CED3"/>
<path d="M5.99821 23.333C6.7345 23.333 7.33138 22.7362 7.33138 21.9999C7.33138 21.2636 6.7345 20.6667 5.99821 20.6667C5.26192 20.6667 4.66504 21.2636 4.66504 21.9999C4.66504 22.7362 5.26192 23.333 5.99821 23.333Z" fill="#E2EAEE"/>
<path d="M21.9992 7.33274C22.7355 7.33274 23.3324 6.73586 23.3324 5.99957C23.3324 5.26328 22.7355 4.6664 21.9992 4.6664C21.2629 4.6664 20.666 5.26328 20.666 5.99957C20.666 6.73586 21.2629 7.33274 21.9992 7.33274Z" fill="#E2EAEE"/>
<path d="M21.9992 39.332C22.7355 39.332 23.3324 38.7352 23.3324 37.9989C23.3324 37.2626 22.7355 36.6657 21.9992 36.6657C21.2629 36.6657 20.666 37.2626 20.666 37.9989C20.666 38.7352 21.2629 39.332 21.9992 39.332Z" fill="#E2EAEE"/>
<path d="M10.6652 12.0192C11.4015 12.0192 11.9984 11.4223 11.9984 10.686C11.9984 9.94974 11.4015 9.35286 10.6652 9.35286C9.92891 9.35286 9.33203 9.94974 9.33203 10.686C9.33203 11.4223 9.92891 12.0192 10.6652 12.0192Z" fill="#E2EAEE"/>
<path d="M10.6652 34.6666C11.4015 34.6666 11.9984 34.0697 11.9984 33.3334C11.9984 32.5971 11.4015 32.0002 10.6652 32.0002C9.92891 32.0002 9.33203 32.5971 9.33203 33.3334C9.33203 34.0697 9.92891 34.6666 10.6652 34.6666Z" fill="#E2EAEE"/>
<path d="M33.3322 34.6668C34.0685 34.6668 34.6654 34.0699 34.6654 33.3336C34.6654 32.5973 34.0685 32.0004 33.3322 32.0004C32.5959 32.0004 31.999 32.5973 31.999 33.3336C31.999 34.0699 32.5959 34.6668 33.3322 34.6668Z" fill="#C3CED3"/>
<path d="M21.9992 20.4447H37.9982C38.9421 20.4447 39.7142 21.1822 39.7693 22.1119C39.7709 22.0741 39.7757 22.0378 39.7757 22C39.7757 21.0183 38.9799 20.2225 37.9982 20.2225H21.9992C21.0175 20.2225 20.2217 21.0183 20.2217 22C20.2217 22.0378 20.2233 22.0741 20.228 22.1119C20.2831 21.1822 21.0537 20.4447 21.9992 20.4447Z" fill="white" fill-opacity="0.2"/>
</svg>
