<svg width="160" height="160" viewBox="0 0 160 160" fill="none" xmlns="http://www.w3.org/2000/svg">
<path d="M159.521 79.7112C159.605 121.061 128.001 155.582 86.8048 159.139C84.4943 159.343 82.1626 159.446 79.8098 159.446C35.7865 159.446 0.0986328 123.758 0.0986328 79.7343C0.0986328 35.711 35.7865 0.0231047 79.8098 0.0231047C123.833 0.0231047 159.521 35.711 159.521 79.7343V79.7112Z" fill="url(#paint0_linear_3315_4220)"/>
<path d="M61.1295 87.7574L61.5569 87.5437C50.6342 65.7964 44.0089 42.1256 44.6674 27.2289H44.1938C43.5237 42.1661 50.1721 65.9466 61.1295 87.7574Z" fill="#C9DEFF"/>
<path d="M42.5701 23.1047C42.5239 25.2477 44.4763 27.9047 44.4763 27.9047C44.4763 27.9047 46.5326 25.3343 46.5788 23.1856C46.625 21.0368 45.7413 20.1588 44.638 20.1357C43.5348 20.1126 42.6106 20.9733 42.5701 23.1047Z" fill="#C9DEFF"/>
<path d="M46.0358 31.769C44.7188 33.5422 44.7708 36.9675 44.7708 36.9675C44.7708 36.9675 48.0401 36.0318 49.3571 34.2585C50.674 32.4852 50.4661 31.2144 49.5477 30.5329C48.6293 29.8513 47.3643 29.961 46.0358 31.769Z" fill="#C9DEFF"/>
<path d="M47.6478 40.4736C46.2326 42.374 46.2904 46.0188 46.2904 46.0188C46.2904 46.0188 49.7965 45.0195 51.2117 43.1307C52.6268 41.2419 52.3669 39.8672 51.4138 39.1394C50.4608 38.4116 49.0629 38.5675 47.6478 40.4736Z" fill="#C9DEFF"/>
<path d="M50.1258 47.9422C48.5431 49.5711 48.1445 53.031 48.1445 53.031C48.1445 53.031 51.6102 52.5227 53.164 50.8939C54.7178 49.265 54.6947 47.9538 53.8572 47.1394C53.0196 46.3249 51.7027 46.3191 50.1258 47.9422Z" fill="#C9DEFF"/>
<path d="M51.2868 55.7516C50.1315 57.6982 50.5243 61.1581 50.5243 61.1581C50.5243 61.1581 53.759 59.87 54.92 57.9292C56.081 55.9885 55.7402 54.7119 54.7351 54.1112C53.7301 53.5105 52.4478 53.8051 51.2868 55.7516Z" fill="#C9DEFF"/>
<path d="M53.2331 63.9134C52.4244 66.0332 53.4179 69.3661 53.4179 69.3661C53.4179 69.3661 56.3811 67.5408 57.1897 65.4267C57.9984 63.3126 57.4381 62.117 56.3464 61.7011C55.2547 61.2852 54.0417 61.8051 53.2331 63.9134Z" fill="#C9DEFF"/>
<path d="M56.4215 71.9365C55.6129 74.0505 56.6064 77.3892 56.6064 77.3892C56.6064 77.3892 59.5753 75.5639 60.384 73.444C61.1927 71.3242 60.6324 70.1401 59.5349 69.7242C58.4374 69.3083 57.2302 69.8166 56.4215 71.9365Z" fill="#C9DEFF"/>
<path d="M39.2024 32.2946C41.045 33.6693 44.58 33.6116 44.58 33.6116C44.58 33.6116 43.6096 30.2152 41.7612 28.8462C39.9129 27.4773 38.6017 27.691 37.8912 28.6498C37.1807 29.6087 37.354 30.9256 39.2024 32.2946Z" fill="#C9DEFF"/>
<path d="M40.7682 42.3509C42.5877 43.4253 45.805 43.0325 45.805 43.0325C45.805 43.0325 44.592 40.0289 42.7783 38.9545C40.9646 37.8801 39.7805 38.2094 39.226 39.1509C38.6715 40.0924 38.9545 41.2765 40.7682 42.3509Z" fill="#C9DEFF"/>
<path d="M41.9871 51.5812C44.2167 52.0549 47.3878 50.5473 47.3878 50.5473C47.3878 50.5473 45.112 47.8787 42.8766 47.3993C40.6412 46.9199 39.5438 47.6708 39.2954 48.8202C39.047 49.9697 39.7517 51.1018 41.9871 51.5812Z" fill="#C9DEFF"/>
<path d="M43.9389 58.5819C46.1743 59.0556 49.3454 57.548 49.3454 57.548C49.3454 57.548 47.0349 54.8794 44.8342 54.4C42.6335 53.9206 41.4956 54.6657 41.253 55.8209C41.0104 56.9762 41.7035 58.1025 43.9389 58.5819Z" fill="#C9DEFF"/>
<path d="M46.4343 65.9177C48.6293 66.5588 51.9044 65.2939 51.9044 65.2939C51.9044 65.2939 49.8307 62.4578 47.6358 61.8282C45.4408 61.1986 44.2914 61.8282 43.9621 62.9834C43.6329 64.1386 44.2452 65.2708 46.4343 65.9177Z" fill="#C9DEFF"/>
<path d="M49.1726 73.5596C51.3676 74.2007 54.6427 72.93 54.6427 72.93C54.6427 72.93 52.5632 70.0996 50.3741 69.4643C48.1849 68.8289 47.0297 69.4643 46.7004 70.6195C46.3712 71.7747 46.9834 72.9184 49.1726 73.5596Z" fill="#C9DEFF"/>
<path d="M52.4537 81.2823C54.6486 81.9235 57.9237 80.6527 57.9237 80.6527C57.9237 80.6527 55.8443 77.8224 53.6551 77.187C51.466 76.5516 50.3107 77.187 49.9815 78.3422C49.6522 79.4975 50.253 80.6412 52.4537 81.2823Z" fill="#C9DEFF"/>
<path d="M58.0217 103.908L57.6116 104.156C45.0542 83.3271 28.5286 65.1032 15.5957 57.7271L15.8267 57.3112C28.8289 64.7278 45.4008 83.0152 58.0217 103.908Z" fill="#C9DEFF"/>
<path d="M13.2158 53.7588C15.0526 54.8679 16.2599 57.935 16.2599 57.935C16.2599 57.935 12.9848 58.3047 11.148 57.2014C9.31113 56.0982 9.0281 54.891 9.59994 53.9321C10.1718 52.9733 11.3732 52.6556 13.2158 53.7588Z" fill="#C9DEFF"/>
<path d="M18.6573 61.2852C20.8696 61.1177 23.7172 62.9776 23.7172 62.9776C23.7172 62.9776 21.1815 65.2476 18.975 65.4152C16.7685 65.5827 15.8096 64.7278 15.723 63.5899C15.6363 62.452 16.4508 61.4585 18.6573 61.2852Z" fill="#C9DEFF"/>
<path d="M25.1894 67.304C27.5519 67.1249 30.6075 69.1119 30.6075 69.1119C30.6075 69.1119 27.8927 71.5437 25.5302 71.7285C23.1678 71.9134 22.1338 70.9892 22.0645 69.7704C21.9952 68.5516 22.827 67.4888 25.1894 67.304Z" fill="#C9DEFF"/>
<path d="M30.1921 73.3574C32.4101 72.8895 35.5524 74.3913 35.5524 74.3913C35.5524 74.3913 33.2881 77.0368 31.0701 77.5047C28.852 77.9726 27.7661 77.2332 27.5235 76.0895C27.2809 74.9458 27.974 73.8542 30.1921 73.3574Z" fill="#C9DEFF"/>
<path d="M36.1818 78.556C38.446 78.6079 41.1609 80.7913 41.1609 80.7913C41.1609 80.7913 38.3479 82.8419 36.0836 82.7899C33.8193 82.7379 32.9298 81.7675 32.9587 80.6007C32.9876 79.4339 33.9175 78.4751 36.1818 78.556Z" fill="#C9DEFF"/>
<path d="M42.051 84.5227C44.2748 84.9675 46.568 87.5841 46.568 87.5841C46.568 87.5841 43.4431 89.1206 41.225 88.6758C39.007 88.2311 38.2907 87.1278 38.5218 85.9784C38.7528 84.8289 39.8561 84.078 42.051 84.5227Z" fill="#C9DEFF"/>
<path d="M47.1394 91.4946C49.3575 91.9393 51.6564 94.5617 51.6564 94.5617C51.6564 94.5617 48.5315 96.0982 46.3076 95.6534C44.0838 95.2087 43.3791 94.0996 43.6044 92.956C43.8297 91.8123 44.9156 91.0556 47.1394 91.4946Z" fill="#C9DEFF"/>
<path d="M22.7758 55.8036C22.9491 58.1141 21.0429 61.0541 21.0429 61.0541C21.0429 61.0541 18.6862 58.4202 18.513 56.1328C18.3397 53.8455 19.2234 52.8404 20.4075 52.7538C21.5917 52.6671 22.5967 53.5105 22.7758 55.8036Z" fill="#C9DEFF"/>
<path d="M30.4464 62.4866C30.3887 64.5949 28.3439 67.1076 28.3439 67.1076C28.3439 67.1076 26.4435 64.4852 26.5013 62.3769C26.5591 60.2686 27.4717 59.4426 28.5576 59.4888C29.6435 59.535 30.5042 60.3783 30.4464 62.4866Z" fill="#C9DEFF"/>
<path d="M37.6084 68.4303C36.8229 70.5791 33.8539 72.4736 33.8539 72.4736C33.8539 72.4736 32.8084 69.1235 33.5998 66.9805C34.3911 64.8375 35.5983 64.3004 36.7074 64.7047C37.8164 65.109 38.394 66.2874 37.6084 68.4303Z" fill="#C9DEFF"/>
<path d="M42.4893 73.8195C41.7037 75.9625 38.7348 77.8628 38.7348 77.8628C38.7348 77.8628 37.6893 74.5126 38.4806 72.3697C39.272 70.2267 40.4792 69.6895 41.5882 70.0939C42.6972 70.4982 43.2749 71.6708 42.4893 73.8195Z" fill="#C9DEFF"/>
<path d="M47.3647 79.844C46.7351 82.039 43.899 84.13 43.899 84.13C43.899 84.13 42.634 80.8664 43.2636 78.6715C43.8932 76.4765 45.0542 75.8527 46.2094 76.1762C47.3647 76.4996 47.9943 77.6433 47.3647 79.844Z" fill="#C9DEFF"/>
<path d="M52.3787 86.2325C51.7491 88.4274 48.913 90.5184 48.913 90.5184C48.913 90.5184 47.6249 87.2549 48.2487 85.0599C48.8725 82.865 50.0509 82.2412 51.183 82.5646C52.3151 82.8881 53.0025 84.0318 52.3787 86.2325Z" fill="#C9DEFF"/>
<path d="M57.1843 93.1235C56.5605 95.3184 53.7186 97.4094 53.7186 97.4094C53.7186 97.4094 52.4305 94.1459 53.0544 91.9509C53.6782 89.756 54.8507 89.1321 55.9887 89.4556C57.1266 89.7791 57.7908 90.9227 57.1843 93.1235Z" fill="#C9DEFF"/>
<path d="M155.24 102.914C155.148 104.154 155.026 105.386 154.876 106.611C144.423 135.935 117.82 156.463 86.8039 159.139C86.0934 153.883 85.3367 144.982 86.6883 136.451C87.0128 134.351 87.4877 132.278 88.1093 130.247C92.6493 115.662 101.516 114.022 105.865 118.654C109.533 122.565 113.12 124.817 118.544 123.535C123.968 122.253 127.532 113.716 136.259 107.136C140.938 103.613 148.776 102.983 155.24 102.914Z" fill="url(#paint1_linear_3315_4220)"/>
<path d="M99.2286 157.066C95.1486 158.086 90.994 158.779 86.804 159.139C84.4935 159.343 82.1619 159.446 79.8091 159.446C50.0594 159.452 22.7818 142.891 9.0625 116.494C11.7426 110.013 17.9405 114.871 22.8733 118.885C28.0719 123.113 29.8047 121.363 37.6834 115.801C45.5621 110.238 51.6849 113.265 56.1325 120.3C60.5802 127.336 61.7932 120.803 70.4343 121.294C78.9138 121.768 86.4112 135.925 86.6885 136.451L99.2286 157.066Z" fill="url(#paint2_linear_3315_4220)"/>
<path d="M92.6846 103.7L92.6211 106.131L91.2925 158.625C87.6896 159.14 84.0555 159.406 80.416 159.422V103.769H81.5077H85.938L92.6846 103.7Z" fill="#88BBF5"/>
<path d="M92.6846 103.7L92.6211 106.131L91.2925 158.625C87.6896 159.14 84.0555 159.406 80.416 159.422V103.769H81.5077H85.938L92.6846 103.7Z" fill="url(#paint3_linear_3315_4220)"/>
<path d="M61.291 41.2534H109.36C115.898 41.2519 122.168 43.8481 126.79 48.4707C131.413 53.0932 134.009 59.3631 134.007 65.9004V100.153C134.007 103.455 131.331 106.131 128.029 106.131H61.291V41.2534Z" fill="url(#paint4_linear_3315_4220)"/>
<path d="M61.291 41.2534H109.36C115.898 41.2519 122.168 43.8481 126.79 48.4707C131.413 53.0932 134.009 59.3631 134.007 65.9004V100.153C134.007 103.455 131.331 106.131 128.029 106.131H61.291V41.2534Z" fill="url(#paint5_linear_3315_4220)"/>
<path d="M85.9384 65.9004V106.131H36.6445V65.9004C36.6445 52.2882 47.6793 41.2534 61.2915 41.2534C74.9036 41.2534 85.9384 52.2882 85.9384 65.9004Z" fill="#D0E7FF"/>
<path d="M81.5074 67.304V106.131H41.0742V67.304C41.0742 56.1386 50.1255 47.0874 61.2908 47.0874C72.4561 47.0874 81.5074 56.1386 81.5074 67.304Z" fill="#669CE9"/>
<path d="M81.5074 67.304V106.131H41.0742V67.304C41.0742 56.1386 50.1255 47.0874 61.2908 47.0874C72.4561 47.0874 81.5074 56.1386 81.5074 67.304Z" fill="url(#paint6_linear_3315_4220)"/>
<path d="M101.528 28.5227C101.528 28.5227 98.8014 28.5227 98.8303 32.3292V71.2953C98.8303 71.2953 98.1372 76.5978 104.41 77.6838L101.747 50.2527L101.528 28.5227Z" fill="#2A60B7"/>
<path d="M118.544 35.0787C118.544 36.712 117.22 38.0361 115.587 38.0361H109.533V73.2245C109.533 75.7128 107.516 77.73 105.028 77.73C102.54 77.73 100.522 75.7128 100.522 73.2245V29.8108C100.522 29.0994 101.099 28.5227 101.811 28.5227L115.673 31.4859C117.354 31.8624 118.548 33.3562 118.544 35.0787Z" fill="#508FEA"/>
<path d="M81.5078 99.2404V106.068L67.1945 118.891C57.4732 127.497 41.0804 131.558 29.6494 126.747C23.2956 124.066 22.1403 117.88 30.0421 109.996L41.3692 101.643L81.5078 99.2404Z" fill="url(#paint7_linear_3315_4220)"/>
<path d="M81.5077 98.9459V103.105L66.8709 116.222C57.2536 124.771 41.4153 128.404 29.3258 124.817C23.2781 123.033 22.7005 117.603 30.0362 109.984C30.198 109.817 30.3597 109.643 30.533 109.476L41.0456 98.9574L81.5077 98.9459Z" fill="url(#paint8_linear_3315_4220)"/>
<path opacity="0.4" d="M81.5077 98.9459V103.105L66.8709 116.222C57.2536 124.771 41.4153 128.404 29.3258 124.817C23.2781 123.033 22.7005 117.603 30.0362 109.984C30.198 109.817 30.3597 109.643 30.533 109.476L41.0456 98.9574L81.5077 98.9459Z" fill="url(#paint9_linear_3315_4220)"/>
<path d="M81.5076 67.304V95.717C81.4514 95.7717 81.3895 95.8202 81.3227 95.8614C80.6849 96.3149 79.9157 96.5463 79.1336 96.5199H79.0296H78.8043H78.7581L55.8614 93.4816H55.7285L32.7856 90.4375H32.7394C31.8726 90.32 31.0792 89.8884 30.5097 89.2245C29.9547 88.5909 29.6981 87.7496 29.8051 86.9141L30.2845 83.4022L33.7502 57.7502C33.7614 57.6548 33.7788 57.5603 33.8022 57.4671C33.8022 57.3747 33.8484 57.2881 33.8773 57.2014L33.9639 56.9762C34.1986 56.4686 34.5658 56.0336 35.0267 55.717C35.6237 55.3032 36.3336 55.0834 37.0599 55.0873H37.2736H37.4585H37.5451L60.5285 58.1314L80.3928 60.7653C81.1156 62.8775 81.4845 65.0946 81.4845 67.3271L81.5076 67.304Z" fill="#FFE100"/>
<path d="M60.5516 58.1083L58.8707 70.5155L58.1198 76.0549L57.4671 80.826L56.6527 86.8448H56.6065L37.8108 84.3321L30.3018 83.3329L33.7675 57.6809C33.7787 57.5855 33.796 57.491 33.8194 57.3978C33.8194 57.3054 33.8657 57.2188 33.8945 57.1321L33.9812 56.9069C34.2039 56.3905 34.5684 55.9479 35.0324 55.6303L35.1884 55.5264L35.2346 55.509C35.3097 55.4628 35.3906 55.4224 35.4714 55.3819L35.5581 55.3415C35.5822 55.3242 35.6098 55.3123 35.6389 55.3069L35.8411 55.226C36.0289 55.1591 36.2221 55.1088 36.4187 55.0758H36.6324C36.7632 55.067 36.8944 55.067 37.0252 55.0758C37.0906 55.0702 37.1563 55.0702 37.2216 55.0758H37.2736H37.4584H37.5451L60.5516 58.1083Z" fill="url(#paint10_linear_3315_4220)"/>
<path d="M81.5072 67.304V90.143L75.552 89.3516L56.7448 86.8563H56.6523L57.4668 80.8375L58.1195 76.0664L58.8704 70.5329L60.5513 58.1256L80.4155 60.7596C81.1384 62.8717 81.5072 65.0889 81.5072 67.3213V67.304Z" fill="url(#paint11_linear_3315_4220)"/>
<path d="M81.3341 95.8845H81.3052C80.67 96.3277 79.9072 96.5509 79.1333 96.5199H79.0294H78.8041H78.7579L55.8611 93.4816H55.7283L32.7853 90.4375H32.7391C31.8667 90.3308 31.0654 89.9024 30.4922 89.2361L37.8106 84.3321L52.124 74.8881L58.8301 70.4693L58.8705 70.5097L58.9456 70.5964L64.1442 76.465L75.477 89.2592L75.5463 89.3401L81.3225 95.8498L81.3341 95.8845Z" fill="#ECCF00"/>
<path opacity="0.8" d="M58.8298 70.4693L57.4205 80.8664L56.606 86.839L55.7107 93.4296L32.7678 90.3856H32.7215C31.8491 90.2788 31.0478 89.8504 30.4746 89.1841L37.8103 84.3321L52.1237 74.8881L58.8298 70.4693Z" fill="url(#paint12_linear_3315_4220)"/>
<path opacity="0.8" d="M81.3283 95.9191C80.677 96.3506 79.901 96.5537 79.1218 96.4967H79.0178H78.7926H78.7464L55.8496 93.4585L56.7449 86.8679L57.5709 80.7682L58.9456 70.6195V70.504L64.1846 76.4592L75.4655 89.2823L75.5348 89.3632L81.2763 95.8902L81.3283 95.9191Z" fill="url(#paint13_linear_3315_4220)"/>
<path d="M81.4032 65.2708L64.2018 76.465L64.1498 76.4939L57.5708 80.774L57.4668 80.8433H57.4206L52.1238 74.8881L35.0264 55.6592L35.1823 55.5552L35.2343 55.509C35.3094 55.4628 35.3903 55.4224 35.4711 55.3819L35.5578 55.3415C35.5819 55.3242 35.6095 55.3123 35.6386 55.3069L35.8408 55.226C36.0286 55.1591 36.2218 55.1088 36.4184 55.0758H36.6321C36.7629 55.067 36.8941 55.067 37.0249 55.0758H37.2733H37.4581H37.5448L60.5282 58.1199L80.3924 60.7538C80.9041 62.2149 81.2434 63.7309 81.4032 65.2708Z" fill="#FFE100"/>
<path opacity="0.8" d="M81.5076 67.304V95.717C81.4514 95.7717 81.3895 95.8202 81.3227 95.8614C80.6849 96.3149 79.9157 96.5463 79.1336 96.5199H79.0296H78.8043H78.7581L55.8614 93.4816H55.7285L32.7856 90.4375H32.7394C31.8726 90.32 31.0792 89.8884 30.5097 89.2245C29.9547 88.5909 29.6981 87.7496 29.8051 86.9141L30.2845 83.4022L33.7502 57.7502C33.7614 57.6548 33.7788 57.5603 33.8022 57.4671C33.8022 57.3747 33.8484 57.2881 33.8773 57.2014L33.9639 56.9762C34.1986 56.4686 34.5658 56.0336 35.0267 55.717C35.6237 55.3032 36.3336 55.0834 37.0599 55.0873H37.2736H37.4585H37.5451L60.5285 58.1314L80.3928 60.7653C81.1156 62.8775 81.4845 65.0946 81.4845 67.3271L81.5076 67.304Z" fill="url(#paint14_linear_3315_4220)"/>
<defs>
<linearGradient id="paint0_linear_3315_4220" x1="42.4554" y1="8.62382" x2="115.876" y2="148.396" gradientUnits="userSpaceOnUse">
<stop stop-color="#EDF7FF"/>
<stop offset="1" stop-color="#EAF7FF" stop-opacity="0.2"/>
</linearGradient>
<linearGradient id="paint1_linear_3315_4220" x1="85.0306" y1="131.426" x2="160.685" y2="130.144" gradientUnits="userSpaceOnUse">
<stop stop-color="#CDEAFF"/>
<stop offset="1" stop-color="#F4FAFF"/>
</linearGradient>
<linearGradient id="paint2_linear_3315_4220" x1="8.59463" y1="136.409" x2="105.21" y2="134.775" gradientUnits="userSpaceOnUse">
<stop stop-color="#CDEAFF"/>
<stop offset="1" stop-color="#F4FAFF"/>
</linearGradient>
<linearGradient id="paint3_linear_3315_4220" x1="86.5503" y1="100.453" x2="86.5503" y2="126.897" gradientUnits="userSpaceOnUse">
<stop stop-color="#133E8F" stop-opacity="0.4"/>
<stop offset="1" stop-color="#133E8F" stop-opacity="0"/>
</linearGradient>
<linearGradient id="paint4_linear_3315_4220" x1="61.291" y1="73.6924" x2="134.007" y2="73.6924" gradientUnits="userSpaceOnUse">
<stop stop-color="#C0DCFF"/>
<stop offset="1" stop-color="#D2E5FF"/>
</linearGradient>
<linearGradient id="paint5_linear_3315_4220" x1="97.652" y1="30.4173" x2="97.652" y2="97.5884" gradientUnits="userSpaceOnUse">
<stop stop-color="#93C2F8"/>
<stop offset="0.13" stop-color="#97C4F9"/>
<stop offset="0.26" stop-color="#A3CBFB"/>
<stop offset="0.39" stop-color="#B8D5FE"/>
<stop offset="0.43" stop-color="#BFD9FF"/>
<stop offset="0.53" stop-color="#B7D5FC"/>
<stop offset="0.72" stop-color="#AED0F9"/>
<stop offset="1" stop-color="#ABCFF8"/>
</linearGradient>
<linearGradient id="paint6_linear_3315_4220" x1="41.08" y1="76.6094" x2="81.5074" y2="76.6094" gradientUnits="userSpaceOnUse">
<stop stop-color="#5F99EE"/>
<stop offset="0.14" stop-color="#6CA5F1"/>
<stop offset="0.39" stop-color="#7DB5F4"/>
<stop offset="0.66" stop-color="#87BEF6"/>
<stop offset="1" stop-color="#8AC1F7"/>
</linearGradient>
<linearGradient id="paint7_linear_3315_4220" x1="24.5143" y1="114.022" x2="81.5078" y2="114.022" gradientUnits="userSpaceOnUse">
<stop stop-color="#80B8EC"/>
<stop offset="0.24" stop-color="#7DB4ED"/>
<stop offset="0.47" stop-color="#72A9F2"/>
<stop offset="0.68" stop-color="#6097F9"/>
<stop offset="1" stop-color="#AFD6FB"/>
</linearGradient>
<linearGradient id="paint8_linear_3315_4220" x1="24.6644" y1="112.566" x2="81.5077" y2="112.566" gradientUnits="userSpaceOnUse">
<stop stop-color="#A8CDF7"/>
<stop offset="1" stop-color="#BED8FF"/>
</linearGradient>
<linearGradient id="paint9_linear_3315_4220" x1="33.063" y1="117.081" x2="45.8617" y2="102.606" gradientUnits="userSpaceOnUse">
<stop stop-color="#4A8FD1" stop-opacity="0.4"/>
<stop offset="1" stop-color="#4A8FD1" stop-opacity="0"/>
</linearGradient>
<linearGradient id="paint10_linear_3315_4220" x1="49.481" y1="67.6159" x2="43.98" y2="72.5039" gradientUnits="userSpaceOnUse">
<stop stop-color="#E1BC00"/>
<stop offset="1" stop-color="#E1BC00" stop-opacity="0"/>
</linearGradient>
<linearGradient id="paint11_linear_3315_4220" x1="67.2157" y1="70.3942" x2="71.7746" y2="76.4727" gradientUnits="userSpaceOnUse">
<stop stop-color="#E1BC00"/>
<stop offset="1" stop-color="#E1BC00" stop-opacity="0"/>
</linearGradient>
<linearGradient id="paint12_linear_3315_4220" x1="44.0255" y1="79.9062" x2="45.7255" y2="82.5827" gradientUnits="userSpaceOnUse">
<stop stop-color="#E1BC00"/>
<stop offset="1" stop-color="#E1BC00" stop-opacity="0"/>
</linearGradient>
<linearGradient id="paint13_linear_3315_4220" x1="70.6936" y1="82.6397" x2="68.4853" y2="84.6109" gradientUnits="userSpaceOnUse">
<stop stop-color="#E1BC00"/>
<stop offset="1" stop-color="#E1BC00" stop-opacity="0"/>
</linearGradient>
<linearGradient id="paint14_linear_3315_4220" x1="84.3726" y1="76.8361" x2="67.2066" y2="75.7633" gradientUnits="userSpaceOnUse">
<stop stop-color="#E1BC00"/>
<stop offset="1" stop-color="#E1BC00" stop-opacity="0"/>
</linearGradient>
</defs>
</svg>
