<svg width="200" height="200" viewBox="0 0 200 200" fill="none" xmlns="http://www.w3.org/2000/svg">
<g clip-path="url(#clip0_3389_2693)">
<path d="M99.9997 199.913C154.989 199.913 199.567 155.336 199.567 100.346C199.567 45.357 154.989 0.779266 99.9997 0.779266C45.0103 0.779266 0.432617 45.357 0.432617 100.346C0.432617 155.336 45.0103 199.913 99.9997 199.913Z" fill="url(#paint0_linear_3389_2693)"/>
<path d="M116.753 67.5974L42.7059 87.4026C42.7059 87.4026 27.3379 91.1905 27.3379 98.4993V168.406C33.7214 175.221 41.0292 181.108 49.0478 185.895L116.753 167.821C125.238 165.548 132.121 156.667 132.121 147.98V79.2208C132.121 70.5339 125.253 65.368 116.753 67.5974Z" fill="url(#paint1_linear_3389_2693)"/>
<path d="M151.609 106.695H43.0666C43.0666 106.695 27.3379 106.933 27.3379 98.4991V168.405C64.6621 208.232 127.094 210.585 167.309 173.68V122.453C167.317 118.281 165.667 114.278 162.723 111.323C159.778 108.368 155.781 106.703 151.609 106.695Z" fill="#D0E7FF"/>
<path d="M163.399 176.032C163 176.032 162.677 175.709 162.677 175.31V173.016C162.677 172.602 163.013 172.266 163.428 172.266C163.842 172.266 164.178 172.602 164.178 173.016V175.282C164.187 175.488 164.107 175.689 163.958 175.832C163.809 175.976 163.605 176.049 163.399 176.032ZM163.399 169.25C163 169.25 162.677 168.927 162.677 168.528V166.27C162.677 165.856 163.013 165.52 163.428 165.52C163.842 165.52 164.178 165.856 164.178 166.27V168.528C164.183 168.733 164.101 168.929 163.952 169.07C163.803 169.21 163.602 169.281 163.399 169.264V169.25ZM163.399 162.475C163.201 162.475 163.012 162.394 162.875 162.251C162.739 162.108 162.667 161.915 162.677 161.717V159.459C162.677 159.045 163.013 158.709 163.428 158.709C163.842 158.709 164.178 159.045 164.178 159.459V161.717C164.189 161.925 164.11 162.128 163.96 162.273C163.811 162.418 163.606 162.492 163.399 162.475ZM163.399 155.693C163 155.693 162.677 155.37 162.677 154.971V152.67C162.677 152.255 163.013 151.919 163.428 151.919C163.842 151.919 164.178 152.255 164.178 152.67V154.935C164.189 155.143 164.11 155.346 163.96 155.491C163.811 155.636 163.606 155.71 163.399 155.693ZM163.399 148.911C163 148.911 162.677 148.588 162.677 148.189V145.931C162.677 145.516 163.013 145.181 163.428 145.181C163.842 145.181 164.178 145.516 164.178 145.931V148.189C164.179 148.391 164.095 148.584 163.947 148.721C163.799 148.858 163.6 148.927 163.399 148.911ZM163.399 142.136C163.201 142.136 163.012 142.055 162.875 141.912C162.739 141.769 162.667 141.576 162.677 141.378V139.12C162.677 138.705 163.013 138.37 163.428 138.37C163.842 138.37 164.178 138.705 164.178 139.12V141.378C164.189 141.586 164.11 141.789 163.96 141.934C163.811 142.079 163.606 142.153 163.399 142.136ZM163.399 135.354C163 135.354 162.677 135.031 162.677 134.632V132.367C162.677 131.952 163.013 131.616 163.428 131.616C163.842 131.616 164.178 131.952 164.178 132.367V134.632C164.179 134.834 164.095 135.027 163.947 135.164C163.799 135.301 163.6 135.37 163.399 135.354ZM163.399 128.572C163 128.572 162.677 128.249 162.677 127.85V125.599C162.665 125.4 162.736 125.205 162.873 125.061C163.009 124.916 163.2 124.834 163.399 124.834C163.803 124.837 164.137 125.152 164.164 125.556V127.828C164.17 128.031 164.091 128.227 163.945 128.369C163.8 128.51 163.601 128.584 163.399 128.572ZM162.937 121.826C162.584 121.831 162.279 121.581 162.215 121.234C162.065 120.538 161.86 119.855 161.602 119.192C161.449 118.806 161.638 118.368 162.024 118.214C162.411 118.061 162.848 118.25 163.002 118.636C163.289 119.378 163.518 120.14 163.687 120.916C163.739 121.112 163.706 121.321 163.596 121.491C163.486 121.661 163.31 121.777 163.11 121.811C163.053 121.824 162.995 121.829 162.937 121.826ZM159.82 115.931C159.623 115.936 159.433 115.86 159.293 115.722C158.79 115.241 158.234 114.819 157.634 114.466C157.277 114.251 157.163 113.788 157.378 113.431C157.593 113.074 158.057 112.96 158.413 113.175C159.106 113.584 159.752 114.068 160.34 114.618C160.607 114.812 160.708 115.163 160.585 115.469C160.462 115.776 160.147 115.96 159.82 115.916V115.931ZM153.824 112.987C153.772 112.994 153.718 112.994 153.666 112.987C152.951 112.833 152.228 112.715 151.501 112.634C151.3 112.618 151.114 112.519 150.989 112.36C150.864 112.2 150.812 111.996 150.845 111.797C150.901 111.39 151.265 111.098 151.674 111.133C152.497 111.234 153.269 111.357 153.983 111.515C154.396 111.561 154.693 111.933 154.647 112.345C154.601 112.757 154.23 113.055 153.817 113.009L153.824 112.987ZM147.086 112.432H144.827C144.411 112.432 144.073 112.094 144.073 111.678C144.073 111.261 144.411 110.924 144.827 110.924H147.086C147.502 110.924 147.84 111.261 147.84 111.678C147.84 112.094 147.502 112.432 147.086 112.432ZM140.303 112.432H138.045C137.629 112.432 137.291 112.094 137.291 111.678C137.291 111.261 137.629 110.924 138.045 110.924H140.303C140.72 110.924 141.057 111.261 141.057 111.678C141.057 112.094 140.72 112.432 140.303 112.432ZM133.529 112.432H131.27C130.854 112.432 130.516 112.094 130.516 111.678C130.516 111.261 130.854 110.924 131.27 110.924H133.529C133.945 110.924 134.283 111.261 134.283 111.678C134.283 112.094 133.945 112.432 133.529 112.432ZM126.746 112.432H124.488C124.072 112.432 123.734 112.094 123.734 111.678C123.734 111.261 124.072 110.924 124.488 110.924H126.746C127.163 110.924 127.5 111.261 127.5 111.678C127.5 112.094 127.163 112.432 126.746 112.432ZM119.972 112.432H117.706C117.29 112.432 116.952 112.094 116.952 111.678C116.952 111.261 117.29 110.924 117.706 110.924H119.972C120.388 110.924 120.726 111.261 120.726 111.678C120.726 112.094 120.388 112.432 119.972 112.432ZM113.189 112.432H110.931C110.515 112.432 110.177 112.094 110.177 111.678C110.177 111.261 110.515 110.924 110.931 110.924H113.189C113.606 110.924 113.943 111.261 113.943 111.678C113.943 112.094 113.606 112.432 113.189 112.432ZM106.407 112.432H104.149C103.733 112.432 103.395 112.094 103.395 111.678C103.395 111.261 103.733 110.924 104.149 110.924H106.407C106.824 110.924 107.161 111.261 107.161 111.678C107.161 112.094 106.824 112.432 106.407 112.432ZM99.6325 112.432H97.367C96.9506 112.432 96.613 112.094 96.613 111.678C96.613 111.261 96.9506 110.924 97.367 110.924H99.6325C100.049 110.924 100.386 111.261 100.386 111.678C100.386 112.094 100.049 112.432 99.6325 112.432ZM92.8504 112.432H90.6209C90.2045 112.432 89.867 112.094 89.867 111.678C89.867 111.261 90.2045 110.924 90.6209 110.924H92.8792C93.2956 110.924 93.6332 111.261 93.6332 111.678C93.6332 112.094 93.2956 112.432 92.8792 112.432H92.8504ZM86.0683 112.432H83.81C83.3936 112.432 83.056 112.094 83.056 111.678C83.056 111.261 83.3936 110.924 83.81 110.924H86.0683C86.4847 110.924 86.8222 111.261 86.8222 111.678C86.8222 112.094 86.4847 112.432 86.0683 112.432ZM79.2934 112.432H77.0279C76.6115 112.432 76.2739 112.094 76.2739 111.678C76.2739 111.261 76.6115 110.924 77.0279 110.924H79.2934C79.7098 110.924 80.0473 111.261 80.0473 111.678C80.0473 112.094 79.7098 112.432 79.2934 112.432ZM72.5113 112.432H70.253C69.8366 112.432 69.499 112.094 69.499 111.678C69.499 111.261 69.8366 110.924 70.253 110.924H72.5113C72.9277 110.924 73.2652 111.261 73.2652 111.678C73.2652 112.094 72.9277 112.432 72.5113 112.432ZM65.7292 112.432H63.4709C63.0545 112.432 62.7169 112.094 62.7169 111.678C62.7169 111.261 63.0545 110.924 63.4709 110.924H65.7292C66.1456 110.924 66.4831 111.261 66.4831 111.678C66.4831 112.094 66.1456 112.432 65.7292 112.432ZM58.9543 112.432H56.7104C56.294 112.432 55.9564 112.094 55.9564 111.678C55.9564 111.261 56.294 110.924 56.7104 110.924H58.9759C59.3923 110.924 59.7299 111.261 59.7299 111.678C59.7299 112.094 59.3923 112.432 58.9759 112.432H58.9543ZM52.1722 112.432H49.9139C49.4975 112.432 49.1599 112.094 49.1599 111.678C49.1599 111.261 49.4975 110.924 49.9139 110.924H52.1722C52.5886 110.924 52.9261 111.261 52.9261 111.678C52.9261 112.094 52.5886 112.432 52.1722 112.432ZM45.3901 112.432H43.1318C42.7154 112.432 42.3778 112.094 42.3778 111.678C42.3778 111.261 42.7154 110.924 43.1318 110.924H45.3901C45.8065 110.924 46.144 111.261 46.144 111.678C46.144 112.094 45.8065 112.432 45.3901 112.432ZM38.6152 112.201H38.5358C37.8143 112.121 37.0423 112.013 36.2486 111.876C35.8382 111.802 35.5653 111.41 35.639 110.999C35.7127 110.589 36.1052 110.316 36.5156 110.39C37.2732 110.527 38.0163 110.628 38.6801 110.707C38.9482 110.723 39.1876 110.88 39.3083 111.12C39.4289 111.36 39.4124 111.646 39.265 111.87C39.1176 112.095 38.8616 112.223 38.5935 112.208L38.6152 112.201Z" fill="#BFD9FF"/>
<path d="M31.9554 110.613C31.8541 110.612 31.7539 110.593 31.6596 110.556C31.2916 110.397 30.9381 110.231 30.5846 110.051C30.216 109.851 30.0787 109.391 30.2779 109.022C30.4772 108.654 30.9375 108.516 31.3061 108.716C31.6163 108.874 31.9338 109.026 32.2657 109.163C32.6641 109.243 32.9226 109.63 32.8429 110.029C32.7632 110.427 32.3755 110.686 31.9771 110.606L31.9554 110.613Z" fill="#BFD9FF"/>
<path d="M172.663 168.406V147.417C172.659 145.96 171.479 144.78 170.022 144.776H139.474C134.193 144.792 129.915 149.07 129.899 154.351V164.971C129.915 170.252 134.193 174.53 139.474 174.545H166.378C168.562 172.593 170.657 170.546 172.663 168.406Z" fill="#89BCF6"/>
<path d="M145.411 168.882C150.452 168.882 154.538 164.795 154.538 159.755C154.538 154.714 150.452 150.628 145.411 150.628C140.37 150.628 136.284 154.714 136.284 159.755C136.284 164.795 140.37 168.882 145.411 168.882Z" fill="#D0E7FF"/>
<path d="M145.412 165.527C148.599 165.527 151.184 162.943 151.184 159.755C151.184 156.567 148.599 153.983 145.412 153.983C142.224 153.983 139.64 156.567 139.64 159.755C139.64 162.943 142.224 165.527 145.412 165.527Z" fill="white"/>
<path d="M84.0401 91.5007C83.8364 91.5365 83.6294 91.4592 83.499 91.2987C78.0219 84.7818 76.0401 76.0158 78.1812 67.7766C80.3224 59.5374 86.3212 52.8454 94.2782 49.8196C96.3313 49.0181 98.4938 48.5316 100.692 48.3766C104.817 42.9007 111.161 39.5407 118.008 39.2059C118.163 39.2005 118.314 39.2565 118.428 39.3621C118.542 39.4676 118.609 39.6141 118.614 39.7691C118.622 39.9234 118.568 40.0744 118.463 40.1884C118.359 40.3023 118.213 40.3695 118.059 40.3751C111.893 40.6846 106.143 43.5791 102.222 48.3477C103.993 48.3696 105.748 48.6942 107.41 49.3073C109.92 50.2453 112.424 52.4964 111.998 55.2308C111.594 57.7994 108.889 59.1486 106.688 59.5166C103.91 59.9783 100.483 59.2785 99.0618 56.6306C97.7198 54.1414 98.8381 51.3564 99.8843 49.5959C98.1042 49.8166 96.3604 50.2677 94.6967 50.9379C87.0916 53.8261 81.357 60.2198 79.3102 68.0932C77.2634 75.9665 79.158 84.3436 84.3936 90.57C84.4949 90.6879 84.5443 90.8416 84.5307 90.9964C84.5171 91.1512 84.4417 91.294 84.3215 91.3925C84.24 91.4548 84.1424 91.4924 84.0401 91.5007ZM101.313 49.5454C100.339 50.9884 98.8092 53.7878 100.072 56.1255C101.212 58.2395 104.105 58.7878 106.472 58.391C108.434 58.0591 110.534 56.948 110.801 55.0793C111.125 52.9942 109.033 51.2121 106.955 50.4329C105.149 49.7758 103.233 49.4744 101.313 49.5454Z" fill="#D0E7FF"/>
<path d="M134.006 36.4022C135.389 35.0756 134.357 31.755 131.701 28.9853C129.046 26.2157 125.771 25.0459 124.388 26.3725C123.004 27.6991 124.036 31.0198 126.692 33.7894C129.348 36.559 132.622 37.7288 134.006 36.4022Z" fill="#BFD9FF"/>
<path d="M138.945 30.104C139.413 26.2954 138.251 23.0183 136.348 22.7844C134.446 22.5504 132.524 25.4483 132.056 29.2569C131.588 33.0656 132.75 36.3427 134.652 36.5766C136.555 36.8105 138.477 33.9126 138.945 30.104Z" fill="#D0E7FF"/>
<path d="M134.436 47.1641C136.156 43.7341 136.162 40.257 134.449 39.3976C132.736 38.5382 129.952 40.622 128.232 44.0519C126.511 47.4819 126.505 50.9591 128.218 51.8185C129.931 52.6779 132.715 50.594 134.436 47.1641Z" fill="#BFD9FF"/>
<path d="M140.718 51.696C142.467 50.9109 142.61 47.4366 141.038 43.936C139.466 40.4354 136.775 38.234 135.026 39.0191C133.278 39.8041 133.135 43.2784 134.706 46.779C136.278 50.2796 138.97 52.481 140.718 51.696Z" fill="#D0E7FF"/>
<path d="M131.008 42.5083C135.023 41.9025 138.016 39.6738 137.693 37.5304C137.369 35.3869 133.852 34.1404 129.837 34.7462C125.822 35.352 122.83 37.5806 123.153 39.7241C123.476 41.8675 126.993 43.114 131.008 42.5083Z" fill="#D0E7FF"/>
<path d="M133.614 42.6839C132.845 41.3324 132.283 39.8731 131.947 38.3549C131.818 36.8204 131.926 35.2753 132.265 33.7733L134.17 33.4847C133.773 34.9778 133.665 36.5328 133.852 38.0663C134.135 39.5987 134.698 41.0661 135.512 42.3953L133.614 42.6839Z" fill="#89BCF6"/>
<path d="M129.769 43.2611C129 41.9096 128.438 40.4503 128.102 38.9321C127.969 37.4001 128.076 35.8567 128.42 34.3578L130.317 34.0692C129.92 35.5621 129.813 37.1172 130 38.6507C130.284 40.184 130.849 41.6517 131.667 42.9797L129.769 43.2611Z" fill="#89BCF6"/>
<path d="M125.916 43.8455C125.147 42.494 124.585 41.0347 124.249 39.5165C124.12 37.9821 124.227 36.4369 124.567 34.935L126.471 34.6464C126.075 36.1394 125.967 37.6944 126.154 39.2279C126.437 40.7604 127 42.2277 127.813 43.5569L125.916 43.8455Z" fill="#89BCF6"/>
<path d="M139.452 41.2987C141.683 41.2987 143.492 39.4898 143.492 37.2583C143.492 35.0269 141.683 33.2179 139.452 33.2179C137.22 33.2179 135.411 35.0269 135.411 37.2583C135.411 39.4898 137.22 41.2987 139.452 41.2987Z" fill="#89BCF6"/>
<path d="M141.58 35.3248C141.529 35.0471 141.645 34.7652 141.876 34.6033L143.925 33.0954C144.148 32.9355 144.439 32.9068 144.689 33.02C144.939 33.1332 145.11 33.3711 145.137 33.6441C145.164 33.9171 145.043 34.1837 144.82 34.3436L142.771 35.7866C142.613 35.9141 142.409 35.9696 142.209 35.9394C142.009 35.9092 141.83 35.7961 141.717 35.6278C141.649 35.5389 141.602 35.4351 141.58 35.3248Z" fill="#89BCF6"/>
<path d="M141.992 38.0304C141.961 37.9121 141.961 37.7879 141.992 37.6696C142.05 37.4757 142.187 37.3152 142.37 37.2273C142.552 37.1395 142.763 37.1324 142.951 37.2079L145.354 38.0448C145.752 38.1823 145.964 38.6168 145.826 39.0152C145.689 39.4137 145.254 39.6253 144.856 39.4878L142.453 38.6509C142.192 38.551 142.012 38.3092 141.992 38.0304Z" fill="#89BCF6"/>
</g>
<defs>
<linearGradient id="paint0_linear_3389_2693" x1="134.552" y1="174.221" x2="52.2003" y2="-1.83978" gradientUnits="userSpaceOnUse">
<stop stop-color="#EEF8FF"/>
<stop offset="1" stop-color="#EBF8FF" stop-opacity="0.2"/>
</linearGradient>
<linearGradient id="paint1_linear_3389_2693" x1="27.3379" y1="126.479" x2="132.121" y2="126.479" gradientUnits="userSpaceOnUse">
<stop stop-color="#5F9AEF"/>
<stop offset="0.14" stop-color="#6DA6F2"/>
<stop offset="0.39" stop-color="#7EB6F5"/>
<stop offset="0.67" stop-color="#88BFF7"/>
<stop offset="1" stop-color="#8BC2F8"/>
</linearGradient>
<clipPath id="clip0_3389_2693">
<rect width="200" height="200" fill="white"/>
</clipPath>
</defs>
</svg>
