<svg width="280" height="280" viewBox="0 0 280 280" fill="none" xmlns="http://www.w3.org/2000/svg">
<path d="M67.0005 204.63C43.9205 192.25 23.4005 175.5 14.7305 162L15.1605 161.73C23.7805 175.21 44.2305 191.89 67.2505 204.23L67.0005 204.63Z" fill="#CADFFF"/>
<path d="M10.7798 159.37C12.0698 161.28 15.4198 162.37 15.4198 162.37C15.4198 162.37 15.6398 158.83 14.3498 156.92C13.0598 155.01 11.7498 154.78 10.7598 155.45C9.76983 156.12 9.49983 157.46 10.7798 159.37Z" fill="#CADFFF"/>
<path d="M19.1497 164.79C19.0897 167.17 21.2397 170.12 21.2397 170.12C21.2397 170.12 23.5297 167.28 23.5897 164.9C23.6497 162.52 22.6797 161.55 21.4497 161.52C20.2197 161.49 19.2097 162.42 19.1497 164.79Z" fill="#CADFFF"/>
<path d="M26.0002 171.46C25.9402 174 28.2402 177.16 28.2402 177.16C28.2402 177.16 30.6902 174.16 30.7602 171.58C30.8302 169 29.7602 167.98 28.4702 167.95C27.1802 167.92 26.0002 168.91 26.0002 171.46Z" fill="#CADFFF"/>
<path d="M32.7505 176.49C32.3705 178.89 34.1505 182.17 34.1505 182.17C34.1505 182.17 36.8605 179.6 37.2405 177.17C37.6205 174.74 36.7705 173.64 35.5305 173.44C34.2905 173.24 33.1305 174.08 32.7505 176.49Z" fill="#CADFFF"/>
<path d="M38.5903 182.62C38.7703 185.05 41.2603 187.84 41.2603 187.84C41.2603 187.84 43.3103 184.71 43.1303 182.28C42.9503 179.85 41.8603 178.96 40.6103 179.05C39.3603 179.14 38.4103 180.2 38.5903 182.62Z" fill="#CADFFF"/>
<path d="M45.35 188.58C45.94 190.94 48.88 193.25 48.88 193.25C48.88 193.25 50.35 189.82 49.75 187.46C49.15 185.1 47.93 184.41 46.75 184.72C45.57 185.03 44.75 186.22 45.35 188.58Z" fill="#CADFFF"/>
<path d="M53.1004 193.65C53.7004 196 56.6304 198.32 56.6304 198.32C56.6304 198.32 58.1104 194.89 57.5104 192.53C56.9104 190.17 55.6804 189.47 54.5104 189.78C53.3404 190.09 52.5004 191.29 53.1004 193.65Z" fill="#CADFFF"/>
<path d="M61.0003 198.21C61.6003 200.57 64.5303 202.88 64.5303 202.88C64.5303 202.88 66.0103 199.45 65.4103 197.09C64.8103 194.73 63.5903 194.04 62.4103 194.35C61.2303 194.66 60.4403 195.85 61.0003 198.21Z" fill="#CADFFF"/>
<path d="M13.5003 169.5C15.9603 169.57 19.0303 167.34 19.0303 167.34C19.0303 167.34 16.0303 164.95 13.6103 164.89C11.1903 164.83 10.1303 165.89 10.1003 167.11C10.0703 168.33 11.0003 169.44 13.5003 169.5Z" fill="#CADFFF"/>
<path d="M21.0896 177.36C23.3396 177.18 25.9296 174.85 25.9296 174.85C25.9296 174.85 22.9996 173 20.7496 173.14C18.4996 173.28 17.6596 174.34 17.7496 175.5C17.8396 176.66 18.8296 177.54 21.0896 177.36Z" fill="#CADFFF"/>
<path d="M27.8503 184.71C30.1103 183.71 31.9603 180.46 31.9603 180.46C31.9603 180.46 28.3103 179.53 26.0503 180.46C23.7903 181.39 23.2903 182.75 23.7903 183.92C24.2903 185.09 25.6003 185.67 27.8503 184.71Z" fill="#CADFFF"/>
<path d="M33.8896 189.64C36.1496 188.64 37.9996 185.4 37.9996 185.4C37.9996 185.4 34.3496 184.46 32.0996 185.4C29.8496 186.34 29.3396 187.7 29.8296 188.86C30.3196 190.02 31.6396 190.6 33.8896 189.64Z" fill="#CADFFF"/>
<path d="M40.6202 194.54C42.9402 193.75 45.0302 190.61 45.0302 190.61C45.0302 190.61 41.4602 189.41 39.1402 190.2C36.8202 190.99 36.2202 192.28 36.6302 193.48C37.0402 194.68 38.3002 195.33 40.6202 194.54Z" fill="#CADFFF"/>
<path d="M47.7403 199.55C50.0603 198.76 52.1503 195.63 52.1503 195.63C52.1503 195.63 48.5803 194.42 46.2603 195.21C43.9403 196 43.3403 197.3 43.7503 198.5C44.1603 199.7 45.4203 200.35 47.7403 199.55Z" fill="#CADFFF"/>
<path d="M75.8001 193.69C75.8001 193.69 77.3801 180.76 72.3201 176.12C67.2601 171.48 61.9301 175.99 62.7401 169.44C63.5501 162.89 63.7401 156.93 56.1001 156.39C48.4601 155.85 46.5201 156.04 45.4601 150.84C44.4001 145.64 42.9401 139.15 37.3801 142.93C31.8201 146.71 31.2801 160.16 33.9001 168.57C36.5201 176.98 43.6401 181.77 44.0501 186.18C44.4601 190.59 44.2701 191.77 39.6201 193.7C34.9701 195.63 35.8101 203.75 46.7701 208.92C57.7301 214.09 73.0801 213 73.0801 213L75.8001 193.69Z" fill="url(#paint0_linear_3157_6813)"/>
<path d="M74.0604 203.74C73.9704 203.74 65.5504 199.6 55.0604 188.89C55.0604 188.89 55.0604 188.89 55.0604 188.81C53.5804 183.81 55.2704 169.06 55.2904 168.91C55.2976 168.769 55.1991 168.645 55.0604 168.62C54.9202 168.608 54.7961 168.71 54.7804 168.85C54.7104 169.43 53.2004 182.6 54.3904 188.21L54.2404 188.06C43.3604 176.74 40.0004 156.4 40.0004 156.2C39.9906 156.133 39.9543 156.073 39.8997 156.034C39.8451 155.994 39.7768 155.978 39.7104 155.99C39.5703 156.011 39.4725 156.14 39.4904 156.28C39.4904 156.48 42.8904 176.98 53.8804 188.42C56.447 191.093 59.1577 193.623 62.0004 196C57.8404 198.79 51.3004 196.62 51.2304 196.6C51.0978 196.556 50.9546 196.627 50.9104 196.76C50.8662 196.893 50.9378 197.036 51.0704 197.08C51.9459 197.362 52.8419 197.576 53.7504 197.72C56.1704 198.11 59.7504 198.23 62.4204 196.35C65.933 199.355 69.7583 201.973 73.8304 204.16H73.9004C74.0117 204.18 74.1224 204.122 74.1704 204.02C74.2003 203.913 74.1554 203.798 74.0604 203.74Z" fill="#CADFFF"/>
<path d="M191.29 152.92C191.29 152.92 199.99 149.07 202.22 145.21C205.53 139.48 206.74 138.6 210.76 136.61C214.78 134.62 215.76 127.69 210.38 126.61C205 125.53 208.91 118.2 210.88 113.23C212.85 108.26 208.2 97 203.31 101.13C198.42 105.26 201.84 108.66 197.57 111.27C193.3 113.88 189.71 115.12 190.32 122.18C190.93 129.24 188.55 144.28 188.55 144.28L191.29 152.92Z" fill="url(#paint1_linear_3157_6813)"/>
<path d="M210 131.26C206.729 133.153 203.188 134.536 199.5 135.36C202.259 126.378 204.292 117.188 205.58 107.88C205.598 107.74 205.5 107.611 205.36 107.59C205.221 107.577 205.095 107.673 205.07 107.81C205.07 108.04 202.63 126.4 197.41 139.69C194.471 136.012 192.63 131.578 192.1 126.9C192.089 126.76 191.97 126.654 191.83 126.66C191.762 126.663 191.697 126.693 191.652 126.744C191.607 126.795 191.584 126.862 191.59 126.93C192.137 131.813 194.081 136.435 197.19 140.24C196.268 142.599 195.143 144.874 193.83 147.04C193.759 147.159 193.794 147.313 193.91 147.39C193.972 147.409 194.038 147.409 194.1 147.39C194.169 147.379 194.231 147.339 194.27 147.28C196.362 143.688 198.039 139.87 199.27 135.9C203.139 135.081 206.852 133.65 210.27 131.66C210.364 131.619 210.425 131.525 210.425 131.422C210.425 131.319 210.364 131.226 210.27 131.184C210.176 131.143 210.066 131.161 209.99 131.23L210 131.26Z" fill="#CADFFF"/>
<path d="M194.82 73.67L63.3398 119.55V222.24C63.3398 226.5 65.5498 230.59 70.0798 233.77C80.7898 241.3 100.55 241.01 114 233.13L183 194.23C191.38 189.32 195.41 182.58 194.66 176.37H194.76L194.82 73.67Z" fill="url(#paint2_linear_3157_6813)"/>
<path d="M183.06 91.14L114 130C100.55 137.88 80.7904 138.17 70.0804 130.64C59.3704 123.12 61.6204 110.51 75.0804 102.64L144.08 63.73C157.53 55.85 177.29 55.57 188 63.09C198.76 70.66 196.51 83.26 183.06 91.14Z" fill="#80C4FF"/>
<path d="M167.83 138.2L158.38 132.9C154.5 130.84 149.44 131.04 143.87 134.03C131.72 140.56 121.87 157.82 121.87 172.59C121.87 180.36 124.61 185.85 128.96 188.4L138.34 193.81L167.83 138.2Z" fill="url(#paint3_linear_3157_6813)"/>
<path d="M169.73 174.638C177.683 159.203 176.684 142.853 167.498 138.12C158.313 133.387 144.419 142.063 136.466 157.499C128.513 172.934 129.512 189.284 138.697 194.017C147.883 198.749 161.777 190.073 169.73 174.638Z" fill="#D0E7FF"/>
<path d="M158.93 159.16C158.93 155.24 156.32 153.47 153.09 155.16C149.86 156.85 147.26 161.47 147.26 165.39C147.26 168.17 148.58 169.87 150.5 169.99V177.72C150.5 179.45 151.67 180.24 153.09 179.48C154.647 178.485 155.615 176.787 155.68 174.94V167.21C157.654 164.978 158.801 162.136 158.93 159.16Z" fill="#2A60B7"/>
<path d="M117.27 107.71L80.6699 109.71V116.16C80.6817 118.452 81.7989 120.597 83.6699 121.92C89.1999 126.38 100.54 127.13 109.01 123.6C114.6 121.27 117.27 117.81 117.27 114.19V107.71Z" fill="url(#paint4_linear_3157_6813)"/>
<path d="M99.7461 118.57C109.847 117.817 117.696 112.645 117.276 107.016C116.857 101.387 108.329 97.434 98.2278 98.1864C88.1269 98.9388 80.2784 104.112 80.6976 109.74C81.1169 115.369 89.6452 119.322 99.7461 118.57Z" fill="#D0E7FF"/>
<path d="M179.42 71.78L145.71 73.61V79.55C145.713 81.6533 146.73 83.6261 148.44 84.85C153.53 88.95 163.97 89.64 171.77 86.39C176.91 84.25 179.38 81.06 179.38 77.73L179.42 71.78Z" fill="url(#paint5_linear_3157_6813)"/>
<path d="M163.268 81.7779C172.57 81.085 179.798 76.3219 179.412 71.1393C179.026 65.9566 171.172 62.317 161.87 63.0099C152.567 63.7028 145.339 68.4659 145.725 73.6485C146.111 78.8312 153.965 82.4708 163.268 81.7779Z" fill="#D0E7FF"/>
<path d="M169.35 33.9C169.35 9.72999 145.11 2.26999 129.77 7.19999C102.55 16 90.1901 38.64 90.1901 71.92V106.92C90.1801 106.966 90.1801 107.014 90.1901 107.06V107.19C90.2822 108.157 90.7893 109.036 91.5801 109.6C94.1701 111.69 99.5001 112.04 103.47 110.38C106.06 109.31 107.47 107.65 107.35 106.04V68.08C107.35 47.8 115.89 31.41 131.15 24.91C142.84 19.91 154.96 25.6 154.96 40.2V71.13C155.01 71.9558 155.433 72.714 156.11 73.19C158.28 74.94 162.73 75.19 166.05 73.85C168.26 72.93 169.39 71.49 169.26 70.12L169.35 33.9Z" fill="#BFD9FF"/>
<path d="M129.77 7.19996C102.55 16 90.1901 38.64 90.1901 71.92V106.92C90.1801 106.966 90.1801 107.014 90.1901 107.06V107.19C90.2822 108.157 90.7893 109.036 91.5801 109.6C94.1701 111.69 99.5001 112.04 103.47 110.38C106.06 109.31 107.47 107.65 107.35 106.04V68.08C107.35 47.8 115.89 31.41 131.15 24.91C142.87 19.93 145.11 2.26996 129.77 7.19996Z" fill="url(#paint6_linear_3157_6813)"/>
<path d="M169.35 33.9C169.35 9.73003 154.99 25.6 154.99 40.2V71.13C155.04 71.9559 155.464 72.714 156.14 73.19C158.31 74.94 162.76 75.19 166.08 73.85C168.29 72.93 169.42 71.49 169.29 70.12L169.35 33.9Z" fill="url(#paint7_linear_3157_6813)"/>
<path d="M118.15 258.65H68.8496V260.37C68.9731 261.107 69.474 261.726 70.1696 262L92.1096 273.61C93.8676 274.469 95.9304 274.435 97.6596 273.52L117.16 261.27C117.527 261.058 117.823 260.741 118.01 260.36H118.15V258.65Z" fill="#FFD215"/>
<path d="M92.1096 272L70.1696 260.41C68.5496 259.55 68.3996 258.12 69.8496 257.22L89.3496 245C91.082 244.094 93.1417 244.064 94.8996 244.92L116.84 256.52C118.46 257.38 118.6 258.81 117.16 259.72L97.6596 271.97C95.9207 272.867 93.858 272.878 92.1096 272Z" fill="#FFE63E"/>
<path d="M107.16 256.9L96.7996 224.25C96.3456 222.81 95.0098 221.83 93.4995 221.83C91.9893 221.83 90.6535 222.81 90.1995 224.25L79.8395 256.9C78.7095 260.51 85.9595 263.76 93.4995 263.76C101.04 263.76 108.3 260.51 107.16 256.9Z" fill="url(#paint8_linear_3157_6813)"/>
<path d="M107.16 256.9L105.84 252.74C106.76 255.97 100.26 258.85 93.4995 258.85C86.7395 258.85 80.2495 256 81.1695 252.73L79.8395 256.9C78.7095 260.51 85.9595 263.76 93.4995 263.76C101.04 263.76 108.3 260.51 107.16 256.9Z" fill="url(#paint9_linear_3157_6813)"/>
<path d="M104.25 247.77L103.01 243.77C103.73 246.31 98.8203 248.61 93.5003 248.61C88.1803 248.61 83.2603 246.37 83.9803 243.83L82.7503 247.75C81.8603 250.59 87.5703 253.14 93.5003 253.14C99.4303 253.14 105.15 250.61 104.25 247.77Z" fill="url(#paint10_linear_3157_6813)"/>
<path d="M101.54 239.24L100.47 235.72C101.02 237.62 97.4702 239.32 93.4702 239.32C89.4702 239.32 86.0002 237.62 86.5402 235.72L85.4302 239.24C84.7702 241.37 89.0302 243.24 93.4302 243.24C97.8302 243.24 102.22 241.37 101.54 239.24Z" fill="url(#paint11_linear_3157_6813)"/>
<path d="M99.0499 231.37L98.1899 228.55C98.5599 229.86 96.2499 231.04 93.4999 231.04C90.7499 231.04 88.4999 229.86 88.8399 228.55L87.9999 231.37C87.5399 232.84 90.4799 234.16 93.5399 234.16C96.5999 234.16 99.5099 232.84 99.0499 231.37Z" fill="url(#paint12_linear_3157_6813)"/>
<path d="M74.6504 84.36C74.6504 84.36 75.7704 86.74 75.2604 88.36C75.0704 88.97 75.8804 89.01 76.6004 89.03C77.3204 89.05 79.2904 89.03 79.4404 87.91C79.5104 87.32 77.2804 84.16 76.2904 83.62C75.3004 83.08 74.6504 84.36 74.6504 84.36Z" fill="#37475E"/>
<path d="M75.7498 84.79C75.7498 84.79 74.5898 84.47 74.6798 85.25C74.7698 86.03 75.3798 86.25 76.1098 86.32C76.8398 86.39 75.7498 84.79 75.7498 84.79Z" fill="#F6B2AD"/>
<path d="M60.4703 150.11C60.4703 150.11 57.0003 153 58.0003 153.86C59.0003 154.72 60.3203 154.96 62.1303 153.86C63.9403 152.76 65.5203 150.86 64.6503 149.96C63.7803 149.06 62.9103 148 60.4703 150.11Z" fill="#37475E"/>
<path d="M56 125.23C56 125.23 61.27 148.74 61.36 149.78C61.45 150.82 61.96 151.24 63.14 150.78C64.32 150.32 64.14 149.1 64.25 146.78C64.36 144.46 64.46 128.59 64.46 128.59L56 125.23Z" fill="#F6B2AD"/>
<path d="M69.8098 152.64C69.8098 152.64 66.9099 157.5 67.6899 158.21C69.0112 159.102 70.7835 158.907 71.8798 157.75C73.3298 156.34 75.2998 152.21 72.6998 151.88C70.0998 151.55 69.8098 152.64 69.8098 152.64Z" fill="#37475E"/>
<path d="M62.1504 130.1C62.1504 130.1 64.8804 137.87 66.5204 142.79C68.0804 147.44 70.1204 152.48 69.9904 153.47C69.8604 154.46 71.3004 154.52 72.1204 153.74C72.9404 152.96 73.3704 144.9 72.6104 139.86C72.133 136.677 71.3322 133.551 70.2204 130.53L62.1504 130.1Z" fill="#FEC6BD"/>
<path d="M71.8098 116.28C70.8472 117.17 69.6502 117.767 68.3598 118C66.0498 118.49 56.1098 120.68 55.7898 125.3C55.4898 129.66 69.8798 133.24 72.4098 133.11C74.9398 132.98 83.7098 131.46 88.3198 128.73C93.1098 125.91 88.9998 115.73 88.9998 115.73L71.8098 116.28Z" fill="#2A60B7"/>
<path d="M69.6202 130.39L52.2802 123.64C51.9902 123.52 51.9402 123.33 52.1902 123.2L64.3902 117C64.7123 116.878 65.068 116.878 65.3902 117L82.8402 124.32C83.1102 124.43 83.1102 124.63 82.8402 124.75L70.5202 130.37C70.2309 130.477 69.914 130.484 69.6202 130.39Z" fill="#37475E"/>
<path d="M69.3902 104C68.9912 105.908 68.3912 107.768 67.6002 109.55C66.7302 111 63.8902 117 63.8902 117C63.8902 117 62.4202 117.88 62.2502 118.91C62.0802 119.94 61.8002 120.62 62.9102 120.91C64.0202 121.2 65.5102 118.91 65.6802 117.73C65.8502 116.55 71.1702 110.93 71.8702 109.56C72.5702 108.19 74.0002 104.46 74.0002 104.46L69.3902 104Z" fill="#FEC6BD"/>
<path d="M75.58 91.61C75.58 91.61 73.08 92.3 70.51 97.09C69.4493 99.1949 68.5695 101.386 67.88 103.64C67.7446 104.034 67.9307 104.467 68.31 104.64C69.2 105.07 70.89 105.86 72.31 106.47L75.58 91.61Z" fill="#6DB3FA"/>
<path d="M80.0897 89.91C80.0897 89.91 77.7497 90.1 76.6997 91.24C75.6497 92.38 73.6997 100.08 73.6197 105.75C73.536 109.034 73.1375 112.302 72.4297 115.51C74.5366 116.743 76.8888 117.497 79.3197 117.72C82.7997 118.12 88.9997 115.72 88.9997 115.72C88.9997 115.72 89.4097 108.5 89.4597 105.6C89.5097 102.7 89.9297 95.81 87.2197 93.32C84.5097 90.83 83.9997 89.61 80.0897 89.91Z" fill="#6DB3FA"/>
<path d="M79.4204 90C77.9928 91.3661 77.0485 93.1598 76.7304 95.11C75.7493 99.3174 75.1172 103.599 74.8404 107.91C74.4304 113.99 74.2004 117.5 74.2004 117.5C73.214 117.14 72.287 116.635 71.4504 116C71.2606 112.98 71.2372 109.952 71.3804 106.93C71.5804 99.7 74.2104 92.83 74.9804 91.93C75.7504 91.03 79.4204 90 79.4204 90Z" fill="#FFE63E"/>
<path d="M84.7104 91.08C84.7104 91.08 83.7104 91.87 82.8904 94.76C82.0704 97.65 80.7504 106.54 80.3304 109.85C79.9104 113.16 79.1104 119.26 79.1104 119.26C79.1104 119.26 85.4903 119.9 89.7803 116.94C89.7803 116.94 90.7804 100.94 90.6504 99.35C90.5204 97.76 89.2803 94.27 84.7104 91.08Z" fill="#FFE63E"/>
<path d="M85.83 109.75C85.83 109.75 85.44 114.61 85.43 115.06C85.42 115.51 77.3 121.96 75.68 122.46C74.06 122.96 72 124 72.48 124.6C73.09 125.193 73.9096 125.52 74.76 125.51C75.6956 125.147 76.5878 124.681 77.42 124.12C78.13 123.66 78.21 122.93 78.61 122.61C79.01 122.29 86.1 119.44 87.95 117.53C89.8 115.62 90.95 111.01 91.28 108.06L85.83 109.75Z" fill="#FEC6BD"/>
<path d="M69.5396 130.42L52.3196 123.47C52.0189 123.333 51.7651 123.11 51.5896 122.83L44.5896 109.93C44.4296 109.64 44.5896 109.5 44.8396 109.63L63.8396 117.84C64.1405 117.985 64.3861 118.223 64.5396 118.52L69.7896 130.19C69.8996 130.42 69.7796 130.52 69.5396 130.42Z" fill="#425970"/>
<path d="M74.8301 82.6C75.0162 83.8737 75.314 85.1286 75.7201 86.35C76.3501 88.17 77.2101 89.99 79.5701 89.54C79.5701 89.54 79.9201 90.44 80.2201 91.13C80.5201 91.82 82.5801 91.87 83.3901 90.75C84.2001 89.63 82.3901 85.88 82.3901 85.88C83.0259 84.9594 83.084 83.7577 82.5401 82.78C81.6314 81.0731 79.6318 80.2607 77.7901 80.85C75.6201 81.37 74.8701 82.25 74.8301 82.6Z" fill="#FEC6BD"/>
<path d="M80.9197 84.11C80.9197 84.11 81.1897 82.86 81.9197 83.24C82.6497 83.62 82.4297 84.68 82.0197 85.24C82.0197 85.24 82.5797 87.41 81.7797 88.56C80.9797 89.71 86.6497 86.91 85.5597 83.36C84.5597 80.25 81.1297 77.95 79.0797 77.95C77.559 77.7751 76.0356 78.255 74.8897 79.27C73.1297 80.47 73.5197 83 73.7597 84C73.9997 85 75.4597 84.21 76.1397 84C79.2097 83.12 79.1397 82 79.7297 82C80.3197 82 80.1997 82.93 80.5197 83.58C80.8397 84.23 80.9197 84.11 80.9197 84.11Z" fill="#37475E"/>
<path d="M88.9999 110.13C90.9999 109.99 92.2299 109.53 92.2899 108.73C92.3499 107.93 91.5599 99 89.7899 96.4C88.0199 93.8 87.2099 94.64 86.2399 99.49C85.7299 102.03 84.4999 107.73 84.5799 108.75C84.6599 109.77 86.9999 110.26 88.9999 110.13Z" fill="#6DB3FA"/>
<path d="M252.23 149.23L203.08 170.97L223.91 217.41L270.08 181.25L252.23 149.23Z" fill="#BFD9FF"/>
<path d="M252.23 149.23L207.86 175.48L203.08 170.97L246.09 145.54L252.23 149.23Z" fill="#D0E7FF"/>
<path d="M270.08 181.25V217.41L227.25 241.85V206.77L270.08 181.25Z" fill="#96C4F6"/>
<path d="M209.21 174.49L227.25 206.77V241.85L203.8 228.5L203.08 170.97L209.21 174.49Z" fill="#78B3EE"/>
<path d="M250.87 154.01L214.08 175.39L228.6 201.36L264.58 179.9L250.87 154.01Z" fill="white"/>
<path d="M220.082 180.542L252.575 161.782L250.635 158.422L218.142 177.182L220.082 180.542Z" fill="#ACD4F7"/>
<path d="M223.579 186.795L239.618 177.535L237.673 174.166L221.634 183.426L223.579 186.795Z" fill="#ACD4F7"/>
<path d="M229.544 197.303L245.583 188.043L240.383 179.037L224.344 188.297L229.544 197.303Z" fill="#ACD4F7"/>
<path d="M247.13 187.07L261.72 178.68L254.28 164.88L239.29 173.48L247.13 187.07Z" fill="#ACD4F7"/>
<path d="M250.44 241.59L250.84 248.74L253.44 248.64L254.14 241.54L250.44 241.59Z" fill="#FEC6BD"/>
<path d="M250.84 248.74C249.433 249.365 247.956 249.818 246.44 250.09C244.49 250.34 244.54 251.54 246.09 251.74C247.64 251.94 254.19 252.94 254.29 251.24C254.382 250.293 254.074 249.35 253.44 248.64L250.84 248.74Z" fill="#30343A"/>
<path d="M263.89 237.13L264.23 243.18L266.43 243.09L267.02 237.08L263.89 237.13Z" fill="#FEC6BD"/>
<path d="M264.23 243.18C263.037 243.708 261.784 244.091 260.5 244.32C258.85 244.53 258.89 245.55 260.21 245.72C261.53 245.89 267.06 246.72 267.15 245.29C267.225 244.489 266.964 243.692 266.43 243.09L264.23 243.18Z" fill="#30343A"/>
<path d="M244.49 201.32C244.637 208.361 245.141 215.39 246 222.38C247.35 232.18 248.8 239.54 248.85 241.64C249.924 242.323 251.191 242.639 252.46 242.54C255 242.54 255.25 241.64 255.25 241.64C255.25 241.64 257.25 224.48 257.5 216.64C257.5 216.64 266.6 207.98 267.36 197.78L246.65 190.18L244.49 201.32Z" fill="#2A60B7"/>
<path d="M257.54 216.63C259.209 220.392 260.499 224.312 261.39 228.33C262.29 233.43 262.74 237.43 262.74 237.43C263.529 237.905 264.439 238.141 265.36 238.11C266.213 238.179 267.061 237.937 267.75 237.43C268.507 231.227 268.808 224.977 268.65 218.73C268.3 209.52 267.4 197.73 267.4 197.73L257.54 216.63Z" fill="#255299"/>
<path d="M257.54 216.63C259.209 220.392 260.499 224.312 261.39 228.33C262.29 233.43 262.74 237.43 262.74 237.43C263.548 237.868 264.451 238.101 265.37 238.11C266.214 238.13 267.044 237.893 267.75 237.43C268.507 231.227 268.808 224.977 268.65 218.73C268.3 209.52 267.4 197.73 267.4 197.73L257.54 216.63Z" fill="url(#paint13_linear_3157_6813)"/>
<path d="M252.6 158.66C252.6 158.66 251.46 159.74 251.05 162.66C250.64 165.58 251.51 166.76 253.49 166.84C254.088 167.401 254.503 168.13 254.68 168.93C254.849 169.814 254.696 170.729 254.25 171.51L257.67 173.06L259.77 171.13L259.2 161.72L252.6 158.66Z" fill="#FEC6BD"/>
<path d="M252.64 161.53C252.129 160.651 251.561 159.806 250.94 159C250 157.83 250.51 154.46 250.51 154.46C251.138 155.165 252.046 155.557 252.99 155.53C254.58 155.48 257.23 154.58 259.22 156.64C260.735 158.386 261.124 160.842 260.22 162.97C259.872 163.604 259.597 164.275 259.4 164.97C258.495 164.722 257.535 164.771 256.66 165.11C255.57 165.71 255.2 165.38 254.43 164.61C253.66 163.84 253.26 163.37 253.26 163.37C253.26 163.37 254.95 162.73 254.32 161.53C253.69 160.33 252.64 161.53 252.64 161.53Z" fill="#37475E"/>
<path d="M223.74 159.31C223.74 159.31 220.55 152.31 219.58 152.7C218.61 153.09 220.14 155.41 220.14 155.41C220.14 155.41 219.2 156.54 218.8 157.17C218.4 157.8 218.93 158.25 219.46 159.17C219.99 160.09 221.75 162.44 221.75 162.44L223.74 159.31Z" fill="#FEC6BD"/>
<path d="M242.42 173.2C244.481 173.85 246.716 173.652 248.63 172.65C251.26 171.48 262.63 168.23 264.63 168.19C266.63 168.15 268.56 168.99 268.84 171.62C269.12 174.25 267.42 197.77 267.42 197.77C267.42 197.77 254.48 203.22 248.56 202.77C244.85 202.5 244 200.77 244 200.77C244 200.77 245.08 191.44 244.13 187.94C243.18 184.44 231 176 228.49 173.71C225.98 171.42 221.22 163.84 220.35 161.98C219.48 160.12 222.83 157.6 224.79 159.71C226.75 161.82 230.45 166 235 169C239.55 172 240.19 172.33 242.42 173.2Z" fill="#6DB3FA"/>
<path d="M249.79 183.59C249.9 173.22 248.63 172.65 248.63 172.65C251.26 171.48 262.63 168.23 264.63 168.19C265.982 169.859 266.915 171.827 267.35 173.93C267.989 177.168 268.324 180.459 268.35 183.76C268.49 188.7 268.02 193.58 268.09 196.6C268.103 197.692 267.361 198.65 266.3 198.91C262.3 199.84 253.15 203.12 248.56 202.79C244.85 202.52 244 200.79 244 200.79C244.38 197.441 244.543 194.07 244.49 190.7C244.49 190.7 249.69 194 249.79 183.59Z" fill="#FFD215"/>
<path d="M261.19 168.86C261.64 168.74 262.07 168.64 262.46 168.56C263.46 168.33 265.04 171.2 265.17 175.05C265.34 179.78 264.17 199.46 264.17 199.46L262.84 199.84C262.84 199.84 264.09 179.29 263.64 174.44C263.513 172.348 262.644 170.37 261.19 168.86Z" fill="#FFF0B7"/>
<path d="M251.28 171.69L252.85 171.19C252.85 171.19 255.28 174.04 255.12 181.19C255.05 183.82 254.64 202.1 254.64 202.1L252.84 202.47C252.84 202.47 253.28 187.19 253.36 180.96C253.44 174.73 251.28 171.69 251.28 171.69Z" fill="#FFF0B7"/>
<path d="M263.99 193.75L254.14 196.84V195.37L263.99 192.28V193.75Z" fill="#FFF0B7"/>
<defs>
<linearGradient id="paint0_linear_3157_6813" x1="44.8269" y1="174.087" x2="64.9758" y2="177.016" gradientUnits="userSpaceOnUse">
<stop stop-color="#CEEBFF"/>
<stop offset="1" stop-color="#F5FBFF"/>
</linearGradient>
<linearGradient id="paint1_linear_3157_6813" x1="203.955" y1="130.547" x2="195.372" y2="127.132" gradientUnits="userSpaceOnUse">
<stop stop-color="#CEEBFF"/>
<stop offset="1" stop-color="#F5FBFF"/>
</linearGradient>
<linearGradient id="paint2_linear_3157_6813" x1="63.3398" y1="156.45" x2="194.82" y2="156.45" gradientUnits="userSpaceOnUse">
<stop stop-color="#80B9ED"/>
<stop offset="0.15" stop-color="#60A2FA"/>
<stop offset="1" stop-color="#68A4F1"/>
</linearGradient>
<linearGradient id="paint3_linear_3157_6813" x1="150.891" y1="127.76" x2="122.729" y2="186.141" gradientUnits="userSpaceOnUse">
<stop stop-color="#A9CEF8"/>
<stop offset="0.48" stop-color="#BFD9FF"/>
<stop offset="0.97" stop-color="#ACD0F8"/>
<stop offset="1" stop-color="#ABCFF8"/>
</linearGradient>
<linearGradient id="paint4_linear_3157_6813" x1="80.6699" y1="116.76" x2="117.27" y2="116.76" gradientUnits="userSpaceOnUse">
<stop stop-color="#A9CEF8"/>
<stop offset="0.48" stop-color="#BFD9FF"/>
<stop offset="0.97" stop-color="#ACD0F8"/>
<stop offset="1" stop-color="#ABCFF8"/>
</linearGradient>
<linearGradient id="paint5_linear_3157_6813" x1="145.71" y1="80.11" x2="179.42" y2="80.11" gradientUnits="userSpaceOnUse">
<stop stop-color="#A9CEF8"/>
<stop offset="0.48" stop-color="#BFD9FF"/>
<stop offset="0.97" stop-color="#ACD0F8"/>
<stop offset="1" stop-color="#ABCFF8"/>
</linearGradient>
<linearGradient id="paint6_linear_3157_6813" x1="101.782" y1="64.57" x2="111.972" y2="63.6049" gradientUnits="userSpaceOnUse">
<stop stop-color="#80C4FF"/>
<stop offset="1" stop-color="#80C4FF" stop-opacity="0"/>
</linearGradient>
<linearGradient id="paint7_linear_3157_6813" x1="160.092" y1="55.55" x2="163.263" y2="54.7655" gradientUnits="userSpaceOnUse">
<stop stop-color="#80C4FF"/>
<stop offset="1" stop-color="#80C4FF" stop-opacity="0"/>
</linearGradient>
<linearGradient id="paint8_linear_3157_6813" x1="79.7295" y1="242.8" x2="107.28" y2="242.8" gradientUnits="userSpaceOnUse">
<stop stop-color="#FFD215"/>
<stop offset="0.55" stop-color="#FFDF00"/>
<stop offset="1" stop-color="#FFD215"/>
</linearGradient>
<linearGradient id="paint9_linear_3157_6813" x1="79.7295" y1="258.24" x2="107.28" y2="258.24" gradientUnits="userSpaceOnUse">
<stop stop-color="#37475E" stop-opacity="0.8"/>
<stop offset="1" stop-color="#37475E"/>
</linearGradient>
<linearGradient id="paint10_linear_3157_6813" x1="82.6603" y1="248.48" x2="104.35" y2="248.48" gradientUnits="userSpaceOnUse">
<stop stop-color="#37475E" stop-opacity="0.8"/>
<stop offset="1" stop-color="#37475E"/>
</linearGradient>
<linearGradient id="paint11_linear_3157_6813" x1="85.3902" y1="239.5" x2="101.61" y2="239.5" gradientUnits="userSpaceOnUse">
<stop stop-color="#37475E" stop-opacity="0.8"/>
<stop offset="1" stop-color="#37475E"/>
</linearGradient>
<linearGradient id="paint12_linear_3157_6813" x1="87.9099" y1="231.35" x2="99.0999" y2="231.35" gradientUnits="userSpaceOnUse">
<stop stop-color="#37475E" stop-opacity="0.8"/>
<stop offset="1" stop-color="#37475E"/>
</linearGradient>
<linearGradient id="paint13_linear_3157_6813" x1="262.75" y1="215.51" x2="263.683" y2="215.806" gradientUnits="userSpaceOnUse">
<stop stop-color="#133E90" stop-opacity="0.4"/>
<stop offset="1" stop-color="#133E90" stop-opacity="0"/>
</linearGradient>
</defs>
</svg>
