<svg width="44" height="44" viewBox="0 0 44 44" fill="none" xmlns="http://www.w3.org/2000/svg">
<path d="M4 28.8999V32.0199C4.33 36.0199 11.48 39.0899 20.21 39.0199C28.94 38.9499 36 35.6599 36.21 31.6899V28.5699L4 28.8999Z" fill="#FFD215"/>
<path opacity="0.06" d="M5 30.8V34.3C5.14 34.47 5.28001 34.64 5.45001 34.81L5.40002 30.81L5 30.8Z" fill="black"/>
<path opacity="0.06" d="M6.87012 30.78L6.93011 35.94L7.37012 36.2L7.31012 30.77L6.87012 30.78Z" fill="black"/>
<path opacity="0.06" d="M8.72949 30.7599L8.7995 36.9399L9.2395 37.1299L9.16949 30.7499L8.72949 30.7599Z" fill="black"/>
<path opacity="0.06" d="M10.5996 30.7399L10.6796 37.6599L11.1196 37.7999L11.0396 30.7299L10.5996 30.7399Z" fill="black"/>
<path opacity="0.06" d="M12.46 30.7199L12.5499 38.1899L12.9899 38.2799L12.9 30.7099L12.46 30.7199Z" fill="black"/>
<path opacity="0.06" d="M14.3799 30.7L14.4699 38.56L14.9099 38.63L14.8199 30.69L14.3799 30.7Z" fill="black"/>
<path opacity="0.06" d="M16.1895 30.68L16.2894 38.81L16.7195 38.86L16.6295 30.67L16.1895 30.68Z" fill="black"/>
<path opacity="0.06" d="M18.0596 30.6599L18.1496 38.9499H18.5896L18.4996 30.6199L18.0596 30.6599Z" fill="black"/>
<path opacity="0.06" d="M19.9297 30.64L20.0197 39H20.4597L20.3597 30.64H19.9297Z" fill="black"/>
<path opacity="0.06" d="M21.79 30.6199L21.8801 38.9499H22.3201L22.23 30.6499L21.79 30.6199Z" fill="black"/>
<path opacity="0.06" d="M23.6602 30.5999L23.7501 38.7799L24.1801 38.7299L24.0901 30.5899L23.6602 30.5999Z" fill="black"/>
<path opacity="0.06" d="M25.5195 30.5799L25.6095 38.5099L26.0495 38.4399L25.9595 30.5699L25.5195 30.5799Z" fill="black"/>
<path opacity="0.06" d="M27.3799 30.56L27.4599 38.13L27.8999 38.02L27.8099 30.55L27.3799 30.56Z" fill="black"/>
<path opacity="0.06" d="M29.25 30.54L29.33 37.6C29.48 37.6 29.62 37.5 29.76 37.45L29.69 30.53L29.25 30.54Z" fill="black"/>
<path opacity="0.06" d="M31.1201 30.5199L31.1901 36.8999L31.6201 36.7L31.5501 30.5099L31.1201 30.5199Z" fill="black"/>
<path opacity="0.06" d="M32.9795 30.4999L33.0395 35.9299C33.1895 35.8399 33.3395 35.7499 33.4795 35.6499L33.4195 30.4899L32.9795 30.4999Z" fill="black"/>
<path opacity="0.06" d="M34.8496 30.4799V34.4799C35.004 34.3196 35.1477 34.1492 35.2797 33.9699V30.4699L34.8496 30.4799Z" fill="black"/>
<path d="M20.2066 36.1279C29.1144 36.033 36.3004 32.6432 36.2569 28.5566C36.2134 24.4699 28.9569 21.2339 20.049 21.3287C11.1412 21.4235 3.95519 24.8133 3.9987 28.9C4.04222 32.9867 11.2987 36.2227 20.2066 36.1279Z" fill="#FFDE00"/>
<path opacity="0.4" d="M20.4495 22.14V22.34C28.4495 22.34 35.0694 25.08 35.0994 28.45C35.0994 30.1 33.5995 31.6799 30.8195 32.8999C27.4417 34.2457 23.8354 34.9249 20.1995 34.8999H19.8094C11.8094 34.8999 5.18947 32.1599 5.14947 28.7899C5.14947 27.1399 6.65945 25.56 9.43945 24.34C12.8172 22.9942 16.4235 22.315 20.0594 22.34H20.4495V22.1799V22.14ZM20.4495 22.1799H20.0594C11.6994 22.2699 4.94943 25.1799 4.98943 28.7699C5.02943 32.3599 11.6294 35.0399 19.8094 35.0399H20.1995C28.5595 34.9499 35.2995 32.04 35.2595 28.45C35.2195 24.86 28.6295 22.1799 20.4495 22.1799Z" fill="white"/>
<path d="M7.71973 23.4599V26.58C8.03973 30.58 15.1997 33.65 23.9297 33.58C32.6597 33.51 39.7197 30.22 39.9297 26.25V23.1299L7.71973 23.4599Z" fill="#FFD215"/>
<path opacity="0.06" d="M8.72949 25.3399V28.8399C8.86949 29.0099 9.00949 29.1799 9.16949 29.3499V25.3499L8.72949 25.3399Z" fill="black"/>
<path opacity="0.06" d="M10.5898 25.3399L10.6498 30.4999L11.0898 30.7599L11.0298 25.3299L10.5898 25.3399Z" fill="black"/>
<path opacity="0.06" d="M12.46 25.3399L12.53 31.5199L12.97 31.7099L12.9 25.3299L12.46 25.3399Z" fill="black"/>
<path opacity="0.06" d="M14.3193 25.3399L14.3994 32.2599L14.8394 32.3999L14.7593 25.3299L14.3193 25.3399Z" fill="black"/>
<path opacity="0.06" d="M16.1895 25.28L16.2695 32.75L16.7095 32.84L16.6295 25.27L16.1895 25.28Z" fill="black"/>
<path opacity="0.06" d="M18.0498 25.2599L18.1398 33.1199L18.5798 33.1899L18.4898 25.2499L18.0498 25.2599Z" fill="black"/>
<path opacity="0.06" d="M19.9199 25.2399L20.0099 33.3699L20.45 33.4199L20.3599 25.2299L19.9199 25.2399Z" fill="black"/>
<path opacity="0.06" d="M21.7793 25.22L21.8793 33.51H22.3093L22.2193 25.18L21.7793 25.22Z" fill="black"/>
<path opacity="0.06" d="M23.6494 25.1999L23.7394 33.5599H24.1794L24.0894 25.1999H23.6494Z" fill="black"/>
<path opacity="0.06" d="M25.5098 25.18L25.6097 33.51H26.0397L25.9498 25.21L25.5098 25.18Z" fill="black"/>
<path opacity="0.06" d="M27.3799 25.16L27.4699 33.34L27.9099 33.29L27.8199 25.15L27.3799 25.16Z" fill="black"/>
<path opacity="0.06" d="M29.2402 25.14L29.3303 33.0699L29.7703 33L29.6802 25.1299L29.2402 25.14Z" fill="black"/>
<path opacity="0.06" d="M31.1094 25.1199L31.1894 32.6899L31.6294 32.5799L31.5494 25.1099L31.1094 25.1199Z" fill="black"/>
<path opacity="0.06" d="M32.9697 25.0999L33.0497 32.1599C33.1997 32.1599 33.3397 32.0599 33.4897 32.0099L33.4097 25.0899L32.9697 25.0999Z" fill="black"/>
<path opacity="0.06" d="M34.8398 25.0799L34.9099 31.4599L35.3498 31.2599L35.2798 25.0699L34.8398 25.0799Z" fill="black"/>
<path opacity="0.06" d="M36.6992 25.06L36.7592 30.49C36.9092 30.4 37.0592 30.31 37.1992 30.21L37.1392 25.05L36.6992 25.06Z" fill="black"/>
<path opacity="0.06" d="M38.5693 25.04V29.04C38.7269 28.8797 38.8739 28.7093 39.0093 28.53V25.03L38.5693 25.04Z" fill="black"/>
<path d="M23.9282 30.6887C32.836 30.5938 40.022 27.204 39.9785 23.1174C39.935 19.0307 32.6785 15.7947 23.7706 15.8895C14.8628 15.9843 7.67687 19.3741 7.72038 23.4608C7.76389 27.5475 15.0203 30.7835 23.9282 30.6887Z" fill="#FFDE00"/>
<path opacity="0.4" d="M24.1699 16.6999V16.8599C32.2199 16.8599 38.7899 19.5999 38.8299 22.9699C38.8299 24.6199 37.3199 26.1999 34.5399 27.4199C31.1624 28.7667 27.5558 29.4459 23.9199 29.4199H23.5299C15.5299 29.4199 8.90988 26.6799 8.87988 23.3099C8.87988 21.6599 10.3799 20.0799 13.1599 18.8599C16.5377 17.5141 20.144 16.8349 23.7799 16.8599H24.1699V16.6999ZM24.1699 16.6999H23.7799C15.4199 16.7899 8.6799 19.6999 8.7199 23.2899C8.7599 26.8799 15.3499 29.5599 23.5299 29.5599H23.9199C32.2799 29.4699 39.0299 26.5599 38.9899 22.9699C38.9499 19.3799 32.3499 16.6999 24.1699 16.6999Z" fill="white"/>
<path d="M4 18.02V21.14C4.33 25.14 11.48 28.21 20.21 28.14C28.94 28.07 36 24.78 36.21 20.81V17.69L4 18.02Z" fill="#FFD215"/>
<path opacity="0.06" d="M5 19.92V23.42C5.14 23.59 5.28001 23.76 5.45001 23.93L5.40002 19.93L5 19.92Z" fill="black"/>
<path opacity="0.06" d="M6.87012 19.8999L6.93011 25.06L7.37012 25.3199L7.31012 19.89L6.87012 19.8999Z" fill="black"/>
<path opacity="0.06" d="M8.72949 19.8799L8.7995 26.0599L9.2395 26.2499L9.16949 19.8699L8.72949 19.8799Z" fill="black"/>
<path opacity="0.06" d="M10.5996 19.8599L10.6796 26.7799L11.1196 26.9199L11.0396 19.8499L10.5996 19.8599Z" fill="black"/>
<path opacity="0.06" d="M12.46 19.8399L12.5499 27.3099L12.9899 27.3999L12.9 19.8299L12.46 19.8399Z" fill="black"/>
<path opacity="0.06" d="M14.3799 19.82L14.4699 27.68L14.9099 27.75L14.8199 19.81L14.3799 19.82Z" fill="black"/>
<path opacity="0.06" d="M16.1895 19.7999L16.2894 27.9299H16.7195L16.6295 19.7399L16.1895 19.7999Z" fill="black"/>
<path opacity="0.06" d="M18.0596 19.7799L18.1496 28.0699H18.5896L18.4996 19.7399L18.0596 19.7799Z" fill="black"/>
<path opacity="0.06" d="M19.9297 19.7599L20.0197 28.1199H20.4597L20.3597 19.7599H19.9297Z" fill="black"/>
<path opacity="0.06" d="M21.79 19.7399L21.8801 28.0699H22.3201L22.23 19.7699L21.79 19.7399Z" fill="black"/>
<path opacity="0.06" d="M23.6602 19.7199L23.7501 27.8999L24.1801 27.8499L24.0901 19.7099L23.6602 19.7199Z" fill="black"/>
<path opacity="0.06" d="M25.5195 19.7L25.6095 27.63L26.0495 27.56L25.9595 19.69L25.5195 19.7Z" fill="black"/>
<path opacity="0.06" d="M27.3799 19.68L27.4599 27.25L27.8999 27.14L27.8099 19.67L27.3799 19.68Z" fill="black"/>
<path opacity="0.06" d="M29.25 19.66L29.33 26.72C29.48 26.72 29.62 26.62 29.76 26.57L29.69 19.65L29.25 19.66Z" fill="black"/>
<path opacity="0.06" d="M31.1201 19.64L31.1901 26.0199L31.6201 25.8199L31.5501 19.6299L31.1201 19.64Z" fill="black"/>
<path opacity="0.06" d="M32.9795 19.6199L33.0395 25.0499C33.1895 24.9599 33.3395 24.8699 33.4795 24.7699L33.4195 19.6099L32.9795 19.6199Z" fill="black"/>
<path opacity="0.06" d="M34.8496 19.5999V23.5999C35.004 23.4396 35.1477 23.2692 35.2797 23.0899V19.5899L34.8496 19.5999Z" fill="black"/>
<path d="M20.2105 25.2486C29.1183 25.1537 36.3043 21.764 36.2608 17.6773C36.2173 13.5906 28.9608 10.3546 20.0529 10.4494C11.1451 10.5443 3.9591 13.9341 4.00261 18.0207C4.04612 22.1074 11.3026 25.3434 20.2105 25.2486Z" fill="#FFDE00"/>
<path opacity="0.4" d="M20.4495 11.2599V11.42C28.4495 11.42 35.0694 14.16 35.0994 17.53C35.0994 19.18 33.5995 20.7599 30.8195 21.9799C27.4417 23.3257 23.8354 24.0049 20.1995 23.9799H19.8094C11.8094 23.9799 5.18947 21.2399 5.14947 17.8699C5.14947 16.2199 6.65945 14.64 9.43945 13.42C12.8172 12.0742 16.4235 11.395 20.0594 11.42H20.4495V11.2599ZM20.4495 11.2599H20.0594C11.6994 11.3499 4.94943 14.2599 4.98943 17.8499C5.02943 21.4399 11.6294 24.1199 19.8094 24.1199H20.1995C28.5595 24.0299 35.2995 21.12 35.2595 17.53C35.2195 13.94 28.6295 11.2599 20.4495 11.2599Z" fill="white"/>
<path d="M7.71973 12.5799V15.6999C8.03973 19.6999 15.1997 22.7699 23.9297 22.6999C32.6597 22.6299 39.7197 19.3399 39.9297 15.3699V12.2499L7.71973 12.5799Z" fill="#FFD215"/>
<path opacity="0.06" d="M8.72949 14.4799V17.9799C8.86949 18.1499 9.00949 18.3199 9.16949 18.4899V14.4899L8.72949 14.4799Z" fill="black"/>
<path opacity="0.06" d="M10.5898 14.4599L10.6498 19.6199L11.0898 19.8799L11.0298 14.4499L10.5898 14.4599Z" fill="black"/>
<path opacity="0.06" d="M12.46 14.44L12.53 20.62L12.97 20.81L12.9 14.43L12.46 14.44Z" fill="black"/>
<path opacity="0.06" d="M14.3193 14.42L14.3793 21.34L14.8193 21.48L14.7393 14.41L14.3193 14.42Z" fill="black"/>
<path opacity="0.06" d="M16.1895 14.3999L16.2695 21.8699L16.7095 21.9599L16.6295 14.39L16.1895 14.3999Z" fill="black"/>
<path opacity="0.06" d="M18.0498 14.3399L18.1398 22.1999L18.5798 22.2699L18.4898 14.3299L18.0498 14.3399Z" fill="black"/>
<path opacity="0.06" d="M19.9199 14.3399L20.0099 22.4699H20.45L20.3799 14.3399H19.9199Z" fill="black"/>
<path opacity="0.06" d="M21.7793 14.34L21.8793 22.63H22.3093L22.2193 14.3L21.7793 14.34Z" fill="black"/>
<path opacity="0.06" d="M23.6494 14.3399L23.7394 22.6999H24.1794L24.0894 14.3399H23.6494Z" fill="black"/>
<path opacity="0.06" d="M25.5098 14.3399L25.6097 22.6699H26.0397L25.9498 14.3699L25.5098 14.3399Z" fill="black"/>
<path opacity="0.06" d="M27.3799 14.28L27.4699 22.46L27.9099 22.41L27.8199 14.27L27.3799 14.28Z" fill="black"/>
<path opacity="0.06" d="M29.2402 14.2599L29.3303 22.1899L29.7703 22.1199L29.6802 14.2499L29.2402 14.2599Z" fill="black"/>
<path opacity="0.06" d="M31.1094 14.2399L31.1894 21.8099L31.6294 21.6999L31.5494 14.2299L31.1094 14.2399Z" fill="black"/>
<path opacity="0.06" d="M32.9697 14.2199L33.0497 21.2799C33.1997 21.2799 33.3397 21.1799 33.4897 21.1299L33.4097 14.2099L32.9697 14.2199Z" fill="black"/>
<path opacity="0.06" d="M34.8398 14.2L34.9099 20.58L35.3498 20.38L35.2798 14.19L34.8398 14.2Z" fill="black"/>
<path opacity="0.06" d="M36.6992 14.18L36.7592 19.61C36.9092 19.52 37.0592 19.43 37.1992 19.33L37.1392 14.17L36.6992 14.18Z" fill="black"/>
<path opacity="0.06" d="M38.5693 14.16V18.16C38.7269 17.9997 38.8739 17.8293 39.0093 17.65V14.15L38.5693 14.16Z" fill="black"/>
<path d="M23.9331 19.8093C32.8409 19.7144 40.0269 16.3246 39.9834 12.2379C39.9399 8.15127 32.6834 4.91526 23.7755 5.0101C14.8677 5.10494 7.68176 8.49472 7.72527 12.5814C7.76878 16.6681 15.0252 19.9041 23.9331 19.8093Z" fill="#FFDE00"/>
<path opacity="0.4" d="M24.1699 5.81989V5.97989C32.2199 5.97989 38.7899 8.71989 38.8299 12.0899C38.8299 13.7399 37.3199 15.3199 34.5399 16.5399C31.1624 17.8867 27.5558 18.5659 23.9199 18.5399H23.5299C15.5299 18.5399 8.90988 15.7999 8.87988 12.4299C8.87988 10.7799 10.3799 9.19989 13.1599 7.97989C16.5377 6.63409 20.144 5.95493 23.7799 5.97989H24.1699V5.81989ZM24.1699 5.81989H23.7799C15.4199 5.90989 8.6799 8.8199 8.7199 12.4099C8.7599 15.9999 15.3499 18.6799 23.5299 18.6799H23.9199C32.2799 18.5899 39.0299 15.6799 38.9899 12.0899C38.9499 8.49989 32.3499 5.81989 24.1699 5.81989Z" fill="white"/>
<path d="M34 43C39.5228 43 44 38.5228 44 33C44 27.4772 39.5228 23 34 23C28.4772 23 24 27.4772 24 33C24 38.5228 28.4772 43 34 43Z" fill="#508FEA"/>
<path fill-rule="evenodd" clip-rule="evenodd" d="M29.8779 32.3327H38.1021L38.0922 32.3423C38.3268 32.3423 38.5517 32.2511 38.7176 32.0887C38.8834 31.9263 38.9766 31.7061 38.9766 31.4764C38.9766 31.2468 38.8834 31.0265 38.7176 30.8641C38.5517 30.7017 38.3268 30.6105 38.0922 30.6105H32.0003L33.9655 28.6863C34.1133 28.521 34.1914 28.3068 34.1839 28.0872C34.1765 27.8676 34.0841 27.659 33.9254 27.5036C33.7667 27.3482 33.5537 27.2578 33.3294 27.2505C33.1051 27.2432 32.8864 27.3197 32.7176 27.4644L29.2491 30.8511C29.1286 30.9739 29.0474 31.1285 29.0153 31.2958C28.9833 31.4632 29.0017 31.6361 29.0685 31.7933C29.1352 31.9506 29.2474 32.0853 29.3911 32.1811C29.5349 32.2769 29.704 32.3296 29.8779 32.3327ZM34.0146 38.5C34.1836 38.6593 34.4088 38.7489 34.6435 38.7501C34.8815 38.7514 35.1106 38.6616 35.2821 38.5L38.7408 35.1133C38.8663 34.9894 38.9511 34.8317 38.9843 34.6602C39.0176 34.4888 38.9978 34.3116 38.9275 34.1512C38.8613 33.9924 38.7485 33.8565 38.6033 33.7606C38.4581 33.6646 38.2871 33.6131 38.1119 33.6125H29.8878C29.6532 33.6125 29.4283 33.7037 29.2624 33.8661C29.0966 34.0284 29.0034 34.2487 29.0034 34.4783C29.0034 34.708 29.0966 34.9282 29.2624 35.0906C29.4283 35.253 29.6532 35.3442 29.8878 35.3442H35.9798L34.0146 37.2685C33.849 37.4324 33.7561 37.6536 33.7561 37.8842C33.7561 38.1148 33.849 38.336 34.0146 38.5Z" fill="white"/>
</svg>
