<svg width="240" height="240" viewBox="0 0 240 240" fill="none" xmlns="http://www.w3.org/2000/svg">
<path d="M137.361 192.437C190.028 192.437 232.723 149.742 232.723 97.0757C232.723 44.409 190.028 1.71428 137.361 1.71428C84.6948 1.71428 42 44.409 42 97.0757C42 149.742 84.6948 192.437 137.361 192.437Z" fill="url(#paint0_linear_4489_8730)"/>
<path d="M102.603 178.397C95.0887 176.763 92.3363 172.68 92.3363 163.369V143.35L23.083 127.578V200.09L103.942 217.789L124.705 183.159L102.603 178.397Z" fill="url(#paint1_linear_4489_8730)"/>
<path d="M174.83 196.823L179.289 157.618C176.093 156.861 172.739 157.147 169.717 158.435L101.771 184.335L108.844 230.261L174.83 196.823Z" fill="url(#paint2_linear_4489_8730)"/>
<path d="M137.978 225.883L124.991 221.816L147.518 210.43L160.512 214.506L137.978 225.883Z" fill="url(#paint3_linear_4489_8730)"/>
<path d="M206.087 115.212L103.518 92.5226C100.322 91.7652 96.967 92.0514 93.9454 93.3394L25.999 119.255L140.101 148.659L154.582 167.689L150.776 222.502L145.058 236.387L213.666 210.251C221.54 208.119 227.143 199.633 227.143 188.198V146.674C227.127 131.891 217.685 117.777 206.087 115.212Z" fill="url(#paint4_linear_4489_8730)"/>
<path d="M206.087 115.212L103.518 92.5226C100.322 91.7652 96.967 92.0514 93.9454 93.3394L25.999 119.255L140.101 148.659L154.582 167.689L150.776 222.502L145.058 236.387L213.666 210.251C221.54 208.119 227.143 199.633 227.143 188.198V146.674C227.127 131.891 217.685 117.777 206.087 115.212Z" fill="url(#paint5_linear_4489_8730)"/>
<path d="M136.466 141.978L33.8972 119.288C22.2665 116.715 12.8574 126.655 12.8574 141.463V183.052C12.8574 197.82 22.2665 211.909 33.8972 214.473L103.208 229.804L106.916 230.621C108.786 231.029 110.305 229.436 110.305 227.06V189.938C110.305 187.708 108.884 185.584 107.136 185.201L102.987 184.278C101.239 183.894 99.8181 185.388 99.8181 187.618V215.707L36.2413 201.642C29.1355 200.074 23.3528 191.424 23.3528 182.366V146.551C23.3528 137.493 29.1355 131.409 36.2413 132.977L134.383 154.686C141.497 156.263 147.28 164.912 147.28 173.962V209.785C147.28 218.843 141.497 224.928 134.383 223.36L126.632 221.644C124.86 221.252 123.422 222.763 123.422 225.026V230.18C123.422 232.442 124.86 234.598 126.632 234.99L136.433 237.163C148.032 239.728 157.473 229.812 157.473 215.021V173.431C157.506 158.656 148.048 144.542 136.466 141.978Z" fill="#D3E6FF"/>
<path d="M50.8368 169.58L33.0723 176.833V154.977L50.8287 147.716L50.8368 169.58Z" fill="#70A1E8"/>
<path fill-rule="evenodd" clip-rule="evenodd" d="M54.9365 150.152L71.4387 143.913V145.547L54.9365 151.785V150.152Z" fill="#5B99E7"/>
<path fill-rule="evenodd" clip-rule="evenodd" d="M54.9365 154.235L71.4387 147.997V149.631L54.9365 155.869V154.235Z" fill="#5B99E7"/>
<path fill-rule="evenodd" clip-rule="evenodd" d="M54.9365 158.319L78.1915 149.238V150.872L54.9365 159.953V158.319Z" fill="#5B99E7"/>
<path fill-rule="evenodd" clip-rule="evenodd" d="M54.9365 162.795L78.1915 153.714V155.348L54.9365 164.429V162.795Z" fill="#5B99E7"/>
<path d="M50.5835 146.433L33.309 153.49C32.5391 153.898 32.0604 154.701 32.0675 155.573V176.809C32.0675 177.625 32.6311 178.115 33.3254 177.838L50.5999 170.773C51.3652 170.375 51.8465 169.585 51.8495 168.723V147.487C51.8413 146.637 51.2778 146.18 50.5835 146.433ZM49.9628 165.496C48.3641 166.336 47.3566 167.987 47.341 169.793L36.5679 174.203C36.5679 172.423 35.3918 171.451 33.9461 172.047V158.807C35.5448 157.968 36.5523 156.317 36.5679 154.511L47.3492 150.109C47.3492 151.897 48.5253 152.861 49.971 152.265L49.9628 165.496Z" fill="#8CC0F9"/>
<path d="M46.9162 158.096L41.9503 166.583L36.9844 162.164L38.6342 159.093L45.2663 156.381L46.9162 158.096Z" fill="#A9CEFF"/>
<path d="M38.6342 159.093L36.9844 162.164L40.2923 160.808L38.6342 159.093Z" fill="#8CC0F9"/>
<path d="M41.951 157.737L40.293 160.808L43.609 159.453L41.951 157.737Z" fill="#8CC0F9"/>
<path d="M45.2664 156.381L43.6084 159.452L46.9163 158.096L45.2664 156.381Z" fill="#8CC0F9"/>
<path d="M41.9502 166.583L43.6082 159.452L46.9161 158.097L41.9502 166.583Z" fill="#81B7F2"/>
<path d="M41.9503 166.583L36.9844 162.164L40.2923 160.808L41.9503 166.583Z" fill="#81B7F2"/>
<path d="M41.951 166.583L40.293 160.808L43.609 159.452L41.951 166.583Z" fill="#A9CEFF"/>
<path d="M57.1424 169.233C57.1424 169.233 58.7759 168.416 59.0536 168.163C59.3313 167.91 59.0536 167.926 58.7841 168C58.5146 168.073 58.2532 168.204 58.2205 168C58.1879 167.795 59.3967 166.513 59.1925 166.366C58.9883 166.219 58.3757 167.118 58.2777 167.085C58.1797 167.052 59.0945 165.884 58.9148 165.754C58.7351 165.623 57.9918 166.897 57.8775 166.832C57.7631 166.766 58.5717 165.77 58.392 165.68C58.2124 165.59 57.5181 166.864 57.4038 166.824C57.2894 166.783 57.8285 165.77 57.6651 165.745C57.5018 165.721 56.783 166.962 56.6605 167.648C56.602 168.032 56.4776 168.402 56.293 168.743L57.1424 169.233Z" fill="#FEC6BD"/>
<path d="M68.8217 176.584C68.9769 173.872 68.5277 169.715 64.4357 169.723C60.8338 169.723 60.8583 174.289 60.8583 174.289C60.8684 175.304 60.563 176.297 59.9844 177.131C59.9844 177.131 68.6747 178.903 68.8217 176.584Z" fill="#181F3D"/>
<path d="M51.9806 221.269C51.9806 221.269 47.8232 222.486 47.8232 223.719C47.8232 224.952 53.7448 222.6 53.7448 222.6V221.293L51.9806 221.269Z" fill="#181F3D"/>
<path d="M50.4124 204.525C49.8734 209.744 51.9806 221.269 51.9806 221.269H53.7285C53.7285 221.269 53.2956 212.84 53.41 206.232C57.6653 202.826 50.9433 199.306 50.4124 204.525Z" fill="#FEC6BD"/>
<path d="M54.9774 205.285C54.4465 210.504 57.591 221.93 57.591 221.93H59.3471C59.3471 221.93 58.9142 213.509 59.0204 206.902C63.2839 203.537 55.5083 200.066 54.9774 205.285Z" fill="#FEC6BD"/>
<path d="M49.9306 203.145C49.7754 204.419 49.5793 206.877 49.5957 207.996C49.5957 207.996 60.5485 211.827 60.8997 207.588C71.8688 203.324 72.612 200.449 71.7626 197.044C71.3542 195.225 70.7089 193.467 69.8432 191.816H60.3606C60.3606 191.816 50.3063 200.155 49.9306 203.145Z" fill="#133E90"/>
<path d="M55.2968 197.035L66.707 197.575L63.2929 201.838L51.458 201.283L55.2968 197.035Z" fill="#D1DEEE"/>
<path d="M70.3 180.39C69.1965 179.203 67.7159 178.435 66.11 178.217C65.1835 178.087 64.2432 178.087 63.3167 178.217L53.4012 177.809L57.191 169.233L56.3742 168.669C56.3742 168.669 49.6032 175.04 49.7012 179.132C49.7829 182.473 56.4967 183.649 58.9633 183.967C59.0687 186.638 59.5499 189.28 60.3927 191.816H69.8426C69.8426 191.816 70.0141 190.714 70.202 189.186L71.6558 192.315L66.061 196.766L67.0656 198.122C67.0656 198.122 73.9427 195.443 75.4374 193.948C76.0827 193.303 75.6171 191.645 75.4374 190.91C75.0237 189.093 74.413 187.326 73.616 185.642C72.8121 183.718 71.6912 181.943 70.3 180.39Z" fill="#1969E6"/>
<path d="M68.5279 184.751L67.3926 191.841H69.8429C69.8429 191.841 70.0144 190.738 70.2022 189.211L68.5279 184.751Z" fill="url(#paint6_linear_4489_8730)"/>
<path d="M49.1625 193.001L59.127 193.311C59.7734 193.313 60.3504 193.717 60.5727 194.324L63.2925 201.838L51.4576 201.283L48.5418 193.891C48.467 193.688 48.4962 193.461 48.6199 193.284C48.7436 193.106 48.9462 193.001 49.1625 193.001Z" fill="#B2C6DA"/>
<path d="M65.7506 176.11C65.6028 176.797 65.628 177.51 65.8241 178.185C65.8241 178.185 65.0972 179.075 64.2886 179.001C63.3166 178.92 63.4065 178.242 63.4065 178.242C63.6716 177.5 63.8097 176.718 63.8149 175.93C63.8149 175.93 65.8323 175.4 65.7506 176.11Z" fill="#FEC6BD"/>
<path d="M65.7506 176.11C65.6028 176.797 65.628 177.51 65.8241 178.185C65.8241 178.185 65.0972 179.075 64.2886 179.001C63.3166 178.92 63.4065 178.242 63.4065 178.242C63.6716 177.5 63.8097 176.718 63.8149 175.93C63.8149 175.93 65.8323 175.4 65.7506 176.11Z" fill="url(#paint7_linear_4489_8730)"/>
<path d="M64.3057 171.307C63.0523 171.33 62.0505 172.357 62.0596 173.611C62.0596 175.138 62.615 177.262 64.3057 177.18C66.2415 177.09 66.6253 175.653 66.6907 173.692C66.713 173.063 66.4769 172.452 66.0372 172.002C65.5974 171.551 64.9924 171.3 64.3629 171.307H64.3057Z" fill="#FEC6BD"/>
<path d="M57.5915 221.865C57.5915 221.865 53.4424 223.082 53.4424 224.315C53.4424 225.549 59.3639 223.139 59.3639 223.139L59.3231 221.841L57.5915 221.865Z" fill="#181F3D"/>
<path d="M65.9062 174.436C65.9062 174.846 66.239 175.179 66.6495 175.179C67.06 175.179 67.3928 174.846 67.3928 174.436C67.3928 174.025 67.06 173.692 66.6495 173.692C66.239 173.692 65.9062 174.025 65.9062 174.436Z" fill="#FEC6BD"/>
<path d="M66.0608 196.766C65.139 196.67 64.2135 196.911 63.4553 197.444C62.8428 197.967 63.3247 198.187 63.6105 197.991C63.9002 197.874 64.2156 197.834 64.5253 197.877C64.1815 198.298 63.7635 198.652 63.292 198.922C62.4262 199.453 62.8509 200.351 64.3456 199.87C65.3677 199.49 66.2956 198.894 67.0654 198.122L66.0608 196.766Z" fill="#FEC6BD"/>
<path d="M66.69 173.692C65.4618 173.111 64.3707 172.276 63.4883 171.242C65.9957 170.262 67.0739 172.018 66.69 173.692Z" fill="#181F3D"/>
<path d="M49.1621 193.001L59.1266 193.311C59.773 193.313 60.35 193.717 60.5723 194.324L63.2921 201.838L60.4498 194.373C60.2056 193.853 59.7063 193.499 59.1348 193.442L49.1621 193.001Z" fill="white"/>
<path d="M184.573 147.997C184.573 147.997 188.722 149.214 188.722 150.447C188.722 151.681 182.801 149.328 182.801 149.328V148.03L184.573 147.997Z" fill="#181F3D"/>
<path d="M179.575 148.985C179.575 148.985 183.732 150.21 183.732 151.436C183.732 152.661 177.803 150.317 177.803 150.317V149.01L179.575 148.985Z" fill="#181F3D"/>
<path d="M175.573 117.491C176.379 118.928 177.268 120.316 178.236 121.648C178.236 121.648 186.224 125.585 186.763 130.804C187.302 136.023 184.574 147.956 184.574 147.956H182.818C182.818 147.956 182.001 139.748 181.862 133.14C177.599 129.734 172.273 124.621 172.273 124.621V118.389L175.573 117.491Z" fill="#255299"/>
<path d="M175.573 117.491C176.379 118.928 177.268 120.316 178.236 121.648C178.236 121.648 186.224 125.585 186.763 130.804C187.302 136.023 184.574 147.956 184.574 147.956H182.818C182.818 147.956 182.001 139.748 181.862 133.14C177.599 129.734 172.273 124.621 172.273 124.621V118.389L175.573 117.491Z" fill="url(#paint8_linear_4489_8730)"/>
<path d="M177.329 126.541C179.278 128.498 180.556 131.023 180.98 133.753C181.797 140.564 179.592 148.985 179.592 148.985H177.844C177.844 148.985 176.08 139.503 175.655 134.284C164.678 130.02 163.934 127.145 164.784 123.731C165.198 121.916 165.843 120.162 166.703 118.512H175.99L178.236 121.632C178.236 121.632 176.7 125.863 177.329 126.541Z" fill="#2A60B7"/>
<path d="M175.998 119.173C175.998 119.173 175.222 119.851 175.181 120.26C175.14 120.668 175.998 121.665 176.333 121.281C176.585 120.781 176.764 120.247 176.864 119.696L175.998 119.173Z" fill="#E3ABA6"/>
<path d="M176.218 105.877C176.218 105.877 178.767 107.739 179.657 113.848C179.837 115.081 176.856 120.08 176.856 120.08L175.818 119.19L176.839 115.228L176.406 114.273L175.124 109.609C175.124 109.609 172.747 104.782 173.115 104.888C176.096 105.697 176.218 105.877 176.218 105.877Z" fill="#6DB3FA"/>
<path d="M178.023 114.379C178.326 115.841 176.839 115.196 176.839 115.196L176.406 114.24L176.553 109.585C176.553 109.585 177.1 109.871 178.023 114.379Z" fill="url(#paint9_linear_4489_8730)"/>
<path d="M166.703 118.512C166.703 118.512 166.85 109.119 166.662 107.592C167.269 106.503 168.216 105.643 169.357 105.142C170.56 104.707 171.857 104.6 173.115 104.831C173.115 104.831 176.537 108.098 176.553 109.593C176.578 112.573 176.39 115.551 175.99 118.504L166.703 118.512Z" fill="#6DB3FA"/>
<path d="M174.241 101.098C174.595 100.88 174.843 100.526 174.927 100.118C175.1 99.4789 175.066 98.8013 174.829 98.1826C174.515 97.6358 173.984 97.2473 173.367 97.1127C173.367 97.1127 173.122 96.2959 171.668 96.2959C170.215 96.2959 169.847 97.0637 169.087 97.6109C168.904 97.7464 168.71 97.8666 168.508 97.9703C167.804 98.325 167.492 99.1603 167.789 99.8897C168.209 101.01 168.926 101.996 169.863 102.74C170.346 103.042 170.958 103.042 171.44 102.74L174.241 101.098Z" fill="#30343A"/>
<path d="M175.001 100.862C174.837 101.188 174.706 101.523 174.347 101.523C174.172 101.523 174.003 101.454 173.879 101.329C173.755 101.205 173.686 101.037 173.686 100.862C173.686 100.502 174.004 100.494 174.331 100.331C174.657 100.167 175.164 100.527 175.001 100.862Z" fill="#F2B0A9"/>
<path d="M170.917 102.495L170.713 104.872C171.077 105.176 171.537 105.341 172.012 105.338C172.428 105.377 172.84 105.23 173.139 104.937L172.722 102.626L170.917 102.495Z" fill="#FEC6BD"/>
<path d="M170.917 102.495L170.713 104.872C171.077 105.176 171.537 105.341 172.012 105.338C172.428 105.377 172.84 105.23 173.139 104.937L172.722 102.626L170.917 102.495Z" fill="url(#paint10_linear_4489_8730)"/>
<path d="M172.771 98.5585C173.046 98.5141 173.329 98.5452 173.588 98.6483C174.135 99.0111 174.464 99.625 174.462 100.282C174.462 101.817 173.898 103.916 172.207 103.859C169.823 103.786 169.863 100.502 169.863 100.502C170.26 100.477 170.605 100.221 170.745 99.849C170.854 99.2198 171.237 98.6716 171.791 98.3543C172.13 98.2396 172.506 98.3178 172.771 98.5585Z" fill="#FEC6BD"/>
<path d="M170.647 101.131C170.647 101.542 170.315 101.875 169.904 101.875C169.488 101.875 169.145 101.254 169.145 100.845C169.145 100.437 169.365 100.511 169.773 100.511C170.182 100.511 170.647 100.715 170.647 101.131Z" fill="#FEC6BD"/>
<path d="M174.609 119.451C175.223 119.389 175.838 119.551 176.341 119.909C176.749 120.252 176.431 120.399 176.243 120.276C176.05 120.194 175.838 120.166 175.63 120.195C175.857 120.474 176.134 120.71 176.447 120.889C177.019 121.24 176.741 121.836 175.745 121.518C175.065 121.269 174.448 120.873 173.939 120.358L174.609 119.451Z" fill="#FEC6BD"/>
<path d="M165.951 115.139C166.523 115.89 173.629 118.602 173.629 118.602C173.629 118.602 169.545 115.057 167.977 114.379L168.303 109.25C168.303 109.25 165.379 114.396 165.951 115.139Z" fill="url(#paint11_linear_4489_8730)"/>
<path d="M165.951 115.139C166.523 115.89 173.629 118.602 173.629 118.602C173.629 118.602 169.545 115.057 167.977 114.379L168.303 109.25C168.303 109.25 165.379 114.396 165.951 115.139Z" fill="url(#paint12_linear_4489_8730)"/>
<path d="M170.729 104.831C170.729 104.831 165.453 105.084 164.505 108.858C163.689 112.068 162.872 115.915 163.46 116.666C164.048 117.417 169.839 120.096 174.159 120.668L174.764 119.312C174.764 119.312 168.654 115.465 167.127 114.787L168.303 109.25L170.729 104.831Z" fill="#6DB3FA"/>
<path d="M206.806 105.648V155.797" stroke="#5A6268" stroke-width="0.25" stroke-linecap="round"/>
<path d="M175.842 120.178L208.422 104.937" stroke="#31465B" stroke-width="0.5" stroke-linecap="round"/>
<path d="M114.145 115.604L115.263 117.418L115.95 116.968L115.157 114.984L114.145 115.604Z" fill="#FEC6BD"/>
<path d="M115.663 116.462L115.263 117.417C114.846 117.746 114.458 118.109 114.103 118.504C113.654 119.026 112.829 118.683 112.33 119.32C111.832 119.957 114.07 119.745 114.87 119.557C115.704 119.244 116.467 118.77 117.117 118.161C117.59 117.777 116.324 116.045 115.663 116.462Z" fill="#30343A"/>
<path d="M103.812 98.8526C103.812 98.8526 104.801 105.019 107.831 108.441C110.861 111.864 114.145 115.604 114.145 115.604L115.345 115C115.345 115 113.793 109.822 112.772 106.22C111.751 102.618 109.946 93.3149 109.734 89.2556L103.812 98.8526Z" fill="#255297"/>
<path d="M103.812 98.8526C103.812 98.8526 104.801 105.019 107.831 108.441C110.861 111.864 114.145 115.604 114.145 115.604L115.345 115C115.345 115 113.793 109.822 112.772 106.22C111.751 102.618 109.946 93.3149 109.734 89.2556L103.812 98.8526Z" fill="url(#paint13_linear_4489_8730)"/>
<path d="M94.1985 116.07L93.3164 118.471L94.3455 119.214L95.3501 116.552L94.1985 116.07Z" fill="#FEC6BD"/>
<path d="M93.447 118.079C93.0537 117.957 92.6386 117.92 92.2301 117.973C91.4133 118.022 90.2698 117.156 89.7144 117.499C89.159 117.842 89.5838 118.128 90.5312 118.741C91.7312 119.454 92.9846 120.074 94.2801 120.595C94.6558 120.668 95.3909 119.272 94.6803 118.373L93.447 118.079Z" fill="#30343A"/>
<path d="M98.7726 88.7328C98.7726 88.7328 96.8287 98.3216 95.7751 105.623C94.7215 112.925 94.0518 116.143 94.0518 116.143L95.7425 116.633C95.7425 116.633 98.2417 112.435 100.463 108.098C101.911 105.138 103.034 102.03 103.812 98.828C103.812 98.828 109.668 95.1199 109.734 89.231L98.7726 88.7328Z" fill="#2A60B7"/>
<path d="M93.2021 74.66C93.2021 74.66 91.8953 73.8433 91.8953 73.3205C91.8953 72.7978 91.397 71.8014 91.8953 71.9484C92.3935 72.0954 93.8718 73.9168 93.8718 73.9168L93.2021 74.66Z" fill="#FEC6BD"/>
<path d="M100.921 68.175C100.921 68.175 97.8495 75.4033 97.5392 76.5958C97.2288 77.7883 96.265 76.5958 95.4237 75.6157C94.5825 74.6355 93.9046 73.9168 93.9046 73.9168L93.2021 74.6601C93.2021 74.6601 95.5626 81.1125 97.1471 81.8884C98.7316 82.6643 100.921 81.2513 100.921 81.2513V68.175Z" fill="#508FEA"/>
<path d="M96.1266 61.7878C96.0594 62.6441 96.0594 63.5043 96.1266 64.3606C96.4206 66.3453 97.9316 67.6276 98.4625 67.4725C98.9934 67.3173 99.6713 67.1131 99.6713 67.1131L100.905 68.1749L103.094 67.3581L100.978 64.5403C100.978 64.5403 101.084 61.5101 100.055 61.3631C98.735 61.3779 97.4194 61.5201 96.1266 61.7878Z" fill="#FEC6BD"/>
<path d="M97.6783 62.3105C97.6783 62.3105 95.3995 62.4576 94.8114 61.6163C94.2234 60.775 94.5011 59.1007 95.326 59.0843C96.1509 59.068 96.7798 59.9011 97.9805 59.8276C99.1811 59.7541 100.047 59.166 100.929 59.6806C101.934 60.2088 102.444 61.358 102.162 62.4576C101.762 63.4867 101.346 64.5893 100.757 64.5893C100.169 64.5893 99.9407 64.1646 100.088 63.7725C100.235 63.3805 100.374 62.4412 99.712 62.335C99.4443 62.2728 99.1628 62.3257 98.9361 62.481C98.7093 62.6363 98.5582 62.8797 98.5196 63.1518V63.5847C98.2228 63.5598 97.9539 63.4002 97.7898 63.1517C97.6258 62.9032 97.5847 62.5932 97.6783 62.3105Z" fill="#30343A"/>
<path d="M102.505 66.6557C102.505 66.6557 102.505 67.4725 100.92 68.1749C99.7652 70.908 99.0114 73.7938 98.6824 76.7427C98.4374 80.6877 98.7723 88.7328 98.7723 88.7328C98.7723 88.7328 105.609 89.7864 109.733 89.2555C109.733 89.2555 111.22 77.7637 108.288 72.7896C105.355 67.8155 102.505 66.6557 102.505 66.6557Z" fill="#6DB1F8"/>
<path d="M90.2705 70.323L93.3252 74.2761L93.7744 73.6717C93.8631 73.547 93.8631 73.3799 93.7744 73.2552L91.6182 70.3475C91.5448 70.2425 91.418 70.1887 91.2915 70.2086L90.2705 70.323Z" fill="#30343A"/>
<path d="M107.275 73.7533L102.619 73.6471C103.044 76.5483 103.233 79.4792 103.183 82.411C103.126 85.2569 103.509 88.0945 104.318 90.8236C104.285 91.5011 104.426 92.1757 104.726 92.7839C105.045 93.4863 105.96 93.3801 106.45 92.7839C106.94 92.1876 106.515 91.1095 106.45 90.9706C106.907 91.7874 109.717 87.2789 109.905 82.4845C110.05 79.3593 109.122 76.2785 107.275 73.7533Z" fill="url(#paint14_linear_4489_8730)"/>
<path d="M105.503 90.9137C105.209 91.5168 105.122 92.2003 105.258 92.8576C105.576 93.56 106.491 93.4538 106.989 92.8576C107.487 92.2613 106.989 91.0198 106.989 91.0198L105.503 90.9137Z" fill="#FEC6BD"/>
<path d="M102.154 73.5329C103.217 76.3961 103.972 79.3639 104.409 82.3866C105.086 87.2136 105.503 90.9136 105.503 90.9136C105.965 91.145 106.5 91.1833 106.99 91.0198C108.505 88.1266 109.372 84.9381 109.53 81.676C109.652 78.5027 109.048 75.3433 107.765 72.4384L102.154 73.5329Z" fill="#6DB1F8"/>
<path d="M70.4883 113.848L70.5863 116.249L69.451 116.609L69.3203 113.946L70.4883 113.848Z" fill="#FEC6BD"/>
<path d="M70.4551 115.972C70.8314 116.046 71.1877 116.199 71.5006 116.421C72.1785 116.846 73.4853 116.625 73.7875 117.156C74.0897 117.687 73.616 117.736 72.5542 117.809C71.2456 117.865 69.9345 117.816 68.6338 117.662C68.2989 117.564 68.307 116.078 69.3035 115.653L70.4551 115.972Z" fill="#30343A"/>
<path d="M73.4123 98.4606L70.864 114.632L68.9528 114.567L68.0054 97.5132C67.6715 94.8472 67.6168 92.1536 67.842 89.4762L73.4123 98.4606Z" fill="#255299"/>
<path d="M77.8477 114.485L77.9457 116.887L76.8104 117.246L76.6797 114.583L77.8477 114.485Z" fill="#FEC6BD"/>
<path d="M77.8068 116.601C78.1825 116.681 78.538 116.837 78.8523 117.058C79.5302 117.483 80.8288 117.254 81.1392 117.785C81.4496 118.316 80.9595 118.373 79.9059 118.447C78.5972 118.498 77.2865 118.449 75.9854 118.3C75.6424 118.193 75.6587 116.715 76.647 116.29L77.8068 116.601Z" fill="#30343A"/>
<path d="M78.1166 88.9288C78.1166 88.9288 78.3862 98.0928 78.1983 105.003C78.0104 111.912 78.1166 115.016 78.1166 115.016L76.4831 115.196C76.4831 115.196 74.8496 110.924 73.4774 106.571C72.6091 103.605 72.0614 100.555 71.8439 97.4721C71.8439 97.4721 67.025 93.1188 67.8989 87.671L78.1166 88.9288Z" fill="#2A60B5"/>
<path d="M77.2425 63.0538C77.2425 63.0538 77.5366 64.5975 77.5938 65.5041C77.7163 67.3745 76.7117 68.7712 76.1971 68.7712C75.6825 68.7712 75.021 68.6731 75.021 68.6731L74.098 69.882L71.9336 69.5634L73.3221 66.5659C73.3221 66.5659 72.636 63.8134 73.5426 63.4785C74.7593 63.2178 75.9984 63.0756 77.2425 63.0538Z" fill="#FEC6BD"/>
<path d="M71.6889 69.2123C71.6889 69.2123 73.8942 68.9673 74.4741 69.4573C75.054 69.9474 76.7774 71.8341 77.4798 75.6729C77.7983 77.3799 78.1413 88.9779 78.1413 88.9779C78.1413 88.9779 67.3519 101.442 63.4805 100.952C63.4805 100.952 66.6658 80.9655 68.1197 75.7219C69.5735 70.4783 71.6889 69.2123 71.6889 69.2123Z" fill="#6DB3FA"/>
<path d="M84.3401 77.5269L83.5234 77.1594C83.4172 77.1104 83.4009 76.9552 83.5234 76.8164L84.8955 74.5784C84.9854 74.4396 85.1487 74.3579 85.2549 74.4069L86.0717 74.7663C86.1778 74.8153 86.1942 74.9705 86.0717 75.1175L84.7322 77.3473C84.6626 77.4945 84.4971 77.5704 84.3401 77.5269Z" fill="#30343A"/>
<path d="M84.226 78.4497C84.226 78.4497 85.4512 77.6901 85.4512 77.1919C85.4512 76.6937 85.9086 75.7707 85.4512 75.9096C84.9938 76.0484 83.5645 77.7555 83.5645 77.7555L84.226 78.4497Z" fill="#FEC6BD"/>
<path d="M77.9616 83.9957L78.0677 86.789C78.0677 86.789 75.9278 88.5532 73.4449 84.1835C72.0891 81.8394 71.1416 75.7709 71.1416 75.7709L77.9616 83.9957Z" fill="url(#paint15_linear_4489_8730)"/>
<path d="M76.23 74.0965C76.7457 76.0737 77.3868 78.0161 78.1494 79.9118C78.2638 80.214 83.4584 77.633 83.4584 77.633L84.4875 78.5723C84.4875 78.5723 77.1856 87.3934 74.5883 83.1625C73.12 80.8606 71.9612 78.3753 71.1416 75.7708L76.23 74.0965Z" fill="#6DB1F8"/>
<path d="M76.483 61.6735C77.1527 62.0329 77.8878 64.2136 77.5693 64.2136C77.2508 64.2136 75.9929 64.2136 75.6581 64.2627L75.4294 65.0794C75.4294 65.0794 75.4294 64.4832 74.8495 64.6384C74.2696 64.7935 74.5636 65.7982 75.0945 65.9534C75.2209 67.5559 74.2912 69.0546 72.7994 69.6533C70.1694 70.8539 70.929 77.0041 66.9351 75.583C62.9411 74.1618 64.7951 72.0627 67.6946 68.6242C70.5941 65.1856 70.1449 64.1646 71.5498 62.5883C72.8151 61.2336 74.8161 60.8625 76.483 61.6735Z" fill="#37475E"/>
<path d="M209.134 155.544H205.866C201.709 155.879 198.45 163.254 198.516 172.255C198.581 181.256 202.028 188.533 206.193 188.778H209.46L209.134 155.544Z" fill="#FFD215"/>
<path opacity="0.06" d="M207.148 156.581L203.473 156.622C203.301 156.769 203.122 156.908 202.95 157.08L207.148 157.039V156.581Z" fill="black"/>
<path opacity="0.06" d="M207.165 158.509L201.758 158.566L201.488 159.023L207.206 158.958L207.165 158.509Z" fill="black"/>
<path opacity="0.06" d="M207.19 160.428L200.713 160.502L200.517 160.951L207.19 160.877V160.428Z" fill="black"/>
<path opacity="0.06" d="M207.206 162.356L199.961 162.429L199.814 162.887L207.214 162.805L207.206 162.356Z" fill="black"/>
<path opacity="0.06" d="M207.23 164.275L199.406 164.357L199.308 164.814L207.238 164.724L207.23 164.275Z" fill="black"/>
<path opacity="0.06" d="M207.255 166.195L199.022 166.284L198.948 166.742L207.255 166.652V166.195Z" fill="black"/>
<path opacity="0.06" d="M207.272 168.122L198.761 168.212C198.761 168.367 198.72 168.514 198.712 168.669L207.28 168.571L207.272 168.122Z" fill="black"/>
<path opacity="0.06" d="M207.296 170.05L198.605 170.148V170.597L207.32 170.507L207.296 170.05Z" fill="black"/>
<path opacity="0.06" d="M207.312 171.969L198.557 172.059C198.561 172.138 198.561 172.217 198.557 172.296C198.557 172.369 198.557 172.443 198.557 172.516L207.312 172.418V171.969Z" fill="black"/>
<path opacity="0.06" d="M207.336 173.888L198.613 173.987C198.613 174.134 198.613 174.281 198.654 174.436L207.336 174.338V173.888Z" fill="black"/>
<path opacity="0.06" d="M207.353 175.816L198.785 175.906C198.785 176.061 198.785 176.208 198.842 176.355L207.361 176.265L207.353 175.816Z" fill="black"/>
<path opacity="0.06" d="M207.378 177.735L199.071 177.825L199.145 178.274L207.386 178.185L207.378 177.735Z" fill="black"/>
<path opacity="0.06" d="M207.401 179.655L199.471 179.745C199.471 179.892 199.544 180.047 199.577 180.194L207.401 180.112V179.655Z" fill="black"/>
<path opacity="0.06" d="M207.418 181.582L200.019 181.664C200.068 181.811 200.125 181.958 200.182 182.113L207.427 182.032L207.418 181.582Z" fill="black"/>
<path opacity="0.06" d="M207.443 183.502L200.762 183.575C200.827 183.73 200.892 183.877 200.966 184.024L207.443 183.951V183.502Z" fill="black"/>
<path opacity="0.06" d="M207.459 185.429L201.741 185.486C201.839 185.642 201.929 185.797 202.027 185.936L207.434 185.879L207.459 185.429Z" fill="black"/>
<path opacity="0.06" d="M207.483 187.349L203.285 187.398C203.465 187.561 203.645 187.7 203.824 187.839L207.483 187.798V187.349Z" fill="black"/>
<path d="M209.518 188.806C213.798 188.759 217.187 181.273 217.085 172.085C216.984 162.897 213.433 155.486 209.152 155.533C204.871 155.581 201.483 163.067 201.584 172.255C201.685 181.443 205.237 188.853 209.518 188.806Z" fill="#FFDC00"/>
<g opacity="0.4">
<path opacity="0.4" d="M209.346 156.573V156.982C212.752 156.982 215.717 163.908 215.807 172.108C215.897 180.308 213.071 187.332 209.616 187.373C206.161 187.414 203.245 180.447 203.155 172.247C203.065 164.047 205.883 157.022 209.305 156.982V156.573H209.346ZM209.305 156.573C205.581 156.614 202.649 163.63 202.771 172.247C202.894 180.864 205.94 187.765 209.64 187.765C213.365 187.724 216.297 180.7 216.174 172.083C216.052 163.467 213.005 156.565 209.305 156.565V156.573Z" fill="white"/>
</g>
<path d="M81.8897 30.8571H103.24C103.88 30.8657 104.399 31.3774 104.416 32.0169V46.4736C104.416 47.1322 103.882 47.6661 103.224 47.6661H98.8294V49.7979C98.8277 49.9673 98.7255 50.1195 98.5693 50.1851C98.4131 50.2508 98.2329 50.2174 98.1106 50.1001L95.6603 47.6498H81.8897C81.2312 47.6498 80.6973 47.1159 80.6973 46.4573V32.0169C80.715 31.3712 81.2437 30.8569 81.8897 30.8571Z" fill="#6DB3FA"/>
<path d="M95.3258 35.6842H85.6145C85.4747 35.6842 85.3613 35.7976 85.3613 35.9374V36.2478C85.3613 36.3876 85.4747 36.501 85.6145 36.501H95.3258C95.4656 36.501 95.579 36.3876 95.579 36.2478V35.9374C95.579 35.7976 95.4656 35.6842 95.3258 35.6842Z" fill="#DCEDFF"/>
<path d="M99.4423 38.1263H85.6145C85.4747 38.1263 85.3613 38.2396 85.3613 38.3794V38.6898C85.3613 38.8297 85.4747 38.943 85.6145 38.943H99.4423C99.5821 38.943 99.6955 38.8297 99.6955 38.6898V38.3794C99.6955 38.2396 99.5821 38.1263 99.4423 38.1263Z" fill="#DCEDFF"/>
<path d="M97.3106 40.5684H85.6145C85.4747 40.5684 85.3613 40.6817 85.3613 40.8216V41.1319C85.3613 41.2718 85.4747 41.3851 85.6145 41.3851H97.3106C97.4504 41.3851 97.5638 41.2718 97.5638 41.1319V40.8216C97.5638 40.6817 97.4504 40.5684 97.3106 40.5684Z" fill="#DCEDFF"/>
<path d="M89.9764 43.811H73.7228C73.0629 43.8155 72.5303 44.3517 72.5303 45.0116V54.0695C72.5282 54.3879 72.6526 54.6942 72.8762 54.9209C73.0998 55.1476 73.4044 55.2762 73.7228 55.2783H75.7892V57.4101C75.7877 57.583 75.8912 57.7396 76.0509 57.806C76.2106 57.8724 76.3946 57.8353 76.5161 57.7123L78.9664 55.262H89.9764C90.6363 55.262 91.1725 54.7294 91.177 54.0695V45.0116C91.177 44.3485 90.6395 43.811 89.9764 43.811Z" fill="#FFDA00"/>
<path d="M78.7699 50.2797C79.221 50.2797 79.5866 49.9141 79.5866 49.463C79.5866 49.0119 79.221 48.6462 78.7699 48.6462C78.3188 48.6462 77.9531 49.0119 77.9531 49.463C77.9531 49.9141 78.3188 50.2797 78.7699 50.2797Z" fill="white"/>
<path d="M81.9144 50.2798C82.3655 50.2798 82.7312 49.9141 82.7312 49.463C82.7312 49.0119 82.3655 48.6462 81.9144 48.6462C81.4633 48.6462 81.0977 49.0119 81.0977 49.463C81.0977 49.9141 81.4633 50.2798 81.9144 50.2798Z" fill="white"/>
<path d="M85.0511 50.2797C85.5022 50.2797 85.8679 49.9141 85.8679 49.463C85.8679 49.0119 85.5022 48.6462 85.0511 48.6462C84.6001 48.6462 84.2344 49.0119 84.2344 49.463C84.2344 49.9141 84.6001 50.2797 85.0511 50.2797Z" fill="white"/>
<defs>
<linearGradient id="paint0_linear_4489_8730" x1="179.998" y1="26.1172" x2="127.435" y2="91.3537" gradientUnits="userSpaceOnUse">
<stop stop-color="#EEF8FF"/>
<stop offset="1" stop-color="#EBF8FF" stop-opacity="0.2"/>
</linearGradient>
<linearGradient id="paint1_linear_4489_8730" x1="50.1178" y1="146.001" x2="83.9855" y2="221.292" gradientUnits="userSpaceOnUse">
<stop stop-color="#80B9ED"/>
<stop offset="0.51" stop-color="#6098FA"/>
<stop offset="1" stop-color="#B0D7FC"/>
</linearGradient>
<linearGradient id="paint2_linear_4489_8730" x1="134.212" y1="172.313" x2="148.957" y2="208.705" gradientUnits="userSpaceOnUse">
<stop stop-color="#BEDBFF"/>
<stop offset="0.18" stop-color="#6098FA"/>
</linearGradient>
<linearGradient id="paint3_linear_4489_8730" x1="138.182" y1="216.626" x2="141.536" y2="222.567" gradientUnits="userSpaceOnUse">
<stop stop-color="#BEDBFF"/>
<stop offset="0.9" stop-color="#6098FA"/>
</linearGradient>
<linearGradient id="paint4_linear_4489_8730" x1="164.989" y1="134.87" x2="182.712" y2="199.36" gradientUnits="userSpaceOnUse">
<stop stop-color="#F3F8FF"/>
<stop offset="1" stop-color="#E7F1FF"/>
</linearGradient>
<linearGradient id="paint5_linear_4489_8730" x1="117.55" y1="134.531" x2="148.649" y2="214.099" gradientUnits="userSpaceOnUse">
<stop stop-color="#92C2FF" stop-opacity="0"/>
<stop offset="0.27" stop-color="#92C2FF" stop-opacity="0"/>
<stop offset="0.47" stop-color="#92C2FF"/>
<stop offset="1" stop-color="#DBEAFF"/>
</linearGradient>
<linearGradient id="paint6_linear_4489_8730" x1="68.9347" y1="188.255" x2="68.7709" y2="188.26" gradientUnits="userSpaceOnUse">
<stop stop-color="#133E90" stop-opacity="0.4"/>
<stop offset="1" stop-color="#133E90" stop-opacity="0"/>
</linearGradient>
<linearGradient id="paint7_linear_4489_8730" x1="64.7224" y1="176.567" x2="64.5358" y2="178.109" gradientUnits="userSpaceOnUse">
<stop stop-color="#F5AEA7"/>
<stop offset="1" stop-color="#F5AEA7" stop-opacity="0"/>
</linearGradient>
<linearGradient id="paint8_linear_4489_8730" x1="178.34" y1="130.012" x2="180.873" y2="131.401" gradientUnits="userSpaceOnUse">
<stop stop-color="#133E90" stop-opacity="0.4"/>
<stop offset="1" stop-color="#133E90" stop-opacity="0"/>
</linearGradient>
<linearGradient id="paint9_linear_4489_8730" x1="177.096" y1="112.599" x2="177.215" y2="112.589" gradientUnits="userSpaceOnUse">
<stop stop-color="#133E90" stop-opacity="0.4"/>
<stop offset="1" stop-color="#133E90" stop-opacity="0"/>
</linearGradient>
<linearGradient id="paint10_linear_4489_8730" x1="172.095" y1="103.239" x2="171.701" y2="104.78" gradientUnits="userSpaceOnUse">
<stop stop-color="#F5AEA7"/>
<stop offset="1" stop-color="#F5AEA7" stop-opacity="0"/>
</linearGradient>
<linearGradient id="paint11_linear_4489_8730" x1="167.579" y1="113.301" x2="168.547" y2="113.437" gradientUnits="userSpaceOnUse">
<stop stop-color="#133E90" stop-opacity="0.4"/>
<stop offset="1" stop-color="#133E90" stop-opacity="0"/>
</linearGradient>
<linearGradient id="paint12_linear_4489_8730" x1="169.245" y1="116.78" x2="169.966" y2="115.729" gradientUnits="userSpaceOnUse">
<stop stop-color="#133E90" stop-opacity="0.4"/>
<stop offset="1" stop-color="#133E90" stop-opacity="0"/>
</linearGradient>
<linearGradient id="paint13_linear_4489_8730" x1="108.358" y1="100.355" x2="109.587" y2="100.647" gradientUnits="userSpaceOnUse">
<stop stop-color="#133E90" stop-opacity="0.8"/>
<stop offset="1" stop-color="#133E90" stop-opacity="0"/>
</linearGradient>
<linearGradient id="paint14_linear_4489_8730" x1="106.273" y1="78.662" x2="106.444" y2="88.9508" gradientUnits="userSpaceOnUse">
<stop stop-color="#133E90" stop-opacity="0.4"/>
<stop offset="1" stop-color="#133E90" stop-opacity="0"/>
</linearGradient>
<linearGradient id="paint15_linear_4489_8730" x1="73.8864" y1="80.1242" x2="77.8537" y2="85.4119" gradientUnits="userSpaceOnUse">
<stop stop-color="#133E90" stop-opacity="0.4"/>
<stop offset="1" stop-color="#133E90" stop-opacity="0"/>
</linearGradient>
</defs>
</svg>
