<svg width="24" height="24" viewBox="0 0 24 24" fill="none" xmlns="http://www.w3.org/2000/svg">
<path d="M11.0705 11.5254C11.8785 11.1255 12.8267 11.1255 13.6346 11.5254L22.1691 15.7493C22.8838 16.103 22.8838 17.1224 22.1691 17.4762L13.6346 21.7001C12.8267 22.1 11.8785 22.1 11.0705 21.7001L2.53608 17.4762C1.82131 17.1224 1.82131 16.103 2.53608 15.7493L11.0705 11.5254Z" fill="url(#paint0_linear_4809_5255)"/>
<path d="M11.0705 6.85407C11.8785 6.4542 12.8267 6.4542 13.6346 6.85407L22.1691 11.078C22.8838 11.4317 22.8838 12.4511 22.1691 12.8049L13.6346 17.0288C12.8267 17.4287 11.8785 17.4287 11.0705 17.0288L2.53608 12.8049C1.82131 12.4511 1.82131 11.4317 2.53608 11.078L11.0705 6.85407Z" fill="url(#paint1_linear_4809_5255)"/>
<path d="M11.0705 2.2999C11.8785 1.90003 12.8267 1.90003 13.6346 2.2999L22.1691 6.5238C22.8838 6.87756 22.8838 7.89696 22.1691 8.25072L13.6346 12.4746C12.8267 12.8745 11.8785 12.8745 11.0705 12.4746L2.53608 8.25072C1.82131 7.89696 1.82131 6.87756 2.53608 6.5238L11.0705 2.2999Z" fill="#51A0FF"/>
<path d="M15.2429 7.00085C15.2429 7.63936 13.9488 8.15697 12.3526 8.15697C10.7563 8.15697 9.46229 7.63936 9.46229 7.00085C9.46229 6.36235 10.7563 5.84474 12.3526 5.84474C13.9488 5.84474 15.2429 6.36235 15.2429 7.00085Z" fill="#FAE100"/>
<defs>
<linearGradient id="paint0_linear_4809_5255" x1="2" y1="2" x2="23.229" y2="2.57239" gradientUnits="userSpaceOnUse">
<stop stop-color="#216FEA"/>
<stop offset="1" stop-color="#3382FF"/>
</linearGradient>
<linearGradient id="paint1_linear_4809_5255" x1="17.5477" y1="16.4455" x2="6.84535" y2="6.64093" gradientUnits="userSpaceOnUse">
<stop stop-color="#FAE100"/>
<stop offset="1" stop-color="#FFCE00"/>
</linearGradient>
</defs>
</svg>
