<svg width="24" height="24" viewBox="0 0 24 24" fill="none" xmlns="http://www.w3.org/2000/svg">
<path d="M11.883 21.3498C17.1114 21.3498 21.3499 17.1113 21.3499 11.8829C21.3499 6.6544 17.1114 2.4159 11.883 2.4159C6.65452 2.4159 2.41602 6.6544 2.41602 11.8829C2.41602 17.1113 6.65452 21.3498 11.883 21.3498Z" fill="#FF8686"/>
<path d="M11.8823 2.4159C11.8747 2.4159 11.867 2.41618 11.8594 2.41618V21.3495C11.867 21.3495 11.8746 21.3498 11.8823 21.3498C17.1108 21.3498 21.3493 17.1113 21.3493 11.8829C21.3493 6.65438 17.1108 2.4159 11.8823 2.4159Z" fill="#F96262"/>
<path d="M11.8829 22.7657C5.88204 22.7657 1 17.8837 1 11.8829C1 5.88204 5.88204 1 11.8829 1C17.8837 1 22.7657 5.88204 22.7657 11.8829C22.7657 17.8837 17.8837 22.7657 11.8829 22.7657ZM11.8829 3.83181C7.4435 3.83181 3.83181 7.4435 3.83181 11.8829C3.83181 16.3222 7.4435 19.9339 11.8829 19.9339C16.3222 19.9339 19.9339 16.3222 19.9339 11.8829C19.9339 7.4435 16.3222 3.83181 11.8829 3.83181Z" fill="#FFCACA"/>
<path d="M11.8823 1C11.8747 1 11.867 1.00028 11.8594 1.00028V3.83209C11.867 3.83209 11.8746 3.83181 11.8823 3.83181C16.3217 3.83181 19.9334 7.4435 19.9334 11.8829C19.9334 16.3222 16.3217 19.9339 11.8823 19.9339C11.8747 19.9339 11.867 19.9336 11.8594 19.9336V22.7654C11.867 22.7654 11.8746 22.7657 11.8823 22.7657C17.8831 22.7657 22.7652 17.8837 22.7652 11.8829C22.7652 5.88204 17.8831 1 11.8823 1Z" fill="#FFB7B7"/>
</svg>
