<svg width="32" height="32" viewBox="0 0 32 32" fill="none" xmlns="http://www.w3.org/2000/svg">
<g clip-path="url(#clip0_11819_3824)">
<path d="M18.4366 21.1779L12.0293 26.5379L12.4293 19.4033L18.4366 19.7597V21.1779V21.1779Z" fill="#2A60B7"/>
<path d="M18.4366 21.1779L12.0293 26.5379L12.4293 19.4033L18.4366 19.7597V21.1779V21.1779Z" fill="#4980E2"/>
<path d="M24.2766 27.8035L12.4294 19.4035L8.56754 17.6216L1.1639 15.0835C0.902085 14.9671 0.727539 14.7053 0.727539 14.4216C0.727539 14.138 0.894812 13.8689 1.1639 13.7525L29.2221 2.63982C30.2039 2.25437 31.5203 2.44346 31.0185 4.14527L26.2475 27.0762C26.1457 27.4835 25.8548 27.818 25.4548 27.9635C25.0621 28.1089 24.6184 28.0507 24.2766 27.8035V27.8035Z" fill="#6DB3FA"/>
<path d="M24.2766 27.8035L12.4294 19.4035L8.56754 17.6216L1.1639 15.0835C0.902085 14.9671 0.727539 14.7053 0.727539 14.4216C0.727539 14.138 0.894812 13.8689 1.1639 13.7525L29.2221 2.63982C30.2039 2.25437 31.5203 2.44346 31.0185 4.14527L26.2475 27.0762C26.1457 27.4835 25.8548 27.818 25.4548 27.9635C25.0621 28.1089 24.6184 28.0507 24.2766 27.8035V27.8035Z" fill="url(#paint0_linear_11819_3824)"/>
<path d="M12.4292 19.4034L12.1674 26.2398C12.1674 26.4507 12.0147 26.6252 11.811 26.6543C11.6074 26.6834 11.411 26.5525 11.3528 26.3489L8.56738 17.6216L25.1419 7.37433C25.2656 7.27979 25.4474 7.30888 25.5419 7.43251C25.5856 7.49069 25.6074 7.57069 25.6001 7.64342C25.5928 7.71615 25.5492 7.78888 25.4837 7.83251L12.4292 19.4034V19.4034Z" fill="#6098FA"/>
<path d="M24.7278 31.9996C28.7444 31.9996 32.0005 28.7434 32.0005 24.7268C32.0005 20.7102 28.7444 17.4541 24.7278 17.4541C20.7112 17.4541 17.4551 20.7102 17.4551 24.7268C17.4551 28.7434 20.7112 31.9996 24.7278 31.9996Z" fill="#F03465"/>
<path d="M27.4257 26.3483L25.8038 24.7265L27.4257 23.1047C27.7238 22.8065 27.7238 22.3192 27.4257 22.0283C27.1275 21.7374 26.6402 21.7301 26.3493 22.0283L24.7275 23.6501L23.1057 22.0283C22.8075 21.7301 22.3202 21.7301 22.0293 22.0283C21.7384 22.3265 21.7311 22.8138 22.0293 23.1047L23.6511 24.7265L22.0293 26.3483C21.7311 26.6465 21.7311 27.1338 22.0293 27.4247C22.3275 27.7156 22.8148 27.7229 23.1057 27.4247L24.7275 25.8029L26.3493 27.4247C26.6475 27.7229 27.1348 27.7229 27.4257 27.4247C27.7166 27.1265 27.7238 26.6392 27.4257 26.3483V26.3483Z" fill="white"/>
</g>
<defs>
<linearGradient id="paint0_linear_11819_3824" x1="30.0948" y1="14.9235" x2="18.2984" y2="16.458" gradientUnits="userSpaceOnUse">
<stop stop-color="#A9CEFF"/>
<stop offset="1" stop-color="#80BEFF"/>
</linearGradient>
<clipPath id="clip0_11819_3824">
<rect width="32" height="32" fill="white"/>
</clipPath>
</defs>
</svg>
