<svg width="24" height="24" viewBox="0 0 24 24" fill="none" xmlns="http://www.w3.org/2000/svg">
<path d="M11.883 21.3498C17.1114 21.3498 21.3499 17.1113 21.3499 11.8829C21.3499 6.6544 17.1114 2.41589 11.883 2.41589C6.65452 2.41589 2.41602 6.6544 2.41602 11.8829C2.41602 17.1113 6.65452 21.3498 11.883 21.3498Z" fill="#FFAA00"/>
<path d="M11.8833 2.41589C11.8756 2.41589 11.868 2.41618 11.8604 2.41618V21.3495C11.868 21.3495 11.8756 21.3498 11.8833 21.3498C17.1118 21.3498 21.3502 17.1113 21.3502 11.8829C21.3502 6.65437 17.1118 2.41589 11.8833 2.41589Z" fill="#FF9500"/>
<path d="M11.8829 22.7657C5.88204 22.7657 1 17.8837 1 11.8829C1 5.88204 5.88204 1 11.8829 1C17.8837 1 22.7657 5.88204 22.7657 11.8829C22.7657 17.8837 17.8837 22.7657 11.8829 22.7657ZM11.8829 3.83181C7.4435 3.83181 3.83181 7.4435 3.83181 11.8829C3.83181 16.3222 7.4435 19.9339 11.8829 19.9339C16.3222 19.9339 19.9339 16.3222 19.9339 11.8829C19.9339 7.4435 16.3222 3.83181 11.8829 3.83181Z" fill="#FFCE00"/>
<path d="M11.8833 1C11.8756 1 11.868 1.00028 11.8604 1.00028V3.83209C11.868 3.83209 11.8756 3.83181 11.8833 3.83181C16.3227 3.83181 19.9343 7.4435 19.9343 11.8829C19.9343 16.3222 16.3227 19.9339 11.8833 19.9339C11.8756 19.9339 11.868 19.9336 11.8604 19.9336V22.7654C11.868 22.7654 11.8756 22.7657 11.8833 22.7657C17.8841 22.7657 22.7662 17.8837 22.7662 11.8829C22.7662 5.88204 17.8841 1 11.8833 1Z" fill="#FDBA12"/>
</svg>
