<svg width="24" height="24" viewBox="0 0 24 24" fill="none" xmlns="http://www.w3.org/2000/svg">
<path d="M22 11C22 12.1046 21.1046 13 20 13V7.99999C21.1046 7.99999 22 8.89542 22 9.99999V11Z" fill="#FFCE00"/>
<path d="M1 8.16689C1 7.06232 1.89543 6.16689 3 6.16689H6V14.5002H3C1.89543 14.5002 1 13.6048 1 12.5002V8.16689Z" fill="url(#paint0_linear_4809_5256)"/>
<path d="M4.33328 6.16689H6V14.5002H4.33328V6.16689Z" fill="url(#paint1_linear_4809_5256)"/>
<path d="M8 22C6.89543 22 6 21.1046 6 20V14.5002L11 14.5V20C11 21.1046 10.1046 22 9 22H8Z" fill="#0055DA"/>
<path d="M8 22C6.89543 22 6 21.1046 6 20H11C11 21.1046 10.1046 22 9 22H8Z" fill="url(#paint2_linear_4809_5256)"/>
<path d="M6 6.16689L17.6023 2.7542C18.8833 2.37745 20.1667 3.33772 20.1667 4.67293V15.9937C20.1667 17.3289 18.8833 18.2892 17.6023 17.9124L6 14.5002V6.16689Z" fill="url(#paint3_linear_4809_5256)"/>
<defs>
<linearGradient id="paint0_linear_4809_5256" x1="1" y1="2.67166" x2="22.5297" y2="3.28089" gradientUnits="userSpaceOnUse">
<stop stop-color="#216FEA"/>
<stop offset="1" stop-color="#3382FF"/>
</linearGradient>
<linearGradient id="paint1_linear_4809_5256" x1="11.5" y1="2.67166" x2="11.5" y2="22" gradientUnits="userSpaceOnUse">
<stop stop-color="#FAE100"/>
<stop offset="0.774623" stop-color="#FFCE00"/>
</linearGradient>
<linearGradient id="paint2_linear_4809_5256" x1="11.5" y1="2.67166" x2="11.5" y2="22" gradientUnits="userSpaceOnUse">
<stop stop-color="#FAE100"/>
<stop offset="0.774623" stop-color="#FFCE00"/>
</linearGradient>
<linearGradient id="paint3_linear_4809_5256" x1="1" y1="2.67166" x2="22.5297" y2="3.28089" gradientUnits="userSpaceOnUse">
<stop stop-color="#216FEA"/>
<stop offset="1" stop-color="#3382FF"/>
</linearGradient>
</defs>
</svg>
