<svg width="160" height="160" viewBox="0 0 160 160" fill="none" xmlns="http://www.w3.org/2000/svg">
<circle cx="80.0001" cy="77.5543" r="76.4571" fill="url(#paint0_linear_3655_5027)"/>
<path d="M95.3603 79.7829C95.3603 79.7829 104 110.554 107.257 115.714C110.515 120.874 119.189 128.674 119.189 128.674L112.857 137.246C112.857 137.246 97.9774 129.714 88.5717 116.743C79.166 103.771 95.3603 79.7829 95.3603 79.7829Z" fill="#6DB3FA"/>
<path d="M95.3603 79.7829C95.3603 79.7829 104 110.554 107.257 115.714C110.515 120.874 119.189 128.674 119.189 128.674L112.857 137.246C112.857 137.246 97.9774 129.714 88.5717 116.743C79.166 103.771 95.3603 79.7829 95.3603 79.7829Z" fill="url(#paint1_linear_3655_5027)"/>
<path d="M74.2518 72.0743C65.6004 70.9714 49.8632 68.7714 39.7832 74.4228C29.9547 79.9371 34.4918 95.3028 32.5718 112C31.8232 118.451 31.429 127.72 31.2461 136.469C44.9465 147.837 62.1972 154.047 80.0004 154.017C83.7332 154.017 87.4611 153.746 91.1547 153.206C91.1089 144.68 90.3261 133.6 91.7261 129.006C94.3432 120.531 94.3432 100.84 94.3432 100.84C94.3432 100.84 96.7089 82.5257 95.3375 79.7828C94.2861 77.6571 91.7489 74.2857 74.2518 72.0743Z" fill="#6DB3FA"/>
<path d="M88.6918 50.0343C88.8503 53.4693 88.7012 56.9116 88.2461 60.32C87.5033 65.3829 86.1604 70.6057 79.7604 70.6057C79.7604 70.6057 79.3147 73.1371 78.869 75.0743C78.4233 77.0114 73.0575 78.2 70.3775 75.6457C68.1947 73.5829 69.2347 71.2457 69.6918 68.1143C70.109 65.3429 70.6747 62.4 70.6747 62.4C70.6747 62.4 67.1033 59.1257 68.7433 54.36C70.3833 49.5943 74.4004 46.6171 80.2061 46.9314C86.0118 47.2457 88.3947 49.1429 88.6918 50.0343Z" fill="#FEC6BD"/>
<path d="M79.7832 70.5829C79.7832 70.5829 79.3375 73.1143 78.8918 75.0571C78.446 77 73.0746 78.1886 70.3889 75.6286C68.2003 73.5657 69.4632 70.8914 69.9318 67.76C70.3546 64.9829 70.686 62.3543 70.686 62.3543C70.686 62.3543 71.5775 66.9257 74.566 68.8857C77.8689 71.0514 79.7832 70.5829 79.7832 70.5829Z" fill="url(#paint2_linear_3655_5027)"/>
<path d="M73.5082 57.0343C73.5082 57.0343 72.1653 53.9086 70.5253 55.2457C68.8853 56.5829 69.9539 59.2457 71.2739 60.4571L70.4853 64.0514C70.4853 64.0514 67.9482 62.8571 65.7653 54.9086C63.4796 46.5657 69.931 40.9257 75.291 39.88C80.651 38.8343 84.2053 39.8171 87.291 44.5829C89.8453 48.5829 89.3596 49.7257 84.2968 50.4686C79.2339 51.2114 80.2339 50.6 77.2568 50.7486C74.2796 50.8971 75.4682 54.1771 75.4682 56.1143C75.4682 58.0514 73.5082 57.0343 73.5082 57.0343Z" fill="#37475E"/>
<rect x="24.0596" y="98.6162" width="63.4" height="46.7943" rx="2.9" transform="rotate(14.04 24.0596 98.6162)" fill="#FFE200"/>
<path d="M70.2861 158.417L16.5718 144.989C15.5331 144.733 14.64 144.073 14.0918 143.154L50.7432 122.194L73.3775 157.926C72.4566 158.503 71.3405 158.68 70.2861 158.417Z" fill="#EDD000"/>
<path d="M43.3945 151.691L16.606 144.989C15.5673 144.733 14.6742 144.073 14.126 143.154L50.7774 122.194L43.3945 151.691Z" fill="url(#paint3_linear_3655_5027)"/>
<path d="M43.5547 151.731L70.349 158.434C71.3845 158.695 72.4812 158.53 73.3947 157.977L50.9318 122.234L43.5547 151.731Z" fill="url(#paint4_linear_3655_5027)"/>
<path d="M14.8174 135.543L23.0745 102.526C23.3267 101.485 23.9857 100.589 24.904 100.038C25.8223 99.4868 26.9232 99.327 27.9602 99.5943L54.8174 106.309L45.566 143.234L14.8174 135.543Z" fill="url(#paint5_linear_3655_5027)"/>
<path d="M76.3197 150.926L84.7601 117.338C85.0275 116.301 85.3099 115.395 84.7601 114.476C84.2103 113.558 83.2839 113.395 82.2442 113.141L54.8054 106.286L45.5654 143.234L76.3197 150.926Z" fill="url(#paint6_linear_3655_5027)"/>
<path d="M14.5036 136.772L22.8199 103.153C23.0702 102.112 23.2466 101.179 24.1631 100.626C25.0796 100.074 25.9743 100.364 27.0113 100.629L54.4568 107.457L45.2689 144.419L14.5036 136.772Z" fill="url(#paint7_linear_3655_5027)"/>
<path d="M47.4287 135.531L24.8916 100.057C25.8105 99.4962 26.9167 99.3293 27.9602 99.5943L82.2128 113.135C83.2493 113.392 84.1821 113.543 84.729 114.46L47.4287 135.531Z" fill="#FFE200"/>
<path d="M40.0005 146.103C40.0005 146.103 43.7548 147.314 44.0519 147.874C44.349 148.434 43.269 148.411 41.9662 148.097C40.6633 147.783 41.5033 150.137 43.4862 152.057C45.469 153.977 44.1376 155.057 41.9205 154.149C39.7033 153.24 37.1719 151.08 36.4805 148.229L36.6805 144.474L40.0005 146.103Z" fill="#EFA29E"/>
<path d="M39.7831 74.4229C39.7831 74.4229 26.286 85.8686 16.4803 109.714C12.9946 118.194 20.3489 137.663 36.4803 149.497L40.2689 145.526C40.2689 145.526 29.8346 123.811 33.0689 119.183C43.9831 103.657 52.9031 94.04 52.9031 94.04L59.4289 75.8686L39.7831 74.4229Z" fill="#6DB3FA"/>
<path d="M89.9998 49.5029C89.9998 49.5029 89.6284 43.7886 85.3884 40.7829C81.1484 37.7771 73.2398 39.0686 68.817 41.9257C62.0741 46.2686 66.0455 56.2114 66.0455 56.2114L75.4284 52.9943L89.9998 49.5029Z" fill="#669CE9"/>
<path d="M75.4287 52.9943C75.4287 52.9943 79.0401 57.2286 81.143 57.3543C83.2459 57.48 85.143 55.4857 88.9944 54.8629C92.8459 54.24 93.9773 55.8571 94.9773 55.7314C95.9773 55.6057 89.9887 49.5029 89.9887 49.5029C89.9887 49.5029 82.8973 46.8857 75.4287 52.9943Z" fill="#6DB3FA"/>
<path d="M114.286 145.771L90.4056 154.023C89.7498 154.215 89.0412 154.044 88.5463 153.572C88.0514 153.101 87.8453 152.402 88.0056 151.737L96.8113 119.429C97.3639 117.896 98.5769 116.694 100.114 116.154L124.428 108.571C125.886 108.12 127.4 109.206 127.034 110.56L117.588 142.514C117.036 144.043 115.822 145.24 114.286 145.771Z" fill="#ACD4F7"/>
<path d="M114.949 146.434L90.6347 154.017C89.1776 154.474 88.2976 153.743 88.669 152.394L97.4747 120.08C98.0273 118.547 99.2403 117.345 100.778 116.806L125.092 109.223C126.549 108.771 127.429 109.497 127.063 110.851L118.252 143.166C117.702 144.699 116.488 145.901 114.949 146.434Z" fill="#D5E8FF"/>
<path d="M118.337 109.474L106.794 113.074C106.475 113.19 106.224 113.441 106.108 113.76L105.954 114.331L118.594 110.389L118.748 109.817C118.823 109.531 118.64 109.383 118.337 109.474Z" fill="#6DB3FA"/>
<path d="M121.777 130.286C121.097 130.314 118.405 130.72 117.502 131.394C116.6 132.069 117.691 132.486 118.822 132.4C119.954 132.314 121.017 131.994 120.457 132.291C119.897 132.589 116.422 132.56 116.24 133.8C116.057 135.04 119.994 133.623 120.24 133.926C120.485 134.229 117.154 134.154 116.811 134.749C116.468 135.343 116.811 135.6 117.651 135.611C118.491 135.623 119.662 135.246 119.588 135.583C119.514 135.92 117.737 135.674 117.434 136.103C117.131 136.531 117.36 137.069 118.44 137.149C119.52 137.229 120.154 137.617 120.885 136.36C121.617 135.103 123.268 130.2 121.777 130.286Z" fill="#FEC6BD"/>
<path d="M113.44 24.1829C107.592 24.1795 102.379 27.8706 100.44 33.3883C98.5008 38.906 100.258 45.0466 104.823 48.7029L103.429 54.6914C103.386 54.8748 103.468 55.0644 103.631 55.1589C103.794 55.2535 103.999 55.2307 104.137 55.1029L108.617 50.8572C110.158 51.4414 111.792 51.7415 113.44 51.7429C121.049 51.7429 127.217 45.5746 127.217 37.9657C127.217 30.3568 121.049 24.1886 113.44 24.1886V24.1829Z" fill="#255299"/>
<path d="M117.617 42.96C117.346 42.9583 117.087 42.8494 116.897 42.6571L108.983 34.7429C108.79 34.5528 108.682 34.2935 108.682 34.0229C108.682 33.7522 108.79 33.4929 108.983 33.3029C109.381 32.9078 110.024 32.9078 110.423 33.3029L118.337 41.2229C118.607 41.5173 118.682 41.9423 118.527 42.3109C118.372 42.6795 118.017 42.9241 117.617 42.9372V42.96Z" fill="white"/>
<path d="M109.714 42.96C109.315 42.947 108.959 42.7024 108.804 42.3338C108.65 41.9652 108.724 41.5401 108.994 41.2457L116.909 33.3257C117.307 32.9306 117.95 32.9306 118.349 33.3257C118.541 33.5158 118.65 33.7751 118.65 34.0457C118.65 34.3163 118.541 34.5757 118.349 34.7657L110.423 42.6571C110.235 42.8466 109.981 42.9553 109.714 42.96Z" fill="white"/>
<defs>
<linearGradient id="paint0_linear_3655_5027" x1="1.52297" y1="45.8371" x2="51.0258" y2="148.151" gradientUnits="userSpaceOnUse">
<stop stop-color="#F0FAFF"/>
<stop offset="1" stop-color="#EDFAFF" stop-opacity="0.2"/>
</linearGradient>
<linearGradient id="paint1_linear_3655_5027" x1="92.7361" y1="114.207" x2="98.3441" y2="114.054" gradientUnits="userSpaceOnUse">
<stop stop-color="#133E92" stop-opacity="0.4"/>
<stop offset="1" stop-color="#133E92" stop-opacity="0.01"/>
</linearGradient>
<linearGradient id="paint2_linear_3655_5027" x1="78.2851" y1="64.4734" x2="71.9656" y2="64.9979" gradientUnits="userSpaceOnUse">
<stop stop-color="#F7B0A9"/>
<stop offset="1" stop-color="#F7B0A9" stop-opacity="0.01"/>
</linearGradient>
<linearGradient id="paint3_linear_3655_5027" x1="30.453" y1="133.366" x2="31.7059" y2="136.75" gradientUnits="userSpaceOnUse">
<stop stop-color="#E2BD00"/>
<stop offset="1" stop-color="#E2BD00" stop-opacity="0.01"/>
</linearGradient>
<linearGradient id="paint4_linear_3655_5027" x1="61.2369" y1="134.921" x2="57.9187" y2="136.337" gradientUnits="userSpaceOnUse">
<stop stop-color="#E2BD00"/>
<stop offset="1" stop-color="#E2BD00" stop-opacity="0.01"/>
</linearGradient>
<linearGradient id="paint5_linear_3655_5027" x1="4.27284" y1="-28.6975" x2="-3.62958" y2="-21.2149" gradientUnits="userSpaceOnUse">
<stop stop-color="#E2BD00"/>
<stop offset="1" stop-color="#E2BD00" stop-opacity="0.01"/>
</linearGradient>
<linearGradient id="paint6_linear_3655_5027" x1="56.8078" y1="121.539" x2="62.8663" y2="130.57" gradientUnits="userSpaceOnUse">
<stop stop-color="#E2BD00"/>
<stop offset="1" stop-color="#E2BD00" stop-opacity="0.01"/>
</linearGradient>
<linearGradient id="paint7_linear_3655_5027" x1="45.528" y1="119.985" x2="35.9389" y2="125.114" gradientUnits="userSpaceOnUse">
<stop stop-color="#E2BD00"/>
<stop offset="1" stop-color="#E2BD00" stop-opacity="0.01"/>
</linearGradient>
</defs>
</svg>
