<svg width="160" height="160" viewBox="0 0 160 160" fill="none" xmlns="http://www.w3.org/2000/svg">
<rect width="160" height="160" fill="#E9F0FF"/>
<g clip-path="url(#clip0_3467_2749)">
<path d="M67.063 63.3354L60.0399 100.04L59.126 104.828L105.935 104.604C108.034 104.604 109.895 102.692 110.572 99.8673L118.865 65.23C119.389 63.0942 118.255 60.8724 116.664 60.8724H69.2798C68.2475 60.924 67.3338 61.9058 67.063 63.3354Z" fill="url(#paint0_linear_3467_2749)" fill-opacity="0.4"/>
<path d="M101.451 97.542L96.4931 56.8936C96.4192 56.1163 96.0687 55.3932 95.5077 54.8604C94.9468 54.3275 94.2139 54.0216 93.4469 54H82.5822C82.1781 54.0021 81.7788 54.0888 81.409 54.2547C81.0393 54.4207 80.7072 54.6623 80.4331 54.9645L75.2715 60.5451L45.0469 60.7173C44.5951 60.7408 44.1531 60.8606 43.7496 61.0689C43.3461 61.2772 42.9902 61.5694 42.7047 61.9265C42.4192 62.2837 42.2103 62.6979 42.092 63.1424C41.9737 63.5868 41.9483 64.0516 42.0176 64.5066L46.6207 102.072C46.6946 102.849 47.0451 103.572 47.606 104.105C48.167 104.638 48.8999 104.944 49.6669 104.966L102.348 104.862C108.204 104.983 108.762 103.14 108.762 103.14C102.044 104.776 101.451 97.542 101.451 97.542Z" fill="url(#paint1_linear_3467_2749)"/>
<path d="M56.0465 86.6049C57.7662 86.6049 59.1603 85.186 59.1603 83.4357C59.1603 81.6854 57.7662 80.2665 56.0465 80.2665C54.3267 80.2665 52.9326 81.6854 52.9326 83.4357C52.9326 85.186 54.3267 86.6049 56.0465 86.6049Z" fill="#155EEC" fill-opacity="0.4"/>
<path d="M80.7027 86.6049C82.4224 86.6049 83.8166 85.186 83.8166 83.4357C83.8166 81.6854 82.4224 80.2665 80.7027 80.2665C78.983 80.2665 77.5889 81.6854 77.5889 83.4357C77.5889 85.186 78.983 86.6049 80.7027 86.6049Z" fill="#155EEC" fill-opacity="0.4"/>
<g clip-path="url(#clip1_3467_2749)">
<path d="M74.7289 86.4647C72.8585 88.1896 70.4427 89.215 67.8952 89.3653C66.8868 89.2829 65.9162 88.9471 65.0744 88.3896C64.2325 87.832 63.5471 87.0709 63.0827 86.1778C62.9964 86.0417 62.9393 85.8894 62.9145 85.7305C62.8896 85.5715 62.8977 85.4091 62.9384 85.2534C62.9748 85.0968 63.0434 84.9494 63.1401 84.8205C63.2367 84.6915 63.3592 84.584 63.4998 84.5044C63.6899 84.3791 63.9133 84.3125 64.1415 84.3132L64.4303 84.3132C64.5859 84.3492 64.7327 84.4157 64.8621 84.5087C64.9916 84.6017 65.1011 84.7195 65.1842 84.855C65.6494 85.62 66.6118 86.8791 67.8791 86.8791C69.8245 86.7258 71.6587 85.9159 73.0768 84.5841C73.1991 84.4773 73.3413 84.3955 73.4955 84.3435C73.6496 84.2915 73.8126 84.2704 73.975 84.2813C74.1376 84.2896 74.2967 84.3307 74.4428 84.4019C74.589 84.4731 74.7192 84.573 74.8253 84.6957C74.9413 84.8154 75.0311 84.9575 75.0894 85.1133C75.1478 85.269 75.1733 85.4351 75.1643 85.601C75.1552 85.7669 75.1118 85.9292 75.037 86.0778C74.9621 86.2264 74.8572 86.3581 74.7289 86.4647Z" fill="#155EEC" fill-opacity="0.4"/>
</g>
</g>
<defs>
<linearGradient id="paint0_linear_3467_2749" x1="89.0601" y1="60.8724" x2="89.0601" y2="104.828" gradientUnits="userSpaceOnUse">
<stop stop-color="#155EEC"/>
<stop offset="1" stop-color="#0038FF"/>
</linearGradient>
<linearGradient id="paint1_linear_3467_2749" x1="75.3709" y1="54" x2="75.3709" y2="104.966" gradientUnits="userSpaceOnUse">
<stop stop-color="#D9E5FF"/>
<stop offset="1" stop-color="#C9DAFF"/>
</linearGradient>
<clipPath id="clip0_3467_2749">
<rect width="77" height="51" fill="white" transform="translate(42 54)"/>
</clipPath>
<clipPath id="clip1_3467_2749">
<rect width="14" height="6" fill="white" transform="matrix(1 8.74228e-08 8.74228e-08 -1 62 90)"/>
</clipPath>
</defs>
</svg>
