<svg width="200" height="200" viewBox="0 0 200 200" fill="none" xmlns="http://www.w3.org/2000/svg">
<path d="M199.401 99.639C199.506 151.326 160.001 194.478 108.506 198.924C105.618 199.179 102.703 199.307 99.762 199.307C44.7329 199.307 0.123047 154.697 0.123047 99.6679C0.123047 44.6388 44.7329 0.0288849 99.762 0.0288849C154.791 0.0288849 199.401 44.6388 199.401 99.6679V99.639Z" fill="url(#paint0_linear_4786_5092)"/>
<path d="M76.4111 109.697L76.9454 109.43C63.292 82.2455 55.0104 52.657 55.8335 34.0361H55.2415C54.4039 52.7076 62.7144 82.4332 76.4111 109.697Z" fill="#C9DEFF"/>
<path d="M53.2129 28.8809C53.1552 31.5596 55.5956 34.8809 55.5956 34.8809C55.5956 34.8809 58.166 31.6679 58.2238 28.982C58.2815 26.296 57.1768 25.1986 55.7978 25.1697C54.4187 25.1408 53.2635 26.2166 53.2129 28.8809Z" fill="#C9DEFF"/>
<path d="M57.5454 39.7112C55.8992 41.9278 55.9642 46.2094 55.9642 46.2094C55.9642 46.2094 60.0509 45.0397 61.6971 42.8231C63.3433 40.6065 63.0833 39.0181 61.9353 38.1661C60.7873 37.3141 59.2061 37.4513 57.5454 39.7112Z" fill="#C9DEFF"/>
<path d="M59.5595 50.5921C57.7905 52.9675 57.8627 57.5235 57.8627 57.5235C57.8627 57.5235 62.2454 56.2744 64.0143 53.9134C65.7833 51.5523 65.4584 49.8339 64.2671 48.9242C63.0757 48.0144 61.3284 48.2094 59.5595 50.5921Z" fill="#C9DEFF"/>
<path d="M62.6572 59.9278C60.6789 61.9639 60.1807 66.2888 60.1807 66.2888C60.1807 66.2888 64.5128 65.6534 66.455 63.6173C68.3973 61.5812 68.3684 59.9422 67.3215 58.9242C66.2745 57.9061 64.6283 57.8989 62.6572 59.9278Z" fill="#C9DEFF"/>
<path d="M64.1087 69.6895C62.6647 72.1227 63.1556 76.4476 63.1556 76.4476C63.1556 76.4476 67.199 74.8375 68.6502 72.4116C70.1015 69.9856 69.6755 68.3899 68.4192 67.639C67.1629 66.8881 65.56 67.2563 64.1087 69.6895Z" fill="#C9DEFF"/>
<path d="M66.5418 79.8917C65.531 82.5415 66.7728 86.7076 66.7728 86.7076C66.7728 86.7076 70.4768 84.426 71.4876 81.7834C72.4985 79.1408 71.7981 77.6462 70.4335 77.1264C69.0689 76.6065 67.5526 77.2563 66.5418 79.8917Z" fill="#C9DEFF"/>
<path d="M70.5272 89.9206C69.5163 92.5632 70.7582 96.7365 70.7582 96.7365C70.7582 96.7365 74.4694 94.4549 75.4802 91.8051C76.4911 89.1552 75.7907 87.6751 74.4189 87.1552C73.047 86.6354 71.538 87.2708 70.5272 89.9206Z" fill="#C9DEFF"/>
<path d="M49.004 40.3682C51.3072 42.0866 55.726 42.0144 55.726 42.0144C55.726 42.0144 54.513 37.7689 52.2025 36.0578C49.8921 34.3466 48.2531 34.6137 47.365 35.8123C46.4769 37.0108 46.6935 38.657 49.004 40.3682Z" fill="#C9DEFF"/>
<path d="M50.9605 52.9386C53.2349 54.2816 57.2565 53.7906 57.2565 53.7906C57.2565 53.7906 55.7403 50.0361 53.4731 48.6931C51.206 47.3502 49.7258 47.7617 49.0327 48.9386C48.3396 50.1155 48.6934 51.5957 50.9605 52.9386Z" fill="#C9DEFF"/>
<path d="M52.4834 64.4765C55.2704 65.0686 59.2343 63.1841 59.2343 63.1841C59.2343 63.1841 56.3895 59.8484 53.5953 59.2491C50.8011 58.6498 49.4292 59.5884 49.1187 61.0253C48.8083 62.4621 49.6891 63.8773 52.4834 64.4765Z" fill="#C9DEFF"/>
<path d="M54.9246 73.2274C57.7188 73.8195 61.6827 71.935 61.6827 71.935C61.6827 71.935 58.7946 68.5993 56.0437 68C53.2928 67.4007 51.8704 68.3321 51.5672 69.7762C51.2639 71.2202 52.1304 72.6282 54.9246 73.2274Z" fill="#C9DEFF"/>
<path d="M58.0429 82.3971C60.7866 83.1986 64.8805 81.6173 64.8805 81.6173C64.8805 81.6173 62.2884 78.0722 59.5447 77.2852C56.801 76.4982 55.3642 77.2852 54.9527 78.7292C54.5411 80.1733 55.3065 81.5884 58.0429 82.3971Z" fill="#C9DEFF"/>
<path d="M61.4658 91.9495C64.2095 92.7509 68.3033 91.1625 68.3033 91.1625C68.3033 91.1625 65.704 87.6246 62.9676 86.8303C60.2311 86.0361 58.7871 86.8303 58.3755 88.2744C57.964 89.7184 58.7293 91.148 61.4658 91.9495Z" fill="#C9DEFF"/>
<path d="M65.5664 101.603C68.3101 102.404 72.4039 100.816 72.4039 100.816C72.4039 100.816 69.8046 97.278 67.0682 96.4838C64.3317 95.6895 62.8877 96.4838 62.4761 97.9278C62.0646 99.3718 62.8155 100.801 65.5664 101.603Z" fill="#C9DEFF"/>
<path d="M72.5266 129.884L72.014 130.195C56.3172 104.159 35.6602 81.3791 19.4941 72.1588L19.7829 71.639C36.0357 80.9097 56.7505 103.769 72.5266 129.884Z" fill="#C9DEFF"/>
<path d="M16.52 67.1986C18.8161 68.5848 20.3251 72.4188 20.3251 72.4188C20.3251 72.4188 16.2312 72.8809 13.9352 71.5018C11.6392 70.1227 11.2854 68.6137 12.0002 67.4152C12.715 66.2166 14.2168 65.8195 16.52 67.1986Z" fill="#C9DEFF"/>
<path d="M23.3211 76.6065C26.0865 76.3971 29.646 78.722 29.646 78.722C29.646 78.722 26.4764 81.5596 23.7182 81.7689C20.9601 81.9783 19.7616 80.9097 19.6533 79.4874C19.5449 78.065 20.563 76.8231 23.3211 76.6065Z" fill="#C9DEFF"/>
<path d="M31.4873 84.13C34.4403 83.9061 38.2598 86.3899 38.2598 86.3899C38.2598 86.3899 34.8663 89.4296 31.9133 89.6606C28.9602 89.8917 27.6678 88.7365 27.5811 87.213C27.4945 85.6895 28.5342 84.361 31.4873 84.13Z" fill="#C9DEFF"/>
<path d="M37.7399 91.6968C40.5124 91.1119 44.4402 92.9892 44.4402 92.9892C44.4402 92.9892 41.6099 96.296 38.8373 96.8809C36.0648 97.4657 34.7074 96.5415 34.4041 95.1119C34.1009 93.6823 34.9673 92.3177 37.7399 91.6968Z" fill="#C9DEFF"/>
<path d="M45.227 98.1949C48.0573 98.2599 51.4508 100.989 51.4508 100.989C51.4508 100.989 47.9346 103.552 45.1043 103.487C42.2739 103.422 41.162 102.209 41.1981 100.751C41.2342 99.2924 42.3967 98.0939 45.227 98.1949Z" fill="#C9DEFF"/>
<path d="M52.5628 105.653C55.3426 106.209 58.209 109.48 58.209 109.48C58.209 109.48 54.3029 111.401 51.5303 110.845C48.7577 110.289 47.8624 108.91 48.1512 107.473C48.4401 106.036 49.8191 105.097 52.5628 105.653Z" fill="#C9DEFF"/>
<path d="M58.9238 114.368C61.6963 114.924 64.57 118.202 64.57 118.202C64.57 118.202 60.6638 120.123 57.8841 119.567C55.1043 119.011 54.2234 117.625 54.505 116.195C54.7866 114.765 56.144 113.819 58.9238 114.368Z" fill="#C9DEFF"/>
<path d="M28.469 69.7545C28.6856 72.6426 26.3029 76.3177 26.3029 76.3177C26.3029 76.3177 23.3571 73.0253 23.1405 70.1661C22.9239 67.3068 24.0285 66.0505 25.5087 65.9422C26.9888 65.8339 28.2452 66.8881 28.469 69.7545Z" fill="#C9DEFF"/>
<path d="M38.058 78.1083C37.9858 80.7437 35.4299 83.8845 35.4299 83.8845C35.4299 83.8845 33.0544 80.6065 33.1266 77.9711C33.1988 75.3357 34.3396 74.3032 35.697 74.361C37.0544 74.4188 38.1302 75.4729 38.058 78.1083Z" fill="#C9DEFF"/>
<path d="M47.0108 85.5379C46.0288 88.2238 42.3177 90.5921 42.3177 90.5921C42.3177 90.5921 41.0108 86.4043 42 83.7256C42.9891 81.0469 44.4982 80.3755 45.8844 80.8809C47.2707 81.3863 47.9927 82.8592 47.0108 85.5379Z" fill="#C9DEFF"/>
<path d="M53.1124 92.2744C52.1304 94.9531 48.4192 97.3285 48.4192 97.3285C48.4192 97.3285 47.1124 93.1408 48.1015 90.4621C49.0907 87.7834 50.5997 87.1119 51.986 87.6173C53.3723 88.1227 54.0943 89.5884 53.1124 92.2744Z" fill="#C9DEFF"/>
<path d="M59.2053 99.8051C58.4183 102.549 54.8732 105.162 54.8732 105.162C54.8732 105.162 53.292 101.083 54.079 98.3394C54.866 95.5957 56.3173 94.8159 57.7613 95.2202C59.2053 95.6246 59.9923 97.0542 59.2053 99.8051Z" fill="#C9DEFF"/>
<path d="M65.4733 107.791C64.6863 110.534 61.1412 113.148 61.1412 113.148C61.1412 113.148 59.5311 109.069 60.3109 106.325C61.0906 103.581 62.5636 102.801 63.9787 103.206C65.3939 103.61 66.2531 105.04 65.4733 107.791Z" fill="#C9DEFF"/>
<path d="M71.4802 116.404C70.7004 119.148 67.148 121.762 67.148 121.762C67.148 121.762 65.5379 117.682 66.3177 114.939C67.0975 112.195 68.5632 111.415 69.9856 111.819C71.408 112.224 72.2383 113.653 71.4802 116.404Z" fill="#C9DEFF"/>
<path d="M194.05 128.643C193.935 130.193 193.783 131.733 193.595 133.264C180.529 169.919 147.275 195.579 108.505 198.924C107.617 192.354 106.671 181.227 108.361 170.563C108.766 167.939 109.36 165.348 110.137 162.809C115.812 144.578 126.895 142.527 132.332 148.318C136.917 153.206 141.4 156.022 148.18 154.419C154.96 152.816 159.415 142.144 170.325 133.921C176.173 129.516 185.971 128.729 194.05 128.643Z" fill="url(#paint1_linear_4786_5092)"/>
<path d="M124.036 196.332C118.936 197.607 113.742 198.474 108.505 198.924C105.617 199.179 102.702 199.307 99.7613 199.307C62.5743 199.315 28.4773 178.614 11.3281 145.617C14.6783 137.516 22.4256 143.588 28.5917 148.607C35.0899 153.892 37.2559 151.704 47.1043 144.751C56.9527 137.798 64.6061 141.581 70.1657 150.375C75.7252 159.17 77.2415 151.004 88.0429 151.617C98.6422 152.209 108.014 169.906 108.361 170.563L124.036 196.332Z" fill="url(#paint2_linear_4786_5092)"/>
<path d="M115.855 129.625L115.776 132.664L114.115 198.282C109.611 198.925 105.069 199.258 100.52 199.278V129.711H101.884H107.422L115.855 129.625Z" fill="#88BBF5"/>
<path d="M115.855 129.625L115.776 132.664L114.115 198.282C109.611 198.925 105.069 199.258 100.52 199.278V129.711H101.884H107.422L115.855 129.625Z" fill="url(#paint3_linear_4786_5092)"/>
<path d="M76.6133 51.5668H136.7C144.871 51.5649 152.709 54.8102 158.487 60.5883C164.265 66.3665 167.511 74.2039 167.509 82.3755V125.191C167.509 129.319 164.163 132.664 160.036 132.664H76.6133V51.5668Z" fill="url(#paint4_linear_4786_5092)"/>
<path d="M76.6133 51.5668H136.7C144.871 51.5649 152.709 54.8102 158.487 60.5883C164.265 66.3665 167.511 74.2039 167.509 82.3755V125.191C167.509 129.319 164.163 132.664 160.036 132.664H76.6133V51.5668Z" fill="url(#paint5_linear_4786_5092)"/>
<path d="M107.422 82.3755V132.664H45.8047V82.3755C45.8047 65.3603 59.5982 51.5668 76.6134 51.5668C93.6285 51.5668 107.422 65.3603 107.422 82.3755Z" fill="#D0E7FF"/>
<path d="M101.884 84.1299V132.664H51.3428V84.1299C51.3428 70.1733 62.6569 58.8592 76.6135 58.8592C90.5702 58.8592 101.884 70.1733 101.884 84.1299Z" fill="#669CE9"/>
<path d="M101.884 84.1299V132.664H51.3428V84.1299C51.3428 70.1733 62.6569 58.8592 76.6135 58.8592C90.5702 58.8592 101.884 70.1733 101.884 84.1299Z" fill="url(#paint6_linear_4786_5092)"/>
<path d="M126.91 35.6534C126.91 35.6534 123.502 35.6534 123.538 40.4116V89.1191C123.538 89.1191 122.672 95.7473 130.513 97.1047L127.184 62.8159L126.91 35.6534Z" fill="#2A60B7"/>
<path d="M148.18 43.8484C148.18 45.89 146.525 47.5451 144.484 47.5451H136.917V91.5307C136.917 94.641 134.395 97.1625 131.285 97.1625C128.175 97.1625 125.653 94.641 125.653 91.5307V37.2636C125.653 36.3743 126.374 35.6534 127.263 35.6534L144.592 39.3574C146.693 39.828 148.185 41.6952 148.18 43.8484Z" fill="#508FEA"/>
<path d="M101.885 124.051V132.585L83.9931 148.614C71.8415 159.372 51.3505 164.448 37.0617 158.433C29.1195 155.083 27.6754 147.35 37.5527 137.495L51.7115 127.054L101.885 124.051Z" fill="url(#paint7_linear_4786_5092)"/>
<path d="M101.884 123.682V128.881L83.5881 145.278C71.5665 155.964 51.7686 160.505 36.6567 156.022C29.0972 153.791 28.3751 147.004 37.5448 137.48C37.747 137.271 37.9491 137.054 38.1658 136.845L51.3065 123.697L101.884 123.682Z" fill="url(#paint8_linear_4786_5092)"/>
<path opacity="0.4" d="M101.884 123.682V128.881L83.5881 145.278C71.5665 155.964 51.7686 160.505 36.6567 156.022C29.0972 153.791 28.3751 147.004 37.5448 137.48C37.747 137.271 37.9491 137.054 38.1658 136.845L51.3065 123.697L101.884 123.682Z" fill="url(#paint9_linear_4786_5092)"/>
<defs>
<linearGradient id="paint0_linear_4786_5092" x1="53.069" y1="10.7798" x2="144.845" y2="185.495" gradientUnits="userSpaceOnUse">
<stop stop-color="#EDF7FF"/>
<stop offset="1" stop-color="#EAF7FF" stop-opacity="0.2"/>
</linearGradient>
<linearGradient id="paint1_linear_4786_5092" x1="106.288" y1="164.282" x2="200.857" y2="162.68" gradientUnits="userSpaceOnUse">
<stop stop-color="#CDEAFF"/>
<stop offset="1" stop-color="#F4FAFF"/>
</linearGradient>
<linearGradient id="paint2_linear_4786_5092" x1="10.7433" y1="170.511" x2="131.512" y2="168.468" gradientUnits="userSpaceOnUse">
<stop stop-color="#CDEAFF"/>
<stop offset="1" stop-color="#F4FAFF"/>
</linearGradient>
<linearGradient id="paint3_linear_4786_5092" x1="108.187" y1="125.567" x2="108.187" y2="158.621" gradientUnits="userSpaceOnUse">
<stop stop-color="#133E8F" stop-opacity="0.4"/>
<stop offset="1" stop-color="#133E8F" stop-opacity="0"/>
</linearGradient>
<linearGradient id="paint4_linear_4786_5092" x1="76.6133" y1="92.1155" x2="167.509" y2="92.1155" gradientUnits="userSpaceOnUse">
<stop stop-color="#C0DCFF"/>
<stop offset="1" stop-color="#D2E5FF"/>
</linearGradient>
<linearGradient id="paint5_linear_4786_5092" x1="122.065" y1="38.0217" x2="122.065" y2="121.986" gradientUnits="userSpaceOnUse">
<stop stop-color="#93C2F8"/>
<stop offset="0.13" stop-color="#97C4F9"/>
<stop offset="0.26" stop-color="#A3CBFB"/>
<stop offset="0.39" stop-color="#B8D5FE"/>
<stop offset="0.43" stop-color="#BFD9FF"/>
<stop offset="0.53" stop-color="#B7D5FC"/>
<stop offset="0.72" stop-color="#AED0F9"/>
<stop offset="1" stop-color="#ABCFF8"/>
</linearGradient>
<linearGradient id="paint6_linear_4786_5092" x1="51.35" y1="95.7617" x2="101.884" y2="95.7617" gradientUnits="userSpaceOnUse">
<stop stop-color="#5F99EE"/>
<stop offset="0.238856" stop-color="#6CA5F1"/>
<stop offset="0.521299" stop-color="#7DB5F4"/>
<stop offset="0.7965" stop-color="#87BEF6"/>
<stop offset="1" stop-color="#8AC1F7"/>
</linearGradient>
<linearGradient id="paint7_linear_4786_5092" x1="30.6429" y1="142.527" x2="101.885" y2="142.527" gradientUnits="userSpaceOnUse">
<stop stop-color="#80B8EC"/>
<stop offset="0.24" stop-color="#7DB4ED"/>
<stop offset="0.47" stop-color="#72A9F2"/>
<stop offset="0.68" stop-color="#6097F9"/>
<stop offset="1" stop-color="#AFD6FB"/>
</linearGradient>
<linearGradient id="paint8_linear_4786_5092" x1="30.83" y1="140.708" x2="101.884" y2="140.708" gradientUnits="userSpaceOnUse">
<stop stop-color="#A8CDF7"/>
<stop offset="1" stop-color="#BED8FF"/>
</linearGradient>
<linearGradient id="paint9_linear_4786_5092" x1="41.3282" y1="146.351" x2="57.3266" y2="128.258" gradientUnits="userSpaceOnUse">
<stop stop-color="#4A8FD1" stop-opacity="0.4"/>
<stop offset="1" stop-color="#4A8FD1" stop-opacity="0"/>
</linearGradient>
</defs>
</svg>
