<svg width="24" height="24" viewBox="0 0 24 24" fill="none" xmlns="http://www.w3.org/2000/svg">
<path d="M20.6399 11.4C20.6399 6.62827 16.7716 2.76001 11.9999 2.76001C7.22816 2.76001 3.3599 6.62827 3.3599 11.4C3.3599 16.1717 7.22816 20.04 11.9999 20.04V22.2C6.03522 22.2 1.1999 17.3647 1.1999 11.4C1.1999 5.43533 6.03522 0.600006 11.9999 0.600006C17.9646 0.600006 22.7999 5.43533 22.7999 11.4H20.6399Z" fill="#51A0FF"/>
<path d="M0 9.00001C0 7.67452 1.07452 6.60001 2.4 6.60001C3.72548 6.60001 4.8 7.67452 4.8 9.00001V12.6C4.8 13.9255 3.72548 15 2.4 15C1.07452 15 0 13.9255 0 12.6V9.00001Z" fill="url(#paint0_linear_4809_5254)"/>
<path d="M14.3999 21C14.3999 22.3255 13.3254 23.4 11.9999 23.4C10.6745 23.4 9.59995 22.3255 9.59995 21C9.59995 19.6745 10.6745 18.6 11.9999 18.6C13.3254 18.6 14.3999 19.6745 14.3999 21Z" fill="#0055DA"/>
<path d="M19.1999 9.00001C19.1999 7.67452 20.2744 6.60001 21.5999 6.60001C22.9254 6.60001 23.9999 7.67452 23.9999 9.00001V12.6C23.9999 13.9255 22.9254 15 21.5999 15C20.2744 15 19.1999 13.9255 19.1999 12.6V9.00001Z" fill="url(#paint1_linear_4809_5254)"/>
<path d="M18 11.4C18 14.7137 15.3137 17.4 12 17.4C8.68629 17.4 6 14.7137 6 11.4C6 8.08627 8.68629 5.39998 12 5.39998C15.3137 5.39998 18 8.08627 18 11.4Z" fill="url(#paint2_linear_4809_5254)"/>
<defs>
<linearGradient id="paint0_linear_4809_5254" x1="0" y1="0.600006" x2="24.6065" y2="1.2746" gradientUnits="userSpaceOnUse">
<stop stop-color="#0055DA"/>
<stop offset="1" stop-color="#216FEA"/>
</linearGradient>
<linearGradient id="paint1_linear_4809_5254" x1="0" y1="0.600006" x2="24.6065" y2="1.2746" gradientUnits="userSpaceOnUse">
<stop stop-color="#0055DA"/>
<stop offset="1" stop-color="#216FEA"/>
</linearGradient>
<linearGradient id="paint2_linear_4809_5254" x1="12" y1="5.39998" x2="12" y2="17.4" gradientUnits="userSpaceOnUse">
<stop stop-color="#FAE100"/>
<stop offset="0.774623" stop-color="#FFCE00"/>
</linearGradient>
</defs>
</svg>
