<svg width="44" height="44" viewBox="0 0 44 44" fill="none" xmlns="http://www.w3.org/2000/svg">
<path d="M21.6966 8.7231C13.2153 8.7231 6.33984 14.117 6.33984 20.8506C6.33984 25.1533 9.18763 28.9415 13.4371 31.0884L11.9911 36.4912C11.9686 36.5577 11.9622 36.6285 11.9725 36.6979C11.9827 36.7674 12.0093 36.8333 12.05 36.8905C12.0907 36.9476 12.1444 36.9943 12.2066 37.0267C12.2688 37.0591 12.3379 37.0762 12.408 37.0768C12.508 37.0755 12.6047 37.0412 12.683 36.9792L18.8932 32.7829C19.8072 32.9119 20.7291 32.9771 21.6522 32.9781C30.1246 32.9781 37.0001 27.5486 37.0001 20.8506C37.0001 14.1525 30.169 8.7231 21.6966 8.7231ZM13.9783 24.0621C13.9896 24.165 13.9792 24.2691 13.9476 24.3677C13.9159 24.4662 13.8639 24.557 13.7949 24.6341C13.7258 24.7112 13.6412 24.7729 13.5467 24.8151C13.4522 24.8573 13.3499 24.8792 13.2464 24.8792C13.1429 24.8792 13.0405 24.8573 12.946 24.8151C12.8515 24.7729 12.767 24.7112 12.6979 24.6341C12.6289 24.557 12.5768 24.4662 12.5452 24.3677C12.5136 24.2691 12.5031 24.165 12.5145 24.0621V18.7391H10.9353C10.847 18.7444 10.7585 18.7308 10.6759 18.6991C10.5932 18.6674 10.5183 18.6184 10.4561 18.5554C10.394 18.4924 10.346 18.4168 10.3154 18.3338C10.2848 18.2507 10.2724 18.162 10.2788 18.0738C10.2752 17.9858 10.2896 17.8979 10.321 17.8157C10.3525 17.7334 10.4005 17.6584 10.4619 17.5953C10.5234 17.5322 10.597 17.4823 10.6784 17.4486C10.7598 17.4149 10.8473 17.3982 10.9353 17.3995H15.4865C15.5745 17.3982 15.662 17.4149 15.7434 17.4486C15.8248 17.4823 15.8984 17.5322 15.9599 17.5953C16.0213 17.6584 16.0693 17.7334 16.1008 17.8157C16.1322 17.8979 16.1466 17.9858 16.143 18.0738C16.1494 18.162 16.137 18.2507 16.1064 18.3338C16.0758 18.4168 16.0279 18.4924 15.9657 18.5554C15.9035 18.6184 15.8286 18.6674 15.7459 18.6991C15.6633 18.7308 15.5748 18.7444 15.4865 18.7391H13.9783V24.0621ZM21.0756 24.8339C20.9146 24.8454 20.7547 24.8003 20.6234 24.7063C20.4922 24.6124 20.398 24.4755 20.357 24.3194L20.0376 23.3169H16.9414L16.6398 24.3105C16.6043 24.4668 16.5142 24.6054 16.3858 24.7013C16.2573 24.7972 16.0989 24.8442 15.9389 24.8339C15.8461 24.8375 15.7536 24.8226 15.6666 24.7901C15.5797 24.7575 15.5 24.7081 15.4323 24.6445C15.3647 24.5809 15.3103 24.5046 15.2724 24.4198C15.2344 24.3351 15.2137 24.2436 15.2114 24.1508C15.2109 24.0404 15.2351 23.9312 15.2824 23.8314L17.4116 18.1802C17.4791 17.9375 17.6204 17.7217 17.8159 17.5628C18.0114 17.4039 18.2514 17.3096 18.5028 17.2931C18.7575 17.2984 19.0031 17.3886 19.2008 17.5493C19.3984 17.71 19.5368 17.932 19.594 18.1802L21.6611 23.8137C21.7119 23.935 21.7419 24.0639 21.7498 24.1952C21.7475 24.2814 21.7283 24.3663 21.6931 24.4451C21.658 24.5239 21.6077 24.595 21.5451 24.6543C21.4824 24.7136 21.4088 24.76 21.3282 24.7908C21.2476 24.8216 21.1618 24.8363 21.0756 24.8339ZM26.7179 24.1065C26.7145 24.1946 26.6936 24.2813 26.6564 24.3613C26.6192 24.4413 26.5665 24.5131 26.5012 24.5726C26.436 24.632 26.3596 24.6779 26.2765 24.7076C26.1934 24.7372 26.1052 24.75 26.0171 24.7452H23.2491C23.1432 24.7526 23.0369 24.7364 22.9379 24.6978C22.8389 24.6592 22.7497 24.5992 22.6768 24.5219C22.6038 24.4447 22.5489 24.3523 22.5159 24.2513C22.483 24.1503 22.4728 24.0433 22.4862 23.9379V18.0915C22.4748 17.9886 22.4853 17.8845 22.5169 17.786C22.5485 17.6874 22.6005 17.5966 22.6696 17.5195C22.7387 17.4424 22.8232 17.3807 22.9177 17.3385C23.0122 17.2963 23.1146 17.2745 23.2181 17.2745C23.3216 17.2745 23.4239 17.2963 23.5184 17.3385C23.6129 17.3807 23.6975 17.4424 23.7665 17.5195C23.8356 17.5966 23.8876 17.6874 23.9192 17.786C23.9509 17.8845 23.9613 17.9886 23.95 18.0915V23.4145H25.9905C26.0871 23.41 26.1836 23.4258 26.2738 23.461C26.364 23.4961 26.4457 23.5498 26.5139 23.6185C26.576 23.6829 26.6238 23.7596 26.6544 23.8437C26.685 23.9277 26.6975 24.0172 26.6913 24.1065H26.7179ZM32.8305 24.2484C32.8082 24.4204 32.7198 24.5769 32.5839 24.6846C32.448 24.7923 32.2755 24.8427 32.103 24.8251H31.9877C31.7126 24.8251 31.5618 24.621 31.2779 24.2395L29.3439 21.5781L28.8205 22.1192V24.0887C28.8194 24.1835 28.7993 24.277 28.7615 24.3639C28.7236 24.4507 28.6688 24.5291 28.6001 24.5944C28.5315 24.6598 28.4505 24.7107 28.3619 24.7442C28.2733 24.7777 28.1788 24.7931 28.0842 24.7896C27.9886 24.7971 27.8925 24.7844 27.8021 24.7523C27.7117 24.7202 27.6291 24.6695 27.5597 24.6034C27.4902 24.5373 27.4354 24.4573 27.3989 24.3686C27.3624 24.2799 27.345 24.1846 27.3478 24.0887V18.0472C27.3452 17.9506 27.3627 17.8545 27.399 17.765C27.4353 17.6754 27.4898 17.5944 27.5589 17.5269C27.6281 17.4594 27.7104 17.407 27.8008 17.3728C27.8912 17.3387 27.9877 17.3236 28.0842 17.3286C28.181 17.3223 28.278 17.3364 28.369 17.37C28.46 17.4037 28.5429 17.4561 28.6124 17.5238C28.6818 17.5916 28.7362 17.6732 28.7721 17.7634C28.8079 17.8535 28.8244 17.9502 28.8205 18.0472V20.407L31.4021 17.7455C31.4765 17.663 31.5666 17.5962 31.6671 17.5489C31.7677 17.5017 31.8767 17.475 31.9877 17.4705C32.0792 17.4669 32.1705 17.4819 32.256 17.5148C32.3415 17.5476 32.4194 17.5975 32.4849 17.6614C32.5505 17.7253 32.6024 17.8019 32.6374 17.8865C32.6724 17.9712 32.6898 18.062 32.6885 18.1536C32.6885 18.3488 32.5732 18.4819 32.3336 18.748L32.1562 18.9521L30.3819 20.7264L32.4756 23.4677C32.6619 23.7161 32.8482 23.9556 32.8038 24.2484H32.8305Z" fill="#3F2325"/>
<path d="M18.4585 18.6681L17.3584 22.0127H19.6029L18.494 18.6681H18.4585Z" fill="#3F2325"/>
</svg>
