<svg width="36" height="36" viewBox="0 0 36 36" fill="none" xmlns="http://www.w3.org/2000/svg">
<g clip-path="url(#clip0_11413_62088)">
<path d="M18 16.92C20.08 16.92 21.77 15.37 21.77 13.46C21.77 11.55 20.08 10 18 10C15.92 10 14.23 11.55 14.23 13.46C14.23 15.37 15.92 16.92 18 16.92Z" fill="#508FEA"/>
<path d="M18 17.89H17.59C11.05 18.01 11 20.84 11 24.31C11 25.24 11.82 25.99 12.84 25.99H23.17C24.18 25.99 25.01 25.24 25.01 24.31C25.01 20.76 24.96 17.89 18.01 17.89H18Z" fill="#508FEA"/>
<path fill-rule="evenodd" clip-rule="evenodd" d="M18.0005 3C26.2805 3 33.0005 9.72 33.0005 18C33.0005 26.28 26.2805 33 18.0005 33C9.72049 33 3.00049 26.28 3.00049 18C3.00049 9.72 9.72049 3 18.0005 3ZM27.5705 9.41L9.41049 27.57C11.6905 29.62 14.7005 30.86 18.0005 30.86C25.1005 30.86 30.8605 25.1 30.8605 18C30.8605 14.7 29.6205 11.69 27.5705 9.41ZM18.0005 5.14C10.9005 5.14 5.14049 10.9 5.14049 18C5.14049 21.03 6.19049 23.81 7.94049 26.01L26.0105 7.94C23.8105 6.19 21.0305 5.14 18.0005 5.14Z" fill="#F03465"/>
</g>
<defs>
<clipPath id="clip0_11413_62088">
<rect width="36" height="36" fill="white"/>
</clipPath>
</defs>
</svg>
