<svg width="240" height="240" viewBox="0 0 240 240" fill="none" xmlns="http://www.w3.org/2000/svg">
<path d="M127.445 193.079C180.536 193.079 223.574 150.305 223.574 97.5396C223.574 44.7745 180.536 2 127.445 2C74.3548 2 31.3164 44.7745 31.3164 97.5396C31.3164 150.305 74.3548 193.079 127.445 193.079Z" fill="url(#paint0_linear_4489_8732)"/>
<path d="M98.0137 110.866C109.689 90.5465 125.228 72.6349 137.61 65.2218L137.843 65.616C125.521 72.9949 110.043 90.8464 98.4103 111.098L98.0137 110.866Z" fill="#C8DDFF"/>
<path d="M140.024 61.7509C138.274 62.8564 137.188 65.8217 137.188 65.8217C137.188 65.8217 140.352 66.1045 142.103 64.999C143.853 63.8934 144.086 62.7279 143.517 61.828C142.948 60.9282 141.775 60.6453 140.033 61.7509H140.024Z" fill="#C8DDFF"/>
<path d="M134.955 69.0955C132.825 68.9841 130.117 70.8352 130.117 70.8352C130.117 70.8352 132.609 72.952 134.748 73.0635C136.878 73.1749 137.783 72.335 137.843 71.238C137.904 70.1411 137.093 69.2155 134.955 69.1041V69.0955Z" fill="#C8DDFF"/>
<path d="M128.798 75.0174C126.513 74.8974 123.615 76.8771 123.615 76.8771C123.615 76.8771 126.288 79.1396 128.573 79.2596C130.859 79.3796 131.824 78.4711 131.885 77.3056C131.945 76.1315 131.074 75.1374 128.789 75.0174H128.798Z" fill="#C8DDFF"/>
<path d="M124.125 80.9565C121.978 80.5622 118.985 82.0706 118.985 82.0706C118.985 82.0706 121.227 84.5473 123.383 84.9501C125.539 85.3529 126.565 84.6159 126.772 83.5104C126.979 82.4048 126.28 81.3507 124.133 80.9565H124.125Z" fill="#C8DDFF"/>
<path d="M118.467 86.03C116.285 86.1328 113.716 88.2925 113.716 88.2925C113.716 88.2925 116.475 90.1951 118.657 90.0922C120.838 89.9894 121.675 89.0381 121.623 87.9154C121.571 86.7927 120.649 85.9272 118.467 86.03Z" fill="#C8DDFF"/>
<path d="M112.949 91.9091C110.819 92.389 108.663 94.9515 108.663 94.9515C108.663 94.9515 111.716 96.3484 113.845 95.8771C115.975 95.4057 116.631 94.3173 116.389 93.2289C116.139 92.1319 115.079 91.4377 112.949 91.9177V91.9091Z" fill="#C8DDFF"/>
<path d="M108.215 98.7138C106.085 99.1937 103.93 101.756 103.93 101.756C103.93 101.756 106.982 103.153 109.112 102.682C111.242 102.21 111.897 101.122 111.656 100.034C111.406 98.9366 110.345 98.2424 108.215 98.7223V98.7138Z" fill="#C8DDFF"/>
<path d="M103.92 105.698C101.791 106.178 99.6348 108.741 99.6348 108.741C99.6348 108.741 102.687 110.138 104.817 109.666C106.947 109.195 107.602 108.107 107.361 107.018C107.12 105.93 106.05 105.227 103.92 105.707V105.698Z" fill="#C8DDFF"/>
<path d="M130.859 63.9362C130.747 66.1388 132.67 68.924 132.67 68.924C132.67 68.924 134.878 66.3444 134.998 64.1505C135.119 61.9565 134.231 61.0138 133.093 60.9538C131.946 60.8939 130.98 61.7337 130.859 63.9362Z" fill="#C8DDFF"/>
<path d="M123.615 70.5181C123.719 72.5407 125.754 74.8974 125.754 74.8974C125.754 74.8974 127.522 72.335 127.418 70.3124C127.315 68.2899 126.418 67.5271 125.366 67.5786C124.314 67.63 123.512 68.487 123.615 70.5095V70.5181Z" fill="#C8DDFF"/>
<path d="M116.855 76.3886C117.665 78.4283 120.571 80.1595 120.571 80.1595C120.571 80.1595 121.503 76.92 120.692 74.8888C119.882 72.8492 118.7 72.3692 117.64 72.7892C116.579 73.2005 116.053 74.3575 116.864 76.3972L116.855 76.3886Z" fill="#C8DDFF"/>
<path d="M112.276 81.6592C113.086 83.6989 115.992 85.43 115.992 85.43C115.992 85.43 116.924 82.1905 116.113 80.1594C115.302 78.1197 114.121 77.6398 113.061 78.0597C112 78.4711 111.474 79.6281 112.284 81.6678L112.276 81.6592Z" fill="#C8DDFF"/>
<path d="M107.715 87.5555C108.37 89.6466 111.138 91.5835 111.138 91.5835C111.138 91.5835 112.303 88.4211 111.647 86.3385C110.992 84.256 109.845 83.6818 108.759 84.016C107.672 84.3503 107.06 85.4644 107.715 87.5555Z" fill="#C8DDFF"/>
<path d="M103.041 93.7945C103.697 95.8856 106.465 97.8225 106.465 97.8225C106.465 97.8225 107.629 94.6601 106.973 92.5776C106.318 90.4865 105.171 89.9208 104.085 90.2551C102.998 90.5893 102.386 91.7034 103.041 93.7945Z" fill="#C8DDFF"/>
<path d="M90.3571 113.54L89.9259 113.694C81.8376 91.7976 69.5585 71.6322 58.6504 62.325L58.9522 61.9737C69.9206 71.3322 82.2515 91.5663 90.3657 113.531L90.3571 113.54Z" fill="#C8DDFF"/>
<path d="M57.1411 58.1686C58.676 59.5483 59.2623 62.6507 59.2623 62.6507C59.2623 62.6507 56.0891 62.4022 54.5542 61.0224C53.0193 59.6426 52.9762 58.4514 53.6919 57.6629C54.4076 56.8745 55.6062 56.7888 57.1411 58.16V58.1686Z" fill="#C8DDFF"/>
<path d="M60.9183 66.2502C63.0395 66.4901 65.3936 68.7612 65.3936 68.7612C65.3936 68.7612 62.5825 70.4324 60.4613 70.1924C58.34 69.9525 57.5898 68.9669 57.7192 67.8785C57.8485 66.7901 58.8057 66.0102 60.9183 66.2502Z" fill="#C8DDFF"/>
<path d="M65.9966 73.1063C68.2731 73.3634 70.791 75.7973 70.791 75.7973C70.791 75.7973 67.7729 77.5885 65.5051 77.3314C63.2373 77.0743 62.4267 76.0201 62.5647 74.8546C62.7026 73.6891 63.7288 72.8492 65.9966 73.1063Z" fill="#C8DDFF"/>
<path d="M69.6177 79.731C71.7994 79.6967 74.4983 81.6764 74.4983 81.6764C74.4983 81.6764 71.8683 83.7504 69.6867 83.7846C67.5051 83.8189 66.6083 82.9276 66.5911 81.8049C66.5738 80.6823 67.4361 79.7567 69.6177 79.7224V79.731Z" fill="#C8DDFF"/>
<path d="M74.3442 85.67C76.4827 86.1328 78.6471 88.6781 78.6471 88.6781C78.6471 88.6781 75.6118 90.1008 73.4733 89.638C71.3348 89.1752 70.6708 88.1039 70.9123 87.007C71.1537 85.91 72.2057 85.2072 74.3442 85.67Z" fill="#C8DDFF"/>
<path d="M78.8015 92.3805C80.8279 93.2032 82.518 96.0828 82.518 96.0828C82.518 96.0828 79.2758 96.9569 77.258 96.1342C75.2316 95.3115 74.7659 94.1374 75.1971 93.1004C75.6282 92.0634 76.7837 91.5492 78.8101 92.3719L78.8015 92.3805Z" fill="#C8DDFF"/>
<path d="M82.3376 99.8707C84.364 100.693 86.0541 103.573 86.0541 103.573C86.0541 103.573 82.8119 104.447 80.7941 103.624C78.7677 102.802 78.3021 101.628 78.7332 100.591C79.1644 99.5536 80.3199 99.0394 82.3463 99.8622L82.3376 99.8707Z" fill="#C8DDFF"/>
<path d="M65.8248 61.8366C65.5661 64.0219 63.2034 66.4558 63.2034 66.4558C63.2034 66.4558 61.4529 63.5506 61.7116 61.3652C61.9703 59.1798 62.9878 58.3999 64.1261 58.5285C65.2643 58.657 66.0835 59.6426 65.8248 61.8366Z" fill="#C8DDFF"/>
<path d="M71.8612 69.524C71.4215 71.4951 69.0156 73.4919 69.0156 73.4919C69.0156 73.4919 67.6963 70.6724 68.1447 68.7012C68.5845 66.7301 69.602 66.1216 70.6195 66.3445C71.637 66.5673 72.301 67.5529 71.8526 69.524H71.8612Z" fill="#C8DDFF"/>
<path d="M77.5434 76.4315C76.4051 78.3083 73.2491 79.5339 73.2491 79.5339C73.2491 79.5339 72.8783 76.1915 74.0166 74.3147C75.1548 72.4378 76.4051 72.1636 77.3795 72.7463C78.3539 73.3291 78.6816 74.5632 77.5434 76.4315Z" fill="#C8DDFF"/>
<path d="M81.182 82.3877C80.0438 84.2646 76.8878 85.4901 76.8878 85.4901C76.8878 85.4901 76.517 82.1477 77.6552 80.2709C78.7935 78.394 80.0438 78.1198 81.0182 78.7026C81.9926 79.2853 82.3203 80.5194 81.182 82.3877Z" fill="#C8DDFF"/>
<path d="M84.692 88.9438C83.6917 90.8978 80.6392 92.3547 80.6392 92.3547C80.6392 92.3547 80.0183 89.0467 81.01 87.0927C82.0102 85.1387 83.2261 84.7702 84.2436 85.2758C85.2611 85.7815 85.6836 86.9898 84.6834 88.9438H84.692Z" fill="#C8DDFF"/>
<path d="M88.2613 95.8685C87.2611 97.8225 84.2085 99.2794 84.2085 99.2794C84.2085 99.2794 83.5877 95.9713 84.5793 94.0174C85.5796 92.0634 86.7954 91.6949 87.8129 92.2005C88.8304 92.7147 89.253 93.9145 88.2527 95.8685H88.2613Z" fill="#C8DDFF"/>
<path d="M91.5299 103.23C90.5296 105.184 87.4771 106.641 87.4771 106.641C87.4771 106.641 86.8562 103.333 87.8479 101.379C88.8395 99.4251 90.064 99.0566 91.0815 99.5622C92.099 100.076 92.5215 101.276 91.5213 103.23H91.5299Z" fill="#C8DDFF"/>
<path d="M105.266 102.579C105.266 102.579 112.639 93.5373 110.992 87.6325C109.353 81.7192 103.136 82.6105 106.879 78.034C110.612 73.4576 113.596 69.0354 108.043 65.0074C102.49 60.9795 100.912 60.2082 102.584 55.7689C104.257 51.3295 106.232 45.7247 100.196 45.9475C94.1597 46.1789 87.339 56.1031 85.3298 63.7048C83.3206 71.315 86.4508 78.3168 84.6658 81.8477C82.8809 85.3786 82.1652 86.1842 77.7071 85.4386C73.2404 84.7016 70.0154 91.2491 75.9049 100.351C81.7858 109.452 93.9873 115.931 93.9873 115.931L105.275 102.579H105.266Z" fill="url(#paint1_linear_4489_8732)"/>
<path d="M99.1524 109.366C99.1093 109.298 94.6426 102.202 91.7453 89.1066C91.7625 89.0895 91.7797 89.0723 91.7884 89.0552C93.0473 84.573 101.368 74.2032 101.446 74.0918C101.524 73.9889 101.506 73.8518 101.412 73.7661C101.308 73.689 101.17 73.7061 101.084 73.8004C100.756 74.2118 93.3319 83.4589 91.5555 88.2753C91.5383 88.2153 91.5297 88.1553 91.5124 88.0868C88.6324 74.366 95.7808 57.3801 95.8498 57.2172C95.9015 57.0973 95.8498 56.9601 95.7291 56.9173C95.6083 56.8659 95.479 56.9173 95.4273 57.0373C95.3497 57.2087 88.1495 74.3146 91.064 88.1811C91.8315 91.8491 92.7369 95.0629 93.6423 97.8224C89.1411 97.9595 85.1918 93.2117 85.1573 93.1689C85.0797 93.066 84.9331 93.0574 84.8382 93.1346C84.7434 93.2117 84.7262 93.3574 84.8038 93.4517C84.8727 93.5288 85.5108 94.3001 86.5456 95.2085C88.2012 96.6483 90.8571 98.4309 93.8061 98.2766C96.2723 105.621 98.7385 109.546 98.773 109.598C98.7816 109.615 98.7988 109.632 98.8161 109.649C98.8937 109.718 99.0058 109.726 99.092 109.675C99.1955 109.606 99.23 109.469 99.161 109.358L99.1524 109.366Z" fill="#C8DDFF"/>
<path d="M225.652 188.091L1.00586 140.347V147.349C1.00586 150.306 3.06675 153.374 7.09368 155.722L141.94 234.567C149.364 238.904 160.652 239.169 167.153 235.15L221.211 201.778C224.212 199.927 225.669 197.476 225.634 194.956V188.083L225.652 188.091Z" fill="url(#paint2_linear_4489_8732)"/>
<path d="M221.219 194.725L167.162 228.097C160.66 232.116 149.364 231.85 141.948 227.514L7.09332 148.669C-0.331056 144.332 -1.07263 137.553 5.42909 133.543L59.4865 100.171C65.9882 96.1512 77.2843 96.4169 84.7001 100.753L219.546 179.598C226.971 183.935 227.712 190.714 221.21 194.725H221.219Z" fill="url(#paint3_linear_4489_8732)"/>
<path d="M65.0046 103.17L56.7955 108.235C55.2951 109.161 55.4676 110.729 57.1836 111.732C59.6929 113.197 59.9515 115.494 57.7441 116.857L33.229 131.991C31.0301 133.354 27.2015 133.26 24.6922 131.794C22.9762 130.792 20.3721 130.732 18.8631 131.657L10.654 136.722C6.90302 139.036 7.32555 142.953 11.6112 145.455L146.906 224.557C151.191 227.06 157.702 227.214 161.461 224.891L215.812 191.331C219.563 189.017 219.14 185.1 214.855 182.598L79.5516 103.504C75.2659 101.002 68.7556 100.848 64.996 103.17H65.0046Z" fill="#E7F2FF"/>
<path d="M33.4456 126.72C33.4901 126.268 32.9076 125.841 32.1445 125.767C31.3814 125.693 30.7267 125.999 30.6822 126.452C30.6377 126.904 31.2202 127.331 31.9833 127.405C32.7463 127.479 33.4011 127.173 33.4456 126.72Z" fill="#37475E"/>
<path d="M48.8726 117.328L36.4555 124.99C35.9554 125.298 35.0758 125.281 34.4981 124.947C33.929 124.613 33.8686 124.081 34.3687 123.773L46.7858 116.111C47.286 115.803 48.1655 115.82 48.7432 116.154C49.3124 116.488 49.3727 117.019 48.8726 117.328Z" fill="#37475E"/>
<path d="M115.682 133.774L65.307 164.764C63.0047 166.178 59.2106 166.22 56.8307 164.849L33.8936 151.96C31.5136 150.597 31.4446 148.343 33.747 146.929L84.1224 115.94C86.4247 114.526 90.2188 114.483 92.5988 115.854L115.536 128.743C117.916 130.106 117.985 132.36 115.682 133.774Z" fill="#F5F7FA"/>
<path d="M157.392 157.196L107.017 188.186C104.715 189.6 100.921 189.643 98.5406 188.271L75.6035 175.382C73.2236 174.019 73.1546 171.765 75.4569 170.351L125.832 139.362C128.135 137.948 131.929 137.905 134.309 139.276L157.246 152.165C159.626 153.528 159.695 155.782 157.392 157.196Z" fill="#F5F7FA"/>
<path d="M200.041 182.692L149.665 213.682C147.363 215.096 143.569 215.139 141.189 213.767L118.252 200.878C115.872 199.515 115.803 197.261 118.105 195.847L168.481 164.858C170.783 163.444 174.577 163.401 176.957 164.772L199.894 177.662C202.274 179.024 202.343 181.278 200.041 182.692Z" fill="#F5F7FA"/>
<path d="M27.4882 74.9831L18.0547 82.8248L18.641 72.3949L27.4882 72.9177V74.9831Z" fill="#2A60B5"/>
<path d="M27.4882 74.9831L18.0547 82.8248L18.641 72.3949L27.4882 72.9177V74.9831Z" fill="#4980E0"/>
<path d="M36.0853 84.7188L18.641 72.3949L12.9153 69.8068L2.059 66.0702C1.67096 65.8988 1.4209 65.5217 1.4209 65.0932C1.4209 64.6647 1.67096 64.2876 2.059 64.1162L43.363 47.8587C44.8117 47.2931 46.7346 47.5673 45.993 50.0612L38.9826 83.5704C38.8532 84.1788 38.4307 84.693 37.8443 84.9159C37.258 85.1473 36.594 85.0701 36.0853 84.7016V84.7188Z" fill="#6DB3FA"/>
<path d="M36.0853 84.7188L18.641 72.3949L12.9153 69.8068L2.059 66.0702C1.67096 65.8988 1.4209 65.5217 1.4209 65.0932C1.4209 64.6647 1.67096 64.2876 2.059 64.1162L43.363 47.8587C44.8117 47.2931 46.7346 47.5673 45.993 50.0612L38.9826 83.5704C38.8532 84.1788 38.4307 84.693 37.8443 84.9159C37.258 85.1473 36.594 85.0701 36.0853 84.7016V84.7188Z" fill="url(#paint4_linear_4489_8732)"/>
<path d="M18.6407 72.3949L18.2527 82.3877C18.2527 82.6876 18.0285 82.9447 17.7267 82.9876C17.4249 83.0304 17.1403 82.8419 17.0541 82.5419L12.915 69.7725L37.3612 54.7919C37.5509 54.6548 37.8096 54.6891 37.9475 54.8776C38.0855 55.0661 38.051 55.3232 37.8613 55.4604L18.6407 72.3863V72.3949Z" fill="#6096F8"/>
<path d="M216.451 135.017C209.277 135.017 203.465 140.793 203.465 147.923C203.465 155.054 209.277 160.83 216.451 160.83C223.625 160.83 229.437 155.054 229.437 147.923C229.437 140.793 223.625 135.017 216.451 135.017ZM221.642 149.209H211.251C210.536 149.209 209.949 148.626 209.949 147.915C209.949 147.203 210.536 146.621 211.251 146.621H221.642C222.358 146.621 222.944 147.203 222.944 147.915C222.944 148.626 222.358 149.209 221.642 149.209Z" fill="#FFE13B"/>
<path d="M225.652 116.497C218.279 116.497 212.304 122.436 212.304 129.763C212.304 137.091 218.279 143.03 225.652 143.03C233.025 143.03 239 137.091 239 129.763C239 122.436 233.025 116.497 225.652 116.497ZM230.99 131.092H226.989V135.068C226.989 135.797 226.385 136.396 225.652 136.396C224.919 136.396 224.316 135.797 224.316 135.068V131.092H220.314C219.582 131.092 218.978 130.492 218.978 129.763C218.978 129.035 219.582 128.435 220.314 128.435H224.316V124.458C224.316 123.73 224.919 123.13 225.652 123.13C226.385 123.13 226.989 123.73 226.989 124.458V128.435H230.99C231.723 128.435 232.326 129.035 232.326 129.763C232.326 130.492 231.723 131.092 230.99 131.092Z" fill="url(#paint5_linear_4489_8732)"/>
<path d="M34.9708 156.733L127.469 209.808C128.496 210.399 130.168 210.399 131.203 209.808L200.118 170.214C201.144 169.623 201.144 168.663 200.118 168.072L107.619 114.997C106.593 114.406 104.92 114.406 103.886 114.997L34.9708 154.591C33.9446 155.182 33.9446 156.142 34.9708 156.733Z" fill="url(#paint6_radial_4489_8732)"/>
<path d="M36.7646 153.76V149.235L101.765 116.462C102.929 115.794 104.809 115.794 105.973 116.462L193.427 162.827C193.427 162.827 193.427 166.923 193.427 167.352C193.427 167.78 193.134 168.226 192.556 168.56L127.556 205.857L36.7646 153.76Z" fill="#BBD5F9"/>
<path d="M193.428 167.352C193.428 166.915 193.428 162.827 193.428 162.827L177.665 154.471H127.557V205.866L192.557 168.569C193.134 168.235 193.428 167.797 193.428 167.36V167.352Z" fill="#CCE3FA"/>
<path d="M193.478 162.287C194.643 161.618 194.643 160.539 193.478 159.87L190.71 158.285L123.606 196.79L128.478 199.584L193.478 162.287Z" fill="#A5D1F9"/>
<path d="M36.7646 146.963V142.438L101.765 109.666C102.929 108.998 104.809 108.998 105.973 109.666L193.427 156.031C193.427 156.031 193.427 160.127 193.427 160.556C193.427 160.984 193.134 161.43 192.556 161.764L127.556 199.061L36.7646 146.963Z" fill="#BBD5F9"/>
<path d="M193.428 160.556C193.428 160.119 193.428 156.031 193.428 156.031L177.665 147.675H127.557V199.07L192.557 161.773C193.134 161.438 193.428 161.001 193.428 160.564V160.556Z" fill="#CCE3FA"/>
<path d="M36.7646 142.43L101.765 105.133C102.929 104.464 104.809 104.464 105.973 105.133L192.556 154.814C193.72 155.482 193.72 156.562 192.556 157.23L127.556 194.528L36.7646 142.43Z" fill="url(#paint7_linear_4489_8732)"/>
<path d="M44.9828 142.413C46.0693 141.787 47.837 141.787 48.9322 142.413C50.0187 143.038 50.0187 144.05 48.9322 144.675C47.8457 145.301 46.078 145.301 44.9828 144.675C43.8963 144.05 43.8963 143.038 44.9828 142.413Z" fill="#92C0F2"/>
<path d="M54.8481 148.078C55.9346 147.452 57.7023 147.452 58.7974 148.078C59.8839 148.703 59.8839 149.714 58.7974 150.34C57.7109 150.966 55.9432 150.966 54.8481 150.34C53.7616 149.714 53.7616 148.703 54.8481 148.078Z" fill="#92C0F2"/>
<path d="M64.7201 153.742C65.8066 153.117 67.5744 153.117 68.6695 153.742C69.756 154.368 69.756 155.379 68.6695 156.005C67.583 156.631 65.8153 156.631 64.7201 156.005C63.6336 155.379 63.6336 154.368 64.7201 153.742Z" fill="#92C0F2"/>
<path d="M74.5854 159.399C75.6719 158.773 77.4396 158.773 78.5347 159.399C79.6212 160.024 79.6212 161.036 78.5347 161.661C77.4482 162.287 75.6805 162.287 74.5854 161.661C73.4989 161.036 73.4989 160.024 74.5854 159.399Z" fill="#92C0F2"/>
<path d="M84.4587 165.064C85.5452 164.438 87.3129 164.438 88.4081 165.064C89.5032 165.689 89.4946 166.7 88.4081 167.326C87.3216 167.952 85.5539 167.952 84.4587 167.326C83.3636 166.7 83.3722 165.689 84.4587 165.064Z" fill="#92C0F2"/>
<path d="M94.3237 170.728C95.4102 170.103 97.1779 170.103 98.273 170.728C99.3595 171.354 99.3595 172.365 98.273 172.991C97.1865 173.616 95.4188 173.616 94.3237 172.991C93.2372 172.365 93.2372 171.354 94.3237 170.728Z" fill="#92C0F2"/>
<path d="M104.197 176.393C105.283 175.768 107.051 175.768 108.146 176.393C109.233 177.019 109.233 178.03 108.146 178.656C107.06 179.281 105.292 179.281 104.197 178.656C103.11 178.03 103.11 177.019 104.197 176.393Z" fill="#92C0F2"/>
<path d="M114.062 182.049C115.148 181.424 116.916 181.424 118.011 182.049C119.098 182.675 119.098 183.686 118.011 184.312C116.925 184.938 115.157 184.938 114.062 184.312C112.975 183.686 112.975 182.675 114.062 182.049Z" fill="#92C0F2"/>
<path d="M123.926 187.714C125.013 187.089 126.78 187.089 127.876 187.714C128.962 188.34 128.962 189.351 127.876 189.977C126.789 190.602 125.021 190.602 123.926 189.977C122.84 189.351 122.84 188.34 123.926 187.714Z" fill="#92C0F2"/>
<path d="M35.8418 146.441L128.478 199.584V201.847L35.8418 148.703V146.441Z" fill="#92C0F2"/>
<path d="M193.513 164.524C193.979 164.258 194.358 163.607 194.358 163.075V161.078C194.358 161.558 194.022 161.953 193.487 162.287L128.487 199.584V201.847L193.522 164.515L193.513 164.524Z" fill="#78AFEA"/>
<path d="M36.7645 146.963V145.909L35.8418 146.441L36.7645 146.963Z" fill="#A5D1F9"/>
<path d="M117.597 201.315C117.045 200.998 116.683 200.372 116.528 199.524C116.476 199.224 116.441 198.898 116.441 198.547C116.441 197.527 116.683 196.413 117.105 195.325C117.338 194.725 117.623 194.125 117.959 193.551L116.26 192.574C115.933 193.148 115.639 193.739 115.398 194.339C114.855 195.667 114.536 197.047 114.51 198.358C114.51 198.418 114.51 198.478 114.51 198.538C114.51 200.612 115.269 202.189 116.64 202.978C117.226 203.312 117.881 203.483 118.58 203.483C119.52 203.483 120.537 203.183 121.572 202.592C121.624 202.558 121.675 202.523 121.727 202.498L119.709 201.341C118.89 201.632 118.166 201.632 117.614 201.315H117.597Z" fill="#2A60B7"/>
<path d="M125.513 187.68C125.289 187.551 125.048 187.457 124.806 187.38C123.564 186.977 122.098 187.209 120.589 188.074C119.934 188.451 119.313 188.923 118.727 189.463C117.778 190.345 116.942 191.408 116.261 192.574L117.959 193.551C118.649 192.359 119.529 191.288 120.503 190.482C120.848 190.2 121.193 189.951 121.555 189.745C122.124 189.42 122.668 189.223 123.168 189.145C123.694 189.068 124.159 189.128 124.547 189.351C124.927 189.565 125.22 189.934 125.41 190.414C126.082 190.482 126.789 190.414 127.384 190.2C127.057 189.068 126.427 188.203 125.522 187.68H125.513Z" fill="#2A60B7"/>
<path d="M117.958 193.551L116.26 192.574L117.958 193.551Z" fill="#2A60B7"/>
<path d="M107.733 195.659C107.181 195.342 106.818 194.716 106.663 193.868C106.612 193.568 106.577 193.242 106.577 192.891C106.577 191.871 106.818 190.757 107.241 189.668C107.474 189.068 107.758 188.468 108.095 187.894L106.396 186.917C106.068 187.483 105.775 188.083 105.534 188.683C104.99 190.011 104.671 191.391 104.646 192.702C104.646 192.762 104.646 192.822 104.646 192.882C104.646 194.956 105.404 196.533 106.775 197.321C107.362 197.656 108.017 197.827 108.716 197.827C109.655 197.827 110.673 197.527 111.708 196.936C111.759 196.901 111.811 196.867 111.863 196.841L109.845 195.685C109.026 195.976 108.302 195.976 107.75 195.659H107.733Z" fill="#2A60B7"/>
<path d="M115.649 182.024C115.425 181.895 115.183 181.801 114.942 181.724C113.7 181.321 112.234 181.552 110.725 182.418C110.07 182.795 109.449 183.266 108.863 183.806C107.914 184.689 107.078 185.752 106.396 186.917L108.095 187.894C108.785 186.703 109.665 185.632 110.639 184.826C110.975 184.543 111.329 184.295 111.691 184.089C112.26 183.763 112.803 183.566 113.303 183.489C113.829 183.412 114.295 183.472 114.683 183.695C115.063 183.909 115.356 184.278 115.545 184.758C116.218 184.826 116.925 184.758 117.52 184.543C117.192 183.412 116.563 182.547 115.658 182.024H115.649Z" fill="#2A60B7"/>
<path d="M108.094 187.877L106.396 186.9L108.094 187.877Z" fill="#2A60B7"/>
<path d="M97.8663 190.003C97.3145 189.685 96.9523 189.06 96.7971 188.211C96.7453 187.911 96.7108 187.586 96.7108 187.234C96.7108 186.215 96.9523 185.1 97.3748 184.012C97.6076 183.412 97.8922 182.812 98.2285 182.238L96.5298 181.261C96.2021 181.827 95.9089 182.427 95.6675 183.027C95.1242 184.355 94.8052 185.735 94.7793 187.046C94.7793 187.106 94.7793 187.166 94.7793 187.226C94.7793 189.3 95.5381 190.877 96.9092 191.665C97.4955 191.999 98.1509 192.171 98.8493 192.171C99.7892 192.171 100.807 191.871 101.842 191.28C101.893 191.245 101.945 191.211 101.997 191.185L99.9789 190.028C99.1598 190.32 98.4354 190.32 97.8836 190.003H97.8663Z" fill="#2A60B7"/>
<path d="M105.773 176.359C105.549 176.23 105.307 176.136 105.066 176.059C103.824 175.656 102.358 175.888 100.849 176.753C100.194 177.13 99.573 177.602 98.9867 178.142C98.0382 179.024 97.2017 180.087 96.5205 181.252L98.2192 182.229C98.9091 181.038 99.7886 179.967 100.763 179.161C101.099 178.879 101.453 178.63 101.815 178.424C102.384 178.099 102.927 177.902 103.428 177.824C103.954 177.747 104.419 177.807 104.807 178.03C105.187 178.244 105.48 178.613 105.669 179.093C106.342 179.161 107.041 179.093 107.644 178.879C107.316 177.747 106.687 176.882 105.782 176.359H105.773Z" fill="#2A60B7"/>
<path d="M98.229 182.195L96.5303 181.227L98.229 182.204V182.195Z" fill="#2A60B7"/>
<path d="M88.0021 184.346C87.4502 184.029 87.088 183.404 86.9328 182.555C86.8811 182.255 86.8466 181.93 86.8466 181.578C86.8466 180.558 87.088 179.444 87.5106 178.356C87.7434 177.756 88.0279 177.156 88.3642 176.582L86.6655 175.605C86.3378 176.179 86.0446 176.77 85.8032 177.37C85.26 178.699 84.9409 180.078 84.915 181.39C84.915 181.45 84.915 181.51 84.915 181.57C84.915 183.644 85.6739 185.22 87.0449 186.009C87.6313 186.343 88.2866 186.515 88.9851 186.515C89.925 186.515 90.9425 186.215 91.9773 185.623C92.029 185.589 92.0807 185.555 92.1325 185.529L90.1147 184.372C89.2955 184.663 88.5712 184.663 88.0193 184.346H88.0021Z" fill="#2A60B7"/>
<path d="M95.9087 170.694C95.6845 170.566 95.4431 170.471 95.2016 170.394C93.9599 169.991 92.494 170.223 90.985 171.088C90.3296 171.465 89.7088 171.937 89.1224 172.477C88.1739 173.359 87.3375 174.422 86.6562 175.588L88.355 176.565C89.0448 175.373 89.9244 174.302 90.8988 173.497C91.235 173.214 91.5886 172.965 91.9508 172.759C92.5199 172.434 93.0631 172.237 93.5632 172.16C94.0892 172.082 94.5549 172.142 94.9429 172.365C95.3223 172.58 95.6155 172.948 95.8052 173.428C96.4778 173.497 97.1849 173.428 97.7799 173.214C97.4522 172.082 96.8227 171.217 95.9173 170.694H95.9087Z" fill="#2A60B7"/>
<path d="M88.3647 176.522L86.666 175.545V175.553L88.3647 176.522Z" fill="#2A60B7"/>
<path d="M78.1378 178.682C77.5859 178.364 77.2238 177.739 77.0686 176.89C77.0168 176.59 76.9823 176.265 76.9823 175.913C76.9823 174.894 77.2238 173.779 77.6463 172.691C77.8791 172.091 78.1637 171.491 78.5 170.917L76.8012 169.94C76.4736 170.506 76.1804 171.106 75.9389 171.705C75.3957 173.034 75.0767 174.414 75.0508 175.725C75.0508 175.785 75.0508 175.845 75.0508 175.905C75.0508 177.979 75.8096 179.556 77.1806 180.344C77.767 180.678 78.4224 180.85 79.1208 180.85C80.0607 180.85 81.0782 180.55 82.113 179.958C82.1647 179.924 82.2165 179.89 82.2682 179.864L80.2504 178.707C79.4313 178.999 78.7069 178.999 78.1551 178.682H78.1378Z" fill="#2A60B7"/>
<path d="M86.0357 165.038C85.8115 164.909 85.57 164.815 85.3286 164.738C84.0869 164.335 82.621 164.566 81.1119 165.432C80.4566 165.809 79.8357 166.281 79.2494 166.82C78.3008 167.703 77.4644 168.766 76.7832 169.931L78.4819 170.908C79.1718 169.717 80.0513 168.646 81.0257 167.84C81.362 167.557 81.7155 167.309 82.0777 167.103C82.6468 166.778 83.1901 166.58 83.6902 166.503C84.2162 166.426 84.6818 166.486 85.0699 166.709C85.4493 166.923 85.7425 167.292 85.9322 167.772C86.6048 167.84 87.3119 167.772 87.9068 167.557C87.5792 166.426 86.9497 165.561 86.0443 165.038H86.0357Z" fill="#2A60B7"/>
<path d="M78.5005 170.848L76.8018 169.871V169.88L78.5005 170.848Z" fill="#2A60B7"/>
<path d="M68.2735 173.025C67.7217 172.708 67.3595 172.082 67.2043 171.234C67.1526 170.934 67.1181 170.608 67.1181 170.257C67.1181 169.237 67.3595 168.123 67.782 167.035C68.0149 166.435 68.2994 165.835 68.6357 165.261L66.937 164.284C66.6093 164.849 66.3161 165.449 66.0747 166.049C65.5314 167.377 65.2124 168.757 65.1865 170.068C65.1865 170.128 65.1865 170.188 65.1865 170.248C65.1865 172.322 65.9453 173.899 67.3164 174.688C67.9028 175.022 68.5581 175.193 69.2566 175.193C70.1965 175.193 71.214 174.893 72.2487 174.302C72.3005 174.268 72.3522 174.234 72.404 174.208L70.3862 173.051C69.567 173.342 68.8427 173.342 68.2908 173.025H68.2735Z" fill="#2A60B7"/>
<path d="M76.1714 159.373C75.9472 159.244 75.7058 159.15 75.4643 159.073C74.2226 158.67 72.7567 158.902 71.2477 159.767C70.5923 160.144 69.9715 160.616 69.3851 161.156C68.4366 162.038 67.6002 163.101 66.9189 164.266L68.6177 165.243C69.3075 164.052 70.1871 162.981 71.1614 162.175C71.4977 161.893 71.8513 161.644 72.2134 161.438C72.7826 161.113 73.3258 160.916 73.8259 160.838C74.3519 160.761 74.8176 160.821 75.2056 161.044C75.585 161.258 75.8782 161.627 76.0679 162.107C76.7405 162.175 77.4476 162.107 78.0426 161.893C77.7149 160.761 77.0854 159.896 76.18 159.373H76.1714Z" fill="#2A60B7"/>
<path d="M68.6362 165.175L66.9375 164.198L68.6362 165.175Z" fill="#2A60B7"/>
<path d="M58.4083 167.369C57.8564 167.052 57.4943 166.426 57.3391 165.578C57.2873 165.278 57.2528 164.952 57.2528 164.601C57.2528 163.581 57.4943 162.467 57.9168 161.378C58.1496 160.779 58.4342 160.179 58.7705 159.604L57.0717 158.627C56.7441 159.202 56.4509 159.793 56.2095 160.393C55.6662 161.721 55.3472 163.101 55.3213 164.412C55.3213 164.472 55.3213 164.532 55.3213 164.592C55.3213 166.666 56.0801 168.243 57.4512 169.032C58.0375 169.366 58.6929 169.537 59.3913 169.537C60.3312 169.537 61.3487 169.237 62.3835 168.646C62.4352 168.612 62.487 168.577 62.5387 168.552L60.5209 167.395C59.7018 167.686 58.9774 167.686 58.4256 167.369H58.4083Z" fill="#2A60B7"/>
<path d="M66.3071 153.708C66.0829 153.58 65.8415 153.485 65.6001 153.408C64.3583 153.005 62.8924 153.237 61.3834 154.102C60.7281 154.479 60.1072 154.951 59.5209 155.491C58.5723 156.373 57.7359 157.436 57.0547 158.602L58.7534 159.579C59.4433 158.387 60.3228 157.316 61.2972 156.511C61.6421 156.228 61.987 155.979 62.3492 155.774C62.9183 155.448 63.4616 155.251 63.9617 155.174C64.4877 155.097 64.9533 155.157 65.3414 155.379C65.7208 155.594 66.014 155.962 66.2037 156.442C66.8763 156.511 67.5833 156.442 68.1783 156.228C67.8507 155.097 67.2212 154.231 66.3158 153.708H66.3071Z" fill="#2A60B7"/>
<path d="M58.771 159.502L57.0723 158.525L58.771 159.502Z" fill="#2A60B7"/>
<path d="M48.5441 161.713C47.9922 161.395 47.63 160.77 47.4748 159.921C47.4231 159.621 47.3886 159.296 47.3886 158.944C47.3886 157.925 47.63 156.81 48.0525 155.722C48.2854 155.122 48.5699 154.522 48.9062 153.948L47.2075 152.971C46.8798 153.537 46.5866 154.137 46.3452 154.736C45.802 156.065 45.4829 157.445 45.457 158.756C45.457 158.816 45.457 158.876 45.457 158.936C45.457 161.01 46.2159 162.587 47.5869 163.375C48.1733 163.709 48.8286 163.881 49.5271 163.881C50.467 163.881 51.4845 163.581 52.5192 162.99C52.571 162.955 52.6227 162.921 52.6745 162.895L50.6567 161.738C49.8375 162.03 49.1132 162.03 48.5613 161.713H48.5441Z" fill="#2A60B7"/>
<path d="M56.4341 148.043C56.2099 147.915 55.9684 147.82 55.727 147.743C54.4853 147.341 53.0194 147.572 51.5104 148.438C50.855 148.815 50.2342 149.286 49.6478 149.826C48.6993 150.709 47.8629 151.771 47.1816 152.937L48.8804 153.914C49.5702 152.723 50.4497 151.651 51.4241 150.846C51.7691 150.563 52.114 150.314 52.4761 150.109C53.0453 149.783 53.5885 149.586 54.0886 149.509C54.6146 149.432 55.0803 149.492 55.4683 149.714C55.8477 149.929 56.1409 150.297 56.3306 150.777C57.0032 150.846 57.7103 150.777 58.3053 150.563C57.9776 149.432 57.3481 148.566 56.4427 148.043H56.4341Z" fill="#2A60B7"/>
<path d="M48.9067 153.82L47.208 152.851L48.9067 153.828V153.82Z" fill="#2A60B7"/>
<path d="M38.6798 156.056C38.1279 155.739 37.7658 155.114 37.6105 154.265C37.5588 153.965 37.5243 153.639 37.5243 153.288C37.5243 152.268 37.7658 151.154 38.1883 150.066C38.4211 149.466 38.7057 148.866 39.042 148.292L37.3432 147.315C37.0156 147.88 36.7224 148.48 36.4809 149.08C35.9377 150.409 35.6186 151.788 35.5928 153.1C35.5928 153.16 35.5928 153.22 35.5928 153.28C35.5928 155.354 36.3516 156.93 37.7226 157.719C38.309 158.053 38.9644 158.225 39.6628 158.225C40.6027 158.225 41.6202 157.925 42.655 157.333C42.7067 157.299 42.7585 157.265 42.8102 157.239L40.7924 156.082C39.9732 156.373 39.2489 156.373 38.697 156.056H38.6798Z" fill="#2A60B7"/>
<path d="M46.5698 142.387C46.3456 142.258 46.1042 142.164 45.8627 142.087C44.621 141.684 43.1551 141.916 41.6461 142.781C40.9908 143.158 40.3699 143.63 39.7836 144.17C38.835 145.052 37.9986 146.115 37.3174 147.28L39.0161 148.257C39.7059 147.066 40.5855 145.995 41.5599 145.189C41.8962 144.907 42.2497 144.658 42.6119 144.452C43.181 144.127 43.7243 143.93 44.2244 143.852C44.7504 143.775 45.216 143.835 45.6041 144.058C45.9835 144.272 46.2767 144.641 46.4664 145.121C47.1389 145.189 47.846 145.121 48.441 144.907C48.1133 143.775 47.4839 142.91 46.5785 142.387H46.5698Z" fill="#2A60B7"/>
<path d="M39.0415 148.146L37.3428 147.169V147.178L39.0415 148.146Z" fill="#2A60B7"/>
<path d="M36.429 172.237C36.429 172.237 37.2654 171.902 37.7397 171.62C38.214 171.337 38.3347 170.634 38.1795 170C38.0243 169.366 37.2396 168.826 36.3514 169.014C35.4632 169.203 35.4546 168.406 34.2819 168.474C33.1092 168.534 33.0316 168.971 32.7039 169.426C32.3762 169.88 31.8675 169.606 31.4708 170.274C31.0742 170.943 31.3156 171.62 31.3156 171.62C31.3156 171.62 30.7982 171.757 30.8327 172.605C30.8672 173.454 31.3156 173.179 31.6864 173.908C32.0572 174.636 31.902 175.588 33.4972 175.51L36.429 172.245V172.237Z" fill="#37475E"/>
<path d="M30.4455 220.452C30.4455 220.452 30.8939 222.252 31.3337 222.466C31.7734 222.68 32.3943 223.195 32.1097 223.409C31.8252 223.623 30.2989 223.589 29.5746 223.186C28.8416 222.783 27.5051 221.515 27.8155 220.872C28.1259 220.229 28.6261 219.689 29.2124 219.835C29.7988 219.981 30.4455 220.452 30.4455 220.452Z" fill="#37475E"/>
<path d="M35.602 226.983C35.602 226.983 38.6632 229.305 37.5163 230.076C36.3695 230.848 33.955 228.928 33.567 228.354C33.179 227.78 33.2997 226.785 34.0154 226.76C34.7311 226.734 35.602 226.974 35.602 226.974V226.983Z" fill="#37475E"/>
<path d="M32.1793 218.318C32.1793 218.318 30.9376 220.032 30.4633 220.623C29.9891 221.215 28.6008 220.375 29.2734 219.492C29.946 218.61 30.8945 217.11 30.8945 217.11L32.1793 218.327V218.318Z" fill="#FEC6BD"/>
<path d="M35.4466 223.675C35.4466 223.675 35.6191 226.614 35.6105 227.154C35.6018 227.694 34.0583 228.105 33.8859 227.214C33.7134 226.323 33.3857 223.16 33.3857 223.16L35.4553 223.675H35.4466Z" fill="#FEC6BD"/>
<path d="M41.9664 199.498C41.9664 199.498 42.2768 208.994 40.7505 210.965C39.2415 212.91 32.1793 218.909 32.1793 218.909C32.1793 218.909 31.6274 219.175 30.7306 218.55C29.8338 217.924 29.9632 217.624 30.7651 214.942C31.5757 212.233 33.6538 210.896 34.6455 209.791C35.6371 208.685 34.7058 200.038 34.7058 200.038L41.9577 199.498H41.9664Z" fill="#255299"/>
<path d="M37.1632 201.161C37.1632 201.161 37.7323 212.148 37.1545 215.19C36.5854 218.198 36.0508 224.463 36.0508 224.463C36.0508 224.463 34.835 225.423 33.0069 224.412C33.0069 224.412 32.067 218.85 32.2308 215.302C32.3947 211.693 29.756 207.631 28.8161 204.417C27.8676 201.152 28.8506 198.71 28.8506 198.71L37.1545 201.152L37.1632 201.161Z" fill="#2A60B7"/>
<path d="M41.0344 177.507C41.0344 177.507 42.9745 180.31 44.3542 188.426C44.3542 188.426 45.0096 189 45.0182 189.608C45.0268 190.217 44.4922 191.759 41.9743 191.871C39.4564 191.982 39.7495 188.314 39.9737 186.317C40.1979 184.303 41.0257 177.507 41.0257 177.507H41.0344Z" fill="#6DB3FA"/>
<path d="M41.0344 177.507C41.0344 177.507 42.9745 180.31 44.3542 188.426C44.3542 188.426 45.0096 189 45.0182 189.608C45.0268 190.217 44.4922 191.759 41.9743 191.871C39.4564 191.982 39.7495 188.314 39.9737 186.317C40.1979 184.303 41.0257 177.507 41.0257 177.507H41.0344Z" fill="url(#paint8_linear_4489_8732)"/>
<path d="M34.6876 176.307C32.0835 176.582 25.1937 177.122 25.4524 181.441C25.7973 187.106 28.4704 199.532 28.4704 199.532C28.4704 199.532 30.6003 201.538 36.1708 201.264C41.7498 200.998 42.112 199.207 42.112 199.207L41.9999 191.408C41.9999 191.408 41.5946 178.639 41.1807 177.756C40.258 175.785 36.9555 176.068 34.6876 176.299V176.307Z" fill="#6DB3FA"/>
<path d="M35.593 174.936L35.6533 176.607C35.6792 177.31 34.8514 177.559 34.3685 177.447C33.8856 177.336 33.2648 177.233 33.2216 176.085L33.1182 173.642L35.593 174.936Z" fill="#F6B2AD"/>
<path d="M37.3175 172.228C37.6107 173.865 37.4555 175.802 35.2652 176.042C33.0836 176.282 32.6783 174.371 32.6611 173.342C32.6438 172.314 32.8508 170.36 34.6013 170.283C36.0672 170.223 37.0157 170.574 37.3089 172.228H37.3175Z" fill="#FEC6BD"/>
<path d="M32.8862 173.291C32.8862 173.291 32.524 172.811 32.1877 173.051C31.8514 173.291 32.1877 174.062 32.7568 174.208C33.3259 174.353 32.8862 173.299 32.8862 173.299V173.291Z" fill="#FEC6BD"/>
<path d="M25.5214 180.464C25.5214 180.464 25.1075 182.264 25.0299 187.406C24.9178 194.579 30.6521 197.33 34.429 196.884C36.5847 196.636 38.499 195.067 39.5165 193.559C44.4058 186.266 31.2212 179.718 31.2212 179.718L25.5214 180.464Z" fill="url(#paint9_radial_4489_8732)"/>
<path d="M25.5225 180.464L33.0244 193.996L39.5089 193.568L31.2136 179.727L25.5225 180.464Z" fill="url(#paint10_linear_4489_8732)"/>
<path d="M25.5217 180.464C25.5217 180.464 25.1078 182.264 25.0302 187.406C24.9181 194.579 26.384 194.75 33.7222 194.699C33.7222 194.699 35.0587 194.776 35.6278 193.062C36.2056 191.339 34.6362 191.185 33.5756 190.928C32.5236 190.662 31.6699 190.44 31.6699 190.44L31.2215 179.727L25.5217 180.473V180.464Z" fill="#6DB3FA"/>
<path d="M45.9325 191.117C45.9325 191.117 44.915 190.208 44.3459 189.797C43.7768 189.385 42.3453 190.44 43.4577 191.537C44.5701 192.634 45.0012 192.959 45.0012 192.959L45.9325 191.125V191.117Z" fill="#FEC6BD"/>
<path d="M44.6816 197.493L51.4938 193.456C51.9853 193.165 51.9853 192.488 51.4765 192.196L48.3895 190.44C48.1308 190.294 47.8031 190.294 47.5531 190.44L40.7323 194.536C40.2494 194.827 40.2753 195.496 40.784 195.779L43.8624 197.484C44.1211 197.63 44.4402 197.621 44.6903 197.484L44.6816 197.493Z" fill="#263344"/>
<path d="M44.6382 197.544L52.3213 192.994C52.442 192.925 52.511 192.805 52.511 192.668V187.389C52.511 187.08 52.1488 186.892 51.8729 187.054L44.8797 191.254C44.3968 191.545 44.1036 192.051 44.1208 192.591L44.2157 197.313C44.2157 197.519 44.4658 197.639 44.6468 197.527L44.6382 197.544Z" fill="#37475E"/>
<path d="M50.2439 194.408C50.4078 193.576 49.9335 192.719 49.3644 193.439C48.7694 194.185 47.9157 194.922 47.9502 195.445C47.9933 196.104 50.1318 194.999 50.2439 194.408Z" fill="#FEC6BD"/>
<path d="M35.1102 192.351C35.2482 192.376 39.8787 193.165 41.4912 193.285C42.4829 193.362 42.9744 193.893 43.3538 194.656C43.7332 195.419 41.7327 194.913 40.1202 194.399C38.5077 193.885 35.8001 193.842 34.4031 193.842C33.0062 193.842 33.446 192.008 35.1016 192.351H35.1102Z" fill="#FEC6BD"/>
<path d="M37.2488 171.868C37.2488 171.868 36.947 171.971 36.6366 172.005C36.3262 172.04 35.8778 171.842 35.7398 171.508C35.7398 171.508 35.3431 171.748 34.9206 171.491C34.4981 171.234 34.3429 171.011 33.929 171.337C33.929 171.337 33.5064 171.14 33.2909 171.577C33.0753 172.014 33.3254 172.708 32.6528 173.068L31.7215 172.314C31.7215 172.314 31.3421 170.548 33.1184 169.863C34.8947 169.177 36.1106 168.894 36.7832 169.503C37.4558 170.111 37.2402 171.86 37.2402 171.86L37.2488 171.868Z" fill="#37475E"/>
<path d="M71.4561 139.019C70.1023 138.196 67.8775 138.136 66.4892 138.899C65.1009 139.653 65.0751 140.939 66.4375 141.761C67.7913 142.584 70.016 142.636 71.4043 141.881C72.7926 141.127 72.8185 139.842 71.4561 139.019Z" fill="url(#paint11_linear_4489_8732)"/>
<path d="M81.4499 142.61C78.9407 141.084 74.8102 140.981 72.232 142.378C69.6623 143.775 69.6192 146.158 72.1371 147.683C72.8011 148.086 73.879 148.112 74.5516 147.743L81.4241 143.998C82.1053 143.63 82.1139 143.004 81.4499 142.601V142.61Z" fill="url(#paint12_linear_4489_8732)"/>
<path d="M109.974 114.183C109.767 113.84 109.31 113.729 108.965 113.943L77.3104 132.9C76.9655 133.106 76.8534 133.56 77.069 133.903C77.207 134.125 77.4398 134.245 77.6726 134.254C77.8106 134.254 77.9485 134.22 78.0693 134.151L109.724 115.194C110.069 114.988 110.181 114.534 109.966 114.191L109.974 114.183Z" fill="url(#paint13_linear_4489_8732)"/>
<path d="M114.234 117.371C114.027 117.028 113.57 116.917 113.225 117.131L81.5702 136.088C81.2253 136.294 81.1132 136.748 81.3288 137.091C81.4667 137.314 81.6995 137.434 81.9324 137.442C82.0703 137.442 82.2083 137.408 82.329 137.339L113.984 118.382C114.329 118.176 114.441 117.722 114.225 117.379L114.234 117.371Z" fill="url(#paint14_linear_4489_8732)"/>
<path d="M103.36 128.983L85.8642 139.619C85.5192 139.825 85.4071 140.279 85.6227 140.622C85.7607 140.844 85.9935 140.964 86.2263 140.973C86.3643 140.973 86.5023 140.939 86.623 140.87L104.119 130.235C104.464 130.029 104.576 129.575 104.36 129.232C104.153 128.889 103.696 128.778 103.352 128.992L103.36 128.983Z" fill="url(#paint15_linear_4489_8732)"/>
<path d="M93.7461 153.545C92.3923 152.723 90.1676 152.663 88.7793 153.425C87.391 154.179 87.3651 155.465 88.7275 156.288C90.09 157.11 92.3061 157.162 93.6944 156.408C95.0827 155.654 95.1085 154.368 93.7461 153.545Z" fill="url(#paint16_linear_4489_8732)"/>
<path d="M103.74 157.145C101.231 155.619 97.1003 155.516 94.522 156.913C91.9524 158.31 91.9093 160.693 94.4272 162.218C95.0911 162.621 96.169 162.647 96.8416 162.278L103.714 158.533C104.395 158.165 104.404 157.539 103.74 157.136V157.145Z" fill="url(#paint17_linear_4489_8732)"/>
<path d="M132.264 128.709C132.057 128.366 131.6 128.255 131.255 128.469L99.6005 147.426C99.2556 147.632 99.1435 148.086 99.359 148.429C99.497 148.652 99.7298 148.772 99.9626 148.78C100.101 148.78 100.239 148.746 100.359 148.678L132.014 129.72C132.359 129.515 132.471 129.061 132.256 128.718L132.264 128.709Z" fill="url(#paint18_linear_4489_8732)"/>
<path d="M136.524 131.897C136.317 131.554 135.86 131.443 135.515 131.657L103.86 150.614C103.515 150.82 103.403 151.274 103.619 151.617C103.757 151.84 103.99 151.96 104.222 151.968C104.36 151.968 104.498 151.934 104.619 151.866L136.274 132.909C136.619 132.703 136.731 132.249 136.515 131.906L136.524 131.897Z" fill="url(#paint19_linear_4489_8732)"/>
<path d="M125.65 143.51L108.154 154.145C107.809 154.351 107.697 154.805 107.913 155.148C108.051 155.371 108.284 155.491 108.516 155.499C108.654 155.499 108.792 155.465 108.913 155.397L126.409 144.761C126.754 144.555 126.866 144.101 126.65 143.758C126.444 143.416 125.986 143.304 125.642 143.518L125.65 143.51Z" fill="url(#paint20_linear_4489_8732)"/>
<path d="M119.132 168.912C117.778 168.089 115.553 168.029 114.165 168.792C112.777 169.546 112.751 170.831 114.113 171.654C115.467 172.477 117.692 172.528 119.08 171.774C120.468 171.02 120.494 169.734 119.132 168.912Z" fill="url(#paint21_linear_4489_8732)"/>
<path d="M129.126 172.511C126.616 170.985 122.486 170.883 119.908 172.28C117.338 173.676 117.295 176.059 119.813 177.584C120.477 177.987 121.555 178.013 122.227 177.644L129.1 173.899C129.781 173.531 129.79 172.905 129.126 172.502V172.511Z" fill="url(#paint22_linear_4489_8732)"/>
<path d="M157.652 144.075C157.445 143.733 156.988 143.621 156.643 143.835L124.988 162.792C124.643 162.998 124.531 163.452 124.747 163.795C124.885 164.018 125.118 164.138 125.35 164.147C125.488 164.147 125.626 164.112 125.747 164.044L157.402 145.087C157.747 144.881 157.859 144.427 157.643 144.084L157.652 144.075Z" fill="url(#paint23_linear_4489_8732)"/>
<path d="M161.921 147.263C161.714 146.921 161.257 146.809 160.912 147.023L129.257 165.98C128.912 166.186 128.8 166.64 129.015 166.983C129.153 167.206 129.386 167.326 129.619 167.335C129.757 167.335 129.895 167.3 130.016 167.232L161.67 148.275C162.015 148.069 162.128 147.615 161.912 147.272L161.921 147.263Z" fill="url(#paint24_linear_4489_8732)"/>
<path d="M151.047 158.876L133.551 169.511C133.206 169.717 133.094 170.171 133.309 170.514C133.447 170.737 133.68 170.857 133.913 170.866C134.051 170.866 134.189 170.831 134.309 170.763L151.806 160.127C152.15 159.922 152.263 159.467 152.047 159.125C151.84 158.782 151.383 158.67 151.038 158.885L151.047 158.876Z" fill="url(#paint25_linear_4489_8732)"/>
<path d="M115.657 137.973L113.769 140.296C113.579 140.493 113.743 140.81 114.01 140.784L116.683 140.553L115.657 137.973Z" fill="#30343A"/>
<path d="M121.011 131.357L115.657 137.973C115.657 137.973 115.156 139.653 116.683 140.553L125.478 139.91L121.011 131.366V131.357Z" fill="#FEC6BD"/>
<path d="M161.074 110.386L158.272 117.242L121.46 136.714L121.012 131.357L161.074 110.386Z" fill="#FFE600"/>
<path d="M158.271 117.242L162.367 120.645L125.478 139.902L121.46 136.714L158.271 117.242Z" fill="#FFD215"/>
<path d="M139.628 129.446C139.628 129.446 139.982 128.118 139.473 127.552C139.232 127.286 138.516 127.012 138.231 127.818C137.947 128.623 138.757 130.012 138.757 130.012L139.62 129.437L139.628 129.446Z" fill="#FEC6BD"/>
<path d="M161.075 110.386L165.541 113.369L166.05 118.819L162.368 120.645L158.272 117.242L157.651 112.16L161.075 110.386Z" fill="#FFEF2C"/>
<path d="M162.986 117.091C163.656 116.77 163.785 115.66 163.276 114.611C162.767 113.562 161.812 112.972 161.143 113.293C160.474 113.614 160.344 114.724 160.853 115.773C161.362 116.821 162.317 117.412 162.986 117.091Z" fill="#30343A"/>
<path d="M144.259 122.941C144.259 122.941 143.716 125.487 144.293 126.712C144.871 127.938 145.949 127.801 145.949 127.801L146.475 130.415L149.726 129.892C149.726 129.892 148.32 123.447 147.587 122.393C146.854 121.339 144.509 121.887 144.25 122.933L144.259 122.941Z" fill="#FEC6BD"/>
<path d="M148.631 121.313C148.631 121.313 147.898 120.328 145.639 120.653C143.38 120.979 143.656 122.95 144.104 123.387C144.552 123.824 144.992 124.115 144.992 124.115C144.992 124.115 145.622 123.79 145.725 124.561C145.829 125.332 145.398 125.65 145.398 125.65C145.398 125.65 146.303 126.601 147.191 126.978C148.079 127.355 148.933 127.201 149.606 126.095C150.278 124.99 151.175 121.827 148.631 121.322V121.313Z" fill="#30343A"/>
<path d="M146.139 128.726C146.139 128.726 148.622 128.332 149.148 127.466L157.495 123.164C157.495 123.164 157.935 124.433 157.677 126.061C157.418 127.689 154.029 131.631 154.029 131.631L153.425 139.07C153.425 139.07 152.054 141.161 149.459 141.873C146.863 142.584 144.639 141.736 144.639 141.736L142.604 137.168C142.604 137.168 139.163 138.205 138.025 136.705C136.887 135.205 138.352 129.429 138.352 129.429L139.758 129.309L140.681 133.234C140.681 133.234 141.621 130.586 146.156 128.709L146.139 128.726Z" fill="#6DB3FA"/>
<path d="M147.449 167.849C147.449 167.849 144.931 166.589 143.905 166.752C142.879 166.915 142.638 167.592 143.129 168.372C143.621 169.151 145.957 170.84 147.173 171.054C148.389 171.268 149.26 171.123 149.407 170.42C149.553 169.717 150.14 168.663 147.449 167.849Z" fill="#181F3D"/>
<path d="M155.814 165.843C155.814 165.843 154.925 165.801 154.425 165.621C153.925 165.441 152.718 164.892 152.261 165.372C151.804 165.852 152.554 166.915 153.468 167.48C154.382 168.046 156.771 168.363 157.547 168.183C158.323 168.003 158.642 167.052 158.392 166.46C158.142 165.869 157.547 165.552 156.952 165.621C156.357 165.689 155.814 165.843 155.814 165.843Z" fill="#181F3D"/>
<path d="M149.269 167.326C149.269 166.905 148.926 166.563 148.502 166.563C148.078 166.563 147.734 166.905 147.734 167.326V168.937C147.734 169.358 148.078 169.7 148.502 169.7C148.926 169.7 149.269 169.358 149.269 168.937V167.326Z" fill="#FEC6BD"/>
<path d="M157.194 166.872C156.789 167 156.358 166.786 156.22 166.383L155.901 165.509C155.771 165.106 155.987 164.678 156.392 164.541C156.798 164.412 157.229 164.626 157.367 165.029L157.686 165.903C157.815 166.306 157.599 166.735 157.194 166.872Z" fill="#FEC6BD"/>
<path d="M154.52 142.481C154.52 142.481 157.875 161.31 157.642 165.483C157.642 165.483 157.047 166.572 155.814 165.843L147.467 148.669L154.512 142.481H154.52Z" fill="#255299"/>
<path d="M154.52 142.481C154.52 142.481 157.875 161.31 157.642 165.483C157.642 165.483 157.047 166.572 155.814 165.843L147.467 148.669L154.512 142.481H154.52Z" fill="url(#paint26_linear_4489_8732)"/>
<path d="M153.425 139.07C153.425 139.07 155.012 141.47 154.426 144.178C153.917 146.561 152.123 148.934 152.123 148.934C152.123 148.934 152.606 159.981 149.476 168.286C149.476 168.286 148.295 169.1 147.45 168.149C147.45 168.149 145.622 157.805 145.285 152.063C144.949 146.321 144.639 141.744 144.639 141.744L153.425 139.079V139.07Z" fill="#2A60B7"/>
<path d="M113.699 140.544L126.867 149.654V154.479L141.508 157.805L145.751 152.028L132.342 148.223V143.33L113.699 140.544Z" fill="url(#paint27_linear_4489_8732)"/>
<defs>
<linearGradient id="paint0_linear_4489_8732" x1="166.369" y1="92.0418" x2="12.5065" y2="113.759" gradientUnits="userSpaceOnUse">
<stop stop-color="#ECF6FF"/>
<stop offset="1" stop-color="#E9F6FF" stop-opacity="0.2"/>
</linearGradient>
<linearGradient id="paint1_linear_4489_8732" x1="79.1264" y1="65.6744" x2="114.929" y2="96.2316" gradientUnits="userSpaceOnUse">
<stop stop-color="#CCE9FF"/>
<stop offset="1" stop-color="#F3F9FF"/>
</linearGradient>
<linearGradient id="paint2_linear_4489_8732" x1="1.00586" y1="189.18" x2="225.652" y2="189.18" gradientUnits="userSpaceOnUse">
<stop stop-color="#80B7EB"/>
<stop offset="0.24" stop-color="#7CB3EC"/>
<stop offset="0.47" stop-color="#71A8F0"/>
<stop offset="0.68" stop-color="#6096F8"/>
<stop offset="1" stop-color="#AED5FA"/>
</linearGradient>
<linearGradient id="paint3_linear_4489_8732" x1="1.00551" y1="164.138" x2="225.651" y2="164.138" gradientUnits="userSpaceOnUse">
<stop stop-color="#BFDBFF"/>
<stop offset="1" stop-color="#D1E4FF"/>
</linearGradient>
<linearGradient id="paint4_linear_4489_8732" x1="44.6651" y1="65.8474" x2="27.2244" y2="68.1287" gradientUnits="userSpaceOnUse">
<stop stop-color="#A7CCFF"/>
<stop offset="1" stop-color="#80BCFF"/>
</linearGradient>
<linearGradient id="paint5_linear_4489_8732" x1="212.304" y1="129.763" x2="239" y2="129.763" gradientUnits="userSpaceOnUse">
<stop stop-color="#A7CCFF"/>
<stop offset="1" stop-color="#80BCFF"/>
</linearGradient>
<radialGradient id="paint6_radial_4489_8732" cx="0" cy="0" r="1" gradientUnits="userSpaceOnUse" gradientTransform="translate(117.544 162.398) scale(68.0611 67.6439)">
<stop stop-color="#243477" stop-opacity="0.2"/>
<stop offset="1" stop-color="#243470" stop-opacity="0"/>
</radialGradient>
<linearGradient id="paint7_linear_4489_8732" x1="128.332" y1="119.908" x2="93.3046" y2="198.759" gradientUnits="userSpaceOnUse">
<stop stop-color="#FAFFFF"/>
<stop offset="0.37" stop-color="#F4FAFE"/>
<stop offset="0.81" stop-color="#E6F0FD"/>
</linearGradient>
<linearGradient id="paint8_linear_4489_8732" x1="39.5426" y1="185.443" x2="43.1769" y2="184.213" gradientUnits="userSpaceOnUse">
<stop stop-color="#133E8F" stop-opacity="0.4"/>
<stop offset="1" stop-color="#133E8F" stop-opacity="0"/>
</linearGradient>
<radialGradient id="paint9_radial_4489_8732" cx="0" cy="0" r="1" gradientUnits="userSpaceOnUse" gradientTransform="translate(32.1611 192.299) rotate(180) scale(4.57018 4.54216)">
<stop stop-color="#133E8F" stop-opacity="0.4"/>
<stop offset="1" stop-color="#133E8F" stop-opacity="0"/>
</radialGradient>
<linearGradient id="paint10_linear_4489_8732" x1="29.9374" y1="187.406" x2="32.6012" y2="186.998" gradientUnits="userSpaceOnUse">
<stop stop-color="#133E8F" stop-opacity="0.4"/>
<stop offset="1" stop-color="#133E8F" stop-opacity="0"/>
</linearGradient>
<linearGradient id="paint11_linear_4489_8732" x1="65.4286" y1="140.39" x2="72.4563" y2="140.39" gradientUnits="userSpaceOnUse">
<stop stop-color="#BFDBFF"/>
<stop offset="1" stop-color="#D1E4FF"/>
</linearGradient>
<linearGradient id="paint12_linear_4489_8732" x1="70.2832" y1="144.709" x2="81.9414" y2="144.709" gradientUnits="userSpaceOnUse">
<stop stop-color="#BFDBFF"/>
<stop offset="1" stop-color="#D1E4FF"/>
</linearGradient>
<linearGradient id="paint13_linear_4489_8732" x1="76.9655" y1="124.047" x2="110.078" y2="124.047" gradientUnits="userSpaceOnUse">
<stop stop-color="#BFDBFF"/>
<stop offset="1" stop-color="#D1E4FF"/>
</linearGradient>
<linearGradient id="paint14_linear_4489_8732" x1="81.2253" y1="127.235" x2="114.346" y2="127.235" gradientUnits="userSpaceOnUse">
<stop stop-color="#BFDBFF"/>
<stop offset="1" stop-color="#D1E4FF"/>
</linearGradient>
<linearGradient id="paint15_linear_4489_8732" x1="85.5192" y1="134.923" x2="104.473" y2="134.923" gradientUnits="userSpaceOnUse">
<stop stop-color="#BFDBFF"/>
<stop offset="1" stop-color="#D1E4FF"/>
</linearGradient>
<linearGradient id="paint16_linear_4489_8732" x1="87.7187" y1="154.917" x2="94.7464" y2="154.917" gradientUnits="userSpaceOnUse">
<stop stop-color="#BFDBFF"/>
<stop offset="1" stop-color="#D1E4FF"/>
</linearGradient>
<linearGradient id="paint17_linear_4489_8732" x1="92.5732" y1="159.236" x2="104.223" y2="159.236" gradientUnits="userSpaceOnUse">
<stop stop-color="#BFDBFF"/>
<stop offset="1" stop-color="#D1E4FF"/>
</linearGradient>
<linearGradient id="paint18_linear_4489_8732" x1="99.2556" y1="138.573" x2="132.368" y2="138.573" gradientUnits="userSpaceOnUse">
<stop stop-color="#BFDBFF"/>
<stop offset="1" stop-color="#D1E4FF"/>
</linearGradient>
<linearGradient id="paint19_linear_4489_8732" x1="103.515" y1="141.761" x2="136.636" y2="141.761" gradientUnits="userSpaceOnUse">
<stop stop-color="#BFDBFF"/>
<stop offset="1" stop-color="#D1E4FF"/>
</linearGradient>
<linearGradient id="paint20_linear_4489_8732" x1="107.809" y1="149.449" x2="126.763" y2="149.449" gradientUnits="userSpaceOnUse">
<stop stop-color="#BFDBFF"/>
<stop offset="1" stop-color="#D1E4FF"/>
</linearGradient>
<linearGradient id="paint21_linear_4489_8732" x1="113.113" y1="170.283" x2="120.132" y2="170.283" gradientUnits="userSpaceOnUse">
<stop stop-color="#BFDBFF"/>
<stop offset="1" stop-color="#D1E4FF"/>
</linearGradient>
<linearGradient id="paint22_linear_4489_8732" x1="117.959" y1="174.602" x2="129.617" y2="174.602" gradientUnits="userSpaceOnUse">
<stop stop-color="#BFDBFF"/>
<stop offset="1" stop-color="#D1E4FF"/>
</linearGradient>
<linearGradient id="paint23_linear_4489_8732" x1="124.643" y1="153.94" x2="157.764" y2="153.94" gradientUnits="userSpaceOnUse">
<stop stop-color="#BFDBFF"/>
<stop offset="1" stop-color="#D1E4FF"/>
</linearGradient>
<linearGradient id="paint24_linear_4489_8732" x1="128.912" y1="157.128" x2="162.024" y2="157.128" gradientUnits="userSpaceOnUse">
<stop stop-color="#BFDBFF"/>
<stop offset="1" stop-color="#D1E4FF"/>
</linearGradient>
<linearGradient id="paint25_linear_4489_8732" x1="133.197" y1="164.815" x2="152.159" y2="164.815" gradientUnits="userSpaceOnUse">
<stop stop-color="#BFDBFF"/>
<stop offset="1" stop-color="#D1E4FF"/>
</linearGradient>
<linearGradient id="paint26_linear_4489_8732" x1="152.166" y1="148.06" x2="155.957" y2="155.86" gradientUnits="userSpaceOnUse">
<stop stop-color="#133E90" stop-opacity="0.4"/>
<stop offset="1" stop-color="#133E90" stop-opacity="0"/>
</linearGradient>
<linearGradient id="paint27_linear_4489_8732" x1="133.342" y1="151.077" x2="117.451" y2="139.268" gradientUnits="userSpaceOnUse">
<stop stop-color="#B4D3FC" stop-opacity="0"/>
<stop offset="1" stop-color="#2F81E6" stop-opacity="0.3"/>
</linearGradient>
</defs>
</svg>
