<svg width="280" height="280" viewBox="0 0 280 280" fill="none" xmlns="http://www.w3.org/2000/svg">
<path d="M265.25 143.793L206.286 120.768C200.298 118.43 193.548 121.388 191.209 127.377L148.245 237.405C145.906 243.394 148.865 250.144 154.853 252.482L213.817 275.507C219.806 277.845 226.556 274.886 228.894 268.898L271.859 158.869C274.197 152.881 271.238 146.131 265.25 143.793Z" fill="url(#paint0_linear_3215_1737)"/>
<path d="M263.58 148L259.85 146.55L257.58 145.66C255.618 144.909 253.412 145.84 252.58 147.77C251.322 150.185 248.449 151.266 245.91 150.28L216.1 138.67C213.544 137.664 212.169 134.882 212.92 132.24V132.31C213.659 130.306 212.653 128.08 210.66 127.31L208.4 126.43L204.63 125C203.007 124.366 201.199 124.403 199.603 125.103C198.007 125.802 196.754 127.107 196.12 128.73L152.77 239.73C152.137 241.353 152.173 243.162 152.873 244.758C153.572 246.353 154.877 247.606 156.5 248.24L215.5 271.24C217.124 271.874 218.932 271.837 220.528 271.138C222.124 270.438 223.377 269.133 224.01 267.51L267.35 156.51C267.982 154.882 267.94 153.069 267.232 151.472C266.525 149.876 265.211 148.626 263.58 148Z" fill="#E9F4FF"/>
<path d="M236.049 139.398L226.278 135.583C225.912 135.44 225.501 135.62 225.358 135.986L225.354 135.995C225.212 136.36 225.392 136.772 225.757 136.915L235.529 140.73C235.894 140.873 236.306 140.692 236.448 140.327L236.452 140.318C236.595 139.953 236.414 139.541 236.049 139.398Z" fill="#5F99D3"/>
<path d="M240.1 142.75C240.652 142.75 241.1 142.302 241.1 141.75C241.1 141.198 240.652 140.75 240.1 140.75C239.547 140.75 239.1 141.198 239.1 141.75C239.1 142.302 239.547 142.75 240.1 142.75Z" fill="#5F99D3"/>
<path d="M260.59 173.76C260.59 173.76 203.11 178.04 190.76 179.38C178.41 180.72 176.02 183.55 163.52 176.55C151.02 169.55 147.44 166.43 141.94 167.62C136.44 168.81 137.03 174.02 139.56 177.15C142.09 180.28 151.16 184.74 151.16 184.74C142.808 183.751 134.348 184.228 126.16 186.15C112.99 189.35 110.38 193.74 110.68 197.54C110.98 201.34 115.29 201.26 115.29 201.26C112.377 202.659 109.961 204.917 108.37 207.73C105.84 212.35 108.82 218 116.37 214.65C116.37 214.65 112.58 217.48 112.37 221.35C112.16 225.22 117.81 226.41 121.6 223.81C121.6 223.81 119.07 225.52 119.81 227.9C120.55 230.28 122.94 231.7 128.07 230.65C133.2 229.6 144.45 225.93 155.16 226.26C165.87 226.59 173.8 222.91 177.6 219.12C181.4 215.33 241.22 223.29 241.22 223.29L260.59 173.76Z" fill="#FEC6BD"/>
<path d="M151.16 184.74C142.808 183.751 134.348 184.228 126.16 186.15C112.99 189.35 110.38 193.74 110.68 197.54C110.98 201.34 115.29 201.26 115.29 201.26C112.377 202.659 109.961 204.917 108.37 207.73C105.84 212.35 108.82 218 116.37 214.65C116.37 214.65 112.58 217.48 112.37 221.35C112.16 225.22 117.81 226.41 121.6 223.81C121.6 223.81 119.07 225.52 119.81 227.9C120.55 230.28 122.94 231.7 128.07 230.65C133.2 229.6 144.45 225.93 155.16 226.26C165.87 226.59 173.8 222.91 177.6 219.12C181.4 215.33 165 201.26 165 201.26C149.8 198.27 151.16 184.74 151.16 184.74Z" fill="url(#paint1_radial_3215_1737)"/>
<path d="M151.16 184.74C142.808 183.751 134.348 184.228 126.16 186.15C112.99 189.35 110.38 193.74 110.68 197.54C110.98 201.34 115.29 201.26 115.29 201.26C112.377 202.659 109.961 204.917 108.37 207.73C105.84 212.35 108.82 218 116.37 214.65C116.37 214.65 112.58 217.48 112.37 221.35C112.16 225.22 117.81 226.41 121.6 223.81C121.6 223.81 119.07 225.52 119.81 227.9C120.55 230.28 122.94 231.7 128.07 230.65C133.2 229.6 144.45 225.93 155.16 226.26C165.87 226.59 173.8 222.91 177.6 219.12C181.4 215.33 165 201.26 165 201.26C149.8 198.27 151.16 184.74 151.16 184.74Z" fill="url(#paint2_linear_3215_1737)"/>
<path d="M116.41 214.65C116.41 214.65 112.62 217.48 112.41 221.35C112.2 225.22 117.85 226.41 121.64 223.81C121.64 223.81 130.93 217.76 139.64 216.74L138.81 210.74L138.1 205.67C124.2 208.69 116.41 214.65 116.41 214.65Z" fill="url(#paint3_linear_3215_1737)"/>
<path d="M138.43 195.14C130.396 195.679 122.54 197.757 115.29 201.26C112.377 202.659 109.961 204.917 108.37 207.73C105.84 212.35 108.82 218 116.37 214.65C123.072 210.342 130.504 207.292 138.3 205.65L138.43 195.14Z" fill="url(#paint4_linear_3215_1737)"/>
<path d="M139.86 184.3C135.244 184.46 130.654 185.079 126.16 186.15C112.99 189.35 110.38 193.74 110.68 197.54C110.98 201.34 115.29 201.26 115.29 201.26C119.528 199.373 123.929 197.88 128.44 196.8C131.727 195.997 135.07 195.442 138.44 195.14L139.86 184.3Z" fill="url(#paint5_linear_3215_1737)"/>
<path d="M213.347 1.22997H103.747C98.5132 1.23553 94.2721 5.47664 94.2666 10.71V36.77C94.2721 42.0034 98.5132 46.2445 103.747 46.25H105.667C105.328 49.0094 103.703 51.4459 101.287 52.82C101.655 52.8599 102.026 52.88 102.397 52.88C107.03 52.7891 111.275 50.2717 113.577 46.25H213.377C218.612 46.25 222.857 42.0057 222.857 36.77V10.71C222.857 8.19056 221.854 5.77472 220.069 3.99601C218.285 2.2173 215.866 1.22204 213.347 1.22997Z" fill="url(#paint6_linear_3215_1737)"/>
<path d="M165.642 17.64H110.012C109.181 17.64 108.507 18.3138 108.507 19.145C108.507 19.9762 109.181 20.65 110.012 20.65H165.642C166.473 20.65 167.147 19.9762 167.147 19.145C167.147 18.3138 166.473 17.64 165.642 17.64Z" fill="#E9F4FF"/>
<path d="M207.542 26.96H110.012C109.181 26.96 108.507 27.6338 108.507 28.465C108.507 29.2962 109.181 29.97 110.012 29.97H207.542C208.373 29.97 209.047 29.2962 209.047 28.465C209.047 27.6338 208.373 26.96 207.542 26.96Z" fill="#E9F4FF"/>
<path d="M169.37 51.7099H242.49C245.009 51.702 247.428 52.6973 249.212 54.476C250.997 56.2547 252 58.6705 252 61.19V87.25C251.994 92.4834 247.753 96.7245 242.52 96.73H240.6C240.947 99.4916 242.578 101.927 245 103.3C244.631 103.34 244.26 103.36 243.89 103.36C239.257 103.269 235.012 100.752 232.71 96.73H169.37C164.136 96.7245 159.895 92.4834 159.89 87.25V61.19C159.89 55.9543 164.134 51.7099 169.37 51.7099Z" fill="#FFE33B"/>
<path d="M194.775 68.12H175.635C174.804 68.12 174.13 68.7938 174.13 69.625C174.13 70.4562 174.804 71.13 175.635 71.13H194.775C195.606 71.13 196.28 70.4562 196.28 69.625C196.28 68.7938 195.606 68.12 194.775 68.12Z" fill="#FFFEF0"/>
<path d="M236.685 77.44H175.635C174.804 77.44 174.13 78.1138 174.13 78.945C174.13 79.7762 174.804 80.45 175.635 80.45H236.685C237.516 80.45 238.19 79.7762 238.19 78.945C238.19 78.1138 237.516 77.44 236.685 77.44Z" fill="#FFFEF0"/>
<path d="M115.097 274.667H115.037C57.9466 271.167 13.2266 225.167 13.2266 169.967C13.2277 163.401 13.8607 156.851 15.1166 150.407C15.1585 149.992 15.4317 149.636 15.822 149.488C16.2123 149.341 16.6525 149.427 16.9586 149.71C17.2647 149.994 17.384 150.426 17.2666 150.827C16.0344 157.132 15.4148 163.542 15.4166 169.967C15.4166 223.967 59.2366 268.967 115.167 272.477C115.732 272.546 116.15 273.035 116.133 273.604C116.114 274.173 115.665 274.634 115.097 274.667Z" fill="#E9F4FF"/>
<path d="M135.29 250.57C134.913 250.563 134.554 250.409 134.29 250.14C134.151 250.014 134.045 249.856 133.98 249.68C133.905 249.499 133.864 249.306 133.86 249.11C133.855 249.017 133.855 248.923 133.86 248.83C133.879 248.737 133.91 248.646 133.95 248.56C133.983 248.469 134.027 248.381 134.08 248.3C134.135 248.222 134.195 248.149 134.26 248.08C134.326 248.012 134.4 247.951 134.48 247.9L134.74 247.76L135.01 247.68C135.489 247.591 135.981 247.74 136.33 248.08C136.592 248.348 136.743 248.705 136.75 249.08C136.749 249.275 136.712 249.469 136.64 249.65C136.568 249.822 136.462 249.978 136.33 250.11C136.194 250.249 136.031 250.358 135.85 250.43C135.676 250.518 135.485 250.566 135.29 250.57Z" fill="#F2E9B8"/>
<path d="M121.27 251.6C120.886 251.595 120.519 251.437 120.251 251.161C119.983 250.886 119.835 250.515 119.84 250.13C119.843 249.743 119.999 249.373 120.275 249.101C120.551 248.829 120.923 248.677 121.31 248.68C122.118 248.691 122.766 249.352 122.76 250.16C122.744 250.96 122.09 251.6 121.29 251.6H121.27ZM126.86 250.03C126.803 249.227 127.407 248.529 128.21 248.47C128.596 248.437 128.978 248.56 129.272 248.812C129.565 249.064 129.745 249.424 129.77 249.81C129.827 250.613 129.223 251.311 128.42 251.37H128.31C127.54 251.371 126.903 250.769 126.86 250V250.03ZM114.14 251.22C113.338 251.136 112.75 250.424 112.82 249.62C112.904 248.819 113.618 248.234 114.42 248.31C115.219 248.394 115.804 249.1 115.74 249.9C115.663 250.649 115.033 251.219 114.28 251.22H114.14ZM107.05 250.22C106.261 250.068 105.74 249.311 105.88 248.52C105.948 248.138 106.166 247.8 106.486 247.58C106.805 247.36 107.199 247.277 107.58 247.35C107.964 247.416 108.305 247.633 108.527 247.952C108.749 248.272 108.833 248.668 108.76 249.05C108.626 249.74 108.023 250.239 107.32 250.24L107.05 250.22ZM100.05 248.6C99.2798 248.382 98.8321 247.58 99.0502 246.81C99.2684 246.04 100.07 245.592 100.84 245.81C101.612 246.033 102.059 246.837 101.84 247.61C101.666 248.24 101.094 248.677 100.44 248.68C100.317 248.669 100.196 248.643 100.08 248.6H100.05ZM93.2502 246.4C92.8865 246.265 92.5915 245.991 92.4301 245.638C92.2688 245.286 92.2544 244.883 92.3902 244.52C92.6754 243.767 93.5137 243.383 94.2702 243.66C95.0235 243.945 95.407 244.784 95.1302 245.54C94.9287 246.128 94.3815 246.527 93.7602 246.54C93.5935 246.52 93.4313 246.473 93.2802 246.4H93.2502ZM86.6602 243.6C85.9357 243.253 85.6274 242.386 85.9702 241.66C86.1362 241.296 86.4442 241.017 86.8222 240.886C87.2002 240.756 87.6152 240.786 87.9702 240.97C88.3201 241.135 88.5897 241.432 88.7193 241.796C88.8489 242.161 88.8276 242.562 88.6602 242.91C88.419 243.42 87.9041 243.744 87.3402 243.74C87.1155 243.745 86.893 243.697 86.6902 243.6H86.6602ZM80.3402 240.26C79.6473 239.848 79.419 238.953 79.8302 238.26C80.0243 237.924 80.3453 237.679 80.7213 237.581C81.0973 237.484 81.4967 237.541 81.8302 237.74C82.523 238.152 82.7513 239.047 82.3402 239.74C82.0784 240.181 81.6031 240.451 81.0902 240.45C80.8383 240.446 80.5912 240.381 80.3702 240.26H80.3402ZM74.3402 236.37C73.6983 235.91 73.5427 235.021 73.9902 234.37C74.4503 233.728 75.3394 233.573 75.9902 234.02C76.6286 234.483 76.7797 235.372 76.3302 236.02C76.0608 236.406 75.6208 236.637 75.1502 236.64C74.8727 236.627 74.6052 236.533 74.3802 236.37H74.3402ZM68.7302 232C68.4326 231.751 68.2464 231.394 68.2126 231.007C68.1789 230.621 68.3003 230.237 68.5502 229.94C69.0715 229.326 69.9902 229.245 70.6102 229.76C71.2203 230.281 71.2962 231.196 70.7802 231.81C70.507 232.141 70.0995 232.332 69.6702 232.33C69.3274 232.336 68.9938 232.219 68.7302 232ZM63.4702 227.14C62.9032 226.57 62.9032 225.65 63.4702 225.08C63.7442 224.805 64.1167 224.65 64.5052 224.65C64.8937 224.65 65.2662 224.805 65.5402 225.08C66.1072 225.65 66.1072 226.57 65.5402 227.14C65.272 227.402 64.9146 227.552 64.5402 227.56C64.1394 227.571 63.7521 227.415 63.4702 227.13V227.14Z" fill="#F2E9B8"/>
<path d="M59.7701 222.37C59.5816 222.367 59.3952 222.33 59.2201 222.26C58.8661 222.107 58.5836 221.824 58.4301 221.47C58.3534 221.294 58.3158 221.102 58.3201 220.91C58.3152 220.817 58.3152 220.723 58.3201 220.63L58.4101 220.35C58.4475 220.264 58.491 220.18 58.5401 220.1C58.595 220.02 58.6588 219.946 58.7301 219.88C59.3062 219.329 60.214 219.329 60.7901 219.88C60.8555 219.949 60.9156 220.022 60.9701 220.1C61.0232 220.178 61.0668 220.262 61.1001 220.35C61.1405 220.44 61.1707 220.534 61.1901 220.63C61.2508 220.912 61.2192 221.207 61.1001 221.47C61.0339 221.648 60.9279 221.809 60.7901 221.94C60.718 222.009 60.6412 222.072 60.5601 222.13L60.3201 222.26C60.2343 222.299 60.1434 222.326 60.0501 222.34C59.958 222.359 59.8642 222.369 59.7701 222.37Z" fill="#F2E9B8"/>
<path d="M131.277 278.107C134.049 278.107 136.297 275.859 136.297 273.087C136.297 270.314 134.049 268.067 131.277 268.067C128.504 268.067 126.257 270.314 126.257 273.087C126.257 275.859 128.504 278.107 131.277 278.107Z" fill="url(#paint7_linear_3215_1737)"/>
<path d="M45.6098 202.04C47.1838 202.04 48.4598 200.764 48.4598 199.19C48.4598 197.616 47.1838 196.34 45.6098 196.34C44.0358 196.34 42.7598 197.616 42.7598 199.19C42.7598 200.764 44.0358 202.04 45.6098 202.04Z" fill="url(#paint8_linear_3215_1737)"/>
<path d="M52.7397 215.77C55.5122 215.77 57.7597 213.522 57.7597 210.75C57.7597 207.978 55.5122 205.73 52.7397 205.73C49.9673 205.73 47.7197 207.978 47.7197 210.75C47.7197 213.522 49.9673 215.77 52.7397 215.77Z" fill="#FFE33B"/>
<path d="M151.926 272.587C154.423 272.587 156.446 270.563 156.446 268.067C156.446 265.57 154.423 263.547 151.926 263.547C149.43 263.547 147.406 265.57 147.406 268.067C147.406 270.563 149.43 272.587 151.926 272.587Z" fill="#FFE33B"/>
<path d="M75.4941 37.8873L13.4781 50.5723C7.17991 51.8605 3.11855 58.0105 4.40681 64.3087L28.0773 180.033C29.3656 186.331 35.5156 190.392 41.8138 189.104L103.83 176.419C110.128 175.131 114.189 168.981 112.901 162.683L89.2306 46.9586C87.9423 40.6604 81.7923 36.5991 75.4941 37.8873Z" fill="url(#paint9_linear_3215_1737)"/>
<path d="M76.3968 42.35L72.4668 43.16L70.0868 43.65C68.0173 44.0683 66.6593 46.061 67.0268 48.14C67.2925 50.8537 65.4674 53.3303 62.7968 53.88L31.4468 60.28C28.7507 60.8311 26.0793 59.2352 25.2868 56.6V56.68C24.8002 54.6092 22.7474 53.3074 20.6668 53.75L18.2868 54.24L14.3668 55.04C12.659 55.3869 11.1595 56.3989 10.1989 57.8528C9.23837 59.3068 8.89579 61.0832 9.24676 62.79L33.1568 179.52C33.5011 181.229 34.5126 182.73 35.9672 183.691C37.4219 184.652 39.1996 184.994 40.9068 184.64L102.907 171.96C104.614 171.613 106.114 170.601 107.075 169.147C108.035 167.693 108.378 165.917 108.027 164.21L84.1468 47.47C83.4195 43.9168 79.9505 41.625 76.3968 42.35Z" fill="#E9F4FF"/>
<path d="M48.589 50.0593L38.3118 52.1614C37.9276 52.24 37.6799 52.6151 37.7585 52.9993L37.7605 53.0091C37.8391 53.3933 38.2142 53.641 38.5984 53.5624L48.8756 51.4603C49.2598 51.3817 49.5075 51.0066 49.4289 50.6224L49.4269 50.6126C49.3483 50.2284 48.9732 49.9807 48.589 50.0593Z" fill="#5F99D3"/>
<path d="M53.2764 50.83C53.8287 50.83 54.2764 50.3823 54.2764 49.83C54.2764 49.2777 53.8287 48.83 53.2764 48.83C52.7241 48.83 52.2764 49.2777 52.2764 49.83C52.2764 50.3823 52.7241 50.83 53.2764 50.83Z" fill="#5F99D3"/>
<path d="M16.126 96.3C16.126 96.3 73.356 96.49 82.896 96.3C92.436 96.11 91.956 81.58 104.736 82.07C104.736 82.07 108.736 74.95 118.316 80.13C118.316 80.13 126.076 75.76 132.386 84.65C132.386 84.65 146.456 83.52 151.956 95.49C152.669 97.0134 153.215 98.6093 153.586 100.25L142.336 103.61C141.276 101.04 139.776 98.87 137.036 98.44C130.126 97.35 126.036 100.99 124.296 109.72C122.556 118.45 125.996 126.22 130.366 125.25C134.736 124.28 138.616 120.88 140.796 126.1C142.976 131.32 137.886 137.26 129.876 137.98C121.866 138.7 108.286 135.68 100.166 133.74C92.046 131.8 24.876 139.06 24.876 139.06L16.126 96.3Z" fill="#FEC6BD"/>
<path d="M153.577 100.28C153.572 100.21 153.572 100.14 153.577 100.07C153.527 99.85 153.467 99.64 153.417 99.43C153.367 99.22 153.337 99.12 153.287 98.97C153.237 98.82 153.147 98.52 153.077 98.29L152.937 97.85C152.847 97.6 152.747 97.34 152.647 97.08L152.507 96.7C152.347 96.31 152.177 95.92 151.997 95.52C146.497 83.52 132.427 84.68 132.427 84.68C129.057 80 110.137 87 101.667 101C94.0767 113.49 96.3767 132.83 100.207 133.75C108.327 135.69 121.917 138.75 129.917 137.99C137.917 137.23 143.017 131.32 140.837 126.11C138.657 120.9 134.777 124.29 130.407 125.26C126.037 126.23 122.647 118.47 124.337 109.73C126.027 100.99 130.167 97.36 137.077 98.45C137.372 98.5009 137.663 98.5744 137.947 98.67L138.127 98.73C138.388 98.8166 138.639 98.9306 138.877 99.07L138.987 99.13C139.199 99.2561 139.403 99.3964 139.597 99.55L139.717 99.64C139.927 99.8076 140.125 99.9915 140.307 100.19L140.427 100.32C140.604 100.514 140.771 100.718 140.927 100.93V100.99C141.097 101.22 141.247 101.46 141.397 101.71L141.497 101.88C141.637 102.14 141.777 102.39 141.907 102.66C141.91 102.69 141.91 102.72 141.907 102.75C142.027 103.01 142.147 103.26 142.257 103.53C143.897 107.46 144.457 112.38 146.827 113.53C150.197 115.08 155.667 109.49 153.577 100.28Z" fill="url(#paint10_radial_3215_1737)"/>
<path d="M124.296 109.75C122.606 118.49 125.996 126.25 130.366 125.28C134.736 124.31 138.616 120.91 140.796 126.13C142.976 131.35 137.886 137.29 129.876 138.01C121.866 138.73 108.286 135.71 100.166 133.77C92.0459 131.83 125.996 101 124.296 109.75Z" fill="url(#paint11_linear_3215_1737)"/>
<path d="M104.737 82.1C104.737 82.1 108.737 74.98 118.317 80.16C118.317 80.16 110.927 80.98 103.547 90.88L104.737 82.1Z" fill="url(#paint12_linear_3215_1737)"/>
<path d="M118.316 80.16C118.316 80.16 126.076 75.79 132.386 84.68C125.85 84.6077 119.751 87.9514 116.296 93.5L113.086 88.65L118.316 80.16Z" fill="url(#paint13_linear_3215_1737)"/>
<path d="M131.376 109.28L128.996 112.75C126.266 117.38 131.626 126.29 141.196 132.87C150.766 139.45 160.986 141.25 164.336 137.04L166.716 133.56L131.376 109.28Z" fill="url(#paint14_linear_3215_1737)"/>
<path opacity="0.06" d="M130.996 112.15L128.316 116.05C128.316 116.34 128.316 116.64 128.406 116.94L131.476 112.48L130.996 112.15Z" fill="black"/>
<path opacity="0.06" d="M133.047 113.55L129.047 119.3L129.327 119.93L133.487 113.88L133.047 113.55Z" fill="black"/>
<path opacity="0.06" d="M135.086 115L130.356 121.88C130.457 122.069 130.567 122.253 130.686 122.43L135.566 115.33L135.086 115Z" fill="black"/>
<path opacity="0.06" d="M137.126 116.36L131.836 124.07L132.206 124.56L137.606 116.69L137.126 116.36Z" fill="black"/>
<path opacity="0.06" d="M139.176 117.77L133.456 126.08L133.866 126.53L139.666 118.1L139.176 117.77Z" fill="black"/>
<path opacity="0.06" d="M141.217 119.17L135.217 127.93L135.637 128.33L141.667 119.5L141.217 119.17Z" fill="black"/>
<path opacity="0.06" d="M143.267 120.58L137.047 129.58L137.487 129.97L143.747 120.86L143.267 120.58Z" fill="black"/>
<path opacity="0.06" d="M145.306 122L138.956 131.24L139.416 131.6L145.786 122.33L145.306 122Z" fill="black"/>
<path opacity="0.06" d="M147.356 123.39L140.956 132.7L141.196 132.87L141.436 133.03L147.836 123.72L147.356 123.39Z" fill="black"/>
<path opacity="0.06" d="M149.396 124.79L143.026 134.06L143.526 134.36L149.876 125.12L149.396 124.79Z" fill="black"/>
<path opacity="0.06" d="M151.437 126.2L145.177 135.31L145.697 135.58L151.917 126.53L151.437 126.2Z" fill="black"/>
<path opacity="0.06" d="M153.486 127.6L147.416 136.44L147.946 136.69L153.946 127.93L153.486 127.6Z" fill="black"/>
<path opacity="0.06" d="M155.526 129L149.736 137.43L150.296 137.65L156.006 129.33L155.526 129Z" fill="black"/>
<path opacity="0.06" d="M157.576 130.41L152.166 138.28L152.756 138.45L158.056 130.74L157.576 130.41Z" fill="black"/>
<path opacity="0.06" d="M159.666 131.82L154.786 138.92L155.416 139.04L160.146 132.15L159.666 131.82Z" fill="black"/>
<path opacity="0.06" d="M161.667 133.22L157.507 139.27H158.197L162.147 133.52L161.667 133.22Z" fill="black"/>
<path opacity="0.06" d="M163.666 134.63L160.666 139.09C160.96 139.025 161.25 138.945 161.536 138.85L164.206 134.96L163.666 134.63Z" fill="black"/>
<path d="M166.704 134.719C169.852 130.191 164.525 121.043 154.807 114.287C145.088 107.531 134.658 105.726 131.51 110.255C128.362 114.784 133.688 123.931 143.407 130.687C153.125 137.443 163.556 139.248 166.704 134.719Z" fill="#FFDC00"/>
<g opacity="0.4">
<path opacity="0.4" d="M137.736 108.29C142.136 108.29 148.156 110.62 153.816 114.51C157.823 117.144 161.272 120.542 163.966 124.51C166.026 127.79 166.536 130.65 165.356 132.37C164.306 133.89 162.206 134.21 160.626 134.21C156.226 134.21 150.206 131.89 144.546 127.99C140.537 125.358 137.087 121.96 134.396 117.99C132.336 114.71 131.826 111.85 133.006 110.14C134.006 108.61 136.156 108.29 137.736 108.29ZM137.736 107.79C135.376 107.79 133.546 108.46 132.586 109.86C129.876 113.86 135.096 122.12 144.256 128.42C150.186 132.49 156.256 134.72 160.626 134.72C162.986 134.72 164.806 134.06 165.766 132.66C168.486 128.71 163.266 120.4 154.096 114.1C148.176 110.03 142.096 107.79 137.736 107.79Z" fill="white"/>
</g>
<path d="M157.477 122.41V122.35L152.217 116.96C152.193 116.955 152.17 116.955 152.147 116.96C152.09 116.928 152.03 116.905 151.967 116.89L140.637 114.25L140.127 114.97C139.267 116.19 139.467 117.97 140.687 120.07L145.937 125.46L146.017 125.53H146.107L152.957 128.65H153.007C155.357 129.1 157.127 128.65 158.007 127.45L158.517 126.73C158.465 125.235 158.112 123.765 157.477 122.41ZM151.567 117.9L155.387 121.83L143.777 119.62L151.567 117.9ZM141.327 119C140.671 118.048 140.46 116.859 140.747 115.74L149.017 117.31L141.327 119ZM146.617 124.56L142.617 120.49L148.807 121.67L151.807 126.94L146.617 124.56ZM153.497 127.64L150.257 121.94L156.647 123.16C157.507 124.71 157.697 126.05 157.127 126.85C156.557 127.65 155.247 128 153.497 127.67V127.64Z" fill="url(#paint15_linear_3215_1737)"/>
<path d="M157.976 121.7C157.979 121.68 157.979 121.66 157.976 121.64L152.666 116.2H152.596C152.544 116.167 152.487 116.143 152.426 116.13L141.066 113.9C140.855 113.857 140.639 113.944 140.516 114.12C139.656 115.34 139.856 117.12 141.076 119.22L146.326 124.61C146.348 124.638 146.375 124.662 146.406 124.68C146.436 124.687 146.467 124.687 146.496 124.68L153.346 127.8H153.406C155.766 128.25 157.536 127.8 158.406 126.6C159.276 125.4 159.196 123.76 157.976 121.7ZM144.276 118.9L152.066 117.18L155.896 121.11L144.276 118.9ZM141.276 115.05L149.546 116.62L141.856 118.31C141.191 117.363 140.968 116.174 141.246 115.05H141.276ZM147.146 123.87L143.146 119.8L149.326 120.98L152.326 126.25L147.146 123.87ZM154.026 126.95L150.786 121.25L157.176 122.47C158.046 124.02 158.226 125.36 157.666 126.16C157.106 126.96 155.756 127.24 153.996 127L154.026 126.95Z" fill="url(#paint16_linear_3215_1737)"/>
<path d="M151.956 95.52C157.456 107.52 150.746 115.33 146.866 113.52C142.986 111.71 143.946 99.52 137.036 98.52L151.956 95.52Z" fill="#FEC6BD"/>
<defs>
<linearGradient id="paint0_linear_3215_1737" x1="233.913" y1="137.031" x2="183.964" y2="264.945" gradientUnits="userSpaceOnUse">
<stop stop-color="#A9CEFF"/>
<stop offset="1" stop-color="#80BEFF"/>
</linearGradient>
<radialGradient id="paint1_radial_3215_1737" cx="0" cy="0" r="1" gradientUnits="userSpaceOnUse" gradientTransform="translate(105.055 180.45) scale(22.75)">
<stop stop-color="#F5AEA7"/>
<stop offset="1" stop-color="#F5AEA7" stop-opacity="0"/>
</radialGradient>
<linearGradient id="paint2_linear_3215_1737" x1="144.21" y1="217.349" x2="143.923" y2="214.105" gradientUnits="userSpaceOnUse">
<stop stop-color="#F5AEA7"/>
<stop offset="1" stop-color="#F5AEA7" stop-opacity="0"/>
</linearGradient>
<linearGradient id="paint3_linear_3215_1737" x1="128.16" y1="219.569" x2="126.784" y2="215.016" gradientUnits="userSpaceOnUse">
<stop stop-color="#F5AEA7"/>
<stop offset="1" stop-color="#F5AEA7" stop-opacity="0"/>
</linearGradient>
<linearGradient id="paint4_linear_3215_1737" x1="124.66" y1="207.525" x2="123.946" y2="204.665" gradientUnits="userSpaceOnUse">
<stop stop-color="#F5AEA7"/>
<stop offset="1" stop-color="#F5AEA7" stop-opacity="0"/>
</linearGradient>
<linearGradient id="paint5_linear_3215_1737" x1="125.92" y1="194.443" x2="125.735" y2="192.517" gradientUnits="userSpaceOnUse">
<stop stop-color="#F5AEA7"/>
<stop offset="1" stop-color="#F5AEA7" stop-opacity="0"/>
</linearGradient>
<linearGradient id="paint6_linear_3215_1737" x1="94.2666" y1="27.05" x2="222.827" y2="27.05" gradientUnits="userSpaceOnUse">
<stop stop-color="#A9CEFF"/>
<stop offset="1" stop-color="#80BEFF"/>
</linearGradient>
<linearGradient id="paint7_linear_3215_1737" x1="126.257" y1="273.087" x2="136.307" y2="273.087" gradientUnits="userSpaceOnUse">
<stop stop-color="#A9CEFF"/>
<stop offset="1" stop-color="#80BEFF"/>
</linearGradient>
<linearGradient id="paint8_linear_3215_1737" x1="42.7598" y1="199.19" x2="48.4498" y2="199.19" gradientUnits="userSpaceOnUse">
<stop stop-color="#A9CEFF"/>
<stop offset="1" stop-color="#80BEFF"/>
</linearGradient>
<linearGradient id="paint9_linear_3215_1737" x1="45.5101" y1="49.2361" x2="73.0262" y2="183.761" gradientUnits="userSpaceOnUse">
<stop stop-color="#A9CEFF"/>
<stop offset="1" stop-color="#80BEFF"/>
</linearGradient>
<radialGradient id="paint10_radial_3215_1737" cx="0" cy="0" r="1" gradientUnits="userSpaceOnUse" gradientTransform="translate(119.28 115.09) scale(15.58)">
<stop stop-color="#F5AEA7"/>
<stop offset="1" stop-color="#F5AEA7" stop-opacity="0"/>
</radialGradient>
<linearGradient id="paint11_linear_3215_1737" x1="136.876" y1="123.16" x2="127.466" y2="123.16" gradientUnits="userSpaceOnUse">
<stop stop-color="#F5AEA7"/>
<stop offset="1" stop-color="#F5AEA7" stop-opacity="0"/>
</linearGradient>
<linearGradient id="paint12_linear_3215_1737" x1="113.507" y1="86.0581" x2="108.907" y2="84.0405" gradientUnits="userSpaceOnUse">
<stop stop-color="#F5AEA7"/>
<stop offset="1" stop-color="#F5AEA7" stop-opacity="0"/>
</linearGradient>
<linearGradient id="paint13_linear_3215_1737" x1="126.966" y1="88.0316" x2="119.776" y2="84.4002" gradientUnits="userSpaceOnUse">
<stop stop-color="#F5AEA7"/>
<stop offset="1" stop-color="#F5AEA7" stop-opacity="0"/>
</linearGradient>
<linearGradient id="paint14_linear_3215_1737" x1="166.221" y1="130.489" x2="130.803" y2="105.869" gradientUnits="userSpaceOnUse">
<stop stop-color="#FFC113"/>
<stop offset="1" stop-color="#FFD000"/>
</linearGradient>
<linearGradient id="paint15_linear_3215_1737" x1="139.96" y1="117.641" x2="155.547" y2="128.604" gradientUnits="userSpaceOnUse">
<stop stop-color="#FFC113"/>
<stop offset="1" stop-color="#FFD000"/>
</linearGradient>
<linearGradient id="paint16_linear_3215_1737" x1="146.439" y1="123.177" x2="150.277" y2="117.564" gradientUnits="userSpaceOnUse">
<stop stop-color="#FFE000"/>
<stop offset="1" stop-color="#FFE200"/>
</linearGradient>
</defs>
</svg>
