<svg width="160" height="160" viewBox="0 0 160 160" fill="none" xmlns="http://www.w3.org/2000/svg">
<rect width="160" height="160" fill="#F8FAFB"/>
<path d="M67.0794 63.3487L60.0608 100.076L59.1445 104.866L105.944 104.644C108.044 104.644 109.903 102.73 110.579 99.9071L118.87 65.2452C119.394 63.1083 118.256 60.8824 116.672 60.8824H69.2944C68.2625 60.9359 67.3463 61.9152 67.0794 63.3487Z" fill="url(#paint0_linear_3472_2728)"/>
<path d="M101.462 97.5833L96.507 56.9026C96.4358 56.128 96.08 55.3979 95.5196 54.8637C94.9592 54.3294 94.2297 54.0267 93.4558 54H82.5943C82.194 54 81.7937 54.089 81.4201 54.2582C81.0465 54.4274 80.7173 54.6678 80.4416 54.9705L75.2821 60.5531L45.0638 60.7222C44.6101 60.749 44.1742 60.8647 43.765 61.0784C43.3647 61.2832 43.0089 61.577 42.7242 61.9331C42.4396 62.2893 42.2261 62.7078 42.1104 63.1529C41.9948 63.5981 41.9681 64.0611 42.0393 64.5152L46.6383 102.106C46.7094 102.881 47.0653 103.611 47.6257 104.136C48.1861 104.671 48.9156 104.973 49.6895 105L102.36 104.893C108.214 105.018 108.774 103.166 108.774 103.166C102.058 104.804 101.462 97.5655 101.462 97.5655V97.5833Z" fill="url(#paint1_linear_3472_2728)"/>
<path d="M70 71C62.8289 71 57 76.8289 57 84C57 91.1711 62.8289 97 70 97C77.1711 97 83 91.1711 83 84C83 76.8289 77.1711 71 70 71ZM59.7581 84C59.7581 78.355 64.355 73.7581 70 73.7581C72.3904 73.7581 74.5877 74.5856 76.3345 75.9646L61.9646 90.3345C60.5856 88.5877 59.7581 86.3904 59.7581 84ZM70 94.2419C67.7383 94.2419 65.6421 93.4972 63.9505 92.2468L78.2468 77.9505C79.4972 79.6513 80.2419 81.7383 80.2419 84C80.2419 89.645 75.645 94.2419 70 94.2419Z" fill="url(#paint2_linear_3472_2728)"/>
<defs>
<linearGradient id="paint0_linear_3472_2728" x1="89.0782" y1="60.8824" x2="89.0782" y2="104.866" gradientUnits="userSpaceOnUse">
<stop stop-color="#CAD6DB"/>
<stop offset="1" stop-color="#BDCAD0"/>
<stop offset="1" stop-color="#BDCAD0"/>
</linearGradient>
<linearGradient id="paint1_linear_3472_2728" x1="75.387" y1="54" x2="75.387" y2="105" gradientUnits="userSpaceOnUse">
<stop stop-color="#E2EAEE"/>
<stop offset="1" stop-color="#CEDADF"/>
</linearGradient>
<linearGradient id="paint2_linear_3472_2728" x1="70" y1="71" x2="70" y2="97" gradientUnits="userSpaceOnUse">
<stop stop-color="white"/>
<stop offset="1" stop-color="#F0F4F7"/>
</linearGradient>
</defs>
</svg>
