<svg width="36" height="36" viewBox="0 0 36 36" fill="none" xmlns="http://www.w3.org/2000/svg">
<path d="M3 23.68V26.25C3.3 29.51 9.26 32.08 16.54 32C23.82 31.92 29.7 29.23 29.9 26V23.43L3 23.68Z" fill="#FFD215"/>
<path opacity="0.06" d="M3.83984 25.24V28.13C3.95984 28.27 4.07984 28.41 4.20984 28.54V25.24H3.83984Z" fill="black"/>
<path opacity="0.06" d="M5.38965 25.23L5.43965 29.48L5.80965 29.7V25.22L5.38965 25.23Z" fill="black"/>
<path opacity="0.06" d="M7 25.21V30.3L7.36 30.46L7.3 25.21H7Z" fill="black"/>
<path opacity="0.06" d="M8.5 25.19L8.57 30.89L8.93 31.01L8.87 25.19H8.5Z" fill="black"/>
<path opacity="0.06" d="M10.0596 25.18L10.1296 31.33L10.4896 31.41L10.4196 25.17L10.0596 25.18Z" fill="black"/>
<path opacity="0.06" d="M11.6104 25.16L11.6804 31.64L12.0504 31.69L12.0004 25.16H11.6104Z" fill="black"/>
<path opacity="0.06" d="M13.1699 25.14L13.2399 31.84H13.6099L13.5299 25.1L13.1699 25.14Z" fill="black"/>
<path opacity="0.06" d="M14.7197 25.13L14.7997 32H15.1597L15.0797 25.14L14.7197 25.13Z" fill="black"/>
<path opacity="0.06" d="M16.2695 25.11L16.3495 32H16.7195L16.6395 25.12L16.2695 25.11Z" fill="black"/>
<path opacity="0.06" d="M17.8301 25.09L17.9101 32H18.2701L18.1901 25.17L17.8301 25.09Z" fill="black"/>
<path opacity="0.06" d="M19.3799 25.08L19.4599 31.82L19.8199 31.77L19.7499 25.07L19.3799 25.08Z" fill="black"/>
<path opacity="0.06" d="M20.9404 25.06L21.0004 31.6L21.3604 31.53L21.2904 25.06H20.9404Z" fill="black"/>
<path opacity="0.06" d="M22.4902 25.05L22.5602 31.28L22.9302 31.19L22.8602 25L22.4902 25.05Z" fill="black"/>
<path opacity="0.06" d="M24.0498 25L24.1098 30.82L24.4698 30.69L24.4098 25H24.0498Z" fill="black"/>
<path opacity="0.06" d="M25.5996 25L25.6596 30.26L25.9996 30.1V25H25.5996Z" fill="black"/>
<path opacity="0.06" d="M27.1504 25L27.2004 29.47L27.5704 29.24L27.5204 25H27.1504Z" fill="black"/>
<path opacity="0.06" d="M28.71 25V28.3C28.84 28.16 28.95 28.02 29.07 27.87V25H28.71Z" fill="black"/>
<path d="M16.5094 29.6261C23.9372 29.5483 29.9301 26.7588 29.8949 23.3956C29.8597 20.0324 23.8097 17.369 16.3819 17.4468C8.95406 17.5246 2.96117 20.3141 2.99639 23.6773C3.03161 27.0405 9.0816 29.7039 16.5094 29.6261Z" fill="#FFDE00"/>
<path opacity="0.4" d="M16.7104 18.11V18.24C23.4104 18.24 28.8904 20.5 28.9204 23.24C28.9204 24.59 27.6704 25.9 25.3504 26.9C22.533 28.0086 19.5278 28.5621 16.5004 28.53H16.1804C9.47036 28.58 4.00036 26.32 4.00036 23.54C4.00036 22.18 5.26036 20.88 7.58036 19.88C10.3981 18.7716 13.4026 18.2148 16.4304 18.24H16.7504V18.11H16.7104ZM16.7504 18.11H16.4204C9.42036 18.19 3.84036 20.62 3.87024 23.54C3.90036 26.46 9.40036 28.71 16.2204 28.71H16.5404C23.5404 28.64 29.1304 26.21 29.1005 23.28C29.0704 20.35 23.5704 18.12 16.7504 18.12V18.11Z" fill="white"/>
<path d="M6.09961 19.2V21.77C6.37961 25.03 12.3396 27.6 19.6096 27.52C26.8796 27.44 32.7696 24.75 32.9696 21.52V18.95L6.09961 19.2Z" fill="#FFD215"/>
<path opacity="0.06" d="M6.94043 20.76V23.65C7.0528 23.7962 7.17652 23.9333 7.31043 24.06V20.76H6.94043Z" fill="black"/>
<path opacity="0.06" d="M8.5 20.75L8.55 25L8.91 25.22L8.86 20.74L8.5 20.75Z" fill="black"/>
<path opacity="0.06" d="M10.0498 20.73L10.1098 25.82L10.4798 25.98L10.4198 20.73H10.0498Z" fill="black"/>
<path opacity="0.06" d="M11.6104 20.71L11.6704 26.41L12.0404 26.53L12.0004 20.71H11.6104Z" fill="black"/>
<path opacity="0.06" d="M13.1602 20.7L13.2302 26.85L13.6002 26.93L13.5302 20.69L13.1602 20.7Z" fill="black"/>
<path opacity="0.06" d="M14.7197 20.68L14.7897 27.16L15.1497 27.21L15.0797 20.68H14.7197Z" fill="black"/>
<path opacity="0.06" d="M16.2695 20.66L16.3395 27.36H16.7095L16.6295 20.62L16.2695 20.66Z" fill="black"/>
<path opacity="0.06" d="M17.8203 20.65L17.9003 27.48H18.2703L18.1903 20.62L17.8203 20.65Z" fill="black"/>
<path opacity="0.06" d="M19.3799 20.63L19.4599 27.52H19.8199L19.7399 20.64L19.3799 20.63Z" fill="black"/>
<path opacity="0.06" d="M20.9297 20.61L20.9997 27.47H21.3597L21.2897 20.64L20.9297 20.61Z" fill="black"/>
<path opacity="0.06" d="M22.4902 20.6L22.5602 27.34L22.9302 27.29L22.8502 20.59L22.4902 20.6Z" fill="black"/>
<path opacity="0.06" d="M24 20.58L24.07 27.12L24.44 27.05L24.37 20.58H24Z" fill="black"/>
<path opacity="0.06" d="M25.5898 20.57L25.6598 26.8L26.0298 26.71L25.9998 20.56L25.5898 20.57Z" fill="black"/>
<path opacity="0.06" d="M27.1504 20.55L27.2104 26.37L27.5804 26.24L27.5104 20.54L27.1504 20.55Z" fill="black"/>
<path opacity="0.06" d="M28.7002 20.53L28.7602 25.79L29.1302 25.62L29.0702 20.53H28.7002Z" fill="black"/>
<path opacity="0.06" d="M30.2598 20.52V24.99L30.6198 24.76L30.5698 20.51L30.2598 20.52Z" fill="black"/>
<path opacity="0.06" d="M31.8096 20.5V23.8C31.9378 23.6638 32.058 23.5202 32.1696 23.37V20.5H31.8096Z" fill="black"/>
<path d="M19.612 25.1539C27.0398 25.0761 33.0327 22.2866 32.9975 18.9234C32.9622 15.5602 26.9122 12.8968 19.4844 12.9746C12.0566 13.0524 6.06371 15.8419 6.09893 19.2051C6.13415 22.5683 12.1841 25.2317 19.612 25.1539Z" fill="#FFDE00"/>
<path opacity="0.4" d="M19.8097 13.63V13.76C26.5197 13.76 31.9997 16 31.9997 18.8C31.9997 20.15 30.7397 21.46 28.4197 22.46C25.6058 23.5688 22.6039 24.1223 19.5797 24.09H19.2497C12.5497 24.09 7.06965 21.83 7.03965 19.09C7.03965 17.73 8.28965 16.43 10.6097 15.43C13.4277 14.3226 16.4319 13.7658 19.4597 13.79H19.7797V13.66L19.8097 13.63ZM19.7797 13.66H19.4597C12.4597 13.74 6.86965 16.17 6.89953 19.09C6.92965 22.01 12.4297 24.26 19.2497 24.26H19.5797C26.5797 24.19 32.1597 21.76 32.1298 18.83C32.0997 15.9 26.5997 13.67 19.7797 13.67V13.66Z" fill="white"/>
<path d="M3 14.72V17.29C3.3 20.55 9.26 23.12 16.54 23C23.82 22.88 29.7 20.27 29.9 17V14.43L3 14.72Z" fill="#FFD215"/>
<path opacity="0.06" d="M3.83984 16.28V19.17C3.95984 19.31 4.07984 19.45 4.20984 19.58V16.28H3.83984Z" fill="black"/>
<path opacity="0.06" d="M5.38965 16.27L5.43965 20.52L5.80965 20.74V16.26L5.38965 16.27Z" fill="black"/>
<path opacity="0.06" d="M7 16.25V21.34L7.36 21.5L7.3 16.25H7Z" fill="black"/>
<path opacity="0.06" d="M8.5 16.23L8.57 21.93L8.93 22.05L8.87 16.23H8.5Z" fill="black"/>
<path opacity="0.06" d="M10.0596 16.22L10.1296 22.37L10.4896 22.45L10.4196 16.21L10.0596 16.22Z" fill="black"/>
<path opacity="0.06" d="M11.6104 16.2L11.6804 22.68L12.0504 22.73L12.0004 16.2H11.6104Z" fill="black"/>
<path opacity="0.06" d="M13.1699 16.18L13.2399 22.88H13.6099L13.5299 16.14L13.1699 16.18Z" fill="black"/>
<path opacity="0.06" d="M14.7197 16.17L14.7997 23H15.1597L15.0797 16.14L14.7197 16.17Z" fill="black"/>
<path opacity="0.06" d="M16.2695 16.15L16.3495 23H16.7195L16.6395 16.12L16.2695 16.15Z" fill="black"/>
<path opacity="0.06" d="M17.8301 16.13L17.9101 23H18.2701L18.1901 16.17L17.8301 16.13Z" fill="black"/>
<path opacity="0.06" d="M19.3799 16.12L19.4599 22.86L19.8199 22.81L19.7499 16.11L19.3799 16.12Z" fill="black"/>
<path opacity="0.06" d="M20.9404 16.1L21.0004 22.64L21.3604 22.57L21.3004 16.1H20.9404Z" fill="black"/>
<path opacity="0.06" d="M22.4902 16.09L22.5602 22.32L22.9302 22.23L22.8602 16.08L22.4902 16.09Z" fill="black"/>
<path opacity="0.06" d="M24.0498 16.07L24.1098 21.89L24.4698 21.76L24.4098 16.06L24.0498 16.07Z" fill="black"/>
<path opacity="0.06" d="M25.5996 16.05L25.6596 21.31L26.0196 21.14L25.9996 16.05H25.5996Z" fill="black"/>
<path opacity="0.06" d="M27.1504 16L27.2004 20.47L27.5704 20.24L27.5204 16H27.1504Z" fill="black"/>
<path opacity="0.06" d="M28.71 16V19.3C28.84 19.16 28.95 19.02 29.07 18.87V16H28.71Z" fill="black"/>
<path d="M16.5153 20.6666C23.9431 20.5888 29.936 17.7993 29.9008 14.4361C29.8656 11.0729 23.8156 8.40948 16.3877 8.48727C8.95992 8.56505 2.96703 11.3545 3.00225 14.7178C3.03747 18.081 9.08746 20.7444 16.5153 20.6666Z" fill="#FFDE00"/>
<path opacity="0.4" d="M16.7104 9.14999V9.27999C23.4104 9.27999 28.8904 11.54 28.9204 14.28C28.9204 15.63 27.6704 16.94 25.3504 17.94C22.533 19.0486 19.5278 19.6021 16.5004 19.57H16.1804C9.47036 19.62 4.00036 17.36 4.00036 14.58C4.00036 13.22 5.26036 11.92 7.58036 10.92C10.3981 9.8116 13.4026 9.25484 16.4304 9.27999H16.7504V9.14999H16.7104ZM16.7504 9.14999H16.4204C9.42036 9.22999 3.84036 11.66 3.87024 14.58C3.90036 17.5 9.40036 19.75 16.2204 19.75H16.5404C23.5404 19.68 29.1304 17.25 29.1005 14.32C29.0704 11.39 23.5304 9.14999 16.7104 9.14999H16.7504Z" fill="white"/>
<path d="M6.09961 10.24V12.81C6.37961 16.07 12.3396 18.64 19.6096 18.56C26.8796 18.48 32.7696 15.79 32.9696 12.56L32.9996 10L6.09961 10.24Z" fill="#FFD215"/>
<path opacity="0.06" d="M6.94043 11.8V14.69C7.0528 14.8362 7.17652 14.9733 7.31043 15.1V11.8H6.94043Z" fill="black"/>
<path opacity="0.06" d="M8.5 11.79L8.55 16L8.91 16.22L8.86 11.74L8.5 11.79Z" fill="black"/>
<path opacity="0.06" d="M10.0498 11.77L10.1098 16.86L10.4798 17.02L10.4198 11.77H10.0498Z" fill="black"/>
<path opacity="0.06" d="M11.6104 11.75L11.6704 17.45L12.0404 17.57L12.0004 11.75H11.6104Z" fill="black"/>
<path opacity="0.06" d="M13.1602 11.74L13.2302 17.89L13.6002 17.97L13.5302 11.73L13.1602 11.74Z" fill="black"/>
<path opacity="0.06" d="M14.7197 11.72L14.7897 18.2L15.1497 18.25L15.0797 11.72H14.7197Z" fill="black"/>
<path opacity="0.06" d="M16.2695 11.7L16.3395 18.4H16.7095L16.6295 11.66L16.2695 11.7Z" fill="black"/>
<path opacity="0.06" d="M17.8203 11.69L17.9003 18.52H18.2703L18.1903 11.66L17.8203 11.69Z" fill="black"/>
<path opacity="0.06" d="M19.3799 11.67L19.4599 18.56H19.8199L19.7399 11.68L19.3799 11.67Z" fill="black"/>
<path opacity="0.06" d="M20.9297 11.65L20.9997 18.51C21.1197 18.51 21.2397 18.51 21.3597 18.51L21.2897 11.68L20.9297 11.65Z" fill="black"/>
<path opacity="0.06" d="M22.4902 11.64L22.5602 18.38L22.9302 18.33L22.8502 11.63L22.4902 11.64Z" fill="black"/>
<path opacity="0.06" d="M24 11.62L24.07 18.16L24.44 18.09L24.37 11.62H24Z" fill="black"/>
<path opacity="0.06" d="M25.5898 11.61L25.6598 17.84L26.0298 17.75L25.9998 11.6L25.5898 11.61Z" fill="black"/>
<path opacity="0.06" d="M27.1504 11.59L27.2104 17.41L27.5804 17.28L27.5104 11.58L27.1504 11.59Z" fill="black"/>
<path opacity="0.06" d="M28.7002 11.57L28.7602 16.83L29.1302 16.66L29.0702 11.57H28.7002Z" fill="black"/>
<path opacity="0.06" d="M30.2598 11.56V16.03L30.6198 15.8L30.5698 11.55L30.2598 11.56Z" fill="black"/>
<path opacity="0.06" d="M31.8096 11.54V14.84C31.9378 14.7038 32.058 14.5602 32.1696 14.41V11.54H31.8096Z" fill="black"/>
<path d="M19.6188 16.1944C27.0466 16.1166 33.0395 13.3271 33.0043 9.96389C32.9691 6.60066 26.9191 3.93728 19.4913 4.01507C12.0634 4.09286 6.07054 6.88235 6.10577 10.2456C6.14099 13.6088 12.191 16.2722 19.6188 16.1944Z" fill="#FFDE00"/>
<path opacity="0.4" d="M19.8099 4.80001C26.5199 4.80001 31.9999 7.06001 31.9999 9.84001C31.9999 11.19 30.7399 12.5 28.4199 13.5C25.6061 14.6088 22.6042 15.1623 19.5799 15.13H19.2499C12.5499 15.13 7.06993 12.87 7.03993 10.13C7.03993 8.77001 8.28993 7.47001 10.6099 6.47001C13.4353 5.34854 16.4502 4.78156 19.4899 4.80001H19.8099ZM19.8099 4.67001H19.4899C12.4899 4.75001 6.89993 7.18001 6.92981 10.1C6.95993 13.02 12.4599 15.27 19.2799 15.27H19.6099C26.6099 15.2 32.1899 12.77 32.16 9.84001C32.1299 6.91001 26.6299 4.67001 19.8099 4.67001Z" fill="white"/>
</svg>
