<svg width="44" height="44" viewBox="0 0 44 44" fill="none" xmlns="http://www.w3.org/2000/svg">
<path d="M35 2H18C16.8954 2 16 2.89543 16 4V21C16 22.1046 16.8954 23 18 23H35C36.1046 23 37 22.1046 37 21V4C37 2.89543 36.1046 2 35 2Z" fill="#2A7CDD"/>
<path d="M31.83 20.5C31.8355 19.0277 33.0277 17.8355 34.5 17.83C34.6784 17.8296 34.8562 17.8498 35.03 17.89V4H21.11C21.1502 4.17379 21.1704 4.35162 21.17 4.53C21.1482 5.99059 19.9607 7.16471 18.5 7.17C18.3317 7.16812 18.164 7.14801 18 7.11V21H31.89C31.852 20.836 31.8319 20.6683 31.83 20.5Z" fill="#508FEA"/>
<path d="M26.5004 17.75L23.1104 12.5L26.5004 7.25L29.8904 12.5L26.5004 17.75Z" fill="white"/>
<path d="M35 2H18C16.8954 2 16 2.89543 16 4V21C16 22.1046 16.8954 23 18 23H35C36.1046 23 37 22.1046 37 21V4C37 2.89543 36.1046 2 35 2Z" fill="url(#paint0_linear_3140_1390)"/>
<path d="M17 31C23.0751 31 28 26.0751 28 20C28 13.9249 23.0751 9 17 9C10.9249 9 6 13.9249 6 20C6 26.0751 10.9249 31 17 31Z" fill="#FFDE00"/>
<path d="M17 31C23.0751 31 28 26.0751 28 20C28 13.9249 23.0751 9 17 9C10.9249 9 6 13.9249 6 20C6 26.0751 10.9249 31 17 31Z" fill="url(#paint1_linear_3140_1390)"/>
<path opacity="0.4" d="M17 29.46C11.7754 29.46 7.54004 25.2246 7.54004 20C7.54004 14.7754 11.7754 10.54 17 10.54C22.2247 10.54 26.46 14.7754 26.46 20C26.4545 25.2223 22.2224 29.4545 17 29.46ZM17 11C12.0295 11 8.00004 15.0294 8.00004 20C8.00004 24.9706 12.0295 29 17 29C21.9706 29 26 24.9706 26 20C26 15.0294 21.9706 11 17 11Z" fill="white"/>
<path d="M37 18H6C4.89543 18 4 18.8954 4 20V40C4 41.1046 4.89543 42 6 42H37C38.1046 42 39 41.1046 39 40V20C39 18.8954 38.1046 18 37 18Z" fill="#CE9251"/>
<path d="M38.9398 26.63H29.2398C28.7369 26.6273 28.2536 26.8253 27.8969 27.18C27.5403 27.5347 27.3398 28.017 27.3398 28.52V31.52C27.3398 32.023 27.5403 32.5052 27.8969 32.86C28.2536 33.2147 28.7369 33.4127 29.2398 33.41H36.1198C36.1711 33.4129 36.2211 33.3939 36.2574 33.3576C36.2937 33.3213 36.3128 33.2712 36.3098 33.22V29.36C36.3128 29.3088 36.2937 29.2587 36.2574 29.2224C36.2211 29.1861 36.1711 29.1671 36.1198 29.17H35.3998C35.3477 29.1672 35.2968 29.186 35.259 29.222C35.2212 29.2579 35.1998 29.3078 35.1998 29.36V32.26H29.1998C28.9912 32.2627 28.7903 32.1817 28.6418 32.0351C28.4934 31.8885 28.4098 31.6886 28.4098 31.48V28.48C28.4098 28.2714 28.4934 28.0715 28.6418 27.9249C28.7903 27.7783 28.9912 27.6973 29.1998 27.7H38.8998C39.1084 27.6973 39.3094 27.7783 39.4579 27.9249C39.6063 28.0715 39.6899 28.2714 39.6898 28.48V31.48C39.7008 31.6814 39.629 31.8785 39.4912 32.0257C39.3534 32.1729 39.1615 32.2576 38.9598 32.26V33.37C39.4566 33.3702 39.9324 33.1695 40.2789 32.8135C40.6255 32.4576 40.8133 31.9766 40.7998 31.48V28.48C40.7784 27.4634 39.9566 26.6459 38.9398 26.63Z" fill="#FFE600"/>
<defs>
<linearGradient id="paint0_linear_3140_1390" x1="25.36" y1="15.4" x2="27.58" y2="9.75" gradientUnits="userSpaceOnUse">
<stop stop-color="#133E90" stop-opacity="0.4"/>
<stop offset="1" stop-color="#133E90" stop-opacity="0"/>
</linearGradient>
<linearGradient id="paint1_linear_3140_1390" x1="17.01" y1="20.43" x2="16.8" y2="9.09" gradientUnits="userSpaceOnUse">
<stop stop-color="#E5B527" stop-opacity="0.8"/>
<stop offset="0.66" stop-color="#FFD215" stop-opacity="0"/>
</linearGradient>
</defs>
</svg>
