<svg width="36" height="36" viewBox="0 0 36 36" fill="none" xmlns="http://www.w3.org/2000/svg">
<path d="M5.98975 18.6799C5.98975 18.0542 6.49396 17.5471 7.11593 17.5471H27.3873C28.0093 17.5471 28.5135 18.0542 28.5135 18.6799V32.8361C28.5135 33.4617 28.0093 33.9689 27.3873 33.9689H7.11593C6.49396 33.9689 5.98975 33.4617 5.98975 32.8361V18.6799Z" fill="#216FEA"/>
<path d="M14.4757 2.43179C14.9155 1.9894 15.6285 1.9894 16.0683 2.43179L33.5877 20.0541C34.0275 20.4965 34.0275 21.2138 33.5877 21.6562L30.4023 24.8602C29.9625 25.3026 29.2495 25.3026 28.8097 24.8602L11.2903 7.23789C10.8505 6.7955 10.8505 6.07824 11.2903 5.63585L14.4757 2.43179Z" fill="#3382FF"/>
<path d="M19.504 17.5471L19.504 33.9689H14.9992L14.9992 17.5471L19.504 17.5471Z" fill="#FF5883"/>
<path d="M28.1824 14.6153C29.409 15.8491 31.3976 15.8491 32.6242 14.6153C34.8215 12.405 32.8345 8.67038 29.7873 9.28341L26.0248 10.0403L26.7774 6.25525C27.3868 3.19013 23.6741 1.19142 21.4767 3.40171C20.2501 4.63549 20.2501 6.63584 21.4767 7.86962L28.1824 14.6153Z" fill="#FF5883"/>
<path fill-rule="evenodd" clip-rule="evenodd" d="M12.007 9.92621C8.98118 9.92621 6.52855 7.12274 6.52855 3.66484C6.52855 7.12274 4.07565 9.92621 1.0498 9.92621C4.07565 9.92621 6.52855 12.7295 6.52855 16.1874C6.52855 12.7295 8.98118 9.92621 12.007 9.92621Z" fill="#FF5883"/>
</svg>
