<svg width="280" height="280" viewBox="0 0 280 280" fill="none" xmlns="http://www.w3.org/2000/svg">
<rect opacity="0.01" width="280" height="280" fill="white"/>
<path d="M45.169 138.306L2.43164 164.552V181.701L167.373 270.803L214.823 208.117L45.169 138.306Z" fill="url(#paint0_linear_3189_1705)"/>
<path d="M51.8647 130.135C45.2981 104.547 33.8789 80.4328 22.6689 68.7545L23.0376 68.3958C34.2675 80.1438 45.8362 104.337 52.3729 130.006L51.8647 130.135Z" fill="#CCE1FF"/>
<path d="M21.453 63.8519C23.0274 65.5758 23.3263 69.143 23.3263 69.143C23.3263 69.143 19.7989 68.5053 18.2345 66.7615C16.6701 65.0178 16.7598 63.6925 17.6466 62.8754C18.5334 62.0583 19.9284 62.1281 21.453 63.8519Z" fill="#CCE1FF"/>
<path d="M24.7719 73.3779C27.1136 73.8961 29.4951 76.726 29.4951 76.726C29.4951 76.726 26.157 78.3004 23.8054 77.7822C21.4538 77.2641 20.7264 76.0783 20.9954 74.8626C21.2644 73.647 22.4203 72.8697 24.7719 73.3779Z" fill="#CCE1FF"/>
<path d="M29.674 81.7082C32.195 82.2563 34.7459 85.2854 34.7459 85.2854C34.7459 85.2854 31.1587 86.9694 28.6477 86.4114C26.1367 85.8534 25.3495 84.5879 25.6584 83.2926C25.9673 81.9972 27.163 81.1303 29.674 81.7082Z" fill="#CCE1FF"/>
<path d="M32.9823 89.5601C35.4336 89.7694 38.2336 92.3103 38.2336 92.3103C38.2336 92.3103 35.0449 94.3032 32.5937 94.1537C30.1424 94.0043 29.2457 92.8384 29.3453 91.5729C29.4449 90.3075 30.5311 89.3608 32.9823 89.5601Z" fill="#CCE1FF"/>
<path d="M37.5955 96.7844C39.9372 97.5416 42.0795 100.661 42.0795 100.661C42.0795 100.661 38.5123 101.926 36.1706 101.159C33.829 100.391 33.1813 99.1061 33.6098 97.9004C34.0382 96.6947 35.2639 96.0171 37.5955 96.7844Z" fill="#CCE1FF"/>
<path d="M41.8507 104.856C44.023 106.011 45.5874 109.449 45.5874 109.449C45.5874 109.449 41.8607 110.077 39.6884 108.921C37.5162 107.765 37.1276 106.39 37.6956 105.264C38.2635 104.138 39.6586 103.7 41.8507 104.856Z" fill="#CCE1FF"/>
<path d="M44.94 113.694C47.1122 114.85 48.6766 118.288 48.6766 118.288C48.6766 118.288 44.9499 118.915 42.7777 117.759C40.6054 116.604 40.2069 115.228 40.7848 114.102C41.3627 112.977 42.7677 112.538 44.94 113.694Z" fill="#CCE1FF"/>
<path d="M30.7601 68.9637C30.232 71.405 27.2925 73.8762 27.2925 73.8762C27.2925 73.8762 25.6683 70.4086 26.1964 67.9673C26.7245 65.526 27.9701 64.7687 29.1858 65.0477C30.4014 65.3267 31.2982 66.5224 30.7601 68.9637Z" fill="#CCE1FF"/>
<path d="M36.6489 78.3103C35.9314 80.4826 33.0119 82.4655 33.0119 82.4655C33.0119 82.4655 31.8859 79.1374 32.5834 76.9651C33.2809 74.7929 34.5065 74.215 35.5727 74.5936C36.6389 74.9723 37.3663 76.1381 36.6489 78.3103Z" fill="#CCE1FF"/>
<path d="M42.2387 86.6904C40.7441 88.6833 37.0771 89.6797 37.0771 89.6797C37.0771 89.6797 37.0771 85.8633 38.522 83.8804C39.9668 81.8975 41.4416 81.7181 42.5078 82.4854C43.5739 83.2527 43.7234 84.7473 42.2387 86.6904Z" fill="#CCE1FF"/>
<path d="M45.6274 93.8548C44.1427 95.8477 40.4658 96.8441 40.4658 96.8441C40.4658 96.8441 40.4658 93.0278 41.9206 91.0448C43.3754 89.0619 44.8402 88.9125 45.8366 89.6797C46.8331 90.447 47.122 91.8719 45.6274 93.8548Z" fill="#CCE1FF"/>
<path d="M48.8258 101.637C47.4806 103.73 43.9034 105.025 43.9034 105.025C43.9034 105.025 43.5745 101.228 44.8998 99.136C46.2251 97.0434 47.65 96.7644 48.7261 97.4619C49.8023 98.1594 50.161 99.5644 48.8258 101.637Z" fill="#CCE1FF"/>
<path d="M52.0338 109.858C50.6886 111.95 47.1114 113.246 47.1114 113.246C47.1114 113.246 46.7825 109.439 48.1078 107.357C49.4331 105.274 50.858 104.985 51.9341 105.673C53.0103 106.36 53.369 107.765 52.0338 109.858Z" fill="#CCE1FF"/>
<path d="M54.8539 118.517C53.5186 120.609 49.9315 121.905 49.9315 121.905C49.9315 121.905 49.6126 118.108 50.9279 116.016C52.2432 113.923 53.6781 113.644 54.7542 114.342C55.8304 115.039 56.1891 116.434 54.8539 118.517Z" fill="#CCE1FF"/>
<path d="M228.295 184.969C228.295 184.969 222.954 176.998 223.143 172.464C223.422 165.768 222.864 164.373 220.513 160.507C218.161 156.641 221.111 150.204 226.232 152.216C231.354 154.229 232.042 145.819 233.048 140.518C234.054 135.217 244.188 128.033 246.101 134.241C248.015 140.448 243.281 141.465 245.504 146.019C247.726 150.572 250.137 153.562 245.793 159.261C241.448 164.961 235.33 179.1 235.33 179.1L228.295 184.969Z" fill="url(#paint1_linear_3189_1705)"/>
<path d="M224.06 156.332C225.826 159.726 228.105 162.828 230.816 165.529C233.33 156.363 236.572 147.414 240.511 138.764C240.574 138.635 240.728 138.578 240.86 138.635C240.922 138.665 240.97 138.719 240.993 138.784C241.015 138.85 241.01 138.922 240.98 138.984C240.89 139.183 233.008 156.182 230.258 170.362C234.762 168.815 238.735 166.024 241.717 162.31C241.803 162.2 241.959 162.174 242.076 162.251C242.136 162.289 242.177 162.351 242.189 162.421C242.2 162.492 242.181 162.564 242.135 162.619C239.037 166.492 234.884 169.385 230.178 170.95C229.689 173.462 229.416 176.013 229.361 178.572C229.364 178.642 229.337 178.709 229.288 178.759C229.239 178.808 229.172 178.834 229.102 178.831C229.038 178.832 228.978 178.806 228.933 178.762C228.874 178.717 228.84 178.646 228.843 178.572C228.991 174.363 229.616 170.185 230.706 166.117C227.856 163.323 225.468 160.094 223.631 156.551C223.574 156.419 223.631 156.265 223.761 156.202C223.879 156.169 224.003 156.223 224.06 156.332Z" fill="#CCE1FF"/>
<path d="M238.349 182.09C246.32 156.81 259.095 133.264 270.932 122.094L271.281 122.473C259.503 133.583 246.769 157.039 238.847 182.259L238.349 182.09Z" fill="#CCE1FF"/>
<path d="M272.756 117.68C271.092 119.324 270.613 122.871 270.613 122.871C270.613 122.871 274.161 122.423 275.815 120.779C277.469 119.135 277.459 117.789 276.612 116.932C275.765 116.075 274.41 116.046 272.756 117.68Z" fill="#CCE1FF"/>
<path d="M268.94 127.026C266.568 127.405 264.037 130.095 264.037 130.095C264.037 130.095 267.295 131.839 269.667 131.46C272.039 131.082 272.826 129.916 272.656 128.69C272.487 127.465 271.311 126.638 268.94 127.026Z" fill="#CCE1FF"/>
<path d="M263.599 135.048C261.058 135.466 258.348 138.346 258.348 138.346C258.348 138.346 261.835 140.209 264.376 139.801C266.917 139.392 267.764 138.147 267.545 136.811C267.326 135.476 266.14 134.629 263.599 135.048Z" fill="#CCE1FF"/>
<path d="M259.872 142.74C257.411 142.82 254.481 145.201 254.481 145.201C254.481 145.201 257.55 147.414 260.012 147.344C262.473 147.274 263.429 146.208 263.39 144.932C263.35 143.657 262.333 142.67 259.872 142.74Z" fill="#CCE1FF"/>
<path d="M254.88 149.705C252.498 150.343 250.196 153.342 250.196 153.342C250.196 153.342 253.694 154.787 256.065 154.149C258.437 153.512 259.134 152.256 258.806 151.031C258.477 149.805 257.251 149.068 254.88 149.705Z" fill="#CCE1FF"/>
<path d="M250.226 157.537C247.994 158.534 246.24 161.932 246.24 161.932C246.24 161.932 249.937 162.749 252.169 161.712C254.401 160.676 254.859 159.321 254.321 158.165C253.783 157.009 252.458 156.501 250.226 157.537Z" fill="#CCE1FF"/>
<path d="M246.649 166.196C244.417 167.243 242.663 170.591 242.663 170.591C242.663 170.591 246.36 171.408 248.592 170.372C250.824 169.335 251.282 167.98 250.744 166.834C250.206 165.688 248.881 165.16 246.649 166.196Z" fill="#CCE1FF"/>
<path d="M243.61 174.955C241.378 175.952 239.624 179.34 239.624 179.34C239.624 179.34 243.311 180.167 245.543 179.13C247.775 178.094 248.243 176.739 247.705 175.583C247.167 174.427 245.832 173.919 243.61 174.955Z" fill="#CCE1FF"/>
<path d="M263.19 122.293C263.589 124.754 266.389 127.375 266.389 127.375C266.389 127.375 268.202 123.997 267.794 121.536C267.385 119.075 266.2 118.248 264.924 118.457C263.649 118.666 262.792 119.822 263.19 122.293Z" fill="#CCE1FF"/>
<path d="M256.813 131.311C257.421 133.523 260.221 135.646 260.221 135.646C260.221 135.646 261.546 132.387 260.948 130.185C260.35 127.983 259.174 127.335 258.028 127.644C256.883 127.953 256.205 129.099 256.813 131.311Z" fill="#CCE1FF"/>
<path d="M250.785 139.422C252.16 141.485 255.767 142.7 255.767 142.7C255.767 142.7 256.006 138.904 254.621 136.841C253.236 134.779 251.831 134.53 250.765 135.237C249.699 135.945 249.4 137.359 250.785 139.422Z" fill="#CCE1FF"/>
<path d="M247.017 146.357C248.393 148.42 252 149.636 252 149.636C252 149.636 252.239 145.839 250.854 143.776C249.469 141.714 248.054 141.465 246.998 142.172C245.941 142.88 245.632 144.295 247.017 146.357Z" fill="#CCE1FF"/>
<path d="M243.41 153.96C244.636 156.122 248.144 157.607 248.144 157.607C248.144 157.607 248.672 153.831 247.446 151.678C246.22 149.526 244.825 149.157 243.709 149.795C242.593 150.433 242.185 151.808 243.41 153.96Z" fill="#CCE1FF"/>
<path d="M239.763 161.991C240.989 164.144 244.507 165.628 244.507 165.628C244.507 165.628 245.025 161.852 243.799 159.7C242.573 157.547 241.178 157.189 240.072 157.816C238.966 158.444 238.548 159.829 239.763 161.991Z" fill="#CCE1FF"/>
<path d="M221.649 193.678C221.649 193.678 222.167 180.505 227.976 176.739C233.785 172.972 238.369 178.293 238.628 171.627C238.887 164.961 239.674 158.972 247.377 159.67C255.079 160.367 256.992 160.885 258.905 155.853C260.819 150.821 263.32 144.594 268.262 149.277C273.204 153.96 271.55 167.462 267.565 175.433C263.579 183.405 255.697 187.042 254.611 191.377C253.525 195.711 253.485 196.917 257.819 199.607C262.154 202.298 259.982 210.259 248.204 213.637C236.426 217.015 221.3 213.468 221.3 213.468L221.649 193.678Z" fill="url(#paint2_linear_3189_1705)"/>
<path d="M221.748 203.991C221.847 203.991 230.925 201.241 243.161 192.253C243.156 192.227 243.156 192.2 243.161 192.174C245.453 187.431 246.15 172.414 246.15 172.245C246.15 172.102 246.266 171.986 246.41 171.986C246.553 171.986 246.669 172.102 246.669 172.245C246.669 172.843 246.001 186.195 243.908 191.646L244.088 191.526C256.782 181.98 263.419 162.221 263.489 162.021C263.536 161.887 263.68 161.812 263.817 161.852C263.952 161.899 264.023 162.046 263.977 162.181C263.917 162.38 257.221 182.299 244.397 191.935C241.385 194.201 238.252 196.3 235.01 198.222C238.717 201.69 245.602 200.584 245.672 200.574C245.812 200.55 245.946 200.643 245.971 200.783C245.99 200.922 245.899 201.052 245.762 201.082C244.838 201.22 243.906 201.286 242.972 201.281C240.501 201.281 236.913 200.823 234.542 198.501C230.55 200.948 226.303 202.952 221.877 204.48H221.807C221.69 204.483 221.586 204.404 221.558 204.29C221.533 204.156 221.616 204.026 221.748 203.991Z" fill="#CCE1FF"/>
<path d="M6.88574 115.996V119.852C7.28432 124.764 16.0131 128.621 26.6551 128.501C37.2971 128.382 45.9064 124.346 46.1954 119.424V115.557L6.88574 115.996Z" fill="url(#paint3_linear_3189_1705)"/>
<path opacity="0.06" d="M8.11102 118.347V122.682C8.28041 122.891 8.44981 123.1 8.6491 123.31L8.59927 118.327L8.11102 118.347Z" fill="black"/>
<path opacity="0.06" d="M10.3828 118.317L10.4525 124.715L10.9906 125.043L10.9607 118.317H10.3828Z" fill="black"/>
<path opacity="0.06" d="M12.6649 118.298L12.7446 125.96L13.2827 126.189L13.193 118.288L12.6649 118.298Z" fill="black"/>
<path opacity="0.06" d="M14.947 118.268L15.0367 126.837L15.5748 127.016L15.4752 118.268H14.947Z" fill="black"/>
<path opacity="0.06" d="M17.2087 118.248L17.3083 127.495L17.8464 127.614L17.7368 118.238L17.2087 118.248Z" fill="black"/>
<path opacity="0.06" d="M19.4801 118.218L19.5897 127.953L20.1179 128.043L20.0182 118.218H19.4801Z" fill="black"/>
<path opacity="0.06" d="M21.7525 118.198L21.8621 128.262L22.4002 128.322L22.2906 118.188L21.7525 118.198Z" fill="black"/>
<path opacity="0.06" d="M24.0339 118.168L24.1435 128.441C24.3228 128.441 24.4922 128.441 24.6716 128.441L24.562 118.138L24.0339 118.168Z" fill="black"/>
<path opacity="0.06" d="M26.3062 118.148L26.4158 128.541H26.9539L26.8343 118.188L26.3062 118.148Z" fill="black"/>
<path opacity="0.06" d="M28.5777 118.118L28.6873 128.431H29.2254L29.1058 118.158L28.5777 118.118Z" fill="black"/>
<path opacity="0.06" d="M30.8892 118.098L30.9988 128.232L31.5369 128.162L31.4273 118.088L30.8892 118.098Z" fill="black"/>
<path opacity="0.06" d="M33.1216 118.068L33.2313 127.893L33.7693 127.804L33.6597 118.068H33.1216Z" fill="black"/>
<path opacity="0.06" d="M35.4031 118.048L35.5027 127.425L36.0308 127.295L35.9312 118.038L35.4031 118.048Z" fill="black"/>
<path opacity="0.06" d="M37.6756 118.018L37.7652 126.777L38.3033 126.588L38.2037 118.018H37.6756Z" fill="black"/>
<path opacity="0.06" d="M39.9471 117.999L40.0368 125.9L40.5649 125.651L40.4753 117.989L39.9471 117.999Z" fill="black"/>
<path opacity="0.06" d="M42.2197 117.969L42.2894 124.695C42.4688 124.585 42.6581 124.475 42.8275 124.356L42.7578 117.969H42.2197Z" fill="black"/>
<path opacity="0.06" d="M44.4914 117.949L44.5512 122.931C44.7405 122.722 44.9099 122.502 45.0793 122.293L45.0295 117.959L44.4914 117.949Z" fill="black"/>
<ellipse cx="26.5604" cy="115.777" rx="19.6698" ry="9.16726" transform="rotate(-0.63 26.5604 115.777)" fill="url(#paint4_linear_3189_1705)"/>
<g opacity="0.4">
<path fill-rule="evenodd" clip-rule="evenodd" d="M26.4252 107.626H26.9035V107.616C36.8679 107.616 44.949 111.004 44.9989 115.398C45.0487 119.792 36.828 123.449 26.6344 123.559H26.1661C16.1917 123.559 8.11059 120.181 8.06077 115.786C8.01095 111.392 16.2316 107.735 26.4252 107.626ZM44.4608 115.388C44.4209 111.382 36.5391 108.114 26.9035 108.114V108.124H26.4252C22.0321 108.082 17.6741 108.909 13.601 110.555C10.3725 111.99 8.55899 113.893 8.55899 115.777C8.59885 119.792 16.4807 123.051 26.1263 123.051H26.5946C30.9872 123.087 35.3443 122.261 39.4188 120.619C42.6473 119.184 44.4608 117.281 44.4608 115.388Z" fill="white"/>
</g>
<path d="M2.15234 109.688V113.554C2.55092 118.467 11.2698 122.313 21.9118 122.204C32.5538 122.094 41.163 118.038 41.452 113.116V109.26L2.15234 109.688Z" fill="url(#paint5_linear_3189_1705)"/>
<path opacity="0.06" d="M3.38786 112.04L3.43769 116.384C3.60304 116.602 3.7828 116.808 3.97576 117.002L3.91598 112.02L3.38786 112.04Z" fill="black"/>
<path opacity="0.06" d="M5.66013 112.02L5.72988 118.407C5.89927 118.527 6.0886 118.626 6.26796 118.736L6.1982 112.01L5.66013 112.02Z" fill="black"/>
<path opacity="0.06" d="M7.97155 111.99L8.06123 119.653L8.58934 119.882L8.50963 111.99H7.97155Z" fill="black"/>
<path opacity="0.06" d="M10.2038 111.97L10.3034 120.54L10.8415 120.709L10.7419 111.96L10.2038 111.97Z" fill="black"/>
<path opacity="0.06" d="M12.4851 111.94L12.5848 121.187L13.1129 121.317L13.0132 111.94H12.4851Z" fill="black"/>
<path opacity="0.06" d="M14.7575 111.92L14.8571 121.656L15.3952 121.735L15.2856 111.91L14.7575 111.92Z" fill="black"/>
<path opacity="0.06" d="M17.0289 111.89L17.1385 121.964L17.6766 122.024L17.5669 111.89H17.0289Z" fill="black"/>
<path opacity="0.06" d="M19.3013 111.87L19.4109 122.144H19.949L19.8394 111.831L19.3013 111.87Z" fill="black"/>
<path opacity="0.06" d="M21.5728 111.841L21.6924 122.194H22.2205L22.1109 111.841H21.5728Z" fill="black"/>
<path opacity="0.06" d="M23.8551 111.821L23.9647 122.134H24.4929L24.3833 111.86L23.8551 111.821Z" fill="black"/>
<path opacity="0.06" d="M26.1266 111.791L26.2362 121.925L26.7643 121.865L26.6547 111.791H26.1266Z" fill="black"/>
<path opacity="0.06" d="M28.3981 111.771L28.5077 121.596L29.0358 121.496L28.9362 111.761L28.3981 111.771Z" fill="black"/>
<path opacity="0.06" d="M30.6706 111.741L30.7702 121.117L31.3083 120.988L31.2086 111.741H30.6706Z" fill="black"/>
<path opacity="0.06" d="M32.9422 111.721L33.0418 120.47L33.5699 120.28L33.4802 111.711L32.9422 111.721Z" fill="black"/>
<path opacity="0.06" d="M35.2245 111.691L35.3042 119.593L35.8423 119.354L35.7526 111.691L35.2245 111.691Z" fill="black"/>
<path opacity="0.06" d="M37.4962 111.671L37.5659 118.397L38.094 118.058L38.0243 111.661L37.4962 111.671Z" fill="black"/>
<path opacity="0.06" d="M39.7678 111.601L39.8177 116.584C40.0078 116.383 40.1842 116.17 40.3458 115.946V111.621L39.7678 111.601Z" fill="black"/>
<ellipse cx="21.828" cy="109.482" rx="19.6698" ry="9.16726" transform="rotate(-0.63 21.828 109.482)" fill="url(#paint6_linear_3189_1705)"/>
<g opacity="0.4">
<path fill-rule="evenodd" clip-rule="evenodd" d="M21.7327 101.308H22.211L22.221 101.318C32.1954 101.318 40.2366 104.686 40.2865 109.08C40.3363 113.475 32.1156 117.132 21.922 117.241H21.4338C11.4594 117.241 3.40817 113.863 3.36831 109.469C3.32845 105.075 11.5491 101.418 21.7327 101.308ZM39.7783 109.09C39.7384 105.075 31.8566 101.816 22.211 101.816V101.806H21.7427C17.3501 101.77 12.993 102.596 8.91849 104.238C5.69002 105.673 3.86653 107.576 3.86653 109.469C3.91635 113.475 11.7982 116.743 21.4338 116.743H21.9021C31.6373 116.643 39.8181 113.106 39.7783 109.09Z" fill="white"/>
</g>
<path d="M13.6309 101.816L13.6807 105.673C14.0793 110.585 22.7981 114.441 33.4401 114.322C44.0821 114.202 52.6914 110.167 52.9803 105.244V101.378L13.6309 101.816Z" fill="url(#paint7_linear_3189_1705)"/>
<path opacity="0.06" d="M14.8674 104.168L14.9172 108.503C15.0849 108.721 15.2645 108.931 15.4553 109.13L15.3955 104.148L14.8674 104.168Z" fill="black"/>
<path opacity="0.06" d="M17.1386 104.138L17.2084 110.535L17.7465 110.864L17.6767 104.138H17.1386Z" fill="black"/>
<path opacity="0.06" d="M19.411 104.118L19.5007 111.771L20.0288 112.01L19.9292 104.108L19.411 104.118Z" fill="black"/>
<path opacity="0.06" d="M21.6823 104.088L21.7819 112.658L22.32 112.837L22.2204 104.088H21.6823Z" fill="black"/>
<path opacity="0.06" d="M23.9646 104.068L24.0643 113.315L24.5924 113.435L24.4927 104.058L23.9646 104.068Z" fill="black"/>
<path opacity="0.06" d="M26.236 104.038L26.3356 113.774L26.8737 113.863L26.7641 104.038H26.236Z" fill="black"/>
<path opacity="0.06" d="M28.5084 104.019L28.618 114.083L29.156 114.142L29.0464 104.009L28.5084 104.019Z" fill="black"/>
<path opacity="0.06" d="M30.7798 103.989L30.8895 114.262C31.0688 114.262 31.2482 114.262 31.4275 114.262L31.3179 103.959L30.7798 103.989Z" fill="black"/>
<path opacity="0.06" d="M33.0523 103.969L33.1719 114.322H33.7L33.5904 103.969H33.0523Z" fill="black"/>
<path opacity="0.06" d="M35.3337 103.939L35.4433 114.252H35.9714L35.8717 103.939H35.3337Z" fill="black"/>
<path opacity="0.06" d="M37.6061 103.919L37.7157 114.053L38.2438 113.983L38.1342 103.909L37.6061 103.919Z" fill="black"/>
<path opacity="0.06" d="M39.8581 103.889L39.9677 113.714L40.4958 113.624L40.3961 103.889H39.8581Z" fill="black"/>
<path opacity="0.06" d="M42.1491 103.869L42.2487 113.246L42.7868 113.116L42.6872 103.859L42.1491 103.869Z" fill="black"/>
<path opacity="0.06" d="M44.4216 103.839L44.5213 112.588L45.0494 112.409L44.9597 103.839H44.4216Z" fill="black"/>
<path opacity="0.06" d="M46.703 103.819L46.7827 111.721L47.3208 111.472L47.2311 103.809L46.703 103.819Z" fill="black"/>
<path opacity="0.06" d="M48.9747 103.789L49.0444 110.515C49.2238 110.406 49.4031 110.296 49.5725 110.176L49.5028 103.789H48.9747Z" fill="black"/>
<path opacity="0.06" d="M51.2469 103.769V108.752C51.4346 108.549 51.6109 108.336 51.775 108.114V103.779L51.2469 103.769Z" fill="black"/>
<ellipse cx="33.3094" cy="101.594" rx="19.6698" ry="9.16726" transform="rotate(-0.63 33.3094 101.594)" fill="url(#paint8_linear_3189_1705)"/>
<g opacity="0.4">
<path fill-rule="evenodd" clip-rule="evenodd" d="M33.1819 93.4462H33.6602V93.4363C43.6346 93.4363 51.6759 96.7943 51.7257 101.199C51.7755 105.603 43.5549 109.26 33.3613 109.369H32.883C22.9186 109.369 14.8574 106.001 14.8175 101.607C14.7777 97.2128 22.9983 93.5559 33.1819 93.4462ZM51.2574 101.209C51.2175 97.2028 43.3357 93.9345 33.6901 93.9345L33.6602 93.9445H33.1919C23.4567 94.0441 15.2659 97.5815 15.3157 101.597C15.3656 105.613 23.2474 108.871 32.883 108.871H33.3812C37.7739 108.908 42.1309 108.082 46.2054 106.44C49.4339 105.005 51.2574 103.092 51.2574 101.209Z" fill="white"/>
</g>
<path d="M220.622 90.5366L57.3455 23.9843C55.861 23.2969 54.1623 23.2359 52.6323 23.8149L44.043 27.2427V41.8505L216.338 210.787L224.957 207.349C227.308 206.572 228.883 204.131 228.883 200.613V103.71C228.883 98.2889 225.196 92.39 220.622 90.5366Z" fill="url(#paint9_linear_3189_1705)"/>
<path d="M220.622 90.5366L57.3455 23.9843C55.861 23.2969 54.1623 23.2359 52.6323 23.8149L44.043 27.2427V41.8505L216.338 210.787L224.957 207.349C227.308 206.572 228.883 204.131 228.883 200.613V103.71C228.883 98.2889 225.196 92.39 220.622 90.5366Z" fill="url(#paint10_linear_3189_1705)"/>
<path d="M52.4133 32.5836L50.7393 141.525L211.665 205.665L212.561 97.6313L52.4133 32.5836Z" fill="url(#paint11_linear_3189_1705)"/>
<path fill-rule="evenodd" clip-rule="evenodd" d="M48.6863 27.442L211.963 93.9943C216.527 95.8576 220.214 101.757 220.234 107.167V204.061C220.234 209.502 216.527 212.362 211.963 210.498L48.6863 143.956C44.1226 142.093 40.4258 136.194 40.4258 130.773V33.879C40.4258 28.4384 44.1226 25.5786 48.6863 27.442ZM200.275 200.135C204.839 201.999 208.535 199.119 208.535 193.698L208.545 108.004C208.545 102.584 204.849 96.6847 200.285 94.8213L63.2443 39.0206C58.6806 37.1672 54.9838 40.047 54.9838 45.4676V131.162C54.9838 136.582 58.6806 142.481 63.2443 144.335L200.275 200.135Z" fill="url(#paint12_linear_3189_1705)"/>
<ellipse cx="47.8889" cy="91.5729" rx="3.17865" ry="4.78292" transform="rotate(-27.39 47.8889 91.5729)" fill="url(#paint13_linear_3189_1705)"/>
<path d="M213.239 168.399C212.751 168.154 212.44 167.658 212.432 167.113V137.748C212.432 137.22 212.79 136.941 213.239 137.12C213.723 137.368 214.033 137.862 214.046 138.406V167.741C213.996 168.269 213.627 168.548 213.239 168.399Z" fill="url(#paint14_linear_3189_1705)"/>
<path d="M114.85 42.6277V49.7124" stroke="#62707C" stroke-width="0.5" stroke-linecap="round"/>
<path d="M154.02 58.2719V65.3566" stroke="#62707C" stroke-width="0.5" stroke-linecap="round"/>
<path d="M154.827 26.9836L114.59 10.7616C110.047 8.92811 106.34 11.6384 106.34 16.7402V31.3082C106.34 36.4697 110.047 42.1495 114.59 43.9929L141.783 54.9537L143.238 55.5416C143.553 55.7041 143.933 55.6727 144.217 55.4607C144.501 55.2488 144.639 54.8934 144.573 54.5452V37.0477C144.522 35.7408 143.538 34.6602 142.242 34.4868C141.351 34.4712 140.596 35.1362 140.498 36.0213V49.7523L115.587 39.6982C112.587 38.2489 110.637 35.2559 110.525 31.926V19.4306C110.525 16.2719 112.797 14.6078 115.587 15.7338L154.089 31.2484C157.086 32.7004 159.031 35.6929 159.141 39.0206V51.526C159.141 54.6847 156.879 56.3488 154.089 55.2228L151.608 54.1665C151.092 53.9776 150.516 54.048 150.06 54.3558C149.604 54.6636 149.324 55.1713 149.306 55.721C149.116 56.9882 149.845 58.2139 151.05 58.6505L154.906 60.205C159.45 62.0384 163.157 59.3381 163.157 54.1765V39.6683C163.077 34.5068 159.37 28.8171 154.827 26.9836Z" fill="url(#paint15_linear_3189_1705)"/>
<path d="M226.192 194.495L180.356 175.892C180 175.738 179.596 175.738 179.24 175.892L175.064 177.974L223.063 222.635L227.238 220.552C227.803 220.249 228.129 219.636 228.065 218.998V197.624C228.057 196.318 227.339 195.119 226.192 194.495Z" fill="url(#paint16_linear_3189_1705)"/>
<path d="M221.998 222.565L176.241 203.962C175.049 203.368 174.282 202.164 174.248 200.833V179.489C174.248 178.214 175.135 177.496 176.241 177.964L221.998 196.568C223.191 197.16 223.959 198.365 223.99 199.697V221.031C223.951 222.316 223.074 223.004 221.998 222.565Z" fill="url(#paint17_linear_3189_1705)"/>
<path d="M181.91 194.107L181.272 197.375L180.086 196.867L179.768 188.018L180.505 188.327L180.784 196.229L181.611 192.473L182.229 192.732L183.056 197.196L183.385 189.553L184.062 189.842L183.713 198.411L182.458 197.883L181.91 194.107Z" fill="white"/>
<path d="M188.935 191.915V192.821L186.494 191.825V194.675L188.686 195.601V196.508L186.494 195.581V198.71L188.935 199.757V200.663L185.627 199.258V190.549L188.935 191.915Z" fill="white"/>
<path d="M191.944 193.2V200.952L194.146 201.889V202.836L191.077 201.54V192.831L191.944 193.2Z" fill="white"/>
<path d="M196.807 203.443C196.493 202.906 196.338 202.291 196.359 201.67V197.186C196.285 196.678 196.455 196.165 196.817 195.801C197.229 195.57 197.731 195.57 198.142 195.801L199.547 196.399V197.395L198.043 196.757C197.861 196.639 197.626 196.639 197.445 196.757C197.285 196.897 197.2 197.104 197.215 197.315V202.298C197.22 202.566 197.3 202.828 197.445 203.055C197.581 203.287 197.787 203.472 198.033 203.583L199.537 204.221V205.217L198.132 204.619C197.576 204.379 197.112 203.967 196.807 203.443Z" fill="white"/>
<path fill-rule="evenodd" clip-rule="evenodd" d="M203.484 206.841C203.893 207.082 204.4 207.082 204.809 206.841C205.118 206.622 205.267 206.164 205.267 205.406V200.932C205.291 200.306 205.132 199.686 204.809 199.149C204.498 198.653 204.037 198.269 203.494 198.053L203.095 197.893C202.688 197.658 202.187 197.658 201.78 197.893C201.414 198.259 201.241 198.776 201.311 199.288V203.802C201.289 204.428 201.448 205.048 201.77 205.586C202.087 206.074 202.546 206.453 203.085 206.672L203.484 206.841ZM203.603 199.099C203.849 199.206 204.054 199.387 204.191 199.617C204.34 199.842 204.422 200.105 204.43 200.374V205.357C204.449 205.569 204.363 205.777 204.201 205.915C204.019 206.033 203.785 206.033 203.603 205.915L203.015 205.665C202.763 205.561 202.552 205.375 202.417 205.137C202.273 204.915 202.194 204.656 202.188 204.39V199.408C202.166 199.192 202.252 198.98 202.417 198.84C202.599 198.733 202.824 198.733 203.005 198.84L203.603 199.099Z" fill="white"/>
<path d="M209.034 206.263L208.207 205.915L207.21 200.614V208.426L206.463 208.107V199.398L207.838 199.986L208.615 204.769L209.432 200.663L210.768 201.231V209.93L209.99 209.611V201.799L209.034 206.263Z" fill="white"/>
<path d="M215.64 203.274V204.181L213.199 203.184V206.034L215.391 206.961V207.878L213.199 206.941V210.08L215.64 211.076V211.983L212.342 210.578V201.869L215.64 203.274Z" fill="white"/>
<path d="M184.531 45.7765C184.531 45.7765 186.524 44.78 186.793 44.511C187.062 44.242 186.793 44.232 186.474 44.3217C186.155 44.4114 185.836 44.5608 185.806 44.3217C185.776 44.0825 187.201 42.558 186.952 42.3288C186.703 42.0996 185.956 43.2156 185.866 43.1758C185.776 43.1359 186.862 41.7608 186.623 41.6114C186.384 41.4619 185.537 42.9566 185.398 42.8768C185.258 42.7971 186.215 41.6213 186.006 41.5117C185.796 41.4021 185.009 42.9167 184.84 42.8669C184.67 42.8171 185.348 41.6213 185.149 41.5914C184.949 41.5615 184.102 43.0363 183.963 43.8434C183.892 44.2972 183.744 44.7355 183.524 45.1388L184.531 45.7765Z" fill="#FEC6BD"/>
<path d="M198.292 54.4456C198.481 51.237 197.943 46.3345 193.11 46.3445C188.845 46.3445 188.875 51.7352 188.875 51.7352C188.899 52.9308 188.551 54.1042 187.879 55.0933C187.879 55.0933 198.172 57.1957 198.292 54.4456Z" fill="#181F3D"/>
<path d="M178.423 107.297C178.423 107.297 173.511 108.742 173.511 110.167C173.511 111.591 180.486 108.841 180.486 108.841V107.297H178.423Z" fill="#181F3D"/>
<path d="M176.569 87.4875C175.932 93.6655 178.423 107.297 178.423 107.297H180.495C180.495 107.297 179.987 97.3324 180.107 89.5203C185.149 85.4847 177.197 81.3196 176.569 87.4875Z" fill="#FEC6BD"/>
<path d="M181.97 88.3943C181.342 94.5623 185.059 108.084 185.059 108.084H187.131C187.131 108.084 186.623 98.1196 186.753 90.3075C191.795 86.2719 182.598 82.2164 181.97 88.3943Z" fill="#FEC6BD"/>
<path d="M176.002 85.8634C175.769 87.7682 175.64 89.6841 175.613 91.6029C175.613 91.6029 188.567 96.1367 188.966 91.1146C201.919 86.1324 202.826 82.6748 201.82 78.6392C201.335 76.4943 200.574 74.4211 199.558 72.4712H188.328C188.328 72.4712 176.44 82.336 176.002 85.8634Z" fill="url(#paint18_linear_3189_1705)"/>
<path d="M182.348 78.6392L195.83 79.2769L191.805 84.3089L177.805 83.6612L182.348 78.6392Z" fill="#D1DEEE"/>
<path d="M200.086 58.9594C200.04 58.8727 199.983 58.7923 199.916 58.7203C199.674 58.4796 199.414 58.2565 199.139 58.0527C198.149 57.1047 196.851 56.5427 195.482 56.4683C194.275 56.2233 193.033 56.1963 191.815 56.3886L180.097 55.9003L184.581 45.7366L183.585 45.069C183.585 45.069 175.613 52.6021 175.693 57.4448C175.793 61.4306 183.734 62.7858 186.654 63.1644C186.779 66.3242 187.349 69.4506 188.348 72.4512H199.568C199.568 72.4512 199.767 71.1459 199.986 69.3324L201.7 73.0292L195.094 78.2904L196.299 79.9245C196.299 79.9245 204.44 76.7559 206.204 74.9922C207.499 73.647 204.53 63.6925 200.086 58.9594Z" fill="url(#paint19_linear_3189_1705)"/>
<path d="M175.095 73.8662L186.873 74.2349C187.639 74.2341 188.323 74.7118 188.587 75.4306L191.805 84.3089L177.805 83.7011L174.378 74.9224C174.291 74.6848 174.324 74.42 174.466 74.2108C174.608 74.0016 174.842 73.8734 175.095 73.8662Z" fill="url(#paint20_linear_3189_1705)"/>
<path d="M194.555 53.5288L194.794 56.3388C194.365 56.7001 193.821 56.8946 193.26 56.8868C192.769 56.9315 192.284 56.7563 191.935 56.4085L192.423 53.6783L194.555 53.5288Z" fill="#FEC6BD"/>
<path d="M193.001 48.2178C191.516 48.2342 190.32 49.4429 190.32 50.9281C190.32 52.7417 190.988 55.2527 192.981 55.163C195.273 55.0534 195.731 53.3495 195.801 51.0278C195.825 50.2848 195.546 49.564 195.027 49.0318C194.508 48.4996 193.794 48.202 193.051 48.2078L193.001 48.2178Z" fill="#FEC6BD"/>
<path d="M185.059 107.994C185.059 107.994 180.146 109.439 180.146 110.864C180.146 112.289 187.122 109.539 187.122 109.539V107.994H185.059Z" fill="#181F3D"/>
<path d="M194.894 51.9146C194.899 52.3975 195.294 52.7851 195.777 52.7815C196.26 52.7778 196.649 52.3843 196.647 51.9014C196.645 51.4184 196.253 51.0278 195.77 51.0278C195.536 51.0278 195.312 51.1215 195.147 51.2881C194.982 51.4547 194.891 51.6803 194.894 51.9146Z" fill="#FEC6BD"/>
<path d="M195.083 78.3103C193.989 78.1997 192.891 78.49 191.994 79.1274C191.277 79.7352 191.845 79.9943 192.174 79.7751C192.517 79.6321 192.892 79.5839 193.26 79.6356C192.853 80.1312 192.36 80.5496 191.805 80.8712C190.808 81.4989 191.277 82.5552 193.05 81.9971C194.272 81.5521 195.381 80.8446 196.299 79.9246L195.083 78.3103Z" fill="#FEC6BD"/>
<path d="M195.821 51.0278C194.366 50.3293 193.076 49.3309 192.034 48.0982C195.004 46.9723 196.299 49.0548 195.821 51.0278Z" fill="#181F3D"/>
<path d="M175.095 73.8662L186.873 74.2349C187.638 74.2341 188.323 74.7118 188.587 75.4306L191.805 84.3089L188.447 75.4904C188.166 74.8642 187.567 74.4404 186.883 74.3844L175.095 73.8662Z" fill="white"/>
<path d="M160.975 212.093L160.855 214.922L162.201 215.361L162.35 212.202L160.975 212.093Z" fill="#FEC6BD"/>
<path d="M161.015 214.594C160.566 214.683 160.142 214.867 159.769 215.132C158.972 215.63 157.438 215.371 157.069 215.999C156.7 216.626 157.278 216.686 158.524 216.776C160.074 216.839 161.626 216.779 163.167 216.596C163.566 216.477 163.546 214.723 162.38 214.225L161.015 214.594Z" fill="#30343A"/>
<path d="M157.518 193.888L160.507 213.009L162.759 212.94L163.865 192.762C164.255 189.611 164.318 186.429 164.054 183.266L157.518 193.888Z" fill="url(#paint21_linear_3189_1705)"/>
<path d="M152.276 212.84L152.156 215.68L153.501 216.108L153.651 212.959L152.276 212.84Z" fill="#FEC6BD"/>
<path d="M152.316 215.341C151.868 215.438 151.444 215.625 151.07 215.889C150.273 216.377 148.728 216.118 148.37 216.746C148.011 217.374 148.579 217.433 149.825 217.523C151.375 217.586 152.927 217.526 154.468 217.344C154.866 217.234 154.847 215.47 153.681 214.972L152.316 215.341Z" fill="#30343A"/>
<path d="M151.948 182.618C151.948 182.618 151.639 193.459 151.858 201.63C152.077 209.801 151.948 213.468 151.948 213.468L153.891 213.687C153.891 213.687 155.834 208.635 157.448 203.473C158.475 199.97 159.116 196.364 159.361 192.722C159.361 192.722 165.061 187.58 164.024 181.133L151.948 182.618Z" fill="url(#paint22_linear_3189_1705)"/>
<path d="M152.993 152.037C152.993 152.037 152.635 153.87 152.575 154.897C152.425 157.109 153.571 158.773 154.219 158.743C154.867 158.713 155.614 158.633 155.614 158.633L156.71 160.068L159.261 159.69L157.627 156.142C157.627 156.142 158.434 152.884 157.368 152.495C155.928 152.201 154.463 152.048 152.993 152.037V152.037Z" fill="#FEC6BD"/>
<path d="M159.56 159.291C159.56 159.291 156.95 159.002 156.262 159.59C155.575 160.178 153.532 162.4 152.705 166.944C152.336 168.937 151.928 182.678 151.928 182.678C151.928 182.678 164.692 197.425 169.256 196.837C169.256 196.837 165.489 173.191 163.775 166.994C162.062 160.796 159.56 159.291 159.56 159.291Z" fill="url(#paint23_linear_3189_1705)"/>
<path d="M144.554 169.126L145.551 168.698C145.67 168.648 145.69 168.458 145.551 168.289L143.926 165.648C143.846 165.491 143.671 165.406 143.498 165.439L142.502 165.868C142.372 165.927 142.352 166.107 142.452 166.276L144.076 168.917C144.235 169.086 144.425 169.186 144.554 169.126Z" fill="#30343A"/>
<path d="M144.724 170.222C144.724 170.222 143.279 169.325 143.279 168.737C143.279 168.149 142.731 167.063 143.279 167.213C143.827 167.362 145.481 169.395 145.481 169.395L144.724 170.222Z" fill="#FEC6BD"/>
<path d="M154.189 165.08C153.567 167.416 152.805 169.712 151.907 171.956C151.778 172.315 145.639 169.265 145.639 169.265L144.424 170.391C144.424 170.391 153.063 180.814 156.132 175.822C157.865 173.1 159.232 170.162 160.197 167.083L154.189 165.08Z" fill="url(#paint24_linear_3189_1705)"/>
<path d="M153.891 150.383C153.093 150.811 152.227 153.372 152.595 153.372C152.964 153.372 154.469 153.372 154.867 153.422L155.126 154.418C155.126 154.418 155.126 153.701 155.814 153.89C156.501 154.08 156.153 155.255 155.525 155.445C155.375 157.339 156.472 159.111 158.235 159.819C161.354 161.244 160.457 168.548 165.21 166.794C169.963 165.041 167.741 162.629 164.313 158.564C160.886 154.498 161.394 153.293 159.76 151.419C158.248 149.813 155.861 149.391 153.891 150.383Z" fill="#37475E"/>
<path d="M89.3214 159.421L88.1556 161.653L87.3086 161.184L88.0759 158.773L89.3214 159.421Z" fill="#FEC6BD"/>
<path d="M87.6072 160.567L88.1553 161.653C88.6775 162.004 89.1677 162.401 89.62 162.838C90.198 163.416 91.1346 162.948 91.7823 163.685C92.43 164.423 89.7894 164.333 88.793 164.184C87.7834 163.88 86.8425 163.382 86.0229 162.719C85.4449 162.29 86.7901 160.118 87.6072 160.567Z" fill="#30343A"/>
<path d="M100.083 138.784C100.083 138.784 99.4451 146.148 96.1568 150.463C92.8685 154.777 89.3212 159.431 89.3212 159.431L87.8564 158.823C87.8564 158.823 89.2515 152.575 90.1483 148.251C91.3752 141.559 92.0881 134.783 92.2806 127.983L100.083 138.784Z" fill="url(#paint25_linear_3189_1705)"/>
<path d="M112.847 157.816L113.106 160.836L111.701 161.354L111.393 158.006L112.847 157.816Z" fill="#FEC6BD"/>
<path d="M113.086 160.337C113.571 160.328 114.053 160.42 114.501 160.606C115.497 160.935 116.992 160.288 117.49 160.856C117.988 161.423 117.49 161.613 116.165 162.011C114.567 162.447 112.938 162.757 111.292 162.938C110.854 162.938 110.445 161.085 111.541 160.278L113.086 160.337Z" fill="#30343A"/>
<path d="M105.174 126.419C105.174 126.419 111.063 133.075 112.06 141.744C113.056 150.582 113.056 158.374 113.056 158.374L111.063 159.092C111.063 159.092 108.074 149.935 105.085 145.012C102.095 140.09 99.973 138.784 99.973 138.784C99.973 138.784 92.7588 134.908 92.1709 127.973L105.174 126.419Z" fill="url(#paint26_linear_3189_1705)"/>
<path d="M110.545 109.339C110.545 109.339 112.02 108.273 111.97 107.656C111.92 107.038 112.429 105.822 111.811 106.031C111.193 106.241 109.648 108.532 109.648 108.532L110.545 109.339Z" fill="#FEC6BD"/>
<path d="M100.89 102.344C100.89 102.344 105.115 110.615 105.593 112C106.071 113.385 107.097 111.93 108.004 110.655C108.911 109.379 109.648 108.532 109.648 108.532L110.545 109.34C110.545 109.34 108.313 117.152 106.5 118.208C104.686 119.264 101.996 117.779 101.996 117.779L100.89 102.344Z" fill="url(#paint27_linear_3189_1705)"/>
<path d="M105.992 94.4029C106.144 95.4118 106.214 96.4316 106.201 97.452C106.021 99.8135 104.337 101.438 103.71 101.318C103.082 101.199 102.255 100.999 102.255 100.999L100.89 102.345L98.2393 101.577L100.491 98.0698C100.491 98.0698 100.113 94.5025 101.308 94.2434C102.871 94.1466 104.439 94.2 105.992 94.4029Z" fill="#FEC6BD"/>
<path d="M104.218 95.1601C104.218 95.1601 106.908 95.1601 107.536 94.0939C108.164 93.0277 107.686 91.1046 106.719 91.1046C105.753 91.1046 105.075 92.2306 103.64 92.2007C102.205 92.1708 101.149 91.6028 100.153 92.2804C99.0367 93.0119 98.5406 94.3943 98.9369 95.6683C99.4949 96.8441 100.103 98.1096 100.77 98.0598C101.438 98.01 101.767 97.4818 101.498 97.0035C101.229 96.5253 101.039 95.4491 101.807 95.2697C102.113 95.1755 102.445 95.2119 102.724 95.3703C103.004 95.5286 103.205 95.7951 103.281 96.1067V96.6149C103.608 96.5645 103.898 96.3764 104.077 96.0983C104.256 95.8202 104.307 95.4786 104.218 95.1601Z" fill="#30343A"/>
<path d="M98.8872 100.69C98.8872 100.69 98.957 101.687 100.88 102.344C102.477 105.486 103.611 108.842 104.248 112.309C104.876 116.942 105.165 126.458 105.165 126.458C105.165 126.458 97.1933 128.282 92.2709 128.013C92.2709 128.013 89.5506 114.581 92.5798 108.463C95.609 102.344 98.8872 100.69 98.8872 100.69Z" fill="url(#paint28_linear_3189_1705)"/>
<path d="M113.594 103.979L110.345 108.891L109.778 108.223C109.668 108.076 109.668 107.873 109.778 107.725L112.069 104.118C112.15 103.989 112.296 103.917 112.448 103.929L113.594 103.979Z" fill="#30343A"/>
<path opacity="0.1" d="M93.8652 109.469L99.3456 108.951C99.3456 108.951 99.0566 113.684 98.678 119.433C98.2993 125.183 98.12 129.458 98.11 129.577C98.4788 130.219 98.6127 130.97 98.4887 131.7C98.1798 132.557 97.0937 132.507 96.4958 131.849C95.8979 131.191 96.2766 129.856 96.3264 129.717C95.8581 130.713 92.1613 125.631 91.5335 119.991C91.0872 116.321 91.91 112.608 93.8652 109.469Z" fill="black"/>
<path d="M97.4124 129.537C97.4124 129.537 98.1896 130.942 97.8708 131.799C97.5519 132.656 96.4658 132.616 95.8779 131.949C95.29 131.281 95.7284 129.786 95.7284 129.786L97.4124 129.537Z" fill="#FEC6BD"/>
<path d="M99.8834 108.772C98.8766 112.239 98.2386 115.802 97.9802 119.404C97.6016 125.163 97.4123 129.567 97.4123 129.567C96.8901 129.877 96.2666 129.966 95.6785 129.816C93.6467 126.533 92.3514 122.848 91.882 119.015C91.4625 115.281 91.9057 111.5 93.1774 107.964L99.8834 108.772Z" fill="url(#paint29_linear_3189_1705)"/>
<path d="M46.7036 141.544L45.7071 140.757L43.3854 132.028C43.3854 132.028 43.9135 129.527 43.2957 129.039C42.6779 128.551 42.5484 129.916 42.5484 129.916C42.5484 129.916 40.974 127.764 40.5555 128.641C40.137 129.517 40.6851 131.052 41.7811 132.198C41.7811 132.198 42.8772 141.405 43.2359 142.162C43.5947 142.92 46.305 144.932 46.305 144.932L46.7036 141.544Z" fill="#FEC6BD"/>
<path d="M64.9975 154.448L66.4423 156.511L70.747 151.638C70.747 151.638 69.9996 149.705 70.3484 149.048C70.5943 148.678 71.0027 148.448 71.4465 148.43C71.8903 148.413 72.3157 148.609 72.5904 148.958C73.3776 149.795 72.4608 151.499 71.9327 152.426C71.4046 153.352 68.3754 159.879 66.8907 160.188C65.406 160.497 62.6758 157.069 62.6758 157.069L64.9975 154.448Z" fill="#FEC6BD"/>
<path d="M52.8115 147.473L54.7147 142.312C54.2663 140.13 54.7147 136.453 59.6969 138.396C60.1447 139.739 60.1166 141.196 59.6172 142.521C59.0999 143.461 58.0877 144.02 57.0165 143.956L56.1496 148.569L52.8115 147.473Z" fill="#FEC6BD"/>
<path d="M56.6178 145.889C56.6178 145.889 54.0769 146.507 53.5488 145.102L47.0619 141.236C47.0619 141.236 44.8199 142.69 45.1288 145.012L46.8327 148.828C46.8327 148.828 47.5801 159.221 47.6698 160.786C51.4363 163.303 56.1207 164.032 60.474 162.779L61.4007 157.338L63.5032 159.431C64.9661 158.318 65.7469 156.526 65.5658 154.698C65.5658 154.698 64.2505 149.038 62.2776 147.453C60.3046 145.869 56.6178 145.889 56.6178 145.889Z" fill="url(#paint30_linear_3189_1705)"/>
<path d="M49.3635 169.196L49.4931 173.67C46.7095 176.082 44.6588 179.227 43.5742 182.747L45.0191 184.531C45.0191 184.531 56.6675 178.801 57.2554 175.384C57.8433 171.966 49.3635 169.196 49.3635 169.196Z" fill="url(#paint31_linear_3189_1705)"/>
<path d="M58.8993 192.313C59.7127 192.705 60.5906 192.945 61.4901 193.021C62.7556 193.021 64.3798 193.369 63.4132 194.376C62.4467 195.382 59.5171 195.372 57.9328 195.303C56.3485 195.233 55.5214 194.206 56.0894 192.224L58.8993 192.313Z" fill="#37475E"/>
<path d="M45.0194 184.531C44.7316 185.272 44.5765 186.058 44.561 186.853C44.6507 187.73 45.966 189.842 45.0393 189.842C44.1126 189.842 42.2294 187.51 41.492 185.936C40.7546 184.362 41.1831 183.485 43.5746 182.707L45.0194 184.531Z" fill="#37475E"/>
<path d="M58.1129 140.06C58.1129 140.06 57.5449 139.133 57.0168 139.621C56.4887 140.11 56.0204 141.325 57.0168 141.614C57.0168 141.614 56.2296 143.936 55.0239 144.245C53.8182 144.554 53.619 141.256 51.8154 140.04C50.0118 138.824 50.3307 137.1 51.5563 136.831C52.7819 136.562 51.1179 134.988 52.8716 134.251C54.6254 133.513 55.4125 132.706 57.1663 133.633C58.92 134.559 58.92 135.297 60.7236 135.078C62.5271 134.858 62.6567 136.961 61.7798 137.668C61.1305 138.108 60.3618 138.338 59.5777 138.326L58.1129 140.06Z" fill="#37475E"/>
<path d="M60.4342 162.779C60.4342 162.779 65.7851 172.295 65.9146 175.095C66.094 178.791 61.7993 188.826 58.9395 192.333L56.1296 192.243C56.1296 192.243 56.7474 180.057 57.7538 177.028C57.7538 177.028 44.2221 172.135 47.6698 160.796L60.4342 162.779Z" fill="url(#paint32_linear_3189_1705)"/>
<path d="M68.595 174.377C68.9976 175.63 69.0697 176.965 68.8042 178.253C68.2661 179.738 66.5722 179.987 65.496 180.027C64.4199 180.067 62.9352 172.245 68.595 174.377Z" fill="#FEC6BD"/>
<path d="M70.4985 205.646C70.4985 205.646 71.0765 211.624 71.0266 212.91C70.9768 214.195 70.638 228.673 70.638 229.949L69.4224 229.859C69.4224 229.859 67.0708 221.559 66.8217 217.294C66.406 213.563 65.6794 209.873 64.6494 206.263L70.4985 205.646Z" fill="#FEC6BD"/>
<path d="M59.2588 204.51C59.2588 204.51 59.2588 208.286 59.488 210.897C59.6972 213.717 59.1093 222.187 59.6972 224.847H61.2018C61.2018 224.847 62.826 214.255 63.5335 211.973C64.241 209.691 64.1712 204.998 64.1712 204.998L59.2588 204.51Z" fill="#FEC6BD"/>
<path d="M74.9121 174.895C74.9121 174.895 75.769 170.132 75.7989 169.913C75.8288 169.694 75.6794 167.841 75.9883 167.681C76.2972 167.522 76.636 168.179 76.636 168.588C76.636 168.996 77.8118 167.063 78.5192 167.093C79.2267 167.123 80.1634 168.09 79.695 168.678C79 169.476 78.1353 170.109 77.1641 170.531L76.8552 175.374" fill="#FEC6BD"/>
<path d="M66.5323 180.914C68.0221 180.844 69.5011 180.624 70.9465 180.256C72.0509 180 73.0917 179.522 74.0056 178.851L74.9123 174.865L76.8554 175.314C76.8554 175.314 76.975 180.017 75.6497 182.707C74.3244 185.398 70.8668 187.74 70.8668 187.74L69.0533 191.954L61.5301 191.745C61.5301 191.745 59.6768 187.371 59.6768 184.89C59.6768 182.409 60.175 178.363 66.5323 180.914Z" fill="url(#paint33_linear_3189_1705)"/>
<path d="M69.0534 191.984C69.0534 191.984 71.6043 200.484 71.405 206.433C69.4675 207.4 67.333 207.908 65.1673 207.917C62.6366 207.854 60.1733 207.088 58.0527 205.705C58.0527 205.705 59.6769 195.9 61.5303 191.755L69.0534 191.984Z" fill="url(#paint34_linear_3189_1705)"/>
<path d="M70.6573 229.839C71.2799 230.292 71.9785 230.629 72.72 230.836C73.547 230.965 74.4737 231.254 73.8858 231.493C72.4059 231.829 70.8728 231.856 69.3819 231.573C68.3855 231.214 68.5549 231.324 68.5549 230.885C68.5549 230.447 69.2324 229.819 69.2324 229.819L70.6573 229.839Z" fill="#37475E"/>
<path d="M61.2018 224.827C61.2018 224.827 62.3975 225.315 63.5235 225.644C64.6495 225.973 64.8588 226.272 64.0118 226.461C62.8832 226.654 61.7386 226.737 60.594 226.71C59.5975 226.71 59.3584 226.431 59.3584 225.913C59.381 225.541 59.4829 225.177 59.6573 224.847L61.2018 224.827Z" fill="#37475E"/>
<path d="M61.1614 174.806C61.7194 173.54 63.0248 171.627 66.6518 171.667C69.9201 171.667 69.9201 174.028 68.555 174.806C67.1899 175.583 66.9009 176.051 66.7415 177.078C66.5821 178.104 65.5757 183.315 67.1899 184.551C65.3146 184.392 63.5303 183.673 62.0682 182.488C59.4675 180.465 60.1749 177.078 61.1614 174.806Z" fill="#37475E"/>
<path d="M32.5936 193.369L42.5581 198.93C42.8441 199.091 43.0505 199.364 43.1279 199.683C43.2054 200.002 43.147 200.339 42.9666 200.614L37.8648 208.426C37.7017 208.68 37.4429 208.859 37.1467 208.921C36.8505 208.983 36.5419 208.923 36.2904 208.754L25.0605 201.361L31.4677 193.579C31.7416 193.243 32.2176 193.155 32.5936 193.369Z" fill="url(#paint35_linear_3189_1705)"/>
<path d="M32.5936 193.15L42.5581 198.71C42.8435 198.87 43.0498 199.141 43.1273 199.458C43.2048 199.776 43.1466 200.111 42.9666 200.384L37.8648 208.256C37.6999 208.509 37.4412 208.686 37.1458 208.747C36.8505 208.809 36.5427 208.751 36.2904 208.585L25.0605 201.191L31.4677 193.409C31.7275 193.057 32.2058 192.947 32.5936 193.15Z" fill="url(#paint36_linear_3189_1705)"/>
<path d="M32.4639 193.599L42.239 199.049C42.421 199.153 42.5527 199.326 42.6035 199.53C42.6543 199.733 42.6198 199.948 42.508 200.125L37.4062 207.927C37.3041 208.09 37.1403 208.204 36.9524 208.244C36.7645 208.283 36.5686 208.244 36.4098 208.137L25.7578 201.162L31.8859 193.708C32.0307 193.544 32.2689 193.498 32.4639 193.599Z" fill="url(#paint37_linear_3189_1705)"/>
<path d="M26.5554 189.105C26.726 190.476 26.8092 191.858 26.8045 193.24C26.7447 194.904 25.6885 195.093 24.6423 195.332L24.3334 198.79L21.1846 197.933C21.1846 197.933 20.8159 191.506 21.0052 190.211C21.1946 188.915 26.5554 189.105 26.5554 189.105Z" fill="#FEC6BD"/>
<path d="M25.9974 190.49C26.2706 189.973 26.6391 189.514 27.0835 189.135C27.7312 188.636 27.512 187.959 26.3063 187.411C24.5703 186.777 22.6759 186.721 20.9056 187.251C19.6238 187.799 18.7735 189.037 18.7234 190.43C18.6536 191.237 19.6102 191.855 19.8593 192.562C20.1084 193.27 20.1981 194.685 20.786 194.874C21.3739 195.063 23.1276 195.273 23.5362 194.874C23.8905 194.388 24.16 193.846 24.3333 193.27C24.3333 193.27 23.7753 192.502 24.1141 192.124C24.4529 191.745 25.2899 191.915 25.3796 192.313C25.4693 192.712 24.6123 194.695 25.0408 195.462C25.4693 196.229 26.8643 195.372 26.8643 194.934C26.8643 194.495 26.2166 194.386 25.9974 193.768C25.7126 192.694 25.7126 191.564 25.9974 190.49Z" fill="#30343A"/>
<path d="M25.3193 198.85C25.792 197.965 26.4315 197.18 27.2026 196.538C28.0994 196.02 29.056 196.289 29.1955 196.668C29.335 197.046 26.1464 199.258 26.1464 199.258L25.3193 198.85Z" fill="#FEC6BD"/>
<path d="M32.514 206.632L32.9724 207.808L38.4329 204.5C38.4329 204.5 38.9909 202.218 39.4293 202.278C39.8677 202.337 39.6485 203.513 39.6485 203.513C39.6485 203.513 41.3724 202.806 41.8407 202.586C41.8407 202.586 42.1496 204.44 40.9439 205.147C39.7382 205.855 39.3396 205.307 38.5724 205.825C37.8051 206.343 34.3375 210.638 32.8926 210.947C31.4478 211.256 29.9033 207.738 29.9033 207.738L32.514 206.632Z" fill="#FEC6BD"/>
<path d="M30.3216 219.436C30.2104 223.768 29.8779 228.092 29.3251 232.39C28.4881 238.438 27.5913 242.972 27.5614 244.268H23.5756C23.5756 244.268 22.3102 233.685 22.1906 228.843C22.1906 228.843 16.5707 223.502 16.1123 217.204L28.8867 212.511L30.3216 219.436Z" fill="url(#paint38_linear_3189_1705)"/>
<path d="M22.2706 228.883C21.2519 231.203 20.4675 233.62 19.929 236.097C19.371 239.246 19.1019 241.717 19.1019 241.717H15.9432C15.4888 237.888 15.3123 234.032 15.4151 230.178C15.6343 224.498 16.1923 217.224 16.1923 217.224L22.2706 228.883Z" fill="url(#paint39_linear_3189_1705)"/>
<path d="M26.6451 244.278L26.406 248.692L24.8017 248.622L24.3633 244.248L26.6451 244.278Z" fill="#FEC6BD"/>
<path d="M26.4052 248.692C27.2714 249.078 28.1816 249.355 29.1156 249.519C30.3213 249.678 30.2914 250.416 29.3348 250.515C28.3782 250.615 24.3526 251.263 24.2729 250.206C24.2182 249.622 24.4095 249.04 24.801 248.602L26.4052 248.692Z" fill="#30343A"/>
<path d="M18.354 241.527L18.1447 245.254L16.7796 245.204L16.4209 241.497L18.354 241.527Z" fill="#FEC6BD"/>
<path d="M18.1451 245.254C18.8774 245.582 19.647 245.82 20.4369 245.962C21.4334 246.091 21.4334 246.719 20.6263 246.828C19.8191 246.938 16.3914 247.446 16.3416 246.559C16.2959 246.065 16.4584 245.574 16.79 245.204L18.1451 245.254Z" fill="#30343A"/>
<path d="M23.2272 196.727C22.0614 196.428 18.5041 195.92 16.8699 196.478C14.7552 197.142 13.4709 199.282 13.8806 201.46C14.2891 204.45 16.2621 205.685 16.8699 208.097C17.4617 209.609 17.382 211.301 16.6507 212.75C16.003 214.633 15.8137 216.915 16.1923 217.194C16.571 217.473 23.0379 220.373 25.818 219.845C28.598 219.317 28.4386 215.68 28.9667 215.68C29.4948 215.68 29.9632 219.357 30.3219 219.386C30.6806 219.416 29.8237 211.176 29.4251 209.143L32.8229 206.363C32.8229 206.363 31.8265 201.271 28.5582 199.179C25.2898 197.086 25.0407 197.186 23.2272 196.727Z" fill="url(#paint40_linear_3189_1705)"/>
<defs>
<linearGradient id="paint0_linear_3189_1705" x1="77.6201" y1="158.062" x2="64.0877" y2="215.059" gradientUnits="userSpaceOnUse">
<stop stop-color="#99C9FF" stop-opacity="0.5"/>
<stop offset="1" stop-color="white" stop-opacity="0.01"/>
</linearGradient>
<linearGradient id="paint1_linear_3189_1705" x1="218.602" y1="180.445" x2="245.808" y2="181.937" gradientUnits="userSpaceOnUse">
<stop stop-color="#D0EDFF"/>
<stop offset="1" stop-color="#F7FDFF"/>
</linearGradient>
<linearGradient id="paint2_linear_3189_1705" x1="271.723" y1="145.842" x2="218.599" y2="145.349" gradientUnits="userSpaceOnUse">
<stop stop-color="#D0EDFF"/>
<stop offset="1" stop-color="#F7FDFF"/>
</linearGradient>
<linearGradient id="paint3_linear_3189_1705" x1="43.3367" y1="111.607" x2="-1.68051" y2="115.757" gradientUnits="userSpaceOnUse">
<stop stop-color="#FFC313"/>
<stop offset="1" stop-color="#FFD200"/>
</linearGradient>
<linearGradient id="paint4_linear_3189_1705" x1="23.8769" y1="130.673" x2="37.7238" y2="105.566" gradientUnits="userSpaceOnUse">
<stop stop-color="#FFE200"/>
<stop offset="1" stop-color="#FFD200"/>
</linearGradient>
<linearGradient id="paint5_linear_3189_1705" x1="4247.75" y1="-3347.85" x2="4247.75" y2="-3393.2" gradientUnits="userSpaceOnUse">
<stop stop-color="#FFC313"/>
<stop offset="1" stop-color="#FFD200"/>
</linearGradient>
<linearGradient id="paint6_linear_3189_1705" x1="19.1338" y1="124.369" x2="32.9878" y2="99.2671" gradientUnits="userSpaceOnUse">
<stop stop-color="#FFE200"/>
<stop offset="1" stop-color="#FFD200"/>
</linearGradient>
<linearGradient id="paint7_linear_3189_1705" x1="4240.08" y1="-3336.28" x2="4240.08" y2="-3381.63" gradientUnits="userSpaceOnUse">
<stop stop-color="#FFC313"/>
<stop offset="1" stop-color="#FFD200"/>
</linearGradient>
<linearGradient id="paint8_linear_3189_1705" x1="30.6153" y1="116.481" x2="44.4693" y2="91.3791" gradientUnits="userSpaceOnUse">
<stop stop-color="#FFE200"/>
<stop offset="1" stop-color="#FFD200"/>
</linearGradient>
<linearGradient id="paint9_linear_3189_1705" x1="17.0608" y1="99.9922" x2="157.08" y2="277.938" gradientUnits="userSpaceOnUse">
<stop stop-color="#D7EAFF"/>
<stop offset="1" stop-color="#DBECFF"/>
<stop offset="1" stop-color="#E9F3FF"/>
</linearGradient>
<linearGradient id="paint10_linear_3189_1705" x1="17.0608" y1="99.9922" x2="157.08" y2="277.938" gradientUnits="userSpaceOnUse">
<stop stop-color="#94C4FF" stop-opacity="0.01"/>
<stop offset="0.37" stop-color="#94C4FF" stop-opacity="0.01"/>
<stop offset="0.59" stop-color="#94C4FF"/>
<stop offset="1" stop-color="#DBECFF"/>
<stop offset="1" stop-color="#DDECFF"/>
</linearGradient>
<linearGradient id="paint11_linear_3189_1705" x1="20.1111" y1="97.7259" x2="108.636" y2="269.748" gradientUnits="userSpaceOnUse">
<stop stop-color="#82BBEF"/>
<stop offset="0.1" stop-color="#7AB3F2"/>
<stop offset="0.25" stop-color="#649EFA"/>
<stop offset="0.28" stop-color="#609AFC"/>
<stop offset="0.28" stop-color="#619BFC"/>
<stop offset="0.38" stop-color="#84B2FD"/>
<stop offset="0.47" stop-color="#A1C6FD"/>
<stop offset="0.58" stop-color="#B8D5FE"/>
<stop offset="0.69" stop-color="#C8E0FE"/>
<stop offset="0.82" stop-color="#D1E6FE"/>
<stop offset="1" stop-color="#D4E8FE"/>
</linearGradient>
<linearGradient id="paint12_linear_3189_1705" x1="-29.0492" y1="119.405" x2="134.572" y2="277.97" gradientUnits="userSpaceOnUse">
<stop stop-color="#E6F3FF"/>
<stop offset="1" stop-color="#F3FAFF"/>
</linearGradient>
<linearGradient id="paint13_linear_3189_1705" x1="46.0507" y1="86.1167" x2="41.6207" y2="93.365" gradientUnits="userSpaceOnUse">
<stop stop-color="#70AFFC"/>
<stop offset="1" stop-color="#C2E0FF"/>
</linearGradient>
<linearGradient id="paint14_linear_3189_1705" x1="214.078" y1="173.401" x2="214.078" y2="138.824" gradientUnits="userSpaceOnUse">
<stop stop-color="#6DB3FA"/>
<stop offset="1" stop-color="#2F83E8"/>
</linearGradient>
<linearGradient id="paint15_linear_3189_1705" x1="105.362" y1="60.0123" x2="161.87" y2="61.4521" gradientUnits="userSpaceOnUse">
<stop stop-color="#6DB3FA"/>
<stop offset="1" stop-color="#2F83E8"/>
</linearGradient>
<linearGradient id="paint16_linear_3189_1705" x1="203.613" y1="199.462" x2="210.079" y2="209.558" gradientUnits="userSpaceOnUse">
<stop stop-color="#FFEE21"/>
<stop offset="0.53" stop-color="#FFEC1F"/>
<stop offset="0.73" stop-color="#FFE718"/>
<stop offset="0.86" stop-color="#FFDD0D"/>
<stop offset="0.95" stop-color="#FFD200"/>
</linearGradient>
<linearGradient id="paint17_linear_3189_1705" x1="249.148" y1="187.463" x2="187.886" y2="137.551" gradientUnits="userSpaceOnUse">
<stop stop-color="#FFE200"/>
<stop offset="1" stop-color="#FFD200"/>
</linearGradient>
<linearGradient id="paint18_linear_3189_1705" x1="178.149" y1="67.7247" x2="173.164" y2="92.2125" gradientUnits="userSpaceOnUse">
<stop stop-color="#133472"/>
<stop offset="1" stop-color="#133E92"/>
</linearGradient>
<linearGradient id="paint19_linear_3189_1705" x1="176.703" y1="53.4266" x2="183.914" y2="77.6401" gradientUnits="userSpaceOnUse">
<stop stop-color="#6DB3FA"/>
<stop offset="1" stop-color="#2F83E8"/>
</linearGradient>
<linearGradient id="paint20_linear_3189_1705" x1="171.378" y1="79.1125" x2="177.412" y2="89.2536" gradientUnits="userSpaceOnUse">
<stop stop-color="#DFEAF7"/>
<stop offset="1" stop-color="#B4C8DC"/>
</linearGradient>
<linearGradient id="paint21_linear_3189_1705" x1="157.518" y1="213.103" x2="164.254" y2="213.103" gradientUnits="userSpaceOnUse">
<stop stop-color="#133472"/>
<stop offset="1" stop-color="#133E92"/>
</linearGradient>
<linearGradient id="paint22_linear_3189_1705" x1="144.634" y1="206.544" x2="163.501" y2="209.882" gradientUnits="userSpaceOnUse">
<stop stop-color="#133E92"/>
<stop offset="1" stop-color="#1372B6"/>
</linearGradient>
<linearGradient id="paint23_linear_3189_1705" x1="152.111" y1="161.414" x2="152.111" y2="198.272" gradientUnits="userSpaceOnUse">
<stop stop-color="#6DB3FA"/>
<stop offset="1" stop-color="#2F83E8"/>
</linearGradient>
<linearGradient id="paint24_linear_3189_1705" x1="147.75" y1="162.7" x2="145.192" y2="173.255" gradientUnits="userSpaceOnUse">
<stop offset="0.1" stop-color="#61ADF7"/>
<stop offset="1" stop-color="#2F83E8"/>
</linearGradient>
<linearGradient id="paint25_linear_3189_1705" x1="80.9674" y1="110.217" x2="67.3275" y2="110.361" gradientUnits="userSpaceOnUse">
<stop stop-color="#133472"/>
<stop offset="1" stop-color="#133E92"/>
</linearGradient>
<linearGradient id="paint26_linear_3189_1705" x1="82.6218" y1="104.155" x2="63.8522" y2="120.272" gradientUnits="userSpaceOnUse">
<stop stop-color="#133E92"/>
<stop offset="1" stop-color="#1372B6"/>
</linearGradient>
<linearGradient id="paint27_linear_3189_1705" x1="88.7365" y1="79.7122" x2="77.3096" y2="83.9177" gradientUnits="userSpaceOnUse">
<stop stop-color="#6DB3FA"/>
<stop offset="1" stop-color="#2F83E8"/>
</linearGradient>
<linearGradient id="paint28_linear_3189_1705" x1="70.9129" y1="88.8569" x2="77.5912" y2="113.914" gradientUnits="userSpaceOnUse">
<stop stop-color="#6DB3FA"/>
<stop offset="1" stop-color="#2F83E8"/>
</linearGradient>
<linearGradient id="paint29_linear_3189_1705" x1="73.183" y1="90.8803" x2="66.6646" y2="108.711" gradientUnits="userSpaceOnUse">
<stop stop-color="#5EABF6"/>
<stop offset="1" stop-color="#2F83E8"/>
</linearGradient>
<linearGradient id="paint30_linear_3189_1705" x1="49.0249" y1="145.297" x2="43.3926" y2="160.12" gradientUnits="userSpaceOnUse">
<stop stop-color="#6DB3FA"/>
<stop offset="1" stop-color="#2F83E8"/>
</linearGradient>
<linearGradient id="paint31_linear_3189_1705" x1="47.6553" y1="168.453" x2="38.0787" y2="178.979" gradientUnits="userSpaceOnUse">
<stop stop-color="#133472"/>
<stop offset="1" stop-color="#133E92"/>
</linearGradient>
<linearGradient id="paint32_linear_3189_1705" x1="48.7328" y1="162.78" x2="42.9936" y2="189.367" gradientUnits="userSpaceOnUse">
<stop stop-color="#133E92"/>
<stop offset="1" stop-color="#1372B6"/>
</linearGradient>
<linearGradient id="paint33_linear_3189_1705" x1="60.2787" y1="179.86" x2="63.1779" y2="194.942" gradientUnits="userSpaceOnUse">
<stop stop-color="#6DB3FA"/>
<stop offset="1" stop-color="#2F83E8"/>
</linearGradient>
<linearGradient id="paint34_linear_3189_1705" x1="71.415" y1="191.766" x2="58.0527" y2="191.766" gradientUnits="userSpaceOnUse">
<stop stop-color="#133E92"/>
<stop offset="1" stop-color="#1372B6"/>
</linearGradient>
<linearGradient id="paint35_linear_3189_1705" x1="26.4488" y1="210.878" x2="43.4684" y2="205.911" gradientUnits="userSpaceOnUse">
<stop stop-color="#6DB3FA"/>
<stop offset="1" stop-color="#2F83E8"/>
</linearGradient>
<linearGradient id="paint36_linear_3189_1705" x1="43.1759" y1="193.013" x2="25.0805" y2="193.013" gradientUnits="userSpaceOnUse">
<stop stop-color="#70AFFC"/>
<stop offset="1" stop-color="#C2E0FF"/>
</linearGradient>
<linearGradient id="paint37_linear_3189_1705" x1="42.6276" y1="193.536" x2="25.7578" y2="193.536" gradientUnits="userSpaceOnUse">
<stop stop-color="#E6F3FF"/>
<stop offset="1" stop-color="#F3FAFF"/>
</linearGradient>
<linearGradient id="paint38_linear_3189_1705" x1="16.9589" y1="214.147" x2="7.72539" y2="240.728" gradientUnits="userSpaceOnUse">
<stop stop-color="#133E92"/>
<stop offset="1" stop-color="#1372B6"/>
</linearGradient>
<linearGradient id="paint39_linear_3189_1705" x1="17.2585" y1="213.098" x2="8.12592" y2="215.937" gradientUnits="userSpaceOnUse">
<stop stop-color="#133472"/>
<stop offset="1" stop-color="#133E92"/>
</linearGradient>
<linearGradient id="paint40_linear_3189_1705" x1="15.6068" y1="198.698" x2="10.6459" y2="218.492" gradientUnits="userSpaceOnUse">
<stop stop-color="#6DB3FA"/>
<stop offset="1" stop-color="#2F83E8"/>
</linearGradient>
</defs>
</svg>
