<svg width="160" height="160" viewBox="0 0 160 160" fill="none" xmlns="http://www.w3.org/2000/svg">
<path d="M131.726 64.6571C131.76 64.5029 134.789 49.3029 125.554 39.0229C118.286 30.9486 112.669 21.5429 111.206 15.0571L111 15.1029C112.469 21.6229 118.12 31.0686 125.394 39.1657C134.537 49.3657 131.549 64.4629 131.52 64.6114L131.726 64.6571Z" fill="#CBE0FF"/>
<path d="M109.823 13.5371C110.113 14.2618 110.59 14.8966 111.206 15.3771C111.521 14.6592 111.641 13.8707 111.554 13.0914C111.326 12.1657 110.84 11.8914 110.36 12.0114C109.88 12.1314 109.588 12.6057 109.823 13.5371Z" fill="#CBE0FF"/>
<path d="M112.326 16.8343C111.966 17.7543 112.389 19.2114 112.389 19.2114C112.389 19.2114 113.686 18.4286 114.046 17.4971C114.406 16.5657 114.16 16.0571 113.686 15.8686C113.212 15.68 112.686 15.9143 112.326 16.8343Z" fill="#CBE0FF"/>
<path d="M114.045 20.4057C113.657 21.3886 114.108 22.9486 114.108 22.9486C114.108 22.9486 115.503 22.1086 115.885 21.12C116.268 20.1314 116.011 19.5771 115.503 19.4057C114.994 19.2343 114.428 19.4286 114.045 20.4057Z" fill="#CBE0FF"/>
<path d="M115.999 23.3257C115.508 24.2114 115.742 25.7486 115.742 25.7486C115.742 25.7486 117.142 25.1429 117.639 24.24C118.137 23.3371 117.954 22.7943 117.497 22.5257C117.039 22.2571 116.474 22.44 115.999 23.3257Z" fill="#CBE0FF"/>
<path d="M117.4 26.5486C117.132 27.5257 117.709 28.9657 117.709 28.9657C117.709 28.9657 118.949 28.0343 119.223 27.0571C119.498 26.08 119.223 25.5829 118.692 25.44C118.16 25.2971 117.675 25.5771 117.4 26.5486Z" fill="#CBE0FF"/>
<path d="M119.2 29.8343C119.097 30.84 119.92 32.16 119.92 32.16C119.92 32.16 120.977 31.0171 121.063 30.0171C121.149 29.0171 120.783 28.5657 120.263 28.5143C119.743 28.4629 119.297 28.8286 119.2 29.8343Z" fill="#CBE0FF"/>
<path d="M121.514 32.9086C121.411 33.9143 122.234 35.2343 122.234 35.2343C122.234 35.2343 123.297 34.0914 123.377 33.0971C123.457 32.1029 123.097 31.6457 122.577 31.5943C122.057 31.5429 121.611 31.9029 121.514 32.9086Z" fill="#CBE0FF"/>
<path d="M124 35.8171C123.903 36.8229 124.72 38.1371 124.72 38.1371C124.72 38.1371 125.783 36.9943 125.863 36C125.943 35.0057 125.583 34.5486 125.063 34.4971C124.543 34.4457 124.069 34.8114 124 35.8171Z" fill="#CBE0FF"/>
<path d="M126.285 38.5771C126.188 39.5829 127.005 40.9029 127.005 40.9029C127.005 40.9029 128.068 39.76 128.148 38.7657C128.228 37.7714 127.863 37.3143 127.343 37.2629C126.823 37.2114 126.36 37.5714 126.285 38.5771Z" fill="#CBE0FF"/>
<path d="M129.143 42.3657C128.805 43.32 129.291 44.7943 129.291 44.7943C129.291 44.7943 130.588 43.9486 130.925 42.9943C131.263 42.04 130.994 41.5143 130.503 41.3429C130.011 41.1714 129.445 41.4114 129.143 42.3657Z" fill="#CBE0FF"/>
<path d="M130.611 46.2171C130.274 47.1714 130.76 48.6457 130.76 48.6457C130.76 48.6457 132.057 47.8 132.394 46.8457C132.731 45.8914 132.463 45.3657 131.971 45.1943C131.48 45.0229 130.943 45.2629 130.611 46.2171Z" fill="#CBE0FF"/>
<path d="M109.451 17.88C110.406 18.2514 111.914 17.8114 111.914 17.8114C111.914 17.8114 111.103 16.4629 110.149 16.0971C109.194 15.7314 108.651 15.9771 108.434 16.4686C108.217 16.96 108.491 17.5086 109.451 17.88Z" fill="#CBE0FF"/>
<path d="M111.303 22.0229C112.065 22.1212 112.839 22.0188 113.549 21.7257C113.09 21.111 112.477 20.6281 111.772 20.3257C110.863 20.0743 110.395 20.3257 110.263 20.8229C110.132 21.32 110.395 21.7714 111.303 22.0229Z" fill="#CBE0FF"/>
<path d="M112.909 25.8457C113.926 25.7886 115.114 24.7714 115.114 24.7714C115.114 24.7714 113.823 23.8857 112.829 23.9429C111.834 24 111.423 24.4514 111.452 24.9771C111.48 25.5029 111.892 25.9029 112.909 25.8457Z" fill="#CBE0FF"/>
<path d="M114.578 28.6286C115.595 28.5714 116.778 27.5543 116.778 27.5543C116.778 27.5543 115.486 26.6686 114.492 26.7257C113.498 26.7829 113.086 27.2343 113.115 27.76C113.143 28.2857 113.555 28.6857 114.578 28.6286Z" fill="#CBE0FF"/>
<path d="M116.508 31.4971C117.531 31.4971 118.794 30.5829 118.794 30.5829C118.794 30.5829 117.571 29.6057 116.548 29.5886C115.526 29.5714 115.114 29.9886 115.103 30.5143C115.091 31.04 115.491 31.4743 116.508 31.4971Z" fill="#CBE0FF"/>
<path d="M118.583 34.4629C119.605 34.4629 120.868 33.5486 120.868 33.5486C120.868 33.5486 119.64 32.5714 118.617 32.5714C117.594 32.5714 117.183 32.9714 117.171 33.4971C117.16 34.0229 117.565 34.44 118.583 34.4629Z" fill="#CBE0FF"/>
<path d="M120.903 37.4C121.92 37.4 123.189 36.4857 123.189 36.4857C123.189 36.4857 121.96 35.5086 120.943 35.4914C119.926 35.4743 119.509 35.8914 119.497 36.4171C119.486 36.9429 119.886 37.3771 120.903 37.4Z" fill="#CBE0FF"/>
<path d="M123.291 40.3143C124.257 40 125.143 38.6857 125.143 38.6857C125.143 38.6857 123.663 38.1829 122.697 38.5086C121.731 38.8343 121.48 39.3771 121.651 39.8743C121.823 40.3714 122.331 40.64 123.291 40.3143Z" fill="#CBE0FF"/>
<path d="M125.497 42.8971C126.508 42.9771 127.823 42.12 127.823 42.12C127.823 42.12 126.68 41.0743 125.64 40.9771C124.6 40.88 124.183 41.2914 124.143 41.8171C124.103 42.3429 124.48 42.8171 125.497 42.8971Z" fill="#CBE0FF"/>
<path d="M127.429 46.5886C128.446 46.6629 129.754 45.8114 129.754 45.8114C129.754 45.8114 128.612 44.7657 127.577 44.6686C126.543 44.5714 126.12 44.9886 126.08 45.5086C126.04 46.0286 126.394 46.5086 127.429 46.5886Z" fill="#CBE0FF"/>
<path d="M128.788 50.2114C129.731 50.6 131.245 50.2114 131.245 50.2114C131.245 50.2114 130.457 48.8571 129.531 48.4971C128.605 48.1371 128.051 48.3486 127.817 48.8343C127.583 49.32 127.845 49.8229 128.788 50.2114Z" fill="#CBE0FF"/>
<path d="M121.349 41.9657C121.349 41.9657 125.817 38.8743 126.657 36.4686C127.903 32.8971 128.48 32.2743 130.526 30.72C132.572 29.1657 132.343 25.1886 129.24 25.1771C126.137 25.1657 127.526 20.6057 128.097 17.6171C128.669 14.6286 124.84 8.74857 122.543 11.6114C120.246 14.4743 122.543 15.9943 120.412 17.8971C118.28 19.8 116.412 20.9029 117.514 24.8C118.617 28.6971 118.892 37.3714 118.892 37.3714L121.349 41.9657Z" fill="url(#paint0_linear_3655_4998)"/>
<path d="M129.52 27.8C127.888 29.2168 126.047 30.3732 124.063 31.2286C124.647 25.8896 124.802 20.5123 124.526 15.1486C124.537 15.0896 124.512 15.0294 124.462 14.996C124.413 14.9627 124.347 14.9627 124.297 14.996C124.247 15.0294 124.222 15.0896 124.234 15.1486C124.234 15.2743 124.863 25.84 123.354 33.8629C121.311 32.1125 119.804 29.8208 119.006 27.2514C118.998 27.1949 118.958 27.1479 118.903 27.1306C118.849 27.1133 118.789 27.1288 118.75 27.1704C118.711 27.212 118.699 27.2724 118.72 27.3257C119.552 30.0038 121.139 32.3849 123.291 34.1829C123.034 35.6042 122.651 37.0001 122.149 38.3543C122.121 38.43 122.159 38.5136 122.234 38.5429C122.269 38.5571 122.308 38.5571 122.343 38.5429C122.38 38.5289 122.409 38.4998 122.423 38.4629C123.208 36.2328 123.737 33.9209 124 31.5714C126.081 30.6899 128.01 29.4845 129.714 28C129.742 27.9721 129.758 27.934 129.758 27.8943C129.758 27.8546 129.742 27.8165 129.714 27.7886C129.656 27.7435 129.573 27.7484 129.52 27.8Z" fill="#CBE0FF"/>
<path d="M130.748 42.6571C134.662 30.8114 140.834 19.8 146.485 14.6286L146.645 14.8114C141.028 19.9543 134.879 30.92 130.982 42.7314L130.748 42.6571Z" fill="#CBE0FF"/>
<path d="M147.371 12.5714C146.577 13.3314 146.325 15 146.325 15C146.325 15 147.999 14.8114 148.794 14.0514C149.588 13.2914 149.582 12.6514 149.188 12.2457C148.794 11.84 148.159 11.8057 147.371 12.5714Z" fill="#CBE0FF"/>
<path d="M145.514 16.9371C144.371 17.1029 143.188 18.3543 143.188 18.3543C143.188 18.3543 144.708 19.1943 145.823 19.0286C146.937 18.8629 147.326 18.3257 147.24 17.7486C147.154 17.1714 146.634 16.7714 145.514 16.9371Z" fill="#CBE0FF"/>
<path d="M142.943 20.68C141.743 20.8571 140.451 22.1943 140.451 22.1943C140.451 22.1943 142.08 23.0971 143.308 22.92C144.537 22.7429 144.914 22.1657 144.823 21.5486C144.731 20.9314 144.143 20.4971 142.943 20.68Z" fill="#CBE0FF"/>
<path d="M141.143 24.2743C140 24.2743 138.589 25.4171 138.589 25.4171C138.589 25.4171 140.017 26.48 141.177 26.4571C142.337 26.4343 142.795 25.9486 142.783 25.3486C142.772 24.7486 142.286 24.2571 141.143 24.2743Z" fill="#CBE0FF"/>
<path d="M138.743 27.52C137.6 27.8057 136.515 29.2 136.515 29.2C136.515 29.2 138.149 29.9029 139.275 29.6229C140.4 29.3429 140.732 28.7543 140.583 28.1714C140.435 27.5886 139.869 27.2343 138.743 27.52Z" fill="#CBE0FF"/>
<path d="M136.502 31.1771C135.445 31.6514 134.6 33.2171 134.6 33.2171C134.6 33.2171 136.314 33.6286 137.388 33.1543C138.462 32.68 138.674 32.0457 138.428 31.5029C138.182 30.96 137.56 30.7029 136.502 31.1771Z" fill="#CBE0FF"/>
<path d="M134.76 35.2343C133.703 35.7086 132.857 37.2743 132.857 37.2743C132.857 37.2743 134.572 37.6857 135.646 37.2114C136.72 36.7371 136.932 36.1029 136.686 35.5543C136.44 35.0057 135.817 34.76 134.76 35.2343Z" fill="#CBE0FF"/>
<path d="M133.268 39.3314C132.211 39.8057 131.365 41.3714 131.365 41.3714C131.365 41.3714 133.08 41.7829 134.154 41.3086C135.228 40.8343 135.44 40.2 135.194 39.6571C134.948 39.1143 134.325 38.8571 133.268 39.3314Z" fill="#CBE0FF"/>
<path d="M142.857 14.6686C143.029 15.8114 144.326 17.0857 144.326 17.0857C144.326 17.0857 145.2 15.5086 145.029 14.3486C144.857 13.1886 144.297 12.7886 143.697 12.88C143.097 12.9714 142.663 13.5086 142.857 14.6686Z" fill="#CBE0FF"/>
<path d="M139.777 18.8571C140.046 19.9029 141.349 20.92 141.349 20.92C141.349 20.92 142 19.4 141.726 18.3543C141.452 17.3086 140.915 17 140.372 17.1429C139.829 17.2857 139.509 17.8286 139.777 18.8571Z" fill="#CBE0FF"/>
<path d="M136.886 22.6514C137.52 23.6343 139.211 24.2286 139.211 24.2286C139.211 24.2286 139.354 22.44 138.714 21.4629C138.074 20.4857 137.411 20.3543 136.909 20.6857C136.406 21.0171 136.246 21.6743 136.886 22.6514Z" fill="#CBE0FF"/>
<path d="M135.063 25.8914C135.703 26.8743 137.395 27.4686 137.395 27.4686C137.395 27.4686 137.532 25.68 136.897 24.7029C136.263 23.7257 135.595 23.5943 135.086 23.9257C134.577 24.2571 134.429 24.9143 135.063 25.8914Z" fill="#CBE0FF"/>
<path d="M133.32 29.4514C133.892 30.4743 135.52 31.1943 135.52 31.1943C135.52 31.1943 135.795 29.4229 135.235 28.4C134.675 27.3771 134.017 27.2 133.486 27.4914C132.955 27.7829 132.755 28.4286 133.32 29.4514Z" fill="#CBE0FF"/>
<path d="M131.548 33.2057C132.12 34.2286 133.754 34.92 133.754 34.92C133.754 34.92 134.028 33.1486 133.463 32.1257C132.897 31.1029 132.245 30.9257 131.72 31.2114C131.194 31.4971 130.988 32.1829 131.548 33.2057Z" fill="#CBE0FF"/>
<path d="M135.074 47.4286C135.074 47.4286 141.28 47.3771 143.16 44.7029C145.04 42.0286 142.588 39.7886 145.72 39.76C148.851 39.7314 151.691 39.4571 151.474 35.8229C151.257 32.1886 151.046 31.28 153.44 30.4571C155.834 29.6343 158.806 28.5429 156.674 26.1486C154.543 23.7543 148.166 24.3314 144.354 26.0914C140.543 27.8514 138.714 31.5029 136.663 31.9714C134.611 32.44 134.034 32.4171 132.834 30.3429C131.634 28.2686 127.857 29.1657 126.091 34.6571C124.326 40.1486 125.777 47.3371 125.777 47.3371L135.074 47.4286Z" fill="url(#paint1_linear_3655_4998)"/>
<path d="M130.223 47.2114C130.223 47.1657 131.652 42.9371 136.063 37.3086H136.098C138.383 36.3029 145.44 36.1657 145.515 36.1657C145.581 36.16 145.632 36.1061 145.635 36.04C145.632 35.9728 145.576 35.9199 145.509 35.92C145.229 35.92 138.92 36.0286 136.366 36.9314L136.429 36.8514C141.109 31.0171 150.503 28.1829 150.6 28.1543C150.632 28.1465 150.658 28.1259 150.673 28.0976C150.688 28.0694 150.691 28.036 150.68 28.0057C150.672 27.9745 150.652 27.9477 150.624 27.9316C150.596 27.9155 150.563 27.9113 150.532 27.92C150.435 27.9486 140.966 30.8057 136.246 36.6971C135.131 38.0875 134.095 39.5393 133.143 41.0457C131.566 39.2514 132.189 36.0286 132.195 35.9943C132.209 35.9296 132.168 35.8657 132.103 35.8514C132.035 35.8373 131.969 35.8808 131.955 35.9486C131.881 36.3794 131.837 36.8147 131.823 37.2514C131.783 38.3943 131.949 40.1086 133.006 41.2514C131.8 43.0954 130.798 45.0651 130.018 47.1257C130.018 47.1257 130.018 47.1257 130.018 47.1543C130.017 47.2086 130.052 47.257 130.103 47.2743C130.152 47.2801 130.2 47.2551 130.223 47.2114Z" fill="#CBE0FF"/>
<path d="M149.64 47.64L42.3766 3.92C41.4008 3.46911 40.2845 3.42998 39.2795 3.81143L33.6338 6.06286V15.64L146.857 126.64L152.52 124.354C154.062 123.846 155.097 122.24 155.097 119.926V56.2971C155.068 52.7371 152.64 48.8629 149.64 47.64Z" fill="url(#paint2_linear_3655_4998)"/>
<path d="M149.64 47.64L42.3766 3.92C41.4008 3.46911 40.2845 3.42998 39.2795 3.81143L33.6338 6.06286V15.64L146.857 126.64L152.52 124.354C154.062 123.846 155.097 122.24 155.097 119.926V56.2971C155.068 52.7371 152.64 48.8629 149.64 47.64Z" fill="url(#paint3_linear_3655_4998)"/>
<path d="M39.137 9.57143L38.0342 81.1371L143.76 123.28L144.348 52.3029L39.137 9.57143Z" fill="#ACD4F7"/>
<path d="M39.137 9.57143L38.0342 81.1371L143.76 123.28L144.348 52.3029L39.137 9.57143Z" fill="url(#paint4_linear_3655_4998)"/>
<path fill-rule="evenodd" clip-rule="evenodd" d="M36.6913 6.19429L143.954 49.9143C146.954 51.1371 149.383 55.0114 149.383 58.5714V122.223C149.383 125.783 146.954 127.674 143.954 126.457L36.6913 82.7314C33.6913 81.5029 31.2627 77.6343 31.2627 74.0743V10.4229C31.2627 6.85714 33.7141 4.97143 36.6913 6.19429ZM136.286 119.663C139.286 120.886 141.714 118.989 141.714 115.429L141.703 59.1143C141.703 55.56 139.274 51.68 136.274 50.4629L46.2856 13.7714C43.2856 12.5486 40.857 14.44 40.857 18V74.2971C40.857 77.8571 43.2856 81.7314 46.2856 82.9543L136.286 119.663Z" fill="url(#paint5_linear_3655_4998)"/>
<ellipse cx="36.1632" cy="48.3167" rx="2.09143" ry="3.14286" transform="rotate(-27.39 36.1632 48.3167)" fill="url(#paint6_linear_3655_4998)"/>
<path d="M144.754 98.7771C144.436 98.6143 144.234 98.2889 144.229 97.9314V78.6571C144.229 78.3143 144.463 78.1257 144.754 78.2457C145.074 78.408 145.278 78.7331 145.286 79.0914V98.3657C145.286 98.7086 145.046 98.8971 144.754 98.7771Z" fill="url(#paint7_linear_3655_4998)"/>
<path fill-rule="evenodd" clip-rule="evenodd" d="M71.5597 53.4L72.8397 52.6971L72.4226 52.1543L64.2569 49.0229L66.0112 51.2686L71.5597 53.4ZM65.6055 51.4286L65.6683 55.84L64.4226 56.5714L63.9655 55.9543L63.874 49.2343L65.6055 51.4286ZM64.074 63.9143L63.9826 57.1714L64.4283 56.9086L65.7026 58.6229L65.7655 63.0743L64.074 63.9143ZM72.6397 67.6971L64.4912 64.48L66.2055 63.5771L71.754 65.76L73.0683 67.4743L72.6397 67.6971ZM71.1426 60.1714L71.9769 59.6971L71.1197 58.5429L65.8397 56.4914L64.9826 56.9714L65.8626 58.1143L71.1426 60.1714Z" fill="white"/>
<path fill-rule="evenodd" clip-rule="evenodd" d="M83.1083 56.64L81.8283 57.3543L77.0626 55.52L75.7255 53.8057L76.1541 53.5943L82.6912 56.0971L83.1083 56.64ZM76.6341 55.6857L75.3598 54.0171L74.9141 54.2229L74.9998 60.2571L75.4569 60.8743L76.6969 60.1371L76.6341 55.6857ZM75.0169 61.4857L75.1083 68.3029L75.5655 68.84L76.8112 68.1486L76.7369 62.9314L75.4626 61.2171L75.0169 61.4857ZM82.1712 64.48L83.0055 64L82.1483 62.84L76.8683 60.7886L76.0169 61.28L76.8912 62.4229L82.1712 64.48ZM84.1483 72.2343L82.4341 71.1314L79.0055 64.2229L80.1483 64.1486L80.7198 64.6L84.3083 71.7371L84.1483 72.2343ZM84.0112 63.7886L83.9255 57.7143L83.4683 57.1086L82.2226 57.8171L82.2855 62.2857L83.5598 64.0571L84.0112 63.7886Z" fill="white"/>
<path fill-rule="evenodd" clip-rule="evenodd" d="M94.3886 60.9657L93.0915 61.7143L88.3258 59.88L86.9886 58.1657L87.4172 57.9429L93.9543 60.4514L94.3886 60.9657ZM87.9143 60.0286L86.6401 58.3486L86.1943 58.5543L86.2801 64.64L86.7372 65.2629L87.9772 64.5143L87.9143 60.0286ZM86.2915 65.8914L86.3886 72.7486L86.8572 73.3143L88.0858 72.6286L88.0172 67.3714L86.7429 65.6229L86.2915 65.8914ZM93.4686 68.88L94.3029 68.3943L93.4458 67.2343L88.1658 65.1886L87.3143 65.6857L88.1886 66.8286L93.4686 68.88ZM95.4458 76.6914L93.7315 75.5886L90.3029 68.6343L91.4458 68.5543L92.0458 69.0114L95.6343 76.1943L95.4458 76.6914ZM95.3086 68.1543L95.2286 62.0343L94.7715 61.4914L93.5258 62.2114L93.5886 66.7143L94.8629 68.4286L95.3086 68.1543Z" fill="white"/>
<path fill-rule="evenodd" clip-rule="evenodd" d="M105.657 65.2914L104.377 66.0229L99.6118 64.1943L98.2746 62.48L98.7032 62.2571L105.24 64.76L105.657 65.2914ZM99.1946 64.3886L97.926 62.6743L97.4746 62.9086L97.5603 69.04L98.0175 69.6686L99.2575 68.9086L99.1946 64.3886ZM97.5718 70.2857L97.6575 76.4571L98.1203 77.0457L99.3603 76.3371L99.2975 71.7657L98.0232 70.0114L97.5718 70.2857ZM98.9146 78.0686L105.452 80.6457L105.863 80.3714L104.543 78.6571L99.7832 76.7886L98.4803 77.4971L98.9146 78.0686ZM106.492 66.36L106.577 72.5257L106.126 72.8057L104.852 71.0914L104.795 66.5543L106.035 65.8229L106.492 66.36ZM104.955 78.5143L106.229 80.2286L106.675 80.0229L106.589 73.7886L106.132 73.16L104.892 73.9429L104.955 78.5143Z" fill="white"/>
<path fill-rule="evenodd" clip-rule="evenodd" d="M116.743 69.5543L115.428 70.2857L110.668 68.4571L109.331 66.7429L109.76 66.52L116.297 69.0229L116.743 69.5543ZM110.268 68.6343L108.994 66.92L108.571 67.1371L108.628 73.3429L109.091 73.9771L110.331 73.2057L110.268 68.6343ZM108.646 74.5714L108.743 81.5543L109.2 82.1257L110.44 81.4057L110.371 76.0629L109.097 74.2971L108.646 74.5714ZM115.823 77.5829L116.657 77.0857L115.8 75.9257L110.52 73.88L109.668 74.3886L110.543 75.5314L115.823 77.5829ZM117.8 85.5086L116.086 84.4L112.657 77.3543L113.8 77.2686L114.4 77.7257L117.983 85L117.8 85.5086ZM117.663 76.8343L117.583 70.6171L117.126 70.0571L115.88 70.7943L115.943 75.3657L117.217 77.1143L117.663 76.8343Z" fill="white"/>
<path d="M39.943 140.72C40.9653 141.28 42.0512 141.716 43.1772 142.017C44.6344 142.326 44.5201 143.229 43.3372 143.286C42.1544 143.343 37.1487 143.674 37.183 142.389C37.1713 141.667 37.4638 140.975 37.9887 140.48L39.943 140.72Z" fill="#30343A"/>
<path d="M26.7369 140.303C27.7994 140.876 28.9277 141.317 30.0969 141.617C31.6055 141.931 31.4912 142.869 30.2683 142.931C29.0455 142.994 23.8683 143.383 23.8912 142.046C23.8759 141.302 24.1721 140.585 24.7083 140.069L26.7369 140.303Z" fill="#30343A"/>
<path d="M25.0853 102.229L24.0967 140.366C25.0682 140.653 26.1023 140.653 27.0738 140.366L35.9595 103.52L25.1024 102.229" fill="#255299"/>
<path d="M38.5713 102.4C38.5713 102.4 40.1427 119.451 40.3255 140.686C40.3255 140.686 38.5027 141.611 37.0055 141.257C37.0055 141.257 27.2913 102.166 28.8513 101.646L38.5713 102.4Z" fill="#2A60B7"/>
<path d="M35.4284 72.6572C35.5427 72.6572 39.2399 77.72 34.6341 79.48V81.1429L30.5713 80.9771L31.1941 78.6914L31.5656 74.2514L35.4284 72.6572Z" fill="#FEC6BD"/>
<path d="M29.6683 80.8C28.3832 80.7684 27.1249 81.171 26.0969 81.9429C24.6398 83.1943 18.0398 90.28 17.9712 92.0857C17.9026 93.8914 25.0855 102.229 25.0855 102.229L26.7998 99.12C26.7998 99.12 22.7998 93.4972 22.8398 92.52C22.8798 91.5429 26.7998 88.4229 27.7712 88.2857C28.7426 88.1486 29.674 80.8 29.674 80.8" fill="#6DB3FA"/>
<path d="M17.9711 92.1086C17.9083 93.92 25.0854 102.229 25.0854 102.229L26.7997 99.12C26.7997 99.12 22.7997 93.4971 22.8397 92.52C22.8632 92.3721 22.9199 92.2315 23.0054 92.1086L17.9711 92.1086Z" fill="url(#paint8_linear_3655_4998)"/>
<path d="M30.8571 79.0629C30.8571 79.0629 26.6228 76.5257 28.5314 73.0457C30.4399 69.5657 32.4514 69.8857 33.0457 69.8629C33.6399 69.84 33.6685 70.1143 34.9085 69.5886C36.1485 69.0629 37.0228 69.5886 37.1942 70.0629C37.3657 70.5371 37.5199 72.1257 35.9257 72.3486C35.5877 72.7831 35.4047 73.3181 35.4057 73.8686C35.4057 74.8343 34.2628 75.1029 33.5657 74.8857C33.1828 74.7657 32.5885 74.44 32.2228 74.8343C31.8571 75.2286 31.7257 76.0686 32.8457 77.1829C32.9552 77.2925 32.9742 77.4633 32.8914 77.5943C32.5714 78.1086 31.2685 79.4286 30.8571 79.0629Z" fill="#37475E"/>
<path d="M34.8572 72.2343C34.8572 72.2343 33.9201 71.3086 33.1772 71.8114C32.4344 72.3143 33.9772 73.0114 34.6287 72.9543L34.8572 72.2343Z" fill="#FEC6BD"/>
<path d="M29.6682 80.8L26.5482 88.9029L25.0854 102.229C25.063 102.44 25.2033 102.635 25.4111 102.68C26.9996 103.04 33.4454 104.343 38.2625 103.131C38.4456 103.082 38.5724 102.915 38.5711 102.726V87.7143C38.5711 87.7143 48.5196 81.1429 48.5139 77.9314C48.5139 76.7143 46.8968 74.7029 34.7996 71.9943C34.7837 71.9851 34.7641 71.9851 34.7482 71.9943L34.0968 73.0057C34.0894 73.0122 34.0852 73.0216 34.0852 73.0314C34.0852 73.0413 34.0894 73.0506 34.0968 73.0572C34.7082 73.2914 42.0396 76.08 42.1482 77.0572C42.2396 77.8914 37.8854 79.7314 36.0854 80.4572C35.5944 80.6526 35.0709 80.7535 34.5425 80.7543L29.6682 80.8Z" fill="#6DB3FA"/>
<path d="M34.7031 82.68C34.3888 84.0171 33.7945 83.9314 32.9888 85.5371C32.1831 87.1429 29.2116 87.9429 27.9031 87.7829C26.5945 87.6229 25.9088 86.6 24.5945 86.1314C23.2802 85.6629 23.1031 85.1029 22.6002 84.0457C21.7031 82.1371 23.8745 81.8571 23.4688 79.7714C23.0631 77.6857 24.6859 77.2743 25.7145 76.4971C26.7431 75.72 26.7488 74.2857 26.6345 73.1429C26.6195 71.6947 27.5161 70.3934 28.8745 69.8914C30.5368 69.4052 32.3036 69.4052 33.9659 69.8914C33.5716 69.9543 31.5831 75.6057 31.5831 75.6057C32.0002 75.9429 32.5659 78.08 32.9145 77.56C32.9637 77.4947 32.9805 77.4106 32.9602 77.3314C33.043 77.5875 33.0722 77.8579 33.0459 78.1257C32.9202 78.9371 32.7373 79.2229 33.3602 79.9371C33.9831 80.6514 35.0116 81.3371 34.7031 82.68Z" fill="#37475E"/>
<path d="M48.5142 77.9314C48.5142 76.7143 46.897 74.6972 34.7542 71.9886L34.0627 73.0686C34.0627 73.0686 42.0627 76.0572 42.1542 77.1029C42.2456 77.9372 37.8913 79.7772 36.0913 80.5029C35.6004 80.6983 35.0769 80.7992 34.5485 80.8H29.6685L28.8799 82.8572L38.5942 87.6914C39.3027 87.2286 48.5199 81.0229 48.5142 77.9314Z" fill="url(#paint9_linear_3655_4998)"/>
<path d="M26.5482 88.9029L25.0854 102.229C25.063 102.44 25.2033 102.635 25.4111 102.68C26.9996 103.04 33.4454 104.343 38.2625 103.131C38.4456 103.082 38.5724 102.915 38.5711 102.726V87.7143L38.6168 87.6857L28.9025 82.8514L26.5482 88.9029Z" fill="url(#paint10_linear_3655_4998)"/>
<path d="M60.154 90.6857L48.5368 97.1429C48.2024 97.3292 47.9607 97.6464 47.8696 98.0182C47.7785 98.3901 47.8464 98.7831 48.0568 99.1029L53.9997 108.229C54.1913 108.525 54.4938 108.733 54.8396 108.805C55.1854 108.877 55.5456 108.807 55.8397 108.611L68.9197 100L61.4568 90.9371C61.1419 90.547 60.5915 90.4408 60.154 90.6857Z" fill="url(#paint11_linear_3655_4998)"/>
<path d="M60.1544 90.4286L48.5372 96.9086C48.2061 97.0951 47.9668 97.4101 47.8759 97.7791C47.785 98.1481 47.8506 98.5382 48.0572 98.8571L54.0001 108C54.1917 108.297 54.4942 108.504 54.84 108.576C55.1858 108.648 55.546 108.578 55.8401 108.383L68.9201 99.7657L61.4572 90.7029C61.1487 90.3048 60.5972 90.1887 60.1544 90.4286Z" fill="url(#paint12_linear_3655_4998)"/>
<path d="M60.3027 90.9486L48.9199 97.3029C48.7049 97.4218 48.5489 97.6247 48.4893 97.8631C48.4297 98.1015 48.4719 98.3539 48.6056 98.56L54.5427 107.651C54.7949 108.028 55.3008 108.137 55.6856 107.897L68.1027 99.7143L60.9999 91.0857C60.8276 90.8835 60.5388 90.8267 60.3027 90.9486Z" fill="url(#paint13_linear_3655_4998)"/>
<path d="M67.1883 85.7143C66.9927 87.3125 66.8973 88.9213 66.9026 90.5314C66.9768 92.4743 68.1997 92.6914 69.4226 92.9771L69.7826 96.9771L73.4454 95.9714C73.4454 95.9714 73.8797 88.4914 73.6626 86.9829C73.4454 85.4743 67.1883 85.7143 67.1883 85.7143Z" fill="#FEC6BD"/>
<path d="M67.8403 87.3314C67.5285 86.7285 67.1014 86.1926 66.5831 85.7543C65.8231 85.1829 66.0746 84.3829 67.4803 83.7371C69.5022 83.0049 71.706 82.9428 73.766 83.56C75.7431 84.24 76.246 86.3257 76.3203 87.2629C76.3946 88.2 75.2746 88.9143 74.9888 89.7429C74.7031 90.5714 74.5946 92.2229 73.9088 92.44C73.2231 92.6571 71.1774 92.9086 70.7088 92.4743C70.2937 91.9093 69.9787 91.2773 69.7774 90.6057C69.7774 90.6057 70.4231 89.7086 70.0288 89.2743C69.6346 88.84 68.6574 89.0229 68.5546 89.4914C68.4517 89.96 69.4517 92.2571 68.9488 93.16C68.446 94.0629 66.8574 93.0514 66.8574 92.5714C66.8574 92.0914 67.6117 91.9257 67.8631 91.2057C68.1146 90.4857 68.2688 88.3771 67.8403 87.3314Z" fill="#37475E"/>
<path d="M68.6289 97.08C68.6289 97.08 67.4861 94.9943 66.4347 94.3829C65.3832 93.7714 64.2804 94.0914 64.1489 94.5257C64.0175 94.96 67.7089 97.5429 67.7089 97.5429L68.6289 97.08Z" fill="#FEC6BD"/>
<path d="M60.2511 106.137L59.714 107.503L53.3483 103.657C53.3483 103.657 52.7026 101 52.2054 101.069C51.7083 101.137 51.954 102.509 51.954 102.509C51.954 102.509 49.9368 101.68 49.3997 101.429C49.3997 101.429 49.0397 103.589 50.4454 104.411C51.8511 105.234 52.314 104.594 53.2111 105.206C54.1083 105.817 58.1368 110.811 59.8283 111.171C61.5197 111.531 63.3483 107.434 63.3483 107.434L60.2511 106.137Z" fill="#FEC6BD"/>
<path d="M62.8057 121.063C62.9298 126.125 63.3112 131.177 63.9485 136.2C64.9199 143.246 65.9599 148.531 65.9999 150.04H70.5714C70.5714 150.04 72.0457 137.709 72.1885 132.063C72.1885 132.063 78.7314 125.846 79.2742 118.509L64.4171 113.04L62.8057 121.063Z" fill="#2A60B7"/>
<path d="M72.1885 132.063C72.1885 132.063 74.3085 136.811 74.9599 140.48C75.6113 144.149 75.9313 147.023 75.9313 147.023H79.5256C80.0687 142.561 80.2845 138.065 80.1713 133.571C79.9199 126.96 79.2742 118.509 79.2742 118.509L72.1885 132.063Z" fill="#255299"/>
<path d="M72.1885 132.063C72.1885 132.063 74.3085 136.811 74.9599 140.48C75.6113 144.149 75.9313 147.023 75.9313 147.023H79.5256C80.0687 142.561 80.2845 138.065 80.1713 133.571C79.9199 126.96 79.2742 118.509 79.2742 118.509L72.1885 132.063Z" fill="url(#paint14_linear_3655_4998)"/>
<path d="M67.0859 150.006L67.3717 155.149L69.2402 155.074L69.7431 149.971L67.0859 150.006Z" fill="#FEC6BD"/>
<path d="M67.3718 155.149C66.359 155.597 65.2963 155.924 64.2061 156.12C62.8061 156.297 62.8404 157.16 63.9546 157.303C65.0689 157.446 69.7832 158.166 69.8518 156.943C69.919 156.262 69.6972 155.584 69.2404 155.074L67.3718 155.149Z" fill="#30343A"/>
<path d="M76.749 146.8L76.9947 151.149L78.5776 151.091L79.0005 146.771L76.749 146.8Z" fill="#FEC6BD"/>
<path d="M76.994 151.149C76.1385 151.528 75.2407 151.804 74.3197 151.971C73.1312 152.126 73.1769 152.851 74.1026 152.977C75.0283 153.103 79.034 153.703 79.0912 152.669C79.1487 152.094 78.9621 151.522 78.5769 151.091L76.994 151.149Z" fill="#30343A"/>
<path d="M71.0741 94.5943C72.4283 94.2514 76.5769 93.6629 78.5026 94.3086C80.4283 94.9543 82.5026 96.72 82.0283 100.171C81.5541 103.623 79.2569 105.097 78.5026 107.903C77.7483 110.709 77.9998 111.137 78.7541 113.331C79.5083 115.526 79.7255 118.183 79.2969 118.509C78.8683 118.834 71.2969 122.211 68.0741 121.6C64.8512 120.989 65.0226 116.749 64.4112 116.749C63.7998 116.749 63.2683 121.023 62.8283 121.063C62.3883 121.103 63.3998 111.497 63.8683 109.126L59.9141 105.886C59.9141 105.886 61.0569 99.9543 64.8741 97.5086C68.6912 95.0629 68.9541 95.1371 71.0741 94.5943Z" fill="#6DB3FA"/>
<path d="M68.0514 121.6C64.8171 120.989 64.9999 116.749 64.3885 116.749C63.7771 116.749 63.2456 121.023 62.8056 121.063C62.3656 121.103 63.3771 111.497 63.8456 109.126L68.7485 104.371C68.7485 104.371 71.2914 122.211 68.0514 121.6Z" fill="url(#paint15_linear_3655_4998)"/>
<path d="M14.1204 43.1371C19.2711 43.128 23.865 46.3755 25.5747 51.2343C27.2843 56.093 25.7362 61.5017 21.7147 64.72L22.9661 69.9886C23.0018 70.1493 22.9292 70.3146 22.7867 70.397C22.6441 70.4793 22.4646 70.4597 22.3432 70.3486L18.3775 66.6114C13.8345 68.3078 8.71757 67.1328 5.36964 63.6245C2.02172 60.1162 1.08732 54.9499 2.99427 50.4912C4.90121 46.0324 9.28237 43.1396 14.1318 43.1371H14.1204Z" fill="#FFD215"/>
<path fill-rule="evenodd" clip-rule="evenodd" d="M14.1254 57.2057C14.3254 57.2224 14.5139 57.1098 14.594 56.9257C14.6956 56.6485 14.7553 56.3577 14.7711 56.0629L14.9711 53.0743C15.0054 52.4914 15.0225 52.0743 15.0225 51.8229C15.0398 51.5298 14.9436 51.2412 14.754 51.0171C14.5692 50.8213 14.3087 50.7151 14.0397 50.7257C13.7478 50.6908 13.4644 50.8382 13.3254 51.0971C13.1874 51.4358 13.125 51.8005 13.1425 52.1657C13.1475 52.4446 13.1665 52.723 13.1997 53L13.4625 56.0743C13.4758 56.3632 13.5396 56.6475 13.6511 56.9143C13.7349 57.0991 13.9226 57.2145 14.1254 57.2057ZM13.1711 59.2286C13.1566 59.4876 13.2594 59.7394 13.4511 59.9143H13.434C13.6185 60.0803 13.8602 60.1683 14.1082 60.16C14.3522 60.1643 14.5888 60.0765 14.7711 59.9143C14.9635 59.7399 15.0664 59.4878 15.0511 59.2286C15.0578 58.9815 14.9603 58.743 14.7825 58.5714C14.6093 58.3918 14.3691 58.2924 14.1197 58.2971C13.867 58.2933 13.6236 58.3923 13.4454 58.5714C13.266 58.7425 13.1666 58.9808 13.1711 59.2286Z" fill="white"/>
<path d="M128.84 130.051H99.5312V131.074C99.5988 131.515 99.8945 131.886 100.308 132.051L113.348 138.954C114.393 139.462 115.617 139.443 116.646 138.903L128.24 131.617C128.463 131.482 128.64 131.283 128.748 131.046H128.834L128.84 130.051Z" fill="#FFD215"/>
<path d="M113.354 138L100.314 131.103C99.3483 130.589 99.2626 129.743 100.12 129.2L111.714 121.92C112.743 121.375 113.971 121.355 115.017 121.869L128.057 128.766C129.017 129.274 129.103 130.126 128.245 130.663L116.651 137.949C115.623 138.488 114.399 138.507 113.354 138Z" fill="#FFE63E"/>
<path d="M122.286 129.011L116.126 109.583C115.854 108.73 115.061 108.15 114.166 108.15C113.27 108.15 112.478 108.73 112.206 109.583L106.051 129.011C105.377 131.16 109.686 133.091 114.166 133.091C118.646 133.091 122.983 131.16 122.286 129.011Z" fill="url(#paint16_linear_3655_4998)"/>
<path d="M122.286 129.011L121.503 126.537C122.074 128.457 118.183 130.177 114.166 130.177C110.149 130.177 106.291 128.463 106.834 126.537L106.051 129.011C105.377 131.16 109.686 133.091 114.166 133.091C118.646 133.091 122.983 131.16 122.286 129.011Z" fill="url(#paint17_linear_3655_4998)"/>
<path d="M120.572 123.583L119.829 121.217C120.257 122.731 117.343 124.074 114.177 124.074C111.012 124.074 108.092 122.743 108.52 121.217L107.789 123.549C107.257 125.263 110.646 126.754 114.177 126.754C117.709 126.754 121.109 125.274 120.572 123.583Z" fill="url(#paint18_linear_3655_4998)"/>
<path d="M118.966 118.514L118.332 116.423C118.652 117.566 116.549 118.566 114.183 118.566C111.817 118.566 109.743 117.554 110.063 116.423L109.406 118.514C109.012 119.777 111.543 120.914 114.183 120.914C116.823 120.914 119.366 119.777 118.966 118.514Z" fill="url(#paint19_linear_3655_4998)"/>
<path d="M117.48 113.84L116.972 112.16C117.195 112.943 115.829 113.64 114.183 113.64C112.538 113.64 111.189 112.943 111.412 112.16L110.892 113.84C110.618 114.709 112.366 115.491 114.183 115.491C116 115.491 117.755 114.709 117.48 113.84Z" fill="url(#paint20_linear_3655_4998)"/>
<path d="M154.286 145.143H127.188V146.086C127.247 146.493 127.519 146.838 127.903 146.989L139.96 153.371C140.926 153.844 142.06 153.827 143.011 153.326L153.737 146.589C153.939 146.472 154.101 146.297 154.2 146.086H154.286V145.143Z" fill="#FFD215"/>
<path d="M139.966 152.503L127.909 146.126C127.018 145.651 126.938 144.863 127.732 144.366L138.458 137.629C139.407 137.128 140.539 137.111 141.503 137.583L153.56 143.966C154.458 144.434 154.538 145.223 153.743 145.72L143.018 152.457C142.066 152.958 140.932 152.975 139.966 152.503Z" fill="#FFE63E"/>
<path d="M148.246 144.194L142.532 126.246C142.285 125.453 141.551 124.912 140.72 124.912C139.89 124.912 139.156 125.453 138.909 126.246L133.195 144.194C132.572 146.177 136.555 147.96 140.703 147.96C144.852 147.96 148.875 146.177 148.246 144.194Z" fill="url(#paint21_linear_3655_4998)"/>
<path d="M148.246 144.194L147.52 141.909C148.023 143.686 144.452 145.274 140.737 145.274C137.023 145.274 133.452 143.686 133.954 141.909L133.229 144.194C132.606 146.177 136.589 147.96 140.737 147.96C144.886 147.96 148.874 146.177 148.246 144.194Z" fill="url(#paint22_linear_3655_4998)"/>
<path d="M146.645 139.171L145.96 136.983C146.36 138.383 143.674 139.646 140.737 139.646C137.8 139.646 135.102 138.417 135.502 137.017L134.857 139.171C134.365 140.737 137.502 142.137 140.765 142.137C144.028 142.137 147.142 140.731 146.645 139.171Z" fill="url(#paint23_linear_3655_4998)"/>
<path d="M145.143 134.486L144.571 132.571C144.868 133.617 142.926 134.554 140.737 134.554C138.548 134.554 136.628 133.617 136.926 132.571L136.314 134.509C135.948 135.651 138.297 136.726 140.737 136.726C143.177 136.726 145.526 135.651 145.143 134.486Z" fill="url(#paint24_linear_3655_4998)"/>
<path d="M143.783 130.16L143.314 128.611C143.52 129.331 142.245 129.977 140.737 129.977C139.228 129.977 137.965 129.331 138.171 128.606L137.691 130.16C137.434 130.966 139.051 131.691 140.737 131.691C142.423 131.691 144.04 130.966 143.783 130.16Z" fill="url(#paint25_linear_3655_4998)"/>
<defs>
<linearGradient id="paint0_linear_3655_4998" x1="128.742" y1="20.8803" x2="113.428" y2="20.2207" gradientUnits="userSpaceOnUse">
<stop stop-color="#CFECFF"/>
<stop offset="1" stop-color="#F6FCFF"/>
</linearGradient>
<linearGradient id="paint1_linear_3655_4998" x1="124.059" y1="24.1597" x2="123.893" y2="49.1848" gradientUnits="userSpaceOnUse">
<stop stop-color="#CFECFF"/>
<stop offset="1" stop-color="#F6FCFF"/>
</linearGradient>
<linearGradient id="paint2_linear_3655_4998" x1="15.8939" y1="53.8426" x2="107.852" y2="170.772" gradientUnits="userSpaceOnUse">
<stop stop-color="#D6E9FF"/>
<stop offset="1" stop-color="#DAEBFF"/>
<stop offset="1" stop-color="#E8F2FF"/>
</linearGradient>
<linearGradient id="paint3_linear_3655_4998" x1="15.8939" y1="53.8426" x2="107.852" y2="170.772" gradientUnits="userSpaceOnUse">
<stop stop-color="#93C3FF" stop-opacity="0.01"/>
<stop offset="0.37" stop-color="#93C3FF" stop-opacity="0.01"/>
<stop offset="0.59" stop-color="#93C3FF"/>
<stop offset="1" stop-color="#DAEBFF"/>
<stop offset="1" stop-color="#DCEBFF"/>
</linearGradient>
<linearGradient id="paint4_linear_3655_4998" x1="186.988" y1="68.4843" x2="88.8334" y2="-10.7529" gradientUnits="userSpaceOnUse">
<stop stop-color="white" stop-opacity="0.4"/>
<stop offset="1" stop-color="white" stop-opacity="0.01"/>
</linearGradient>
<linearGradient id="paint5_linear_3655_4998" x1="-14.3792" y1="66.6132" x2="93.1167" y2="170.774" gradientUnits="userSpaceOnUse">
<stop stop-color="#E5F2FF"/>
<stop offset="1" stop-color="#F2F9FF"/>
</linearGradient>
<linearGradient id="paint6_linear_3655_4998" x1="34.9513" y1="44.7359" x2="32.0436" y2="49.498" gradientUnits="userSpaceOnUse">
<stop stop-color="#70AEFB"/>
<stop offset="1" stop-color="#C1DFFF"/>
</linearGradient>
<linearGradient id="paint7_linear_3655_4998" x1="145.337" y1="102.08" x2="145.337" y2="79.3714" gradientUnits="userSpaceOnUse">
<stop stop-color="#6DB2F9"/>
<stop offset="1" stop-color="#2F82E7"/>
</linearGradient>
<linearGradient id="paint8_linear_3655_4998" x1="26.8397" y1="95.0206" x2="23.0968" y2="95.0206" gradientUnits="userSpaceOnUse">
<stop stop-color="#133E90" stop-opacity="0.4"/>
<stop offset="1" stop-color="#133E90" stop-opacity="0.01"/>
</linearGradient>
<linearGradient id="paint9_linear_3655_4998" x1="45.9372" y1="87.0369" x2="44.1655" y2="81.7082" gradientUnits="userSpaceOnUse">
<stop stop-color="#133E90" stop-opacity="0.4"/>
<stop offset="1" stop-color="#133E90" stop-opacity="0.01"/>
</linearGradient>
<linearGradient id="paint10_linear_3655_4998" x1="42.0691" y1="87.2943" x2="35.0359" y2="87.4494" gradientUnits="userSpaceOnUse">
<stop stop-color="#133E90" stop-opacity="0.4"/>
<stop offset="1" stop-color="#133E90" stop-opacity="0.01"/>
</linearGradient>
<linearGradient id="paint11_linear_3655_4998" x1="72.4355" y1="93.5599" x2="52.603" y2="87.7645" gradientUnits="userSpaceOnUse">
<stop stop-color="#6DB2F9"/>
<stop offset="1" stop-color="#2F82E7"/>
</linearGradient>
<linearGradient id="paint12_linear_3655_4998" x1="47.8287" y1="108.587" x2="68.9201" y2="108.587" gradientUnits="userSpaceOnUse">
<stop stop-color="#70AEFB"/>
<stop offset="1" stop-color="#C1DFFF"/>
</linearGradient>
<linearGradient id="paint13_linear_3655_4998" x1="48.4627" y1="108.035" x2="68.1199" y2="108.035" gradientUnits="userSpaceOnUse">
<stop stop-color="#E5F2FF"/>
<stop offset="1" stop-color="#F2F9FF"/>
</linearGradient>
<linearGradient id="paint14_linear_3655_4998" x1="72.5851" y1="138.631" x2="76.7758" y2="138.737" gradientUnits="userSpaceOnUse">
<stop stop-color="#133E91" stop-opacity="0.4"/>
<stop offset="1" stop-color="#133E91" stop-opacity="0.01"/>
</linearGradient>
<linearGradient id="paint15_linear_3655_4998" x1="120.198" y1="107.278" x2="117.112" y2="107.518" gradientUnits="userSpaceOnUse">
<stop stop-color="#133E91" stop-opacity="0.4"/>
<stop offset="1" stop-color="#133E91" stop-opacity="0.01"/>
</linearGradient>
<linearGradient id="paint16_linear_3655_4998" x1="105.994" y1="133.098" x2="122.371" y2="133.098" gradientUnits="userSpaceOnUse">
<stop stop-color="#FFD215"/>
<stop offset="0.55" stop-color="#FFDF00"/>
<stop offset="1" stop-color="#FFD215"/>
</linearGradient>
<linearGradient id="paint17_linear_3655_4998" x1="105.994" y1="133.088" x2="122.371" y2="133.088" gradientUnits="userSpaceOnUse">
<stop stop-color="#37475E" stop-opacity="0.8"/>
<stop offset="1" stop-color="#37475E"/>
</linearGradient>
<linearGradient id="paint18_linear_3655_4998" x1="107.737" y1="126.774" x2="120.629" y2="126.774" gradientUnits="userSpaceOnUse">
<stop stop-color="#37475E" stop-opacity="0.8"/>
<stop offset="1" stop-color="#37475E"/>
</linearGradient>
<linearGradient id="paint19_linear_3655_4998" x1="109.366" y1="120.914" x2="119.006" y2="120.914" gradientUnits="userSpaceOnUse">
<stop stop-color="#37475E" stop-opacity="0.8"/>
<stop offset="1" stop-color="#37475E"/>
</linearGradient>
<linearGradient id="paint20_linear_3655_4998" x1="110.863" y1="115.494" x2="117.509" y2="115.494" gradientUnits="userSpaceOnUse">
<stop stop-color="#37475E" stop-opacity="0.8"/>
<stop offset="1" stop-color="#37475E"/>
</linearGradient>
<linearGradient id="paint21_linear_3655_4998" x1="133.166" y1="147.935" x2="148.309" y2="147.935" gradientUnits="userSpaceOnUse">
<stop stop-color="#FFD215"/>
<stop offset="0.55" stop-color="#FFDF00"/>
<stop offset="1" stop-color="#FFD215"/>
</linearGradient>
<linearGradient id="paint22_linear_3655_4998" x1="133.166" y1="147.956" x2="148.309" y2="147.956" gradientUnits="userSpaceOnUse">
<stop stop-color="#37475E" stop-opacity="0.8"/>
<stop offset="1" stop-color="#37475E"/>
</linearGradient>
<linearGradient id="paint23_linear_3655_4998" x1="134.777" y1="142.143" x2="146.697" y2="142.143" gradientUnits="userSpaceOnUse">
<stop stop-color="#37475E" stop-opacity="0.8"/>
<stop offset="1" stop-color="#37475E"/>
</linearGradient>
<linearGradient id="paint24_linear_3655_4998" x1="136.28" y1="136.707" x2="145.194" y2="136.707" gradientUnits="userSpaceOnUse">
<stop stop-color="#37475E" stop-opacity="0.8"/>
<stop offset="1" stop-color="#37475E"/>
</linearGradient>
<linearGradient id="paint25_linear_3655_4998" x1="137.663" y1="131.692" x2="143.811" y2="131.692" gradientUnits="userSpaceOnUse">
<stop stop-color="#37475E" stop-opacity="0.8"/>
<stop offset="1" stop-color="#37475E"/>
</linearGradient>
</defs>
</svg>
