<svg width="44" height="44" viewBox="0 0 44 44" fill="none" xmlns="http://www.w3.org/2000/svg">
<g clip-path="url(#clip0_4540_4490)">
<path d="M25.3461 29.1212L16.5361 36.4912L17.0861 26.6812L25.3461 27.1712V29.1212Z" fill="#2A60B7"/>
<path d="M25.3461 29.1212L16.5361 36.4912L17.0861 26.6812L25.3461 27.1712V29.1212Z" fill="#4980E2"/>
<path d="M33.3765 38.2312L17.0865 26.6812L11.7765 24.2312L1.59655 20.7412C1.23397 20.5813 1 20.2224 1 19.8262C1 19.4299 1.23397 19.0711 1.59655 18.9112L40.1765 3.63119C41.5265 3.10119 43.3365 3.36119 42.6465 5.70119L36.0865 37.2312C35.9499 37.7944 35.5417 38.2526 34.998 38.4532C34.4543 38.6539 33.8463 38.5706 33.3765 38.2312Z" fill="#6DB3FA"/>
<path d="M33.3765 38.2312L17.0865 26.6812L11.7765 24.2312L1.59655 20.7412C1.23397 20.5813 1 20.2224 1 19.8262C1 19.4299 1.23397 19.0711 1.59655 18.9112L40.1765 3.63119C41.5265 3.10119 43.3365 3.36119 42.6465 5.70119L36.0865 37.2312C35.9499 37.7944 35.5417 38.2526 34.998 38.4532C34.4543 38.6539 33.8463 38.5706 33.3765 38.2312Z" fill="url(#paint0_linear_4540_4490)"/>
<path d="M17.0864 26.6812L16.7264 36.0812C16.7265 36.3669 16.5152 36.6086 16.232 36.6465C15.9489 36.6844 15.6814 36.5069 15.6064 36.2312L11.7764 24.2312L34.5664 10.1412C34.7413 10.0153 34.9845 10.0507 35.1164 10.2212C35.1795 10.3045 35.2066 10.4096 35.1915 10.5129C35.1765 10.6163 35.1206 10.7094 35.0364 10.7712L17.0864 26.6812Z" fill="#6098FA"/>
</g>
<defs>
<linearGradient id="paint0_linear_4540_4490" x1="41.3965" y1="20.6625" x2="25.1758" y2="22.7722" gradientUnits="userSpaceOnUse">
<stop stop-color="#A9CEFF"/>
<stop offset="1" stop-color="#80BEFF"/>
</linearGradient>
<clipPath id="clip0_4540_4490">
<rect width="44" height="44" fill="white"/>
</clipPath>
</defs>
</svg>
