<svg width="280" height="280" viewBox="0 0 280 280" fill="none" xmlns="http://www.w3.org/2000/svg">
<circle cx="140" cy="137.26" r="135.26" fill="url(#paint0_linear_3157_6812)"/>
<path d="M62.1501 231.19C48.9001 243.36 38.5701 246.51 31.4501 240.53C21.7801 232.42 23.1801 209.9 24.2401 200.59C26.2401 183.18 31.5801 165.51 37.9201 155.59C53.9201 130.46 63.1301 128.76 64.1201 128.66L64.6801 133.66H64.7901C64.7101 133.66 56.7901 135.49 42.2001 158.3C29.4601 178.3 23.0301 226.82 34.7101 236.61C40.7101 241.69 51.1001 234.42 58.7101 227.43C63.1901 223.32 65.4801 228.13 62.1501 231.19Z" fill="url(#paint1_linear_3157_6812)"/>
<path d="M60.8995 222.47L60.2895 222.58C54.9995 191.39 43.6795 161.49 31.5195 146.4L31.9995 146C44.2295 161.17 55.5695 191.19 60.8995 222.47Z" fill="#CCE1FF"/>
<path d="M30.55 140.48C32.25 142.69 32.26 146.98 32.26 146.98C32.26 146.98 28.12 145.87 26.42 143.65C24.72 141.43 25 139.84 26.1 139C27.2 138.16 28.86 138.26 30.55 140.48Z" fill="#CCE1FF"/>
<path d="M33.5599 152.17C36.3099 153.02 38.8699 156.62 38.8699 156.62C38.8699 156.62 34.7299 158.16 31.9799 157.32C29.2299 156.48 28.4799 154.98 28.9099 153.56C29.3399 152.14 30.8099 151.33 33.5599 152.17Z" fill="#CCE1FF"/>
<path d="M38.6005 162.56C41.5405 163.47 44.2905 167.33 44.2905 167.33C44.2905 167.33 39.8505 168.98 36.9005 168.07C33.9505 167.16 33.1505 165.57 33.6205 164.07C34.0905 162.57 35.6505 161.66 38.6005 162.56Z" fill="#CCE1FF"/>
<path d="M41.7598 172.3C44.6698 172.78 47.7598 176.1 47.7598 176.1C47.7598 176.1 43.7598 178.22 40.8598 177.73C37.9598 177.24 36.9898 175.83 37.2398 174.33C37.4898 172.83 38.8498 171.81 41.7598 172.3Z" fill="#CCE1FF"/>
<path d="M46.5603 181.37C49.2803 182.51 51.5603 186.44 51.5603 186.44C51.5603 186.44 47.1803 187.59 44.4603 186.44C41.7403 185.29 41.1303 183.7 41.7203 182.3C42.3103 180.9 43.8403 180.23 46.5603 181.37Z" fill="#CCE1FF"/>
<path d="M50.8004 191.42C53.2804 193.01 54.8004 197.27 54.8004 197.27C54.8004 197.27 50.2904 197.65 47.8004 196.05C45.3104 194.45 45.0004 192.78 45.8004 191.5C46.6004 190.22 48.3304 189.82 50.8004 191.42Z" fill="#CCE1FF"/>
<path d="M53.6397 202.28C56.1197 203.87 57.6397 208.13 57.6397 208.13C57.6397 208.13 53.1297 208.5 50.6397 206.91C48.1497 205.32 47.8297 203.64 48.6397 202.36C49.4497 201.08 51.1597 200.68 53.6397 202.28Z" fill="#CCE1FF"/>
<path d="M41.1501 147.49C40.2701 150.35 36.5301 153.01 36.5301 153.01C36.5301 153.01 34.9301 148.71 35.8101 145.85C36.6901 142.99 38.2401 142.21 39.7101 142.67C41.1801 143.13 42.0001 144.64 41.1501 147.49Z" fill="#CCE1FF"/>
<path d="M47.2501 159.23C46.1801 161.76 42.5001 163.83 42.5001 163.83C42.5001 163.83 41.5001 159.75 42.5001 157.22C43.5001 154.69 45.0701 154.13 46.3701 154.69C47.6701 155.25 48.3301 156.71 47.2501 159.23Z" fill="#CCE1FF"/>
<path d="M53.0899 169.84C51.0899 172.06 46.6299 172.92 46.6299 172.92C46.6299 172.92 46.9599 168.37 48.9299 166.15C50.8999 163.93 52.6299 163.86 53.7799 164.88C54.9299 165.9 55.0599 167.62 53.0899 169.84Z" fill="#CCE1FF"/>
<path d="M56.4297 178.67C54.4297 180.89 49.9697 181.76 49.9697 181.76C49.9697 181.76 50.2997 177.21 52.2797 174.98C54.2597 172.75 55.9697 172.7 57.1197 173.72C58.2697 174.74 58.3997 176.45 56.4297 178.67Z" fill="#CCE1FF"/>
<path d="M59.4698 188.29C57.6598 190.65 53.2598 191.84 53.2598 191.84C53.2598 191.84 53.2598 187.27 55.0498 184.91C56.8398 182.55 58.5698 182.36 59.7898 183.29C61.0098 184.22 61.2698 185.93 59.4698 188.29Z" fill="#CCE1FF"/>
<path d="M62.4803 198.4C60.6803 200.76 56.2803 201.95 56.2803 201.95C56.2803 201.95 56.2803 197.39 58.0703 195.03C59.8603 192.67 61.5903 192.47 62.8103 193.4C64.0303 194.33 64.2903 196 62.4803 198.4Z" fill="#CCE1FF"/>
<path d="M65 209C63.19 211.36 58.79 212.55 58.79 212.55C58.79 212.55 58.79 207.99 60.58 205.63C62.37 203.27 64.1 203.08 65.32 204.01C66.54 204.94 66.8 206.65 65 209Z" fill="#CCE1FF"/>
<path d="M176.2 139.23C165.69 114.76 160 88.44 161.7 72.23L162.21 72.29C160.52 88.47 166.21 114.69 176.68 139.08L176.2 139.23Z" fill="#CCE1FF"/>
<path d="M160.19 67.63C160 70 162 73 162 73C162 73 164.41 70.33 164.6 68C164.79 65.67 163.89 64.65 162.68 64.55C161.47 64.45 160.38 65.29 160.19 67.63Z" fill="#CCE1FF"/>
<path d="M163.41 77.24C161.86 79.09 161.7 82.79 161.7 82.79C161.7 82.79 165.32 81.99 166.87 80.14C168.42 78.29 168.27 76.9 167.32 76.14C166.37 75.38 165 75.39 163.41 77.24Z" fill="#CCE1FF"/>
<path d="M164.6 86.8501C162.93 88.8501 162.76 92.8501 162.76 92.8501C162.76 92.8501 166.64 92.0001 168.3 90.0001C169.96 88.0001 169.81 86.5201 168.78 85.6601C167.75 84.8001 166.26 84.8701 164.6 86.8501Z" fill="#CCE1FF"/>
<path d="M166.81 95.15C164.98 96.82 164.32 100.56 164.32 100.56C164.32 100.56 168.1 100.24 169.93 98.56C171.76 96.88 171.79 95.45 170.93 94.56C170.07 93.67 168.63 93.49 166.81 95.15Z" fill="#CCE1FF"/>
<path d="M167.56 103.74C166.17 105.74 166.38 109.57 166.38 109.57C166.38 109.57 169.99 108.38 171.38 106.34C172.77 104.3 172.48 102.89 171.43 102.17C170.38 101.45 169 101.69 167.56 103.74Z" fill="#CCE1FF"/>
<path d="M169.15 112.75C168.15 115 169 118.75 169 118.75C169 118.75 172.35 116.96 173.37 114.75C174.39 112.54 173.85 111.16 172.69 110.63C171.53 110.1 170.17 110.5 169.15 112.75Z" fill="#CCE1FF"/>
<path d="M172.11 121.69C171.11 123.95 171.95 127.69 171.95 127.69C171.95 127.69 175.3 125.89 176.32 123.64C177.34 121.39 176.81 120.05 175.64 119.53C174.47 119.01 173.13 119.44 172.11 121.69Z" fill="#CCE1FF"/>
<path d="M175.53 130.35C174.53 132.61 175.37 136.35 175.37 136.35C175.37 136.35 178.72 134.55 179.74 132.3C180.76 130.05 180.23 128.71 179.06 128.19C177.89 127.67 176.55 128.1 175.53 130.35Z" fill="#CCE1FF"/>
<path d="M155.93 77.4C157.85 79.01 161.7 79.18 161.7 79.18C161.7 79.18 160.87 75.42 158.94 73.81C157.01 72.2 155.58 72.35 154.74 73.34C153.9 74.33 154 75.79 155.93 77.4Z" fill="#CCE1FF"/>
<path d="M157 88.4599C158.91 89.7399 162.44 89.5299 162.44 89.5299C162.44 89.5299 161.32 86.1699 159.44 84.8899C157.56 83.6099 156.23 83.8899 155.56 84.8899C154.89 85.8899 155.08 87.1699 157 88.4599Z" fill="#CCE1FF"/>
<path d="M157.71 98.59C160.11 99.25 163.66 97.81 163.66 97.81C163.66 97.81 161.35 94.81 158.95 94.09C156.55 93.37 155.3 94.17 154.95 95.41C154.6 96.65 155.3 97.92 157.71 98.59Z" fill="#CCE1FF"/>
<path d="M159.38 106.34C161.78 107 165.38 105.56 165.38 105.56C165.38 105.56 163.08 102.56 160.67 101.84C158.26 101.12 157.03 101.92 156.67 103.16C156.31 104.4 157 105.67 159.38 106.34Z" fill="#CCE1FF"/>
<path d="M161.62 114.49C163.97 115.33 167.62 114.17 167.62 114.17C167.62 114.17 165.54 110.95 163.2 110.11C160.86 109.27 159.55 109.91 159.12 111.11C158.69 112.31 159.28 113.65 161.62 114.49Z" fill="#CCE1FF"/>
<path d="M164.11 123C166.45 123.84 170.11 122.67 170.11 122.67C170.11 122.67 168.04 119.46 165.69 118.61C163.34 117.76 162.05 118.42 161.61 119.61C161.17 120.8 161.76 122.15 164.11 123Z" fill="#CCE1FF"/>
<path d="M177.24 135C177.24 135 176.71 121.77 170.88 117.94C165.05 114.11 160.43 119.51 160.17 112.8C159.91 106.09 159.17 100.1 151.38 100.8C143.59 101.5 141.72 102 139.8 97C137.88 92 135.36 85.68 130.4 90.39C125.44 95.1 127.09 108.67 131.1 116.68C135.11 124.69 143.02 128.34 144.16 132.68C145.3 137.02 145.29 138.25 140.93 140.95C136.57 143.65 138.76 151.66 150.6 155.06C162.44 158.46 177.67 154.88 177.67 154.88L177.24 135Z" fill="url(#paint2_linear_3157_6812)"/>
<path d="M177.13 145.4C177.04 145.4 167.92 142.64 155.62 133.61C155.62 133.61 155.62 133.55 155.62 133.53C153.32 128.76 152.62 113.67 152.62 113.53C152.609 113.389 152.491 113.28 152.35 113.28C152.281 113.283 152.216 113.313 152.169 113.363C152.122 113.414 152.097 113.481 152.1 113.55C152.1 114.15 152.76 127.55 154.87 133.05L154.69 132.92C141.94 123.33 135.26 103.47 135.19 103.27C135.169 103.206 135.124 103.153 135.063 103.123C135.003 103.092 134.933 103.088 134.87 103.11C134.803 103.131 134.747 103.177 134.715 103.239C134.683 103.301 134.678 103.374 134.7 103.44C134.77 103.64 141.49 123.65 154.38 133.34C157.405 135.618 160.553 137.727 163.81 139.66C160.09 143.14 153.17 142.02 153.1 142.01C153.03 141.995 152.958 142.011 152.901 142.053C152.843 142.095 152.807 142.159 152.8 142.23C152.785 142.297 152.8 142.367 152.84 142.422C152.88 142.477 152.942 142.513 153.01 142.52C153.935 142.67 154.872 142.741 155.81 142.73C158.3 142.73 161.9 142.26 164.28 139.94C168.293 142.396 172.561 144.408 177.01 145.94H177.08C177.193 145.941 177.295 145.868 177.33 145.76C177.358 145.686 177.352 145.603 177.313 145.534C177.275 145.464 177.207 145.415 177.13 145.4Z" fill="#CCE1FF"/>
<path d="M64.8703 253.13C64.8703 253.13 53.6403 250.54 50.1103 246.46C44.8603 240.4 43.2203 239.63 37.9803 238.17C32.7403 236.71 30.0603 228.7 36.1603 226.25C42.2603 223.8 35.9903 215.91 32.5103 210.45C29.0303 204.99 31.9803 190.45 38.7403 194.27C45.5003 198.09 42.2103 202.89 47.8903 205.02C53.5703 207.15 58.1203 207.8 59.0003 216.34C59.8803 224.88 66.1603 242.22 66.1603 242.22L64.8703 253.13Z" fill="url(#paint3_linear_3157_6812)"/>
<path d="M37.6703 231.63C41.9944 233.151 46.5284 233.991 51.1103 234.12C43.3003 220 37.6703 203 37.5903 202.81C37.5379 202.647 37.6274 202.473 37.7903 202.42C37.8685 202.392 37.9548 202.397 38.0287 202.435C38.1026 202.473 38.1575 202.54 38.1803 202.62C38.2703 202.88 45.3303 224.18 54.5903 238.79C57.2526 233.744 58.4347 228.049 58.0003 222.36C57.989 222.278 58.0112 222.194 58.062 222.128C58.1127 222.063 58.1878 222.02 58.2703 222.01C58.3531 221.996 58.4381 222.017 58.5047 222.068C58.5712 222.119 58.6131 222.196 58.6203 222.28C59.0907 228.216 57.8335 234.162 55.0003 239.4C56.6342 241.991 58.4877 244.437 60.5403 246.71C60.5989 246.768 60.6319 246.847 60.6319 246.93C60.6319 247.013 60.5989 247.092 60.5403 247.15C60.4839 247.204 60.4082 247.233 60.3303 247.23C60.2425 247.233 60.1579 247.197 60.1003 247.13C56.7691 243.346 53.8835 239.192 51.5003 234.75C46.729 234.646 42.0041 233.789 37.5003 232.21C37.4234 232.181 37.3617 232.122 37.3296 232.046C37.2974 231.971 37.2977 231.885 37.3303 231.81C37.3882 231.678 37.529 231.604 37.6703 231.63Z" fill="#CCE1FF"/>
<path d="M211.1 235.23C210.93 234.89 194.42 200.76 209.98 170.73C222.19 147.16 229.75 121.42 229.23 105.16H229.75C230.27 121.51 222.69 147.35 210.44 170.99C195 200.78 211.44 234.68 211.57 234.99L211.1 235.23Z" fill="#CCE1FF"/>
<path d="M231.58 100.71C231.58 103.05 229.43 105.92 229.43 105.92C229.43 105.92 227.22 103.08 227.2 100.74C227.18 98.4 228.2 97.45 229.36 97.44C230.52 97.43 231.56 98.37 231.58 100.71Z" fill="#CCE1FF"/>
<path d="M227.68 110.06C229.09 112.06 228.99 115.73 228.99 115.73C228.99 115.73 225.43 114.67 223.99 112.73C222.55 110.79 222.82 109.39 223.83 108.66C224.84 107.93 226.26 108.11 227.68 110.06Z" fill="#CCE1FF"/>
<path d="M225.8 119.57C227.31 121.67 227.2 125.64 227.2 125.64C227.2 125.64 223.39 124.5 221.88 122.4C220.37 120.3 220.63 118.83 221.71 118.04C222.79 117.25 224.28 117.47 225.8 119.57Z" fill="#CCE1FF"/>
<path d="M223 127.69C224.7 129.48 225.1 133.26 225.1 133.26C225.1 133.26 221.34 132.66 219.65 130.86C217.96 129.06 218.01 127.63 218.94 126.76C219.87 125.89 221.29 125.89 223 127.69Z" fill="#CCE1FF"/>
<path d="M221.62 136.19C222.86 138.33 222.38 142.1 222.38 142.1C222.38 142.1 218.86 140.65 217.62 138.51C216.38 136.37 216.78 134.99 217.88 134.35C218.98 133.71 220.38 134.05 221.62 136.19Z" fill="#CCE1FF"/>
<path d="M219.38 145.07C220.24 147.39 219.11 151.01 219.11 151.01C219.11 151.01 215.9 149.01 215.04 146.66C214.18 144.31 214.82 143.05 216.04 142.66C217.26 142.27 218.53 142.75 219.38 145.07Z" fill="#CCE1FF"/>
<path d="M215.79 153.77C216.64 156.09 215.51 159.72 215.51 159.72C215.51 159.72 212.3 157.72 211.45 155.37C210.6 153.02 211.22 151.76 212.45 151.32C213.68 150.88 214.94 151.45 215.79 153.77Z" fill="#CCE1FF"/>
<path d="M211.75 162.16C212.61 164.49 211.48 168.16 211.48 168.16C211.48 168.16 208.27 166.16 207.41 163.81C206.55 161.46 207.19 160.2 208.41 159.81C209.63 159.42 210.9 159.84 211.75 162.16Z" fill="#CCE1FF"/>
<path d="M208 170.11C208.86 172.43 207.73 176.06 207.73 176.06C207.73 176.06 204.52 174.06 203.66 171.71C202.8 169.36 203.44 168.1 204.66 167.66C205.88 167.22 207.18 167.79 208 170.11Z" fill="#CCE1FF"/>
<path d="M203.61 180.84C204.98 182.84 204.74 186.68 204.74 186.68C204.74 186.68 201.14 185.47 199.74 183.41C198.34 181.35 198.66 179.96 199.74 179.25C200.82 178.54 202.23 178.79 203.61 180.84Z" fill="#CCE1FF"/>
<path d="M202.43 190.88C203.8 192.94 203.56 196.73 203.56 196.73C203.56 196.73 199.96 195.51 198.56 193.46C197.16 191.41 197.48 190 198.56 189.29C199.64 188.58 201.05 188.83 202.43 190.88Z" fill="#CCE1FF"/>
<path d="M235.13 110.77C233.13 112.24 229.24 112.13 229.24 112.13C229.24 112.13 230.35 108.44 232.38 106.97C234.41 105.5 235.84 105.76 236.6 106.81C237.36 107.86 237.16 109.3 235.13 110.77Z" fill="#CCE1FF"/>
<path d="M233.28 121.71C231.28 122.86 227.78 122.39 227.78 122.39C227.78 122.39 229.14 119.13 231.13 117.98C233.12 116.83 234.41 117.21 235.01 118.24C235.61 119.27 235.27 120.57 233.28 121.71Z" fill="#CCE1FF"/>
<path d="M231.82 131.77C229.38 132.26 225.94 130.57 225.94 130.57C225.94 130.57 228.46 127.68 230.94 127.2C233.42 126.72 234.57 127.53 234.82 128.79C235.07 130.05 234.27 131.28 231.82 131.77Z" fill="#CCE1FF"/>
<path d="M229.59 139.38C227.15 139.86 223.71 138.18 223.71 138.18C223.71 138.18 226.23 135.29 228.71 134.81C231.19 134.33 232.34 135.14 232.59 136.4C232.84 137.66 232 138.89 229.59 139.38Z" fill="#CCE1FF"/>
<path d="M226.77 147.35C224.37 148.02 220.77 146.59 220.77 146.59C220.77 146.59 223.08 143.53 225.48 142.86C227.88 142.19 229.13 142.93 229.48 144.17C229.83 145.41 229.17 146.68 226.77 147.35Z" fill="#CCE1FF"/>
<path d="M223.68 155.65C221.27 156.32 217.68 154.89 217.68 154.89C217.68 154.89 219.98 151.83 222.39 151.16C224.8 150.49 226.03 151.22 226.39 152.46C226.75 153.7 226.08 155 223.68 155.65Z" fill="#CCE1FF"/>
<path d="M220 164C217.6 164.67 214 163.24 214 163.24C214 163.24 216.3 160.18 218.7 159.51C221.1 158.84 222.35 159.57 222.7 160.81C223.05 162.05 222.39 163.36 220 164Z" fill="#CCE1FF"/>
<path d="M216.12 172.4C213.64 172.22 210.78 169.67 210.78 169.67C210.78 169.67 213.98 167.57 216.47 167.75C218.96 167.93 219.88 169.05 219.78 170.34C219.68 171.63 218.61 172.59 216.12 172.4Z" fill="#CCE1FF"/>
<path d="M212.5 179.87C210.14 180.68 206.5 179.46 206.5 179.46C206.5 179.46 208.62 176.27 210.98 175.46C213.34 174.65 214.62 175.32 215.04 176.53C215.46 177.74 214.86 179.06 212.5 179.87Z" fill="#CCE1FF"/>
<path d="M210.22 189.79C207.87 190.6 204.22 189.38 204.22 189.38C204.22 189.38 206.33 186.19 208.69 185.38C211.05 184.57 212.34 185.23 212.75 186.45C213.16 187.67 212.58 189 210.22 189.79Z" fill="#CCE1FF"/>
<path d="M209.19 199.22C207.19 200.72 203.37 200.68 203.37 200.68C203.37 200.68 204.37 196.99 206.37 195.5C208.37 194.01 209.79 194.23 210.56 195.26C211.33 196.29 211.18 197.72 209.19 199.22Z" fill="#CCE1FF"/>
<path d="M215.36 214.29L215.47 225.09C215.47 225.09 222.07 234.68 222.28 270.25C222.28 272.74 219.57 274.39 218.91 270.7C218.25 267.01 204.51 235.04 203.24 228.78C201.97 222.52 201.24 214.4 201.24 214.4L215.36 214.29Z" fill="#FEC6BD"/>
<path d="M180 212.13C180 212.13 180.34 218.99 181.09 223.31C183.47 236.96 189.35 264.72 189.7 267.31C190.44 272.77 190.56 272.15 192.41 271.89C194.26 271.63 193.71 270.96 193.86 269.78C198.21 235.25 193.27 220.9 193.27 220.9C193.27 220.9 194.27 213.82 194.27 212.79L180 212.13Z" fill="#FEC6BD"/>
<path d="M212.73 152.27C212.73 152.27 219.11 166 217.39 179.78C215.67 193.56 216.55 215.52 216.55 215.52C216.55 215.52 198.76 221.84 179.7 215.64C179.7 215.64 170.29 184.64 175.62 154.16L212.73 152.27Z" fill="#2A60B7"/>
<path d="M193.34 269.72C190.747 269.917 188.186 270.417 185.71 271.21C182.43 272.4 180.25 272.54 180.55 274.03C180.85 275.52 182.79 275.68 184.91 275.77C187.527 275.908 190.151 275.808 192.75 275.47C193.75 275.18 193.64 274.78 193.84 273.29C194.04 271.8 194.53 269.52 193.34 269.72Z" fill="#30343A"/>
<path d="M218.31 270.3C217.03 271.59 215.97 273.96 215.18 274.56C214.39 275.16 211.09 275.75 210.63 276.8C210.17 277.85 212.21 278.05 214.06 277.99C215.91 277.93 220.13 277.86 221.71 276.27C223.29 274.68 225.41 272.78 224.15 270.93C223.579 270.148 222.94 269.419 222.24 268.75C220.812 268.891 219.451 269.428 218.31 270.3Z" fill="#30343A"/>
<path d="M173.59 72.82C173.59 72.82 169.44 76.87 172.8 85.18C176.16 93.49 173.1 94.18 171.91 96.86C170.473 99.782 170.19 103.139 171.12 106.26L212.68 100.92C212.68 100.92 214.46 88.65 202.68 87.56C202.68 87.56 201.89 78.75 192.89 77.66C192.257 73.2498 188.866 69.7428 184.48 68.96C175.41 67.1 173.59 72.82 173.59 72.82Z" fill="#37475E"/>
<path d="M178.18 76.15C180.45 77.33 181.71 79.94 185.27 79.54C185.27 79.54 185.66 77.96 188.04 78.06C190.42 78.16 189.52 82.12 188.04 83.06C187.758 84.8757 188.219 86.7286 189.32 88.2C191.2 90.87 194.32 94.53 194.32 94.53L190.22 101L184.38 97.54L183 90.33C183 90.33 179.84 92.01 177.46 89.73C175.08 87.45 173.34 81.98 173.46 80.2C173.437 79.241 174.034 78.3765 174.94 78.06C174.94 78.06 175.9 75 178.18 76.15Z" fill="#FEC6BD"/>
<path d="M183.69 94.58C183.69 94.58 184.97 95.67 188.04 95.08C189.858 94.7037 191.333 93.3779 191.9 91.61C191.9 91.61 207.9 92.24 212.08 97.45C219.83 107.02 214.86 138.96 213.87 154.89C213.87 154.89 210.99 159.19 196.75 159.29C182.51 159.39 175.87 154.44 175.87 154.44C175.87 154.44 177.06 143.56 176.07 137.03C175.19 131.23 173.49 127.53 172.07 121.69C170.65 115.85 170.07 103 174.54 98.84C177.75 95.87 183.69 94.58 183.69 94.58Z" fill="#6DB3FA"/>
<path d="M174.58 98.84C174.58 98.84 169.9 102.6 166.83 117.44C163.76 132.28 157.07 155.33 157.07 155.33L163.5 155.93C163.5 155.93 173.59 135.93 175.87 126.24C178.15 116.55 174.58 98.84 174.58 98.84Z" fill="#6DB3FA"/>
<path d="M173.69 108.14C173.69 108.14 173.49 117.14 173.49 120.41C173.68 123.793 174.068 127.162 174.65 130.5C174.65 130.5 173.5 133.63 172.8 135.45C170.99 140.16 166.8 148.9 166.8 148.9C166.8 148.9 163.8 136.06 164.88 132.01C165.96 127.96 173.69 108.14 173.69 108.14Z" fill="url(#paint4_linear_3157_6812)"/>
<path opacity="0.1" d="M190.41 170.08C190.41 170.08 185.7 174.17 185.17 174.83C184.64 175.49 185.86 175.62 187.05 175.02C188.24 174.42 188.6 175.58 187.87 176.3C187.14 177.02 185.63 177.56 184.74 178.55C183.85 179.54 189.04 180.13 190.69 179.67C192.34 179.21 193.69 172.55 193.69 172.55L190.41 170.08Z" fill="black"/>
<path d="M215.92 199.44C209.821 193.98 203.109 189.245 195.92 185.33C195.149 184.93 194.222 184.972 193.49 185.44C192.757 185.908 192.33 186.732 192.37 187.6C192.409 188.468 192.909 189.25 193.68 189.65C194.07 189.85 232.08 209.85 228.41 235.03C227.41 242.22 225.17 247.61 221.47 251.66C221.64 253.66 221.8 255.66 221.92 257.93C228 253.06 231.72 246 233.22 235.73C235 223.78 229 211.23 215.92 199.44Z" fill="url(#paint5_linear_3157_6812)"/>
<path d="M180.55 151.65L165 146.53L147.72 199L163.26 204.12C173.84 207.61 189.79 207.64 196.65 187.99C203.73 167.72 191.14 155.14 180.55 151.65Z" fill="url(#paint6_linear_3157_6812)"/>
<ellipse cx="156.363" cy="172.789" rx="27.64" ry="20.18" transform="rotate(-71.77 156.363 172.789)" fill="url(#paint7_linear_3157_6812)"/>
<ellipse cx="157.86" cy="162.038" rx="4.39692" ry="3.8573" transform="rotate(-71.9277 157.86 162.038)" fill="#133E92"/>
<ellipse cx="152.156" cy="181.143" rx="4.4" ry="3.86" transform="rotate(-71.77 152.156 181.143)" fill="#133E92"/>
<path d="M214.8 143.06L213.87 154.89C213.87 154.89 212.11 157.6 204 158.82L190.41 170.08C190.41 170.08 178.07 140.08 179.65 131.73C181.23 123.38 203.37 107.54 203.37 107.54L214.8 143.06Z" fill="url(#paint8_linear_3157_6812)"/>
<path d="M190.41 170.08C190.41 170.08 185.7 174.17 185.17 174.83C184.64 175.49 185.63 175.22 186.82 174.63C188.01 174.04 188.6 174.36 187.87 175.09C187.14 175.82 185.63 177.56 184.74 178.55C183.85 179.54 188.27 179.55 189.92 179.05C191.57 178.55 194.01 171.53 194.01 171.53L190.41 170.08Z" fill="#FEC6BD"/>
<path d="M209.51 95.41C209.51 95.41 216.77 98.77 217.36 109.52C218.05 122.09 219.21 138.32 212.08 147.91C204.95 157.5 193.68 172.65 193.68 172.65L190.41 170.08C190.41 170.08 202.06 143.03 203.64 134.72C205.22 126.41 203.11 105.17 203.11 105.17L209.51 95.41Z" fill="#6DB3FA"/>
<path d="M54.2896 265.21L53.0996 271L55.9196 271.99L58.0496 265.56L54.2896 265.21Z" fill="#FEC6BD"/>
<path d="M105.44 266.59L107.08 272.18L109.9 271.54L109.25 265.5L105.44 266.59Z" fill="#FEC6BD"/>
<path d="M59.6401 173C59.6401 173 58.4501 201 61.4801 218C61.4801 218 55.8101 226.31 54.6201 243.73C53.4301 261.15 53.7001 267.34 53.7001 267.34L57.5201 268C57.5201 268 74.4101 238 79.8201 225.09C85.2301 212.18 86.9401 190.39 86.9401 190.39C86.9401 190.39 92.3501 213.08 93.8001 217.7C95.2501 222.32 93.0001 230.76 96.1801 243C98.5923 251.671 101.678 260.14 105.41 268.33L109.63 267.4C109.63 267.4 112.8 222.95 112.8 213.71C112.8 204.47 109.5 174 109.5 174C109.5 174 64.2501 162.69 59.6401 173Z" fill="url(#paint9_linear_3157_6812)"/>
<path d="M114.25 85.65C114.25 85.65 115.04 76.15 113.06 73.9C111.08 71.65 106.34 76.54 106.34 76.54C106.34 76.54 108.45 83.93 111.74 87.89L114.65 89.34L114.25 85.65Z" fill="#EFA29E"/>
<path d="M97 93.56C89.31 92.79 80 91.26 71.08 96.27C62.37 101.15 61.78 114.14 60.08 128.92C58.49 142.67 59.69 172.98 59.69 172.98C59.69 172.98 63.69 171.4 71.29 175.98C78.89 180.56 96.1 181.26 110.08 178.09C110.08 178.09 111.27 135.22 111.4 128.36C111.53 121.5 111.83 117.9 111.83 117.9C111.83 117.9 131.58 124.14 137.65 121.76C143.72 119.38 139.5 111.47 136.2 107.12C132.9 102.77 114.3 85.62 114.3 85.62L111.79 87.86L118.39 101.97C118.39 101.97 112.67 95.14 97 93.56Z" fill="#6DB3FA"/>
<path d="M53.3099 268.84C53.3099 268.84 52.5499 268.71 51.3099 271.21C50.0699 273.71 51.1799 273.96 52.1199 274.4C53.6726 275.137 55.3123 275.674 56.9999 276C59.3399 276.48 64.5599 277.06 64.6299 276.19C64.7099 275.08 61.8599 273 59.0799 272C57.0702 271.113 55.1399 270.055 53.3099 268.84Z" fill="#30343A"/>
<path d="M106.42 271C106.42 271 105.92 271.26 105.92 273.52C105.92 275.78 106.11 275.98 109.09 275.92C112.07 275.86 118.09 275.92 119.26 275.92C120.43 275.92 119.57 273.07 117.4 272.36C115.23 271.65 110.27 270.29 110.27 270.29L106.42 271Z" fill="#30343A"/>
<path d="M109.77 74C109.904 77.0392 109.771 80.0844 109.37 83.1C108.71 87.58 107.52 92.2 101.85 92.2C101.85 92.2 101.45 94.44 101.06 96.2C100.67 97.96 95.9096 98.97 93.5396 96.73C91.1696 94.49 93.7996 85 93.7996 85C91.9309 83.1359 91.2697 80.379 92.0896 77.87C93.5396 73.65 97.0896 71.01 102.25 71.28C107.41 71.55 109.5 73.24 109.77 74Z" fill="#FEC6BD"/>
<path d="M96.3101 80.24C96.3101 80.24 95.1201 77.47 93.6701 78.65C92.2201 79.83 93.1401 82.22 94.3301 83.27L93.5401 86C93.5401 86 88.3901 84.81 88.9201 77.16C89.4501 69.51 93.1401 65.95 97.9201 65.03C102.7 64.11 104.39 67.8 109.4 67.8C114.41 67.8 115.34 69.91 115.73 72.41C116.12 74.91 114.28 77.56 109.8 78.22C105.32 78.88 102.28 74.52 99.6401 74.66C97.0001 74.8 98.0001 77.73 98.0001 79.44C98.0001 81.15 96.3101 80.24 96.3101 80.24Z" fill="#37475E"/>
<path d="M90.0003 115.16C96.7003 117.64 107.41 123.39 107.41 123.39L81.9303 172.44L67.4203 164.9C57.5203 159.76 46.3603 148.37 55.6403 129.73C65.2103 110.49 83.3103 112.68 90.0003 115.16Z" fill="url(#paint10_linear_3157_6812)"/>
<ellipse cx="94.6842" cy="147.918" rx="27.64" ry="20.18" transform="rotate(-62.54 94.6842 147.918)" fill="#FFE600"/>
<path opacity="0.1" d="M53.0002 124.56C48.6902 142.09 51.6902 157.15 63.2002 161.33C63.6902 163.33 70.9902 165.9 71.4002 165.39C71.8102 164.88 69.8902 161.11 69.6502 160.71C69.4102 160.31 62.2502 152.46 63.5502 137.1C64.3367 127.25 69.6825 118.334 78.0002 113L83.8002 96.9C83.8002 96.9 58.4802 102.4 53.0002 124.56Z" fill="black"/>
<path d="M65.6997 159.92C65.6997 159.92 69.1997 159.98 69.5997 160.38C69.9997 160.78 69.0697 161.04 67.8797 161.11C66.6897 161.18 68.0097 162.95 70.1897 164.11C72.3697 165.27 71.5097 166.49 69.3997 166.29C66.9087 166.073 64.6505 164.738 63.2597 162.66L62.4697 159.43L65.6997 159.92Z" fill="#FEC6BD"/>
<rect opacity="0.1" x="94.9053" y="153.522" width="28.34" height="6.73" rx="3.31" transform="rotate(82.38 94.9053 153.522)" fill="url(#paint11_linear_3157_6812)"/>
<rect opacity="0.1" x="104.807" y="136.345" width="28.34" height="6.73" rx="3.31" transform="rotate(82.38 104.807 136.345)" fill="url(#paint12_linear_3157_6812)"/>
<path d="M74.8103 94.55C74.8103 94.55 53.1103 102.4 47.6603 124.55C43.3103 142.3 50.9903 158.92 62.8703 162.88L65.6403 159.71C65.6403 159.71 59.6403 152.58 60.9203 137.22C62.3403 120.47 78.0003 113 78.0003 113L83.8003 96.9L74.8103 94.55Z" fill="#6DB3FA"/>
<path d="M111.78 117.93L112 113C112 113 123.94 118.55 130.67 122.13C126.321 121.587 122.011 120.758 117.77 119.65L111.78 117.93Z" fill="url(#paint13_linear_3157_6812)"/>
<rect x="100.425" y="135.493" width="28.34" height="6.73" rx="3.31" transform="rotate(28.23 100.425 135.493)" fill="url(#paint14_linear_3157_6812)"/>
<rect x="90.5273" y="152.702" width="28.34" height="6.73" rx="3.31" transform="rotate(28.23 90.5273 152.702)" fill="url(#paint15_linear_3157_6812)"/>
<path d="M133.49 17.47C124.866 17.4629 117.179 22.9052 114.321 31.0414C111.462 39.1777 114.056 48.2319 120.79 53.62L118.69 62.45C118.646 62.7046 118.762 62.9601 118.982 63.0947C119.203 63.2292 119.483 63.2154 119.69 63.06L126.33 56.79C133.938 59.628 142.507 57.6583 148.112 51.7825C153.718 45.9066 155.282 37.2554 152.089 29.7885C148.896 22.3217 141.561 17.4763 133.44 17.47H133.49Z" fill="#6DB3FA"/>
<path d="M132.39 39.12L132.05 34.12C132.016 33.1533 132 32.4466 132 32C131.97 31.5088 132.131 31.0252 132.45 30.65C132.762 30.3251 133.199 30.1503 133.65 30.17C134.139 30.1076 134.617 30.3543 134.85 30.79C135.078 31.3578 135.181 31.9686 135.15 32.58C135.125 33.0556 135.075 33.5296 135 34L134.55 39.14C134.533 39.6259 134.424 40.1043 134.23 40.55C134.095 40.8632 133.78 41.059 133.44 41.04C133.106 41.064 132.794 40.8758 132.66 40.57C132.492 40.1043 132.401 39.6147 132.39 39.12Z" fill="white"/>
<path d="M133.54 46C133.133 46.0025 132.738 45.8568 132.43 45.59C132.109 45.2919 131.937 44.8672 131.96 44.43C131.957 44.0164 132.121 43.619 132.415 43.3275C132.708 43.0359 133.106 42.8747 133.52 42.88C133.942 42.8721 134.349 43.0343 134.65 43.33C134.946 43.6194 135.112 44.0163 135.11 44.43C135.131 44.864 134.959 45.285 134.64 45.58C134.341 45.8556 133.947 46.006 133.54 46Z" fill="white"/>
<defs>
<linearGradient id="paint0_linear_3157_6812" x1="265.04" y1="258.67" x2="261.06" y2="12.59" gradientUnits="userSpaceOnUse">
<stop stop-color="#F0FAFF"/>
<stop offset="1" stop-color="#EDFAFF" stop-opacity="0.2"/>
</linearGradient>
<linearGradient id="paint1_linear_3157_6812" x1="23.4901" y1="243.465" x2="64.7901" y2="243.465" gradientUnits="userSpaceOnUse">
<stop stop-color="#FFE200"/>
<stop offset="1" stop-color="#FFD200"/>
</linearGradient>
<linearGradient id="paint2_linear_3157_6812" x1="127.598" y1="158.917" x2="180.972" y2="158.415" gradientUnits="userSpaceOnUse">
<stop stop-color="#D0EDFF"/>
<stop offset="1" stop-color="#F7FDFF"/>
</linearGradient>
<linearGradient id="paint3_linear_3157_6812" x1="38.4788" y1="257.304" x2="68.6831" y2="250.601" gradientUnits="userSpaceOnUse">
<stop stop-color="#D0EDFF"/>
<stop offset="1" stop-color="#F7FDFF"/>
</linearGradient>
<linearGradient id="paint4_linear_3157_6812" x1="173.813" y1="122.105" x2="170.44" y2="122.079" gradientUnits="userSpaceOnUse">
<stop stop-color="#133E92" stop-opacity="0.4"/>
<stop offset="1" stop-color="#133E92" stop-opacity="0.01"/>
</linearGradient>
<linearGradient id="paint5_linear_3157_6812" x1="69.8103" y1="366.405" x2="233.51" y2="366.405" gradientUnits="userSpaceOnUse">
<stop stop-color="#6DB3FA"/>
<stop offset="1" stop-color="#2F83E8"/>
</linearGradient>
<linearGradient id="paint6_linear_3157_6812" x1="191.458" y1="207.149" x2="205.369" y2="159.831" gradientUnits="userSpaceOnUse">
<stop stop-color="#82BBEF"/>
<stop offset="0.51" stop-color="#609AFC"/>
<stop offset="1" stop-color="#B2D9FE"/>
</linearGradient>
<linearGradient id="paint7_linear_3157_6812" x1="176.964" y1="152.998" x2="121.972" y2="151.516" gradientUnits="userSpaceOnUse">
<stop stop-color="#C3DFFF"/>
<stop offset="1" stop-color="#D5E8FF"/>
</linearGradient>
<linearGradient id="paint8_linear_3157_6812" x1="215.16" y1="126.425" x2="197.43" y2="125.379" gradientUnits="userSpaceOnUse">
<stop stop-color="#133E92" stop-opacity="0.01"/>
<stop offset="0.49" stop-color="#133E92" stop-opacity="0.4"/>
<stop offset="1" stop-color="#133E92" stop-opacity="0.01"/>
</linearGradient>
<linearGradient id="paint9_linear_3157_6812" x1="58.1664" y1="169.912" x2="28.3976" y2="268.201" gradientUnits="userSpaceOnUse">
<stop stop-color="#133E92"/>
<stop offset="1" stop-color="#1372B6"/>
</linearGradient>
<linearGradient id="paint10_linear_3157_6812" x1="84.471" y1="168.949" x2="100.178" y2="133.895" gradientUnits="userSpaceOnUse">
<stop stop-color="#FFC313"/>
<stop offset="0.24" stop-color="#E8B612"/>
<stop offset="1" stop-color="#FFD200"/>
</linearGradient>
<linearGradient id="paint11_linear_3157_6812" x1="89.6482" y1="158.249" x2="100.404" y2="167.986" gradientUnits="userSpaceOnUse">
<stop/>
<stop offset="1" stop-opacity="0.01"/>
</linearGradient>
<linearGradient id="paint12_linear_3157_6812" x1="99.5124" y1="141.075" x2="110.193" y2="150.831" gradientUnits="userSpaceOnUse">
<stop/>
<stop offset="1" stop-opacity="0.01"/>
</linearGradient>
<linearGradient id="paint13_linear_3157_6812" x1="124.06" y1="123.578" x2="124.694" y2="118.139" gradientUnits="userSpaceOnUse">
<stop stop-color="#133E92" stop-opacity="0.4"/>
<stop offset="1" stop-color="#133E92" stop-opacity="0.01"/>
</linearGradient>
<linearGradient id="paint14_linear_3157_6812" x1="129.827" y1="142.263" x2="129.836" y2="134.998" gradientUnits="userSpaceOnUse">
<stop stop-color="#F0EFA8"/>
<stop offset="1" stop-color="#F6F2DB"/>
</linearGradient>
<linearGradient id="paint15_linear_3157_6812" x1="117.176" y1="158.992" x2="117.169" y2="153.103" gradientUnits="userSpaceOnUse">
<stop stop-color="#F0EFA8"/>
<stop offset="1" stop-color="#F6F2DB"/>
</linearGradient>
</defs>
</svg>
