<svg width="200" height="200" viewBox="0 0 200 200" fill="none" xmlns="http://www.w3.org/2000/svg">
<circle cx="100" cy="100" r="98.5714" fill="url(#paint0_linear_4601_4909)"/>
<path d="M34.8284 173.943C52.8103 189.845 75.9955 198.606 99.9999 198.571H101.25V120L34.8213 94.2857L34.8284 173.943Z" fill="#BFD9FF"/>
<path d="M101.25 154.979L34.8281 129.236V94.2857L101.25 120.021V154.979Z" fill="url(#paint1_linear_4601_4909)"/>
<path d="M101.25 198.571C125.99 198.294 149.713 188.69 167.679 171.679V94.2857L101.25 120L101.25 198.571Z" fill="#89BCF6"/>
<path d="M101.25 154.979L167.471 129.364V94.4071L101.25 120.021V154.979Z" fill="url(#paint2_linear_4601_4909)"/>
<path d="M101.25 127.493L31.2715 100.371V80.9786L101.25 108.093V127.493Z" fill="#BFD9FF"/>
<path d="M101.25 127.493L171.229 100.371V80.9786L101.25 108.093V127.493Z" fill="#89BCF6"/>
<path d="M31.2715 80.9786L101.25 53.8643L171.229 80.9786L101.25 108.093L31.2715 80.9786Z" fill="#D0E7FF"/>
<path d="M54.5645 187.493C58.4157 189.498 62.3959 191.244 66.4787 192.721V94.6143L54.5645 90V187.493Z" fill="#89BCF6"/>
<path d="M134.379 66.6929L122.464 62.0786L54.5645 90L66.4787 94.6143L134.379 66.6929Z" fill="#BFD9FF"/>
<path d="M134.514 192.35C138.602 190.824 142.582 189.024 146.428 186.964V90.5714L134.507 95.1928L134.514 192.35Z" fill="#639BF6"/>
<path d="M66.6143 67.2643L78.5357 62.65L146.436 90.5714L134.514 95.1929L66.6143 67.2643Z" fill="#BFD9FF"/>
<path d="M141.821 59.0143C144.021 64.6 145.957 72.0571 139.535 74.2214C130.435 77.2857 109.371 70.9 109.371 70.9C109.371 70.9 135.864 43.8714 141.821 59.0143Z" fill="#89BCF6"/>
<path d="M141.821 59.0143C144.021 64.6 145.957 72.0571 139.535 74.2214C130.435 77.2857 109.371 70.9 109.371 70.9C109.371 70.9 135.864 43.8714 141.821 59.0143Z" fill="url(#paint3_linear_4601_4909)"/>
<path d="M112.515 71.3786C112.515 71.3786 143.165 59.2357 143.658 68.8143C144.286 81.3143 112.515 71.3786 112.515 71.3786Z" fill="#377DE5"/>
<path d="M60.0928 57.8571V74.5286C60.0928 79.9286 63.9428 83.4143 71.8142 83.5C79.6856 83.5857 84.8213 75.9929 94.7142 75.9929C94.7142 75.9929 93.6142 63.1357 84.7142 61.4286C75.8142 59.7214 60.0928 57.8571 60.0928 57.8571Z" fill="#89BCF6"/>
<path d="M60.0928 57.8571V74.5286C60.0928 79.9286 63.9428 83.4143 71.8142 83.5C79.6856 83.5857 84.8213 75.9929 94.7142 75.9929C94.7142 75.9929 93.6142 63.1357 84.7142 61.4286C75.8142 59.7214 60.0928 57.8571 60.0928 57.8571Z" fill="url(#paint4_linear_4601_4909)"/>
<path d="M94.7141 76.0214C94.7141 76.0214 95.207 59.2 80.9141 55.0786C68.5856 51.5071 63.607 53.15 61.3141 55.4429C56.9713 59.7857 66.3141 62.3 73.7713 63.4143C81.7284 64.6 92.3356 68.8786 94.7141 76.0214Z" fill="#639BF6"/>
<path d="M94.6572 75.7857L111.086 69.6572C111.086 69.6572 129.55 65.7214 136.8 73.0857C144.05 80.45 138.55 85.9429 132.714 89.2857C128.325 91.7009 123.793 93.8477 119.143 95.7143L94.6572 75.7857Z" fill="#89BCF6"/>
<path d="M94.6572 75.7857L111.086 69.6572C111.086 69.6572 129.55 65.7214 136.8 73.0857C144.05 80.45 138.55 85.9429 132.714 89.2857C128.325 91.7009 123.793 93.8477 119.143 95.7143L94.6572 75.7857Z" fill="url(#paint5_linear_4601_4909)"/>
<path d="M94.6572 75.7857C94.6572 75.7857 115.507 78.3143 121.086 85.7857C126.193 92.6428 119.257 98.1857 113.493 95.7071C107.422 93.1 100.714 87.0214 94.6572 75.7857Z" fill="#639BF6"/>
<path d="M100.086 39.6857C100.086 39.6857 109.229 40.7286 113.857 39.3357C118.486 37.9429 124.536 40.7643 126.372 48.0143C128.207 55.2643 119.857 66 113.886 69.0929C110.55 70.8214 105.829 72.7572 94.6572 75.7857L100.086 39.6857Z" fill="#89BCF6"/>
<path d="M94.657 75.7857C94.657 75.7857 88.1856 30.3429 104.857 41.5C121.528 52.6571 94.657 75.7857 94.657 75.7857Z" fill="#377DE5"/>
<path d="M94.7141 76.0214C94.7141 76.0214 82.1998 76.3286 72.0284 84.8429C69.0069 87.3786 68.3498 94.9 73.6784 97.3C79.1784 99.7714 93.3855 100.093 98.0426 96.8429C102.9 93.45 101.521 82.0071 94.7141 76.0214Z" fill="#89BCF6"/>
<defs>
<linearGradient id="paint0_linear_4601_4909" x1="221.357" y1="132.371" x2="139.829" y2="-41.9286" gradientUnits="userSpaceOnUse">
<stop stop-color="#EEF8FF"/>
<stop offset="1" stop-color="#EBF8FF" stop-opacity="0.2"/>
</linearGradient>
<linearGradient id="paint1_linear_4601_4909" x1="59.9754" y1="99.1481" x2="53.6527" y2="125.67" gradientUnits="userSpaceOnUse">
<stop stop-color="#4A90D2" stop-opacity="0.4"/>
<stop offset="1" stop-color="#4A90D2" stop-opacity="0.01"/>
</linearGradient>
<linearGradient id="paint2_linear_4601_4909" x1="115.176" y1="107.975" x2="120.621" y2="134.426" gradientUnits="userSpaceOnUse">
<stop stop-color="#2256BF" stop-opacity="0.4"/>
<stop offset="1" stop-color="#4A90D2" stop-opacity="0.01"/>
</linearGradient>
<linearGradient id="paint3_linear_4601_4909" x1="109.371" y1="75.0526" x2="143.914" y2="75.0526" gradientUnits="userSpaceOnUse">
<stop stop-color="#377DE5" stop-opacity="0.6"/>
<stop offset="1" stop-color="#4A90D2" stop-opacity="0.01"/>
</linearGradient>
<linearGradient id="paint4_linear_4601_4909" x1="98.1363" y1="66.8518" x2="74.3722" y2="57.484" gradientUnits="userSpaceOnUse">
<stop stop-color="#2256BF" stop-opacity="0.4"/>
<stop offset="1" stop-color="#4A90D2" stop-opacity="0.01"/>
</linearGradient>
<linearGradient id="paint5_linear_4601_4909" x1="89.7159" y1="76.3058" x2="102.099" y2="92.5134" gradientUnits="userSpaceOnUse">
<stop stop-color="#377DE5" stop-opacity="0.6"/>
<stop offset="1" stop-color="#4A90D2" stop-opacity="0.01"/>
</linearGradient>
</defs>
</svg>
