<svg width="44" height="44" viewBox="0 0 44 44" fill="none" xmlns="http://www.w3.org/2000/svg">
<path d="M31.6551 40.5778H6.72179C5.37734 40.5778 4.27734 39.4778 4.27734 38.1334V5.86673C4.27734 4.52229 5.37734 3.42229 6.72179 3.42229H31.6551C32.9996 3.42229 34.0996 4.52229 34.0996 5.86673V38.2556C34.0996 39.4778 32.9996 40.5778 31.6551 40.5778Z" fill="#ACD4F7"/>
<path d="M31.6551 40.5778H6.72179C5.37734 40.5778 4.27734 39.4778 4.27734 38.1334V5.86673C4.27734 4.52229 5.37734 3.42229 6.72179 3.42229H31.6551C32.9996 3.42229 34.0996 4.52229 34.0996 5.86673V38.2556C34.0996 39.4778 32.9996 40.5778 31.6551 40.5778Z" fill="url(#paint0_linear_4994_5180)"/>
<path d="M30.311 12.3445H7.94434V13.8111H30.311V12.3445Z" fill="white"/>
<path d="M30.311 18.3333H7.94434V19.8H30.311V18.3333Z" fill="white"/>
<path d="M30.311 24.2H7.94434V25.6667H30.311V24.2Z" fill="white"/>
<path d="M17.111 30.1889H7.94434V31.6556H17.111V30.1889Z" fill="white"/>
<path d="M39.559 16.5899L32.502 11.9718L20.9233 29.6655L27.9803 34.2836L39.559 16.5899Z" fill="#508FEA"/>
<path d="M39.6006 16.6222L32.5117 11.9778L34.7117 8.67778C35.4451 7.57778 36.9117 7.21112 38.1339 7.94445L41.1895 9.90001C42.2895 10.6333 42.6562 12.1 41.9228 13.3222L39.6006 16.6222Z" fill="#FFE600"/>
<path d="M24.4446 32.0222L27.9891 34.3445L24.078 36.4222L22.3668 37.2778C21.3891 37.7667 20.2891 37.1556 20.2891 35.9333L20.4113 33.9778L20.778 29.5778L24.4446 32.0222Z" fill="white"/>
<path d="M24.445 32.0222L20.9006 29.7L20.5339 34.1L20.4117 36.0556C20.2894 37.1556 21.3894 37.8889 22.4894 37.4L24.2006 36.5445L28.1117 34.4667L24.445 32.0222Z" fill="url(#paint1_linear_4994_5180)"/>
<path d="M32.5115 11.9778L39.6004 16.6222L27.9893 34.3444L20.9004 29.7L32.5115 11.9778Z" fill="url(#paint2_linear_4994_5180)"/>
<path d="M32.5117 11.9778L39.6006 16.6222L41.8006 13.3222C42.5339 12.2222 42.1673 10.6333 41.0673 9.90001L38.0117 7.94445C36.9117 7.21112 35.3228 7.57778 34.5895 8.67778L32.5117 11.9778Z" fill="url(#paint3_linear_4994_5180)"/>
<path d="M20.5339 34.1L20.4117 36.0556C20.2894 37.1556 21.3894 37.8889 22.4894 37.4L24.2006 36.5445L20.5339 34.1Z" fill="#37475E"/>
<defs>
<linearGradient id="paint0_linear_4994_5180" x1="38.8568" y1="39.1136" x2="19.494" y2="22.2863" gradientUnits="userSpaceOnUse">
<stop offset="0.00235571" stop-color="#4A90D2" stop-opacity="0.4"/>
<stop offset="1" stop-color="#4A90D2" stop-opacity="0"/>
</linearGradient>
<linearGradient id="paint1_linear_4994_5180" x1="26.5295" y1="37.0641" x2="21.0428" y2="33.5197" gradientUnits="userSpaceOnUse">
<stop offset="0.00235571" stop-color="#4A90D2" stop-opacity="0.4"/>
<stop offset="1" stop-color="#4A90D2" stop-opacity="0"/>
</linearGradient>
<linearGradient id="paint2_linear_4994_5180" x1="33.8701" y1="25.4298" x2="26.7801" y2="20.7901" gradientUnits="userSpaceOnUse">
<stop stop-color="#133E90" stop-opacity="0.4"/>
<stop offset="1" stop-color="#133E90" stop-opacity="0"/>
</linearGradient>
<linearGradient id="paint3_linear_4994_5180" x1="41.3966" y1="13.9272" x2="34.3065" y2="9.2875" gradientUnits="userSpaceOnUse">
<stop stop-color="#E5B527" stop-opacity="0.8"/>
<stop offset="1" stop-color="#FFD215" stop-opacity="0"/>
</linearGradient>
</defs>
</svg>
