<svg width="36" height="36" viewBox="0 0 36 36" fill="none" xmlns="http://www.w3.org/2000/svg">
<path d="M30.5 5H5.5C4.39543 5 3.5 5.89543 3.5 7V31C3.5 32.1046 4.39543 33 5.5 33H30.5C31.6046 33 32.5 32.1046 32.5 31V7C32.5 5.89543 31.6046 5 30.5 5Z" fill="#E6EEF1"/>
<path d="M30.5 5H5.5C4.39543 5 3.5 5.89543 3.5 7V31C3.5 32.1046 4.39543 33 5.5 33H30.5C31.6046 33 32.5 32.1046 32.5 31V7C32.5 5.89543 31.6046 5 30.5 5Z" fill="url(#paint0_linear_4607_7959)"/>
<path fill-rule="evenodd" clip-rule="evenodd" d="M5.5 5H30.5C31.6046 5 32.5 5.89543 32.5 7V11H3.5V7C3.5 5.89543 4.39543 5 5.5 5Z" fill="#508FEA"/>
<path fill-rule="evenodd" clip-rule="evenodd" d="M11 3C11.5523 3 12 3.44772 12 4V7C12 7.55228 11.5523 8 11 8C10.4477 8 10 7.55228 10 7V4C10 3.44772 10.4477 3 11 3Z" fill="#255299"/>
<path d="M11.6495 24.08L13.1595 23.79C13.2361 23.7771 13.3099 23.8248 13.3295 23.9C13.4855 24.439 13.9889 24.8021 14.5495 24.78C14.868 24.7896 15.1755 24.663 15.395 24.4321C15.6145 24.2011 15.7253 23.8876 15.6995 23.57C15.7304 23.214 15.6023 22.8625 15.3496 22.6099C15.097 22.3572 14.7455 22.2291 14.3895 22.26H13.9995C13.9222 22.26 13.8595 22.1973 13.8595 22.12V20.79C13.8595 20.7127 13.9222 20.65 13.9995 20.65H14.3695C14.6823 20.6712 14.9889 20.5555 15.2097 20.3328C15.4304 20.1102 15.5435 19.8026 15.5195 19.49C15.5496 19.1972 15.4491 18.9059 15.2448 18.694C15.0406 18.482 14.7533 18.3708 14.4595 18.39C13.9388 18.3589 13.4816 18.7333 13.4095 19.25C13.4095 19.34 13.3295 19.36 13.2395 19.35L11.7495 19.06C11.7135 19.0581 11.6802 19.0402 11.6589 19.0111C11.6376 18.982 11.6305 18.9449 11.6395 18.91C11.9279 17.5584 13.1839 16.638 14.5595 16.77C15.2948 16.6806 16.0328 16.9128 16.5845 17.407C17.1362 17.9012 17.4478 18.6094 17.4395 19.35C17.46 20.1197 17.082 20.8456 16.4395 21.27C17.2415 21.7303 17.7111 22.6074 17.6495 23.53C17.6569 24.3128 17.3373 25.0633 16.7679 25.6005C16.1984 26.1377 15.4306 26.413 14.6495 26.36C13.2591 26.4944 11.9811 25.587 11.6495 24.23C11.6246 24.1831 11.6246 24.1269 11.6495 24.08Z" fill="#37475E"/>
<path d="M18.68 21.58C18.5923 20.6083 18.6632 19.6289 18.89 18.68C19.2584 17.4599 20.4299 16.6636 21.7 16.77C22.968 16.6714 24.135 17.4647 24.51 18.68C24.7238 19.6309 24.7912 20.6088 24.71 21.58C24.7916 22.5545 24.7242 23.5358 24.51 24.49C24.1345 25.7037 22.9662 26.4936 21.7 26.39C20.4327 26.4975 19.2622 25.7061 18.89 24.49C18.6632 23.5377 18.5923 22.555 18.68 21.58ZM21.68 24.78C22.1036 24.8219 22.4976 24.5578 22.62 24.15C22.7712 23.3021 22.8081 22.4377 22.73 21.58C22.8163 20.7199 22.786 19.852 22.64 19C22.5006 18.5972 22.1212 18.3271 21.695 18.3271C21.2687 18.3271 20.8894 18.5972 20.75 19C20.6058 19.8453 20.5689 20.7054 20.64 21.56C20.5687 22.4179 20.6056 23.2813 20.75 24.13C20.865 24.5498 21.2669 24.8248 21.7 24.78H21.68Z" fill="#37475E"/>
<path fill-rule="evenodd" clip-rule="evenodd" d="M25 3C25.5523 3 26 3.44772 26 4V7C26 7.55228 25.5523 8 25 8C24.4477 8 24 7.55228 24 7V4C24 3.44772 24.4477 3 25 3Z" fill="#255299"/>
<defs>
<linearGradient id="paint0_linear_4607_7959" x1="34.84" y1="35.8173" x2="19.4581" y2="19.3367" gradientUnits="userSpaceOnUse">
<stop stop-color="#D1DEEE"/>
<stop offset="1" stop-color="#D1DEEE" stop-opacity="0"/>
</linearGradient>
</defs>
</svg>
