<svg width="36" height="36" viewBox="0 0 36 36" fill="none" xmlns="http://www.w3.org/2000/svg">
<path fill-rule="evenodd" clip-rule="evenodd" d="M18 33.6C18 33.6 29.72 30.89 31.07 21.47C31.672 16.5125 31.9825 11.5239 32 6.52999C27.0821 6.57425 22.244 5.28526 18 2.79999C13.756 5.28526 8.91794 6.57425 4 6.52999C4.01751 11.5239 4.32805 16.5125 4.93 21.47C6.28 30.89 18 33.6 18 33.6Z" fill="#508FEA"/>
<path fill-rule="evenodd" clip-rule="evenodd" d="M18 33.6C18 33.6 29.72 30.89 31.07 21.47C31.672 16.5125 31.9825 11.5239 32 6.52999C27.0821 6.57425 22.244 5.28526 18 2.79999V33.6Z" fill="url(#paint0_linear_4607_7957)"/>
<path fill-rule="evenodd" clip-rule="evenodd" d="M7.22008 9.09C7.25357 12.9254 7.51403 16.7554 8.00008 20.56C9.00008 27.31 17.0501 29.63 18.0001 29.89C19.0001 29.63 27.0801 27.31 28.0001 20.56C28.4728 16.7546 28.7199 12.9246 28.7401 9.09C24.9717 9.04311 21.2767 8.04194 18.0001 6.18C14.7117 8.04848 11.002 9.04987 7.22008 9.09ZM18.0001 30.8H17.9001C17.5001 30.71 8.20008 28.47 7.09008 20.71C6.6021 16.7283 6.34833 12.7214 6.33008 8.71V8.21H6.77008C10.6308 8.23958 14.429 7.23478 17.7701 5.3L18.0001 5.13L18.2401 5.3C21.5821 7.23251 25.3797 8.23715 29.2401 8.21H29.6801V8.66C29.6618 12.6714 29.4081 16.6783 28.9201 20.66C27.8101 28.42 18.5101 30.66 18.1101 30.75L18.0001 30.8Z" fill="#FFE600"/>
<path d="M16.9996 18.75L16.7096 14.41C16.7096 13.57 16.6296 12.96 16.6296 12.59C16.6019 12.1623 16.7459 11.7412 17.0296 11.42C17.2882 11.1443 17.6518 10.9916 18.0296 11C18.4428 10.9547 18.8409 11.1697 19.0296 11.54C19.2351 12.0298 19.3274 12.5596 19.2996 13.09C19.2996 13.49 19.2996 13.89 19.2296 14.3L18.8396 18.76C18.8602 19.1803 18.8026 19.6008 18.6696 20C18.5526 20.2739 18.2771 20.4456 17.9796 20.43C17.692 20.4492 17.4235 20.2849 17.3096 20.02C17.1399 19.6157 17.0352 19.1871 16.9996 18.75ZM17.9996 24.7C17.6326 24.7119 17.2749 24.5831 16.9996 24.34C16.6026 23.9443 16.4867 23.3467 16.7069 22.8312C16.9272 22.3158 17.4393 21.9865 17.9996 22C18.3749 21.9838 18.7391 22.1295 18.9996 22.4C19.263 22.6561 19.4115 23.0077 19.4115 23.375C19.4115 23.7423 19.263 24.094 18.9996 24.35C18.7256 24.5941 18.3661 24.7199 17.9996 24.7Z" fill="#FFE600"/>
<defs>
<linearGradient id="paint0_linear_4607_7957" x1="26.7913" y1="21.57" x2="21.9106" y2="20.5214" gradientUnits="userSpaceOnUse">
<stop stop-color="#133E92" stop-opacity="0.4"/>
<stop offset="1" stop-color="#133E92" stop-opacity="0"/>
</linearGradient>
</defs>
</svg>
