<svg width="285" height="95" viewBox="0 0 285 95" fill="none" xmlns="http://www.w3.org/2000/svg">
<g clip-path="url(#clip0_3751_3764)">
<rect x="0.5" y="0.5" width="284" height="94" rx="7.5" fill="#F1F7F9" stroke="#E2EAEE"/>
<rect x="67" y="-127" width="142.9" height="210.145" rx="18" fill="#F1F7F9"/>
<rect x="71" y="-123" width="137" height="202" rx="14" fill="url(#paint0_linear_3751_3764)" stroke="#333A3D" stroke-width="8"/>
<rect width="45" height="3" rx="1.5" transform="matrix(1 0 0 -1 117 70)" fill="#333A3D"/>
<g filter="url(#filter0_d_3751_3764)">
<circle cx="178.58" cy="47.6232" r="14.7101" fill="white"/>
</g>
<rect x="177.355" y="46.3967" width="8.58092" height="2.45169" fill="#4286F5"/>
<rect x="171.226" y="46.3967" width="6.12923" height="2.45169" fill="#FBBB01"/>
<path d="M177.355 48.8494V40.2684H179.807V46.3977L177.355 48.8494Z" fill="#EA4236"/>
<rect x="177.355" y="54.978" width="6.12923" height="2.45169" transform="rotate(-90 177.355 54.978)" fill="#33A851"/>
<path d="M214.551 57.8221L214.424 57.6024C213.976 56.8255 213.237 56.2585 212.37 56.0263C211.504 55.7942 210.581 55.9157 209.804 56.3643C209.027 56.8128 208.46 57.5517 208.228 58.4182C207.995 59.2848 208.117 60.2081 208.566 60.985L207.458 59.0662C207.009 58.2893 206.27 57.7224 205.404 57.4902C204.537 57.258 203.614 57.3796 202.837 57.8281C202.06 58.2767 201.493 59.0155 201.261 59.8821C201.029 60.7486 201.15 61.6719 201.599 62.4489L201.142 61.6579C200.694 60.881 199.955 60.3141 199.088 60.0819C198.222 59.8497 197.298 59.9712 196.521 60.4198C195.744 60.8684 195.178 61.6072 194.945 62.4738C194.713 63.3403 194.835 64.2636 195.283 65.0406L187.892 52.2389C187.444 51.462 186.705 50.895 185.838 50.6628C184.972 50.4306 184.048 50.5522 183.271 51.0008C182.495 51.4493 181.928 52.1882 181.695 53.0547C181.463 53.9213 181.585 54.8446 182.033 55.6215L191.116 71.3526L192.164 73.1689L190.78 72.3275C189.616 71.6623 188.245 71.4575 186.937 71.7534C185.629 72.0493 184.48 72.8245 183.715 73.9261L183.613 73.9853C183.444 74.2683 183.393 74.6066 183.472 74.9268C183.551 75.247 183.753 75.5231 184.034 75.6952L201.262 86.2545C203.082 87.5617 205.239 88.3175 207.476 88.4318C209.713 88.5461 211.936 88.014 213.879 86.899L216.897 85.157C219.549 83.6104 221.486 81.0821 222.29 78.1186C223.093 75.1552 222.698 71.9946 221.19 69.3202L214.551 57.8221Z" fill="#FFBFB5"/>
<path d="M192.427 73.0173L191.043 72.176C189.837 71.4453 188.391 71.2193 187.02 71.547C185.648 71.8747 184.46 72.7297 183.715 73.9267L183.612 73.9859C183.443 74.2689 183.392 74.6072 183.471 74.9274C183.55 75.2476 183.752 75.5238 184.033 75.6959L201.261 86.2552C203.081 87.5623 205.238 88.3181 207.475 88.4324C209.713 88.5467 211.935 88.0146 213.879 86.8997L216.896 85.1576C219.548 83.611 221.486 81.0827 222.289 78.1193C223.092 75.1558 222.697 71.9953 221.189 69.3208L192.427 73.0173Z" fill="url(#paint1_linear_3751_3764)"/>
</g>
<defs>
<filter id="filter0_d_3751_3764" x="159.87" y="29.9131" width="39.4199" height="39.4203" filterUnits="userSpaceOnUse" color-interpolation-filters="sRGB">
<feFlood flood-opacity="0" result="BackgroundImageFix"/>
<feColorMatrix in="SourceAlpha" type="matrix" values="0 0 0 0 0 0 0 0 0 0 0 0 0 0 0 0 0 0 127 0" result="hardAlpha"/>
<feMorphology radius="1" operator="dilate" in="SourceAlpha" result="effect1_dropShadow_3751_3764"/>
<feOffset dx="1" dy="2"/>
<feGaussianBlur stdDeviation="2"/>
<feComposite in2="hardAlpha" operator="out"/>
<feColorMatrix type="matrix" values="0 0 0 0 0.360784 0 0 0 0 0.380392 0 0 0 0 0.392157 0 0 0 0.2 0"/>
<feBlend mode="normal" in2="BackgroundImageFix" result="effect1_dropShadow_3751_3764"/>
<feBlend mode="normal" in="SourceGraphic" in2="effect1_dropShadow_3751_3764" result="shape"/>
</filter>
<linearGradient id="paint0_linear_3751_3764" x1="-28.6383" y1="-118.429" x2="163.305" y2="98.7079" gradientUnits="userSpaceOnUse">
<stop offset="0.53701" stop-color="#C4D6E8"/>
<stop offset="1" stop-color="#C4D6E8" stop-opacity="0"/>
</linearGradient>
<linearGradient id="paint1_linear_3751_3764" x1="201.727" y1="90.4862" x2="201.727" y2="71.5509" gradientUnits="userSpaceOnUse">
<stop stop-color="#F19B93"/>
<stop offset="1" stop-color="#F7B0A9" stop-opacity="0"/>
</linearGradient>
<clipPath id="clip0_3751_3764">
<rect width="285" height="95.0001" fill="white"/>
</clipPath>
</defs>
</svg>
