<svg width="160" height="160" viewBox="0 0 160 160" fill="none" xmlns="http://www.w3.org/2000/svg">
<path d="M22.7832 23.2286C22.7832 23.2286 23.7375 20.8057 26.9889 20.5543L28.5718 24.3771C28.5718 24.3771 25.5775 24.8229 24.7489 26.0914L22.7832 23.2286Z" fill="#ACD4F7"/>
<path d="M42.7433 53.2286H39.3148C39.3148 53.2286 38.5091 55.9771 39.7719 57.5829L42.7491 56.44C42.7491 56.44 41.7148 54.3771 42.7433 53.2286Z" fill="#FFE600"/>
<path d="M138.589 59.5429H135.16C135.16 59.5429 134.36 62.2914 135.623 63.8914L138.6 62.7486C138.6 62.7486 137.554 60.6857 138.589 59.5429Z" fill="#FFE600"/>
<path d="M46.3259 14.48C44.9149 14.8915 43.999 16.2521 44.1488 17.7143L46.3259 19.7771C46.3259 19.7771 46.5545 17.1429 48.0402 17.1429L46.3259 14.48Z" fill="#508FEA"/>
<path d="M15.0916 59.8171C15.0916 59.8171 17.423 57.6514 15.4344 55.6L12.4287 54.8571C12.4287 54.8571 13.9316 57.6857 12.6744 57.9143L15.0916 59.8171Z" fill="#D1DEEE"/>
<path d="M62.9085 81.8514C62.9085 81.8514 61.6628 84.1371 64.1828 86.3143L66.7028 84.0857C65.3382 83.1557 64.6064 81.5421 64.8056 79.9029L62.9085 81.8514Z" fill="#6DB3FA"/>
<path d="M146.251 47.0171C146.251 47.0171 145.006 49.3029 147.526 51.48L150.046 49.2457C148.682 48.3175 147.95 46.7061 148.148 45.0686L146.251 47.0171Z" fill="#6DB3FA"/>
<path d="M117.314 51.3257C117.314 51.3257 114.583 51.0914 114.811 52.4686L116.057 55.3257C116.057 55.3257 117.2 53.8343 117.891 53.9543L117.314 51.3257Z" fill="#D1DEEE"/>
<path d="M108.217 8.8C108.217 8.8 105.931 7.56571 105.028 9.65143V12.4114C105.028 12.4114 106.114 10.3143 107.48 11.36L108.217 8.8Z" fill="#FFE600"/>
<path d="M155.063 32C155.063 32 154.149 29.5829 152.086 30.5657L150.286 32.6571C150.286 32.6571 152.475 31.7771 152.829 33.4629L155.063 32Z" fill="#D1DEEE"/>
<path d="M121.915 5H124.32C124.32 5 123.863 10.2686 127.64 11.1829L124.783 13.0171C122.31 11.1585 121.182 8.00554 121.915 5Z" fill="#ACD4F7"/>
<path d="M132.806 23.7257C132.806 23.7257 135.2 22.1143 136.537 23.7257V26.9029C135.5 26.3789 134.315 26.2218 133.177 26.4571L132.806 23.7257Z" fill="#FFE600"/>
<path d="M25.9824 64.9886C25.9824 64.9886 28.6624 65.1657 28.9139 66.32L28.1539 68.4971C28.1539 68.4971 26.811 67.2857 25.9824 67.7943L25.9824 64.9886Z" fill="#6DB3FA"/>
<path d="M62.1768 7.2C62.1768 7.2 64.5996 7.70857 64.2796 9.42857H67.0853C67.0853 9.42857 67.3996 6.94857 65.6168 6.62857L62.1768 7.2Z" fill="#ACD4F7"/>
<path d="M125.206 35.3257L127.326 37.7143C127.326 37.7143 125.348 40.8686 127.411 43.8914L124.966 42.8914C123.795 40.4838 123.885 37.6544 125.206 35.3257V35.3257Z" fill="#508FEA"/>
<path d="M148.074 10.8571C148.074 10.8571 148.777 8.72571 150.88 8.57143L152.154 11.2914C152.154 11.2914 150.051 11.6743 149.794 13.0057L148.074 10.8571Z" fill="#669CE9"/>
<path d="M31.3828 4.83429C31.3828 4.83429 33.0971 4.38857 33.2971 5.14857L34.44 3.11429C34.44 3.11429 33.68 1.52 31.3828 2.06286V4.83429Z" fill="#669CE9"/>
<path d="M9.61706 77.5429C9.27135 78.3237 9.11848 79.1762 9.17135 80.0286L11.0171 80.9829C11.0171 80.9829 10.8285 79.0686 11.7199 78.8171L9.61706 77.5429Z" fill="#FFE600"/>
<path d="M148.275 83.0171C148.275 83.0171 150.852 82.88 150.56 80.6229L149.092 78.2857C149.092 78.2857 149.269 80.64 147.555 80.4629L148.275 83.0171Z" fill="#D1DEEE"/>
<path d="M31.1538 42C31.1538 42 33.6109 41.1943 32.7195 39.0914L30.6967 37.2114C30.6967 37.2114 31.4852 39.4286 29.7881 39.7143L31.1538 42Z" fill="#6DB3FA"/>
<path d="M15.1658 7.34286C15.1658 7.34286 15.6572 9.89714 13.0515 11.8571L9.65723 9.48C9.65723 9.48 11.9429 7.50286 11.9429 5.98286L15.1658 7.34286Z" fill="#FFD215"/>
<path d="M10.9653 42.0343C10.9653 42.0343 8.99384 39.2857 13.0396 36.8914L10.7538 35.6343C10.7538 35.6343 8.18241 37.6457 7.82812 40.7771L10.9653 42.0343Z" fill="#ACD4F7"/>
<path d="M116.12 67.0857C116.12 67.0857 118.406 64.8 121.429 68.4514L122.24 66.0514C122.24 66.0514 119.874 63.8057 116.812 63.8571L116.12 67.0857Z" fill="#ACD4F7"/>
<path d="M117.634 24.4686C117.504 23.6252 117.177 22.8245 116.68 22.1314L114.605 22.3143C114.605 22.3143 115.788 23.8229 115.177 24.52L117.634 24.4686Z" fill="#669CE9"/>
<path d="M154.195 70.4914C154.067 69.6476 153.74 68.8464 153.24 68.1543L151.166 68.3429C151.166 68.3429 152.355 69.8514 151.737 70.5429L154.195 70.4914Z" fill="#669CE9"/>
<path d="M62.3486 126.857C69.4229 118.966 77.9715 112.503 84.1258 110.389L84.1886 110.583C78.0686 112.686 69.5543 119.154 62.4743 126.994L62.3486 126.857Z" fill="#C9DEFF"/>
<path d="M85.5142 109.08C84.8435 109.437 84.2795 109.965 83.8799 110.611C84.6048 110.841 85.377 110.876 86.1199 110.714C86.9942 110.389 87.2113 109.891 87.0456 109.44C86.8799 108.989 86.3885 108.754 85.5142 109.08Z" fill="#C9DEFF"/>
<path d="M82.5826 111.851C81.8068 111.752 81.0187 111.859 80.2969 112.16C80.7709 112.787 81.4016 113.277 82.1254 113.583C83.0512 113.834 83.5312 113.549 83.6569 113.069C83.7826 112.589 83.514 112.097 82.5826 111.851Z" fill="#C9DEFF"/>
<path d="M79.3146 113.891C78.3203 113.623 76.8574 114.223 76.8574 114.223C76.8574 114.223 77.8174 115.48 78.8117 115.749C79.806 116.017 80.3203 115.709 80.4574 115.177C80.5946 114.646 80.3089 114.154 79.3146 113.891Z" fill="#C9DEFF"/>
<path d="M76.686 116.074C75.7775 115.697 74.3203 116.074 74.3203 116.074C74.7113 116.782 75.2832 117.374 75.9775 117.789C76.886 118.166 77.4117 117.937 77.606 117.469C77.8003 117 77.5946 116.457 76.686 116.074Z" fill="#C9DEFF"/>
<path d="M73.7144 117.789C72.7487 117.629 71.4287 118.36 71.4287 118.36C71.4287 118.36 72.463 119.463 73.4344 119.623C74.4059 119.783 74.863 119.446 74.943 118.943C75.023 118.44 74.6859 117.949 73.7144 117.789Z" fill="#C9DEFF"/>
<path d="M70.7318 119.874C69.7433 119.874 68.5547 120.811 68.5547 120.811C68.5547 120.811 69.7661 121.72 70.749 121.714C71.7318 121.709 72.1261 121.286 72.1204 120.777C72.1147 120.269 71.7147 119.863 70.7318 119.874Z" fill="#C9DEFF"/>
<path d="M67.9996 122.434C67.0167 122.434 65.8281 123.377 65.8281 123.377C65.8281 123.377 67.0338 124.286 68.0167 124.274C68.9996 124.263 69.3938 123.851 69.3881 123.343C69.3824 122.834 68.9824 122.429 67.9996 122.434Z" fill="#C9DEFF"/>
<path d="M65.44 125.143C64.4571 125.143 63.2686 126.086 63.2686 126.086C63.2686 126.086 64.4743 126.994 65.4628 126.983C66.4514 126.971 66.8343 126.56 66.8286 126.051C66.8228 125.543 66.4286 125.143 65.44 125.143Z" fill="#C9DEFF"/>
<path d="M81.2742 109.177C81.0113 110.137 81.5942 111.56 81.5942 111.56C81.5942 111.56 82.817 110.629 83.0742 109.663C83.3313 108.697 83.0342 108.2 82.537 108.069C82.0399 107.937 81.5313 108.211 81.2742 109.177Z" fill="#C9DEFF"/>
<path d="M77.4624 111.429C77.4429 112.176 77.6223 112.916 77.9824 113.571C78.5204 113.059 78.9145 112.415 79.1252 111.703C79.2738 110.8 78.9538 110.371 78.4852 110.297C78.0167 110.223 77.6052 110.503 77.4624 111.429Z" fill="#C9DEFF"/>
<path d="M73.9261 113.366C74.0861 114.343 75.2004 115.389 75.2004 115.389C75.2004 115.389 75.9147 114.04 75.7719 113.063C75.629 112.086 75.1319 111.76 74.629 111.84C74.1261 111.92 73.7604 112.389 73.9261 113.366Z" fill="#C9DEFF"/>
<path d="M71.4288 115.269C71.5945 116.246 72.7088 117.291 72.7088 117.291C72.7088 117.291 73.4231 115.943 73.2802 114.966C73.1373 113.989 72.6402 113.663 72.1373 113.743C71.6345 113.823 71.2459 114.286 71.4288 115.269Z" fill="#C9DEFF"/>
<path d="M68.8404 117.446C68.9261 118.434 69.9832 119.554 69.9832 119.554C69.9832 119.554 70.8004 118.263 70.7089 117.269C70.6175 116.274 70.1718 115.92 69.6575 115.966C69.1432 116.011 68.7489 116.457 68.8404 117.446Z" fill="#C9DEFF"/>
<path d="M66.189 119.766C66.2747 120.754 67.3319 121.874 67.3319 121.874C67.3319 121.874 68.149 120.589 68.0576 119.589C67.9662 118.589 67.5204 118.24 67.0062 118.286C66.4919 118.331 66.0976 118.777 66.189 119.766Z" fill="#C9DEFF"/>
<path d="M58.0055 125.194H57.7998C58.3712 114.646 56.9141 104.051 54.0684 98.2514L54.2569 98.16C57.1426 104 58.5884 114.611 58.0055 125.194Z" fill="#C9DEFF"/>
<path d="M54.1947 96.24C54.415 96.9693 54.4406 97.7435 54.269 98.4857C53.5933 98.1351 53.0218 97.6129 52.6118 96.9714C52.2233 96.1257 52.4233 95.6229 52.8575 95.4171C53.2918 95.2114 53.8061 95.3943 54.1947 96.24Z" fill="#C9DEFF"/>
<path d="M54.2857 100.274C54.9059 100.754 55.3888 101.389 55.6857 102.114C54.9125 102.223 54.1241 102.127 53.4 101.834C52.5657 101.354 52.4343 100.811 52.68 100.383C52.9257 99.9543 53.4743 99.7943 54.2857 100.274Z" fill="#C9DEFF"/>
<path d="M55.1776 104.029C56.0747 104.543 56.6804 106.006 56.6804 106.006C56.6804 106.006 55.1147 106.211 54.2176 105.697C53.3204 105.183 53.1833 104.606 53.4461 104.143C53.709 103.68 54.2861 103.52 55.1776 104.029Z" fill="#C9DEFF"/>
<path d="M55.4917 107.429C56.1829 107.845 56.7524 108.437 57.1431 109.143C57.1431 109.143 55.6803 109.537 54.7717 109.143C53.8631 108.749 53.6288 108.234 53.846 107.766C54.0631 107.297 54.5774 107.063 55.4917 107.429Z" fill="#C9DEFF"/>
<path d="M56.3769 110.743C56.9598 111.297 57.3874 111.995 57.6169 112.766C56.8224 112.791 56.0349 112.61 55.3312 112.24C54.5312 111.669 54.4512 111.097 54.7598 110.691C55.0684 110.286 55.5769 110.171 56.3769 110.743Z" fill="#C9DEFF"/>
<path d="M57.0169 114.331C57.7083 115.034 57.8912 116.537 57.8912 116.537C57.0939 116.426 56.3395 116.109 55.7026 115.617C55.0169 114.914 55.034 114.349 55.394 113.989C55.754 113.629 56.3312 113.629 57.0169 114.331Z" fill="#C9DEFF"/>
<path d="M57.1432 118.08C57.8346 118.783 58.0174 120.28 58.0174 120.28C58.0174 120.28 56.5203 120.069 55.8289 119.366C55.1374 118.663 55.1546 118.091 55.5203 117.737C55.886 117.383 56.446 117.377 57.1432 118.08Z" fill="#C9DEFF"/>
<path d="M57.1425 99.3143C56.6454 100.177 55.2282 100.766 55.2282 100.766C55.2282 100.766 55.0282 99.2457 55.5254 98.3829C56.0225 97.52 56.5825 97.3771 57.0339 97.6343C57.4854 97.8914 57.6225 98.4457 57.1425 99.3143Z" fill="#C9DEFF"/>
<path d="M58.2457 103.589C57.7287 104.129 57.0782 104.523 56.36 104.731C56.3341 103.984 56.5056 103.243 56.8571 102.583C57.3943 101.84 57.92 101.766 58.3028 102.046C58.6857 102.326 58.7828 102.857 58.2457 103.589Z" fill="#C9DEFF"/>
<path d="M59.3597 107.474C58.554 108.046 57.0283 108 57.0283 108C57.0283 108 57.474 106.543 58.2797 105.966C59.0855 105.389 59.6512 105.491 59.954 105.909C60.2569 106.326 60.1655 106.897 59.3597 107.474Z" fill="#C9DEFF"/>
<path d="M59.7943 110.6C58.9886 111.171 57.4629 111.126 57.4629 111.126C57.4629 111.126 57.9086 109.663 58.7143 109.091C59.52 108.52 60.0857 108.617 60.3829 109.034C60.68 109.451 60.6 110.023 59.7943 110.6Z" fill="#C9DEFF"/>
<path d="M60.0689 113.954C59.3089 114.589 57.7832 114.651 57.7832 114.651C57.7832 114.651 58.1146 113.166 58.8803 112.526C59.6461 111.886 60.2118 111.954 60.5432 112.349C60.8746 112.743 60.8346 113.32 60.0689 113.954Z" fill="#C9DEFF"/>
<path d="M60.3033 117.469C59.5433 118.103 58.0176 118.166 58.0176 118.166C58.0176 118.166 58.349 116.68 59.1147 116.046C59.8804 115.411 60.4461 115.474 60.7776 115.869C61.109 116.263 61.069 116.834 60.3033 117.469Z" fill="#C9DEFF"/>
<path d="M60.3375 121.143C59.5775 121.777 58.0518 121.84 58.0518 121.84C58.0518 121.84 58.3889 120.349 59.1489 119.714C59.9089 119.08 60.486 119.143 60.8118 119.537C61.1375 119.931 61.0975 120.474 60.3375 121.143Z" fill="#C9DEFF"/>
<path d="M65.9313 122.777C65.9313 122.777 70.5999 120.331 70.9827 117.577C71.3656 114.823 68.6341 114.091 70.9827 112.851C73.3313 111.611 75.3713 110.309 73.7941 107.64C72.217 104.971 71.7084 104.377 73.2227 102.823C74.737 101.269 76.537 99.2971 73.9999 98.3143C71.4627 97.3314 66.8627 100.251 64.6684 103.057C62.4741 105.863 62.5084 109.343 61.137 110.486C59.7656 111.629 59.3313 111.846 57.617 110.737C55.9027 109.629 53.3941 111.789 54.1884 116.623C54.9827 121.457 58.8741 126.337 58.8741 126.337L65.9313 122.777Z" fill="url(#paint0_linear_3655_4859)"/>
<path d="M62.189 124.514C62.189 124.474 61.6176 120.726 62.7604 114.766C62.7604 114.766 62.7604 114.766 62.789 114.766C64.109 113.126 69.4119 110.291 69.4633 110.263C69.5135 110.237 69.5339 110.176 69.509 110.126C69.4813 110.075 69.4183 110.055 69.3661 110.08C69.1547 110.194 64.429 112.72 62.8347 114.406C62.8347 114.377 62.8347 114.349 62.8347 114.32C64.1033 108.097 70.1033 102.32 70.1604 102.251C70.1807 102.232 70.1921 102.205 70.1921 102.177C70.1921 102.149 70.1807 102.122 70.1604 102.103C70.1187 102.064 70.0536 102.064 70.0119 102.103C69.9547 102.16 63.909 107.994 62.629 114.28C62.3246 115.756 62.1033 117.248 61.9661 118.749C60.0804 118.006 59.2976 115.32 59.2919 115.32C59.2753 115.264 59.2171 115.231 59.1604 115.246C59.1066 115.265 59.0766 115.322 59.0919 115.377C59.1992 115.734 59.3348 116.082 59.4976 116.417C59.9204 117.309 60.7033 118.526 61.949 118.983C61.7469 120.842 61.7469 122.718 61.949 124.577C61.946 124.586 61.946 124.596 61.949 124.606C61.9671 124.648 62.0124 124.672 62.0576 124.663C62.0992 124.683 62.1492 124.673 62.1799 124.639C62.2106 124.604 62.2143 124.553 62.189 124.514Z" fill="#C9DEFF"/>
<path d="M26.2861 120.24H26.0747C25.7261 109.326 23.2747 98.5714 19.8232 92.8114L20.0061 92.7029C23.429 98.4971 25.9147 109.291 26.2861 120.24Z" fill="#CADFFF"/>
<path d="M19.7545 90.7771C20.0424 91.5024 20.137 92.2901 20.0288 93.0629C19.3025 92.7616 18.668 92.2749 18.1888 91.6514C17.7088 90.8114 17.8688 90.28 18.3031 90.0286C18.7374 89.7771 19.2745 89.9371 19.7545 90.7771Z" fill="#CADFFF"/>
<path d="M20.2289 94.92C21.1318 95.3371 21.8347 96.6857 21.8347 96.6857C21.8347 96.6857 20.3489 97.0171 19.4461 96.6C18.5432 96.1829 18.3604 95.64 18.5718 95.1714C18.7832 94.7029 19.3261 94.4971 20.2289 94.92Z" fill="#CADFFF"/>
<path d="M21.4627 98.7086C22.4284 99.1543 23.177 100.606 23.177 100.606C23.177 100.606 21.5827 100.96 20.617 100.509C19.6513 100.057 19.4742 99.48 19.6799 98.9771C19.8856 98.4743 20.497 98.2857 21.4627 98.7086Z" fill="#CADFFF"/>
<path d="M22.0858 102.183C23.0515 102.486 23.9544 103.766 23.9544 103.766C23.9544 103.766 22.4858 104.303 21.5144 104C20.543 103.697 20.2801 103.166 20.4401 102.663C20.6001 102.16 21.143 101.88 22.0858 102.183Z" fill="#CADFFF"/>
<path d="M23.2969 105.509C24.1712 106.029 24.7541 107.48 24.7541 107.48C24.7541 107.48 23.1998 107.663 22.3255 107.149C21.4512 106.634 21.3198 106.051 21.5827 105.6C21.8455 105.149 22.4227 104.994 23.2969 105.509Z" fill="#CADFFF"/>
<path d="M24.2744 109.143C25.0458 109.8 25.3715 111.331 25.3715 111.331C25.3715 111.331 23.8115 111.246 23.0401 110.583C22.2687 109.92 22.2344 109.331 22.5715 108.937C22.9087 108.543 23.503 108.486 24.2744 109.143Z" fill="#CADFFF"/>
<path d="M24.7314 112.994C25.5029 113.657 25.8286 115.183 25.8286 115.183C25.8286 115.183 24.2686 115.097 23.4971 114.434C22.7257 113.771 22.6914 113.183 23.0286 112.789C23.3657 112.394 23.96 112.331 24.7314 112.994Z" fill="#CADFFF"/>
<path d="M23.0452 93.6743C22.6109 94.6114 21.2052 95.3429 21.2052 95.3429C21.2052 95.3429 20.8567 93.8 21.2967 92.8629C21.7367 91.9257 22.2967 91.72 22.7767 91.9543C23.2567 92.1886 23.4795 92.7371 23.0452 93.6743Z" fill="#CADFFF"/>
<path d="M24.5711 97.9771C24.0868 98.5791 23.4521 99.0424 22.7311 99.32C22.6384 98.5544 22.7487 97.778 23.0511 97.0686C23.5368 96.2514 24.074 96.1314 24.4911 96.3829C24.9083 96.6343 25.0625 97.1429 24.5711 97.9771Z" fill="#CADFFF"/>
<path d="M26.074 101.874C25.2912 102.543 23.7197 102.623 23.7197 102.623C23.7197 102.623 24.0454 101.086 24.8283 100.417C25.6112 99.7486 26.1997 99.8114 26.5426 100.211C26.8854 100.611 26.8569 101.211 26.074 101.874Z" fill="#CADFFF"/>
<path d="M26.7996 105.057C26.0167 105.72 24.4453 105.806 24.4453 105.806C24.4453 105.806 24.771 104.263 25.5539 103.6C26.3367 102.937 26.9253 102.989 27.2682 103.394C27.611 103.8 27.5767 104.389 26.7996 105.057Z" fill="#CADFFF"/>
<path d="M27.3824 108.486C26.6567 109.206 25.0967 109.406 25.0967 109.406C25.0967 109.406 25.3081 107.846 26.0338 107.12C26.7595 106.394 27.3538 106.411 27.7481 106.783C28.1424 107.154 28.1138 107.76 27.3824 108.486Z" fill="#CADFFF"/>
<path d="M27.9371 112.086C27.2114 112.806 25.6514 113.006 25.6514 113.006C25.6514 113.006 25.8628 111.446 26.5885 110.72C27.3142 109.994 27.9142 110.011 28.3028 110.389C28.6914 110.766 28.6685 111.36 27.9371 112.086Z" fill="#CADFFF"/>
<path d="M28.2974 115.829C27.5717 116.554 26.0117 116.754 26.0117 116.754C26.0117 116.754 26.2289 115.194 26.9546 114.469C27.6803 113.743 28.2746 113.76 28.6689 114.137C29.0631 114.514 29.0231 115.109 28.2974 115.829Z" fill="#CADFFF"/>
<path d="M28.8287 120.909C28.8287 120.909 28.5487 115.469 26.1316 113.926C23.7144 112.383 21.8402 114.623 21.703 111.863C21.5659 109.103 21.2059 106.646 18.023 106.971C14.8402 107.297 14.0573 107.543 13.2459 105.451C12.4344 103.36 11.3602 100.823 9.34301 102.777C7.32587 104.731 8.07444 110.314 9.76587 113.589C11.4573 116.863 14.7259 118.326 15.2116 120.109C15.6973 121.891 15.7087 122.394 13.9316 123.537C12.1544 124.68 13.0916 127.949 17.9773 129.286C22.863 130.623 29.1087 129.08 29.1087 129.08L28.8287 120.909Z" fill="url(#paint1_linear_3655_4859)"/>
<path d="M28.8399 125.171C28.7999 125.171 25.0342 124.08 19.9371 120.429C19.9371 120.429 19.9371 120.429 19.9371 120.394C18.9714 118.446 18.5999 112.246 18.5942 112.183C18.5882 112.125 18.5379 112.082 18.4799 112.086C18.4516 112.087 18.425 112.1 18.4066 112.122C18.3882 112.143 18.3796 112.172 18.3828 112.2C18.3828 112.44 18.7257 117.971 19.6171 120.2L19.5428 120.149C14.2514 116.269 11.4057 108.149 11.3771 108.057C11.3581 108 11.2967 107.97 11.2399 107.989C11.1855 108.01 11.1577 108.071 11.1771 108.126C11.2057 108.206 14.0685 116.4 19.4171 120.32C20.6718 121.238 21.9767 122.085 23.3257 122.857C21.8114 124.303 18.9599 123.88 18.9314 123.88C18.8731 123.87 18.8172 123.908 18.8057 123.966C18.8012 124.024 18.8399 124.078 18.8971 124.091C19.2759 124.141 19.6578 124.164 20.0399 124.16C21.0628 124.16 22.5371 123.937 23.5085 122.966C25.1709 123.952 26.9356 124.755 28.7714 125.36H28.7999C28.8482 125.359 28.8901 125.327 28.9028 125.28C28.907 125.234 28.8818 125.191 28.8399 125.171Z" fill="#CADFFF"/>
<path d="M140.08 122.149C140.08 122.149 137.76 119.331 137.657 117.629C137.503 115.091 137.24 114.583 136.2 113.206C135.16 111.829 136.034 109.297 138.04 109.857C140.045 110.417 139.988 107.223 140.165 105.183C140.343 103.143 143.891 100.04 144.851 102.326C145.811 104.611 144.063 105.183 145.08 106.794C146.097 108.406 147.114 109.463 145.691 111.783C144.268 114.103 142.508 119.669 142.508 119.669L140.08 122.149Z" fill="url(#paint2_linear_3655_4859)"/>
<path d="M137.383 111.503C138.181 112.715 139.16 113.798 140.286 114.714C140.881 111.158 141.76 107.656 142.914 104.24C142.932 104.188 142.988 104.16 143.04 104.177C143.092 104.194 143.12 104.251 143.103 104.303C143.074 104.383 140.749 111.103 140.246 116.56C141.88 115.8 143.267 114.594 144.246 113.08C144.275 113.034 144.335 113.019 144.383 113.046C144.428 113.073 144.443 113.131 144.417 113.177C143.393 114.761 141.932 116.016 140.211 116.789C140.126 117.756 140.126 118.729 140.211 119.697C140.215 119.749 140.177 119.794 140.126 119.8C140.104 119.809 140.079 119.809 140.057 119.8C140.033 119.785 140.018 119.759 140.017 119.731C139.907 118.138 139.982 116.537 140.24 114.96C139.059 114.013 138.033 112.887 137.2 111.623C137.176 111.575 137.191 111.517 137.234 111.486C137.256 111.468 137.284 111.459 137.312 111.462C137.34 111.466 137.366 111.48 137.383 111.503Z" fill="#CBE0FF"/>
<path d="M143.766 120.674C145.794 110.829 149.714 101.451 153.754 96.7829L153.903 96.9086C149.903 101.554 145.983 110.897 143.96 120.714L143.766 120.674Z" fill="#CBE0FF"/>
<path d="M154.285 95.0457C153.908 95.6608 153.699 96.3644 153.68 97.0857C154.382 96.9262 155.03 96.5853 155.56 96.0971C156.131 95.4171 156.063 94.9086 155.714 94.6171C155.365 94.3257 154.857 94.3657 154.285 95.0457Z" fill="#CBE0FF"/>
<path d="M153.189 98.7143C152.51 99.0091 151.919 99.4759 151.475 100.069C152.162 100.355 152.913 100.456 153.652 100.36C154.532 100.126 154.795 99.6629 154.663 99.2171C154.532 98.7714 154.069 98.48 153.189 98.7143Z" fill="#CBE0FF"/>
<path d="M151.48 101.949C150.748 102.261 150.11 102.759 149.629 103.394C150.365 103.703 151.169 103.813 151.96 103.714C152.903 103.457 153.172 102.96 153.04 102.474C152.909 101.989 152.423 101.714 151.48 101.949Z" fill="#CBE0FF"/>
<path d="M150.372 105C149.637 105.204 148.969 105.598 148.435 106.143C149.096 106.521 149.845 106.718 150.606 106.714C151.526 106.594 151.852 106.143 151.789 105.68C151.726 105.217 151.297 104.874 150.372 105Z" fill="#CBE0FF"/>
<path d="M148.755 107.817C148.086 108.183 147.526 108.719 147.132 109.371C147.86 109.595 148.635 109.622 149.378 109.451C150.246 109.114 150.463 108.617 150.292 108.166C150.12 107.714 149.629 107.486 148.755 107.817Z" fill="#CBE0FF"/>
<path d="M147.303 110.954C146.705 111.427 146.244 112.05 145.966 112.76C146.723 112.856 147.492 112.75 148.194 112.451C148.994 111.971 149.12 111.446 148.874 111.034C148.629 110.623 148.103 110.474 147.303 110.954Z" fill="#CBE0FF"/>
<path d="M146.286 114.36C145.691 114.835 145.232 115.457 144.954 116.166C145.709 116.262 146.476 116.155 147.177 115.857C147.977 115.383 148.103 114.851 147.857 114.44C147.611 114.029 147.086 113.88 146.286 114.36Z" fill="#CBE0FF"/>
<path d="M145.474 117.777C144.878 118.253 144.419 118.878 144.143 119.589C144.898 119.681 145.664 119.575 146.365 119.28C147.165 118.8 147.291 118.274 147.045 117.857C146.8 117.44 146.285 117.303 145.474 117.777Z" fill="#CBE0FF"/>
<path d="M150.857 97.1429C151.157 97.8539 151.64 98.473 152.257 98.9371C152.556 98.2249 152.663 97.4464 152.566 96.68C152.32 95.7657 151.834 95.5029 151.366 95.6286C150.897 95.7543 150.594 96.24 150.857 97.1429Z" fill="#CBE0FF"/>
<path d="M148.777 100.8C149.124 101.413 149.624 101.925 150.228 102.286C150.433 101.606 150.456 100.886 150.297 100.194C149.982 99.3829 149.514 99.1886 149.097 99.3486C148.68 99.5086 148.468 100 148.777 100.8Z" fill="#CBE0FF"/>
<path d="M146.818 104.097C147.384 104.614 148.075 104.974 148.823 105.143C148.801 104.374 148.576 103.625 148.172 102.971C147.572 102.246 147.029 102.206 146.652 102.514C146.275 102.823 146.218 103.371 146.818 104.097Z" fill="#CBE0FF"/>
<path d="M145.662 106.857C146.227 107.376 146.919 107.737 147.668 107.903C147.646 107.134 147.421 106.385 147.017 105.731C146.445 105.011 145.874 104.966 145.497 105.28C145.12 105.594 145.057 106.131 145.662 106.857Z" fill="#CBE0FF"/>
<path d="M144.571 109.863C145.096 110.425 145.76 110.837 146.497 111.057C146.529 110.29 146.36 109.527 146.005 108.846C145.434 108.08 144.92 108 144.52 108.274C144.12 108.549 144.045 109.097 144.571 109.863Z" fill="#CBE0FF"/>
<path d="M143.526 113.034C144.053 113.593 144.717 114.004 145.452 114.229C145.487 113.459 145.317 112.694 144.96 112.011C144.389 111.246 143.875 111.166 143.48 111.44C143.086 111.714 142.983 112.269 143.526 113.034Z" fill="#CBE0FF"/>
<path d="M137.908 125.714C137.908 125.714 137.6 120.726 139.623 119.063C141.646 117.4 143.623 119.251 143.451 116.726C143.28 114.2 143.354 111.914 146.308 111.88C149.263 111.846 149.983 111.966 150.508 110C151.034 108.034 151.743 105.577 153.788 107.143C155.834 108.709 155.731 113.88 154.531 117.04C153.331 120.2 150.497 121.88 150.24 123.554C149.983 125.229 150.028 125.691 151.766 126.537C153.503 127.383 152.994 130.474 148.68 132.206C144.366 133.937 138.503 133.143 138.503 133.143L137.908 125.714Z" fill="url(#paint3_linear_3655_4859)"/>
<path d="M138.343 129.577C138.378 129.577 141.698 128.189 145.972 124.326C145.972 124.326 145.972 124.326 145.972 124.291C146.658 122.417 146.349 116.72 146.343 116.663C146.343 116.61 146.382 116.566 146.435 116.56C146.46 116.558 146.486 116.567 146.505 116.584C146.524 116.602 146.536 116.626 146.538 116.651C146.538 116.88 146.829 121.954 146.246 124.08L146.309 124.029C150.732 119.937 152.475 112.223 152.492 112.149C152.497 112.122 152.513 112.1 152.536 112.086C152.559 112.072 152.586 112.067 152.612 112.074C152.664 112.086 152.697 112.137 152.686 112.189C152.686 112.269 150.909 120.04 146.44 124.189C145.392 125.16 144.289 126.072 143.138 126.92C144.669 128.063 147.229 127.406 147.252 127.394C147.277 127.387 147.304 127.391 147.326 127.404C147.349 127.416 147.365 127.438 147.372 127.463C147.387 127.516 147.356 127.572 147.303 127.589C146.962 127.674 146.614 127.733 146.263 127.766C145.115 127.95 143.939 127.693 142.972 127.046C141.551 128.119 140.018 129.034 138.4 129.777C138.377 129.784 138.352 129.781 138.33 129.77C138.309 129.758 138.293 129.738 138.286 129.714C138.271 129.689 138.268 129.658 138.279 129.631C138.291 129.604 138.315 129.584 138.343 129.577Z" fill="#CBE0FF"/>
<path d="M36.7139 117.714C36.7139 117.714 43.9196 108.634 55.0739 111.354C66.2282 114.074 65.4968 124.24 74.9653 125.069C84.4339 125.897 91.1253 109.72 106.125 114.183C121.125 118.646 121.32 128.086 126.017 128.657C130.714 129.229 143.891 120.777 150.851 125.069C157.811 129.36 159.422 135.966 153.8 145.914L6.54819 145.343C6.54819 145.343 -3.61181 133.063 12.4225 128.406C28.4568 123.749 21.8568 132.211 36.7139 117.714Z" fill="url(#paint4_linear_3655_4859)"/>
<path d="M91.6113 120.297C91.6113 120.297 91.6513 128.08 91.8799 129.789C92.1085 131.497 94.4856 150.166 94.6513 151.811L96.217 151.543C96.217 151.543 98.1656 140.474 97.9313 134.903C97.697 129.331 99.2742 120.286 99.2742 120.286L91.6113 120.297Z" fill="#FEC6BD"/>
<path d="M91.6113 120.297C91.6113 120.297 91.6513 128.08 91.8799 129.789C92.1085 131.497 94.4856 150.166 94.6513 151.811L96.217 151.543C96.217 151.543 98.1656 140.474 97.9313 134.903C97.697 129.331 99.2742 120.286 99.2742 120.286L91.6113 120.297Z" fill="url(#paint5_linear_3655_4859)"/>
<path d="M96 121.143C96 121.143 97.2057 128.829 97.7143 130.48C98.2229 132.131 103.343 150.24 103.754 151.84L105.263 151.343C105.263 151.343 105.531 140.103 104.451 134.634C103.371 129.166 103.531 120 103.531 120L96 121.143Z" fill="#FEC6BD"/>
<path d="M103.457 151.709C102.882 151.898 102.353 152.206 101.903 152.611C100.926 153.394 98.8514 153.286 98.4742 154.166C98.0971 155.046 98.8514 155.046 100.514 154.971C102.566 154.816 104.603 154.499 106.606 154.023C107.114 153.8 106.823 151.486 105.2 151.011L103.457 151.709Z" fill="#30343A"/>
<path d="M88.9833 93.9543C88.9833 93.9543 82.5147 85.8686 82.1719 84.8571C81.829 83.8457 81.8176 83.0629 82.4404 82.9486C82.4404 82.9486 83.149 82.8114 83.3776 83.7714C83.3776 83.7714 83.5947 84.6686 83.829 84.4286C83.829 84.4286 84.2462 83.8571 84.4004 84.1486C84.5547 84.44 84.2576 85.6343 84.8633 86.2571C84.8633 86.2571 90.2119 92.1714 90.5776 92.5086L88.9833 93.9543Z" fill="#FEC6BD"/>
<path d="M83.2227 86.68L84.9369 85.5086C84.9369 85.5086 90.7084 92.6057 91.2227 92.8914C91.7369 93.1771 96.3655 92.96 98.2398 94.5029C98.2398 94.5029 101.04 95.1371 101.097 95.8229C101.097 95.8229 101.931 97.8686 100.886 98.3943C100.886 98.3943 97.4055 101.126 89.1484 96.9657C89.1427 96.9657 86.0169 96.1771 83.2227 86.68Z" fill="#6DB3FA"/>
<path d="M83.2227 86.68L84.9369 85.5086C84.9369 85.5086 90.7084 92.6057 91.2227 92.8914C91.7369 93.1771 96.3655 92.96 98.2398 94.5029C98.2398 94.5029 101.04 95.1371 101.097 95.8229C101.097 95.8229 101.931 97.8686 100.886 98.3943C100.886 98.3943 97.4055 101.126 89.1484 96.9657C89.1427 96.9657 86.0169 96.1771 83.2227 86.68Z" fill="url(#paint6_linear_3655_4859)"/>
<path d="M83.2227 86.68L84.9369 85.5086C84.9369 85.5086 90.7084 92.6057 91.2227 92.8914C91.7369 93.1771 96.3655 92.96 98.2398 94.5029C98.2398 94.5029 101.04 95.1371 101.097 95.8229C101.097 95.8229 101.931 97.8686 100.886 98.3943C100.886 98.3943 97.4055 101.126 89.1484 96.9657C89.1427 96.9657 86.0169 96.1771 83.2227 86.68Z" fill="url(#paint7_linear_3655_4859)"/>
<path d="M92.3653 103.371C92.3195 105.303 92.8167 108.429 92.9881 110.446L101.668 111.069C101.668 111.069 105.628 98.2114 100.525 94.72L96.3538 94.3714C96.3538 94.3714 94.0681 95.56 92.8853 99.8914C92.8853 99.8914 92.4167 100.897 92.3653 103.371Z" fill="#6DB3FA"/>
<path d="M85.926 96.3029C85.926 96.3029 80.246 86.8629 80.0288 85.7543C79.8117 84.6457 79.9088 83.8057 80.6002 83.7771C80.6002 83.7771 81.3717 83.7314 81.4745 84.7771C81.4745 84.7771 81.5774 85.7543 81.8517 85.5314C81.8517 85.5314 82.3774 84.96 82.4917 85.32C82.606 85.68 82.1317 86.8629 82.6802 87.6057C82.6802 87.6057 87.486 94.5943 87.8231 95L85.926 96.3029Z" fill="#FEC6BD"/>
<path d="M80.8857 88.2286L82.8572 86.8571C82.8572 86.8571 88.3257 94.1714 88.8343 94.4571C89.3429 94.7429 93.9772 94.52 95.8515 96.0629C95.8515 96.0629 98.6515 96.7029 98.7086 97.3829C98.7086 97.3829 99.5429 99.4343 98.4972 99.96C98.4972 99.96 95.0172 102.686 86.7543 98.5314C86.8 98.52 83.6857 97.7143 80.8857 88.2286Z" fill="#6DB3FA"/>
<path d="M95.5889 87.76C95.1873 88.3687 94.8357 89.0088 94.5375 89.6743C93.9661 91.2571 94.5375 92.8229 94.9947 92.9314C95.4518 93.04 96.0347 93.16 96.0347 93.16L96.5147 94.4514L98.4689 94.7486L98.0575 91.7886C98.0575 91.7886 99.3775 89.5886 98.6804 89.0629C97.6938 88.531 96.6586 88.0947 95.5889 87.76Z" fill="#FEC6BD"/>
<path d="M101.852 87.7143C101.28 86.68 100.086 85.16 97.029 85.4286C94.2861 85.6686 94.4347 87.6171 95.6347 88.1886C96.8347 88.76 97.1033 89.1257 97.309 89.9829C97.5147 90.84 98.6804 95.1543 97.4061 96.3029C98.973 96.0433 100.427 95.3232 101.583 94.2343C103.64 92.3657 102.858 89.56 101.852 87.7143Z" fill="#37475E"/>
<path d="M80.8857 88.2286L82.8572 86.8571C82.8572 86.8571 88.3257 94.1714 88.8343 94.4571C89.3429 94.7429 93.9772 94.52 95.8515 96.0629C95.8515 96.0629 98.6515 96.7029 98.7086 97.3829C98.7086 97.3829 99.5429 99.4343 98.4972 99.96C98.4972 99.96 95.0172 102.686 86.7543 98.5314C86.8 98.52 83.6857 97.7143 80.8857 88.2286Z" fill="url(#paint8_linear_3655_4859)"/>
<path d="M99.0683 98.9486V105.646H92.4741C92.3932 104.887 92.3569 104.123 92.3655 103.36C92.3704 102.43 92.4719 101.503 92.6683 100.594C96.7426 101.343 98.5426 99.9371 98.5426 99.9371C98.8903 99.7332 99.0936 99.3509 99.0683 98.9486V98.9486Z" fill="#6DB3FA"/>
<path d="M94.4281 151.64C93.8303 151.74 93.2599 151.964 92.7538 152.297C91.6738 152.92 89.6395 152.503 89.131 153.32C88.6224 154.137 89.371 154.24 91.0281 154.417C93.0782 154.579 95.138 154.579 97.1881 154.417C97.731 154.28 97.7595 151.943 96.2567 151.229L94.4281 151.64Z" fill="#30343A"/>
<path d="M102.131 109.651C103.125 112.291 104.931 125.006 104.931 125.006C98.2968 129.606 89.9482 125.646 89.9482 125.646C90.8397 112.503 92.8054 108.531 92.8054 108.531L102.131 109.651Z" fill="#2A60B7"/>
<path d="M99.0683 98.9486V105.646H92.4741C92.3932 104.887 92.3569 104.123 92.3655 103.36C92.3704 102.43 92.4719 101.503 92.6683 100.594C96.7426 101.343 98.5426 99.9371 98.5426 99.9371C98.8903 99.7332 99.0936 99.3509 99.0683 98.9486V98.9486Z" fill="url(#paint9_linear_3655_4859)"/>
<path d="M117.046 87.8743C116.781 87.355 116.556 86.8163 116.372 86.2629C116.258 85.7714 115.646 84.36 115.315 84.9943C115.238 85.2964 115.184 85.6039 115.155 85.9143C115.155 86.1886 114.84 86.2229 114.32 85.96C113.8 85.6971 112.16 84.7829 112.16 84.7829C112.16 84.7829 111.755 84.5886 111.795 85.04C112.034 86.2565 112.832 87.2895 113.949 87.8286L115.789 88.9086L117.046 87.8743Z" fill="#FEC6BD"/>
<path d="M117.046 87.8743C116.781 87.355 116.556 86.8163 116.372 86.2629C116.258 85.7714 115.646 84.36 115.315 84.9943C115.238 85.2964 115.184 85.6039 115.155 85.9143C115.155 86.1886 114.84 86.2229 114.32 85.96C113.8 85.6971 112.16 84.7829 112.16 84.7829C112.16 84.7829 111.755 84.5886 111.795 85.04C112.034 86.2565 112.832 87.2895 113.949 87.8286L115.789 88.9086L117.046 87.8743Z" fill="url(#paint10_linear_3655_4859)"/>
<path d="M139.737 142.349L141.463 145.126L143.057 144.08L141.017 141.269L139.737 142.349Z" fill="#FEC6BD"/>
<path d="M141.018 144.789C140.511 145.317 140.122 145.946 139.875 146.634C139.303 148.011 137.018 149.086 137.149 150.234C137.28 151.383 138.052 150.943 139.76 149.914C141.839 148.576 143.807 147.074 145.646 145.423C146.058 144.897 144.423 142.623 142.435 143.051L141.018 144.789Z" fill="#30343A"/>
<path d="M126.891 143.749L126.72 147.011L128.628 147.063L128.56 143.589L126.891 143.749Z" fill="#FEC6BD"/>
<path d="M126.549 146.48C125.836 146.628 125.163 146.924 124.571 147.349C123.303 148.149 120.84 147.743 120.274 148.749C119.709 149.754 120.606 149.846 122.6 149.977C125.069 150.063 127.542 149.956 129.994 149.657C130.634 149.463 130.566 146.663 128.72 145.874L126.549 146.48Z" fill="#30343A"/>
<path d="M128.766 108.874C128.766 108.874 126.583 118.297 127.28 123.509C127.811 127.234 129.373 130.737 131.789 133.623L139.617 143.109L141.777 141.394C141.777 141.394 135.331 126.354 134.857 125.143C134.857 125.143 141.491 115.577 140.663 108.731L128.766 108.874Z" fill="#2A60B4"/>
<path d="M131.788 133.623L132.137 134.051C130.76 138.857 129.143 144.606 129.143 144.606L126.4 144.56C126.4 144.56 125.411 132.56 127.543 124.8C128.215 128.044 129.673 131.073 131.788 133.623Z" fill="#255299"/>
<path d="M131.788 133.623L132.137 134.051C130.76 138.857 129.143 144.606 129.143 144.606L126.4 144.56C126.4 144.56 125.411 132.56 127.543 124.8C128.215 128.044 129.673 131.073 131.788 133.623Z" fill="url(#paint11_linear_3655_4859)"/>
<path d="M116.777 86.8229L114.629 89.04C114.629 89.04 117.515 94.3943 122.292 97.5257C127.069 100.657 128.337 100.154 128.337 100.154C128.337 100.154 130.366 99.9543 135.115 95.2229L131.383 91.08C129.951 92.1055 128.685 93.3447 127.629 94.7543C127.629 94.7543 120.309 87.5086 116.777 86.8229Z" fill="#6DB3FA"/>
<path d="M116.777 86.8229L114.629 89.04C114.629 89.04 117.515 94.3943 122.292 97.5257C127.069 100.657 128.337 100.154 128.337 100.154C128.337 100.154 130.366 99.9543 135.115 95.2229L131.383 91.08C129.951 92.1055 128.685 93.3447 127.629 94.7543C127.629 94.7543 120.309 87.5086 116.777 86.8229Z" fill="url(#paint12_linear_3655_4859)"/>
<path d="M116.777 86.8229L114.629 89.04C114.629 89.04 117.515 94.3943 122.292 97.5257C127.069 100.657 128.337 100.154 128.337 100.154C128.337 100.154 130.366 99.9543 135.115 95.2229L131.383 91.08C129.951 92.1055 128.685 93.3447 127.629 94.7543C127.629 94.7543 120.309 87.5086 116.777 86.8229Z" fill="url(#paint13_linear_3655_4859)"/>
<path d="M106.091 73.3543L104.034 74.7886L115.166 90.2857L116.411 89.3143C116.851 88.9771 116.942 88.3514 116.617 87.9029L106.091 73.3543Z" fill="#FFE600"/>
<path d="M106.091 73.3543L104.034 74.7886L115.166 90.2857L116.411 89.3143C116.851 88.9771 116.942 88.3514 116.617 87.9029L106.091 73.3543Z" fill="url(#paint14_linear_3655_4859)"/>
<path d="M109.263 82.0743L110.914 84.3771L111.383 80.6743L109.714 78.3657L109.263 82.0743Z" fill="#FFD215"/>
<path d="M105.914 77.4114L107.571 79.72L108.04 76.0457L106.365 73.7314L105.914 77.4114Z" fill="#FFD215"/>
<path d="M130.983 78.4857C130.983 78.4857 130.531 80.3257 130.411 81.3429C130.148 83.5829 131.268 85.3429 131.88 85.3429C132.491 85.3429 133.297 85.3029 133.297 85.3029L134.331 86.8057L136.937 86.56L135.457 82.8857C135.457 82.8857 136.451 79.6229 135.383 79.1771C134.314 78.7314 130.983 78.4857 130.983 78.4857Z" fill="#FEC6BD"/>
<path d="M137.263 86.1714C137.263 86.1714 134.635 85.7486 133.915 86.2971C133.195 86.8457 131.006 89.0057 129.915 93.5657C129.435 95.5886 128.326 109.457 128.326 109.457C128.326 109.457 140.492 125.04 145.155 124.674C145.155 124.674 142.543 100.549 141.12 94.1829C139.698 87.8171 137.263 86.1714 137.263 86.1714Z" fill="#6DB3FA"/>
<path d="M132 76.8629C131.178 77.2514 130.166 79.8229 130.543 79.84C130.92 79.8571 132.435 79.9657 132.829 80.0114L133.046 81.04C133.046 81.04 133.132 80.32 133.766 80.5371C134.4 80.7543 134.04 81.9429 133.395 82.0971C133.147 84.0092 134.17 85.8604 135.92 86.6686C138.995 88.2686 137.715 95.6171 142.583 94.0971C147.452 92.5771 145.355 90.0114 142.092 85.7257C138.829 81.44 139.4 80.2343 137.84 78.2571C136.409 76.5637 134.042 75.9986 132 76.8629Z" fill="#37475E"/>
<path d="M116.977 89.7943C116.709 89.2733 116.482 88.7327 116.297 88.1771C116.182 87.6857 115.571 86.2743 115.24 86.9086C115.165 87.2128 115.113 87.5223 115.085 87.8343C115.085 88.1029 114.765 88.1429 114.245 87.8743C113.725 87.6057 112.085 86.7029 112.085 86.7029C112.085 86.7029 111.68 86.5086 111.725 86.96C111.96 88.1756 112.757 89.2079 113.874 89.7429L115.72 90.8286L116.977 89.7943Z" fill="#FEC6BD"/>
<path d="M116.977 89.7943C116.709 89.2733 116.482 88.7327 116.297 88.1771C116.182 87.6857 115.571 86.2743 115.24 86.9086C115.165 87.2128 115.113 87.5223 115.085 87.8343C115.085 88.1029 114.765 88.1429 114.245 87.8743C113.725 87.6057 112.085 86.7029 112.085 86.7029C112.085 86.7029 111.68 86.5086 111.725 86.96C111.96 88.1756 112.757 89.2079 113.874 89.7429L115.72 90.8286L116.977 89.7943Z" fill="url(#paint15_linear_3655_4859)"/>
<path d="M136.509 95.6686L136.617 106.389L128.617 106.469C128.737 105.074 129.291 98.7429 129.451 96.9886L136.509 95.6686Z" fill="url(#paint16_linear_3655_4859)"/>
<path d="M116.658 88.7371L114.709 91.1314C114.709 91.1314 118.052 96.2114 123.086 98.9143C128.12 101.617 129.343 101 129.343 101C129.343 101 131.343 100.623 135.658 95.4971L131.583 91.6971C130.242 92.8464 129.085 94.1956 128.155 95.6971C128.155 95.6971 120.235 89.1086 116.658 88.7371Z" fill="#6DB3FA"/>
<path d="M116.658 88.7371L114.709 91.1314C114.709 91.1314 118.052 96.2114 123.086 98.9143C128.12 101.617 129.343 101 129.343 101C129.343 101 131.343 100.623 135.658 95.4971L131.583 91.6971C130.242 92.8464 129.085 94.1956 128.155 95.6971C128.155 95.6971 120.235 89.1086 116.658 88.7371Z" fill="url(#paint17_linear_3655_4859)"/>
<path d="M13.1029 127.36C12.7214 127.995 12.2115 128.544 11.6057 128.971C10.4114 129.926 9.98858 132.434 8.82858 132.651C7.66858 132.869 7.88572 131.966 8.42286 130C9.15854 127.592 10.0833 125.245 11.1886 122.983C11.5886 122.411 14.2743 123.4 14.4114 125.463L13.1029 127.36Z" fill="#30343A"/>
<path d="M25.811 150.029C26.2609 150.613 26.584 151.284 26.7596 152C27.2053 153.463 29.3767 154.783 29.1481 155.937C28.9196 157.091 28.1596 156.566 26.531 155.366C24.5689 153.796 22.731 152.076 21.0338 150.223C20.6681 149.651 22.5653 147.514 24.531 148.149L25.811 150.029Z" fill="#30343A"/>
<path d="M27.9032 134.006C27.9032 134.006 23.8575 142.314 23.0518 148.034L26.4803 151.2C26.4803 151.2 36.1603 135.429 35.8632 131.429L27.9032 134.006Z" fill="#255299"/>
<path d="M27.9032 134.006C27.9032 134.006 23.8575 142.314 23.0518 148.034L26.4803 151.2C26.4803 151.2 36.1603 135.429 35.8632 131.429L27.9032 134.006Z" fill="url(#paint18_linear_3655_4859)"/>
<path d="M23.2172 111.091C23.2172 111.091 24.4229 121.6 28.9829 127.377C28.9829 127.377 15.2115 124.217 14.1772 124.274L12.4629 128.229C12.4629 128.229 25.2857 134.583 29.4457 135.583C33.6057 136.583 36.92 132.086 36.8743 128.726C36.8286 125.366 36.3429 110.44 34.9715 109.537C33.6 108.634 23.2172 111.091 23.2172 111.091Z" fill="#2A60B7"/>
<path d="M30.9886 82.1257C31.3682 82.913 31.6798 83.7312 31.9201 84.5714C32.3772 86.5314 31.4229 88.28 30.8744 88.3371C30.3258 88.3943 29.6115 88.4457 29.6115 88.4457L28.8458 89.8857L26.5029 89.9314L27.4458 86.5029C27.4458 86.5029 26.2344 83.7029 27.1429 83.1943C28.0515 82.6857 30.9886 82.1257 30.9886 82.1257Z" fill="#FEC6BD"/>
<path d="M32.1652 81.48C31.9195 82.4914 29.7367 83.1943 29.7367 83.1943C29.9037 83.4249 29.9625 83.7167 29.8979 83.994C29.8332 84.2714 29.6514 84.507 29.3995 84.64L29.2281 84.2343C29.149 84.0666 29.0106 83.9343 28.8395 83.8629C28.7128 83.8026 28.5742 83.7713 28.4338 83.7714C28.3037 83.7651 28.1736 83.7845 28.051 83.8286C27.9726 83.8533 27.8977 83.8879 27.8281 83.9314C27.2567 84.2743 27.6852 85.0743 28.011 85.4171C28.1458 85.5428 28.2118 85.7258 28.1881 85.9086C28.1907 85.9428 28.1907 85.9772 28.1881 86.0114C28.1142 86.4661 27.8688 86.8751 27.5024 87.1543C26.7938 87.5371 26.1481 85.4743 24.811 84.9714C23.4738 84.4686 23.411 83.3314 24.1538 82.9771C24.8967 82.6229 23.5824 81.8743 24.5938 81.1257C25.6052 80.3771 25.971 79.76 27.2281 80.0743C28.0795 80.2857 28.4052 80.5714 28.8738 80.6057C29.1833 80.6205 29.4838 80.4994 29.6967 80.2743C29.9873 79.8826 30.3598 79.5589 30.7881 79.3257C31.5252 79.0171 32.411 80.4686 32.1652 81.48Z" fill="#37475E"/>
<path d="M42.6113 79.4286C42.6113 79.4286 43.297 77.92 43.2513 77.44C43.2056 76.96 43.4399 76.2114 43.6399 76.2286C43.8399 76.2457 44.097 76.3371 44.2113 77.0686C44.3256 77.8 44.9028 77.2229 44.9028 77.2229L45.2056 79.5086L44.4742 80.3257L42.6113 79.4286Z" fill="#FEC6BD"/>
<path d="M42.6113 79.4286C42.6113 79.4286 43.297 77.92 43.2513 77.44C43.2056 76.96 43.4399 76.2114 43.6399 76.2286C43.8399 76.2457 44.097 76.3371 44.2113 77.0686C44.3256 77.8 44.9028 77.2229 44.9028 77.2229L45.2056 79.5086L44.4742 80.3257L42.6113 79.4286Z" fill="url(#paint19_linear_3655_4859)"/>
<path d="M28.8916 90.1657C28.8916 90.1657 33.6287 88.1829 36.3545 87.88C36.3545 87.88 39.4459 80.0743 42.5602 79.2686L44.9487 79.9029C44.9487 79.9029 43.8916 87.0057 41.7145 88.8629C40.1991 90.0694 38.4469 90.9436 36.5716 91.4286L29.2687 92.1314L28.8916 90.1657Z" fill="#6DB3FA"/>
<path d="M28.8916 90.1657C28.8916 90.1657 33.6287 88.1829 36.3545 87.88C36.3545 87.88 39.4459 80.0743 42.5602 79.2686L44.9487 79.9029C44.9487 79.9029 43.8916 87.0057 41.7145 88.8629C40.1991 90.0694 38.4469 90.9436 36.5716 91.4286L29.2687 92.1314L28.8916 90.1657Z" fill="url(#paint20_linear_3655_4859)"/>
<path d="M28.8916 90.1657C28.8916 90.1657 33.6287 88.1829 36.3545 87.88C36.3545 87.88 39.4459 80.0743 42.5602 79.2686L44.9487 79.9029C44.9487 79.9029 43.8916 87.0057 41.7145 88.8629C40.1991 90.0694 38.4469 90.9436 36.5716 91.4286L29.2687 92.1314L28.8916 90.1657Z" fill="url(#paint21_linear_3655_4859)"/>
<path d="M27.0233 89.1429C27.0233 89.1429 24.3662 89.04 23.0862 93.0057C21.9433 96.5943 22.1319 109.577 22.1833 112.011C22.1829 112.249 22.3546 112.452 22.589 112.491C23.8976 112.72 28.3947 113.309 36.0633 112.303C36.1965 112.286 36.3171 112.216 36.397 112.108C36.4769 112 36.5091 111.864 36.4862 111.731C36.0576 108.931 33.8576 95.16 31.6176 90.8686C31.6118 90.8467 31.5999 90.8269 31.5833 90.8114C31.0323 90.0643 30.2546 89.5151 29.3662 89.2457C28.5967 89.0787 27.8044 89.0439 27.0233 89.1429Z" fill="#6DB3FA"/>
<path d="M34.5604 101.057L28.4176 102.543L26.2861 93.8171L32.2518 92.3714C33.2181 95.2108 33.9895 98.1127 34.5604 101.057Z" fill="url(#paint22_linear_3655_4859)"/>
<path d="M52.7024 64.9486L54.7996 66.3257L44.0738 82.12L42.8053 81.1829C42.3572 80.8544 42.251 80.2295 42.5653 79.7714L52.7024 64.9486Z" fill="#FFE600"/>
<path d="M52.7024 64.9486L54.7996 66.3257L44.0738 82.12L42.8053 81.1829C42.3572 80.8544 42.251 80.2295 42.5653 79.7714L52.7024 64.9486Z" fill="url(#paint23_linear_3655_4859)"/>
<path d="M49.7655 73.7429L48.1712 76.0914L47.6055 72.4L49.2169 70.0457L49.7655 73.7429Z" fill="#FFD215"/>
<path d="M52.9881 68.9943L51.3938 71.3486L50.8281 67.6857L52.4396 65.3314L52.9881 68.9943Z" fill="#FFD215"/>
<path d="M44.5713 80.8743C44.6375 80.2825 44.6585 79.6864 44.6341 79.0914C44.5713 78.5771 44.6341 77.0114 45.2056 77.4971C45.3885 77.7585 45.5509 78.0336 45.6913 78.32C45.7884 78.5829 46.1027 78.5029 46.5084 78.0571C46.9141 77.6114 48.137 76.16 48.137 76.16C48.137 76.16 48.457 75.8286 48.5827 76.2743C48.7929 77.519 48.4031 78.7899 47.5313 79.7029L46.1656 81.4171L44.5713 80.8743Z" fill="#FEC6BD"/>
<path d="M44.5713 80.8743C44.6375 80.2825 44.6585 79.6864 44.6341 79.0914C44.5713 78.5771 44.6341 77.0114 45.2056 77.4971C45.3885 77.7585 45.5509 78.0336 45.6913 78.32C45.7884 78.5829 46.1027 78.5029 46.5084 78.0571C46.9141 77.6114 48.137 76.16 48.137 76.16C48.137 76.16 48.457 75.8286 48.5827 76.2743C48.7929 77.519 48.4031 78.7899 47.5313 79.7029L46.1656 81.4171L44.5713 80.8743Z" fill="url(#paint24_linear_3655_4859)"/>
<path d="M30.6002 91.2971C30.6002 91.2971 34.9031 89.2229 37.4574 88.6571C37.4574 88.6571 41.1545 81.9714 44.0802 80.7657C44.0802 80.7657 44.7888 80.1943 46.6345 81.48C46.6345 81.48 47.8116 82.6914 42.9945 91.7371C42.3897 92.8287 41.453 93.6994 40.3202 94.2229C37.6536 95.368 34.8106 96.0483 31.9145 96.2343C27.6745 96.3714 26.0974 96.0457 25.2116 94.1943C24.3259 92.3429 30.6002 91.2971 30.6002 91.2971Z" fill="#6DB3FA"/>
<path d="M30.6002 91.2971C30.6002 91.2971 34.9031 89.2229 37.4574 88.6571C37.4574 88.6571 41.1545 81.9714 44.0802 80.7657C44.0802 80.7657 44.7888 80.1943 46.6345 81.48C46.6345 81.48 47.8116 82.6914 42.9945 91.7371C42.3897 92.8287 41.453 93.6994 40.3202 94.2229C37.6536 95.368 34.8106 96.0483 31.9145 96.2343C27.6745 96.3714 26.0974 96.0457 25.2116 94.1943C24.3259 92.3429 30.6002 91.2971 30.6002 91.2971Z" fill="url(#paint25_linear_3655_4859)"/>
<circle cx="81.6342" cy="43.7886" r="28.6" fill="#FFE600"/>
<circle cx="81.6342" cy="43.7886" r="28.6" fill="url(#paint26_linear_3655_4859)"/>
<path d="M75.6343 58.1257L66.1428 49.4171C65.8422 49.1383 65.8219 48.6696 66.0971 48.3657L68.9543 45.2514C69.2353 44.9487 69.7083 44.9308 70.0114 45.2114L76.0857 50.7886L93.7143 34.0971C93.8529 33.9561 94.0423 33.8767 94.24 33.8767C94.4377 33.8767 94.6271 33.9561 94.7657 34.0971L97.7143 37.1943C97.8553 37.3329 97.9347 37.5223 97.9347 37.72C97.9347 37.9177 97.8553 38.1071 97.7143 38.2457L76.7086 58.12C76.5692 58.2675 76.3755 58.3515 76.1726 58.3526C75.9697 58.3537 75.7752 58.2717 75.6343 58.1257Z" fill="#FFDA00"/>
<path d="M75.6343 56.1486L66.1428 47.4286C65.8422 47.1498 65.8219 46.681 66.0971 46.3771L68.9543 43.2686C69.0876 43.121 69.2746 43.0331 69.4733 43.0245C69.672 43.0159 69.8658 43.0874 70.0114 43.2229L76.0857 48.8L93.7143 32.12C93.8529 31.979 94.0423 31.8996 94.24 31.8996C94.4377 31.8996 94.6271 31.979 94.7657 32.12L97.7143 35.2171C97.8553 35.3557 97.9347 35.5452 97.9347 35.7429C97.9347 35.9406 97.8553 36.13 97.7143 36.2686L76.6514 56.1429C76.367 56.413 75.9217 56.4155 75.6343 56.1486Z" fill="white"/>
<defs>
<linearGradient id="paint0_linear_3655_4859" x1="54.5733" y1="109.009" x2="68.108" y2="124.459" gradientUnits="userSpaceOnUse">
<stop stop-color="#CDEAFF"/>
<stop offset="1" stop-color="#F4FAFF"/>
</linearGradient>
<linearGradient id="paint1_linear_3655_4859" x1="8.48734" y1="130.676" x2="30.44" y2="130.311" gradientUnits="userSpaceOnUse">
<stop stop-color="#CEEBFF"/>
<stop offset="1" stop-color="#F5FBFF"/>
</linearGradient>
<linearGradient id="paint2_linear_3655_4859" x1="135.565" y1="121.393" x2="145.97" y2="121.633" gradientUnits="userSpaceOnUse">
<stop stop-color="#CFECFF"/>
<stop offset="1" stop-color="#F6FCFF"/>
</linearGradient>
<linearGradient id="paint3_linear_3655_4859" x1="151.661" y1="102.504" x2="131.645" y2="103.226" gradientUnits="userSpaceOnUse">
<stop stop-color="#CFECFF"/>
<stop offset="1" stop-color="#F6FCFF"/>
</linearGradient>
<linearGradient id="paint4_linear_3655_4859" x1="223.538" y1="181.484" x2="223.519" y2="116.284" gradientUnits="userSpaceOnUse">
<stop stop-color="#CDEAFF"/>
<stop offset="1" stop-color="#F4FAFF"/>
</linearGradient>
<linearGradient id="paint5_linear_3655_4859" x1="100.679" y1="118.075" x2="93.2224" y2="118.238" gradientUnits="userSpaceOnUse">
<stop stop-color="#F6AFA8"/>
<stop offset="1" stop-color="#F6AFA8" stop-opacity="0.01"/>
</linearGradient>
<linearGradient id="paint6_linear_3655_4859" x1="96.0179" y1="99.7357" x2="96.0917" y2="93.8739" gradientUnits="userSpaceOnUse">
<stop stop-color="#133E91" stop-opacity="0.4"/>
<stop offset="1" stop-color="#133E91" stop-opacity="0.01"/>
</linearGradient>
<linearGradient id="paint7_linear_3655_4859" x1="87.685" y1="105.13" x2="93.2835" y2="95.5663" gradientUnits="userSpaceOnUse">
<stop stop-color="#133E91" stop-opacity="0.4"/>
<stop offset="1" stop-color="#133E91" stop-opacity="0.01"/>
</linearGradient>
<linearGradient id="paint8_linear_3655_4859" x1="87.1921" y1="105.483" x2="91.1277" y2="97.2303" gradientUnits="userSpaceOnUse">
<stop stop-color="#133E91" stop-opacity="0.4"/>
<stop offset="1" stop-color="#133E91" stop-opacity="0.01"/>
</linearGradient>
<linearGradient id="paint9_linear_3655_4859" x1="88.9791" y1="99.0372" x2="93.0752" y2="104.231" gradientUnits="userSpaceOnUse">
<stop stop-color="#133E91" stop-opacity="0.4"/>
<stop offset="1" stop-color="#133E91" stop-opacity="0.01"/>
</linearGradient>
<linearGradient id="paint10_linear_3655_4859" x1="101.154" y1="79.5603" x2="102.189" y2="77.6041" gradientUnits="userSpaceOnUse">
<stop stop-color="#F6AFA8"/>
<stop offset="1" stop-color="#F6AFA8" stop-opacity="0.01"/>
</linearGradient>
<linearGradient id="paint11_linear_3655_4859" x1="130.599" y1="119.884" x2="124.937" y2="121.016" gradientUnits="userSpaceOnUse">
<stop stop-color="#133E91" stop-opacity="0.4"/>
<stop offset="1" stop-color="#133E91" stop-opacity="0.01"/>
</linearGradient>
<linearGradient id="paint12_linear_3655_4859" x1="124.476" y1="95.5131" x2="125.603" y2="92.5309" gradientUnits="userSpaceOnUse">
<stop stop-color="#133E91" stop-opacity="0.4"/>
<stop offset="1" stop-color="#133E91" stop-opacity="0.01"/>
</linearGradient>
<linearGradient id="paint13_linear_3655_4859" x1="131.451" y1="96.7498" x2="130.26" y2="93.8341" gradientUnits="userSpaceOnUse">
<stop stop-color="#133E91" stop-opacity="0.4"/>
<stop offset="1" stop-color="#133E91" stop-opacity="0.01"/>
</linearGradient>
<linearGradient id="paint14_linear_3655_4859" x1="113.069" y1="88.5221" x2="112.535" y2="84.5729" gradientUnits="userSpaceOnUse">
<stop stop-color="#FFD215"/>
<stop offset="0.52" stop-color="#FFE600"/>
<stop offset="1" stop-color="#FFE600"/>
</linearGradient>
<linearGradient id="paint15_linear_3655_4859" x1="101.086" y1="81.4731" x2="102.12" y2="79.5168" gradientUnits="userSpaceOnUse">
<stop stop-color="#F6AFA8"/>
<stop offset="1" stop-color="#F6AFA8" stop-opacity="0.01"/>
</linearGradient>
<linearGradient id="paint16_linear_3655_4859" x1="126.26" y1="101.067" x2="131.818" y2="103.141" gradientUnits="userSpaceOnUse">
<stop stop-color="#133E91" stop-opacity="0.4"/>
<stop offset="1" stop-color="#133E91" stop-opacity="0.01"/>
</linearGradient>
<linearGradient id="paint17_linear_3655_4859" x1="124.4" y1="106.37" x2="126.303" y2="97.8289" gradientUnits="userSpaceOnUse">
<stop stop-color="#133E91" stop-opacity="0.4"/>
<stop offset="1" stop-color="#133E91" stop-opacity="0.01"/>
</linearGradient>
<linearGradient id="paint18_linear_3655_4859" x1="28.529" y1="125.709" x2="20.7958" y2="136.192" gradientUnits="userSpaceOnUse">
<stop stop-color="#133E91" stop-opacity="0.4"/>
<stop offset="1" stop-color="#133E91" stop-opacity="0.01"/>
</linearGradient>
<linearGradient id="paint19_linear_3655_4859" x1="44.9788" y1="77.7364" x2="44.2211" y2="77.714" gradientUnits="userSpaceOnUse">
<stop stop-color="#F6AFA8"/>
<stop offset="1" stop-color="#F6AFA8" stop-opacity="0.01"/>
</linearGradient>
<linearGradient id="paint20_linear_3655_4859" x1="40.2638" y1="90.3795" x2="39.7255" y2="87.4954" gradientUnits="userSpaceOnUse">
<stop stop-color="#133E91" stop-opacity="0.4"/>
<stop offset="1" stop-color="#133E91" stop-opacity="0.01"/>
</linearGradient>
<linearGradient id="paint21_linear_3655_4859" x1="44.5178" y1="87.7516" x2="40.6036" y2="83.451" gradientUnits="userSpaceOnUse">
<stop stop-color="#133E91" stop-opacity="0.4"/>
<stop offset="1" stop-color="#133E91" stop-opacity="0.01"/>
</linearGradient>
<linearGradient id="paint22_linear_3655_4859" x1="33.2638" y1="88.0168" x2="26.5544" y2="92.8936" gradientUnits="userSpaceOnUse">
<stop stop-color="#133E91" stop-opacity="0.4"/>
<stop offset="1" stop-color="#133E91" stop-opacity="0.01"/>
</linearGradient>
<linearGradient id="paint23_linear_3655_4859" x1="49.7044" y1="80.8055" x2="50.0584" y2="76.8131" gradientUnits="userSpaceOnUse">
<stop stop-color="#FFD215"/>
<stop offset="0.52" stop-color="#FFE600"/>
<stop offset="1" stop-color="#FFE600"/>
</linearGradient>
<linearGradient id="paint24_linear_3655_4859" x1="48.9191" y1="78.2491" x2="46.7572" y2="77.5587" gradientUnits="userSpaceOnUse">
<stop stop-color="#F6AFA8"/>
<stop offset="1" stop-color="#F6AFA8" stop-opacity="0.01"/>
</linearGradient>
<linearGradient id="paint25_linear_3655_4859" x1="44.3772" y1="98.2168" x2="43.1317" y2="92.1702" gradientUnits="userSpaceOnUse">
<stop stop-color="#133E91" stop-opacity="0.4"/>
<stop offset="1" stop-color="#133E91" stop-opacity="0.01"/>
</linearGradient>
<linearGradient id="paint26_linear_3655_4859" x1="115.814" y1="60.5143" x2="97.1285" y2="40.2686" gradientUnits="userSpaceOnUse">
<stop stop-color="#FFD215"/>
<stop offset="1" stop-color="#FFDA00" stop-opacity="0.01"/>
</linearGradient>
</defs>
</svg>
