<svg width="36" height="36" viewBox="0 0 36 36" fill="none" xmlns="http://www.w3.org/2000/svg">
<path d="M33.5807 5.75062L30.8301 3L27.0824 6.74763L29.8331 9.49825L33.5807 5.75062Z" fill="#E6EEF1"/>
<path d="M15.0398 16.0816C14.4698 15.5116 14.4698 14.5916 15.0398 14.0216L18.1398 10.9216L20.1998 12.9816L17.0998 16.0816C16.5398 16.6516 15.6098 16.6516 15.0398 16.0816Z" fill="#FFDA00"/>
<path d="M20.5056 21.5474C19.9356 20.9774 19.9356 20.0574 20.5056 19.4874L23.6056 16.3874L25.6656 18.4474L22.5656 21.5474C22.0056 22.1174 21.0756 22.1174 20.5056 21.5474Z" fill="#FFDA00"/>
<path d="M15.0398 16.0816C14.4698 15.5116 14.4698 14.5916 15.0398 14.0216L18.1398 10.9216L20.1998 12.9816L17.0998 16.0816C16.5398 16.6516 15.6098 16.6516 15.0398 16.0816Z" fill="url(#paint0_linear_4607_7960)"/>
<path d="M20.5056 21.5475C19.9356 20.9774 19.9356 20.0575 20.5056 19.4875L23.6056 16.3875L25.6656 18.4475L22.5656 21.5475C22.0056 22.1175 21.0756 22.1175 20.5056 21.5475Z" fill="url(#paint1_linear_4607_7960)"/>
<path d="M27.3759 21.5616L15.0259 9.21163C14.6359 8.82163 14.6359 8.19163 15.0259 7.80163L16.3659 6.46163C16.7559 6.07163 17.3859 6.07163 17.7759 6.46163L30.1259 18.8116C30.5159 19.2016 30.5159 19.8316 30.1259 20.2216L28.7859 21.5616C28.3959 21.9516 27.7659 21.9516 27.3759 21.5616Z" fill="#508FEA"/>
<path d="M28.9661 18.6316L17.9561 7.62161L21.8461 3.73161C22.6261 2.95161 23.8961 2.95161 24.6761 3.73161L32.8561 11.9116C33.6361 12.6916 33.6361 13.9616 32.8561 14.7416L28.9661 18.6316Z" fill="#508FEA"/>
<path d="M27.3759 21.5616L15.0259 9.21163C14.6359 8.82163 14.6359 8.19163 15.0259 7.80163L16.3659 6.46163C16.7559 6.07163 17.3859 6.07163 17.7759 6.46163L30.1259 18.8116C30.5159 19.2016 30.5159 19.8316 30.1259 20.2216L28.7859 21.5616C28.3959 21.9516 27.7659 21.9516 27.3759 21.5616Z" fill="url(#paint2_linear_4607_7960)"/>
<path d="M29.4563 18.1416L18.4463 7.13161L21.8463 3.73161C22.6263 2.95161 23.8963 2.95161 24.6763 3.73161L32.8563 11.9116C33.6363 12.6916 33.6363 13.9616 32.8563 14.7416L29.4563 18.1416Z" fill="url(#paint3_linear_4607_7960)"/>
<path d="M30.1455 9.19162L27.3955 6.44162L30.8355 3.00162L33.5855 5.75162L30.1455 9.19162Z" fill="url(#paint4_linear_4607_7960)"/>
<path d="M9.74769 29.5899L6.99707 26.8393L3.00195 30.8344L5.75257 33.585L9.74769 29.5899Z" fill="#E6EEF1"/>
<path d="M21.5605 27.3774L9.21047 15.0274C8.82047 14.6374 8.19047 14.6374 7.80047 15.0274L6.46047 16.3674C6.07047 16.7574 6.07047 17.3874 6.46047 17.7774L18.8105 30.1274C19.2005 30.5174 19.8305 30.5174 20.2205 30.1274L21.5605 28.7874C21.9505 28.3974 21.9505 27.7674 21.5605 27.3774Z" fill="#508FEA"/>
<path d="M18.3795 29.2174L7.36953 18.2074L3.72953 21.8474C2.94953 22.6274 2.94953 23.8974 3.72953 24.6774L11.9095 32.8574C12.6895 33.6374 13.9595 33.6374 14.7395 32.8574L18.3795 29.2174Z" fill="#508FEA"/>
<path d="M21.5605 27.3774L9.21047 15.0274C8.82047 14.6374 8.19047 14.6374 7.80047 15.0274L6.46047 16.3674C6.07047 16.7574 6.07047 17.3874 6.46047 17.7774L18.8105 30.1274C19.2005 30.5174 19.8305 30.5174 20.2205 30.1274L21.5605 28.7874C21.9505 28.3974 21.9505 27.7674 21.5605 27.3774Z" fill="url(#paint5_linear_4607_7960)"/>
<path d="M18.1395 29.4574L7.12953 18.4474L3.72953 21.8474C2.94953 22.6274 2.94953 23.8974 3.72953 24.6774L11.9095 32.8574C12.6895 33.6374 13.9595 33.6374 14.7395 32.8574L18.1395 29.4574Z" fill="url(#paint6_linear_4607_7960)"/>
<path d="M9.19 30.1474L6.44 27.3974L3 30.8374L5.75 33.5874L9.19 30.1474Z" fill="url(#paint7_linear_4607_7960)"/>
<defs>
<linearGradient id="paint0_linear_4607_7960" x1="16.0746" y1="12.9802" x2="18.139" y2="15.0446" gradientUnits="userSpaceOnUse">
<stop stop-color="#E5B527" stop-opacity="0"/>
<stop offset="1" stop-color="#E5B527" stop-opacity="0.8"/>
</linearGradient>
<linearGradient id="paint1_linear_4607_7960" x1="21.5421" y1="18.4476" x2="23.6065" y2="20.5121" gradientUnits="userSpaceOnUse">
<stop stop-color="#E5B527" stop-opacity="0"/>
<stop offset="1" stop-color="#E5B527" stop-opacity="0.8"/>
</linearGradient>
<linearGradient id="paint2_linear_4607_7960" x1="15.6929" y1="7.13077" x2="29.4562" y2="20.8941" gradientUnits="userSpaceOnUse">
<stop offset="0.4" stop-color="#133E92" stop-opacity="0"/>
<stop offset="1" stop-color="#133E92" stop-opacity="0.4"/>
</linearGradient>
<linearGradient id="paint3_linear_4607_7960" x1="20.8545" y1="4.72216" x2="31.8652" y2="15.7328" gradientUnits="userSpaceOnUse">
<stop offset="0.4" stop-color="#133E92" stop-opacity="0"/>
<stop offset="1" stop-color="#133E92" stop-opacity="0.4"/>
</linearGradient>
<linearGradient id="paint4_linear_4607_7960" x1="29.1118" y1="4.72217" x2="31.8644" y2="7.47477" gradientUnits="userSpaceOnUse">
<stop stop-color="#243477" stop-opacity="0"/>
<stop offset="1" stop-color="#243477" stop-opacity="0.2"/>
</linearGradient>
<linearGradient id="paint5_linear_4607_7960" x1="7.12765" y1="15.6964" x2="20.8909" y2="29.4597" gradientUnits="userSpaceOnUse">
<stop offset="0.4" stop-color="#133E92" stop-opacity="0"/>
<stop offset="1" stop-color="#133E92" stop-opacity="0.4"/>
</linearGradient>
<linearGradient id="paint6_linear_4607_7960" x1="4.71812" y1="20.8576" x2="15.7288" y2="31.8683" gradientUnits="userSpaceOnUse">
<stop offset="0.4" stop-color="#133E92" stop-opacity="0"/>
<stop offset="1" stop-color="#133E92" stop-opacity="0.4"/>
</linearGradient>
<linearGradient id="paint7_linear_4607_7960" x1="4.71859" y1="29.1157" x2="7.47119" y2="31.8683" gradientUnits="userSpaceOnUse">
<stop stop-color="#243477" stop-opacity="0"/>
<stop offset="1" stop-color="#243477" stop-opacity="0.2"/>
</linearGradient>
</defs>
</svg>
