<svg width="280" height="280" viewBox="0 0 280 280" fill="none" xmlns="http://www.w3.org/2000/svg">
<path d="M150.18 255.59C219.873 255.59 276.37 199.093 276.37 129.4C276.37 59.7072 219.873 3.21002 150.18 3.21002C80.4874 3.21002 23.9902 59.7072 23.9902 129.4C23.9902 199.093 80.4874 255.59 150.18 255.59Z" fill="url(#paint0_linear_3215_1738)"/>
<path d="M112.36 204.22C103.16 202.22 99.79 197.22 99.79 185.82V161.31L15 142V230.78L114 252.45L139.42 210.05L112.36 204.22Z" fill="url(#paint1_linear_3215_1738)"/>
<path d="M200.79 226.78L206.25 178.78C202.337 177.853 198.229 178.203 194.53 179.78L111.34 211.49L120 267.72L200.79 226.78Z" fill="url(#paint2_linear_3215_1738)"/>
<path d="M155.67 262.36L139.77 257.38L167.35 243.44L183.26 248.43L155.67 262.36Z" fill="url(#paint3_linear_3215_1738)"/>
<path d="M239.06 126.86L113.48 99.08C109.567 98.1526 105.46 98.503 101.76 100.08L18.5703 131.81L158.27 167.81L176 191.11L171.34 258.22L164.34 275.22L248.34 243.22C257.98 240.61 264.84 230.22 264.84 216.22V165.38C264.82 147.28 253.26 130 239.06 126.86Z" fill="url(#paint4_linear_3215_1738)"/>
<path d="M239.06 126.86L113.48 99.08C109.567 98.1526 105.46 98.503 101.76 100.08L18.5703 131.81L158.27 167.81L176 191.11L171.34 258.22L164.34 275.22L248.34 243.22C257.98 240.61 264.84 230.22 264.84 216.22V165.38C264.82 147.28 253.26 130 239.06 126.86Z" fill="url(#paint5_linear_3215_1738)"/>
<path d="M153.82 159.63L28.2405 131.85C14.0005 128.7 2.48047 140.87 2.48047 159V209.92C2.48047 228 14.0005 245.25 28.2405 248.39L113.1 267.16L117.64 268.16C119.93 268.66 121.79 266.71 121.79 263.8V218.35C121.79 215.62 120.05 213.02 117.91 212.55L112.83 211.42C110.69 210.95 108.95 212.78 108.95 215.51V249.9L31.1105 232.68C22.4105 230.76 15.3305 220.17 15.3305 209.08V165.23C15.3305 154.14 22.4105 146.69 31.1105 148.61L151.27 175.19C159.98 177.12 167.06 187.71 167.06 198.79V242.65C167.06 253.74 159.98 261.19 151.27 259.27L141.78 257.17C139.61 256.69 137.85 258.54 137.85 261.31V267.62C137.85 270.39 139.61 273.03 141.78 273.51L153.78 276.17C167.98 279.31 179.541 267.17 179.541 249.06V198.14C179.58 180.05 168 162.77 153.82 159.63Z" fill="#D3E6FF"/>
<path d="M48.9805 193.425L27.2305 202.305V175.545L48.9705 166.655L48.9805 193.425Z" fill="#70A1E8"/>
<path fill-rule="evenodd" clip-rule="evenodd" d="M54 169.638L74.2043 162V164L54 171.638V169.638Z" fill="#5B99E7"/>
<path fill-rule="evenodd" clip-rule="evenodd" d="M54 174.638L74.2043 167V169L54 176.638V174.638Z" fill="#5B99E7"/>
<path fill-rule="evenodd" clip-rule="evenodd" d="M54 179.638L82.4722 168.52V170.52L54 181.638V179.638Z" fill="#5B99E7"/>
<path fill-rule="evenodd" clip-rule="evenodd" d="M54 185.118L82.4722 174V176L54 187.118V185.118Z" fill="#5B99E7"/>
<path d="M48.6702 165.085L27.5202 173.725C26.5775 174.225 25.9915 175.208 26.0001 176.275V202.275C26.0001 203.275 26.6902 203.875 27.5402 203.535L48.6902 194.885C49.6272 194.398 50.2165 193.431 50.2202 192.375V166.375C50.2102 165.335 49.5202 164.775 48.6702 165.085ZM47.9102 188.425C45.9528 189.453 44.7193 191.474 44.7002 193.685L31.5102 199.085C31.5102 196.905 30.0702 195.715 28.3002 196.445V180.235C30.2576 179.207 31.491 177.186 31.5102 174.975L44.7102 169.585C44.7102 171.775 46.1502 172.955 47.9202 172.225L47.9102 188.425Z" fill="#8CC0F9"/>
<path d="M44.1795 179.365L38.0995 189.755L32.0195 184.345L34.0395 180.585L42.1595 177.265L44.1795 179.365Z" fill="#A9CEFF"/>
<path d="M34.0395 180.585L32.0195 184.345L36.0695 182.685L34.0395 180.585Z" fill="#8CC0F9"/>
<path d="M38.1003 178.925L36.0703 182.685L40.1303 181.025L38.1003 178.925Z" fill="#8CC0F9"/>
<path d="M42.1599 177.265L40.1299 181.025L44.1799 179.365L42.1599 177.265Z" fill="#8CC0F9"/>
<path d="M38.0996 189.755L40.1296 181.025L44.1796 179.365L38.0996 189.755Z" fill="#81B7F2"/>
<path d="M38.0995 189.755L32.0195 184.345L36.0695 182.685L38.0995 189.755Z" fill="#81B7F2"/>
<path d="M38.1003 189.755L36.0703 182.685L40.1303 181.025L38.1003 189.755Z" fill="#A9CEFF"/>
<path d="M56.7002 193C56.7002 193 58.7002 192 59.0402 191.69C59.3802 191.38 59.0402 191.4 58.7102 191.49C58.3802 191.58 58.0602 191.74 58.0202 191.49C57.9802 191.24 59.4602 189.67 59.2102 189.49C58.9602 189.31 58.2102 190.41 58.0902 190.37C57.9702 190.33 59.0902 188.9 58.8702 188.74C58.6502 188.58 57.7402 190.14 57.6002 190.06C57.4602 189.98 58.4502 188.76 58.2302 188.65C58.0102 188.54 57.1602 190.1 57.0202 190.05C56.8802 190 57.5402 188.76 57.3402 188.73C57.1402 188.7 56.2602 190.22 56.1102 191.06C56.0385 191.529 55.8862 191.983 55.6602 192.4L56.7002 193Z" fill="#FEC6BD"/>
<path d="M70.9997 202C71.1897 198.68 70.6397 193.59 65.6297 193.6C61.2197 193.6 61.2497 199.19 61.2497 199.19C61.2621 200.433 60.8882 201.649 60.1797 202.67C60.1797 202.67 70.8197 204.84 70.9997 202Z" fill="#181F3D"/>
<path d="M50.38 256.71C50.38 256.71 45.29 258.2 45.29 259.71C45.29 261.22 52.54 258.34 52.54 258.34V256.74L50.38 256.71Z" fill="#181F3D"/>
<path d="M48.4596 236.21C47.7996 242.6 50.3796 256.71 50.3796 256.71H52.5196C52.5196 256.71 51.9896 246.39 52.1296 238.3C57.3396 234.13 49.1096 229.82 48.4596 236.21Z" fill="#FEC6BD"/>
<path d="M54.0495 237.14C53.3995 243.53 57.2495 257.52 57.2495 257.52H59.3995C59.3995 257.52 58.8695 247.21 58.9995 239.12C64.2195 235 54.6995 230.75 54.0495 237.14Z" fill="#FEC6BD"/>
<path d="M47.8702 234.52C47.6802 236.08 47.4402 239.09 47.4602 240.46C47.4602 240.46 60.8702 245.15 61.3002 239.96C74.7302 234.74 75.6402 231.22 74.6002 227.05C74.1001 224.823 73.3101 222.671 72.2502 220.65H60.6402C60.6402 220.65 48.3302 230.86 47.8702 234.52Z" fill="#133E90"/>
<path d="M54.4402 227.04L68.4102 227.7L64.2302 232.92L49.7402 232.24L54.4402 227.04Z" fill="#D1DEEE"/>
<path d="M72.8102 206.66C71.4592 205.207 69.6463 204.267 67.6802 204C66.5458 203.84 65.3945 203.84 64.2602 204L52.1202 203.5L56.7602 193L55.7602 192.31C55.7602 192.31 47.4702 200.11 47.5902 205.12C47.6902 209.21 55.9102 210.65 58.9302 211.04C59.0592 214.31 59.6483 217.545 60.6802 220.65H72.2502C72.2502 220.65 72.4602 219.3 72.6902 217.43L74.4702 221.26L67.6202 226.71L68.8502 228.37C68.8502 228.37 77.2702 225.09 79.1002 223.26C79.8902 222.47 79.3202 220.44 79.1002 219.54C78.5937 217.315 77.8459 215.152 76.8702 213.09C75.8858 210.735 74.5134 208.561 72.8102 206.66Z" fill="#1969E6"/>
<path d="M70.64 212L69.25 220.68H72.25C72.25 220.68 72.46 219.33 72.69 217.46L70.64 212Z" fill="url(#paint6_linear_3215_1738)"/>
<path d="M46.9301 222.1L59.1301 222.48C59.9215 222.482 60.6279 222.977 60.9001 223.72L64.2301 232.92L49.7401 232.24L46.1701 223.19C46.0785 222.941 46.1142 222.664 46.2657 222.447C46.4171 222.229 46.6652 222.1 46.9301 222.1Z" fill="#B2C6DA"/>
<path d="M67.2399 201.42C67.0589 202.261 67.0898 203.134 67.3299 203.96C67.3299 203.96 66.4399 205.05 65.4499 204.96C64.2599 204.86 64.3699 204.03 64.3699 204.03C64.6945 203.122 64.8635 202.165 64.8699 201.2C64.8699 201.2 67.3399 200.55 67.2399 201.42Z" fill="#FEC6BD"/>
<path d="M67.2399 201.42C67.0589 202.261 67.0898 203.134 67.3299 203.96C67.3299 203.96 66.4399 205.05 65.4499 204.96C64.2599 204.86 64.3699 204.03 64.3699 204.03C64.6945 203.122 64.8635 202.165 64.8699 201.2C64.8699 201.2 67.3399 200.55 67.2399 201.42Z" fill="url(#paint7_linear_3215_1738)"/>
<path d="M65.4698 195.54C63.9352 195.567 62.7086 196.825 62.7198 198.36C62.7198 200.23 63.3998 202.83 65.4698 202.73C67.8398 202.62 68.3098 200.86 68.3898 198.46C68.4172 197.69 68.1281 196.942 67.5897 196.39C67.0513 195.838 66.3106 195.531 65.5398 195.54H65.4698Z" fill="#FEC6BD"/>
<path d="M57.2499 257.44C57.2499 257.44 52.1699 258.93 52.1699 260.44C52.1699 261.95 59.4199 259 59.4199 259L59.3699 257.41L57.2499 257.44Z" fill="#181F3D"/>
<path d="M67.4297 199.37C67.4297 199.873 67.8371 200.28 68.3397 200.28C68.8423 200.28 69.2497 199.873 69.2497 199.37C69.2497 198.867 68.8423 198.46 68.3397 198.46C67.8371 198.46 67.4297 198.867 67.4297 199.37Z" fill="#FEC6BD"/>
<path d="M67.6196 226.71C66.4909 226.593 65.3578 226.887 64.4296 227.54C63.6796 228.18 64.2696 228.45 64.6196 228.21C64.9742 228.066 65.3604 228.018 65.7396 228.07C65.3186 228.585 64.8068 229.019 64.2296 229.35C63.1696 230 63.6896 231.1 65.5196 230.51C66.771 230.045 67.907 229.315 68.8496 228.37L67.6196 226.71Z" fill="#FEC6BD"/>
<path d="M68.3897 198.46C66.886 197.748 65.5501 196.725 64.4697 195.46C67.5397 194.26 68.8597 196.41 68.3897 198.46Z" fill="#181F3D"/>
<path d="M46.9297 222.1L59.1297 222.48C59.9211 222.482 60.6275 222.977 60.8997 223.72L64.2297 232.92L60.7497 223.78C60.4508 223.143 59.8395 222.71 59.1397 222.64L46.9297 222.1Z" fill="white"/>
<path d="M212.72 167C212.72 167 217.8 168.49 217.8 170C217.8 171.51 210.55 168.63 210.55 168.63V167.04L212.72 167Z" fill="#181F3D"/>
<path d="M206.6 168.21C206.6 168.21 211.69 169.71 211.69 171.21C211.69 172.71 204.43 169.84 204.43 169.84V168.24L206.6 168.21Z" fill="#181F3D"/>
<path d="M201.7 129.65C202.686 131.409 203.775 133.109 204.96 134.74C204.96 134.74 214.74 139.56 215.4 145.95C216.06 152.34 212.72 166.95 212.72 166.95H210.57C210.57 166.95 209.57 156.9 209.4 148.81C204.18 144.64 197.66 138.38 197.66 138.38V130.75L201.7 129.65Z" fill="#255299"/>
<path d="M201.7 129.65C202.686 131.409 203.775 133.109 204.96 134.74C204.96 134.74 214.74 139.56 215.4 145.95C216.06 152.34 212.72 166.95 212.72 166.95H210.57C210.57 166.95 209.57 156.9 209.4 148.81C204.18 144.64 197.66 138.38 197.66 138.38V130.75L201.7 129.65Z" fill="url(#paint8_linear_3215_1738)"/>
<path d="M203.85 140.73C206.236 143.127 207.801 146.218 208.32 149.56C209.32 157.9 206.62 168.21 206.62 168.21H204.48C204.48 168.21 202.32 156.6 201.8 150.21C188.36 144.99 187.45 141.47 188.49 137.29C188.997 135.068 189.786 132.921 190.84 130.9H202.21L204.96 134.72C204.96 134.72 203.08 139.9 203.85 140.73Z" fill="#2A60B7"/>
<path d="M202.22 131.71C202.22 131.71 201.27 132.54 201.22 133.04C201.17 133.54 202.22 134.76 202.63 134.29C202.94 133.678 203.158 133.025 203.28 132.35L202.22 131.71Z" fill="#E3ABA6"/>
<path d="M202.49 115.43C202.49 115.43 205.61 117.71 206.7 125.19C206.92 126.7 203.27 132.82 203.27 132.82L202 131.73L203.25 126.88L202.72 125.71L201.15 120C201.15 120 198.24 114.09 198.69 114.22C202.34 115.21 202.49 115.43 202.49 115.43Z" fill="#6DB3FA"/>
<path d="M204.7 125.84C205.07 127.63 203.25 126.84 203.25 126.84L202.72 125.67L202.9 119.97C202.9 119.97 203.57 120.32 204.7 125.84Z" fill="url(#paint9_linear_3215_1738)"/>
<path d="M190.84 130.9C190.84 130.9 191.02 119.4 190.79 117.53C191.534 116.197 192.692 115.143 194.09 114.53C195.563 113.998 197.15 113.867 198.69 114.15C198.69 114.15 202.88 118.15 202.9 119.98C202.931 123.628 202.7 127.274 202.21 130.89L190.84 130.9Z" fill="#6DB3FA"/>
<path d="M200.07 109.58C200.504 109.313 200.807 108.879 200.91 108.38C201.122 107.597 201.08 106.768 200.79 106.01C200.405 105.341 199.755 104.865 199 104.7C199 104.7 198.7 103.7 196.92 103.7C195.14 103.7 194.69 104.64 193.76 105.31C193.536 105.476 193.299 105.623 193.05 105.75C192.189 106.184 191.806 107.207 192.17 108.1C192.685 109.472 193.563 110.679 194.71 111.59C195.301 111.959 196.05 111.959 196.64 111.59L200.07 109.58Z" fill="#30343A"/>
<path d="M201 109.29C200.8 109.69 200.64 110.1 200.2 110.1C199.985 110.1 199.779 110.015 199.627 109.863C199.475 109.711 199.39 109.505 199.39 109.29C199.39 108.85 199.78 108.84 200.18 108.64C200.58 108.44 201.2 108.88 201 109.29Z" fill="#F2B0A9"/>
<path d="M196 111.29L195.75 114.2C196.196 114.572 196.759 114.774 197.34 114.77C197.85 114.818 198.354 114.638 198.72 114.28L198.21 111.45L196 111.29Z" fill="#FEC6BD"/>
<path d="M196 111.29L195.75 114.2C196.196 114.572 196.759 114.774 197.34 114.77C197.85 114.818 198.354 114.638 198.72 114.28L198.21 111.45L196 111.29Z" fill="url(#paint10_linear_3215_1738)"/>
<path d="M198.27 106.47C198.607 106.416 198.953 106.454 199.27 106.58C199.941 107.024 200.343 107.776 200.34 108.58C200.34 110.46 199.65 113.03 197.58 112.96C194.66 112.87 194.71 108.85 194.71 108.85C195.196 108.818 195.618 108.506 195.79 108.05C195.922 107.28 196.392 106.609 197.07 106.22C197.486 106.08 197.945 106.175 198.27 106.47Z" fill="#FEC6BD"/>
<path d="M195.67 109.62C195.67 110.123 195.263 110.53 194.76 110.53C194.25 110.53 193.83 109.77 193.83 109.27C193.83 108.77 194.1 108.86 194.6 108.86C195.1 108.86 195.67 109.11 195.67 109.62Z" fill="#FEC6BD"/>
<path d="M200.52 132.05C201.271 131.973 202.025 132.172 202.64 132.61C203.14 133.03 202.75 133.21 202.52 133.06C202.284 132.959 202.025 132.925 201.77 132.96C202.048 133.302 202.387 133.591 202.77 133.81C203.47 134.24 203.13 134.97 201.91 134.58C201.078 134.276 200.323 133.791 199.7 133.16L200.52 132.05Z" fill="#FEC6BD"/>
<path d="M189.92 126.77C190.62 127.69 199.32 131.01 199.32 131.01C199.32 131.01 194.32 126.67 192.4 125.84L192.8 119.56C192.8 119.56 189.22 125.86 189.92 126.77Z" fill="url(#paint11_linear_3215_1738)"/>
<path d="M189.92 126.77C190.62 127.69 199.32 131.01 199.32 131.01C199.32 131.01 194.32 126.67 192.4 125.84L192.8 119.56C192.8 119.56 189.22 125.86 189.92 126.77Z" fill="url(#paint12_linear_3215_1738)"/>
<path d="M195.77 114.15C195.77 114.15 189.31 114.46 188.15 119.08C187.15 123.01 186.15 127.72 186.87 128.64C187.59 129.56 194.68 132.84 199.97 133.54L200.71 131.88C200.71 131.88 193.23 127.17 191.36 126.34L192.8 119.56L195.77 114.15Z" fill="#6DB3FA"/>
<path d="M239.94 115.15V176.55" stroke="#5A6268" stroke-width="0.25" stroke-linecap="round"/>
<path d="M202.03 132.94L241.92 114.28" stroke="#31465B" stroke-width="0.5" stroke-linecap="round"/>
<path d="M126.49 127.34L127.86 129.56L128.7 129.01L127.73 126.58L126.49 127.34Z" fill="#FEC6BD"/>
<path d="M128.35 128.39L127.86 129.56C127.35 129.962 126.875 130.407 126.44 130.89C125.89 131.53 124.88 131.11 124.27 131.89C123.66 132.67 126.4 132.41 127.38 132.18C128.401 131.797 129.335 131.216 130.13 130.47C130.71 130 129.16 127.88 128.35 128.39Z" fill="#30343A"/>
<path d="M113.84 106.83C113.84 106.83 115.05 114.38 118.76 118.57C122.47 122.76 126.49 127.34 126.49 127.34L127.96 126.6C127.96 126.6 126.06 120.26 124.81 115.85C123.56 111.44 121.35 100.05 121.09 95.08L113.84 106.83Z" fill="#255297"/>
<path d="M113.84 106.83C113.84 106.83 115.05 114.38 118.76 118.57C122.47 122.76 126.49 127.34 126.49 127.34L127.96 126.6C127.96 126.6 126.06 120.26 124.81 115.85C123.56 111.44 121.35 100.05 121.09 95.08L113.84 106.83Z" fill="url(#paint13_linear_3215_1738)"/>
<path d="M102.07 127.91L100.99 130.85L102.25 131.76L103.48 128.5L102.07 127.91Z" fill="#FEC6BD"/>
<path d="M101.15 130.37C100.668 130.22 100.16 130.176 99.6596 130.24C98.6596 130.3 97.2596 129.24 96.5796 129.66C95.8996 130.08 96.4196 130.43 97.5796 131.18C99.0488 132.054 100.583 132.813 102.17 133.45C102.63 133.54 103.53 131.83 102.66 130.73L101.15 130.37Z" fill="#30343A"/>
<path d="M107.67 94.44C107.67 94.44 105.29 106.18 104 115.12C102.71 124.06 101.89 128 101.89 128L103.96 128.6C103.96 128.6 107.02 123.46 109.74 118.15C111.512 114.526 112.887 110.72 113.84 106.8C113.84 106.8 121.01 102.26 121.09 95.05L107.67 94.44Z" fill="#2A60B7"/>
<path d="M100.85 77.21C100.85 77.21 99.2496 76.21 99.2496 75.57C99.2496 74.93 98.6396 73.71 99.2496 73.89C99.8596 74.07 101.67 76.3 101.67 76.3L100.85 77.21Z" fill="#FEC6BD"/>
<path d="M110.3 69.27C110.3 69.27 106.54 78.12 106.16 79.58C105.78 81.04 104.6 79.58 103.57 78.38C102.54 77.18 101.71 76.3 101.71 76.3L100.85 77.21C100.85 77.21 103.74 85.11 105.68 86.06C107.62 87.01 110.3 85.28 110.3 85.28V69.27Z" fill="#508FEA"/>
<path d="M104.43 61.45C104.348 62.4984 104.348 63.5516 104.43 64.6C104.79 67.03 106.64 68.6 107.29 68.41C107.94 68.22 108.77 67.97 108.77 67.97L110.28 69.27L112.96 68.27L110.37 64.82C110.37 64.82 110.5 61.11 109.24 60.93C107.624 60.9481 106.013 61.1222 104.43 61.45Z" fill="#FEC6BD"/>
<path d="M106.33 62.09C106.33 62.09 103.54 62.27 102.82 61.24C102.1 60.21 102.44 58.16 103.45 58.14C104.46 58.12 105.23 59.14 106.7 59.05C108.17 58.96 109.23 58.24 110.31 58.87C111.54 59.5168 112.165 60.9237 111.82 62.27C111.33 63.53 110.82 64.88 110.1 64.88C109.38 64.88 109.1 64.36 109.28 63.88C109.46 63.4 109.63 62.25 108.82 62.12C108.493 62.0437 108.148 62.1086 107.87 62.2987C107.593 62.4889 107.408 62.7869 107.36 63.12V63.65C106.997 63.6195 106.668 63.4241 106.467 63.1199C106.266 62.8156 106.216 62.4361 106.33 62.09Z" fill="#30343A"/>
<path d="M112.24 67.41C112.24 67.41 112.24 68.41 110.3 69.27C108.886 72.6163 107.963 76.1495 107.56 79.76C107.26 84.59 107.67 94.44 107.67 94.44C107.67 94.44 116.04 95.73 121.09 95.08C121.09 95.08 122.91 81.01 119.32 74.92C115.73 68.83 112.24 67.41 112.24 67.41Z" fill="#6DB1F8"/>
<path d="M97.2598 71.9L101 76.74L101.55 76C101.658 75.8473 101.658 75.6426 101.55 75.49L98.9098 71.93C98.8199 71.8015 98.6646 71.7355 98.5098 71.76L97.2598 71.9Z" fill="#30343A"/>
<path d="M118.08 76.1L112.38 75.97C112.901 79.522 113.131 83.1105 113.07 86.7C113.001 90.1843 113.47 93.6585 114.46 97C114.42 97.8294 114.592 98.6554 114.96 99.4C115.35 100.26 116.47 100.13 117.07 99.4C117.67 98.67 117.15 97.35 117.07 97.18C117.63 98.18 121.07 92.66 121.3 86.79C121.477 82.9637 120.341 79.1917 118.08 76.1Z" fill="url(#paint14_linear_3215_1738)"/>
<path d="M115.91 97.11C115.549 97.8484 115.444 98.6853 115.61 99.49C116 100.35 117.12 100.22 117.73 99.49C118.34 98.76 117.73 97.24 117.73 97.24L115.91 97.11Z" fill="#FEC6BD"/>
<path d="M111.81 75.83C113.11 79.3355 114.036 82.9692 114.57 86.67C115.4 92.58 115.91 97.11 115.91 97.11C116.475 97.3934 117.13 97.4402 117.73 97.24C119.585 93.6978 120.646 89.7939 120.84 85.8C120.989 81.9148 120.25 78.0466 118.68 74.49L111.81 75.83Z" fill="#6DB1F8"/>
<path d="M73.0404 125.19L73.1604 128.13L71.7703 128.57L71.6104 125.31L73.0404 125.19Z" fill="#FEC6BD"/>
<path d="M73 127.79C73.4607 127.881 73.8969 128.068 74.28 128.34C75.11 128.86 76.71 128.59 77.08 129.24C77.45 129.89 76.87 129.95 75.57 130.04C73.9678 130.108 72.3626 130.048 70.77 129.86C70.36 129.74 70.37 127.92 71.59 127.4L73 127.79Z" fill="#30343A"/>
<path d="M76.6202 106.35L73.5002 126.15L71.1602 126.07L70.0002 105.19C69.5915 101.926 69.5245 98.628 69.8002 95.35L76.6202 106.35Z" fill="#255299"/>
<path d="M82.0501 125.97L82.1701 128.91L80.7801 129.35L80.6201 126.09L82.0501 125.97Z" fill="#FEC6BD"/>
<path d="M82 128.56C82.46 128.659 82.8953 128.849 83.28 129.12C84.11 129.64 85.7 129.36 86.08 130.01C86.46 130.66 85.86 130.73 84.57 130.82C82.9678 130.883 81.363 130.823 79.77 130.64C79.35 130.51 79.37 128.7 80.58 128.18L82 128.56Z" fill="#30343A"/>
<path d="M82.38 94.68C82.38 94.68 82.71 105.9 82.48 114.36C82.25 122.82 82.38 126.62 82.38 126.62L80.38 126.84C80.38 126.84 78.38 121.61 76.7 116.28C75.6368 112.649 74.9663 108.914 74.7 105.14C74.7 105.14 68.8 99.81 69.87 93.14L82.38 94.68Z" fill="#2A60B5"/>
<path d="M81.3096 63C81.3096 63 81.6696 64.89 81.7396 66C81.8896 68.29 80.6596 70 80.0296 70C79.3996 70 78.5896 69.88 78.5896 69.88L77.4596 71.36L74.8096 70.97L76.5096 67.3C76.5096 67.3 75.6696 63.93 76.7796 63.52C78.2692 63.2008 79.7863 63.0266 81.3096 63Z" fill="#FEC6BD"/>
<path d="M74.51 70.54C74.51 70.54 77.21 70.24 77.92 70.84C78.63 71.44 80.74 73.75 81.6 78.45C81.99 80.54 82.41 94.74 82.41 94.74C82.41 94.74 69.2 110 64.46 109.4C64.46 109.4 68.36 84.93 70.14 78.51C71.92 72.09 74.51 70.54 74.51 70.54Z" fill="#6DB3FA"/>
<path d="M89.9997 80.72L88.9997 80.27C88.8697 80.21 88.8497 80.02 88.9997 79.85L90.6797 77.11C90.7897 76.94 90.9897 76.84 91.1197 76.9L92.1197 77.34C92.2497 77.4 92.2697 77.59 92.1197 77.77L90.4797 80.5C90.3945 80.6803 90.1919 80.7731 89.9997 80.72Z" fill="#30343A"/>
<path d="M89.8598 81.85C89.8598 81.85 91.3598 80.92 91.3598 80.31C91.3598 79.7 91.9198 78.57 91.3598 78.74C90.7998 78.91 89.0498 81 89.0498 81L89.8598 81.85Z" fill="#FEC6BD"/>
<path d="M82.1898 88.64L82.3198 92.06C82.3198 92.06 79.6999 94.22 76.6599 88.87C74.9999 86 73.8398 78.57 73.8398 78.57L82.1898 88.64Z" fill="url(#paint15_linear_3215_1738)"/>
<path d="M80.0698 76.52C80.7012 78.9408 81.4861 81.319 82.4198 83.64C82.5598 84.01 88.9198 80.85 88.9198 80.85L90.1798 82C90.1798 82 81.2398 92.8 78.0598 87.62C76.2621 84.8016 74.8433 81.7588 73.8398 78.57L80.0698 76.52Z" fill="#6DB1F8"/>
<path d="M80.38 61.31C81.2 61.75 82.1 64.42 81.71 64.42C81.32 64.42 79.78 64.42 79.37 64.48L79.09 65.48C79.09 65.48 79.09 64.75 78.38 64.94C77.67 65.13 78.03 66.36 78.68 66.55C78.8348 68.512 77.6965 70.347 75.87 71.08C72.65 72.55 73.58 80.08 68.69 78.34C63.8 76.6 66.07 74.03 69.62 69.82C73.17 65.61 72.62 64.36 74.34 62.43C75.8893 60.7714 78.3391 60.3171 80.38 61.31Z" fill="#37475E"/>
<path d="M242.79 176.24H238.79C233.7 176.65 229.71 185.68 229.79 196.7C229.87 207.72 234.09 216.63 239.19 216.93H243.19L242.79 176.24Z" fill="#FFD215"/>
<path opacity="0.06" d="M240.36 177.51L235.86 177.56C235.65 177.74 235.43 177.91 235.22 178.12L240.36 178.07V177.51Z" fill="black"/>
<path opacity="0.06" d="M240.38 179.87L233.76 179.94L233.43 180.5L240.43 180.42L240.38 179.87Z" fill="black"/>
<path opacity="0.06" d="M240.41 182.22L232.48 182.31L232.24 182.86L240.41 182.77V182.22Z" fill="black"/>
<path opacity="0.06" d="M240.43 184.58L231.56 184.67L231.38 185.23L240.44 185.13L240.43 184.58Z" fill="black"/>
<path opacity="0.06" d="M240.46 186.93L230.88 187.03L230.76 187.59L240.47 187.48L240.46 186.93Z" fill="black"/>
<path opacity="0.06" d="M240.49 189.28L230.41 189.39L230.32 189.95L240.49 189.84V189.28Z" fill="black"/>
<path opacity="0.06" d="M240.51 191.64L230.09 191.75C230.09 191.94 230.04 192.12 230.03 192.31L240.52 192.19L240.51 191.64Z" fill="black"/>
<path opacity="0.06" d="M240.54 194L229.9 194.12V194.67L240.57 194.56L240.54 194Z" fill="black"/>
<path opacity="0.06" d="M240.56 196.35L229.84 196.46C229.845 196.557 229.845 196.653 229.84 196.75C229.84 196.84 229.84 196.93 229.84 197.02L240.56 196.9V196.35Z" fill="black"/>
<path opacity="0.06" d="M240.59 198.7L229.91 198.82C229.91 199 229.91 199.18 229.96 199.37L240.59 199.25V198.7Z" fill="black"/>
<path opacity="0.06" d="M240.61 201.06L230.12 201.17C230.12 201.36 230.12 201.54 230.19 201.72L240.62 201.61L240.61 201.06Z" fill="black"/>
<path opacity="0.06" d="M240.64 203.41L230.47 203.52L230.56 204.07L240.65 203.96L240.64 203.41Z" fill="black"/>
<path opacity="0.06" d="M240.67 205.76L230.96 205.87C230.96 206.05 231.05 206.24 231.09 206.42L240.67 206.32V205.76Z" fill="black"/>
<path opacity="0.06" d="M240.69 208.12L231.63 208.22C231.69 208.4 231.76 208.58 231.83 208.77L240.7 208.67L240.69 208.12Z" fill="black"/>
<path opacity="0.06" d="M240.72 210.47L232.54 210.56C232.62 210.75 232.7 210.93 232.79 211.11L240.72 211.02V210.47Z" fill="black"/>
<path opacity="0.06" d="M240.74 212.83L233.74 212.9C233.86 213.09 233.97 213.28 234.09 213.45L240.71 213.38L240.74 212.83Z" fill="black"/>
<path opacity="0.06" d="M240.77 215.18L235.63 215.24C235.85 215.44 236.07 215.61 236.29 215.78L240.77 215.73V215.18Z" fill="black"/>
<path d="M243.261 216.965C248.501 216.907 252.65 207.741 252.526 196.492C252.402 185.242 248.054 176.17 242.813 176.227C237.572 176.285 233.424 185.451 233.547 196.7C233.671 207.95 238.02 217.022 243.261 216.965Z" fill="#FFDC00"/>
<g opacity="0.4">
<path opacity="0.4" d="M243.05 177.5V178C247.22 178 250.85 186.48 250.96 196.52C251.07 206.56 247.61 215.16 243.38 215.21C239.15 215.26 235.58 206.73 235.47 196.69C235.36 186.65 238.81 178.05 243 178V177.5H243.05ZM243 177.5C238.44 177.55 234.85 186.14 235 196.69C235.15 207.24 238.88 215.69 243.41 215.69C247.97 215.64 251.56 207.04 251.41 196.49C251.26 185.94 247.53 177.49 243 177.49V177.5Z" fill="white"/>
</g>
<path d="M87 23.58H113.14C113.923 23.5905 114.559 24.217 114.58 25V42.7C114.58 43.5064 113.926 44.16 113.12 44.16H107.74V46.77C107.738 46.9774 107.613 47.1638 107.422 47.2442C107.23 47.3246 107.01 47.2836 106.86 47.14L103.86 44.14H87C86.1937 44.14 85.54 43.4864 85.54 42.68V25C85.5617 24.2093 86.2091 23.5797 87 23.58Z" fill="#6DB3FA"/>
<path d="M103.45 29.49H91.56C91.3888 29.49 91.25 29.6288 91.25 29.8V30.18C91.25 30.3512 91.3888 30.49 91.56 30.49H103.45C103.621 30.49 103.76 30.3512 103.76 30.18V29.8C103.76 29.6288 103.621 29.49 103.45 29.49Z" fill="#DCEDFF"/>
<path d="M108.49 32.48H91.56C91.3888 32.48 91.25 32.6188 91.25 32.79V33.17C91.25 33.3412 91.3888 33.48 91.56 33.48H108.49C108.661 33.48 108.8 33.3412 108.8 33.17V32.79C108.8 32.6188 108.661 32.48 108.49 32.48Z" fill="#DCEDFF"/>
<path d="M105.88 35.47H91.56C91.3888 35.47 91.25 35.6088 91.25 35.78V36.16C91.25 36.3312 91.3888 36.47 91.56 36.47H105.88C106.051 36.47 106.19 36.3312 106.19 36.16V35.78C106.19 35.6088 106.051 35.47 105.88 35.47Z" fill="#DCEDFF"/>
<path d="M96.9001 39.44H77.0001C76.1922 39.4455 75.5401 40.102 75.5401 40.91V52C75.5374 52.3899 75.6898 52.7648 75.9636 53.0424C76.2374 53.3199 76.6102 53.4774 77.0001 53.48H79.5301V56.09C79.5282 56.3018 79.6549 56.4935 79.8505 56.5748C80.046 56.6561 80.2713 56.6107 80.4201 56.46L83.4201 53.46H96.9001C97.7081 53.46 98.3646 52.808 98.3701 52V40.91C98.3701 40.0981 97.712 39.44 96.9001 39.44Z" fill="#FFDA00"/>
<path d="M83.1797 47.36C83.732 47.36 84.1797 46.9123 84.1797 46.36C84.1797 45.8077 83.732 45.36 83.1797 45.36C82.6274 45.36 82.1797 45.8077 82.1797 46.36C82.1797 46.9123 82.6274 47.36 83.1797 47.36Z" fill="white"/>
<path d="M87.0303 47.36C87.5826 47.36 88.0303 46.9123 88.0303 46.36C88.0303 45.8077 87.5826 45.36 87.0303 45.36C86.478 45.36 86.0303 45.8077 86.0303 46.36C86.0303 46.9123 86.478 47.36 87.0303 47.36Z" fill="white"/>
<path d="M90.8701 47.36C91.4224 47.36 91.8701 46.9123 91.8701 46.36C91.8701 45.8077 91.4224 45.36 90.8701 45.36C90.3178 45.36 89.8701 45.8077 89.8701 46.36C89.8701 46.9123 90.3178 47.36 90.8701 47.36Z" fill="white"/>
<defs>
<linearGradient id="paint0_linear_3215_1738" x1="206.6" y1="35.502" x2="137.045" y2="121.828" gradientUnits="userSpaceOnUse">
<stop stop-color="#EEF8FF"/>
<stop offset="1" stop-color="#EBF8FF" stop-opacity="0.2"/>
</linearGradient>
<linearGradient id="paint1_linear_3215_1738" x1="48.1" y1="164.557" x2="89.5658" y2="256.739" gradientUnits="userSpaceOnUse">
<stop stop-color="#80B9ED"/>
<stop offset="0.51" stop-color="#6098FA"/>
<stop offset="1" stop-color="#B0D7FC"/>
</linearGradient>
<linearGradient id="paint2_linear_3215_1738" x1="151.06" y1="196.771" x2="169.112" y2="241.327" gradientUnits="userSpaceOnUse">
<stop stop-color="#BEDBFF"/>
<stop offset="0.18" stop-color="#6098FA"/>
</linearGradient>
<linearGradient id="paint3_linear_3215_1738" x1="155.92" y1="251.026" x2="160.026" y2="258.3" gradientUnits="userSpaceOnUse">
<stop stop-color="#BEDBFF"/>
<stop offset="0.9" stop-color="#6098FA"/>
</linearGradient>
<linearGradient id="paint4_linear_3215_1738" x1="188.742" y1="150.928" x2="210.441" y2="229.886" gradientUnits="userSpaceOnUse">
<stop stop-color="#F3F8FF"/>
<stop offset="1" stop-color="#E7F1FF"/>
</linearGradient>
<linearGradient id="paint5_linear_3215_1738" x1="130.66" y1="150.512" x2="168.737" y2="247.932" gradientUnits="userSpaceOnUse">
<stop stop-color="#92C2FF" stop-opacity="0"/>
<stop offset="0.27" stop-color="#92C2FF" stop-opacity="0"/>
<stop offset="0.47" stop-color="#92C2FF"/>
<stop offset="1" stop-color="#DBEAFF"/>
</linearGradient>
<linearGradient id="paint6_linear_3215_1738" x1="71.1381" y1="216.29" x2="70.9375" y2="216.296" gradientUnits="userSpaceOnUse">
<stop stop-color="#133E90" stop-opacity="0.4"/>
<stop offset="1" stop-color="#133E90" stop-opacity="0"/>
</linearGradient>
<linearGradient id="paint7_linear_3215_1738" x1="65.981" y1="201.98" x2="65.7525" y2="203.868" gradientUnits="userSpaceOnUse">
<stop stop-color="#F5AEA7"/>
<stop offset="1" stop-color="#F5AEA7" stop-opacity="0"/>
</linearGradient>
<linearGradient id="paint8_linear_3215_1738" x1="205.088" y1="144.98" x2="208.188" y2="146.681" gradientUnits="userSpaceOnUse">
<stop stop-color="#133E90" stop-opacity="0.4"/>
<stop offset="1" stop-color="#133E90" stop-opacity="0"/>
</linearGradient>
<linearGradient id="paint9_linear_3215_1738" x1="203.565" y1="123.66" x2="203.71" y2="123.648" gradientUnits="userSpaceOnUse">
<stop stop-color="#133E90" stop-opacity="0.4"/>
<stop offset="1" stop-color="#133E90" stop-opacity="0"/>
</linearGradient>
<linearGradient id="paint10_linear_3215_1738" x1="197.442" y1="112.2" x2="196.96" y2="114.088" gradientUnits="userSpaceOnUse">
<stop stop-color="#F5AEA7"/>
<stop offset="1" stop-color="#F5AEA7" stop-opacity="0"/>
</linearGradient>
<linearGradient id="paint11_linear_3215_1738" x1="191.912" y1="124.52" x2="193.098" y2="124.686" gradientUnits="userSpaceOnUse">
<stop stop-color="#133E90" stop-opacity="0.4"/>
<stop offset="1" stop-color="#133E90" stop-opacity="0"/>
</linearGradient>
<linearGradient id="paint12_linear_3215_1738" x1="193.953" y1="128.78" x2="194.835" y2="127.493" gradientUnits="userSpaceOnUse">
<stop stop-color="#133E90" stop-opacity="0.4"/>
<stop offset="1" stop-color="#133E90" stop-opacity="0"/>
</linearGradient>
<linearGradient id="paint13_linear_3215_1738" x1="119.406" y1="108.67" x2="120.909" y2="109.027" gradientUnits="userSpaceOnUse">
<stop stop-color="#133E90" stop-opacity="0.8"/>
<stop offset="1" stop-color="#133E90" stop-opacity="0"/>
</linearGradient>
<linearGradient id="paint14_linear_3215_1738" x1="116.853" y1="82.11" x2="117.063" y2="94.707" gradientUnits="userSpaceOnUse">
<stop stop-color="#133E90" stop-opacity="0.4"/>
<stop offset="1" stop-color="#133E90" stop-opacity="0"/>
</linearGradient>
<linearGradient id="paint15_linear_3215_1738" x1="77.2004" y1="83.9" x2="82.0578" y2="90.3739" gradientUnits="userSpaceOnUse">
<stop stop-color="#133E90" stop-opacity="0.4"/>
<stop offset="1" stop-color="#133E90" stop-opacity="0"/>
</linearGradient>
</defs>
</svg>
