<svg width="200" height="200" viewBox="0 0 200 200" fill="none" xmlns="http://www.w3.org/2000/svg">
<path d="M100 198.571C154.44 198.571 198.572 154.439 198.572 100C198.572 45.5605 154.44 1.42856 100 1.42856C45.5606 1.42856 1.42871 45.5605 1.42871 100C1.42871 154.439 45.5606 198.571 100 198.571Z" fill="url(#paint0_linear_3189_1818)"/>
<path d="M43.2139 123.786C43.2139 118.714 44.6424 111.429 51.1424 106.929C57.6424 102.429 57.7853 97.5 58.1424 89.7143C58.571 81.8571 63.2139 77.9286 67.1424 71.1429C71.071 64.3571 69.1424 53.3571 83.2139 48.0714C97.2853 42.7857 101.142 50.5714 101.142 50.5714C101.142 50.5714 108.428 49.3571 112.285 59.2143C116.142 69 119.285 69.8571 122.785 72.3571C126.214 74.8571 129.785 82.4286 128.357 91.0714C126.928 99.7143 137.785 103.5 140.785 107.214C143.785 110.929 146.5 116.929 146.5 127.071C146.5 137.286 134.285 144.714 120.5 145.357C106.714 146.071 43.2139 123.786 43.2139 123.786Z" fill="url(#paint1_linear_3189_1818)"/>
<path d="M108.072 74.2143C108.072 74.2143 112.286 72.8572 112.429 77.1429C112.572 81.3572 110.572 83.2143 107.5 84.1429C104.429 85.0714 104.5 76.5714 108.072 74.2143Z" fill="#F6AFA8"/>
<path d="M77.857 74.2142C77.857 74.2142 74.2856 72.3571 73.7142 76.5714C73.1427 80.7857 75.4284 83.8571 79.1427 84.5C82.857 85.1428 77.857 74.2142 77.857 74.2142Z" fill="#F6AFA8"/>
<path d="M84.8568 96.5714C84.8568 96.5714 85.3568 105 80.3568 108.429C75.2854 111.857 72.4282 111.857 72.4282 111.857C72.4282 111.857 66.0711 125 75.9997 127C85.9282 129 109.928 129.643 114.714 124.214C119.5 118.786 113.5 111.857 113.5 111.857C113.5 111.857 103.928 110.286 102.5 103.786C101.071 97.2857 100.785 93.2857 100.785 93.2857L84.8568 96.5714Z" fill="#FEC6BD"/>
<path d="M84.8571 96.5714C84.8571 96.5714 85.3571 105 80.3571 108.429C75.2857 111.857 109.929 129.643 114.714 124.214C119.5 118.786 113.5 111.857 113.5 111.857C113.5 111.857 103.929 110.286 102.5 103.786C101.071 97.2857 100.786 93.2857 100.786 93.2857L84.8571 96.5714Z" fill="url(#paint2_linear_3189_1818)"/>
<path d="M100.286 63.2143C100.286 63.2143 94.0714 72.2143 77.8571 74.2143C77.8571 74.2143 76.4285 100.357 92.9999 100.357C109.571 100.357 108.143 74.2143 108.143 74.2143C108.143 74.2143 102 69.9286 100.286 63.2143Z" fill="#FEC6BD"/>
<path d="M171.214 156.643C169.857 150.929 163.357 149.643 147.214 134C131.071 118.357 113.5 111.857 113.5 111.857C113.5 111.857 108.571 120.857 93.2143 120.857C77.8572 120.857 72.4286 111.857 72.4286 111.857C72.4286 111.857 60.6429 114.571 51.7858 122C39.1429 132.643 30.2143 146.929 30.7143 157.429C31 163.571 33.3572 169.357 37.1429 172.143C42.1429 175.714 48.7858 175.286 48.7858 175.286C48.7858 175.286 50.5715 180.643 52.5715 186.5C66.6429 194.214 82.7858 198.643 100 198.643C111 198.643 121.643 196.857 131.5 193.5C133.143 188.429 134.714 182.714 134.714 182.714C134.714 182.714 141.214 184.929 148.071 186.143C156.214 181.571 163.643 175.929 170.214 169.286C171.357 164 171.714 159.071 171.214 156.643Z" fill="#669CE9"/>
<path d="M72.4288 111.857C72.4288 111.857 61.0717 142.786 61.6431 154.429C62.5003 173.357 48.8574 175.286 48.8574 175.286C48.8574 175.286 50.6431 180.643 52.6431 186.5C61.0717 191.143 70.2146 194.571 79.9288 196.571L72.4288 111.857Z" fill="url(#paint3_linear_3189_1818)"/>
<path d="M148.285 170.571C142.857 161.357 138.571 141.071 138.571 141.071C138.928 166.714 134.714 182.643 134.714 182.643C134.714 182.643 141.214 184.857 148.071 186.071C150.785 184.5 153.5 182.857 156.071 181.071C153.714 178.5 150.928 175 148.285 170.571Z" fill="url(#paint4_linear_3189_1818)"/>
<path d="M147.071 112.857L135.714 114.071C134.786 114.071 133.357 111.929 133.714 111L141.286 88.2143C141.643 87.2143 142.643 86.4286 143.5 86.4286L155.786 86.5714C156.714 86.5714 158.357 88.2857 158 89.2857L149.214 111.214C149 112.071 148 112.857 147.071 112.857Z" fill="url(#paint5_linear_3189_1818)"/>
<path d="M148.285 114.143L136 114C135.071 114 134.643 113.214 134.928 112.214L142.5 89.4285C142.857 88.4285 143.857 87.6428 144.714 87.6428L157 87.7857C157.928 87.7857 158.357 88.5714 158.071 89.5714L150.5 112.357C150.143 113.357 149.143 114.143 148.285 114.143Z" fill="url(#paint6_linear_3189_1818)"/>
<path d="M176.214 162.571C176.143 160.929 176.071 159.143 175.786 157.357C173.714 141.071 164.643 110.643 162.286 104.786C159.928 98.9286 154.857 94.3572 151.214 93.7857C147.571 93.2143 143.714 94.1429 143.286 95.3572C142.857 96.6429 143.643 96.1429 147.143 96.2857C150.571 96.4286 152.214 96.7143 153.143 98.5C154.071 100.286 152.857 97.7143 148.857 97.5C144.857 97.2143 140.786 98.2143 140.5 99.7857C140.286 101.357 141.428 101 144.143 100.429C146.786 99.9286 149.214 99.4286 151.857 101.429C154.571 103.429 149.928 100.857 147.286 101.143C144.643 101.429 141.286 102.357 140.928 103.857C140.571 105.429 142.357 104.929 144.643 104.071C146.928 103.214 147.714 103.571 149.428 104.5C151.143 105.429 150.071 105.071 147.857 105C145.714 104.929 144.214 105.5 142.786 107.071C141.428 108.643 141.928 109.786 143.286 109.214C144.643 108.643 145.643 107.071 147.428 107.929C149.214 108.786 150.357 110.5 150.357 110.5C150.357 110.5 155 129.786 155.357 143.214C155.714 156.643 149.928 171.071 150.571 176.5C150.857 178.714 151.857 181.071 153.428 182.857C162.071 177.286 169.714 170.429 176.214 162.571Z" fill="#FEC6BD"/>
<path d="M176.215 162.571C176.143 160.929 176.072 159.143 175.786 157.357C173.715 141.071 150.357 110.5 150.357 110.5C150.357 110.5 155 129.786 155.357 143.214C155.715 156.643 149.929 171.071 150.572 176.5C150.857 178.714 151.857 181.071 153.429 182.857C162.072 177.286 169.715 170.428 176.215 162.571Z" fill="url(#paint7_linear_3189_1818)"/>
<path d="M102.286 76.4999L96.7146 75.9285C96.5003 75.9285 96.3574 75.7142 96.3574 75.4999C96.3574 75.2856 96.5717 75.1428 96.786 75.1428L102.286 75.7142C102.5 75.7142 102.643 75.9285 102.643 76.1428C102.643 76.3571 102.5 76.4999 102.286 76.4999Z" fill="#343D49"/>
<path d="M83.5711 76.0714C83.3569 76.0714 83.1426 75.9286 83.1426 75.6428C83.1426 75.4286 83.2854 75.2143 83.5711 75.2143L89.1426 75.0714C89.3569 75.0714 89.5712 75.2143 89.5712 75.5C89.5712 75.7143 89.4283 75.9286 89.1426 75.9286L83.5711 76.0714Z" fill="#343D49"/>
<path d="M87.0004 80.5715C87.3949 80.5715 87.7147 80.2517 87.7147 79.8572C87.7147 79.4627 87.3949 79.1429 87.0004 79.1429C86.6059 79.1429 86.2861 79.4627 86.2861 79.8572C86.2861 80.2517 86.6059 80.5715 87.0004 80.5715Z" fill="#343D49"/>
<path d="M98.5004 80.5715C98.8949 80.5715 99.2147 80.2517 99.2147 79.8572C99.2147 79.4627 98.8949 79.1429 98.5004 79.1429C98.1059 79.1429 97.7861 79.4627 97.7861 79.8572C97.7861 80.2517 98.1059 80.5715 98.5004 80.5715Z" fill="#343D49"/>
<path d="M92.5712 84.1429C92.3569 84.1429 92.1426 83.9286 92.1426 83.7143V79.2143C92.1426 79.0001 92.3569 78.7858 92.5712 78.7858C92.7854 78.7858 92.9997 79.0001 92.9997 79.2143V83.7143C92.9997 83.9286 92.7854 84.1429 92.5712 84.1429Z" fill="#CB8D86"/>
<path d="M144 94.1429C143.358 94.1429 143 93.6429 143.215 93.0714L144.072 90.4286C144.286 89.8571 144.929 89.4286 145.572 89.5C146.215 89.5 146.572 90 146.357 90.5714L145.5 93.2143C145.286 93.7143 144.643 94.1429 144 94.1429Z" fill="url(#paint8_linear_3189_1818)"/>
<path d="M145.786 90.7142C145.714 90.9999 145.357 91.2142 145 91.2142C144.643 91.2142 144.5 90.9285 144.572 90.6428C144.643 90.3571 145 90.1428 145.357 90.1428C145.714 90.1428 145.929 90.4285 145.786 90.7142Z" fill="url(#paint9_linear_3189_1818)"/>
<path d="M145.072 92.9286C145.001 93.2144 144.643 93.4286 144.286 93.4286C143.929 93.4286 143.786 93.1429 143.858 92.8572C143.929 92.5715 144.286 92.3572 144.643 92.3572C145.001 92.3572 145.143 92.6429 145.072 92.9286Z" fill="url(#paint10_linear_3189_1818)"/>
<path d="M70.7142 100.5C70.7142 100.5 69.4285 96.4285 67.857 94.6428C67.357 94.0714 67.9999 93.3571 69.1428 93.9285C70.3571 94.5 71.4999 95.7857 71.7856 96.5714C72.2142 97.3571 70.7142 100.5 70.7142 100.5Z" fill="#F6AFA8"/>
<path d="M80.286 109.286C80.286 109.286 60.7146 163.714 53.2146 169.786C43.3575 177.714 30.2861 164.571 37.0003 148.357C43.6432 132.429 70.1432 103.714 70.1432 103.714C70.1432 103.714 71.7146 97.5714 70.0718 88.2857C69.5003 85.2143 70.786 85.5 71.5003 87C71.5003 87 70.9289 85.1428 72.0003 85.0714C73.0718 85 74.0003 87.6428 74.0003 87.6428C74.0003 87.6428 73.6432 86 74.6432 85.8571C75.6432 85.7143 77.0003 88.7143 77.3575 90.3571C77.3575 90.3571 77.4289 89.7143 78.0718 89.5714C78.786 89.4285 79.7146 92.1428 80.0003 94.5C80.286 96.8571 82.8575 104 80.286 109.286Z" fill="#FDC5BC"/>
<path d="M80.286 109.286C80.286 109.286 60.7146 163.714 53.2146 169.786C43.3575 177.714 30.2861 164.571 37.0003 148.357C43.6432 132.429 70.1432 103.714 70.1432 103.714C70.1432 103.714 71.7146 97.5714 70.0718 88.2857C69.5003 85.2143 70.786 85.5 71.5003 87C71.5003 87 70.9289 85.1428 72.0003 85.0714C73.0718 85 74.0003 87.6428 74.0003 87.6428C74.0003 87.6428 73.6432 86 74.6432 85.8571C75.6432 85.7143 77.0003 88.7143 77.3575 90.3571C77.3575 90.3571 77.4289 89.7143 78.0718 89.5714C78.786 89.4285 79.7146 92.1428 80.0003 94.5C80.286 96.8571 82.8575 104 80.286 109.286Z" fill="url(#paint11_linear_3189_1818)"/>
<path d="M78.4288 98.2857L75.6431 97.2857L74.1431 87.5714C74.1431 87.5714 73.7859 85.9286 74.7859 85.7857C75.7859 85.6428 77.0716 88.5 77.5002 90.2857C77.7859 92.2143 78.4288 98.2857 78.4288 98.2857Z" fill="url(#paint12_linear_3189_1818)"/>
<path d="M75.2139 95.2857C75.2139 95.2857 73.2139 96.7857 72.9282 94.5C72.571 91.5 71.6425 86.9286 71.6425 86.9286C71.6425 86.9286 71.071 85.0714 72.1425 85C73.2139 84.9286 73.9996 87.1429 74.1425 87.5714C74.8567 89.8572 75.2139 95.2857 75.2139 95.2857Z" fill="url(#paint13_linear_3189_1818)"/>
<path d="M72.8574 95.0715C72.8574 95.0715 71.9289 96.5715 71.0717 94.1429C70.7146 93.0714 70.6431 91.1429 70.1431 88.2857C69.8574 86.7857 70.0717 86.0714 70.4289 85.9286C70.786 85.7857 71.4289 86.3572 71.6431 87C72.7146 90 72.8574 95.0715 72.8574 95.0715Z" fill="url(#paint14_linear_3189_1818)"/>
<path d="M92.643 91.7857C93.8659 91.7857 94.8573 90.6024 94.8573 89.1428C94.8573 87.6832 93.8659 86.5 92.643 86.5C91.4201 86.5 90.4287 87.6832 90.4287 89.1428C90.4287 90.6024 91.4201 91.7857 92.643 91.7857Z" fill="#CB8D86"/>
<path d="M138.071 28.5C129.5 28.5 122.643 35.4286 122.643 43.9286C122.643 48.7857 124.928 53.1429 128.428 56L126.857 62.7143C126.714 63.1429 127.285 63.5 127.643 63.1429L132.714 58.3572C134.428 59 136.214 59.3572 138.143 59.3572C146.714 59.3572 153.571 52.4286 153.571 43.9286C153.571 35.4286 146.643 28.5 138.071 28.5Z" fill="#FFD215"/>
<path d="M138.714 46.1429C138.571 46.3572 138.428 46.5 138.142 46.5C137.856 46.5 137.642 46.3572 137.571 46.1429C137.428 45.9286 137.356 45.5714 137.356 45.0714L136.999 41.1429C136.928 40.7857 136.928 40.4286 136.928 40.0714C136.928 39.5 136.999 39 137.142 38.7143C137.285 38.4286 137.571 38.2143 138.071 38.2143C138.428 38.2143 138.785 38.3572 138.999 38.5714C139.214 38.7857 139.356 39.1429 139.356 39.5714C139.356 39.9286 139.356 40.4286 139.285 41.1429L138.999 44.9286C138.856 45.5 138.785 45.8572 138.714 46.1429ZM137.214 49.9286C136.999 49.7143 136.856 49.4286 136.856 49.0714C136.856 48.7143 136.999 48.4286 137.214 48.2143C137.428 48 137.714 47.8572 138.071 47.8572C138.428 47.8572 138.714 48 138.928 48.2143C139.142 48.4286 139.285 48.7143 139.285 49.0714C139.285 49.4286 139.142 49.7143 138.928 49.9286C138.714 50.1429 138.428 50.2143 138.071 50.2143C137.714 50.2143 137.428 50.1429 137.214 49.9286Z" fill="white"/>
<defs>
<linearGradient id="paint0_linear_3189_1818" x1="134.208" y1="173.135" x2="52.6812" y2="-1.16466" gradientUnits="userSpaceOnUse">
<stop offset="0.00474252" stop-color="#EDF7FF"/>
<stop offset="1" stop-color="#EAF7FF" stop-opacity="0.2"/>
</linearGradient>
<linearGradient id="paint1_linear_3189_1818" x1="65.3301" y1="68.1892" x2="99.0984" y2="123.88" gradientUnits="userSpaceOnUse">
<stop stop-color="#37475E"/>
<stop offset="1" stop-color="#343D49"/>
</linearGradient>
<linearGradient id="paint2_linear_3189_1818" x1="103.087" y1="100.395" x2="98.3138" y2="114.538" gradientUnits="userSpaceOnUse">
<stop offset="0.00201017" stop-color="#F6AFA8"/>
<stop offset="1" stop-color="#F6AFA8" stop-opacity="0"/>
</linearGradient>
<linearGradient id="paint3_linear_3189_1818" x1="43.1624" y1="157.049" x2="69.179" y2="154.787" gradientUnits="userSpaceOnUse">
<stop stop-color="#133E8F" stop-opacity="0.4"/>
<stop offset="1" stop-color="#133E8F" stop-opacity="0"/>
</linearGradient>
<linearGradient id="paint4_linear_3189_1818" x1="129.32" y1="168.074" x2="142.123" y2="163.959" gradientUnits="userSpaceOnUse">
<stop stop-color="#133E8F" stop-opacity="0.4"/>
<stop offset="1" stop-color="#133E8F" stop-opacity="0"/>
</linearGradient>
<linearGradient id="paint5_linear_3189_1818" x1="136.005" y1="108.821" x2="161.943" y2="86.8302" gradientUnits="userSpaceOnUse">
<stop offset="0.00150753" stop-color="#81BAEE"/>
<stop offset="0.5085" stop-color="#6099FB"/>
<stop offset="0.9973" stop-color="#B1D8FD"/>
</linearGradient>
<linearGradient id="paint6_linear_3189_1818" x1="138.871" y1="99.9334" x2="151.842" y2="105.513" gradientUnits="userSpaceOnUse">
<stop offset="0.00237141" stop-color="#C2DEFF"/>
<stop offset="1" stop-color="#D4E7FF"/>
</linearGradient>
<linearGradient id="paint7_linear_3189_1818" x1="134.066" y1="170.901" x2="151.249" y2="150.669" gradientUnits="userSpaceOnUse">
<stop offset="0.00201017" stop-color="#F6AFA8"/>
<stop offset="1" stop-color="#F6AFA8" stop-opacity="0"/>
</linearGradient>
<linearGradient id="paint8_linear_3189_1818" x1="142.873" y1="94.8624" x2="146.299" y2="89.426" gradientUnits="userSpaceOnUse">
<stop offset="0.00150753" stop-color="#81BAEE"/>
<stop offset="1" stop-color="#6099FB"/>
</linearGradient>
<linearGradient id="paint9_linear_3189_1818" x1="144.608" y1="90.6596" x2="145.705" y2="91.03" gradientUnits="userSpaceOnUse">
<stop offset="0.00237141" stop-color="#C2DEFF"/>
<stop offset="1" stop-color="#D4E7FF"/>
</linearGradient>
<linearGradient id="paint10_linear_3189_1818" x1="143.856" y1="92.8879" x2="144.952" y2="93.2583" gradientUnits="userSpaceOnUse">
<stop offset="0.00237141" stop-color="#C2DEFF"/>
<stop offset="1" stop-color="#D4E7FF"/>
</linearGradient>
<linearGradient id="paint11_linear_3189_1818" x1="78.6525" y1="137.096" x2="64.0386" y2="130.777" gradientUnits="userSpaceOnUse">
<stop offset="0.00201017" stop-color="#F6AFA8"/>
<stop offset="1" stop-color="#F6AFA8" stop-opacity="0"/>
</linearGradient>
<linearGradient id="paint12_linear_3189_1818" x1="78.7923" y1="91.2721" x2="76.0331" y2="92.2613" gradientUnits="userSpaceOnUse">
<stop offset="0.00201017" stop-color="#F6AFA8"/>
<stop offset="1" stop-color="#F6AFA8" stop-opacity="0"/>
</linearGradient>
<linearGradient id="paint13_linear_3189_1818" x1="75.6066" y1="89.8227" x2="73.7129" y2="90.2717" gradientUnits="userSpaceOnUse">
<stop offset="0.00201017" stop-color="#F6AFA8"/>
<stop offset="1" stop-color="#F6AFA8" stop-opacity="0"/>
</linearGradient>
<linearGradient id="paint14_linear_3189_1818" x1="72.703" y1="90.2863" x2="71.3009" y2="90.7147" gradientUnits="userSpaceOnUse">
<stop offset="0.00201017" stop-color="#F6AFA8"/>
<stop offset="1" stop-color="#F6AFA8" stop-opacity="0"/>
</linearGradient>
</defs>
</svg>
