<svg width="240" height="240" viewBox="0 0 240 240" fill="none" xmlns="http://www.w3.org/2000/svg">
<path d="M75.2555 146.057L75.572 145.808C63.0676 129.559 53.7877 111.008 51.9403 98.5725L51.5469 98.6326C53.4029 111.137 62.6913 129.756 75.2555 146.057Z" fill="#C9DEFF"/>
<path d="M49.5453 95.4979C49.8532 97.2842 51.8888 99.1651 51.8888 99.1651C51.8888 99.1651 53.1802 96.7003 52.8723 94.9225C52.5644 93.1447 51.692 92.5435 50.7769 92.7067C49.8617 92.8699 49.2374 93.7115 49.5453 95.4979Z" fill="#C9DEFF"/>
<path d="M53.7967 102.076C52.9927 103.794 53.5828 106.577 53.5828 106.577C53.5828 106.577 56.1487 105.271 56.9356 103.588C57.7224 101.905 57.3547 100.883 56.4908 100.47C55.627 100.058 54.6006 100.393 53.7967 102.076Z" fill="#C9DEFF"/>
<path d="M56.5249 109.05C55.6696 110.862 56.3026 113.868 56.3026 113.868C56.3026 113.868 59.0309 112.477 59.8948 110.665C60.7586 108.852 60.3481 107.77 59.4158 107.324C58.4835 106.877 57.3888 107.246 56.5249 109.05Z" fill="#C9DEFF"/>
<path d="M59.7748 114.847C58.7313 116.444 58.9195 119.382 58.9195 119.382C58.9195 119.382 61.6821 118.403 62.7255 116.805C63.769 115.208 63.5124 114.126 62.7255 113.585C61.9387 113.044 60.8182 113.241 59.7748 114.847Z" fill="#C9DEFF"/>
<path d="M61.9896 121.125C61.3396 122.929 62.2291 125.728 62.2291 125.728C62.2291 125.728 64.6923 124.14 65.3338 122.345C65.9753 120.55 65.4963 119.545 64.5726 119.21C63.6489 118.875 62.6311 119.33 61.9896 121.125Z" fill="#C9DEFF"/>
<path d="M64.9059 127.575C64.5809 129.456 65.9323 132.067 65.9323 132.067C65.9323 132.067 68.0876 130.074 68.4126 128.193C68.7376 126.312 68.0876 125.411 67.1211 125.239C66.1547 125.067 65.2566 125.694 64.9059 127.575Z" fill="#C9DEFF"/>
<path d="M68.8317 133.741C68.5067 135.622 69.8581 138.224 69.8581 138.224C69.8581 138.224 72.0134 136.24 72.3384 134.351C72.6634 132.462 72.0134 131.568 71.0469 131.405C70.0804 131.242 69.1567 131.817 68.8317 133.741Z" fill="#C9DEFF"/>
<path d="M48.2451 103.682C49.9557 104.541 52.8893 103.897 52.8893 103.897C52.8893 103.897 51.5465 101.243 49.8017 100.41C48.0569 99.5773 47.0049 99.9637 46.5773 100.866C46.1496 101.767 46.5003 102.824 48.2451 103.682Z" fill="#C9DEFF"/>
<path d="M51.1537 111.721C52.8643 112.322 55.4301 111.472 55.4301 111.472C55.4301 111.472 53.9419 109.179 52.2741 108.586C50.6063 107.994 49.7082 108.449 49.3747 109.316C49.0411 110.184 49.4859 111.128 51.1537 111.721Z" fill="#C9DEFF"/>
<path d="M53.6422 119.141C55.558 119.141 57.9186 117.424 57.9186 117.424C57.9186 117.424 55.6094 115.577 53.6849 115.543C51.7605 115.508 50.9822 116.298 50.9651 117.26C50.948 118.222 51.7178 119.141 53.6422 119.141Z" fill="#C9DEFF"/>
<path d="M56.3795 124.655C58.3039 124.655 60.6559 122.937 60.6559 122.937C60.6559 122.937 58.3467 121.091 56.4308 121.056C54.5149 121.022 53.7195 121.821 53.7024 122.817C53.6853 123.813 54.4636 124.621 56.3795 124.655Z" fill="#C9DEFF"/>
<path d="M59.6211 130.306C61.537 130.486 64.0344 128.906 64.0344 128.906C64.0344 128.906 61.862 126.896 59.9547 126.716C58.0474 126.536 57.1921 127.274 57.1066 128.262C57.0211 129.249 57.7138 130.16 59.6211 130.306Z" fill="#C9DEFF"/>
<path d="M63.1105 136.223C65.0263 136.403 67.5152 134.823 67.5152 134.823C67.5152 134.823 65.3513 132.805 63.4355 132.633C61.5196 132.461 60.6814 133.191 60.5959 134.179C60.5104 135.167 61.1946 136.043 63.1105 136.223Z" fill="#C9DEFF"/>
<path d="M67.0616 142.089C68.9689 142.269 71.4664 140.689 71.4664 140.689C71.4664 140.689 69.3025 138.679 67.3866 138.499C65.4708 138.319 64.6326 139.057 64.5385 140.045C64.4445 141.033 65.1458 141.917 67.0616 142.089Z" fill="#C9DEFF"/>
<path d="M100.45 203.416V207.28C100.472 207.039 100.557 206.808 100.697 206.61C100.837 206.413 101.026 206.256 101.246 206.155C101.839 205.857 102.494 205.702 103.157 205.702C103.821 205.702 104.475 205.857 105.069 206.155C105.286 206.254 105.472 206.409 105.611 206.603C105.749 206.798 105.833 207.025 105.856 207.263V203.398C105.834 203.16 105.75 202.932 105.612 202.738C105.473 202.543 105.286 202.389 105.069 202.291C104.477 201.988 103.822 201.831 103.157 201.831C102.493 201.831 101.838 201.988 101.246 202.291C101.024 202.388 100.833 202.544 100.693 202.742C100.552 202.941 100.469 203.173 100.45 203.416Z" fill="#F9DD5C"/>
<path d="M100.451 203.416V207.28C100.446 207.215 100.446 207.149 100.451 207.083V203.21C100.442 203.278 100.442 203.347 100.451 203.416Z" fill="#F9DD5C"/>
<path d="M100.468 203.21V207.083C100.529 206.884 100.629 206.699 100.763 206.539C100.896 206.38 101.061 206.249 101.246 206.155C101.936 205.798 102.713 205.643 103.487 205.709V201.844C102.713 201.774 101.935 201.929 101.246 202.291C101.059 202.38 100.893 202.508 100.759 202.667C100.625 202.825 100.526 203.01 100.468 203.21Z" fill="#F6C444"/>
<path d="M103.487 201.844V205.709C104.041 205.738 104.582 205.891 105.07 206.155C105.286 206.254 105.473 206.408 105.611 206.603C105.75 206.798 105.834 207.025 105.856 207.263V203.398C105.835 203.16 105.751 202.932 105.612 202.738C105.474 202.543 105.287 202.389 105.07 202.291C104.583 202.023 104.042 201.87 103.487 201.844Z" fill="#F4B840"/>
<path d="M109.098 204.73L109.106 208.603L109.123 206.009L109.115 202.136L109.098 204.73Z" fill="#F9DD5C"/>
<path d="M85.2002 202.626L85.2173 206.49L96.7125 213.198L96.704 209.333L85.2002 202.626Z" fill="#D69A37"/>
<path d="M101.16 209.333L101.169 213.206L109.106 208.603L109.097 204.73L101.16 209.333Z" fill="#F6C444"/>
<path d="M96.7041 209.333L96.7127 213.198L101.169 213.206L101.16 209.333H96.7041Z" fill="#F4B840"/>
<path d="M93.1545 195.429H97.6106L109.106 202.145V204.721L101.169 209.316H96.704L85.2002 202.608C85.2002 201.595 85.2002 201.028 85.2002 200.032L93.1545 195.429ZM105.052 204.515C106.112 203.897 106.121 202.9 105.052 202.291C104.459 201.988 103.804 201.831 103.14 201.831C102.476 201.831 101.821 201.988 101.228 202.291C100.168 202.909 100.159 203.897 101.228 204.515C101.822 204.813 102.477 204.968 103.14 204.968C103.804 204.968 104.458 204.813 105.052 204.515Z" fill="#F9DD5C"/>
<path d="M92.1712 209.477C92.1712 209.426 92.1712 209.366 92.1712 209.314C92.1712 209.263 92.1712 209.194 92.1712 209.134C92.1751 209.074 92.1751 209.013 92.1712 208.953C92.1712 208.893 92.1711 208.833 92.1284 208.773C92.1284 208.773 92.1284 208.73 92.1284 208.704C92.0931 208.59 92.0503 208.478 92.0001 208.369L91.9317 208.241L91.7777 207.966L91.7264 207.888C91.6259 207.732 91.5083 207.588 91.3757 207.459H91.3244C91.196 207.33 91.0524 207.218 90.8968 207.124C90.8472 207.095 90.7958 207.069 90.7428 207.047L90.6145 206.987H90.4606H90.3408H90.1013C90.0267 207.002 89.9547 207.028 89.8875 207.064L58.002 225.675C58.0669 225.632 58.1396 225.603 58.2158 225.589H58.2756C58.3352 225.58 58.3957 225.58 58.4553 225.589H58.5493C58.6109 225.595 58.6713 225.609 58.7289 225.632L58.8316 225.675C58.8976 225.699 58.9606 225.731 59.0198 225.769C59.1752 225.86 59.3189 225.969 59.4474 226.095L59.5244 226.164C59.655 226.295 59.7724 226.439 59.8751 226.594L59.952 226.705L60.106 226.98L60.1744 227.109C60.2246 227.218 60.2674 227.329 60.3027 227.444V227.53C60.3027 227.59 60.3027 227.65 60.3455 227.71C60.3494 227.77 60.3494 227.83 60.3455 227.89C60.3455 227.951 60.3455 228.002 60.3455 228.062C60.3455 228.122 60.3455 228.191 60.3455 228.26C60.3395 228.409 60.3136 228.556 60.2685 228.698V228.784C60.2452 228.841 60.2165 228.895 60.183 228.947L60.1316 229.015C60.0825 229.081 60.0216 229.136 59.952 229.179L91.8376 210.577C91.9074 210.531 91.9683 210.473 92.0172 210.405C92.0389 210.386 92.0564 210.362 92.0685 210.336C92.1021 210.284 92.1307 210.23 92.154 210.173V210.121C92.204 209.981 92.23 209.833 92.231 209.683L92.1712 209.477Z" fill="#F9DD5C"/>
<path d="M59.1654 225.628C58.37 225.164 57.7285 225.533 57.7285 226.487C57.7522 226.985 57.8942 227.47 58.1427 227.902C58.3911 228.334 58.7389 228.699 59.1569 228.969C59.9523 229.433 60.5938 229.063 60.6023 228.153C60.5816 227.647 60.4403 227.154 60.1903 226.715C59.9402 226.275 59.5888 225.903 59.1654 225.628Z" fill="#D69A37"/>
<path d="M65.0401 224.68L65.0316 226.862L64.1592 226.355L64.1677 224.174L65.0401 224.68Z" fill="#F4B840"/>
<path d="M73.8496 225.582V227.772L73.1055 227.343L73.114 225.153L73.8496 225.582Z" fill="#D69A37"/>
<path d="M74.5168 225.196L74.5082 227.377L73.8496 227.772V225.582L74.5168 225.196Z" fill="#F4B840"/>
<path d="M73.1144 225.153L73.1059 227.343L72.165 227.884L72.1736 225.702L73.1144 225.153Z" fill="#F4B840"/>
<path d="M70.3256 226.784L70.317 228.966L69.3848 229.515L69.3933 227.325L70.3256 226.784Z" fill="#F4B840"/>
<path d="M65.391 227.343V229.524L62.9277 228.098V225.908L65.391 227.343Z" fill="#D69A37"/>
<path d="M66.5795 226.647L66.5709 228.828L65.3906 229.524V227.343L66.5795 226.647Z" fill="#F4B840"/>
<path d="M73.4908 226.467L73.4822 228.648L71.6348 229.73L71.6433 227.549L73.4908 226.467Z" fill="#F4B840"/>
<path d="M71.6431 227.549L71.6345 229.73L70.3174 228.966L70.3259 226.784L71.6431 227.549Z" fill="#D69A37"/>
<path d="M69.3168 228.236L69.3082 230.417L66.5713 228.828L66.5798 226.647L69.3168 228.236Z" fill="#D69A37"/>
<path d="M74.517 225.196L73.8499 225.582L73.1144 225.153L72.1735 225.702L73.4907 226.467L71.6432 227.549L70.3261 226.784L69.3938 227.325L70.1294 227.755L69.3168 228.236L66.5799 226.647L65.391 227.343L62.9277 225.908L65.0403 224.68L64.1679 224.174L67.6746 222.13L68.5471 222.636L69.3168 222.181L74.517 225.196Z" fill="#F6C444"/>
<path d="M70.1297 227.755V229.936L69.3086 230.417L69.3171 228.236L70.1297 227.755Z" fill="#F4B840"/>
<path d="M76.0566 221.717V223.641L74.5342 224.526L74.5427 222.602L76.0566 221.717Z" fill="#F6C444"/>
<path d="M74.5429 222.602L74.5344 224.526L70.6855 222.293L70.6941 220.377L74.5429 222.602Z" fill="#D69A37"/>
<path d="M76.0571 221.717L74.5432 222.602L70.6943 220.377L72.2082 219.484L76.0571 221.717Z" fill="#F6C444"/>
<path d="M200.162 199.529C200.042 199.28 188.188 174.073 199.811 152.122C208.929 134.894 214.651 116.051 214.351 104.079H214.736C214.993 116.103 209.254 134.997 200.119 152.311C188.599 174.09 200.35 199.125 200.47 199.374L200.162 199.529Z" fill="#C9DEFF"/>
<path d="M216.139 100.824C216.139 102.542 214.531 104.638 214.531 104.638C214.531 104.638 212.932 102.533 212.932 100.816C212.932 99.0982 213.659 98.4026 214.54 98.4026C215.421 98.4026 216.139 99.0982 216.139 100.824Z" fill="#C9DEFF"/>
<path d="M213.222 107.669C214.24 109.121 214.137 111.843 214.137 111.843C214.137 111.843 211.571 111.036 210.528 109.584C209.484 108.133 209.673 107.128 210.442 106.596C211.212 106.063 212.196 106.252 213.222 107.669Z" fill="#C9DEFF"/>
<path d="M211.769 114.643C212.864 116.189 212.752 119.109 212.752 119.109C212.752 119.109 209.973 118.25 208.878 116.695C207.783 115.141 208.023 114.059 208.792 113.492C209.562 112.925 210.657 113.123 211.769 114.643Z" fill="#C9DEFF"/>
<path d="M209.656 120.586C210.887 121.917 211.144 124.7 211.144 124.7C211.144 124.7 208.407 124.227 207.175 122.896C205.944 121.565 206.004 120.509 206.688 119.873C207.372 119.237 208.424 119.255 209.656 120.586Z" fill="#C9DEFF"/>
<path d="M208.587 126.864C209.442 128.453 209.1 131.218 209.1 131.218C209.1 131.218 206.534 130.127 205.679 128.547C204.823 126.967 205.089 125.971 205.901 125.49C206.714 125.009 207.697 125.241 208.587 126.864Z" fill="#C9DEFF"/>
<path d="M206.885 133.331C207.492 135.049 206.637 137.702 206.637 137.702C206.637 137.702 204.311 136.182 203.695 134.473C203.079 132.764 203.558 131.819 204.439 131.502C205.32 131.184 206.278 131.622 206.885 133.331Z" fill="#C9DEFF"/>
<path d="M204.191 139.746C204.798 141.464 203.952 144.118 203.952 144.118C203.952 144.118 201.617 142.598 201.009 140.888C200.402 139.179 200.864 138.235 201.745 137.917C202.626 137.599 203.584 138.029 204.191 139.746Z" fill="#C9DEFF"/>
<path d="M201.18 145.844C201.787 147.561 200.932 150.207 200.932 150.207C200.932 150.207 198.597 148.695 197.99 146.986C197.383 145.277 197.853 144.324 198.734 144.015C199.615 143.705 200.573 144.126 201.18 145.844Z" fill="#C9DEFF"/>
<path d="M198.391 151.658C199.007 153.376 198.152 156.021 198.152 156.021C198.152 156.021 195.817 154.509 195.21 152.8C194.602 151.091 195.073 150.138 195.945 149.829C196.818 149.52 197.827 149.94 198.391 151.658Z" fill="#C9DEFF"/>
<path d="M195.073 159.499C196.073 161.019 195.868 163.793 195.868 163.793C195.868 163.793 193.242 162.874 192.25 161.354C191.258 159.834 191.489 158.778 192.25 158.288C193.011 157.799 194.081 157.988 195.073 159.499Z" fill="#C9DEFF"/>
<path d="M194.141 166.876C195.133 168.397 194.928 171.171 194.928 171.171C194.928 171.171 192.302 170.252 191.31 168.731C190.318 167.211 190.549 166.155 191.31 165.674C192.071 165.193 193.149 165.356 194.141 166.876Z" fill="#C9DEFF"/>
<path d="M218.662 108.245C217.165 109.309 214.343 109.198 214.343 109.198C214.343 109.198 215.198 106.493 216.678 105.428C218.157 104.363 219.244 104.569 219.774 105.342C220.304 106.115 220.159 107.18 218.662 108.245Z" fill="#C9DEFF"/>
<path d="M217.225 116.275C215.754 117.133 213.196 116.73 213.196 116.73C213.196 116.73 214.214 114.342 215.685 113.509C217.156 112.676 218.089 112.968 218.516 113.733C218.944 114.497 218.696 115.442 217.225 116.275Z" fill="#C9DEFF"/>
<path d="M216.088 123.652C214.3 123.987 211.812 122.724 211.812 122.724C211.812 122.724 213.676 120.629 215.472 120.285C217.268 119.942 218.124 120.56 218.303 121.488C218.483 122.415 217.884 123.308 216.088 123.652Z" fill="#C9DEFF"/>
<path d="M214.402 129.226C212.606 129.569 210.126 128.298 210.126 128.298C210.126 128.298 211.991 126.203 213.787 125.859C215.583 125.516 216.438 126.134 216.618 127.061C216.797 127.989 216.19 128.882 214.402 129.226Z" fill="#C9DEFF"/>
<path d="M212.273 135.066C210.511 135.538 207.92 134.465 207.92 134.465C207.92 134.465 209.631 132.232 211.392 131.759C213.154 131.287 214.061 131.828 214.309 132.747C214.557 133.666 214.078 134.593 212.273 135.066Z" fill="#C9DEFF"/>
<path d="M209.955 141.137C208.185 141.61 205.602 140.536 205.602 140.536C205.602 140.536 207.312 138.303 209.023 137.831C210.733 137.359 211.691 137.908 211.939 138.819C212.187 139.729 211.717 140.665 209.955 141.137Z" fill="#C9DEFF"/>
<path d="M207.235 147.27C205.473 147.742 202.882 146.668 202.882 146.668C202.882 146.668 204.592 144.435 206.354 143.963C208.116 143.491 209.023 144.04 209.262 144.951C209.502 145.861 208.946 146.797 207.235 147.27Z" fill="#C9DEFF"/>
<path d="M204.302 153.402C202.48 153.247 200.41 151.349 200.41 151.349C200.41 151.349 202.771 149.829 204.584 149.983C206.397 150.138 207.073 150.962 206.996 151.907C206.919 152.852 206.115 153.556 204.302 153.402Z" fill="#C9DEFF"/>
<path d="M201.59 158.863C199.879 159.439 197.211 158.52 197.211 158.52C197.211 158.52 198.785 156.184 200.512 155.609C202.24 155.033 203.189 155.531 203.48 156.424C203.771 157.318 203.326 158.288 201.59 158.863Z" fill="#C9DEFF"/>
<path d="M199.855 166.129C198.144 166.713 195.476 165.786 195.476 165.786C195.476 165.786 197.049 163.458 198.777 162.883C200.505 162.307 201.445 162.797 201.745 163.699C202.044 164.601 201.582 165.554 199.855 166.129Z" fill="#C9DEFF"/>
<path d="M199.024 173.06C197.562 174.142 194.748 174.091 194.748 174.091C194.748 174.091 195.526 171.385 196.997 170.295C198.469 169.204 199.512 169.436 200.068 170.157C200.624 170.879 200.496 171.969 199.024 173.06Z" fill="#C9DEFF"/>
<path d="M192.328 180.901C192.328 180.901 192.704 171.17 196.972 168.353C201.24 165.537 204.618 169.513 204.815 164.583C205.012 159.654 205.576 155.239 211.247 155.755C216.917 156.27 218.32 156.613 219.723 152.938C221.125 149.262 222.973 144.624 226.565 148.077C230.157 151.529 228.986 161.509 226.052 167.4C223.118 173.292 217.319 175.988 216.49 179.166C215.66 182.344 215.634 183.263 218.85 185.247C222.066 187.23 220.441 193.113 211.777 195.612C203.113 198.112 191.96 195.484 191.96 195.484L192.328 180.901Z" fill="url(#paint0_linear_4489_8731)"/>
<path d="M192.396 188.519C192.465 188.519 199.145 186.483 208.142 179.853C208.142 179.853 208.142 179.853 208.142 179.793C209.853 176.28 210.349 165.193 210.357 165.081C210.362 165.032 210.384 164.986 210.421 164.953C210.457 164.919 210.505 164.901 210.554 164.901C210.58 164.902 210.605 164.908 210.628 164.919C210.651 164.93 210.671 164.946 210.688 164.965C210.705 164.985 210.718 165.007 210.725 165.032C210.733 165.056 210.736 165.082 210.734 165.107C210.734 165.545 210.246 175.413 208.707 179.432L208.844 179.338C218.175 172.287 223.059 157.696 223.11 157.55C223.118 157.526 223.13 157.504 223.146 157.485C223.162 157.466 223.182 157.45 223.205 157.439C223.227 157.428 223.251 157.421 223.276 157.42C223.301 157.418 223.326 157.421 223.349 157.429C223.373 157.437 223.395 157.449 223.414 157.466C223.433 157.482 223.448 157.502 223.459 157.524C223.47 157.547 223.477 157.571 223.479 157.596C223.48 157.621 223.477 157.646 223.469 157.67C223.426 157.816 218.5 172.527 209.066 179.647C206.852 181.322 204.548 182.873 202.164 184.293C204.884 186.87 209.956 186.011 210.007 186.011C210.056 186.003 210.105 186.015 210.145 186.044C210.185 186.073 210.212 186.117 210.221 186.165C210.226 186.19 210.225 186.216 210.22 186.241C210.215 186.266 210.205 186.289 210.191 186.31C210.176 186.331 210.158 186.348 210.137 186.362C210.115 186.376 210.092 186.385 210.067 186.389C209.39 186.491 208.707 186.54 208.023 186.535C206.201 186.535 203.566 186.191 201.822 184.482C198.882 186.277 195.759 187.751 192.508 188.879H192.448C192.408 188.877 192.369 188.862 192.337 188.838C192.305 188.813 192.281 188.78 192.268 188.742C192.259 188.695 192.267 188.647 192.291 188.606C192.315 188.565 192.352 188.534 192.396 188.519Z" fill="#C9DEFF"/>
<path d="M182.715 96.1008L79.481 37.5463C75.4098 35.279 70.9281 35.2447 67.5924 37.4604L67.4299 37.5721C66.7246 38.0729 66.1639 38.7523 65.8049 39.5412C65.4459 40.3301 65.3013 41.2005 65.3858 42.0637C65.497 44.3825 89.2484 152.663 89.2484 152.663L183.715 206.236C190.002 209.809 196.545 206.176 196.596 199.082L197.118 120.689C197.178 110.924 191.379 101.013 182.715 96.1008Z" fill="url(#paint1_linear_4489_8731)"/>
<path d="M168.576 104.474L72.4244 49.9049L70.4316 48.7713L69.1401 48.0413C67.975 47.3703 67.0113 46.3965 66.3506 45.2222C65.6899 44.048 65.3565 42.7167 65.3854 41.3682V45.8942L64.7012 143.182C64.7609 146.796 65.7518 150.333 67.5774 153.448C69.403 156.564 72.0011 159.152 75.1186 160.959L169.603 214.601C175.898 218.174 182.432 214.541 182.483 207.447L183.005 129.054C183.048 119.289 177.24 109.387 168.576 104.474Z" fill="url(#paint2_linear_4489_8731)"/>
<path d="M212.367 213.253C212.453 200.722 203.387 187.488 192.131 183.752C187.658 182.258 183.518 182.481 180.157 184.07L177.822 185.195L202.104 229.648L204.49 228.462C209.229 225.886 212.299 220.475 212.367 213.253Z" fill="#CBCFD5"/>
<path opacity="0.06" d="M189.855 183.134C189.214 183.005 188.581 182.902 187.957 182.833L181.97 184.757L182.312 185.564L189.855 183.134Z" fill="black"/>
<path opacity="0.06" d="M193.225 184.156L183.133 187.419L183.475 188.227L194.406 184.68C194.038 184.499 193.636 184.319 193.225 184.156Z" fill="black"/>
<path opacity="0.06" d="M196.912 185.994L184.263 190.082L184.596 190.889L197.87 186.595C197.554 186.389 197.229 186.191 196.912 185.994Z" fill="black"/>
<path opacity="0.06" d="M199.88 188.064L185.34 192.744L185.682 193.543L200.675 188.699L199.88 188.064Z" fill="black"/>
<path opacity="0.06" d="M202.369 190.279L186.503 195.432L186.845 196.231L203.096 191.001L202.369 190.279Z" fill="black"/>
<path opacity="0.06" d="M204.507 192.615L187.632 198.069L187.965 198.867L205.071 193.337L204.507 192.615Z" fill="black"/>
<path opacity="0.06" d="M206.38 195.046L188.753 200.722L189.095 201.521L206.868 195.784C206.705 195.57 206.534 195.286 206.38 195.046Z" fill="black"/>
<path opacity="0.06" d="M207.954 197.553L189.873 203.393L190.215 204.192L208.39 198.326L207.954 197.553Z" fill="black"/>
<path opacity="0.06" d="M209.305 200.138L190.984 206.056L191.326 206.854L209.647 200.937L209.305 200.138Z" fill="black"/>
<path opacity="0.06" d="M210.425 202.801L192.122 208.718L192.464 209.517L210.716 203.625C210.656 203.351 210.528 203.076 210.425 202.801Z" fill="black"/>
<path opacity="0.06" d="M211.298 205.549L193.251 211.381L193.585 212.179L211.546 206.391C211.452 206.107 211.375 205.824 211.298 205.549Z" fill="black"/>
<path opacity="0.06" d="M211.931 208.366L194.406 214.043L194.748 214.842L212.102 209.242C212.025 208.95 211.982 208.658 211.931 208.366Z" fill="black"/>
<path opacity="0.06" d="M212.282 211.277L195.492 216.705L195.834 217.504L212.333 212.179C212.327 211.881 212.31 211.581 212.282 211.277Z" fill="black"/>
<path opacity="0.06" d="M212.316 214.292L196.621 219.359L196.955 220.166L212.247 215.228C212.273 214.919 212.299 214.61 212.316 214.292Z" fill="black"/>
<path opacity="0.06" d="M198.323 222.751L211.734 218.457C211.82 218.131 211.88 217.804 211.948 217.469L197.896 222.013L198.323 222.751Z" fill="black"/>
<path opacity="0.06" d="M199.725 225.328L210.553 221.832C210.716 221.48 210.861 221.128 211.007 220.767L199.298 224.546L199.725 225.328Z" fill="black"/>
<path opacity="0.06" d="M201.128 227.896L207.97 225.671C208.34 225.279 208.682 224.863 208.997 224.426L200.675 227.114L201.128 227.896Z" fill="black"/>
<path d="M190.044 184.757C178.788 180.995 169.594 188.098 169.517 200.628C169.44 213.158 178.489 226.393 189.753 230.129C201.017 233.864 210.212 226.788 210.28 214.266C210.349 201.745 201.308 188.527 190.044 184.757Z" fill="#DEE0E4"/>
<path opacity="0.4" d="M187.658 186.483C188.386 186.634 189.103 186.832 189.805 187.076C199.829 190.511 207.997 202.535 208.014 213.759C208.014 218.912 206.303 223.249 203.165 225.929C200.265 228.419 196.322 229.304 192.131 228.411C191.407 228.254 190.693 228.054 189.993 227.81C179.961 224.374 171.793 212.351 171.775 201.135C171.775 195.982 173.486 191.688 176.625 188.957C179.524 186.466 183.467 185.59 187.658 186.483ZM187.658 185.916C178.404 183.958 171.237 190.314 171.245 201.023C171.245 212.574 179.618 224.804 189.916 228.351C190.636 228.601 191.37 228.808 192.114 228.969C201.368 230.927 208.536 224.572 208.527 213.862C208.527 202.311 200.154 190.082 189.856 186.535C189.137 186.284 188.403 186.078 187.658 185.916Z" fill="white"/>
<path d="M189.111 207.378L195.261 216.104C196.069 215.373 196.708 214.473 197.13 213.467C197.553 212.46 197.75 211.373 197.707 210.281C197.664 207.606 196.834 205.003 195.321 202.801L189.111 207.378Z" fill="#EAEDF1"/>
<path d="M188.667 207.713L182.518 212.239L188.59 217.006L194.697 216.336L188.667 207.713Z" fill="#EAEDF1"/>
<path d="M188.436 206.872L194.782 202.217L189 197.674L183.064 210.857L188.436 206.872Z" fill="#EAEDF1"/>
<path d="M179.584 204.158C179.628 206.829 180.455 209.428 181.962 211.63L188.154 197.888L179.601 204.201L179.584 204.158Z" fill="#EAEDF1"/>
<path opacity="0.06" d="M187.042 197.287L187.128 184.044C177.241 182.327 169.586 189.197 169.509 200.654C169.501 202.743 169.728 204.825 170.185 206.863L171.262 207.473C174.735 209.551 186.965 208.357 187.042 197.287Z" fill="black"/>
<path d="M174.589 121.754L125.213 96.4701C124.074 95.7861 123.128 94.8227 122.462 93.6705C121.796 92.5182 121.433 91.2149 121.407 89.883L120.851 12.8724C120.877 12.2864 121.046 11.7158 121.342 11.2105C121.639 10.7052 122.055 10.2806 122.552 9.97389C123.05 9.66713 123.616 9.48755 124.199 9.45087C124.782 9.41419 125.365 9.52153 125.897 9.76349L176.137 34.6693C177.275 35.3533 178.222 36.3167 178.887 37.469C179.553 38.6213 179.916 39.9246 179.943 41.2565L179.293 118.611C179.308 119.177 179.179 119.739 178.919 120.242C178.659 120.745 178.276 121.174 177.806 121.488C177.336 121.802 176.794 121.992 176.231 122.038C175.669 122.084 175.103 121.987 174.589 121.754Z" fill="url(#paint3_linear_4489_8731)"/>
<path d="M174.341 121.711L124.101 96.8051C122.963 96.1211 122.016 95.1577 121.35 94.0054C120.684 92.8531 120.321 91.5498 120.295 90.2179L120.808 13.2847C120.808 10.7082 122.519 9.46292 124.683 10.5193L174.914 35.4251C176.053 36.1087 177.001 37.0718 177.668 38.224C178.336 39.3762 178.7 40.6797 178.728 42.0123L178.215 118.946C178.198 121.548 176.445 122.793 174.341 121.711Z" fill="#80C3FF"/>
<path d="M174.862 48.4621C170.954 46.5212 167.815 41.0934 167.84 36.3355L131.482 18.3003C131.439 22.9809 128.343 25.2567 124.511 23.4532L124.109 83.9229C127.89 85.9067 130.952 91.1455 130.952 95.7918L167.336 113.827C167.438 109.181 170.594 106.956 174.46 108.88L174.862 48.4192V48.4621Z" fill="#2A7CDD"/>
<path d="M139.017 48.1528L133.672 53.1597L141.079 59.6953L145.68 59.1199L139.017 48.1528Z" fill="#FFCF00"/>
<path d="M144.252 58.4071L139.018 48.1528L150.821 54.0185L144.252 58.4071Z" fill="#FFDF00"/>
<path d="M149.598 53.4088L144.252 58.4072L149.358 64.1012L156.26 64.3674L149.598 53.4088Z" fill="#FFCF00"/>
<path d="M160.178 58.6649L153.139 62.8216L158.288 68.5328L165.421 68.9192L160.178 58.6649Z" fill="#FFCF00"/>
<path d="M154.832 63.6632L149.598 53.4088L160.178 58.6648L154.832 63.6632Z" fill="#FFDF00"/>
<path d="M149.384 84.8417L145.013 58.7851L133.672 53.1598L149.384 84.8417Z" fill="#FFD700"/>
<path d="M149.384 84.8417L153.139 62.8215L165.42 68.9191L149.384 84.8417Z" fill="#FFD700"/>
<path d="M149.384 84.8416L144.252 58.4071L154.832 63.6631L149.384 84.8416Z" fill="#FFDF00"/>
<path opacity="0.06" d="M120.672 33.5443L120.424 70.8343L131.346 91.0166L134.322 89.5395C140.232 86.3361 143.73 78.4864 143.816 69.4946C143.944 54.6627 133.724 39.0751 120.672 33.5443Z" fill="black"/>
<path d="M141.857 69.0824C141.959 53.4776 130.678 37.0311 116.66 32.342C111.092 30.4869 105.943 30.7617 101.735 32.7456L98.8271 34.1111L129.079 89.4536L132.047 87.9764C137.957 84.7816 141.797 78.0656 141.857 69.0824Z" fill="#F7CD23"/>
<path opacity="0.06" d="M113.855 31.5862C113.076 31.4169 112.288 31.2907 111.495 31.2083L104.088 33.5958L104.507 34.6006L113.855 31.5862Z" fill="black"/>
<path opacity="0.06" d="M118.054 32.8573L105.456 36.9109L105.884 37.9157L119.568 33.51C119.064 33.2523 118.559 33.0548 118.054 32.8573Z" fill="black"/>
<path opacity="0.06" d="M122.638 35.1416L106.884 40.2258L107.303 41.2306L123.827 35.8974C123.417 35.6311 123.032 35.3821 122.638 35.1416Z" fill="black"/>
<path opacity="0.06" d="M126.325 37.7183L108.287 43.5582L108.706 44.5631L127.317 38.5513C126.992 38.2507 126.659 37.9845 126.325 37.7183Z" fill="black"/>
<path opacity="0.06" d="M129.404 40.4749L109.655 46.8559L110.083 47.8608L130.259 41.3423C130.003 41.0503 129.72 40.7583 129.404 40.4749Z" fill="black"/>
<path opacity="0.06" d="M132.098 43.3864L111.084 50.1711L111.503 51.1759L132.834 44.3053C132.595 43.979 132.346 43.6784 132.098 43.3864Z" fill="black"/>
<path opacity="0.06" d="M134.399 46.4094L112.478 53.4861L112.905 54.4823L135.032 47.3369C134.826 46.9934 134.612 46.71 134.399 46.4094Z" fill="black"/>
<path opacity="0.06" d="M136.383 49.5699L113.88 56.8355L114.299 57.8318L136.93 50.5318C136.75 50.1711 136.562 49.8533 136.383 49.5699Z" fill="black"/>
<path opacity="0.06" d="M138.068 52.7561L115.274 60.1162L115.702 61.1125L138.513 53.7438C138.367 53.4174 138.222 53.0825 138.068 52.7561Z" fill="black"/>
<path opacity="0.06" d="M139.462 56.0711L116.677 63.4312L117.096 64.4274L139.821 57.0931C139.667 56.7495 139.59 56.4404 139.462 56.0711Z" fill="black"/>
<path opacity="0.06" d="M140.523 59.4806L118.071 66.7462L118.499 67.751L140.822 60.5455C140.736 60.1848 140.651 59.8757 140.523 59.4806Z" fill="black"/>
<path opacity="0.06" d="M141.378 62.9933L119.517 70.0528L119.936 71.0576L141.549 64.084C141.455 63.7147 141.378 63.354 141.378 62.9933Z" fill="black"/>
<path opacity="0.06" d="M141.771 66.6175L120.851 73.3679L121.278 74.3727L141.805 67.7426C141.822 67.3647 141.797 66.9954 141.771 66.6175Z" fill="black"/>
<path opacity="0.06" d="M141.814 70.3705L122.271 76.6828L122.69 77.6876L141.728 71.5385C141.763 71.152 141.797 70.7655 141.814 70.3705Z" fill="black"/>
<path opacity="0.06" d="M124.392 80.9083L141.095 75.5149C141.19 75.1113 141.275 74.6991 141.352 74.2868L123.861 79.9379L124.392 80.9083Z" fill="black"/>
<path opacity="0.06" d="M126.145 84.1031L139.616 79.7574C139.821 79.328 140.01 78.8986 140.181 78.4348L125.641 83.1412L126.145 84.1031Z" fill="black"/>
<path opacity="0.06" d="M127.89 87.3066L136.443 84.5412C136.896 84.0494 137.321 83.5334 137.718 82.9953L127.352 86.3361L127.89 87.3066Z" fill="black"/>
<path d="M130.21 88.8567C140.954 82.3152 142.361 64.9194 133.354 50.0021C124.346 35.0847 108.334 28.2948 97.5897 34.8362C86.8456 41.3777 85.438 58.7735 94.4457 73.6908C103.453 88.6081 119.466 95.3981 130.21 88.8567Z" fill="#FFDE05"/>
<path opacity="0.4" d="M111.118 35.743C112.021 35.9382 112.912 36.1877 113.786 36.4901C126.265 40.7843 136.434 55.6848 136.451 69.7008C136.451 76.1334 134.322 81.5182 130.421 84.859C126.812 87.9593 121.928 89.0586 116.685 87.9422C115.781 87.755 114.889 87.5083 114.017 87.2036C101.53 82.9095 91.3603 68.0003 91.3432 53.9843C91.3432 47.5518 93.4814 42.1755 97.3302 38.8261C100.948 35.7258 105.823 34.6351 111.075 35.743H111.118ZM111.075 35.0473C99.554 32.6083 90.6333 40.518 90.6504 53.8555C90.6504 68.2322 101.076 83.4591 113.889 87.8734C114.786 88.1874 115.704 88.4427 116.634 88.6378C128.198 91.0854 137.101 83.1671 137.101 69.8382C137.101 55.4615 126.675 40.226 113.863 35.8117C112.961 35.5006 112.042 35.2453 111.109 35.0473H111.075Z" fill="white"/>
<path d="M112.931 61.7651L120.577 72.6292C121.588 71.7206 122.385 70.5988 122.913 69.3441C123.441 68.0894 123.686 66.733 123.63 65.3721C123.573 62.0436 122.541 58.8058 120.662 56.0625L112.965 61.7651H112.931Z" fill="#FFEB47"/>
<path d="M112.367 62.1774L104.712 67.8198L112.273 73.7543L119.876 72.9127L112.367 62.1774Z" fill="#FFEB47"/>
<path d="M112.084 61.1383L119.987 55.3413L112.785 49.6816L105.396 66.0937L112.084 61.1383Z" fill="#FFEB47"/>
<path d="M101.068 57.7889C101.12 61.1118 102.149 64.3451 104.028 67.0814L111.725 49.9049L101.068 57.7717V57.7889Z" fill="#FFEB47"/>
<path opacity="0.06" d="M88.4443 54.5253C89.4184 58.8467 91.0238 62.9997 93.2083 66.8494L128.703 86.4992C131.859 85.5603 134.703 83.7794 136.931 81.3463L88.4443 54.5253Z" fill="black"/>
<path d="M182.714 96.1008L179.498 94.2715V95.6971L180.952 96.5559C189.779 101.537 195.706 111.628 195.637 121.565L195.158 185.04C195.654 185.289 196.236 185.616 196.724 185.899L197.134 120.715C197.177 110.924 191.378 101.013 182.714 96.1008Z" fill="url(#paint4_linear_4489_8731)"/>
<path d="M170.321 103.401L135.554 83.6479L88.7181 57.1188L69.7221 46.3406C66.9681 44.8033 66.2496 40.8528 68.4392 39.2639L68.7043 39.075C71.6465 36.9365 75.7262 36.9022 79.4297 38.9719L89.8728 44.8806C90.0182 44.4598 90.1636 44.0218 90.3261 43.6525L79.481 37.5463C75.4098 35.279 70.9281 35.2447 67.5924 37.4604L67.4299 37.5721C66.7246 38.0729 66.1639 38.7523 65.8049 39.5412C65.4459 40.3301 65.3013 41.2005 65.3858 42.0637C65.3858 42.3643 65.266 46.8302 70.2866 49.6299C74.9137 52.1463 81.508 55.9079 89.2056 60.2535C102.471 67.7682 118.944 77.138 134.014 85.6918C147.015 93.0691 158.98 99.8452 166.926 104.285C171.904 107.068 182.124 116.309 182.047 127.147C181.945 143.027 178.361 199.065 175.385 215.949C177.855 215.618 180.215 214.716 182.278 213.313C184.588 211.647 184.571 206.665 184.571 206.665V191.516L184.998 128.41C185.075 118.464 179.148 108.382 170.321 103.401Z" fill="url(#paint5_linear_4489_8731)"/>
<path d="M182.714 96.1008L179.498 94.2715V95.6971L180.952 96.5559C189.779 101.537 195.706 111.628 195.637 121.565L195.158 185.04C195.654 185.289 196.236 185.616 196.724 185.899L197.134 120.715C197.177 110.924 191.378 101.013 182.714 96.1008Z" fill="url(#paint6_linear_4489_8731)"/>
<path d="M168.576 104.474L72.4244 49.9049L70.4316 48.7713L69.1401 48.0413C67.975 47.3703 67.0113 46.3965 66.3506 45.2222C65.6899 44.048 65.3565 42.7167 65.3854 41.3682V45.8942L64.7012 143.182C64.7609 146.796 65.7518 150.333 67.5774 153.448C69.403 156.564 72.0011 159.152 75.1186 160.959L169.603 214.601C175.898 218.174 182.432 214.541 182.483 207.447L183.005 129.054C183.048 119.289 177.24 109.387 168.576 104.474Z" fill="url(#paint7_linear_4489_8731)"/>
<path d="M197.314 150.499L196.92 150.378L185.742 156.201C185.069 156.544 184.312 156.687 183.561 156.613C182.904 156.492 182.27 156.272 181.679 155.961L167.994 148.231C163.906 145.913 159.647 148.231 159.621 152.878C159.661 155.559 160.391 158.184 161.74 160.498C163.089 162.813 165.011 164.738 167.319 166.086L183.569 175.327L196.741 168.457L198.024 151.28C198.084 150.911 197.776 150.679 197.314 150.499Z" fill="#CFE6FF"/>
<path d="M185.998 157.781C185.305 158.149 184.519 158.301 183.74 158.219C183.088 158.13 182.455 157.932 181.867 157.635L166.754 149.047C162.666 146.728 158.407 149.047 158.381 153.694C158.421 156.375 159.151 159 160.5 161.314C161.849 163.629 163.77 165.554 166.078 166.902L181.782 175.817C182.367 176.078 182.981 176.269 183.612 176.384C184.399 176.501 185.202 176.344 185.887 175.937L197.143 170.097C197.408 169.955 197.628 169.741 197.78 169.481C197.931 169.22 198.006 168.922 197.998 168.62L198.118 151.237C198.118 151.237 198.066 151.383 197.776 151.538L185.998 157.781Z" fill="url(#paint8_linear_4489_8731)"/>
<path d="M168.142 162.281C170.142 161.346 170.678 158.246 169.339 155.356C168 152.466 165.293 150.881 163.293 151.815C161.293 152.75 160.757 155.85 162.096 158.74C163.435 161.63 166.142 163.215 168.142 162.281Z" fill="white"/>
<path fill-rule="evenodd" clip-rule="evenodd" d="M143.852 136.321L143.784 135.927C143.427 133.829 142.6 131.838 141.365 130.105C140.13 128.372 138.519 126.94 136.653 125.918L128.555 121.5L102.711 107.399C98.9355 105.335 96.1619 106.174 95.4685 109.582L95.4086 109.907C95.2688 110.756 95.2029 111.616 95.2117 112.476L95.1433 123.033C95.1372 123.81 95.1715 124.588 95.246 125.361V125.379C95.4656 127.659 96.2447 129.85 97.514 131.758C98.7833 133.665 100.504 135.229 102.522 136.312L125.636 148.932H125.704L127.048 149.66C127.262 149.771 127.433 149.66 127.442 149.412L127.553 132.288C127.547 132.153 127.509 132.021 127.442 131.904C127.375 131.786 127.281 131.686 127.168 131.612L125.756 130.841C125.542 130.721 125.37 130.841 125.37 131.089L125.268 146.081L103.087 133.975C101.338 133.024 99.8802 131.617 98.8686 129.902C97.8569 128.188 97.3297 126.231 97.3433 124.24L97.4203 113.563C97.4203 109.608 99.569 108.203 103.241 110.207L132.536 126.235L136.088 128.178C137.833 129.105 139.289 130.494 140.298 132.192C141.306 133.891 141.828 135.835 141.807 137.81L141.738 148.496C141.738 152.426 139.606 153.941 135.934 151.92L135.181 151.518L134.282 151.039L133.862 150.807C133.648 150.696 133.469 150.807 133.469 151.056V152.777C133.476 152.91 133.515 153.04 133.582 153.156C133.649 153.272 133.742 153.371 133.854 153.444L134.136 153.599L134.838 153.984L135.232 154.198L136.473 154.874C140.608 157.126 143.322 155.996 143.81 151.895C143.895 151.167 143.941 150.436 143.947 149.703L144.015 139.138C144.027 138.196 143.973 137.255 143.852 136.321ZM117.341 122.63L115.928 121.86C115.714 121.74 115.543 121.86 115.534 122.099L115.466 133.127C115.442 133.953 115.635 134.771 116.026 135.5C116.416 136.228 116.991 136.842 117.692 137.28L118.3 137.614C118.514 137.733 118.694 137.614 118.694 137.365V135.918C118.688 135.783 118.649 135.651 118.582 135.534C118.515 135.416 118.422 135.316 118.308 135.242L117.598 134.857L117.683 123.298C117.681 123.168 117.649 123.04 117.589 122.925C117.53 122.809 117.445 122.708 117.341 122.63ZM120.431 135.833V129.403L120.405 129.394C120.405 129.146 120.585 129.026 120.799 129.146L122.212 129.916C122.324 129.99 122.417 130.089 122.484 130.204C122.551 130.32 122.59 130.451 122.597 130.584V137.536L123.282 137.905C123.4 137.969 123.495 138.068 123.556 138.187C123.588 138.248 123.617 138.311 123.642 138.376C123.649 138.441 123.649 138.507 123.642 138.572V140.019C123.642 140.259 123.462 140.379 123.248 140.259L122.657 139.934C121.962 139.502 121.392 138.897 121.001 138.178C120.611 137.459 120.415 136.651 120.431 135.833ZM113.848 121.38V121.338V121.252V121.098C113.837 121.035 113.817 120.975 113.788 120.918C113.793 120.898 113.793 120.878 113.788 120.858C113.773 120.826 113.753 120.797 113.728 120.772L113.677 120.704L113.625 120.635L113.488 120.533L111.87 119.677H111.819H111.725C111.683 119.663 111.638 119.663 111.597 119.677L106.563 121.954C106.015 122.305 105.955 123.298 106.435 124.274L111.434 133.692C111.466 133.742 111.503 133.788 111.545 133.829C111.585 133.871 111.631 133.906 111.682 133.932L113.334 134.84C113.373 134.851 113.415 134.851 113.454 134.84H113.497H113.565L113.634 134.763C113.639 134.749 113.639 134.734 113.634 134.72C113.643 134.686 113.643 134.651 113.634 134.617V134.574C113.633 134.464 113.607 134.356 113.557 134.257L108.241 124.086L113.591 121.406C113.633 121.424 113.678 121.431 113.723 121.427C113.768 121.422 113.811 121.406 113.848 121.38ZM122.238 127.862L120.833 127.091C120.637 126.985 120.489 126.807 120.422 126.595C120.419 126.538 120.419 126.48 120.422 126.423V124.797C120.422 124.557 120.594 124.437 120.808 124.557L122.212 125.327C122.324 125.401 122.417 125.5 122.484 125.616C122.551 125.731 122.59 125.862 122.597 125.995V127.622C122.606 127.676 122.606 127.731 122.597 127.785C122.582 127.817 122.56 127.845 122.532 127.867C122.504 127.889 122.471 127.905 122.436 127.912C122.402 127.92 122.366 127.919 122.331 127.91C122.297 127.902 122.265 127.885 122.238 127.862ZM105.117 116.406C105.109 116.272 105.07 116.142 105.004 116.026C104.937 115.91 104.843 115.812 104.731 115.738L103.319 114.976C103.279 114.954 103.235 114.94 103.19 114.933H103.139H103.062C103.031 114.954 103.007 114.984 102.993 115.019C102.981 115.072 102.981 115.128 102.993 115.182L102.899 128.641C102.892 128.706 102.892 128.772 102.899 128.838C102.957 129.031 103.081 129.198 103.25 129.309L104.654 130.079C104.868 130.199 105.04 130.079 105.04 129.84L105.134 116.389L105.117 116.406ZM136.148 142.657C136.151 142.679 136.151 142.702 136.148 142.725C135.788 144.48 134.427 144.96 132.544 143.941L131.303 143.256L128.983 141.989C128.871 141.915 128.778 141.817 128.711 141.701C128.644 141.585 128.605 141.455 128.598 141.321V139.677V139.609C128.595 139.577 128.595 139.546 128.598 139.514C128.616 139.482 128.639 139.453 128.666 139.429H128.769C128.8 139.424 128.832 139.424 128.863 139.429H128.923L131.243 140.696L132.202 141.218C133.511 141.937 134.188 141.595 134.188 140.225V140.174C134.192 139.522 134.011 138.883 133.665 138.331C133.32 137.779 132.824 137.337 132.236 137.057L131.269 136.535L128.949 135.268C128.891 135.236 128.839 135.196 128.795 135.148C128.703 135.046 128.633 134.926 128.589 134.797C128.581 134.729 128.581 134.66 128.589 134.591V132.956C128.585 132.905 128.594 132.854 128.615 132.808C128.636 132.761 128.668 132.721 128.709 132.691C128.75 132.666 128.798 132.652 128.846 132.652C128.894 132.652 128.942 132.666 128.983 132.691L131.303 133.958L132.501 134.608C133.523 135.174 134.393 135.978 135.036 136.954C135.678 137.929 136.075 139.046 136.191 140.208C136.267 140.995 136.253 141.788 136.148 142.571V142.657Z" fill="white"/>
<path d="M146.02 229.084L145.915 231.637L147.113 232.021L147.245 229.189L146.02 229.084Z" fill="#FEC6BD"/>
<path d="M146.047 231.335C145.648 231.421 145.271 231.587 144.939 231.825C144.243 232.272 142.85 232.035 142.516 232.594C142.182 233.153 142.704 233.216 143.825 233.293C145.22 233.348 146.617 233.295 148.004 233.132C148.366 233.028 148.345 231.447 147.307 230.993L146.047 231.335Z" fill="#30343A"/>
<path d="M142.893 212.72L145.595 229.916L147.614 229.846L148.61 211.706C148.959 208.871 149.015 206.008 148.777 203.161L142.893 212.72Z" fill="#255299"/>
<path d="M142.893 212.72L145.595 229.916L147.614 229.846L148.61 211.706C148.959 208.871 149.015 206.008 148.777 203.161L142.893 212.72Z" fill="url(#paint9_linear_4489_8731)"/>
<path d="M138.227 229.762L138.122 232.315L139.32 232.699L139.459 229.867L138.227 229.762Z" fill="#FEC6BD"/>
<path d="M138.255 232.014C137.856 232.094 137.478 232.258 137.147 232.496C136.451 232.944 135.058 232.706 134.731 233.272C134.403 233.839 134.912 233.895 136.033 233.972C137.428 234.034 138.825 233.98 140.211 233.811C140.574 233.706 140.553 232.126 139.515 231.678L138.255 232.014Z" fill="#30343A"/>
<path d="M137.934 202.581C137.934 202.581 137.649 212.329 137.844 219.671C138.039 227.014 137.934 230.321 137.934 230.321L139.668 230.517C139.668 230.517 141.409 225.979 142.851 221.343C143.772 218.189 144.349 214.944 144.571 211.665C144.571 211.665 149.669 207.042 148.749 201.245L137.934 202.581Z" fill="#2A60B6"/>
<path d="M138.86 175.078C138.86 175.078 138.546 176.721 138.484 177.644C138.358 179.644 139.424 181.141 139.96 181.141C140.496 181.141 141.214 181.036 141.214 181.036L142.189 182.322L144.48 181.987L143.01 178.798C143.01 178.798 143.742 175.868 142.781 175.518C141.491 175.245 140.178 175.097 138.86 175.078Z" fill="#FEC6BD"/>
<path d="M144.745 181.609C144.745 181.609 142.405 181.344 141.792 181.868C141.179 182.393 139.348 184.399 138.603 188.483C138.275 190.294 137.906 202.637 137.906 202.637C137.906 202.637 149.334 215.923 153.429 215.371C153.429 215.371 150.052 194.106 148.513 188.532C146.973 182.959 144.745 181.609 144.745 181.609Z" fill="#6DB3FA"/>
<path d="M131.304 190.449L132.203 190.064C132.321 190.015 132.335 189.847 132.245 189.694L130.789 187.329C130.755 187.26 130.699 187.203 130.63 187.169C130.56 187.135 130.482 187.125 130.406 187.141L129.507 187.525C129.396 187.574 129.375 187.742 129.472 187.896L130.928 190.267C130.962 190.335 131.017 190.39 131.085 190.423C131.154 190.455 131.231 190.465 131.304 190.449Z" fill="#30343A"/>
<path d="M131.464 191.435C131.464 191.435 130.169 190.63 130.169 190.099C130.169 189.567 129.674 188.588 130.204 188.7C130.733 188.812 132.161 190.672 132.161 190.672L131.464 191.435Z" fill="#FEC6BD"/>
<path d="M138.094 197.336L137.982 200.301C137.982 200.301 140.253 202.175 142.857 197.504C144.25 194.994 145.295 188.553 145.295 188.553L138.094 197.336Z" fill="url(#paint10_linear_4489_8731)"/>
<path d="M139.932 186.805C139.383 188.906 138.704 190.97 137.899 192.987C137.773 193.315 132.279 190.567 132.279 190.567L131.192 191.567C131.192 191.567 138.922 200.944 141.673 196.462C143.227 194.015 144.452 191.372 145.316 188.602L139.932 186.805Z" fill="#6DB2F9"/>
<path d="M139.667 173.596C138.971 173.973 138.177 176.295 138.511 176.295C138.846 176.295 140.183 176.295 140.538 176.344L140.775 177.246C140.775 177.246 140.824 176.602 141.388 176.77C141.952 176.938 141.694 178.001 141.13 178.169C141.065 178.999 141.266 179.829 141.703 180.537C142.14 181.245 142.791 181.794 143.56 182.106C146.346 183.385 145.545 189.952 149.772 188.399C154 186.847 152.043 184.651 148.971 181.001C145.9 177.351 146.346 176.26 144.884 174.575C144.234 173.871 143.376 173.395 142.437 173.219C141.497 173.043 140.526 173.175 139.667 173.596Z" fill="#37475E"/>
<path d="M91.4028 140.213L105.891 148.664C103.856 147.479 101.145 147.47 98.1253 148.853L83.6367 140.394C86.6388 139.011 89.3757 139.019 91.4028 140.213Z" fill="#80C3FF"/>
<path d="M80.6525 136.709L95.1925 145.169C94.871 144.975 94.5298 144.817 94.1747 144.696C91.8996 143.838 89.0429 144.362 86.0836 146.062C85.2451 146.55 84.4446 147.101 83.6888 147.711L69.2002 139.26C69.9574 138.653 70.7578 138.101 71.595 137.611C74.5372 135.894 77.411 135.421 79.6946 136.237C80.0273 136.366 80.3479 136.524 80.6525 136.709Z" fill="url(#paint11_linear_4489_8731)"/>
<path d="M64.2049 139.183C74.1604 133.411 82.4226 137.276 83.6456 147.711C84.4014 147.101 85.2019 146.55 86.0404 146.062C88.9741 144.344 91.8564 143.872 94.1315 144.696C95.0618 145.05 95.9024 145.606 96.5931 146.325C97.2837 147.043 97.8071 147.907 98.1257 148.853C104.566 145.899 109.612 149.283 109.638 156.909C109.638 165.068 103.925 175.03 96.8599 179.127L42.7028 210.525C33.2946 215.97 25.6569 211.59 25.597 200.76C25.5372 189.931 33.1835 176.713 42.566 171.251C43.3063 170.822 44.0717 170.437 44.8582 170.1C46.0641 158.309 54.2664 144.945 64.2049 139.183Z" fill="url(#paint12_linear_4489_8731)"/>
<path d="M63.6065 129.375C60.057 127.297 55.1391 127.589 49.7165 130.732C39.7866 136.486 31.5844 149.858 30.3955 161.649L44.8841 170.1C46.0644 158.309 54.2923 144.945 64.2052 139.183C69.6191 136.039 74.5456 135.747 78.0951 137.826L63.6065 129.375Z" fill="url(#paint13_linear_4489_8731)"/>
<path d="M30.6004 211.71L16.1118 203.302C13.0499 201.516 11.1511 197.729 11.1426 192.344C11.1426 181.523 18.7205 168.297 28.103 162.843C28.8414 162.41 29.6071 162.026 30.3952 161.692L44.8838 170.143C44.0973 170.48 43.3319 170.864 42.5916 171.294C33.2091 176.679 25.597 189.93 25.6227 200.726C25.6398 206.136 27.5385 209.924 30.6004 211.71Z" fill="url(#paint14_linear_4489_8731)"/>
<path d="M78.4454 161.916L73.9124 159.339C72.0478 158.343 69.6359 158.438 66.9417 159.88C61.1087 163.024 56.3789 171.346 56.3789 178.465C56.3789 182.218 57.6961 184.864 59.8001 186.092L64.3074 188.668L78.4454 161.916Z" fill="url(#paint15_linear_4489_8731)"/>
<path d="M79.3562 179.477C83.1749 172.035 82.6964 164.153 78.2874 161.872C73.8785 159.591 67.2086 163.774 63.3899 171.216C59.5712 178.658 60.0498 186.54 64.4587 188.821C68.8677 191.102 75.5375 186.919 79.3562 179.477Z" fill="#CFE6FF"/>
<path d="M74.1686 172.016C74.1686 170.126 72.9198 169.276 71.3718 170.109C70.5409 170.642 69.8515 171.371 69.3628 172.231C68.8741 173.091 68.6008 174.057 68.5664 175.047C68.5664 176.387 69.1993 177.203 70.123 177.263V180.973C70.123 181.832 70.6875 182.193 71.3718 181.832C71.7394 181.595 72.0443 181.272 72.2603 180.89C72.4762 180.509 72.5969 180.08 72.6119 179.642V175.915C73.5619 174.833 74.1117 173.456 74.1686 172.016Z" fill="#2A60B7"/>
<defs>
<linearGradient id="paint0_linear_4489_8731" x1="228.909" y1="172.038" x2="189.839" y2="171.373" gradientUnits="userSpaceOnUse">
<stop stop-color="#CDEAFF"/>
<stop offset="1" stop-color="#F4FAFF"/>
</linearGradient>
<linearGradient id="paint1_linear_4489_8731" x1="64.7281" y1="107.33" x2="197.149" y2="108.61" gradientUnits="userSpaceOnUse">
<stop offset="0.19" stop-color="#6097F9"/>
<stop offset="0.99" stop-color="#86C4FB"/>
</linearGradient>
<linearGradient id="paint2_linear_4489_8731" x1="64.6367" y1="116.742" x2="182.96" y2="117.886" gradientUnits="userSpaceOnUse">
<stop stop-color="#3978FB"/>
<stop offset="0.19" stop-color="#6097F9"/>
<stop offset="0.99" stop-color="#86C4FB"/>
</linearGradient>
<linearGradient id="paint3_linear_4489_8731" x1="123.283" y1="17.734" x2="169.087" y2="106.305" gradientUnits="userSpaceOnUse">
<stop stop-color="#80B8EC"/>
<stop offset="0.15" stop-color="#60A1F9"/>
<stop offset="1" stop-color="#68A3F0"/>
</linearGradient>
<linearGradient id="paint4_linear_4489_8731" x1="4437.2" y1="9223.38" x2="3204.96" y2="9352.19" gradientUnits="userSpaceOnUse">
<stop stop-color="#CDEAFF"/>
<stop offset="1" stop-color="#F4FAFF"/>
</linearGradient>
<linearGradient id="paint5_linear_4489_8731" x1="24033.4" y1="19331.1" x2="12409.6" y2="24303" gradientUnits="userSpaceOnUse">
<stop stop-color="#CDEAFF"/>
<stop offset="1" stop-color="#F4FAFF"/>
</linearGradient>
<linearGradient id="paint6_linear_4489_8731" x1="4467.06" y1="13312.5" x2="3107.16" y2="13481.1" gradientUnits="userSpaceOnUse">
<stop stop-color="#CDEAFF"/>
<stop offset="1" stop-color="#F4FAFF"/>
</linearGradient>
<linearGradient id="paint7_linear_4489_8731" x1="146.187" y1="92.6493" x2="95.2484" y2="150.002" gradientUnits="userSpaceOnUse">
<stop stop-color="#C0DCFF"/>
<stop offset="1" stop-color="#D2E5FF"/>
</linearGradient>
<linearGradient id="paint8_linear_4489_8731" x1="158.125" y1="156.129" x2="197.857" y2="156.513" gradientUnits="userSpaceOnUse">
<stop stop-color="#A8CDF7"/>
<stop offset="1" stop-color="#BED8FF"/>
</linearGradient>
<linearGradient id="paint9_linear_4489_8731" x1="143.84" y1="212.762" x2="147.051" y2="216.336" gradientUnits="userSpaceOnUse">
<stop stop-color="#133E91" stop-opacity="0.8"/>
<stop offset="1" stop-color="#133E91" stop-opacity="0"/>
</linearGradient>
<linearGradient id="paint10_linear_4489_8731" x1="143.7" y1="193.21" x2="138.239" y2="200.468" gradientUnits="userSpaceOnUse">
<stop stop-color="#133E91" stop-opacity="0.4"/>
<stop offset="1" stop-color="#133E91" stop-opacity="0"/>
</linearGradient>
<linearGradient id="paint11_linear_4489_8731" x1="69.1574" y1="141.785" x2="95.1497" y2="141.785" gradientUnits="userSpaceOnUse">
<stop stop-color="#80C3FF"/>
<stop offset="0.52" stop-color="#7EBFFF"/>
<stop offset="1" stop-color="#78B4FF"/>
</linearGradient>
<linearGradient id="paint12_linear_4489_8731" x1="25.6227" y1="174.686" x2="109.638" y2="174.686" gradientUnits="userSpaceOnUse">
<stop stop-color="#68A3F0"/>
<stop offset="0.5" stop-color="#60A1F9"/>
<stop offset="1" stop-color="#6EB8F0"/>
</linearGradient>
<linearGradient id="paint13_linear_4489_8731" x1="4049.56" y1="6623.29" x2="1868.8" y2="8225.41" gradientUnits="userSpaceOnUse">
<stop stop-color="#80C3FF"/>
<stop offset="0.52" stop-color="#7EBFFF"/>
<stop offset="1" stop-color="#78B4FF"/>
</linearGradient>
<linearGradient id="paint14_linear_4489_8731" x1="45.8161" y1="174.592" x2="11.2786" y2="200.683" gradientUnits="userSpaceOnUse">
<stop offset="0.49" stop-color="#80C3FF"/>
<stop offset="1" stop-color="#78B4FF"/>
</linearGradient>
<linearGradient id="paint15_linear_4489_8731" x1="72.7321" y1="156.883" x2="57.845" y2="187.624" gradientUnits="userSpaceOnUse">
<stop stop-color="#A8CDF7"/>
<stop offset="0.48" stop-color="#BED8FF"/>
<stop offset="0.97" stop-color="#ABCFF8"/>
<stop offset="1" stop-color="#AACEF7"/>
</linearGradient>
</defs>
</svg>
