<svg width="160" height="160" viewBox="0 0 160 160" fill="none" xmlns="http://www.w3.org/2000/svg">
<rect width="160" height="160" fill="#EEF3F5"/>
<path fill-rule="evenodd" clip-rule="evenodd" d="M129 9C129 21.1503 138.85 31 151 31V129C138.85 129 129 138.85 129 151H31C31 138.85 21.1503 129 9 129V31C21.1503 31 31 21.1503 31 9H129Z" fill="#F8FAFB"/>
<path d="M79.0359 99.2771C89.6824 99.2771 98.313 90.6464 98.313 80C98.313 69.3535 89.6824 60.7229 79.0359 60.7229C68.3894 60.7229 59.7588 69.3535 59.7588 80C59.7588 90.6464 68.3894 99.2771 79.0359 99.2771Z" fill="#E2EAEE"/>
<path d="M79.0512 84.1199C79.4835 84.1199 79.7935 83.9282 79.9811 83.5448C80.1688 83.1614 80.2911 82.6108 80.3482 81.8929L80.8744 75.8603C80.9315 75.3056 80.9601 74.759 80.9601 74.2206C80.9601 73.307 80.8418 72.6075 80.6052 72.1221C80.3686 71.6367 79.8996 71.394 79.198 71.394C78.6188 71.394 78.1518 71.5837 77.7969 71.963C77.4421 72.3423 77.2646 72.8705 77.2646 73.5476C77.2646 74.0452 77.3014 74.8651 77.3748 76.0072L77.7663 81.8684C77.8398 82.6271 77.9621 83.192 78.1334 83.5632C78.3047 83.9343 78.6107 84.1199 79.0512 84.1199ZM79.1246 89.92C79.614 89.92 80.0423 89.7568 80.4094 89.4305C80.7765 89.1042 80.9601 88.6556 80.9601 88.0845C80.9601 87.5788 80.7785 87.1484 80.4155 86.7936C80.0525 86.4387 79.614 86.2613 79.1001 86.2613C78.5862 86.2613 78.1518 86.4387 77.7969 86.7936C77.4421 87.1484 77.2646 87.5788 77.2646 88.0845C77.2646 88.6637 77.4502 89.1144 77.8214 89.4367C78.1926 89.7589 78.627 89.92 79.1246 89.92Z" fill="white"/>
</svg>
