<svg width="280" height="280" viewBox="0 0 280 280" fill="none" xmlns="http://www.w3.org/2000/svg">
<path d="M140 278C216.215 278 278 216.215 278 140C278 63.7847 216.215 2 140 2C63.7847 2 2 63.7847 2 140C2 216.215 63.7847 278 140 278Z" fill="url(#paint0_linear_4607_7643)"/>
<path d="M67.73 244.08C42.94 218.96 23.21 189.22 17.46 168.32L18.12 168.14C23.85 188.93 43.51 218.55 68.22 243.6L67.73 244.08Z" fill="#CADFFF"/>
<path d="M13.4096 163.43C14.2996 166.43 18.1696 169.18 18.1696 169.18C18.1696 169.18 19.8596 164.72 18.9596 161.75C18.0596 158.78 16.4596 157.96 14.9596 158.42C13.4596 158.88 12.5096 160.45 13.4096 163.43Z" fill="#CADFFF"/>
<path d="M21.9997 173.74C20.9997 176.74 22.5597 181.42 22.5597 181.42C22.5597 181.42 26.6397 178.68 27.6697 175.65C28.6997 172.62 27.8297 170.97 26.2697 170.44C24.7097 169.91 22.9997 170.71 21.9997 173.74Z" fill="#CADFFF"/>
<path d="M28.1197 185.03C27.0297 188.28 28.7297 193.27 28.7297 193.27C28.7297 193.27 33.0997 190.33 34.1997 187.08C35.2997 183.83 34.3797 182.08 32.6997 181.5C31.0197 180.92 29.2197 181.82 28.1197 185.03Z" fill="#CADFFF"/>
<path d="M34.8602 194.21C33.4102 197.15 34.3902 202.09 34.3902 202.09C34.3902 202.09 38.9102 199.86 40.3902 196.92C41.8702 193.98 41.1902 192.19 39.6702 191.44C38.1502 190.69 36.3002 191.27 34.8602 194.21Z" fill="#CADFFF"/>
<path d="M39.9301 204.44C39.2001 207.63 41.2901 212.21 41.2901 212.21C41.2901 212.21 45.1701 209 45.9001 205.81C46.6301 202.62 45.5901 201.02 43.9501 200.64C42.3101 200.26 40.6601 201.24 39.9301 204.44Z" fill="#CADFFF"/>
<path d="M46.2505 214.82C46.0805 218.09 48.9305 222.24 48.9305 222.24C48.9305 222.24 52.2005 218.41 52.3705 215.14C52.5405 211.87 51.2305 210.47 49.5405 210.39C47.8505 210.31 46.4205 211.52 46.2505 214.82Z" fill="#CADFFF"/>
<path d="M54.2101 224.41C54.0001 227.68 56.8901 231.82 56.8901 231.82C56.8901 231.82 60.1601 227.99 60.3301 224.72C60.5001 221.45 59.2001 220.06 57.5101 219.97C55.8201 219.88 54.3801 221.14 54.2101 224.41Z" fill="#CADFFF"/>
<path d="M62.6099 233.45C62.4399 236.72 65.2899 240.87 65.2899 240.87C65.2899 240.87 68.5599 237.04 68.7299 233.77C68.8999 230.5 67.5999 229.11 65.9099 229.02C64.2199 228.93 62.7799 230.18 62.6099 233.45Z" fill="#CADFFF"/>
<path d="M12.8597 177.55C16.0097 178.61 20.8597 176.96 20.8597 176.96C20.8597 176.96 18.0197 172.72 14.8597 171.66C11.6997 170.6 9.98971 171.49 9.44971 173.12C8.90971 174.75 9.70971 176.49 12.8597 177.55Z" fill="#CADFFF"/>
<path d="M19.5 190.68C22.5 191.35 26.73 189.38 26.73 189.38C26.73 189.38 23.73 185.79 20.73 185.12C17.73 184.45 16.28 185.43 15.94 186.96C15.6 188.49 16.52 190.02 19.5 190.68Z" fill="#CADFFF"/>
<path d="M25.2802 202.82C28.5602 202.48 32.2802 198.99 32.2802 198.99C32.2802 198.99 27.9602 196.33 24.6702 196.67C21.3802 197.01 20.2102 198.53 20.3802 200.22C20.5502 201.91 22.0002 203.18 25.2802 202.82Z" fill="#CADFFF"/>
<path d="M31.0898 211.6C34.3698 211.26 38.0898 207.77 38.0898 207.77C38.0898 207.77 33.7698 205.11 30.4798 205.45C27.1898 205.79 26.0198 207.3 26.1898 209C26.3598 210.7 27.7998 211.94 31.0898 211.6Z" fill="#CADFFF"/>
<path d="M37.7898 220.58C41.0898 220.49 45.0298 217.29 45.0298 217.29C45.0298 217.29 40.9198 214.29 37.6098 214.41C34.2998 214.53 33.0198 215.92 33.0698 217.63C33.1198 219.34 34.4898 220.68 37.7898 220.58Z" fill="#CADFFF"/>
<path d="M44.9997 229.88C48.2997 229.78 52.2397 226.58 52.2397 226.58C52.2397 226.58 48.1197 223.58 44.8197 223.7C41.5197 223.82 40.2297 225.22 40.2797 226.92C40.3297 228.62 41.6597 229.97 44.9997 229.88Z" fill="#CADFFF"/>
<path d="M210.89 246.39L210.38 245.92C234.38 219.92 253.08 189.54 258.12 168.47L258.79 168.63C253.73 189.82 234.92 220.33 210.89 246.39Z" fill="#CADFFF"/>
<path d="M262.7 163.58C261.9 166.58 258.11 169.52 258.11 169.52C258.11 169.52 256.26 165.1 257.06 162.09C257.86 159.08 259.44 158.19 261 158.61C262.56 159.03 263.49 160.56 262.7 163.58Z" fill="#CADFFF"/>
<path d="M254.4 174.22C255.53 177.22 254.1 181.96 254.1 181.96C254.1 181.96 249.9 179.35 248.77 176.34C247.64 173.33 248.45 171.64 250 171.06C251.55 170.48 253.27 171.21 254.4 174.22Z" fill="#CADFFF"/>
<path d="M248.65 185.82C249.86 189.05 248.33 194.11 248.33 194.11C248.33 194.11 243.83 191.31 242.62 188.11C241.41 184.91 242.27 183.11 243.94 182.46C245.61 181.81 247.44 182.54 248.65 185.82Z" fill="#CADFFF"/>
<path d="M242.2 195.21C243.76 198.12 242.93 203.11 242.93 203.11C242.93 203.11 238.33 201.02 236.78 198.11C235.23 195.2 235.78 193.39 237.31 192.59C238.84 191.79 240.65 192.31 242.2 195.21Z" fill="#CADFFF"/>
<path d="M237.46 205.65C238.3 208.83 236.36 213.5 236.36 213.5C236.36 213.5 232.36 210.41 231.51 207.23C230.66 204.05 231.65 202.41 233.3 201.98C234.95 201.55 236.61 202.47 237.46 205.65Z" fill="#CADFFF"/>
<path d="M231.47 216.27C231.75 219.55 229.03 223.81 229.03 223.81C229.03 223.81 225.62 220.07 225.33 216.81C225.04 213.55 226.33 212.09 228.01 211.95C229.69 211.81 231.19 212.99 231.47 216.27Z" fill="#CADFFF"/>
<path d="M223.8 226.18C224.08 229.46 221.36 233.73 221.36 233.73C221.36 233.73 217.95 229.99 217.67 226.73C217.39 223.47 218.67 222.01 220.34 221.87C222.01 221.73 223.52 222.9 223.8 226.18Z" fill="#CADFFF"/>
<path d="M263.72 177.74C260.6 178.91 255.72 177.42 255.72 177.42C255.72 177.42 258.43 173.07 261.56 171.89C264.69 170.71 266.43 171.56 267.04 173.17C267.65 174.78 266.85 176.57 263.72 177.74Z" fill="#CADFFF"/>
<path d="M257.51 191.15C254.51 191.92 250.2 190.09 250.2 190.09C250.2 190.09 253.1 186.38 256.06 185.6C259.02 184.82 260.55 185.76 260.94 187.3C261.33 188.84 260.47 190.38 257.51 191.15Z" fill="#CADFFF"/>
<path d="M252.11 203.55C248.8 203.32 244.98 199.95 244.98 199.95C244.98 199.95 249.23 197.13 252.54 197.36C255.85 197.59 257.09 199.07 256.97 200.78C256.85 202.49 255.42 203.82 252.11 203.55Z" fill="#CADFFF"/>
<path d="M246.58 212.54C243.27 212.31 239.45 208.93 239.45 208.93C239.45 208.93 243.7 206.12 247.01 206.35C250.32 206.58 251.55 208.06 251.44 209.76C251.33 211.46 249.89 212.82 246.58 212.54Z" fill="#CADFFF"/>
<path d="M240.15 221.82C236.83 221.82 232.77 218.75 232.77 218.75C232.77 218.75 236.77 215.63 240.12 215.61C243.47 215.59 244.78 216.98 244.79 218.69C244.8 220.4 243.47 221.82 240.15 221.82Z" fill="#CADFFF"/>
<path d="M233.27 231.36C229.95 231.36 225.89 228.29 225.89 228.29C225.89 228.29 229.89 225.17 233.24 225.15C236.59 225.13 237.9 226.52 237.91 228.23C237.92 229.94 236.59 231.34 233.27 231.36Z" fill="#CADFFF"/>
<path d="M225.6 240.82C222.28 240.82 218.22 237.75 218.22 237.75C218.22 237.75 222.22 234.63 225.56 234.61C228.9 234.59 230.23 235.98 230.23 237.69C230.23 239.4 228.91 240.82 225.6 240.82Z" fill="#CADFFF"/>
<path d="M125.48 277.24C130.304 277.746 135.151 278 140 278C156.025 278.024 171.931 275.249 187 269.8L192.22 233.07L128.6 247.65C128.6 247.65 127 260.04 125.48 277.24Z" fill="#255299"/>
<path d="M141.34 277.99C171.729 277.748 201.18 267.432 225.08 248.66C225.08 248.52 225.08 248.44 225.08 248.44L133.97 240.88C135.348 253.44 137.814 265.856 141.34 277.99Z" fill="#255299"/>
<path d="M230.81 182.6L225 248.44C225 248.44 212.47 258.06 175.72 257.57C138.97 257.08 128.56 247.65 128.56 247.65L135.22 178.18L112.07 134.18C112.07 134.18 132.77 131.12 148.7 130.63L191.57 131.37L230.81 182.6Z" fill="#2A7CDD"/>
<path d="M175.76 257.57C139.01 257.08 128.6 247.65 128.6 247.65L135.26 178.18L112.11 134.18C112.11 134.18 132.81 131.12 148.74 130.63L191.61 131.37L175.76 257.57Z" fill="url(#paint1_linear_4607_7643)"/>
<path d="M166.74 53.47C168.46 55.76 170.54 56.9 175.07 57.76C179.6 58.62 182.43 61.56 182.55 69.52C182.67 77.48 187.08 75.77 188.43 80.52C189.78 85.27 187.61 86.85 185.65 91.52C183.69 96.19 188.18 97.44 179.24 103.69L136.48 93.69C136.48 93.69 131.58 92.59 130.6 88.91C129.62 85.23 134.52 83.4 131.95 80.58C129.38 77.76 128.28 75.44 129.01 71.76C129.74 68.08 133.91 68.58 135.14 63.68C136.37 58.78 136.14 56.08 140.14 53.88C144.14 51.68 145.41 54.88 149.57 54.49C153.73 54.1 155.7 49.59 160.11 49.59C164.52 49.59 165.64 52 166.74 53.47Z" fill="#343D49"/>
<path d="M155.11 118.64C156.281 123.669 153.562 128.792 148.74 130.64C148.74 130.64 154.62 136.84 167.35 137.03C182.67 137.27 191.61 131.38 191.61 131.38C191.61 131.38 182.18 128.31 180.71 121.21C179.24 114.11 179 95 179 95L155.11 118.64Z" fill="#FEC6BD"/>
<path d="M155.11 118.64C156.281 123.669 153.562 128.792 148.74 130.64C148.74 130.64 154.62 136.84 167.35 137.03C182.67 137.27 191.61 131.38 191.61 131.38C191.61 131.38 182.18 128.31 180.71 121.21C179.24 114.11 179 95 179 95L155.11 118.64Z" fill="url(#paint2_linear_4607_7643)"/>
<path d="M135.63 82.7499C135.63 82.7499 135.99 94.1399 138.08 100.75C140.17 107.36 144.32 115.82 150.82 118.02C157.32 120.22 167.6 115.45 171.82 110.67C176.04 105.89 179 94.9999 179 94.9999L182.56 92.9999L185.42 82.1399L163.07 60.8199L140.65 67.8199L135.63 82.7499Z" fill="#FEC6BD"/>
<path d="M169.93 82.63C169.93 82.63 170.05 77.73 166.13 78.71C163.719 79.1834 161.335 77.7786 160.58 75.44C160.08 72.97 159.88 69.31 156.09 70.29C152.3 71.27 152.86 74.66 149.31 74.05C145.76 73.44 144.2 70.42 141.14 72.25C138.08 74.08 139.71 79.52 137.71 81.16C136.41 82.0343 135.412 83.2879 134.85 84.75C134.12 86.55 133.79 71.75 133.79 71.75L140.28 62.57L163.56 57.91L178.75 67.22L185.86 80.45L183.77 95.97L179 95C179 95 186.23 90 182.44 83C178.65 76 172.39 81.66 172.51 85.09C172.63 88.52 169.56 86.82 169.93 82.63Z" fill="#343D49"/>
<path d="M221.83 128.3V128.23C222.72 128.36 222.58 128.37 221.83 128.3Z" fill="#FEC6BD"/>
<path d="M212.51 193.34C212.51 193.34 239.86 191.4 246.72 188.17C267.65 178.3 260.42 155.29 260.42 155.29C256.07 149.58 217.42 136.67 191.61 131.39L212.51 193.34Z" fill="#2A7CDD"/>
<path d="M212.51 193.34C212.51 193.34 239.86 191.4 246.72 188.17C267.65 178.3 260.42 155.29 260.42 155.29C256.07 149.58 217.42 136.67 191.61 131.39L212.51 193.34Z" fill="url(#paint3_linear_4607_7643)"/>
<path d="M211.5 98.06C213.56 98 215.89 99.79 217.18 98.13C218.47 96.47 211.47 89.7 210.03 88.13C208.95 86.93 207.43 85.06 208.6 83.79C209.77 82.52 211.43 84.24 212.76 85.33C214.09 86.42 218.64 91.45 219.69 91.23C220.74 91.01 215.69 82.94 214.87 81.23C214.05 79.52 213.51 77.39 214.68 76.83C216.15 76.13 217.36 77.55 218.8 79.22C220.24 80.89 223.8 88.49 224.32 88.35C224.84 88.21 224 78.82 223.9 77.09C223.8 75.36 225.19 74.18 226.71 75.92C228.23 77.66 229.32 88.92 230.05 89.61C230.78 90.3 231.92 80.61 233.97 80.84C236.78 81.18 236.27 85.18 235.42 90.46C234.57 95.74 233.78 102.57 233.82 102.55C234.82 103.82 260.82 136.9 266.82 155.19C272.89 173.85 250.2 183.95 245.82 180.36C237.92 173.85 222.13 107.92 222.13 107.92C222.13 107.92 211.56 101.84 209.36 101.67C206.92 101.48 208.6 98.16 211.5 98.06Z" fill="#FEC6BD"/>
<path d="M150.87 85.94C150.764 85.9421 150.66 85.9144 150.57 85.86C150.29 85.6986 150.192 85.3419 150.35 85.06C150.35 85.06 152.29 81.72 156.75 83.45C157.016 83.5938 157.133 83.9127 157.024 84.1943C156.915 84.476 156.613 84.6326 156.32 84.56C152.85 83.21 151.44 85.56 151.38 85.65C151.274 85.8303 151.079 85.9407 150.87 85.94Z" fill="#343D49"/>
<path d="M157.551 91.8149C158.092 91.7039 158.41 91.0262 158.261 90.3012C158.112 89.5763 157.553 89.0786 157.012 89.1897C156.471 89.3007 156.153 89.9784 156.302 90.7034C156.45 91.4283 157.01 91.926 157.551 91.8149Z" fill="#343D49"/>
<path d="M142.723 96.4896C143.264 96.3786 143.582 95.7009 143.433 94.9759C143.284 94.251 142.725 93.7533 142.184 93.8644C141.643 93.9754 141.325 94.6531 141.474 95.3781C141.622 96.103 142.182 96.6007 142.723 96.4896Z" fill="#343D49"/>
<path d="M136.62 91.61C136.567 91.6198 136.513 91.6198 136.46 91.61C136.308 91.5681 136.18 91.4674 136.103 91.3304C136.026 91.1933 136.007 91.0312 136.05 90.88C136.258 90.0291 136.813 89.3041 137.58 88.88C138.634 88.4273 139.815 88.367 140.91 88.71C141.222 88.8122 141.392 89.148 141.29 89.46C141.188 89.7721 140.852 89.9422 140.54 89.84C139.752 89.5968 138.905 89.6321 138.14 89.94C137.659 90.2166 137.315 90.6802 137.19 91.22C137.104 91.4593 136.874 91.6164 136.62 91.61Z" fill="#343D49"/>
<path d="M148.09 102.26C147.35 102.26 146.77 102.08 146.62 101.59C146.4 100.83 145.52 94.2199 145.41 93.4699C145.393 93.3478 145.425 93.2239 145.501 93.1261C145.576 93.0283 145.687 92.9649 145.81 92.9499C146.061 92.9205 146.288 93.0992 146.32 93.3499C146.71 96.2699 147.32 100.81 147.5 101.35C148.424 101.395 149.349 101.29 150.24 101.04C150.406 100.981 150.591 101.022 150.717 101.146C150.843 101.27 150.886 101.455 150.829 101.622C150.772 101.789 150.625 101.909 150.45 101.93C149.678 102.128 148.886 102.239 148.09 102.26Z" fill="#CC8E87"/>
<path d="M148.48 106.46C148.48 106.46 154.3 105.79 157.8 102.8C157.8 102.8 158.55 106.8 155.49 107.95C152.43 109.1 148.48 106.46 148.48 106.46Z" fill="white"/>
<path d="M226 101.25C225.883 101.25 225.771 101.204 225.69 101.12C223.34 98.91 218.5 99.4499 218.45 99.4499C218.289 99.4696 218.13 99.402 218.033 99.2726C217.935 99.1432 217.914 98.9716 217.978 98.8226C218.041 98.6735 218.179 98.5696 218.34 98.55C218.56 98.55 223.66 97.95 226.34 100.46C226.512 100.638 226.512 100.922 226.34 101.1C226.253 101.197 226.129 101.251 226 101.25Z" fill="#CC8E87"/>
<path d="M131.25 237.6L108.94 274.49C117.027 276.335 125.264 277.45 133.55 277.82C132.66 255.36 131.25 237.6 131.25 237.6Z" fill="#2A7CDD"/>
<path d="M49.79 244.43C69.7595 261.735 94.2972 272.912 120.46 276.62C129.8 253.23 131.25 237.62 131.25 237.62L54.86 234.02C52.9865 237.398 51.2941 240.872 49.79 244.43Z" fill="#2A7CDD"/>
<path d="M128 70.2501C125.876 65.91 121.862 62.7975 117.13 61.8201C105.33 59.1801 93.4802 61.21 85.7702 70.2701C78.0602 79.3301 81.3602 87.8901 74.8602 93.5301C68.3602 99.1701 62.3702 94.7601 57.8602 106.53C53.3502 118.3 59.9502 121.23 49.0402 127.6C38.1302 133.97 34.5902 144.6 42.3102 152.47H127.57C127.57 152.47 133.7 138.87 133.57 128.47C133.44 118.07 133.86 104.47 135.21 99.0701C136.56 93.6701 136.02 84.3701 134.31 78.3701C132.6 72.3701 131.22 71.2301 128 70.2501Z" fill="url(#paint4_linear_4607_7643)"/>
<path d="M130.6 158.42C129.6 152.21 127.26 143.64 121.91 140.33L78.1703 134.45C78.1703 134.45 45.6103 142.12 38.1703 152.61C32.7203 160.34 32.3303 167.7 33.3403 177.33C35.9003 201.42 45.5203 215.08 55.2203 221.82V221.69C55.3723 225.801 55.2386 229.917 54.8203 234.01C54.8203 234.01 67.0903 239.39 94.2103 242.66C121.33 245.93 131.21 237.59 131.21 237.59C131.21 237.59 136.12 195.49 136.12 184.38C136.12 173.27 131.58 164.63 130.6 158.42Z" fill="#6DB3FA"/>
<path d="M130.6 158.42C129.6 152.21 127.26 143.64 121.91 140.33L100.81 141.52L55.2203 221.82V221.69C55.3723 225.801 55.2386 229.917 54.8203 234.01C54.8203 234.01 67.0903 239.39 94.2103 242.66C121.33 245.93 131.21 237.59 131.21 237.59C131.21 237.59 136.12 195.49 136.12 184.38C136.12 173.27 131.58 164.63 130.6 158.42Z" fill="url(#paint5_linear_4607_7643)"/>
<path d="M98.3901 137.17L78.1701 134.45C72.1012 135.928 66.1132 137.721 60.2301 139.82C57.6001 140.82 54.9101 141.82 52.3301 142.99L71.7201 192.35L98.3901 137.17Z" fill="url(#paint6_linear_4607_7643)"/>
<path d="M92.3799 103.94C92.4911 109.251 91.5778 114.534 89.6899 119.5C86.4999 128.2 78.1699 134.45 78.1699 134.45C86.0693 139.855 95.3187 142.95 104.88 143.39C120.31 143.88 121.88 140.33 121.88 140.33C121.88 140.33 114.65 137.02 116.88 125.75C119.11 114.48 92.3799 103.94 92.3799 103.94Z" fill="#FEC6BD"/>
<path d="M92.3799 103.94C92.4911 109.251 91.5778 114.534 89.6899 119.5C86.4999 128.2 78.1699 134.45 78.1699 134.45C86.0693 139.855 95.3187 142.95 104.88 143.39C120.31 143.88 121.88 140.33 121.88 140.33C121.88 140.33 114.65 137.02 116.88 125.75C119.11 114.48 92.3799 103.94 92.3799 103.94Z" fill="url(#paint7_linear_4607_7643)"/>
<path d="M134.52 85.44C134.52 85.44 132.81 100.15 131 107.82C129.19 115.49 124.75 125.95 115.69 125.82C106.63 125.69 94.8597 118.82 92.4097 103.89L83.8397 104.75L83.6797 86.42L111.37 71.23L127.91 72.7L133.46 79.44L134.52 85.44Z" fill="#FEC6BD"/>
<path d="M128.4 78.4599C128.4 78.4599 123.87 69.6399 115.05 79.6899C108.79 86.82 105 96.82 97.2798 96.2299C97.2798 96.2299 98.7499 87.7699 92.8699 88.0199C86.9899 88.2699 82.8698 100.88 92.3798 103.94L82.6998 106.64L82.0898 84.2199L114.31 67.8199L129 71.7199C129 71.7199 134 75.5199 135.13 80.7899C136.26 86.0599 133.78 97.4899 133.78 97.4899C133.78 97.4899 131.57 96.2699 132.68 88.0199C133.39 82.8199 133.67 77.4799 128.4 78.4599Z" fill="url(#paint8_linear_4607_7643)"/>
<path d="M104.82 153.21L105.43 146.47L101.94 147.51L102.61 152.29L104.82 153.21Z" fill="#D1DEEE"/>
<path d="M109.93 141.88L110.67 149.41L106.87 147.06L106.32 143.01L109.93 141.88Z" fill="#D1DEEE"/>
<path d="M105 103.82C101.47 103.42 96.79 108.11 94.71 113.62C92.63 119.13 90.5 141.47 90.5 141.47C90.5 141.47 94.36 152.68 101.77 153.66C109.18 154.64 100.18 149.25 103.43 148.88C106.68 148.51 109.25 151.15 110.43 149.74C111.61 148.33 104.24 144.68 108.9 145.33C111.11 145.64 111.66 147.33 116.01 146.86C116.01 146.86 114.01 130.19 113.8 126.38C113 110.56 108.29 104.23 105 103.82Z" fill="white"/>
<path d="M105 103.82C101.47 103.42 96.79 108.11 94.71 113.62C92.63 119.13 90.5 141.47 90.5 141.47C90.5 141.47 94.36 152.68 101.77 153.66C107.77 154.46 102.98 151.05 102.71 149.55C102.68 149.24 105 103.82 105 103.82Z" fill="url(#paint9_linear_4607_7643)"/>
<path d="M105 103.82C101.47 103.42 100.18 149.25 103.43 148.88C106.68 148.51 109.25 151.15 110.43 149.74C111.43 148.63 107 146.13 107.37 145.44C107.45 145.48 108.29 104.23 105 103.82Z" fill="url(#paint10_linear_4607_7643)"/>
<path d="M99.4699 151.61L101.47 128.13C106.98 124.94 111.39 119.13 110.81 115.79C110.23 112.45 106.65 106.29 104.81 104.79C102.97 103.29 97.5799 113.05 93.9999 120.59C92.2499 124.22 87.6499 136.12 83.2297 148.12C83.1899 148.12 89.2399 151.18 99.4699 151.61Z" fill="#FEC6BD"/>
<path d="M82.3697 146.97C82.3697 146.97 88.1397 150.74 100.71 150.9C100.71 150.9 96.4397 186.77 95.8097 190.43C94.3397 198.93 91.2697 224.77 72.4697 227.16C68.0397 227.72 61.6097 226.28 55.2197 221.83C55.2197 221.82 76.9997 161.52 82.3697 146.97Z" fill="#6DB3FA"/>
<path d="M82.3697 146.97C82.3697 146.97 88.1397 150.74 100.71 150.9C100.71 150.9 96.4397 186.77 95.8097 190.43C94.3397 198.93 91.2697 224.77 72.4697 227.16C68.0397 227.72 61.6097 226.28 55.2197 221.83C55.2197 221.82 76.9997 161.52 82.3697 146.97Z" fill="url(#paint11_linear_4607_7643)"/>
<path d="M48.5702 147.31C49.2402 144.74 52.9002 146.31 56.0702 145.4C59.2402 144.49 60.1902 142.92 58.0702 142.28C55.9502 141.64 53.9902 142.14 49.4802 141.16C44.9702 140.18 41.1202 141.16 36.9602 144.34C32.8002 147.52 30.7902 152.57 30.6502 158.95C30.5102 165.33 33.0002 169.44 34.6502 169.88C36.3002 170.32 36.3702 168.08 35.6502 166.1C35.1643 164.745 34.855 163.334 34.7302 161.9C34.7302 161.9 37.8902 166.84 40.4002 167.8C42.9102 168.76 43.1902 166.61 42.4002 165.25C41.6102 163.89 39.0902 161.12 38.8802 157.91C38.8802 157.91 42.5002 163.25 45.3802 164.2C48.2602 165.15 48.5102 162.79 47.7802 161.55C47.0502 160.31 43.9202 157.29 43.9002 152.46C43.9002 152.46 47.0902 157.07 49.7002 158.82C52.3102 160.57 53.2502 157.93 52.4202 155.82C51.5902 153.71 47.8302 150.13 48.5702 147.31Z" fill="#FEC6BD"/>
<path d="M120.48 91.96L113.17 91.52" stroke="#343D49" stroke-linecap="round" stroke-linejoin="round"/>
<path d="M129.14 93.6L133.16 96.19" stroke="#343D49" stroke-linecap="round" stroke-linejoin="round"/>
<path d="M114.61 98.85C115.257 98.85 115.78 98.3262 115.78 97.68C115.78 97.0338 115.257 96.51 114.61 96.51C113.964 96.51 113.44 97.0338 113.44 97.68C113.44 98.3262 113.964 98.85 114.61 98.85Z" fill="#343D49"/>
<path d="M129.14 100.94C129.786 100.94 130.31 100.416 130.31 99.77C130.31 99.1238 129.786 98.6 129.14 98.6C128.494 98.6 127.97 99.1238 127.97 99.77C127.97 100.416 128.494 100.94 129.14 100.94Z" fill="#343D49"/>
<path d="M127 96.5601C127 96.5601 126.7 105.91 126.65 106.56C126.6 107.21 122.38 107.26 122.38 107.26" stroke="#CC8E87" stroke-linecap="round" stroke-linejoin="round"/>
<path d="M124 113.12C124 113.12 119.07 113.47 115.69 110.84" stroke="#CC8E87" stroke-linecap="round" stroke-linejoin="round"/>
<path d="M113.45 99.7C113.45 99.7 109.67 105.79 111.45 107.06C113.69 108.65 115.48 105.27 113.45 99.7Z" fill="#D1DEEE"/>
<path d="M105.49 108.3C104.401 110.267 103.136 112.132 101.71 113.87" stroke="#F6B2AD" stroke-linecap="round" stroke-linejoin="round"/>
<path d="M107.48 111.48C107.48 111.48 105.48 115.56 104.1 116.85" stroke="#F6B2AD" stroke-linecap="round" stroke-linejoin="round"/>
<path d="M109 114.52C108.535 115.846 107.86 117.089 107 118.2" stroke="#F6B2AD" stroke-linecap="round" stroke-linejoin="round"/>
<defs>
<linearGradient id="paint0_linear_4607_7643" x1="142.03" y1="265.91" x2="137.98" y2="14.84" gradientUnits="userSpaceOnUse">
<stop stop-color="#EEF8FF"/>
<stop offset="1" stop-color="#EBF8FF" stop-opacity="0.2"/>
</linearGradient>
<linearGradient id="paint1_linear_4607_7643" x1="137.685" y1="195.03" x2="151.194" y2="194.763" gradientUnits="userSpaceOnUse">
<stop stop-color="#133E90" stop-opacity="0.4"/>
<stop offset="1" stop-color="#133E90" stop-opacity="0"/>
</linearGradient>
<linearGradient id="paint2_linear_4607_7643" x1="152.95" y1="113.905" x2="168.763" y2="115.694" gradientUnits="userSpaceOnUse">
<stop stop-color="#F7B0A9"/>
<stop offset="1" stop-color="#F7B0A9" stop-opacity="0"/>
</linearGradient>
<linearGradient id="paint3_linear_4607_7643" x1="254.66" y1="188.907" x2="237.436" y2="168.119" gradientUnits="userSpaceOnUse">
<stop stop-color="#133E90" stop-opacity="0.4"/>
<stop offset="1" stop-color="#133E90" stop-opacity="0"/>
</linearGradient>
<linearGradient id="paint4_linear_4607_7643" x1="115.56" y1="80.339" x2="89.2771" y2="136.213" gradientUnits="userSpaceOnUse">
<stop stop-color="#37475E"/>
<stop offset="1" stop-color="#343D49"/>
</linearGradient>
<linearGradient id="paint5_linear_4607_7643" x1="83.6099" y1="184.19" x2="101.099" y2="188.925" gradientUnits="userSpaceOnUse">
<stop stop-color="#4A90D2" stop-opacity="0.4"/>
<stop offset="1" stop-color="#4A90D2" stop-opacity="0"/>
</linearGradient>
<linearGradient id="paint6_linear_4607_7643" x1="78.4103" y1="162.03" x2="71.7363" y2="158.264" gradientUnits="userSpaceOnUse">
<stop stop-color="#4A90D2" stop-opacity="0.4"/>
<stop offset="1" stop-color="#4A90D2" stop-opacity="0"/>
</linearGradient>
<linearGradient id="paint7_linear_4607_7643" x1="96.8699" y1="124.016" x2="75.4997" y2="125.884" gradientUnits="userSpaceOnUse">
<stop stop-color="#F7B0A9"/>
<stop offset="1" stop-color="#F7B0A9" stop-opacity="0"/>
</linearGradient>
<linearGradient id="paint8_linear_4607_7643" x1="117.89" y1="80.1046" x2="96.5854" y2="116.672" gradientUnits="userSpaceOnUse">
<stop stop-color="#37475E"/>
<stop offset="1" stop-color="#343D49"/>
</linearGradient>
<linearGradient id="paint9_linear_4607_7643" x1="98.3601" y1="128.93" x2="98.0662" y2="128.903" gradientUnits="userSpaceOnUse">
<stop stop-color="#D1DEEE" stop-opacity="0.6"/>
<stop offset="1" stop-color="#D1DEEE" stop-opacity="0"/>
</linearGradient>
<linearGradient id="paint10_linear_4607_7643" x1="106.179" y1="127.11" x2="106.056" y2="127.104" gradientUnits="userSpaceOnUse">
<stop stop-color="#D1DEEE" stop-opacity="0.6"/>
<stop offset="1" stop-color="#D1DEEE" stop-opacity="0"/>
</linearGradient>
<linearGradient id="paint11_linear_4607_7643" x1="84.445" y1="193.96" x2="76.8303" y2="191.358" gradientUnits="userSpaceOnUse">
<stop stop-color="#99CAFB" stop-opacity="0.7"/>
<stop offset="1" stop-color="#6DB3FA" stop-opacity="0"/>
</linearGradient>
</defs>
</svg>
