<svg width="36" height="36" viewBox="0 0 36 36" fill="none" xmlns="http://www.w3.org/2000/svg">
<path d="M23 4H5C3.89543 4 3 4.89543 3 6V24C3 25.1046 3.89543 26 5 26H23C24.1046 26 25 25.1046 25 24V6C25 4.89543 24.1046 4 23 4Z" fill="#FFD215"/>
<path d="M19.62 23.44C19.62 21.8826 20.8826 20.62 22.44 20.62C22.6283 20.6197 22.8161 20.6398 23 20.68V6H8.32C8.36022 6.18394 8.38034 6.37171 8.38 6.56C8.38 7.30791 8.08289 8.02519 7.55404 8.55404C7.02519 9.08289 6.30791 9.38 5.56 9.38C5.37171 9.38034 5.18394 9.36022 5 9.32V24H19.68C19.6398 23.8161 19.6197 23.6283 19.62 23.44Z" fill="#FFE600"/>
<path d="M23 4H5C3.89543 4 3 4.89543 3 6V24C3 25.1046 3.89543 26 5 26H23C24.1046 26 25 25.1046 25 24V6C25 4.89543 24.1046 4 23 4Z" fill="url(#paint0_linear_4607_8494)"/>
<path d="M31 10H13C11.8954 10 11 10.8954 11 12V30C11 31.1046 11.8954 32 13 32H31C32.1046 32 33 31.1046 33 30V12C33 10.8954 32.1046 10 31 10Z" fill="#2A7CDD"/>
<path d="M27.62 29.44C27.62 27.8826 28.8826 26.62 30.44 26.62C30.6283 26.6197 30.8161 26.6398 31 26.68V12H16.32C16.3602 12.1839 16.3803 12.3717 16.38 12.56C16.38 14.1174 15.1174 15.38 13.56 15.38C13.3717 15.3803 13.1839 15.3602 13 15.32V30H27.68C27.6398 29.8161 27.6197 29.6283 27.62 29.44Z" fill="#508FEA"/>
<path d="M21.9995 26L18.7695 21L21.9995 16L25.2295 21L21.9995 26Z" fill="white"/>
<defs>
<linearGradient id="paint0_linear_4607_8494" x1="19.52" y1="19.89" x2="7.79" y2="9.51" gradientUnits="userSpaceOnUse">
<stop stop-color="#E5B527" stop-opacity="0.8"/>
<stop offset="1" stop-color="#FFD215" stop-opacity="0"/>
</linearGradient>
</defs>
</svg>
