<svg width="280" height="280" viewBox="0 0 280 280" fill="none" xmlns="http://www.w3.org/2000/svg">
<path d="M140.17 278.04C216.385 278.04 278.17 216.255 278.17 140.04C278.17 63.8247 216.385 2.04004 140.17 2.04004C63.9546 2.04004 2.16992 63.8247 2.16992 140.04C2.16992 216.255 63.9546 278.04 140.17 278.04Z" fill="url(#paint0_linear_3189_1706)"/>
<path d="M114.2 217.28L114.57 216.54C76.8699 197.72 43.1299 171.78 28.5699 150.45L27.8799 150.91C42.5199 172.36 76.3899 198.41 114.2 217.28Z" fill="#CADFFF"/>
<path d="M21.4303 146.93C23.5903 149.93 29.0503 151.61 29.0503 151.61C29.0503 151.61 29.2403 145.91 27.0503 142.89C24.8603 139.87 22.7503 139.56 21.1903 140.67C19.6303 141.78 19.2603 143.91 21.4303 146.93Z" fill="#CADFFF"/>
<path d="M35.17 155.28C35.17 159.11 38.79 163.77 38.79 163.77C38.79 163.77 42.35 159.09 42.34 155.25C42.33 151.41 40.71 149.89 38.73 149.89C36.75 149.89 35.16 151.45 35.17 155.28Z" fill="#CADFFF"/>
<path d="M46.46 165.71C46.46 169.82 50.34 174.81 50.34 174.81C50.34 174.81 54.16 169.81 54.14 165.68C54.12 161.55 52.4 159.93 50.28 159.94C48.16 159.95 46.45 161.61 46.46 165.71Z" fill="#CADFFF"/>
<path d="M57.6496 173.5C57.1496 177.4 60.1696 182.61 60.1696 182.61C60.1696 182.61 64.4196 178.33 64.9196 174.44C65.4196 170.55 63.9996 168.77 61.9996 168.52C59.9996 168.27 58.1496 169.61 57.6496 173.5Z" fill="#CADFFF"/>
<path d="M67.3599 183.12C67.7599 187.03 71.8999 191.4 71.8999 191.4C71.8999 191.4 75.0599 186.27 74.6499 182.4C74.2399 178.53 72.4499 177.09 70.4299 177.3C68.4099 177.51 66.9999 179.22 67.3599 183.12Z" fill="#CADFFF"/>
<path d="M78.5204 192.42C79.6004 196.19 84.4304 199.79 84.4304 199.79C84.4304 199.79 86.6504 194.18 85.5804 190.41C84.5104 186.64 82.4904 185.57 80.5804 186.12C78.6704 186.67 77.4504 188.64 78.5204 192.42Z" fill="#CADFFF"/>
<path d="M91.2597 200.22C92.3397 204 97.1697 207.59 97.1697 207.59C97.1697 207.59 99.3897 201.99 98.3197 198.21C97.2497 194.43 95.2297 193.37 93.3197 193.93C91.4097 194.49 90.1897 196.45 91.2597 200.22Z" fill="#CADFFF"/>
<path d="M26.2798 163.15C30.2798 163.15 35.0898 159.39 35.0898 159.39C35.0898 159.39 30.2298 155.69 26.2498 155.7C22.2698 155.71 20.6698 157.39 20.6797 159.45C20.6898 161.51 22.2998 163.16 26.2798 163.15Z" fill="#CADFFF"/>
<path d="M38.8801 175.46C42.5101 175.06 46.5701 171.18 46.5701 171.18C46.5701 171.18 41.7701 168.27 38.1401 168.67C34.5101 169.07 33.2101 170.74 33.4201 172.67C33.6301 174.6 35.2501 175.85 38.8801 175.46Z" fill="#CADFFF"/>
<path d="M50.1399 187C53.7299 185.34 56.5599 180 56.5599 180C56.5599 180 50.6299 178.66 47.0399 180.32C43.4499 181.98 42.6999 184.1 43.5499 186C44.3999 187.9 46.5399 188.64 50.1399 187Z" fill="#CADFFF"/>
<path d="M60.1096 194.66C63.6996 193 66.5296 187.66 66.5296 187.66C66.5296 187.66 60.5996 186.32 57.0096 187.97C53.4196 189.62 52.6696 191.8 53.5196 193.66C54.3696 195.52 56.5196 196.32 60.1096 194.66Z" fill="#CADFFF"/>
<path d="M71.1801 202.25C74.8901 200.86 78.1101 195.71 78.1101 195.71C78.1101 195.71 72.2901 193.93 68.5901 195.32C64.8901 196.71 63.9801 198.81 64.6901 200.73C65.4001 202.65 67.4801 203.63 71.1801 202.25Z" fill="#CADFFF"/>
<path d="M82.8998 210C86.6098 208.61 89.8298 203.46 89.8298 203.46C89.8298 203.46 84.0098 201.68 80.3098 203.07C76.6098 204.46 75.6898 206.56 76.4098 208.48C77.1298 210.4 79.1998 211.38 82.8998 210Z" fill="#CADFFF"/>
<path d="M95.4604 217.3C99.1604 215.91 102.38 210.76 102.38 210.76C102.38 210.76 96.5704 208.98 92.8704 210.37C89.1704 211.76 88.2504 213.87 88.9704 215.78C89.6904 217.69 91.7504 218.68 95.4604 217.3Z" fill="#CADFFF"/>
<path d="M152 169.5L151.19 169.67C142.86 128.37 126.61 89.03 109.8 69.44L110.43 68.9C127.27 88.59 143.59 128.08 152 169.5Z" fill="#CADFFF"/>
<path d="M108.23 61.6001C110.58 64.4801 110.76 70.1801 110.76 70.1801C110.76 70.1801 105.2 68.8801 102.85 66.0001C100.5 63.1201 100.76 61.0001 102.24 59.7701C103.72 58.5401 105.88 58.7301 108.23 61.6001Z" fill="#CADFFF"/>
<path d="M112.71 77.0499C116.4 78.0499 119.96 82.7499 119.96 82.7499C119.96 82.7499 114.51 84.9999 110.81 83.9999C107.11 82.9999 106.05 80.9999 106.58 79.1199C107.11 77.2399 109 75.9999 112.71 77.0499Z" fill="#CADFFF"/>
<path d="M119.83 90.67C123.83 91.76 127.6 96.78 127.6 96.78C127.6 96.78 121.76 99.16 117.8 98.08C113.84 97 112.7 94.9 113.26 92.85C113.82 90.8 115.87 89.59 119.83 90.67Z" fill="#CADFFF"/>
<path d="M124.44 103.5C128.33 104.03 132.57 108.31 132.57 108.31C132.57 108.31 127.33 111.31 123.45 110.77C119.57 110.23 118.22 108.4 118.45 106.39C118.68 104.38 120.55 103 124.44 103.5Z" fill="#CADFFF"/>
<path d="M131.2 115.38C134.86 116.79 138 121.93 138 121.93C138 121.93 132.22 123.63 128.56 122.23C124.9 120.83 124.02 118.72 124.74 116.83C125.46 114.94 127.53 114 131.2 115.38Z" fill="#CADFFF"/>
<path d="M137.25 128.58C140.62 130.58 142.83 136.21 142.83 136.21C142.83 136.21 136.83 136.89 133.48 134.87C130.13 132.85 129.61 130.63 130.65 128.87C131.69 127.11 133.89 126.56 137.25 128.58Z" fill="#CADFFF"/>
<path d="M141.47 142.92C144.83 144.92 147.04 150.55 147.04 150.55C147.04 150.55 141.04 151.23 137.69 149.21C134.34 147.19 133.82 144.96 134.86 143.21C135.9 141.46 138.11 140.9 141.47 142.92Z" fill="#CADFFF"/>
<path d="M122.62 70.51C121.56 74.35 116.69 78.05 116.69 78.05C116.69 78.05 114.39 72.38 115.44 68.54C116.49 64.7 118.52 63.6 120.5 64.15C122.48 64.7 123.67 66.67 122.62 70.51Z" fill="#CADFFF"/>
<path d="M131.22 85.89C129.89 89.29 125.09 92.2 125.09 92.2C125.09 92.2 123.52 86.81 124.85 83.4C126.18 79.99 128.14 79.19 129.9 79.87C131.66 80.55 132.54 82.49 131.22 85.89Z" fill="#CADFFF"/>
<path d="M139.41 99.76C136.88 102.76 130.95 104.13 130.95 104.13C130.95 104.13 131.2 98.06 133.74 95.02C136.28 91.98 138.56 91.82 140.13 93.13C141.7 94.44 142 96.73 139.41 99.76Z" fill="#CADFFF"/>
<path d="M144.22 111.39C141.69 114.39 135.76 115.75 135.76 115.75C135.76 115.75 136.01 109.68 138.55 106.65C141.09 103.62 143.37 103.45 144.94 104.76C146.51 106.07 146.76 108.35 144.22 111.39Z" fill="#CADFFF"/>
<path d="M148.66 124.06C146.35 127.27 140.54 129.06 140.54 129.06C140.54 129.06 140.34 122.98 142.65 119.77C144.96 116.56 147.22 116.23 148.88 117.42C150.54 118.61 151 120.84 148.66 124.06Z" fill="#CADFFF"/>
<path d="M153.09 137.39C150.78 140.61 144.97 142.39 144.97 142.39C144.97 142.39 144.77 136.32 147.07 133.1C149.37 129.88 151.65 129.56 153.31 130.75C154.97 131.94 155.39 134.18 153.09 137.39Z" fill="#CADFFF"/>
<path d="M156.86 151.42C154.56 154.63 148.74 156.42 148.74 156.42C148.74 156.42 148.54 150.35 150.85 147.13C153.16 143.91 155.43 143.59 157.09 144.78C158.75 145.97 159.16 148.2 156.86 151.42Z" fill="#CADFFF"/>
<path d="M244.91 157.83C227.52 166.04 219.29 182.83 209.91 185.09C200.53 187.35 197.91 187.25 192.31 177.78C186.71 168.31 169.43 172.59 161.57 197.84C153.71 223.09 160.63 255.97 160.63 255.97H203.27C208.013 255.803 212.736 255.281 217.4 254.41C252.361 230.826 274.609 192.542 277.79 150.49C266.447 150.688 255.261 153.185 244.91 157.83Z" fill="url(#paint1_linear_3189_1706)"/>
<path d="M126 207.18C111 206.33 108.93 217.63 101.23 205.46C93.5302 193.29 83.0002 188 69.3402 197.67C55.6802 207.34 52.6902 210.33 43.7002 203C34.7102 195.67 23.2802 186.74 19.1102 200.81C18.7007 202.237 18.4953 203.715 18.5001 205.2C47.9012 259.964 110.246 288.362 170.86 274.6C174.33 271.75 176.35 269.85 176.35 269.85L154.19 233.43C154.19 233.43 141 208 126 207.18Z" fill="url(#paint2_linear_3189_1706)"/>
<path d="M238.53 102.89H177.42V134.43H238.53V102.89Z" fill="#EA9F9D"/>
<path d="M221 251.89C208.86 237.39 196.68 222.89 194.35 220.14C189.44 214.43 193.86 201.35 190.1 191.22C186.34 181.09 182.91 179.29 182.91 179.29C182.91 179.29 122.78 179.78 112.32 176.84C101.86 173.9 99.74 166.22 95.65 155.44C93.7098 168.463 96.6864 181.741 104 192.69C111.777 203.936 120.764 214.294 130.8 223.58L156.93 277C180.072 274.206 202.122 265.564 221 251.89Z" fill="#FEC6BD"/>
<path d="M213.08 156.14L24.3896 115.79V121.71C24.3896 124.21 26.1296 126.8 29.4996 128.79L142.77 195.42C149 199.09 158.49 199.31 163.95 195.92L209.36 167.71C211.88 166.14 213.1 164.08 213.07 161.95L213.08 156.14Z" fill="url(#paint3_linear_3189_1706)"/>
<path d="M209.36 161.75L164 190C158.54 193.4 149.05 193.18 142.82 189.51L29.4998 122.82C23.2698 119.16 22.6498 113.43 28.1098 110.04L73.5198 81.83C78.9798 78.44 88.4598 78.66 94.6998 82.33L208 149C214.19 152.63 214.82 158.35 209.36 161.75Z" fill="url(#paint4_linear_3189_1706)"/>
<path d="M78.1399 84.37L71.2499 88.65C69.9799 89.44 70.1299 90.76 71.5699 91.65C73.6799 92.89 73.8899 94.83 72.0399 95.98L51.4499 108.73C49.1806 109.87 46.4927 109.806 44.2799 108.56C42.7712 107.71 40.9386 107.665 39.3899 108.44L32.4899 112.73C29.3399 114.73 29.6999 117.99 33.2899 120.11L146.93 187C150.53 189.12 156 189.24 159.16 187.29L204.81 158.93C207.96 156.93 207.6 153.66 204 151.55L90.3699 84.65C86.7699 82.54 81.2999 82.41 78.1399 84.37Z" fill="#FAE100"/>
<path d="M51.645 104.28C51.6988 103.731 51.2211 103.234 50.578 103.171C49.9349 103.108 49.37 103.503 49.3162 104.052C49.2624 104.602 49.7401 105.099 50.3832 105.161C51.0263 105.224 51.5912 104.83 51.645 104.28Z" fill="#37475E"/>
<path d="M64.5895 96.34L54.1695 102.81C53.655 103.089 53.0341 103.089 52.5195 102.81C52.0395 102.53 51.9895 102.09 52.4195 101.81L62.8395 95.34C63.3555 95.0662 63.9736 95.0662 64.4895 95.34C64.9995 95.63 64.9995 96.07 64.5895 96.34Z" fill="#37475E"/>
<path d="M105.53 127.64C100.6 131.2 100.53 136.43 105.46 139.32C108.61 141.18 113.02 141.61 117.09 140.75L120.19 143.69C120.3 143.787 120.442 143.841 120.59 143.84C120.689 143.848 120.789 143.819 120.87 143.76C120.92 143.726 120.95 143.67 120.95 143.61L121.5 139.18C122.109 138.867 122.693 138.509 123.25 138.11C128.18 134.54 128.25 129.31 123.32 126.42C118.39 123.53 110.46 124.07 105.53 127.64Z" fill="#392020"/>
<path d="M130.78 223.58C130.78 223.58 104.78 218.84 92.5504 200.86C80.3204 182.88 80.4304 175.86 74.8804 166.53C69.3304 157.2 60.1704 153.33 59.1904 147.29C58.2104 141.25 69.3504 138.29 77.1904 141.89C84.0504 145.08 89.4004 148.39 93.4904 159.17C96.7704 167.84 105.71 173.57 111.81 177.37C113.32 178.3 130.78 223.58 130.78 223.58Z" fill="#FEC6BD"/>
<path d="M234.12 62.36C221.54 60.08 216.64 66.94 211.12 72.66C205.6 78.38 185.27 84.1 171.21 85.89C157.15 87.68 128.73 100.6 121.87 102.56C115.01 104.52 114.02 108.56 118.27 111.22C122.52 113.88 129.71 115.14 137.88 114C146.05 112.86 160.1 108.93 166.64 108.28C173.18 107.63 218.27 111.87 220.23 119.88C222.19 127.89 221.23 129.03 212.39 128.38C203.55 127.73 199.81 127.56 192.62 123.31C185.43 119.06 179.87 116.31 169.74 115.47C159.61 114.63 155.2 115.14 152.26 118.74C149.32 122.34 153.08 125.44 156.51 128.05C159.94 130.66 175.62 143.58 180.85 145.54C186.08 147.5 210.27 154.2 220.72 158.77C231.17 163.34 246.83 167.68 266.31 167.31C269.56 167.25 272.64 167.04 275.57 166.75C281.713 135.503 276.878 103.093 261.88 75C259.13 73.8 256.54 72.7 254.18 71.75C241.05 66.41 238.13 63.09 234.12 62.36Z" fill="#FEC6BD"/>
<path d="M220.23 119.88C222.23 127.88 221.23 129.03 212.39 128.38C203.55 127.73 199.81 127.56 192.62 123.31C185.43 119.06 179.87 116.31 169.74 115.47C159.61 114.63 155.2 115.14 152.26 118.74C149.32 122.34 153.08 125.44 156.51 128.05C159.94 130.66 175.62 143.58 180.85 145.54C186.08 147.5 210.27 154.2 220.72 158.77C231.17 163.34 246.83 167.68 266.31 167.31C269.56 167.25 272.64 167.04 275.57 166.75C279.195 148.296 279.028 129.298 275.08 110.91C246.41 112.49 219.25 115.85 220.23 119.88Z" fill="url(#paint5_linear_3189_1706)"/>
<path d="M165.94 129.93C167.41 127.36 172.32 124.17 168.27 121.35C159.93 115.54 155.2 115.14 152.27 118.74C149.34 122.34 153.09 125.44 156.52 128.05C157.94 129.14 161.52 132.05 165.52 135.13C164.926 133.414 165.078 131.528 165.94 129.93Z" fill="url(#paint6_linear_3189_1706)"/>
<path d="M221 251.89C208.86 237.39 196.68 222.89 194.35 220.14C189.44 214.43 193.86 201.35 190.1 191.22C189.013 188.107 187.556 185.135 185.76 182.37L164 195.92C158.54 199.31 149.05 199.09 142.82 195.42L109.52 175.83L109.3 175.74C107.54 174.6 105.66 173.32 103.82 171.88C100.372 169.272 97.4213 166.064 95.1102 162.41C94.5019 161.376 93.9834 160.292 93.5602 159.17C89.4702 148.39 84.1202 145.08 77.2602 141.89C69.4002 138.24 58.2602 141.24 59.2602 147.29C60.2602 153.34 69.3902 157.21 74.9502 166.53C80.5102 175.85 80.3602 182.89 92.6202 200.86C104.88 218.83 130.85 223.58 130.85 223.58L156.93 277C180.072 274.206 202.122 265.564 221 251.89Z" fill="url(#paint7_linear_3189_1706)"/>
<defs>
<linearGradient id="paint0_linear_3189_1706" x1="75.4999" y1="16.93" x2="202.61" y2="258.91" gradientUnits="userSpaceOnUse">
<stop stop-color="#EEF8FF"/>
<stop offset="1" stop-color="#EBF8FF" stop-opacity="0.2"/>
</linearGradient>
<linearGradient id="paint1_linear_3189_1706" x1="156.3" y1="204.359" x2="287.282" y2="202.139" gradientUnits="userSpaceOnUse">
<stop stop-color="#CEEBFF"/>
<stop offset="1" stop-color="#F5FBFF"/>
</linearGradient>
<linearGradient id="paint2_linear_3189_1706" x1="17.6001" y1="235.788" x2="186.876" y2="232.919" gradientUnits="userSpaceOnUse">
<stop stop-color="#CEEBFF"/>
<stop offset="1" stop-color="#F5FBFF"/>
</linearGradient>
<linearGradient id="paint3_linear_3189_1706" x1="24.3896" y1="157.06" x2="213.08" y2="157.06" gradientUnits="userSpaceOnUse">
<stop stop-color="#80B9ED"/>
<stop offset="0.24" stop-color="#7DB5EE"/>
<stop offset="0.47" stop-color="#72AAF3"/>
<stop offset="0.68" stop-color="#6098FA"/>
<stop offset="1" stop-color="#B0D7FC"/>
</linearGradient>
<linearGradient id="paint4_linear_3189_1706" x1="24.3898" y1="135.89" x2="213.08" y2="135.89" gradientUnits="userSpaceOnUse">
<stop stop-color="#C1DDFF"/>
<stop offset="1" stop-color="#D3E6FF"/>
</linearGradient>
<linearGradient id="paint5_linear_3189_1706" x1="210.24" y1="143.56" x2="211.604" y2="135.911" gradientUnits="userSpaceOnUse">
<stop stop-color="#F5AEA7"/>
<stop offset="1" stop-color="#F5AEA7" stop-opacity="0"/>
</linearGradient>
<linearGradient id="paint6_linear_3189_1706" x1="172.582" y1="129.83" x2="147.647" y2="120.225" gradientUnits="userSpaceOnUse">
<stop stop-color="#F5AEA7"/>
<stop offset="1" stop-color="#F5AEA7" stop-opacity="0"/>
</linearGradient>
<linearGradient id="paint7_linear_3189_1706" x1="162.53" y1="182.806" x2="143.464" y2="204.849" gradientUnits="userSpaceOnUse">
<stop stop-color="#F5AEA7"/>
<stop offset="1" stop-color="#F5AEA7" stop-opacity="0"/>
</linearGradient>
</defs>
</svg>
