<svg width="44" height="44" viewBox="0 0 44 44" fill="none" xmlns="http://www.w3.org/2000/svg">
<path d="M42.3944 30.9092H1V32.358C1.09879 32.9789 1.51627 33.5025 2.09966 33.7369L20.5146 43.4768C21.9903 44.1982 23.7217 44.1723 25.1751 43.407L41.5479 33.1173C41.8549 32.9389 42.1036 32.6751 42.2635 32.358H42.3857L42.3944 30.9092Z" fill="#FFD215"/>
<path d="M20.5233 42.1326L2.10832 32.3927C0.74683 31.6683 0.624647 30.4726 1.83777 29.7134L18.2105 19.4237C19.6636 18.6598 21.393 18.6307 22.871 19.3451L41.286 29.0937C42.6475 29.8181 42.7696 31.0138 41.5565 31.773L25.1838 42.0627C23.7303 42.828 21.999 42.854 20.5233 42.1326Z" fill="#FFE73E"/>
<path d="M33.1952 29.4429L24.4677 2.0299C24.0855 0.821413 22.9642 0 21.6968 0C20.4293 0 19.308 0.821413 18.9258 2.0299L10.1983 29.4429C9.24701 32.4801 15.3301 35.203 21.6575 35.203C27.9849 35.203 34.1203 32.4713 33.1952 29.4429Z" fill="url(#paint0_linear_3757_3586)"/>
<path d="M33.1957 29.4426L32.0873 25.9516C32.8641 28.6659 27.4094 31.0921 21.7278 31.0921C16.0462 31.0921 10.5741 28.6571 11.377 25.908L10.2686 29.399C9.31732 32.4361 15.4004 35.1591 21.7278 35.1591C28.0552 35.1591 34.1208 32.4711 33.1957 29.4426Z" fill="url(#paint1_linear_3757_3586)"/>
<path d="M30.7254 21.7715L29.6781 18.4377C30.2803 20.5672 26.1871 22.4959 21.6924 22.4959C17.1978 22.4959 13.0959 20.6195 13.6981 18.4813L12.6682 21.7715C11.9264 24.1629 16.709 26.3011 21.6924 26.3011C26.6758 26.3011 31.4497 24.1629 30.7254 21.7715Z" fill="url(#paint2_linear_3757_3586)"/>
<path d="M28.4481 14.6146L27.5754 11.6647C28.0292 13.2618 25.0619 14.6844 21.728 14.6844C18.3941 14.6844 15.4529 13.2618 15.898 11.656L14.9729 14.6146C14.4143 16.4037 17.9926 18.0008 21.7192 18.0008C25.4459 18.0008 29.0154 16.4037 28.4481 14.6146Z" fill="url(#paint3_linear_3757_3586)"/>
<path d="M26.3538 8.00819L25.6294 5.64304C25.9436 6.7427 24.0061 7.7289 21.7021 7.7289C19.398 7.7289 17.4692 6.7427 17.7834 5.64304L17.0416 8.00819C16.6576 9.24749 19.1275 10.3471 21.7021 10.3471C24.2767 10.3471 26.7465 9.23876 26.3538 8.00819Z" fill="url(#paint4_linear_3757_3586)"/>
<defs>
<linearGradient id="paint0_linear_3757_3586" x1="10.1285" y1="17.5997" x2="33.265" y2="17.5997" gradientUnits="userSpaceOnUse">
<stop stop-color="#FFD215"/>
<stop offset="0.55" stop-color="#FFE000"/>
<stop offset="1" stop-color="#FFD215"/>
</linearGradient>
<linearGradient id="paint1_linear_3757_3586" x1="10.129" y1="30.5685" x2="33.2655" y2="30.5685" gradientUnits="userSpaceOnUse">
<stop stop-color="#37475E" stop-opacity="0.8"/>
<stop offset="1" stop-color="#37475E"/>
</linearGradient>
<linearGradient id="paint2_linear_3757_3586" x1="12.5897" y1="22.3737" x2="30.8039" y2="22.3737" gradientUnits="userSpaceOnUse">
<stop stop-color="#37475E" stop-opacity="0.8"/>
<stop offset="1" stop-color="#37475E"/>
</linearGradient>
<linearGradient id="paint3_linear_3757_3586" x1="14.8856" y1="14.8328" x2="28.5092" y2="14.8328" gradientUnits="userSpaceOnUse">
<stop stop-color="#37475E" stop-opacity="0.8"/>
<stop offset="1" stop-color="#37475E"/>
</linearGradient>
<linearGradient id="paint4_linear_3757_3586" x1="17.0067" y1="7.99945" x2="26.3974" y2="7.99945" gradientUnits="userSpaceOnUse">
<stop stop-color="#37475E" stop-opacity="0.8"/>
<stop offset="1" stop-color="#37475E"/>
</linearGradient>
</defs>
</svg>
