<svg width="120" height="120" viewBox="0 0 120 120" fill="none" xmlns="http://www.w3.org/2000/svg">
<g opacity="0.8" clip-path="url(#clip0_3342_2387)">
<path d="M65.2997 1.24802L76.0997 6.62402C77.1997 7.20002 78.3997 7.58402 79.6997 7.77602L91.6997 9.50402C95.3997 10.08 98.5997 12.288 100.2 15.456L105.7 25.92C106.3 26.976 107 27.936 107.9 28.8L116.6 37.056C119.3 39.552 120.5 43.2 119.9 46.656L117.9 58.176C117.7 59.328 117.7 60.576 117.9 61.728L119.9 73.248C120.5 76.8 119.3 80.352 116.6 82.848L107.9 91.104C107 91.968 106.3 92.928 105.7 93.984L100.2 104.448C98.4997 107.616 95.2997 109.824 91.6997 110.4L79.6997 112.128C78.4997 112.32 77.2997 112.704 76.0997 113.28L65.2997 118.656C61.9997 120.288 58.0997 120.288 54.6997 118.656L43.8997 113.28C42.7997 112.704 41.5997 112.32 40.2997 112.128L28.2997 110.4C24.5997 109.824 21.3997 107.616 19.7997 104.448L14.2997 94.08C13.6997 93.024 12.9997 92.064 12.0997 91.2L3.39966 82.944C0.699661 80.448 -0.500339 76.8 0.0996608 73.344L2.09966 61.824C2.29966 60.672 2.29966 59.424 2.09966 58.272L0.0996608 46.752C-0.500339 43.2 0.699661 39.648 3.39966 37.152L12.0997 28.896C12.9997 28.032 13.6997 27.072 14.2997 26.016L19.7997 15.552C21.4997 12.384 24.6997 10.176 28.2997 9.60002L40.2997 7.87202C41.4997 7.68002 42.6997 7.29602 43.8997 6.72002L54.6997 1.34402C57.9997 -0.383976 61.9997 -0.383976 65.2997 1.24802Z" fill="#171B1D"/>
<path d="M64.4998 9.69597L73.7998 14.304C74.7998 14.784 75.7998 15.072 76.7998 15.264L87.0998 16.8C90.2998 17.28 92.9998 19.2 94.3998 21.888L99.0998 30.816C99.5998 31.776 100.2 32.544 101 33.312L108.4 40.32C110.7 42.432 111.7 45.504 111.2 48.576L109.5 58.464C109.3 59.52 109.3 60.48 109.5 61.536L111.2 71.424C111.7 74.4 110.7 77.568 108.4 79.68L101 86.688C100.2 87.456 99.5998 88.224 99.0998 89.184L94.3998 98.112C92.9998 100.896 90.1998 102.72 87.0998 103.2L76.7998 104.736C75.6998 104.928 74.6998 105.216 73.7998 105.696L64.4998 110.304C61.6998 111.744 58.2998 111.744 55.4998 110.304L46.1998 105.696C45.1998 105.216 44.1998 104.928 43.1998 104.736L32.8998 103.2C29.6998 102.72 26.9998 100.8 25.5998 98.112L20.8998 89.184C20.3998 88.224 19.7998 87.456 18.9998 86.688L11.5998 79.68C9.29977 77.568 8.29977 74.496 8.79977 71.424L10.4998 61.536C10.6998 60.48 10.6998 59.52 10.4998 58.464L8.79977 48.576C8.29977 45.6 9.29977 42.432 11.5998 40.32L18.9998 33.312C19.7998 32.544 20.3998 31.776 20.8998 30.816L25.5998 21.888C26.9998 19.104 29.7998 17.28 32.8998 16.8L43.1998 15.264C44.2998 15.072 45.2998 14.784 46.1998 14.304L55.4998 9.69597C58.2998 8.25597 61.6998 8.25597 64.4998 9.69597Z" stroke="white" stroke-miterlimit="10"/>
<path d="M42.1002 52.512V54.72H38.7002V58.752H36.2002V54.72H32.6002V58.752H30.1002V54.72H26.7002V52.512H42.1002ZM27.4002 45.792C27.4002 43.968 29.0002 42.432 31.0002 42.432H37.9002C39.9002 42.432 41.5002 43.968 41.5002 45.792V46.848C41.5002 48.672 39.9002 50.208 37.9002 50.208H31.0002C29.0002 50.208 27.4002 48.672 27.4002 46.848V45.792ZM31.5002 48H37.4002C38.4002 48 38.9002 47.232 38.9002 46.368C38.9002 45.504 38.4002 44.736 37.4002 44.736H31.5002C30.5002 44.736 30.0002 45.504 30.0002 46.368C29.9002 47.232 30.4002 48 31.5002 48Z" fill="white"/>
<path d="M47.9004 56.448V53.088C46.2004 53.088 44.8004 51.648 44.8004 49.728C44.8004 47.808 46.2004 46.368 47.9004 46.368H55.4004C57.1004 46.368 58.5004 47.808 58.5004 49.728C58.5004 51.552 57.1004 52.992 55.4004 53.088V56.448H59.3004V58.752H43.9004V56.448H47.9004ZM52.9004 43.104H58.6004V45.312H44.7004V43.104H50.4004V41.76H52.9004V43.104ZM47.9004 48.768C47.6004 48.768 47.2004 49.248 47.2004 49.824C47.2004 50.4 47.6004 50.88 47.9004 50.88H55.4004C55.7004 50.88 56.1004 50.4 56.1004 49.824C56.1004 49.248 55.7004 48.768 55.4004 48.768H47.9004ZM50.4004 56.448H53.0004V53.088H50.4004V56.448Z" fill="white"/>
<path d="M67.6006 43.392H71.1006V45.6H61.6006V43.392H65.1006V41.76H67.6006V43.392ZM67.0006 46.656C69.0006 46.656 70.6006 48.096 70.6006 50.016V55.392C70.6006 57.216 69.0006 58.752 67.0006 58.752H65.7006C63.7006 58.752 62.1006 57.312 62.1006 55.392V49.92C62.1006 48.096 63.7006 46.56 65.7006 46.56H67.0006V46.656ZM66.4006 56.352C67.3006 56.352 68.1006 55.776 68.1006 54.816V50.496C68.1006 49.536 67.3006 48.96 66.4006 48.96H66.2006C65.3006 48.96 64.5006 49.536 64.5006 50.496V54.816C64.5006 55.776 65.3006 56.352 66.2006 56.352H66.4006ZM75.6006 48.96H77.4006V51.264H75.6006V58.752H73.0006V42.432H75.5006V48.96H75.6006Z" fill="white"/>
<path d="M85.7 49.92L89.1 58.656H86.2L84.1 53.184L81.4 58.656H78.5L85.1 44.832H78.8V42.528H88.1V44.832L85.7 49.92ZM93.4 58.752H90.9V42.432H93.4V58.752Z" fill="white"/>
<path d="M50.4998 65.472C52.2998 65.472 53.7998 66.624 53.7998 68.16V71.424C53.7998 72.864 52.2998 74.112 50.4998 74.112H47.5998C45.7998 74.112 44.2998 72.96 44.2998 71.424V68.16C44.2998 66.72 45.7998 65.472 47.5998 65.472H50.4998ZM56.0998 75.552H58.6998V77.376H57.2998C57.8998 77.856 58.2998 78.528 58.2998 79.392C58.2998 81.12 56.9998 82.08 54.9998 82.08C54.2998 82.08 53.6998 81.984 53.0998 81.696H45.2998V75.648H47.6998V79.584H51.6998V79.296C51.6998 78.432 52.0998 77.664 52.6998 77.28H51.2998V75.456H53.8998V74.4H56.1998V75.552H56.0998ZM51.2998 69.024C51.2998 68.256 50.6998 67.776 49.7998 67.776H48.3998C47.4998 67.776 46.8998 68.256 46.8998 69.024V70.656C46.8998 71.424 47.4998 71.904 48.3998 71.904H49.7998C50.6998 71.904 51.2998 71.424 51.2998 70.656V69.024ZM53.7998 79.392C53.7998 79.968 54.2998 80.352 54.9998 80.352C55.6998 80.352 56.1998 79.968 56.1998 79.392V79.2C56.1998 78.624 55.6998 78.24 54.9998 78.24C54.2998 78.24 53.7998 78.624 53.7998 79.2V79.392ZM55.7998 73.824V65.376H58.2998V68.544H60.0998V70.848H58.2998V73.728H55.7998V73.824Z" fill="white"/>
<path d="M76.7002 72.864V75.072H61.2002V72.864H76.7002ZM65.2002 71.712C63.5002 71.712 62.1002 70.56 62.1002 68.544C62.1002 66.624 63.4002 65.376 65.2002 65.376H72.8002C74.4002 65.376 75.9002 66.432 75.9002 68.544C75.9002 70.464 74.6002 71.712 72.8002 71.712H65.2002ZM75.6002 76.032V81.792H62.2002V76.032H75.6002ZM72.6002 69.408C73.1002 69.408 73.3002 69.024 73.3002 68.64C73.3002 68.16 73.0002 67.872 72.6002 67.872H65.2002C64.7002 67.872 64.5002 68.256 64.5002 68.64C64.5002 69.024 64.8002 69.408 65.2002 69.408H72.6002ZM73.1002 78.048H64.7002V79.776H73.1002V78.048Z" fill="white"/>
</g>
<defs>
<clipPath id="clip0_3342_2387">
<rect width="120" height="120" fill="white"/>
</clipPath>
</defs>
</svg>
