<svg width="104" height="104" viewBox="0 0 104 104" fill="none" xmlns="http://www.w3.org/2000/svg">
<g clip-path="url(#clip0_3357_2286)">
<path fill-rule="evenodd" clip-rule="evenodd" d="M52 98.8V104H46.8V98.8H52ZM57.2 88.4V93.6H52V88.4H57.2ZM20.8 83.2V93.6H10.4V83.2H20.8ZM57.2 78V83.2H52V78H57.2ZM104 62.4V67.6H98.8V62.4H104ZM5.2 62.4V67.6H0V62.4H5.2ZM86.2 55V60.2H81V55H86.2ZM41.6 44V54.4H26V49.2H36.4V44H41.6ZM5.2 36.4V41.6H0V36.4H5.2ZM54.4 21V31.4H44V21H54.4ZM15.4 8V18.4H5V8H15.4ZM15.6 67.6V72.8H31.2V67.6H36.4V78H31.2V98.8H41.6V104H0V72.8H5.2V67.6H15.6ZM93.6 88.4V93.6H104V104H98.8V98.8H88.4V104H83.2V98.8H72.8V93.6H88.4V88.4H93.6ZM67.6 98.8V104H57.2V98.8H67.6ZM26 78H5.2V98.8H26V78ZM46.8 72.8V83.2H52V88.4H46.8V93.6H36.4V88.4H41.6V83.2H36.4V78H41.6V72.8H46.8ZM83.6 68V83.6H68V68H83.6ZM104 72.8V83.2H93.6V78H98.8V72.8H104ZM26 62.4V67.6H20.8V62.4H26ZM70.6 52V57.2H65.4V62.4H60.2V67.6H55V57.2H60.2V52H70.6ZM88.4 41.6V46.8H83.2V41.6H88.4ZM93.6 36.4V41.6H88.4V36.4H93.6ZM36.4 31.2V36.4H31.2V31.2H36.4ZM104.2 13V18.2H99V13H104.2ZM46.8 5.2V10.4H41.6V5.2H46.8ZM57.2 0V5.2H52V0H57.2Z" fill="#E3EAEE"/>
<path d="M52 72C63.0457 72 72 63.0457 72 52C72 40.9543 63.0457 32 52 32C40.9543 32 32 40.9543 32 52C32 63.0457 40.9543 72 52 72Z" fill="#F03465"/>
<path d="M52.0156 56.2744C52.4642 56.2744 52.7858 56.0755 52.9805 55.6777C53.1751 55.2799 53.3021 54.7087 53.3613 53.9639L53.9072 47.7051C53.9665 47.1296 53.9961 46.5625 53.9961 46.0039C53.9961 45.056 53.8734 44.3302 53.6279 43.8267C53.3825 43.3231 52.8958 43.0713 52.168 43.0713C51.5671 43.0713 51.0825 43.2681 50.7144 43.6616C50.3462 44.0552 50.1621 44.6032 50.1621 45.3057C50.1621 45.8219 50.2002 46.6725 50.2764 47.8574L50.6826 53.9385C50.7588 54.7256 50.8857 55.3117 51.0635 55.6968C51.2412 56.0819 51.5586 56.2744 52.0156 56.2744ZM52.0918 62.292C52.5996 62.292 53.0439 62.1227 53.4248 61.7842C53.8057 61.4456 53.9961 60.9801 53.9961 60.3877C53.9961 59.863 53.8078 59.4165 53.4312 59.0483C53.0545 58.6802 52.5996 58.4961 52.0664 58.4961C51.5332 58.4961 51.0825 58.6802 50.7144 59.0483C50.3462 59.4165 50.1621 59.863 50.1621 60.3877C50.1621 60.9886 50.3547 61.4562 50.7397 61.7905C51.1248 62.1248 51.5755 62.292 52.0918 62.292Z" fill="white"/>
</g>
<defs>
<clipPath id="clip0_3357_2286">
<rect width="104" height="104" fill="white"/>
</clipPath>
</defs>
</svg>
