<svg width="280" height="280" viewBox="0 0 280 280" fill="none" xmlns="http://www.w3.org/2000/svg">
<path d="M148.166 259C219.043 259 276.5 201.543 276.5 130.667C276.5 59.7901 219.043 2.33331 148.166 2.33331C77.2898 2.33331 19.833 59.7901 19.833 130.667C19.833 201.543 77.2898 259 148.166 259Z" fill="url(#paint0_linear_3215_1736)"/>
<path d="M262.52 208.093L2 152.383V160.553C2 164.003 4.39 167.553 9.05 170.323L165.44 262.323C174.05 267.393 187.14 267.693 194.68 263.013L257.37 224.013C260.86 221.853 262.54 219.013 262.51 216.063L262.52 208.093Z" fill="url(#paint1_linear_3215_1736)"/>
<path d="M257.38 215.833L194.69 254.773C187.15 259.463 174.06 259.153 165.45 254.093L9.06027 162.093C0.460268 157.033 -0.399732 149.093 7.14027 144.443L69.8303 105.443C77.3703 100.763 90.4703 101.063 99.0703 106.123L255.46 198.123C264.06 203.243 264.93 211.143 257.38 215.833Z" fill="url(#paint2_linear_3215_1736)"/>
<path d="M76.2205 108.993L66.7005 114.913C64.9505 115.993 65.1505 117.823 67.1405 118.993C70.0605 120.703 70.3505 123.383 67.7905 124.993L39.3705 142.623C36.8105 144.213 32.3705 144.113 29.4605 142.393C27.377 141.221 24.8472 141.161 22.7105 142.233L13.1905 148.153C8.83047 150.853 9.33047 155.413 14.3005 158.343L171.2 250.643C176.2 253.563 183.72 253.743 188.07 251.033L251.07 211.883C255.42 209.173 254.92 204.613 249.95 201.693L93.0505 109.393C88.1305 106.463 80.5705 106.333 76.2205 108.993Z" fill="#E9F4FF"/>
<path d="M39.6224 136.476C39.6762 135.926 39.0024 135.41 38.1175 135.324C37.2325 135.237 36.4715 135.612 36.4177 136.162C36.3639 136.712 37.0377 137.227 37.9227 137.314C38.8076 137.401 39.5686 137.025 39.6224 136.476Z" fill="#37475E"/>
<path d="M57.5098 125.523L43.1198 134.463C42.4092 134.837 41.5604 134.837 40.8498 134.463C40.1798 134.063 40.1198 133.463 40.6998 133.093L55.0998 124.093C55.8167 123.739 56.6627 123.761 57.3598 124.153C57.9998 124.543 58.0898 125.153 57.5098 125.523Z" fill="#37475E"/>
<path d="M135 144.713L76.5699 180.863C73.5113 182.52 69.8316 182.557 66.7399 180.963L40.1399 165.963C37.3799 164.373 37.2999 161.743 39.9699 160.093L98.3899 123.933C101.45 122.282 105.127 122.245 108.22 123.833L134.82 138.833C137.58 140.433 137.66 143.063 135 144.713Z" fill="#F7F9FC"/>
<path d="M183.36 172.033L124.94 208.193C121.882 209.85 118.202 209.887 115.11 208.293L88.5003 193.293C85.7403 191.693 85.6703 189.063 88.3303 187.413L146.75 151.263C149.809 149.607 153.489 149.57 156.58 151.163L183.18 166.163C186 167.753 186 170.383 183.36 172.033Z" fill="#F7F9FC"/>
<path d="M232.82 201.793L174.4 237.953C171.34 239.604 167.663 239.642 164.57 238.053L138 223.003C135.24 221.413 135.16 218.783 137.82 217.133L196.25 180.973C199.306 179.322 202.98 179.285 206.07 180.873L232.68 195.873C235.41 197.513 235.49 200.143 232.82 201.793Z" fill="#F7F9FC"/>
<path d="M167.82 226.543C154.06 210.823 129.33 197.853 102.22 204.113C94.8535 205.714 87.8742 208.748 81.6797 213.043L162.36 260.513L162.1 252.053C173.24 244.863 173.88 233.463 167.82 226.543Z" fill="url(#paint3_radial_3215_1736)"/>
<path d="M113.483 114.523L76.9932 136.913C73.6432 138.913 73.7232 142.253 77.1732 144.263L146.043 184.333C149.909 186.341 154.517 186.307 158.353 184.243L194.353 162.123L113.483 114.523Z" fill="url(#paint4_radial_3215_1736)"/>
<path d="M227.663 116.763V114.763L156.153 72.9234C152.286 70.921 147.68 70.9547 143.843 73.0134L74.5332 115.583V117.913C74.782 119.431 75.7618 120.729 77.1532 121.383L146.023 161.463C149.889 163.469 154.494 163.439 158.333 161.383L225.183 120.383C226.525 119.71 227.443 118.413 227.633 116.923L227.663 116.763Z" fill="url(#paint5_linear_3215_1736)"/>
<path d="M221.404 120.743L162.154 157.103C156.714 160.443 147.744 160.503 142.154 157.243L81.1536 121.723C75.5436 118.453 75.4036 113.093 80.8536 109.723L140.104 73.3733C145.554 70.0233 154.524 69.9633 160.104 73.2333L221.104 108.753C226.724 112.043 226.854 117.403 221.404 120.743Z" fill="url(#paint6_linear_3215_1736)"/>
<path d="M143.843 71.0633L76.9932 112.063C73.6432 114.123 73.7232 117.413 77.1732 119.423L146.043 159.503C149.903 161.5 154.497 161.474 158.333 159.433L225.183 118.433C228.533 116.383 228.453 113.083 225.003 111.083L156.153 70.9833C152.288 68.9779 147.682 69.0078 143.843 71.0633ZM218.433 112.333C220.433 113.513 220.513 115.453 218.543 116.663L155.883 155.043C153.626 156.254 150.917 156.273 148.643 155.093L83.9132 117.333C81.9132 116.153 81.8432 114.213 83.8132 113.003L146.473 74.6333C148.735 73.4386 151.441 73.4386 153.703 74.6333L218.433 112.333Z" fill="url(#paint7_linear_3215_1736)"/>
<path d="M170.643 97.6433L172.753 127.853L122.153 127.393L120.453 116.743L152.783 96.9033L170.643 97.6433Z" fill="#FFE000"/>
<path d="M120.453 116.743L122.153 127.393L138.323 117.473L120.453 116.743Z" fill="#FFD000"/>
<path d="M136.613 106.823L138.323 117.473L154.483 107.553L136.613 106.823Z" fill="#FFD000"/>
<path d="M152.783 96.9033L154.483 107.553L170.643 97.6433L152.783 96.9033Z" fill="#FFD000"/>
<path d="M172.753 127.853L154.483 107.553L170.643 97.6433L172.753 127.853Z" fill="#FFD800"/>
<path d="M172.753 127.853L122.153 127.393L138.323 117.473L172.753 127.853Z" fill="#FFD800"/>
<path d="M172.753 127.853L138.323 117.473L154.483 107.553L172.753 127.853Z" fill="#FFE000"/>
<path d="M171.562 227.468C171.907 207.865 148.892 191.563 120.155 191.056C91.4191 190.55 67.8434 206.031 67.4978 225.634C67.1522 245.237 90.1676 261.539 118.904 262.045C147.64 262.552 171.216 247.071 171.562 227.468Z" fill="url(#paint8_linear_3215_1736)"/>
<path d="M171.562 224.618C171.907 205.015 148.892 188.713 120.155 188.206C91.4191 187.699 67.8434 203.18 67.4978 222.783C67.1522 242.386 90.1676 258.688 118.904 259.195C147.64 259.702 171.216 244.221 171.562 224.618Z" fill="url(#paint9_linear_3215_1736)"/>
<path d="M120.289 256.333C100.099 256.333 81.0195 247.663 73.9195 233.963C70.3538 227.466 70.1379 219.648 73.3395 212.963C77.9695 202.963 88.9695 195.323 103.519 191.963C128.629 186.203 156.279 195.473 165.169 212.613C168.735 219.111 168.951 226.929 165.749 233.613C161.129 243.613 150.129 251.243 135.579 254.613C130.564 255.759 125.435 256.336 120.289 256.333ZM118.869 191.743C113.823 191.74 108.792 192.3 103.869 193.413C89.9195 196.603 78.9995 204.153 74.6295 213.603C71.6363 219.888 71.8446 227.228 75.1895 233.333C83.7995 249.933 110.739 258.873 135.259 253.253C149.169 250.063 160.089 242.523 164.459 233.073C167.444 226.795 167.239 219.466 163.909 213.363C156.999 200.103 138.519 191.743 118.869 191.743Z" fill="url(#paint10_linear_3215_1736)"/>
<path d="M119.7 219.563L141.6 226.883C144.164 223.162 144.438 218.321 142.31 214.333C140.11 210.053 135.31 207.253 129.84 205.273L119.7 219.563Z" fill="url(#paint11_linear_3215_1736)"/>
<path d="M108.59 235.213L126.91 236.043L140.03 228.143L118.69 220.983L108.59 235.213Z" fill="url(#paint12_linear_3215_1736)"/>
<path d="M117.81 219.573L128.14 205.013L111.04 204.133L108.76 232.323L117.81 219.573Z" fill="url(#paint13_linear_3215_1736)"/>
<path d="M94.8301 225.333C97.0201 229.593 101.43 232.913 106.83 234.903L108.35 206.253L94.8301 225.333Z" fill="url(#paint14_linear_3215_1736)"/>
<path d="M92.8502 213.993C91.3061 211.081 89.1786 208.517 86.6002 206.463C70.7302 215.383 63.3002 222.903 70.0802 237.103C70.3602 237.043 69.7902 237.103 70.0802 237.103C88.0002 236.043 99.3102 226.543 92.8502 213.993Z" fill="url(#paint15_radial_3215_1736)"/>
<path d="M96.5327 207.291C96.7663 194.044 81.2164 183.027 61.8011 182.685C42.3857 182.343 26.4572 192.804 26.2237 206.052C25.9901 219.299 41.54 230.315 60.9553 230.658C80.3706 231 96.2992 220.538 96.5327 207.291Z" fill="url(#paint16_linear_3215_1736)"/>
<path d="M96.5327 205.367C96.7663 192.12 81.2164 181.103 61.8011 180.761C42.3857 180.419 26.4572 190.88 26.2237 204.128C25.9901 217.375 41.54 228.391 60.9553 228.734C80.3706 229.076 96.2992 218.614 96.5327 205.367Z" fill="url(#paint17_linear_3215_1736)"/>
<path d="M61.8901 226.783C48.2501 226.783 35.3601 220.923 30.5601 211.673C28.1644 207.286 28.0194 202.016 30.1701 197.503C33.2901 190.753 40.7201 185.593 50.5601 183.333C67.5601 179.453 86.2101 185.713 92.2101 197.333C94.6089 201.719 94.7577 206.989 92.6101 211.503C89.4801 218.213 82.0501 223.333 72.2201 225.633C68.8306 226.402 65.3656 226.788 61.8901 226.783ZM60.8901 183.143C57.4717 183.137 54.0636 183.516 50.7301 184.273C41.3701 186.433 34.0001 191.523 31.0001 197.913C28.9785 202.155 29.1162 207.11 31.3701 211.233C37.1901 222.443 55.3701 228.483 71.9601 224.693C81.3601 222.533 88.7401 217.443 91.6901 211.053C93.7116 206.811 93.574 201.857 91.3201 197.733C86.7201 188.793 74.2101 183.143 60.9301 183.143H60.8901Z" fill="url(#paint18_linear_3215_1736)"/>
<path d="M61.4902 201.943L76.2902 206.893C78.0158 204.376 78.2007 201.109 76.7702 198.413C75.2802 195.513 72.0302 193.623 68.3402 192.293L61.4902 201.943Z" fill="#F3F3F5"/>
<path d="M53.9902 212.513L66.3602 213.073L75.2302 207.743L60.8102 202.903L53.9902 212.513Z" fill="#F3F3F5"/>
<path d="M60.2106 201.943L67.1906 192.113L55.6406 191.513L54.1006 210.563L60.2106 201.943Z" fill="#F3F3F5"/>
<path d="M44.6904 205.823C46.1704 208.703 49.1404 210.953 52.8104 212.293L53.8104 192.933L44.6904 205.823Z" fill="#F3F3F5"/>
<path d="M40.9028 83.0566L32.0928 90.4266L32.6428 80.6166L40.9028 81.1066V83.0566Z" fill="#2A60B7"/>
<path d="M40.9028 83.0566L32.0928 90.4266L32.6428 80.6166L40.9028 81.1066V83.0566Z" fill="#4980E2"/>
<path d="M48.9332 92.1666L32.6432 80.6166L27.3332 78.1666L17.1532 74.6766C16.7906 74.5168 16.5566 74.1579 16.5566 73.7616C16.5566 73.3654 16.7906 73.0065 17.1532 72.8466L55.7332 57.5666C57.0832 57.0366 58.8932 57.2966 58.2032 59.6366L51.6432 91.1666C51.5065 91.7299 51.0984 92.1881 50.5546 92.3887C50.0109 92.5893 49.403 92.5061 48.9332 92.1666Z" fill="#6DB3FA"/>
<path d="M48.9332 92.1666L32.6432 80.6166L27.3332 78.1666L17.1532 74.6766C16.7906 74.5168 16.5566 74.1579 16.5566 73.7616C16.5566 73.3654 16.7906 73.0065 17.1532 72.8466L55.7332 57.5666C57.0832 57.0366 58.8932 57.2966 58.2032 59.6366L51.6432 91.1666C51.5065 91.7299 51.0984 92.1881 50.5546 92.3887C50.0109 92.5893 49.403 92.5061 48.9332 92.1666Z" fill="url(#paint19_linear_3215_1736)"/>
<path d="M32.643 80.6167L32.283 90.0167C32.2832 90.3023 32.0718 90.544 31.7887 90.5819C31.5055 90.6199 31.238 90.4423 31.163 90.1667L27.333 78.1667L50.123 64.0767C50.298 63.9508 50.5412 63.9862 50.673 64.1567C50.7361 64.2399 50.7632 64.345 50.7482 64.4484C50.7331 64.5518 50.6772 64.6448 50.593 64.7067L32.643 80.6167Z" fill="#6098FA"/>
<path d="M258.893 57.1667C252.797 57.1667 247.302 60.8425 244.974 66.4774C242.647 72.1123 243.946 78.5946 248.266 82.897C252.585 87.1993 259.073 88.4729 264.698 86.123C270.324 83.7731 273.978 78.2633 273.953 72.1667C273.926 63.8704 267.19 57.1611 258.893 57.1667ZM264.893 73.7267H252.893C252.316 73.7935 251.752 73.523 251.442 73.0313C251.132 72.5396 251.132 71.9138 251.442 71.4221C251.752 70.9303 252.316 70.6599 252.893 70.7267H264.893C265.471 70.6599 266.035 70.9303 266.345 71.4221C266.654 71.9138 266.654 72.5396 266.345 73.0313C266.035 73.523 265.471 73.7935 264.893 73.7267Z" fill="#FFE33B"/>
<path d="M247.647 33.8333C239.098 33.8333 232.167 40.7639 232.167 49.3133C232.167 57.8627 239.098 64.7933 247.647 64.7933C256.196 64.7933 263.127 57.8627 263.127 49.3133C263.127 40.7639 256.196 33.8333 247.647 33.8333ZM253.837 50.8333H249.197V55.4733C249.197 56.3294 248.503 57.0233 247.647 57.0233C246.791 57.0233 246.097 56.3294 246.097 55.4733V50.8333H241.457C240.875 50.8801 240.317 50.5963 240.011 50.099C239.706 49.6016 239.706 48.975 240.011 48.4776C240.317 47.9803 240.875 47.6965 241.457 47.7433H246.127V43.1233C246.127 42.2673 246.821 41.5733 247.677 41.5733C248.533 41.5733 249.227 42.2673 249.227 43.1233V47.7733H253.867C254.449 47.7265 255.007 48.0103 255.312 48.5076C255.618 49.005 255.618 49.6316 255.312 50.129C255.007 50.6263 254.449 50.9101 253.867 50.8633L253.837 50.8333Z" fill="url(#paint20_linear_3215_1736)"/>
<defs>
<linearGradient id="paint0_linear_3215_1736" x1="200.179" y1="123.31" x2="-5.27852" y2="152.132" gradientUnits="userSpaceOnUse">
<stop stop-color="#EEF8FF"/>
<stop offset="1" stop-color="#EBF8FF" stop-opacity="0.2"/>
</linearGradient>
<linearGradient id="paint1_linear_3215_1736" x1="2" y1="209.353" x2="262.52" y2="209.353" gradientUnits="userSpaceOnUse">
<stop stop-color="#80B9ED"/>
<stop offset="0.24" stop-color="#7DB5EE"/>
<stop offset="0.47" stop-color="#72AAF3"/>
<stop offset="0.68" stop-color="#6098FA"/>
<stop offset="1" stop-color="#B0D7FC"/>
</linearGradient>
<linearGradient id="paint2_linear_3215_1736" x1="2.00027" y1="180.133" x2="262.52" y2="180.133" gradientUnits="userSpaceOnUse">
<stop stop-color="#C1DDFF"/>
<stop offset="1" stop-color="#D3E6FF"/>
</linearGradient>
<radialGradient id="paint3_radial_3215_1736" cx="0" cy="0" r="1" gradientUnits="userSpaceOnUse" gradientTransform="translate(29.7545 298.484) rotate(45.1682) scale(76.4914 54.0192)">
<stop stop-color="#243477" stop-opacity="0.2"/>
<stop offset="1" stop-color="#243470" stop-opacity="0"/>
</radialGradient>
<radialGradient id="paint4_radial_3215_1736" cx="0" cy="0" r="1" gradientUnits="userSpaceOnUse" gradientTransform="translate(91.4456 165.399) rotate(33.3316) scale(74.6236 60.0687)">
<stop stop-color="#243477" stop-opacity="0.2"/>
<stop offset="1" stop-color="#243470" stop-opacity="0"/>
</radialGradient>
<linearGradient id="paint5_linear_3215_1736" x1="74.5332" y1="117.193" x2="227.663" y2="117.193" gradientUnits="userSpaceOnUse">
<stop stop-color="#80B9ED"/>
<stop offset="0.24" stop-color="#7DB5EE"/>
<stop offset="0.47" stop-color="#72AAF3"/>
<stop offset="0.68" stop-color="#6098FA"/>
<stop offset="1" stop-color="#B0D7FC"/>
</linearGradient>
<linearGradient id="paint6_linear_3215_1736" x1="76.7936" y1="115.253" x2="225.404" y2="115.253" gradientUnits="userSpaceOnUse">
<stop stop-color="#A9CEFF"/>
<stop offset="1" stop-color="#80BEFF"/>
</linearGradient>
<linearGradient id="paint7_linear_3215_1736" x1="151.103" y1="59.6733" x2="151.103" y2="172.573" gradientUnits="userSpaceOnUse">
<stop stop-color="#C1DDFF"/>
<stop offset="1" stop-color="#D3E6FF"/>
</linearGradient>
<linearGradient id="paint8_linear_3215_1736" x1="51.8014" y1="225.911" x2="187.749" y2="225.911" gradientUnits="userSpaceOnUse">
<stop stop-color="#FCDF96"/>
<stop offset="0.481868" stop-color="#E1BC6C"/>
<stop offset="1" stop-color="#EFD078"/>
</linearGradient>
<linearGradient id="paint9_linear_3215_1736" x1="180.803" y1="205.238" x2="105.262" y2="268.321" gradientUnits="userSpaceOnUse">
<stop stop-color="#F5D170"/>
<stop offset="1" stop-color="#FBE375"/>
</linearGradient>
<linearGradient id="paint10_linear_3215_1736" x1="119.539" y1="207.968" x2="119.544" y2="238.651" gradientUnits="userSpaceOnUse">
<stop stop-color="#F5EAAB"/>
<stop offset="1" stop-color="#F2E2A9"/>
</linearGradient>
<linearGradient id="paint11_linear_3215_1736" x1="141.904" y1="232.856" x2="152.061" y2="253.48" gradientUnits="userSpaceOnUse">
<stop stop-color="#F5EAAB"/>
<stop offset="1" stop-color="#F2E2A9"/>
</linearGradient>
<linearGradient id="paint12_linear_3215_1736" x1="129.411" y1="231.123" x2="133.973" y2="240.385" gradientUnits="userSpaceOnUse">
<stop stop-color="#F5EAAB"/>
<stop offset="1" stop-color="#F2E2A9"/>
</linearGradient>
<linearGradient id="paint13_linear_3215_1736" x1="123.888" y1="239.754" x2="134.66" y2="261.625" gradientUnits="userSpaceOnUse">
<stop stop-color="#F5EAAB"/>
<stop offset="1" stop-color="#F2E2A9"/>
</linearGradient>
<linearGradient id="paint14_linear_3215_1736" x1="104.851" y1="243.112" x2="115.037" y2="263.793" gradientUnits="userSpaceOnUse">
<stop stop-color="#F5EAAB"/>
<stop offset="1" stop-color="#F2E2A9"/>
</linearGradient>
<radialGradient id="paint15_radial_3215_1736" cx="0" cy="0" r="1" gradientUnits="userSpaceOnUse" gradientTransform="translate(64.1691 220.73) rotate(24.3489) scale(14.1797 14.8469)">
<stop stop-color="#243477" stop-opacity="0.2"/>
<stop offset="1" stop-color="#243470" stop-opacity="0"/>
</radialGradient>
<linearGradient id="paint16_linear_3215_1736" x1="16.1353" y1="206.245" x2="108.004" y2="206.028" gradientUnits="userSpaceOnUse">
<stop stop-color="#DDDEE2"/>
<stop offset="0.46" stop-color="#C4C8CE"/>
<stop offset="0.52" stop-color="#C0C5CB"/>
<stop offset="1" stop-color="#DDDEE2"/>
</linearGradient>
<linearGradient id="paint17_linear_3215_1736" x1="61.1063" y1="191.058" x2="61.1063" y2="217.538" gradientUnits="userSpaceOnUse">
<stop stop-color="#E9E7EA"/>
<stop offset="1" stop-color="#DDDEE2"/>
</linearGradient>
<linearGradient id="paint18_linear_3215_1736" x1="61.3801" y1="194.134" x2="61.3847" y2="214.833" gradientUnits="userSpaceOnUse">
<stop stop-color="#F3F3F5"/>
<stop offset="1" stop-color="#EDEDEF"/>
</linearGradient>
<linearGradient id="paint19_linear_3215_1736" x1="56.9532" y1="74.598" x2="40.7325" y2="76.7077" gradientUnits="userSpaceOnUse">
<stop stop-color="#A9CEFF"/>
<stop offset="1" stop-color="#80BEFF"/>
</linearGradient>
<linearGradient id="paint20_linear_3215_1736" x1="232.167" y1="49.3133" x2="263.127" y2="49.3133" gradientUnits="userSpaceOnUse">
<stop stop-color="#A9CEFF"/>
<stop offset="1" stop-color="#80BEFF"/>
</linearGradient>
</defs>
</svg>
