<svg width="36" height="36" viewBox="0 0 36 36" fill="none" xmlns="http://www.w3.org/2000/svg">
<path fill-rule="evenodd" clip-rule="evenodd" d="M13.4304 17.43L8.86035 14L13.4304 10.57V12.86H21.4304C24.4937 12.9882 26.9112 15.5089 26.9112 18.575C26.9112 21.6411 24.4937 24.1618 21.4304 24.29H12.2904V22H21.4304C23.2639 21.9702 24.7496 20.5035 24.8032 18.6706C24.8567 16.8376 23.459 15.2867 21.6304 15.15H13.4304V17.43Z" fill="#508FEA"/>
<path fill-rule="evenodd" clip-rule="evenodd" d="M18 3C26.2843 3 33 9.71573 33 18C33 26.2843 26.2843 33 18 33C9.71573 33 3 26.2843 3 18C3 9.71573 9.71573 3 18 3ZM27.57 9.41L9.41 27.57C14.4954 32.1313 22.2596 31.9205 27.09 27.09C31.9205 22.2596 32.1313 14.4954 27.57 9.41ZM18 5.14C13.0659 5.14335 8.56872 7.96949 6.4254 12.4138C4.28208 16.8581 4.87056 22.1368 7.94 26L26 7.94C23.7279 6.12664 20.907 5.13932 18 5.14Z" fill="#F03465"/>
</svg>
