<svg width="280" height="280" viewBox="0 0 280 280" fill="none" xmlns="http://www.w3.org/2000/svg">
<path d="M140 233.333C191.547 233.333 233.334 191.547 233.334 140C233.334 88.4535 191.547 46.6667 140 46.6667C88.4537 46.6667 46.667 88.4535 46.667 140C46.667 191.547 88.4537 233.333 140 233.333Z" fill="#747E83"/>
<path d="M140 199.392C107.195 199.392 80.6084 172.806 80.6084 140C80.6084 107.194 107.195 80.6082 140 80.6082C156.396 80.6082 171.242 87.2566 181.997 98.0038L205.995 74.0049C189.104 57.1132 165.767 46.6667 140 46.6667C88.4526 46.6667 46.667 88.4524 46.667 140C46.667 191.548 88.4526 233.333 140 233.333C165.774 233.333 189.104 222.887 206.003 206.003L182.004 182.004C171.242 192.744 156.396 199.392 140 199.392Z" fill="#C3CED3"/>
<path d="M199.392 140H169.693C169.693 123.605 156.396 110.3 139.993 110.3C123.59 110.3 110.301 123.597 110.301 140C110.301 147.987 113.46 155.23 118.596 160.577L118.574 160.6L155.343 197.369L155.35 197.376C180.711 190.608 199.392 167.489 199.392 140Z" fill="#5C6164"/>
<path d="M233.325 140H199.384C199.384 167.489 180.695 190.608 155.35 197.376L181.56 223.586C212.245 208.297 233.325 176.611 233.325 140Z" fill="#A1ACB1"/>
<path d="M155.358 197.376L156.186 198.204C181.11 191.164 199.393 168.256 199.393 141.06V140C199.393 167.489 180.704 190.608 155.358 197.376Z" fill="white" fill-opacity="0.05"/>
<path d="M216.363 131.513H139.997C135.312 131.513 131.514 135.311 131.514 139.997C131.514 144.682 135.312 148.48 139.997 148.48H216.356C221.041 148.48 224.839 144.682 224.839 139.997C224.846 135.311 221.048 131.513 216.363 131.513Z" fill="#C3CED3"/>
<path d="M63.6343 146.363C67.1485 146.363 69.9972 143.514 69.9972 140C69.9972 136.486 67.1485 133.637 63.6343 133.637C60.1202 133.637 57.2715 136.486 57.2715 140C57.2715 143.514 60.1202 146.363 63.6343 146.363Z" fill="#E2EAEE"/>
<path d="M140.001 69.9968C143.515 69.9968 146.363 67.1481 146.363 63.634C146.363 60.1199 143.515 57.2711 140.001 57.2711C136.486 57.2711 133.638 60.1199 133.638 63.634C133.638 67.1481 136.486 69.9968 140.001 69.9968Z" fill="#E2EAEE"/>
<path d="M140.001 222.722C143.515 222.722 146.363 219.873 146.363 216.359C146.363 212.845 143.515 209.996 140.001 209.996C136.486 209.996 133.638 212.845 133.638 216.359C133.638 219.873 136.486 222.722 140.001 222.722Z" fill="#E2EAEE"/>
<path d="M85.9107 92.3637C89.4248 92.3637 92.2736 89.5149 92.2736 86.0008C92.2736 82.4867 89.4248 79.6379 85.9107 79.6379C82.3966 79.6379 79.5479 82.4867 79.5479 86.0008C79.5479 89.5149 82.3966 92.3637 85.9107 92.3637Z" fill="#E2EAEE"/>
<path d="M85.9107 200.453C89.4248 200.453 92.2736 197.604 92.2736 194.09C92.2736 190.576 89.4248 187.727 85.9107 187.727C82.3966 187.727 79.5479 190.576 79.5479 194.09C79.5479 197.604 82.3966 200.453 85.9107 200.453Z" fill="#E2EAEE"/>
<path d="M194.09 200.453C197.605 200.453 200.453 197.604 200.453 194.09C200.453 190.576 197.605 187.727 194.09 187.727C190.576 187.727 187.728 190.576 187.728 194.09C187.728 197.604 190.576 200.453 194.09 200.453Z" fill="#C3CED3"/>
<path d="M140 132.577H216.359C220.864 132.577 224.549 136.097 224.812 140.534C224.82 140.354 224.842 140.181 224.842 140C224.842 135.315 221.044 131.517 216.359 131.517H140C135.315 131.517 131.517 135.315 131.517 140C131.517 140.181 131.524 140.354 131.547 140.534C131.81 136.097 135.488 132.577 140 132.577Z" fill="white" fill-opacity="0.2"/>
</svg>
