<svg width="44" height="44" viewBox="0 0 44 44" fill="none" xmlns="http://www.w3.org/2000/svg">
<g clip-path="url(#clip0_6971_6404)">
<path d="M22 41C32.4934 41 41 32.4934 41 22C41 11.5066 32.4934 3 22 3C11.5066 3 3 11.5066 3 22C3 32.4934 11.5066 41 22 41Z" fill="#FFDE00"/>
<path opacity="0.4" d="M21.9992 38.34C12.9932 38.34 5.65918 31.006 5.65918 22C5.65918 12.994 12.9932 5.66 21.9992 5.66C31.0052 5.66 38.3392 12.994 38.3392 22C38.3392 31.006 31.0052 38.34 21.9992 38.34ZM21.9992 6.42C13.4112 6.42 6.41918 13.412 6.41918 22C6.41918 30.588 13.4112 37.58 21.9992 37.58C30.5872 37.58 37.5792 30.588 37.5792 22C37.5792 13.412 30.5872 6.42 21.9992 6.42Z" fill="white"/>
<path d="M33.387 19.0107H30.6636L31.677 15.388H28.4723L27.6236 19.0107H24.305L23.3803 15.388H20.619L19.6943 19.0107H16.3756L15.527 15.388H12.3223L13.3356 19.0107H10.6123V21.7973H14.1083L16.363 29.8787H19.2383L21.531 21.7973H22.481L24.7736 29.8787H27.6363L29.891 21.7973H33.387V19.0107ZM18.0223 25.5213H17.8956L17.0216 21.7973H18.9723L18.0223 25.5213ZM26.1036 25.534H25.9896L25.027 21.7847H26.9776L26.1036 25.534Z" fill="white"/>
</g>
<defs>
<clipPath id="clip0_6971_6404">
<rect width="44" height="44" fill="white"/>
</clipPath>
</defs>
</svg>
