<svg width="48" height="24" viewBox="0 0 48 24" fill="none" xmlns="http://www.w3.org/2000/svg">
<mask id="mask0_3126_2993" style="mask-type:alpha" maskUnits="userSpaceOnUse" x="0" y="0" width="48" height="24">
<path fill-rule="evenodd" clip-rule="evenodd" d="M0 0H48V24H0V0Z" fill="white"/>
</mask>
<g mask="url(#mask0_3126_2993)">
<path fill-rule="evenodd" clip-rule="evenodd" d="M46.8341 5.63181L46.7749 5.34495C46.1451 2.34389 43.5691 0.5 40.0116 0.5L32.3776 0.500541L8.01312 0.500811C4.45557 0.500811 1.85457 2.36525 1.22483 5.36631L1.16561 5.65317C1.05286 6.30745 0.996625 6.9593 1.00016 7.75445V16.1539C1.0045 17.198 1.111 17.944 1.11209 17.9513L1.11643 17.9829C1.5359 21.4374 4.1138 23.5 8.01312 23.5H29.8127H29.882H31.1423C31.1431 23.5 31.1436 23.4995 31.1442 23.4995L31.1453 23.4997C31.3471 23.4997 31.5107 23.337 31.5107 23.1364L31.5104 23.1355L31.5106 23.1344L31.5108 23.1337L31.5109 23.1328V9.53345L31.5108 9.53253L31.5107 9.53197L31.5104 9.53048L31.5105 9.53021L31.5107 9.52994C31.5107 9.32933 31.3471 9.1663 31.1453 9.1663L31.1447 9.16643L31.1441 9.16672L31.1436 9.16684L31.143 9.1667L31.1423 9.16657H29.8127C29.8122 9.16657 29.8119 9.16684 29.8113 9.16684C29.8105 9.16684 29.8094 9.1663 29.8086 9.1663C29.6068 9.1663 29.4432 9.32906 29.4432 9.52967L29.4435 9.53116L29.4438 9.53264V9.53345V21.4531H8.52957C5.06629 21.4531 3.07818 19.3502 3.07574 16.2266L3.07791 7.73498C3.07791 4.58441 5.06466 2.55397 8.52957 2.55397L36.1435 2.5537L39.497 2.55397C42.962 2.55397 44.9256 4.56305 44.9256 7.71389L44.9278 16.205C44.9251 19.3288 42.9581 21.4422 39.4951 21.4422L38.7863 21.452C38.4929 21.4539 38.2376 21.4555 37.9414 21.4568L37.5437 21.4566C37.3421 21.4566 37.1786 21.6193 37.1786 21.8199C37.1786 21.8206 37.1784 21.8212 37.1782 21.8218L37.1778 21.8232L37.1778 21.8237V23.128L37.178 23.1288C37.178 23.1299 37.1775 23.1304 37.1775 23.1312C37.1775 23.3318 37.341 23.4946 37.5429 23.4946L37.8083 23.4949L38.4712 23.4932C38.5962 23.4922 38.7217 23.4911 38.8464 23.4892H40.0116C43.9109 23.4892 46.4638 21.4163 46.8833 17.9616L46.8876 17.9299C46.8887 17.9226 46.9952 17.1767 46.9996 16.1325V7.73309C47.0031 6.93795 46.9468 6.28609 46.8341 5.63181ZM20.1445 15.6469C20.1445 17.0236 21.0092 17.9587 22.2999 17.9587H22.8756C23.0791 17.9587 23.2445 17.7946 23.2445 17.5919V16.442L23.2444 16.4413L23.2443 16.4404C23.2445 16.3468 23.2089 16.253 23.1375 16.1819C23.0655 16.1105 22.9715 16.0754 22.8775 16.0757C22.8767 16.0757 22.8761 16.0754 22.8756 16.0754H22.2116V6.88457L22.2115 6.8843L22.2114 6.88403L22.2116 6.88304L22.2118 6.88268C22.212 6.88221 22.2122 6.88174 22.2122 6.88133C22.2122 6.68072 22.0486 6.51769 21.847 6.51769L21.8464 6.5178L21.8454 6.51796L21.8442 6.51769L21.843 6.51742H20.5134L20.5122 6.51769L20.511 6.51796L20.5105 6.5179L20.5096 6.51769C20.308 6.51769 20.1445 6.68072 20.1445 6.88133V15.6469ZM24.7939 10.548C24.7939 10.5466 24.7948 10.5458 24.7948 10.5445C24.7948 10.3439 24.9583 10.1808 25.1599 10.1808L25.1608 10.1811L25.1615 10.1814L25.1623 10.1812L25.1626 10.1811H26.493L26.4933 10.1812L26.4941 10.1814C26.4945 10.1814 26.4949 10.1812 26.4952 10.1811L26.496 10.1808C26.6975 10.1808 26.8611 10.3439 26.8611 10.5445L26.861 10.5447L26.8608 10.5448C26.8611 10.5458 26.8616 10.5469 26.8616 10.548V16.0748H27.5088L27.5094 16.0749L27.5101 16.0751C27.6041 16.0748 27.6981 16.11 27.7698 16.1813C27.8046 16.2159 27.8299 16.2557 27.8478 16.2979C27.8478 16.2981 27.8484 16.2984 27.8484 16.2989C27.8671 16.3436 27.8769 16.3911 27.8769 16.4387C27.8769 16.4398 27.8774 16.4406 27.8774 16.4417V17.5916L27.8772 17.5927C27.877 17.5932 27.8769 17.5937 27.8769 17.5943C27.8769 17.7952 27.7133 17.9579 27.5115 17.9579L27.5106 17.958L27.5099 17.9582L27.5088 17.9585H26.9524C25.6617 17.9585 24.7939 17.0335 24.7939 15.6568V10.548ZM18.5732 6.9999L18.5732 6.99987L18.5755 6.99278C18.5831 6.96844 18.5879 6.94384 18.5904 6.9187C18.592 6.90572 18.586 6.81785 18.5817 6.79946C18.5711 6.75594 18.5513 6.71862 18.5295 6.68104C18.5219 6.6678 18.5151 6.65644 18.5059 6.6459C18.4904 6.62805 18.473 6.61399 18.4546 6.59966C18.4391 6.5875 18.4233 6.57668 18.4059 6.56722C18.3885 6.55749 18.3717 6.54829 18.3527 6.54181C18.3182 6.5291 18.2285 6.51747 18.2272 6.51747H16.7039L16.7023 6.51774H16.702C16.6895 6.51774 16.6621 6.51882 16.6498 6.52153L16.6413 6.52332C16.6106 6.5297 16.5925 6.53345 16.5624 6.54586C16.5175 6.56425 16.477 6.59128 16.4431 6.62508L11.7559 10.6343C11.2384 11.1472 11.1925 11.9618 11.6489 12.5291L16.401 17.7993C16.4027 17.8014 16.4046 17.8033 16.4065 17.8052L16.4134 17.8117L16.4134 17.8117L16.4134 17.8117C16.4167 17.8147 16.4201 17.8178 16.4233 17.8212C16.4284 17.8266 16.4336 17.8317 16.439 17.8369C16.4689 17.8644 16.502 17.8877 16.5393 17.9039C16.5413 17.9049 16.5434 17.9057 16.5455 17.9064C16.5472 17.907 16.5489 17.9076 16.5507 17.9081L16.5507 17.9082C16.5536 17.9091 16.5565 17.9101 16.5594 17.9112C16.5993 17.9258 16.6411 17.9358 16.6849 17.9364L16.6862 17.9365L16.6876 17.9366H16.6884H16.6887H18.2462C18.247 17.9366 18.2473 17.9364 18.2478 17.9364L18.2494 17.9366C18.2502 17.9366 18.2509 17.9366 18.2516 17.9364C18.2526 17.9363 18.2535 17.936 18.2544 17.9358L18.2561 17.9354C18.257 17.9352 18.258 17.935 18.259 17.935C18.2981 17.9337 18.3353 17.9253 18.3712 17.9126C18.3864 17.9069 18.4002 17.9004 18.4143 17.8928C18.438 17.8807 18.4592 17.8661 18.4798 17.849C18.4814 17.8477 18.4831 17.8464 18.4847 17.8451C18.4865 17.8437 18.4882 17.8423 18.49 17.8409L18.4917 17.8396C18.4998 17.8333 18.5078 17.8272 18.5149 17.8196C18.5401 17.7928 18.5619 17.7628 18.5782 17.729C18.5787 17.7281 18.579 17.7272 18.5792 17.7263L18.5793 17.7259C18.5795 17.7251 18.5797 17.7243 18.5801 17.7236C18.5833 17.7163 18.5853 17.7089 18.5874 17.7014L18.5874 17.7013C18.5887 17.6967 18.59 17.6922 18.5915 17.6876C18.6023 17.6563 18.6089 17.6246 18.6108 17.5925C18.611 17.586 18.6119 17.5638 18.6116 17.5584C18.6091 17.4808 18.5847 17.404 18.5336 17.3407L13.481 11.5817L18.4874 7.14418C18.5189 7.11282 18.5415 7.07605 18.5594 7.03712C18.5654 7.02501 18.5692 7.01272 18.5732 6.9999ZM25.1613 8.53283C25.1607 8.53283 25.1605 8.5331 25.1602 8.5331C25.0015 8.5331 24.8701 8.43226 24.8195 8.29329C24.8051 8.2549 24.7943 8.21407 24.7943 8.17054V6.88036C24.7943 6.87964 24.7944 6.87901 24.7946 6.8784L24.7948 6.87684V6.87657C24.7948 6.67812 24.9584 6.51699 25.1602 6.51699L25.1614 6.51726L25.1627 6.51753H26.4922C26.4933 6.51753 26.4941 6.51699 26.4949 6.51699C26.6471 6.51699 26.7769 6.60864 26.8318 6.73842C26.8508 6.78194 26.8614 6.83007 26.8614 6.88036V8.17054C26.8614 8.2211 26.8508 8.26868 26.8318 8.31248C26.7767 8.44199 26.6468 8.5331 26.4949 8.5331L26.4941 8.53283L26.4932 8.533L26.4928 8.5331H25.1627C25.1621 8.5331 25.1618 8.53283 25.1613 8.53283ZM10.3278 6.86973C10.3278 6.66885 10.1642 6.50609 9.96236 6.50609L9.95855 6.50582H8.62953L8.62572 6.50636C8.58063 6.50636 8.53852 6.51663 8.49885 6.53177C8.48986 6.53536 8.48175 6.53952 8.47354 6.54374L8.46462 6.54827C8.43691 6.56206 8.41165 6.57909 8.38855 6.59937L8.38139 6.60558C8.37421 6.61177 8.36702 6.61795 8.3603 6.62505C8.33368 6.65371 8.31086 6.68561 8.29456 6.72211C8.29394 6.72365 8.29297 6.72492 8.29205 6.72614C8.29154 6.7268 8.29105 6.72745 8.29064 6.72811C8.29048 6.72836 8.29034 6.72861 8.29021 6.72887V6.72941C8.27146 6.77375 8.26087 6.82188 8.26087 6.87271V17.57C8.26087 17.6211 8.27146 17.6692 8.29021 17.7133C8.34536 17.8447 8.47549 17.9371 8.62708 17.9371L8.62953 17.9369H9.95855L9.96236 17.9366C10.1642 17.9366 10.3278 17.7738 10.3278 17.5732V17.5727V17.5724L10.3275 17.5709C10.3274 17.5703 10.3272 17.5696 10.3272 17.5689V6.87325C10.3272 6.87189 10.3278 6.87081 10.3278 6.86973ZM39.6858 14.2414C39.6815 14.2647 39.67 14.3087 39.67 14.3087C39.3462 15.8528 38.0683 16.8215 36.2706 16.8215H35.0959H32.9103C32.9097 16.8215 32.9092 16.821 32.9081 16.821C32.9079 16.821 32.9078 16.8211 32.9076 16.8211C32.9074 16.8212 32.9072 16.8212 32.907 16.8212C32.7054 16.8212 32.5422 16.6585 32.5422 16.4576V16.4571C32.5422 16.4566 32.542 16.4562 32.5419 16.4558C32.5417 16.4554 32.5416 16.455 32.5416 16.4546V15.1504C32.5416 15.1375 32.5449 15.1256 32.5483 15.1135C32.5503 15.1064 32.5523 15.0992 32.5536 15.0917C32.5546 15.0851 32.5555 15.0785 32.5564 15.0718C32.5591 15.0508 32.5619 15.0297 32.5701 15.0101C32.5859 14.9725 32.6101 14.94 32.637 14.91C32.6392 14.9073 32.6409 14.9043 32.6425 14.9014C32.6445 14.8978 32.6465 14.8942 32.6495 14.8911C32.6522 14.8884 32.6554 14.8867 32.6586 14.8849C32.6616 14.8834 32.6645 14.8818 32.6671 14.8795C32.6976 14.8524 32.7307 14.8281 32.769 14.8122C32.7919 14.8028 32.8159 14.7998 32.8401 14.7967C32.846 14.7959 32.8519 14.7952 32.8578 14.7943C32.865 14.7932 32.8719 14.7913 32.8787 14.7894C32.889 14.7866 32.8992 14.7838 32.9103 14.7838H35.0959H36.0046C37.234 14.7838 37.8577 14.2292 37.8577 13.1359C37.8577 13.127 37.858 13.108 37.8585 13.0986C37.8577 12.0296 37.234 11.4753 36.0046 11.4753H35.0959H32.9103C32.8589 11.4753 32.8103 11.4645 32.7657 11.4458C32.6785 11.4088 32.6082 11.3396 32.5712 11.2522C32.5522 11.2079 32.5416 11.1598 32.5416 11.1084V9.80471C32.5416 9.70306 32.5832 9.6114 32.65 9.54516C32.716 9.47892 32.8076 9.43756 32.9086 9.43756C32.9093 9.43756 32.9096 9.43771 32.9098 9.43779C32.9099 9.43781 32.9099 9.43783 32.91 9.43783H32.9103H35.0959H36.2285C38.172 9.43783 39.5117 10.5255 39.7244 12.2759C39.729 12.3069 39.8594 13.2357 39.6986 14.17L39.6858 14.2414Z" fill="#171B1D"/>
</g>
</svg>
