<svg width="24" height="24" viewBox="0 0 24 24" fill="none" xmlns="http://www.w3.org/2000/svg">
<path fill-rule="evenodd" clip-rule="evenodd" d="M12.3901 1C14.8321 1.08206 17.1765 1.97861 19.0505 3.54703L6.77862 15.8212L12.3901 1ZM13.4029 11.9981L20.4502 4.94849C22.0981 6.9276 23.0003 9.42188 23.0001 11.9976C22.9998 14.5732 22.097 17.0673 20.4487 19.046L13.4029 11.9981ZM9.63314 2.69256L1.02257 11.3043C0.844876 14.073 1.72141 16.8063 3.47599 18.9549L9.63314 2.69256ZM4.9541 20.4479L12.0014 13.3983L19.0487 20.4479C17.0703 22.0969 14.5766 23 12.0014 23C9.42622 23 6.93251 22.0969 4.9541 20.4479Z" fill="white"/>
</svg>
