<svg width="80" height="16" viewBox="0 0 80 16" fill="none" xmlns="http://www.w3.org/2000/svg">
<path d="M7.95789 5.53027H9.65109L10.7583 9.87551L11.989 5.53027H13.3502L14.5743 9.8619L15.6942 5.53027H17.3874L15.3749 12.4646H13.9489L12.6661 7.91795L11.3898 12.4646H9.95724L7.95789 5.53027Z" fill="#3BB69D"/>
<path d="M24.6622 5.53065H26.4113V6.08612C26.8973 5.48932 27.6678 5.24609 28.3895 5.24609C30.3124 5.24609 31.3604 6.93977 31.3604 8.85554C31.3604 10.792 30.3124 12.465 28.3618 12.465C27.619 12.465 26.8973 12.2288 26.4113 11.632V15.1997H24.6622V5.53065ZM29.6531 8.85601C29.6531 7.70373 29.1324 6.8083 27.9665 6.8083C26.8001 6.8083 26.2587 7.68964 26.2587 8.85601C26.2587 10.0224 26.8001 10.9314 27.9665 10.9314C29.1324 10.9314 29.6531 10.0083 29.6531 8.85601Z" fill="#3BB69D"/>
<path d="M20.5738 5.24609C19.2065 5.24609 18.3251 5.85698 17.6589 6.76603L18.9581 7.70139C19.2567 7.19568 19.7911 6.72471 20.5879 6.72471C21.6914 6.72471 22.0384 7.16187 22.0731 8.18925H20.1503C18.5956 8.18925 17.3875 8.68885 17.3875 10.1952C17.3875 11.6461 18.4843 12.465 19.9071 12.465C20.6983 12.465 21.6214 12.118 22.0726 11.4029V12.465H23.7663V8.11976C23.7663 6.42608 22.4614 5.24609 20.5738 5.24609ZM20.2475 11.0352C19.491 11.0352 19.1229 10.7089 19.1229 10.2511C19.1229 9.8139 19.477 9.41103 20.2475 9.41103H22.0384H22.0726C21.9684 10.2304 21.2885 11.0352 20.2475 11.0352Z" fill="#3BB69D"/>
<path d="M3.20979 5.01719C3.20979 4.39268 3.75119 3.96915 4.44518 3.96915C5.10444 3.96915 5.68762 4.35089 6.02758 5.01719L7.68369 4.56548C7.14464 3.04178 5.81393 2.3999 4.50764 2.3999C2.85575 2.3999 1.44662 3.37188 1.44662 5.10687C1.44662 8.29983 6.19474 7.61945 6.19474 9.65355C6.19474 10.3475 5.62564 10.903 4.5776 10.903C3.5366 10.903 2.66887 10.3616 2.54397 9.13986L0.800049 9.61552C1.12592 11.5242 2.82382 12.4652 4.54942 12.4652C6.42341 12.4652 7.95744 11.3477 7.95744 9.49437C7.95791 6.23849 3.20979 6.86347 3.20979 5.01719Z" fill="#3BB69D"/>
<path d="M73.1237 8.74619C73.1237 7.19808 72.3396 5.24756 69.9101 5.24756C67.5637 5.24756 66.5087 7.08022 66.5087 8.88471C66.5087 10.7141 67.5891 12.396 69.8786 12.4632V12.4665H72.2278V10.9277H69.8786C68.8973 10.8714 68.3409 10.2661 68.2023 9.40169L73.0613 9.41249C73.096 9.31529 73.1237 9.03074 73.1237 8.74619ZM68.2023 8.19118C68.362 7.32345 68.8963 6.67124 69.896 6.67124C70.6318 6.67124 71.2009 7.0389 71.3746 7.75403C71.4164 7.89302 71.43 8.03858 71.43 8.19118H68.2023Z" fill="#ABABAA"/>
<path d="M65.8367 8.16643C65.8367 6.71551 65.1216 5.25098 63.303 5.25098C62.6226 5.25098 61.8244 5.52191 61.2694 6.20182V5.53506H59.5757V12.4666H61.2694V12.4689V8.53409C61.2694 7.3264 61.8662 6.81271 62.8175 6.81271C63.6852 6.81271 64.1435 7.47196 64.1435 8.38148V12.4666H65.8372V8.16643H65.8367Z" fill="#ABABAA"/>
<path d="M58.6798 8.16643C58.6798 6.71551 57.9647 5.25098 56.1461 5.25098C55.4657 5.25098 54.6675 5.52191 54.1125 6.20182V5.53506H52.4188V12.4666H54.1125V12.4689V8.53409C54.1125 7.3264 54.7093 6.81271 55.6606 6.81271C56.5283 6.81271 56.9866 7.47196 56.9866 8.38148V12.4666H58.6803V8.16643H58.6798Z" fill="#ABABAA"/>
<path d="M48.3356 5.24805C46.9682 5.24805 46.0869 5.85893 45.4206 6.76799L46.7198 7.70334C47.0185 7.19763 47.5528 6.72667 48.3497 6.72667C49.4531 6.72667 49.8001 7.16382 49.8349 8.1912H47.9125C46.3578 8.1912 45.1497 8.69081 45.1497 10.1971C45.1497 11.648 46.2465 12.4669 47.6693 12.4669C48.4605 12.4669 49.3836 12.1199 49.8349 11.4048V12.4669H51.5285V8.12171C51.5285 6.42803 50.2236 5.24805 48.3356 5.24805ZM48.0092 11.0372C47.2528 11.0372 46.8847 10.7108 46.8847 10.253C46.8847 9.81585 47.2387 9.41297 48.0092 9.41297H49.8001H49.8344C49.7306 10.2319 49.0507 11.0372 48.0092 11.0372Z" fill="#ABABAA"/>
<path d="M77.9526 7.11728L78.7372 5.74478C78.393 5.40576 77.8986 5.24658 77.4262 5.24658C76.6228 5.24658 75.8119 5.71849 75.5034 6.55851V5.53066H73.7957V12.4664H75.4893L75.4889 9.39743C75.4889 7.63426 76.3425 6.89847 77.1605 6.89847C77.4403 6.89847 77.7056 6.98158 77.9427 7.13465L77.9526 7.11728Z" fill="#ABABAA"/>
<path d="M43.2968 9.96281C43.0846 10.5422 42.5845 10.9329 41.952 10.9329C40.772 10.9329 40.3278 9.92618 40.3278 8.8711C40.3278 7.83667 40.7861 6.78159 41.952 6.78159C42.5962 6.78159 43.085 7.18822 43.2963 7.77985L44.7022 6.76797C44.1171 5.74435 43.1381 5.24756 41.952 5.24756C39.6892 5.24756 38.6064 7.05252 38.6064 8.8711C38.6064 10.7103 39.7033 12.4669 41.9661 12.4669C43.1433 12.4669 44.1063 11.9063 44.6463 10.9343L43.2968 9.96281Z" fill="#ABABAA"/>
<path d="M38.0295 6.8716L35.9437 5.60193C34.7994 4.90558 33.3072 5.26854 32.6104 6.41284C31.914 7.55714 32.277 9.04938 33.4213 9.74619L34.0801 10.1472C34.0801 10.1472 34.0805 10.1472 34.0805 10.1477C34.4247 10.3571 34.8731 10.2482 35.083 9.90397C35.1065 9.86547 35.1253 9.82508 35.1412 9.7847C35.2647 9.46212 35.145 9.08788 34.8393 8.90194L34.1801 8.50048C33.7241 8.22297 33.579 7.62805 33.857 7.17164C34.135 6.71524 34.7294 6.57061 35.1859 6.84859L37.0861 8.00557L37.2716 8.11826C37.6158 8.32768 38.0647 8.21874 38.2741 7.87456C38.483 7.52991 38.3736 7.08102 38.0295 6.8716Z" fill="#3BB69D"/>
<path d="M31.937 10.841L34.0227 12.1107C35.167 12.8071 36.6593 12.4441 37.3561 11.2998C38.0524 10.1555 37.6895 8.66327 36.5452 7.96645L35.8864 7.56545C35.8864 7.56545 35.8859 7.56545 35.8859 7.56498C35.5417 7.35556 35.0929 7.4645 34.8834 7.80868C34.86 7.84719 34.8412 7.88756 34.8252 7.92794C34.7017 8.25053 34.8215 8.62476 35.1271 8.81071L35.7864 9.21217C36.2423 9.48967 36.3874 10.0846 36.1094 10.541C35.8315 10.9974 35.237 11.142 34.7806 10.8641L32.8803 9.70708L32.6949 9.59439C32.3507 9.38497 31.9018 9.4939 31.6924 9.83809C31.4839 10.1832 31.5928 10.6316 31.937 10.841Z" fill="#ABABAA"/>
</svg>
